<svg width="118" height="109" viewBox="0 0 118 109" fill="none" xmlns="http://www.w3.org/2000/svg">
<g clip-path="url(#clip0_148_1414)">
<path d="M42.5976 117.69C42.548 117.899 42.504 118.119 42.5646 118.322C42.6251 118.52 42.7903 118.674 42.95 118.806C44.4423 120.044 46.4247 120.506 48.352 120.754C50.7363 121.068 53.1427 121.112 55.549 121.117C59.8717 121.128 64.2219 121.024 68.4619 120.187C72.702 119.351 76.8594 117.761 80.2295 115.06C80.5323 114.818 80.8352 114.554 80.9894 114.196C81.127 113.871 81.1215 113.508 81.1325 113.151C81.1876 111.814 81.5841 110.493 82.2779 109.354C71.7053 113.75 60.0369 114.13 48.7429 113.976C47.4654 113.959 45.1912 113.453 44.0018 113.888C42.9005 114.289 42.8564 116.556 42.5976 117.69Z" fill="#F9BBBB" stroke="#1D1D1B" stroke-width="0.954689" stroke-linecap="round" stroke-linejoin="round"/>
<path d="M5.43896 39.1293L7.12948 39.5915L9.10634 48.818L7.38278 47.393L5.43896 39.1293Z" fill="#F9BBBB" stroke="#1D1D1B" stroke-width="0.954689" stroke-linecap="round" stroke-linejoin="round"/>
<path d="M3.06 49.6653L0.323242 43.0136L5.43884 39.1293L7.91679 49.6653L4.11726 51.2938L3.06 49.6653Z" fill="#F9BBBB" stroke="#1D1D1B" stroke-width="0.954689" stroke-linecap="round" stroke-linejoin="round"/>
<path d="M3.82557 48.928C3.05465 49.6818 2.0855 50.4135 1.96435 51.4864C1.9203 51.8935 2.00841 52.3061 2.09651 52.7078C3.12624 57.4008 4.16147 62.0883 5.1912 66.7814C6.5348 65.9726 7.8784 65.1694 9.222 64.3606C9.46429 64.212 9.7231 64.047 9.82773 63.7829C9.91583 63.5573 9.87178 63.2987 9.82222 63.0567C9.48081 61.3511 9.13941 59.6455 8.798 57.9455C8.75945 57.7474 8.72091 57.5384 8.798 57.3513C8.89161 57.1202 9.12839 56.9882 9.33764 56.8506C10.7088 55.9208 11.0447 53.7696 10.0094 52.4712C10.6097 52.2676 11.0227 51.6129 10.9456 50.9857C10.8685 50.3585 10.3178 49.8193 9.68456 49.7588C10.0039 49.3187 10.0205 48.6915 9.72861 48.2348C9.43676 47.7782 8.85306 47.5306 8.32443 47.6351C8.82002 47.173 8.7154 46.2652 8.18126 45.8415C7.65263 45.4179 6.84317 45.4564 6.27599 45.8305C5.22424 46.5293 4.72865 48.0367 3.82557 48.9225V48.928Z" fill="white" stroke="#1D1D1B" stroke-width="0.954689" stroke-linecap="round" stroke-linejoin="round"/>
<path d="M43.5168 61.6537C42.2503 62.1159 40.8462 61.9618 39.5411 62.2974C35.6314 63.3153 34.2218 68.0193 31.5015 71.0013C29.4861 73.2075 26.5401 74.5279 23.5555 74.5664C22.1899 71.9036 20.2076 69.5598 17.8122 67.7717C17.2505 67.3536 16.6503 66.9464 16.2759 66.3523C15.7968 65.593 15.7527 64.6357 15.3783 63.8214C14.2384 61.3346 10.6151 61.2136 8.15919 62.4185C3.85306 64.5312 1.26498 69.6588 2.11299 74.3739C2.56453 76.8827 3.85306 79.144 5.1471 81.3447C7.21757 84.8658 9.47526 88.497 12.9774 90.6042C16.386 92.6509 20.5159 92.9865 24.4696 93.4211C25.8242 93.5697 27.2174 93.7457 28.4068 94.4224C29.0786 94.8021 29.6623 95.3357 30.3727 95.6273C33.0764 96.7277 36.0499 93.9768 38.9023 94.582C41.9695 95.2367 42.9331 99.209 42.5036 102.312C42.0741 105.415 40.9287 108.683 42.1512 111.572C43.7922 115.428 48.704 116.49 52.889 116.749C60.3779 117.211 68.0596 116.749 75.0419 114.003C78.9406 112.474 82.8337 109.905 84.0947 105.916C85.6751 100.893 82.5804 95.6328 82.4868 90.3731C82.4372 87.7873 83.12 85.2509 83.7973 82.7531C83.9791 82.0819 84.1773 81.3777 84.6729 80.888C85.1795 80.3819 85.9064 80.1838 86.5506 79.8757C88.3293 79.0229 88.6762 77.818 89.2764 76.195C89.8215 74.726 91.4845 74.1263 92.8226 73.5871C97.36 71.7495 101.253 68.3494 103.676 64.102C106.099 59.8491 107.041 54.771 106.303 49.9349C106.055 48.3008 105.62 46.6943 105.356 45.0603C104.689 40.9119 105.146 36.681 105.201 32.4777C105.218 31.1132 105.185 29.7048 104.623 28.4613C103.874 26.8108 102.266 25.6664 100.554 25.0777C98.8358 24.489 96.9966 24.3845 95.1849 24.302C93.979 24.247 92.7455 24.203 91.5891 24.5386C88.9625 25.3033 87.2279 27.9222 86.6718 30.6015C86.1156 33.2754 86.5066 36.0483 86.8039 38.7662C87.261 42.9091 87.5088 47.0684 87.5363 51.2333C87.5363 51.723 87.5253 52.2566 87.2114 52.6308C86.8149 53.1094 86.1046 53.1479 85.565 53.456C84.8932 53.8412 84.5462 54.6004 83.9956 55.1396C82.652 56.449 80.4989 56.2124 78.6322 56.0199C73.8965 55.5357 68.2578 55.7063 63.7755 57.4999C59.4749 59.2219 54.965 60.856 50.2679 59.508C47.3219 58.6607 46.0223 60.7624 43.5223 61.6757L43.5168 61.6537Z" fill="#F9BBBB" stroke="#1D1D1B" stroke-width="0.954689" stroke-linecap="round" stroke-linejoin="round"/>
<path d="M47.8021 32.6007C48.844 28.5639 47.3108 24.6788 44.3778 23.9231C41.4447 23.1673 38.2224 25.8272 37.1805 29.8641C36.1386 33.9009 37.6717 37.7861 40.6047 38.5418C43.5378 39.2975 46.7602 36.6376 47.8021 32.6007Z" fill="white" stroke="#1D1D1B" stroke-width="0.954689" stroke-linecap="round" stroke-linejoin="round"/>
<path d="M64.5956 47.7341C68.2024 43.5638 70.6474 38.1775 71.0053 32.5272C71.2696 28.4283 70.2344 23.9278 67.1617 21.4245C64.882 19.5704 61.8754 19.1083 59.012 18.9377C53.3292 18.6021 46.1211 19.6419 42.7346 25.2208C39.9097 29.8753 37.1344 37.6218 38.9901 42.9861C40.3558 46.9364 43.9626 49.5883 47.718 50.9417C49.0121 51.4094 50.3447 51.7505 51.6938 51.965C52.1563 53.467 52.4647 54.892 52.5913 56.4765C52.7731 58.8258 50.5154 60.9605 48.2191 61.032C50.5649 62.2094 53.2852 62.3139 55.9063 62.3304C58.2796 62.3469 60.6915 62.3084 62.9492 61.5822C65.2069 60.8559 67.3159 59.3264 68.1969 57.1312C68.0373 57.5219 64.3809 57.3623 63.9018 57.3568C62.8831 57.3458 61.6607 57.4943 60.9833 56.5976C60.1078 55.4422 59.9867 53.324 60.0693 51.3763C61.8258 50.5896 63.3071 49.2251 64.6012 47.7286L64.5956 47.7341Z" fill="white" stroke="#1D1D1B" stroke-width="0.954689" stroke-linecap="round" stroke-linejoin="round"/>
<path d="M55.1352 33.4845C55.5316 33.523 55.9501 33.5725 56.2805 33.7981C56.3796 33.8641 56.4788 33.9631 56.4898 34.0842C56.5008 34.2052 56.3796 34.3373 56.2695 34.2932C56.3907 34.2822 56.5173 34.3648 56.5503 34.4858C56.5338 34.7334 56.4237 34.9039 56.1429 34.8324C55.8841 34.7664 55.6528 34.7114 55.383 34.6839C54.7222 34.6178 54.0669 34.5463 53.4061 34.4803C53.2189 34.4583 52.9931 34.4198 52.9105 34.2492C52.8169 34.0512 52.9711 33.8146 53.1583 33.7101C53.775 33.3689 54.4579 33.4185 55.1352 33.4845Z" fill="#1D1D1B"/>
<path d="M45.8624 31.3003C45.499 31.1352 45.1135 30.9702 44.7115 31.0032C44.5904 31.0142 44.4582 31.0472 44.3866 31.1462C44.315 31.2453 44.3536 31.4213 44.4747 31.4378C44.3756 31.3663 44.2269 31.3773 44.1333 31.4653C44.0232 31.6854 44.0342 31.8945 44.315 31.9715C44.5683 32.043 44.7996 32.1145 45.0474 32.2246C45.6531 32.4942 46.2589 32.7638 46.8646 33.0333C47.0408 33.1104 47.25 33.1874 47.4097 33.0774C47.5914 32.9563 47.5749 32.6702 47.4593 32.4887C47.0959 31.8835 46.4736 31.5919 45.8569 31.3113L45.8624 31.3003Z" fill="#1D1D1B"/>
<path d="M47.2886 38.8102C47.3161 39.1679 47.5914 39.4925 47.9383 39.586C47.9714 39.597 48.0099 39.6025 48.043 39.586C48.065 39.575 48.0815 39.5475 48.0925 39.52C48.1806 39.3274 48.087 39.0908 47.9273 38.9478C47.7676 38.8047 47.5584 38.7332 47.3602 38.6672C47.3326 38.6727 47.3216 38.6837 47.3161 38.7057C47.3106 38.7332 47.2886 38.7827 47.2886 38.8102Z" fill="#1D1D1B"/>
<path d="M45.8846 38.205C45.846 38.2215 45.813 38.2435 45.78 38.2711C45.7469 38.3041 45.7249 38.3426 45.7139 38.3866C45.7084 38.4141 45.7029 38.4471 45.7139 38.4746C45.7359 38.5406 45.8185 38.5627 45.8901 38.5627C46.0773 38.5682 46.2645 38.4911 46.3912 38.3536C46.4187 38.3206 46.4463 38.2876 46.4573 38.2436C46.4683 38.1995 46.4628 38.15 46.4352 38.1225C46.3196 37.996 46.0002 38.1555 45.8846 38.2105V38.205Z" fill="#1D1D1B"/>
<path d="M46.0439 37.3137C46.3854 37.0552 46.7598 36.8461 47.1563 36.6865C47.349 36.6095 47.5472 36.5435 47.7179 36.428C48.0979 36.1639 48.2686 35.6962 48.4173 35.2561" stroke="#1D1D1B" stroke-width="0.445192" stroke-miterlimit="10" stroke-linecap="round"/>
<path d="M54.216 29.5562C54.0508 29.8588 54.2655 30.2219 54.6069 30.2219C55.4274 30.2219 56.292 30.3595 57.0133 30.7666C57.2501 30.8987 57.4759 31.0692 57.6686 31.2618C57.7677 31.3663 57.8613 31.4764 57.9439 31.5974C58.021 31.7129 58.0816 31.878 58.2303 31.9055C58.6763 31.977 58.8305 31.4213 58.7038 31.0967C58.423 30.387 57.4428 28.6209 54.7281 29.1436C54.5188 29.1821 54.3371 29.3252 54.238 29.5122L54.216 29.5562Z" fill="#1D1D1B"/>
<path d="M49.2103 28.0322C49.2103 28.3733 48.8469 28.5879 48.544 28.4283C47.8227 28.0322 47.0022 27.7406 46.1707 27.7461C45.8954 27.7461 45.62 27.7846 45.3557 27.8671C45.218 27.9111 45.0804 27.9607 44.9482 28.0267C44.8216 28.0872 44.6949 28.2082 44.5462 28.1532C44.1222 28.0047 44.2544 27.438 44.5242 27.2179C45.1134 26.7338 46.826 25.6609 48.946 27.427C49.1112 27.5645 49.1993 27.7736 49.1993 27.9827V28.0322H49.2103Z" fill="#1D1D1B"/>
<path d="M52.5862 41.3025C53.0928 41.2695 53.6654 41.319 54.0013 41.7042C54.2602 42.0013 54.3097 42.4304 54.2436 42.8155C54.106 43.6023 53.5388 44.257 52.8835 44.7082C51.9309 45.3684 50.7194 45.682 49.5796 45.4839C48.4342 45.2858 47.3769 44.5486 46.8703 43.5033C46.6941 43.1456 46.3692 42.2323 46.8318 41.9738C47.1842 41.7757 48.1369 42.0563 48.5609 42.0178C49.921 41.9077 51.2205 41.3961 52.5862 41.3025Z" stroke="#1D1D1B" stroke-width="0.445192" stroke-miterlimit="10" stroke-linecap="round"/>
<path d="M48.9961 43.1512C49.5853 42.9421 50.2351 42.9806 50.8463 43.1182C51.7329 43.3217 52.5919 43.7454 53.1591 44.4551C53.6932 44.0865 54.0787 43.5143 54.2108 42.8816C54.2879 42.513 54.2714 42.0893 54.0236 41.8032C53.7648 41.5061 53.3298 41.4401 52.9333 41.4181C52.1458 41.3741 51.3474 41.4346 50.571 41.5942C50.1194 41.6877 49.6789 41.8142 49.2219 41.8857C48.5666 41.9958 47.8948 41.9958 47.2285 41.9573C47.0908 41.9518 46.9477 41.9408 46.821 42.0068C46.5897 42.1278 46.5402 42.4414 46.5897 42.7C46.6338 42.9476 46.7384 43.1787 46.8706 43.3932C46.9256 43.4813 46.9477 43.5748 46.9917 43.6628C47.0468 43.7729 47.1514 43.8664 47.2395 43.9489C47.4653 44.1745 47.6965 44.4001 47.9223 44.6256C47.9058 44.29 47.9774 43.9104 48.2142 43.6573C48.4289 43.4318 48.6987 43.2612 48.9906 43.1567L48.9961 43.1512Z" fill="#1D1D1B"/>
<path d="M65.9892 10.8776C63.5002 10.3439 60.8956 10.4649 58.346 10.597C54.3373 10.8061 49.7503 12.143 48.5609 16.5499C48.2966 17.5348 48.2745 18.5746 48.3792 19.5924C48.7041 22.767 50.1963 25.7489 52.2503 28.1917C54.2987 30.6345 56.8868 32.5822 59.6126 34.2492C59.6676 33.9906 59.7172 33.7321 59.7722 33.4735C61.0553 35.2946 61.1103 37.8969 59.9044 39.773C60.7249 39.7235 61.4958 39.2009 61.8537 38.4581C61.3416 40.0921 60.4496 41.6051 59.2656 42.843C61.7932 43.0466 64.3152 42.557 66.8041 42.0728C68.4836 41.7427 70.1797 41.4071 71.738 40.7083C74.4527 39.4814 75.5265 37.1487 77.0188 34.7444C77.1069 34.6068 77.4043 34.5628 77.3437 34.7114C77.4703 34.1117 77.6796 33.523 77.9714 32.9838C78.2578 33.1379 78.5221 33.3304 78.7644 33.545C79.0287 29.0005 78.5992 24.324 76.7325 20.1701C74.8657 16.0163 71.4076 12.4346 67.0354 11.1417C66.694 11.0426 66.3471 10.9546 66.0002 10.8776H65.9892Z" fill="#1D1D1B"/>
<path d="M73.1292 41.3252C74.1711 37.2884 72.638 33.4032 69.7049 32.6475C66.7719 31.8918 63.5495 34.5517 62.5076 38.5885C61.4657 42.6254 62.9988 46.5105 65.9319 47.2662C68.865 48.0219 72.0873 45.362 73.1292 41.3252Z" fill="white" stroke="#1D1D1B" stroke-width="0.954689" stroke-linecap="round" stroke-linejoin="round"/>
<path d="M74.6237 41.7097C73.7757 44.9998 71.1436 47.173 68.7537 46.5568C66.3639 45.9406 65.1139 42.7715 65.9619 39.4815C66.8099 36.1914 69.442 34.0182 71.8319 34.6344C74.2217 35.2506 75.4717 38.4196 74.6237 41.7097Z" fill="#F9BBBB" stroke="#1D1D1B" stroke-width="0.776612" stroke-linecap="round" stroke-linejoin="round"/>
<path d="M72.6086 41.187C72.2948 42.4139 71.3146 43.2172 70.428 42.9861C69.536 42.755 69.0734 41.5776 69.3873 40.3562C69.7012 39.1348 70.6813 38.3261 71.5679 38.5572C72.46 38.7882 72.9225 39.9656 72.6086 41.187Z" fill="#F9BBBB" stroke="#1D1D1B" stroke-width="0.667787" stroke-linecap="round" stroke-linejoin="round"/>
<path d="M47.4705 14.2887C44.497 16.1153 42.1456 19.0257 41.2701 22.4039C40.7139 24.5606 40.758 26.8163 40.8076 29.039C41.3968 28.1147 41.9915 27.1849 42.5807 26.2606C43.4727 24.8687 44.3758 23.4602 45.5652 22.3103C47.3934 20.5497 49.8769 19.4879 52.4154 19.3779C52.8339 19.3614 53.2799 19.3614 53.6268 19.1303C54.1995 18.7562 54.2766 17.9584 54.2931 17.2762C54.3096 16.4179 54.3317 15.5431 54.1224 14.7123C53.9793 14.1291 53.7094 13.5625 53.2964 13.1223C52.7623 12.5556 52.2667 12.6161 51.5343 12.7262C50.0861 12.9353 48.715 13.5239 47.4705 14.2887Z" fill="#1D1D1B"/>
<path d="M69.717 34.6454C69.717 34.6454 71.4736 28.2468 70.2952 25.6114C70.2952 25.6114 68.7864 22.712 65.7578 20.6488L69.2765 21.331C69.2765 21.331 72.1344 23.5262 72.7952 25.947C72.7952 25.947 73.7093 27.6361 72.4813 34.6784L69.717 34.6509V34.6454Z" fill="#F9BBBB" stroke="#1D1D1B" stroke-width="0.776612" stroke-linecap="round" stroke-linejoin="round"/>
<path d="M101.523 0.704747C101.743 0.556199 102.013 0.413152 102.266 0.495679C103.83 0.990841 99.7279 7.91761 99.1938 8.84741C99.5076 8.47879 100.124 8.42928 100.51 8.72087C100.895 9.01247 101.022 9.59016 100.818 10.0303C101.033 9.47462 101.864 9.34808 102.316 9.73871C102.762 10.1293 102.817 10.8556 102.536 11.3782C102.646 10.9491 103.329 10.9546 103.605 11.3012C103.88 11.6478 103.852 12.1375 103.808 12.5776C103.649 14.1677 103.379 15.8457 102.349 17.0726C101.661 17.8869 100.681 18.349 100.003 19.1688C99.3094 20.0106 98.8799 21.0449 98.6321 22.0958C98.2962 23.5097 98.2742 24.9787 98.2026 26.4312C98.1916 26.6512 98.175 26.8933 98.0209 27.0529C97.8832 27.2014 97.6739 27.2509 97.4757 27.284C96.1156 27.5205 94.7114 27.5205 93.3513 27.284C93.1696 27.2509 92.9713 27.2124 92.8447 27.0749C92.6905 26.9153 92.674 26.6678 92.6685 26.4477C92.5914 23.6087 92.5088 20.7698 92.6244 17.9254C92.6465 17.3257 92.6795 16.715 92.5253 16.1373C92.3546 15.5046 91.9747 14.9434 91.7599 14.3272C91.3689 13.1993 91.5451 11.9669 91.7269 10.7896C91.7764 10.4594 91.837 10.1128 92.0628 9.87075C92.4758 9.4196 93.2412 9.54614 93.7588 9.88175C94.2764 10.2174 94.6894 10.7125 95.2511 10.9601C97.4702 7.54899 97.8887 3.12554 101.523 0.693744V0.704747Z" fill="white" stroke="#1D1D1B" stroke-width="0.954689" stroke-linecap="round" stroke-linejoin="round"/>
<path d="M94.766 10.674C95.95 11.4498 96.6383 12.9242 96.4731 14.3272C96.4511 14.5198 96.4125 14.7178 96.3134 14.8884C96.1041 15.2625 95.6471 15.4496 95.2176 15.4111C94.7936 15.367 94.4026 15.125 94.1163 14.8114C93.8299 14.4978 93.6262 14.1126 93.439 13.7275" stroke="#1D1D1B" stroke-width="0.954689" stroke-linecap="round" stroke-linejoin="round"/>
<path d="M99.2709 8.72638C98.6046 9.3921 98.0925 10.2119 97.7896 11.1032C97.685 11.4113 97.6024 11.7359 97.652 12.0605C97.7015 12.3796 97.8998 12.6987 98.2081 12.7977C98.3568 12.8472 98.5495 12.8252 98.6211 12.6822" stroke="#1D1D1B" stroke-width="0.954689" stroke-linecap="round" stroke-linejoin="round"/>
<path d="M100.989 9.83774C100.515 10.3659 100.047 10.8996 99.6947 11.5103C99.3423 12.121 99.1055 12.8197 99.133 13.5239C99.1385 13.7385 99.1826 13.9641 99.3258 14.1181C99.5625 14.3657 99.959 14.3272 100.3 14.2722C100.185 14.2612 100.075 14.2557 99.959 14.2447" stroke="#1D1D1B" stroke-width="0.954689" stroke-linecap="round" stroke-linejoin="round"/>
<path d="M102.867 11.2132C102.123 11.9724 101.6 12.9407 101.375 13.9751C101.331 14.1676 101.297 14.3712 101.325 14.5693C101.353 14.7673 101.446 14.9654 101.617 15.0699" stroke="#1D1D1B" stroke-width="0.954689" stroke-linecap="round" stroke-linejoin="round"/>
<path d="M43.4782 48.8455C43.2745 52.1741 43.0983 55.6347 44.3758 58.7158C44.8659 59.8931 45.5597 60.977 46.3362 61.9893C49.9099 66.6383 55.3944 69.7744 61.2149 70.4896" stroke="#1D1D1B" stroke-width="0.445192" stroke-linecap="round" stroke-linejoin="round"/>
<path d="M46.3527 60.3498C46.3362 60.5203 46.3472 60.6854 46.3692 60.845" stroke="#1D1D1B" stroke-width="0.445192" stroke-linecap="round" stroke-linejoin="round"/>
<path d="M47.019 62.1544C47.5422 62.7541 48.3021 63.2272 49.04 63.5408" stroke="#1D1D1B" stroke-width="0.445192" stroke-linecap="round" stroke-linejoin="round"/>
<path d="M49.04 63.5408C51.6006 64.6302 54.442 64.8668 57.2228 64.9053C58.5664 64.9218 59.9265 64.8998 61.2316 64.5697C64.1445 63.8379 66.4738 61.6922 68.4507 59.431C69.1665 58.6112 69.8824 57.7144 70.1742 56.6801" stroke="#1D1D1B" stroke-width="0.445192" stroke-linecap="round" stroke-linejoin="round"/>
<path d="M70.1904 56.6361C70.2345 56.4765 70.2675 56.317 70.2896 56.1519" stroke="#1D1D1B" stroke-width="0.445192" stroke-linecap="round" stroke-linejoin="round"/>
<path d="M66.4959 46.9859C65.301 46.4082 64.4034 45.2418 64.1611 43.9379" stroke="#1D1D1B" stroke-width="0.445192" stroke-linecap="round" stroke-linejoin="round"/>
<path d="M63.8471 43.0246C63.8196 42.744 63.7976 42.4689 63.77 42.1883" stroke="#1D1D1B" stroke-width="0.445192" stroke-linecap="round" stroke-linejoin="round"/>
<path d="M63.687 41.3576C63.7201 41.2475 63.7366 41.132 63.7311 41.0164" stroke="#1D1D1B" stroke-width="0.445192" stroke-linecap="round" stroke-linejoin="round"/>
<path d="M63.7754 40.3012C63.8139 40.2352 63.8305 40.1472 63.8084 40.0701" stroke="#1D1D1B" stroke-width="0.445192" stroke-linecap="round" stroke-linejoin="round"/>
<path d="M51.9365 21.7546C52.0907 22.2113 52.1622 22.6129 52.2614 23.0201C52.344 23.4327 52.4486 23.8288 52.5036 24.3075C52.1072 24.0214 51.8869 23.5812 51.7768 23.1301C51.6832 22.6734 51.6997 22.1783 51.9365 21.7546Z" fill="white"/>
<path d="M53.1642 23.1961C53.3845 23.5812 53.4891 23.9444 53.5937 24.313C53.6819 24.6871 53.7645 25.0557 53.7534 25.4959C53.4065 25.2153 53.2193 24.8301 53.1092 24.434C53.0156 24.0324 52.9935 23.6032 53.1587 23.1961H53.1642Z" fill="white"/>
<path d="M54.64 24.5936C54.8493 25.0172 54.9539 25.4133 55.0585 25.8205C55.1521 26.2276 55.2402 26.6292 55.2457 27.1024C54.8823 26.7943 54.6896 26.3706 54.5795 25.936C54.4803 25.5014 54.4638 25.0337 54.6455 24.5936H54.64Z" fill="white"/>
<path d="M55.7464 26.1671C56.0658 26.4092 56.2365 26.6898 56.3742 26.9924C56.5008 27.3005 56.5889 27.6196 56.5504 28.0157C56.242 27.7956 56.0658 27.4985 55.9226 27.1904C55.796 26.8768 55.6969 26.5467 55.7464 26.1671Z" fill="white"/>
<path d="M57.8061 27.6086C58.0484 27.7791 58.1475 27.9717 58.2301 28.1752C58.2962 28.3843 58.3347 28.5934 58.2466 28.8795C57.9713 28.7584 57.8446 28.5549 57.762 28.3348C57.6959 28.1147 57.6684 27.8726 57.8061 27.6086Z" fill="white"/>
<path d="M59.3811 29.2151C59.6179 29.2811 59.706 29.3746 59.7611 29.4902C59.7996 29.6112 59.8051 29.7377 59.684 29.9523C59.4582 29.9193 59.3646 29.8038 59.304 29.6772C59.26 29.5452 59.2435 29.3966 59.3811 29.2151Z" fill="white"/>
<path d="M60.7633 31.0197C60.9781 31.0307 61.0497 31.1022 61.0882 31.1792C61.1158 31.2672 61.1048 31.3663 60.9506 31.5203C60.7358 31.5093 60.6642 31.4378 60.6257 31.3608C60.6037 31.2728 60.6092 31.1737 60.7633 31.0197Z" fill="white"/>
<path d="M61.8204 32.7142C62.0352 32.8188 62.1013 32.9673 62.1123 33.1104C62.1123 33.2589 62.0682 33.413 61.859 33.534C61.6718 33.3855 61.6277 33.2644 61.6167 33.1324C61.6167 33.0058 61.6497 32.8793 61.8149 32.7087L61.8204 32.7142Z" fill="white"/>
<path d="M50.4551 21.463C50.2239 21.243 50.1633 20.9734 50.1688 20.7093C50.1853 20.4452 50.2679 20.1811 50.5212 19.9831C50.6534 20.2692 50.6699 20.4947 50.6644 20.7313C50.6479 20.9679 50.6148 21.1935 50.4551 21.463Z" fill="white"/>
<path d="M8.26953 83.3638C8.53935 83.5069 8.85323 83.5674 9.16159 83.5399" stroke="#1D1D1B" stroke-width="0.445192" stroke-miterlimit="10" stroke-linecap="round"/>
<path d="M9.2002 84.7998C9.75085 84.7888 10.307 84.7393 10.8522 84.6512" stroke="#1D1D1B" stroke-width="0.445192" stroke-miterlimit="10" stroke-linecap="round"/>
<path d="M10.3506 85.7956C11.0719 85.9387 11.8429 85.8451 12.5092 85.526" stroke="#1D1D1B" stroke-width="0.445192" stroke-miterlimit="10" stroke-linecap="round"/>
<path d="M11.6338 86.9785C12.2175 86.995 12.8012 86.9345 13.3684 86.7914" stroke="#1D1D1B" stroke-width="0.445192" stroke-miterlimit="10" stroke-linecap="round"/>
<path d="M13.3633 88.2604C13.6551 88.2659 13.947 88.2384 14.2278 88.1779" stroke="#1D1D1B" stroke-width="0.445192" stroke-miterlimit="10" stroke-linecap="round"/>
<path d="M15.3447 89.0857H16.0441" stroke="#1D1D1B" stroke-width="0.445192" stroke-miterlimit="10" stroke-linecap="round"/>
<path d="M17.4873 89.5808H18.1481" stroke="#1D1D1B" stroke-width="0.445192" stroke-miterlimit="10" stroke-linecap="round"/>
<path d="M19.7173 90.2411H19.8825" stroke="#1D1D1B" stroke-width="0.445192" stroke-miterlimit="10" stroke-linecap="round"/>
<path d="M7.26123 81.6198C7.43744 81.6583 7.61916 81.7023 7.79537 81.7408" stroke="#1D1D1B" stroke-width="0.445192" stroke-miterlimit="10" stroke-linecap="round"/>
<path d="M76.2095 110.785C76.3526 110.158 76.4077 109.508 76.3747 108.865" stroke="#1D1D1B" stroke-width="0.445192" stroke-miterlimit="10" stroke-linecap="round"/>
<path d="M77.6685 110.097C77.9493 109.426 78.0154 108.672 77.8557 107.962" stroke="#1D1D1B" stroke-width="0.445192" stroke-miterlimit="10" stroke-linecap="round"/>
<path d="M80.0142 108.546C80.1243 108.221 80.1573 107.869 80.1078 107.528" stroke="#1D1D1B" stroke-width="0.445192" stroke-miterlimit="10" stroke-linecap="round"/>
<path d="M81.3247 107.203C81.3853 107.066 81.4459 106.923 81.5064 106.785" stroke="#1D1D1B" stroke-width="0.445192" stroke-miterlimit="10" stroke-linecap="round"/>
<path d="M88.8193 31.7569C88.946 32.1861 89.1828 32.5877 89.4966 32.9068" stroke="#1D1D1B" stroke-width="0.445192" stroke-miterlimit="10" stroke-linecap="round"/>
<path d="M88.5771 33.7761C88.8965 34.2217 89.2324 34.6509 89.5904 35.0635" stroke="#1D1D1B" stroke-width="0.445192" stroke-miterlimit="10" stroke-linecap="round"/>
<path d="M88.6431 35.8008C89.0506 36.3564 89.5737 36.8296 90.1629 37.1927" stroke="#1D1D1B" stroke-width="0.445192" stroke-miterlimit="10" stroke-linecap="round"/>
<path d="M89.0562 38.4086C89.326 38.5186 89.5738 38.6837 89.783 38.8873" stroke="#1D1D1B" stroke-width="0.445192" stroke-miterlimit="10" stroke-linecap="round"/>
<path d="M89.3975 40.7579C89.5406 40.8734 89.6838 40.9834 89.827 41.099" stroke="#1D1D1B" stroke-width="0.445192" stroke-miterlimit="10" stroke-linecap="round"/>
<path d="M89.7773 43.1842C89.8654 43.1677 89.9536 43.2557 89.9425 43.3437" stroke="#1D1D1B" stroke-width="0.445192" stroke-miterlimit="10" stroke-linecap="round"/>
<path d="M89.8325 45.7095C89.8545 45.8195 89.8711 45.9296 89.8931 46.0396" stroke="#1D1D1B" stroke-width="0.445192" stroke-miterlimit="10" stroke-linecap="round"/>
<path d="M25.5107 32.8353L28.1924 20.9954" stroke="#1D1D1B" stroke-width="0.890383" stroke-miterlimit="10" stroke-linecap="round"/>
<path d="M32.3548 21.9362C32.3548 21.9362 31.2645 21.9307 30.2734 21.3035C30.2734 21.3035 28.9628 20.2306 28.0487 20.8193L27.5972 22.8165C27.5972 22.8165 29.0344 22.2388 30.2513 23.0201C31.4738 23.8013 32.3548 21.9362 32.3548 21.9362Z" fill="#1D1D1B"/>
<path d="M26.3969 32.6152C26.3033 33.358 25.3341 33.8531 24.2273 33.7156C23.1205 33.578 22.2945 32.8683 22.3881 32.1256C22.4817 31.3828 23.4509 30.8876 24.5577 31.0252C25.6645 31.1627 26.4905 31.8725 26.3969 32.6152Z" fill="#1D1D1B"/>
<path d="M20.2682 46.4907L19.668 36.6425" stroke="#1D1D1B" stroke-width="0.890383" stroke-miterlimit="10" stroke-linecap="round"/>
<path d="M21.1768 46.1881C21.2979 46.9254 20.4995 47.6736 19.3982 47.8497C18.2968 48.0312 17.3057 47.5746 17.1845 46.8373C17.0634 46.1001 17.8618 45.3519 18.9631 45.1758C20.0644 44.9942 21.0556 45.4509 21.1768 46.1881Z" fill="#1D1D1B"/>
<path d="M8.70432 27.5315L6.81006 16.8525L14.5248 15.235L15.6481 25.3748" stroke="#1D1D1B" stroke-width="0.890383" stroke-linecap="round" stroke-linejoin="round"/>
<path d="M9.32674 26.9758C9.50846 27.6195 8.88071 28.3623 7.91706 28.6319C6.95892 28.9015 6.03382 28.5989 5.8521 27.9552C5.67038 27.3114 6.29813 26.5687 7.26178 26.2991C8.21992 26.0295 9.14503 26.3321 9.32674 26.9758Z" fill="#1D1D1B"/>
<path d="M16.3692 25.5619C16.5509 26.2056 15.9232 26.9483 14.9595 27.2179C14.0014 27.4875 13.0763 27.1849 12.8946 26.5412C12.7129 25.8975 13.3406 25.1547 14.3043 24.8852C15.2624 24.6156 16.1875 24.9182 16.3692 25.5619Z" fill="#1D1D1B"/>
<path d="M7.10742 18.5251L14.5633 16.77" stroke="#1D1D1B" stroke-width="0.890383" stroke-miterlimit="10" stroke-linecap="round"/>
<path d="M63.324 99.2145C69.4246 99.2145 74.3702 94.2733 74.3702 88.1779C74.3702 82.0826 69.4246 77.1413 63.324 77.1413C57.2234 77.1413 52.2778 82.0826 52.2778 88.1779C52.2778 94.2733 57.2234 99.2145 63.324 99.2145Z" fill="white"/>
<path d="M63.324 96.8157C68.0987 96.8157 71.9693 92.9484 71.9693 88.1779C71.9693 83.4074 68.0987 79.5401 63.324 79.5401C58.5493 79.5401 54.6787 83.4074 54.6787 88.1779C54.6787 92.9484 58.5493 96.8157 63.324 96.8157Z" fill="#F9BBBB"/>
<path d="M63.3238 93.7732C66.4167 93.7732 68.924 91.2681 68.924 88.1779C68.924 85.0877 66.4167 82.5826 63.3238 82.5826C60.2309 82.5826 57.7236 85.0877 57.7236 88.1779C57.7236 91.2681 60.2309 93.7732 63.3238 93.7732Z" fill="white"/>
<path d="M65.7579 88.1779C65.7579 86.8354 64.6676 85.7461 63.324 85.7461C61.9804 85.7461 60.8901 86.8354 60.8901 88.1779C60.8901 89.5203 61.9804 90.6097 63.324 90.6097C64.6676 90.6097 65.7579 89.5203 65.7579 88.1779Z" fill="#1D1D1B"/>
<path d="M9.60156 56.8396C12.7623 60.2673 14.5465 64.7017 16.3416 69.0041C17.5585 71.9256 18.7039 74.8745 19.8713 77.818C21.0277 80.734 21.5838 83.969 22.2171 87.05C23.1532 91.5725 23.8581 96.1665 23.8911 100.794C23.9186 103.825 24.0783 109.558 20.7524 111.17C20.1191 111.478 19.3922 111.577 18.6874 111.55C16.7215 111.473 14.8108 110.4 13.7645 108.738C12.7128 107.077 12.5696 104.87 13.4286 103.104C14.2876 101.338 16.1323 100.078 18.0982 99.9628C22.4814 99.7097 26.1928 104.958 29.7281 106.939C32.9439 108.738 36.7159 109.371 40.3998 109.233C46.8645 108.986 53.8027 107.099 59.5406 104.166C60.9337 103.451 62.3379 102.648 63.3071 101.421C64.8269 99.4951 65.0361 96.8762 65.1297 94.4279C65.2068 92.3538 65.2454 90.2576 64.7994 88.2329C64.3864 86.3513 63.5659 84.5852 62.9657 82.7531C61.5615 78.4507 61.4238 73.8512 61.3137 69.3287C61.165 63.0512 61.2752 56.1464 65.383 51.3928C66.6606 49.9129 68.3896 48.4494 68.307 46.4962" stroke="#1D1D1B" stroke-width="0.445192" stroke-linecap="round" stroke-linejoin="round"/>
<path d="M67.6188 47.5471C67.6188 47.5471 67.1177 48.5979 66.4955 49.2692C66.3248 49.4562 66.3633 49.7533 66.5781 49.8909L66.8919 50.0999C67.0571 50.21 67.2774 50.188 67.4206 50.0504C67.8886 49.5773 68.8523 48.4549 68.8027 47.3325L67.6243 47.5471H67.6188Z" fill="#1D1D1B"/>
<path d="M42.9826 48.8125L42.7954 50.3255C42.7679 50.5346 42.911 50.7271 43.1148 50.7656L43.4011 50.8207C43.6379 50.8647 43.8582 50.6996 43.8802 50.4575L43.9738 49.2802L42.9881 48.807L42.9826 48.8125Z" fill="#1D1D1B"/>
<path d="M41.0883 25.7875C40.3009 26.5082 39.6456 27.383 39.3042 28.4063" stroke="#1D1D1B" stroke-width="0.445192" stroke-linecap="round" stroke-linejoin="round"/>
<path d="M38.8197 29.1051C38.7702 29.3251 38.7151 29.5397 38.6655 29.7598" stroke="#1D1D1B" stroke-width="0.445192" stroke-linecap="round" stroke-linejoin="round"/>
<path d="M38.3128 30.8546C38.3238 30.9371 38.3128 31.0197 38.2798 31.0912" stroke="#1D1D1B" stroke-width="0.445192" stroke-linecap="round" stroke-linejoin="round"/>
<path d="M6.17676 40.3672L7.00274 40.4828" stroke="#1D1D1B" stroke-width="0.222596" stroke-linecap="round" stroke-linejoin="round"/>
<path d="M6.20996 41.11L7.27273 41.165" stroke="#1D1D1B" stroke-width="0.222596" stroke-linecap="round" stroke-linejoin="round"/>
<path d="M6.45752 41.7317L7.40465 41.9022" stroke="#1D1D1B" stroke-width="0.222596" stroke-linecap="round" stroke-linejoin="round"/>
<path d="M6.45752 42.4414L7.59187 42.5569" stroke="#1D1D1B" stroke-width="0.222596" stroke-linecap="round" stroke-linejoin="round"/>
<path d="M6.73828 43.2667H7.91669" stroke="#1D1D1B" stroke-width="0.222596" stroke-linecap="round" stroke-linejoin="round"/>
<path d="M7.0249 43.8114L7.71873 43.9709" stroke="#1D1D1B" stroke-width="0.222596" stroke-linecap="round" stroke-linejoin="round"/>
<path d="M7.0249 44.4606L7.91697 44.5211" stroke="#1D1D1B" stroke-width="0.222596" stroke-linecap="round" stroke-linejoin="round"/>
</g>
<defs>
<clipPath id="clip0_148_1414">
<rect width="118" height="109" fill="white"/>
</clipPath>
</defs>
</svg>
