<svg width="118" height="110" viewBox="0 0 118 110" fill="none" xmlns="http://www.w3.org/2000/svg">
<g clip-path="url(#clip0_186_2533)">
<g clip-path="url(#clip1_186_2533)">
<path d="M88.1496 9.89669C88.1496 9.89669 85.1631 5.85323 83.425 4.75232C81.687 3.65141 74.0932 1.4428 68.6238 2.78836C63.1543 4.13391 59.1678 7.68808 58.547 8.67346C57.9263 9.65204 56.1951 14.7964 56.6779 16.8827C57.1676 18.969 59.2919 25.8327 59.6644 26.5666C60.0368 27.3006 62.5267 32.0847 62.6508 32.6964C62.775 33.308 60.6575 38.7038 60.6575 38.7038L59.3126 40.3619L58.5401 41.7687L55.1053 46.3965L54.6846 47.6538C54.6846 47.6538 45.6011 53.0496 44.4837 54.3951C43.3664 55.7407 39.9661 58.9619 39.635 60.1579C39.304 61.3539 37.1451 79.4034 37.1451 83.3245C37.1451 87.2457 37.021 104.283 37.021 104.283C37.021 104.283 38.1383 112.125 38.3866 112.988C38.6349 113.844 40.1247 122.183 40.1247 122.183L49.7049 136.277L51.4498 146.328L57.5469 169.005L59.5402 178.077C59.5402 178.077 59.1678 183.962 58.547 186.287C57.9263 188.618 55.933 201.237 56.5537 204.424C57.1745 207.612 60.5334 222.195 60.5334 222.195L61.7749 224.526L62.3956 232.246C62.3956 232.246 70.5825 234.516 72.5965 234.577C74.6105 234.638 81.5559 235.556 82.425 235.189C83.294 234.822 84.2941 234.088 84.2941 234.088C84.2941 234.088 88.7703 233.232 88.6462 232.375C88.522 231.519 86.5288 230.534 84.5424 228.087C82.5491 225.634 77.5763 223.677 77.2038 223.31C76.8314 222.943 74.9622 218.532 74.9622 216.813C74.9622 215.094 83.6664 193.157 83.9216 192.423C84.1768 191.689 88.2737 181.271 88.3979 178.451C88.522 175.631 92.3775 150.385 92.5017 149.039C92.6258 147.694 92.6258 137.765 92.6258 137.765L92.5017 128.693C92.5017 128.693 97.4745 126.24 97.7228 125.628C97.9711 125.016 97.7711 124.092 97.7711 124.092L95.1088 102.468C95.1088 102.468 98.9643 102.223 101.082 96.8277C103.199 91.4318 103.944 87.5107 103.944 87.5107C103.944 87.5107 103.572 85.1798 103.572 84.6905C103.572 84.2012 103.696 82.978 103.696 82.978C103.696 82.978 105.689 82.611 106.434 81.877C107.179 81.1431 107.055 80.6538 107.303 80.1645C107.551 79.6752 108.269 78.0918 108.544 76.9773C108.82 75.8628 108.669 75.5095 108.793 74.6464C108.917 73.7901 108.917 72.4378 108.917 72.4378L109.041 71.3369C109.041 71.3369 110.531 70.3583 109.662 68.272C108.793 66.1857 107.669 65.5741 107.669 65.5741L107.048 61.4083C107.048 61.4083 103.937 59.8181 100.578 59.8181C97.2194 59.8181 93.6121 61.0413 93.6121 61.0413L93.9846 66.5595C93.9846 66.5595 91.743 66.6818 91.8672 68.272C91.9913 69.8622 94.6053 70.7253 94.6053 70.7253L96.3434 80.7761L97.3366 81.1431L92.5914 88.8427L86.6391 55.163C86.6391 55.163 84.6458 53.1991 83.2802 52.4651C81.9146 51.7312 79.004 50.9497 79.004 50.9497C79.004 50.9497 77.8039 47.9256 77.3073 46.8247C76.8107 45.7238 76.9348 45.4791 76.0658 45.1054C75.1967 44.7384 74.5139 45.1529 74.0725 44.1268C73.6311 43.1006 73.2035 43.0259 73.4518 42.4143C73.7001 41.8026 73.9484 41.6803 74.445 41.0687C74.9415 40.4571 76.4382 37.7592 76.4382 37.7592C76.4382 37.7592 78.3074 39.3494 81.1628 40.5794C84.0251 41.8026 85.0183 41.0687 85.639 40.7017C86.2598 40.3348 87.253 38.8601 87.0047 38.1261C86.7564 37.3922 86.915 36.9505 86.4598 36.434C86.0115 35.9175 86.6529 30.3994 86.6529 30.3994C86.6529 30.3994 90.736 28.8092 90.736 26.9676C90.736 25.1259 87.8737 24.392 87.8737 24.392C87.8737 24.392 87.1288 22.428 87.1288 20.8378C87.1288 19.2476 88.9979 13.2402 88.9979 12.3839C88.9979 11.5277 88.1289 9.93067 88.1289 9.93067L88.1496 9.89669Z" fill="white"/>
<path d="M71.1827 26.2132C71.1827 26.2132 66.9961 30.7595 64.4855 30.5489C61.975 30.3382 57.5953 22.0678 57.7884 16.5972C57.9815 11.1335 66.7823 5.66292 69.6515 4.9086C72.5207 4.15427 77.1142 4.34455 80.749 6.03669C84.3838 7.73562 86.1081 9.24427 86.1081 9.24427C86.1081 9.24427 79.6041 5.66292 77.6867 7.36185C75.7693 9.06079 78.8316 11.3238 79.411 13.7702C79.9834 16.2235 77.5005 18.2962 77.5005 18.2962C77.5005 18.2962 73.8657 30.3586 75.3968 31.3032C76.928 32.2478 79.0316 34.3205 79.2248 33.3759C79.4179 32.4313 80.2111 30.1683 83.0527 29.9848C85.8943 29.7946 88.8601 29.4412 86.6875 30.3586C84.5149 31.2828 81.5215 32.8119 81.7146 34.504C81.9078 36.2029 83.4389 37.1407 84.3907 36.767C85.3494 36.3932 86.0047 33.7836 86.4944 36.3932C86.991 39.0028 87.4531 41.6735 84.0045 41.1094C80.5628 40.5454 75.7762 37.7184 74.8175 36.5835C73.8588 35.4554 72.907 34.7011 73.0932 33.1924C73.2794 31.6838 73.6657 27.3481 73.6657 27.3481C73.6657 27.3481 74.8106 25.0851 74.2381 22.4484C73.6657 19.8116 72.1345 16.9846 70.9827 19.6213C69.8377 22.2581 71.1758 26.22 71.1758 26.22L71.1827 26.2132Z" fill="#9A5E4E"/>
<path d="M59.3198 40.3551L74.6245 55.2513L76.3488 56.5697L75.9695 49.971C75.9695 49.971 73.4796 45.4451 74.8246 45.4451C76.1695 45.4451 79.0318 50.9088 79.0318 50.9088L81.7079 52.6078C81.7079 52.6078 83.6184 53.1718 84.384 53.9261C85.1496 54.6805 86.6808 57.888 86.6808 57.888L90.3156 80.7013L92.6123 88.8086L94.9091 84.6632C94.9091 84.6632 98.737 90.3173 99.5026 90.8813C100.268 91.4453 102.944 89.9367 102.944 89.9367C102.944 89.9367 98.737 98.8459 97.3989 100.871L96.054 102.896C96.054 102.896 98.1369 123.419 97.7783 124.058C97.4265 124.69 96.054 125.94 96.054 125.94C96.054 125.94 90.1224 129.148 89.3569 128.203C88.5913 127.259 87.8257 125.75 88.5913 124.622C89.3569 123.494 89.3569 116.515 89.1637 114.442C88.9706 112.369 84.5702 88.428 84.5702 88.428L83.0391 83.1478C83.0391 83.1478 82.2735 92.3832 83.0391 93.7015C83.8046 95.0199 85.5289 102.753 85.7152 108.598C85.9083 114.442 84.3771 124.058 84.3771 125.75C84.3771 127.442 84.9496 129.141 83.8046 129.712C82.6597 130.276 81.5079 130.84 79.7836 130.84C78.0593 130.84 71.3622 129.896 68.6861 129.332C66.01 128.767 59.3129 127.259 59.3129 127.259L59.8853 129.141L51.657 138.377C51.657 138.377 41.8975 125.743 39.7939 120.653C37.6903 115.563 37.304 107.266 38.0696 101.048C38.8352 94.8296 37.6903 80.4974 38.2627 73.3347C38.8352 66.172 40.3664 59.9471 42.47 59.9471C44.5736 59.9471 48.2084 63.7188 48.4016 61.6461C48.5947 59.5734 46.491 59.1928 47.2566 56.7464C48.0222 54.2931 57.2092 49.7739 57.2092 49.7739L55.1056 46.3829L59.3129 40.3483L59.3198 40.3551Z" fill="#CD9A69"/>
<path d="M94.1157 64.677C94.1157 64.677 96.3159 65.2683 99.1162 65.4653C101.916 65.6624 106.717 64.0858 106.717 64.0858L106.317 65.6624C106.317 65.6624 103.317 68.3331 103.117 68.4215C102.916 68.5098 106.117 68.2244 106.117 68.2244C106.117 68.2244 104.317 69.9981 103.517 70.3923C102.716 70.7864 101.199 71.4524 101.716 72.7572C102.234 74.0619 101.716 75.5162 101.716 75.5162C101.716 75.5162 102.316 76.5016 103.317 76.5016C104.317 76.5016 105.917 75.7133 105.917 75.7133L104.317 78.6694C104.317 78.6694 103.917 79.4577 101.516 79.6548C99.1162 79.8519 97.516 79.6548 97.516 79.6548L96.1159 79.0636L94.1157 64.677Z" fill="#E2BAA5"/>
<path d="M74.8931 23.5697C74.8931 23.5697 73.5206 17.3448 71.4584 19.9136C69.3961 22.4824 70.9066 26.4103 72.1481 27.0899C73.3827 27.7695 74.4862 26.8181 74.4862 26.8181" stroke="#653431" stroke-linecap="round" stroke-linejoin="round"/>
<path d="M86.8462 8.13647C86.8462 8.13647 89.5913 10.8412 88.6326 13.6886C87.6739 16.5292 86.7083 22.0813 87.9428 23.9773" stroke="#653431" stroke-linecap="round" stroke-linejoin="round"/>
<path d="M89.4531 24.922C89.4531 24.922 91.5154 26.0025 90.4118 27.4908C89.3152 28.979 86.9771 30.0596 86.9771 30.0596" stroke="#653431" stroke-linecap="round" stroke-linejoin="round"/>
<path d="M86.2943 31.5546V36.4271C86.2943 36.4271 87.9427 37.6435 86.984 38.9959C86.0253 40.3482 84.9217 41.5647 81.9008 41.0278C78.8798 40.4842 76.5417 38.0513 76.5417 38.0513C76.5417 38.0513 73.6587 41.0278 73.6587 43.0597C73.6587 45.0917 75.583 47.5245 75.8589 51.0447C76.1348 54.5649 76.1348 56.0532 76.1348 56.0532" stroke="#653431" stroke-linecap="round" stroke-linejoin="round"/>
<path d="M61.9748 30.3381C61.9748 30.3381 64.0371 31.1536 62.6645 34.5379C61.292 37.9222 60.4644 39.8182 60.4644 39.8182L74.2035 53.8989" stroke="#653431" stroke-linecap="round" stroke-linejoin="round"/>
<path d="M60.6024 27.7694C60.6024 27.7694 58.1263 24.521 57.1676 18.9689C56.2089 13.4168 57.1676 7.59967 65.2718 4.2154C73.376 0.831126 79.7006 2.31939 85.7426 6.38324" stroke="#653431" stroke-linecap="round" stroke-linejoin="round"/>
<path d="M87.6668 10.7122C87.6668 10.7122 84.5079 7.46381 80.3834 7.05607C76.2589 6.64833 77.6383 10.1685 78.8729 11.6568C80.1075 13.145 82.0318 15.5847 80.3834 17.2089C78.7349 18.8331 77.6383 18.8331 77.6383 18.8331" stroke="#653431" stroke-linecap="round" stroke-linejoin="round"/>
<path d="M77.5006 20.729C77.5006 20.729 74.4797 30.4741 75.8522 31.4255C77.2248 32.3769 79.1491 33.9943 79.1491 33.9943C79.1491 33.9943 81.6251 29.9304 85.8807 29.7945" stroke="#653431" stroke-linecap="round" stroke-linejoin="round"/>
<path d="M84.5082 31.2896C84.5082 31.2896 82.0321 32.9137 81.4872 34.2661C80.9355 35.6184 81.9011 36.9708 84.0944 36.7057" stroke="#653431" stroke-linecap="round" stroke-linejoin="round"/>
<path d="M86.8461 18.0175C86.8461 18.0175 85.0598 16.8011 83.8252 18.1534" stroke="#653431" stroke-linecap="round" stroke-linejoin="round"/>
<path d="M86.4321 21.9455C86.4321 21.9455 85.3355 21.4018 84.5078 21.9455" stroke="#653431" stroke-linecap="round" stroke-linejoin="round"/>
<path d="M70.7687 26.818C70.7687 26.818 67.4719 31.0178 64.0371 31.5546" stroke="#653431" stroke-linecap="round" stroke-linejoin="round"/>
<path d="M74.3416 28.1703C74.3416 28.1703 72.0034 33.0428 73.107 34.2593C74.2036 35.4757 76.1279 37.2358 76.1279 37.2358" stroke="#653431" stroke-linecap="round" stroke-linejoin="round"/>
<path d="M59.2302 40.7628L54.4229 46.179L66.0997 60.253L73.659 55.3804" stroke="#653431" stroke-linecap="round" stroke-linejoin="round"/>
<path d="M54.1467 47.6672C54.1467 47.6672 41.0973 53.7562 39.311 61.3402C37.5246 68.9243 35.8762 86.9262 37.5246 104.792" stroke="#653431" stroke-linecap="round" stroke-linejoin="round"/>
<path d="M37.5244 108.041C37.5244 108.041 37.9382 119.41 41.6489 124.962C45.3596 130.514 51.1256 138.635 51.1256 138.635L60.0574 130.106L53.8776 113.049" stroke="#653431" stroke-linecap="round" stroke-linejoin="round"/>
<path d="M52.3603 108.856C52.3603 108.856 48.9255 101.544 52.2223 87.6058C55.5192 73.661 55.1053 62.6995 51.5326 59.587" stroke="#653431" stroke-linecap="round" stroke-linejoin="round"/>
<path d="M77.2314 56.7396C77.6453 57.2833 85.1977 70.0049 84.101 73.9328C83.0044 77.8607 81.6249 91.5337 84.239 95.8626C86.8461 100.192 88.2255 120.905 85.1977 128.489" stroke="#653431" stroke-linecap="round" stroke-linejoin="round"/>
<path d="M58.8159 72.8455C58.8159 72.8455 68.4305 78.1257 69.1203 77.9898C69.81 77.8539 74.7552 73.2532 74.7552 73.2532" stroke="#653431" stroke-linecap="round" stroke-linejoin="round"/>
<path d="M58.8159 70.4057L74.3414 68.9175" stroke="#653431" stroke-linecap="round" stroke-linejoin="round"/>
<path d="M59.0918 75.1492C59.0918 75.1492 58.678 90.0386 59.2298 90.1745C59.7816 90.3104 76.2658 88.6863 76.8175 88.2785" stroke="#653431" stroke-linecap="round" stroke-linejoin="round"/>
<path d="M75.4453 70.9495L77.7766 86.6544" stroke="#653431" stroke-linecap="round" stroke-linejoin="round"/>
<path d="M74.3418 44.5548C74.3418 44.5548 76.404 44.4189 78.1904 48.6187C79.9768 52.8184 81.4872 56.4677 81.4872 56.4677L76.542 54.8436" stroke="#653431" stroke-linecap="round" stroke-linejoin="round"/>
<path d="M79.8389 51.0515C79.8389 51.0515 85.198 53.4912 86.1567 54.8435C87.1154 56.1959 93.1642 90.3104 95.0885 102.495C97.0128 114.68 98.7991 124.289 97.4266 124.697C96.0541 125.105 89.7294 126.457 89.7294 126.457" stroke="#653431" stroke-linecap="round" stroke-linejoin="round"/>
<path d="M89.0463 124.282C89.0463 124.282 90.5568 116.161 88.4946 104.113C86.4323 92.0637 84.1011 83.3992 84.1011 83.3992" stroke="#653431" stroke-linecap="round" stroke-linejoin="round"/>
<path d="M85.6113 68.3806C85.6113 68.3806 86.8459 84.7583 87.5356 86.1107C88.2253 87.463 90.0117 87.0553 90.0117 87.0553" stroke="#653431" stroke-linecap="round" stroke-linejoin="round"/>
<path d="M85.8872 72.1659L89.1841 73.6542" stroke="#653431" stroke-linecap="round" stroke-linejoin="round"/>
<path d="M60.6025 116.841L71.4587 107.232" stroke="#653431" stroke-linecap="round" stroke-linejoin="round"/>
<path d="M70.7687 109.665L63.4922 116.433" stroke="#653431" stroke-linecap="round" stroke-linejoin="round"/>
<path d="M103.33 80.2936C95.6332 81.7818 96.0471 79.614 96.0471 79.614C96.0471 79.614 93.8469 61.2044 93.4399 61.2044C93.4399 61.2044 97.8334 59.3084 106.903 61.0685" stroke="#653431" stroke-linecap="round" stroke-linejoin="round"/>
<path d="M93.4399 61.2043C93.4399 61.2043 97.0127 63.644 105.944 62.0198" stroke="#653431" stroke-linecap="round" stroke-linejoin="round"/>
<path d="M109.103 67.2933C109.103 67.2933 107.179 65.2614 106.082 65.5332C104.986 65.805 102.923 67.5651 102.923 68.5097C102.923 69.4543 104.572 68.9175 105.261 68.6457L105.951 68.3738L107.324 68.7816" stroke="#653431" stroke-linecap="round" stroke-linejoin="round"/>
<path d="M105.254 70.0048C105.254 70.0048 100.723 71.7649 100.992 72.8454C101.268 73.9259 101.82 74.1978 102.227 74.0618C102.634 73.9259 107.724 72.1658 108.406 71.3571C109.096 70.5417 109.365 68.9175 109.365 68.9175" stroke="#653431" stroke-linecap="round" stroke-linejoin="round"/>
<path d="M101.544 75.0133C101.544 75.0133 101.13 76.7734 101.682 76.9093C102.234 77.0452 107.862 75.1492 108.552 74.3405C109.241 73.5318 108.414 71.364 108.414 71.364" stroke="#653431" stroke-linecap="round" stroke-linejoin="round"/>
<path d="M107.041 76.0938L106.083 78.1257C106.083 78.1257 101.958 81.51 103.337 81.7818C104.71 82.0536 107.462 80.7013 108.145 78.8053C108.834 76.9093 108.834 75.8287 108.834 75.8287" stroke="#653431" stroke-linecap="round" stroke-linejoin="round"/>
<path d="M94.1294 66.3488C94.1294 66.3488 91.3843 66.3488 91.6533 68.3807C91.9223 70.4126 94.5363 70.9495 94.5363 70.9495" stroke="#653431" stroke-linecap="round" stroke-linejoin="round"/>
<path d="M107.179 81.1023C107.179 81.1023 106.765 82.7265 103.33 83.542C99.8955 84.3574 97.5574 81.2382 97.5574 81.2382L93.5708 87.8708" stroke="#653431" stroke-linecap="round" stroke-linejoin="round"/>
<path d="M96.7368 84.4866C96.7368 84.4866 100.172 90.3105 101.13 90.9833C102.089 91.6629 103.737 85.2953 103.737 85.2953" stroke="#653431" stroke-linecap="round" stroke-linejoin="round"/>
<path d="M103.33 83.542L101.275 88.5504" stroke="#653431" stroke-linecap="round" stroke-linejoin="round"/>
<path d="M103.882 88.4144C103.882 88.4144 100.861 97.6226 99.0747 99.9196C97.2883 102.223 96.0537 102.896 96.0537 102.896" stroke="#653431" stroke-linecap="round" stroke-linejoin="round"/>
</g>
</g>
<defs>
<clipPath id="clip0_186_2533">
<rect width="118" height="109" fill="white" transform="translate(0 0.11792)"/>
</clipPath>
<clipPath id="clip1_186_2533">
<rect width="79" height="238" fill="white" transform="translate(32 2)"/>
</clipPath>
</defs>
</svg>
