<svg width="393" height="394" viewBox="0 0 393 394" fill="none" xmlns="http://www.w3.org/2000/svg">
<g clip-path="url(#clip0_186_2426)">
<circle cx="195.5" cy="196.217" r="167.484" fill="url(#paint0_radial_186_2426)"/>
<g filter="url(#filter0_d_186_2426)">
<path d="M353.446 48.2553C353.446 72.5231 325.434 92.196 290.88 92.196C282.203 92.196 269.601 89.6248 262.932 87.9438C233.396 107.394 237.842 110.213 247.052 79.6135C235.488 71.6401 228.314 60.536 228.314 48.2553C228.314 23.9874 256.326 4.31451 290.88 4.31451C325.434 4.31451 353.446 23.9874 353.446 48.2553Z" fill="white"/>
<path d="M248.103 79.9297L248.333 79.1641L247.675 78.7102C236.315 70.8776 229.412 60.0755 229.412 48.2553C229.412 36.576 236.151 25.8917 247.27 18.0823C258.386 10.2752 273.801 5.41169 290.88 5.41169C307.959 5.41169 323.374 10.2752 334.49 18.0823C345.61 25.8917 352.349 36.576 352.349 48.2553C352.349 59.9346 345.61 70.6189 334.49 78.4282C323.374 86.2353 307.959 91.0989 290.88 91.0989C282.346 91.0989 269.855 88.5571 263.2 86.8799L262.732 86.7618L262.329 87.0274C256.442 90.9041 251.895 94.1259 248.48 96.546C247.601 97.1688 246.797 97.7386 246.065 98.2527C244.263 99.5176 242.925 100.422 241.959 100.969C241.684 101.124 241.456 101.241 241.268 101.326C241.281 101.24 241.298 101.142 241.319 101.033C241.494 100.129 241.906 98.7852 242.535 96.9079C242.825 96.041 243.158 95.0713 243.526 93.9962C244.736 90.4694 246.333 85.809 248.103 79.9297ZM240.74 101.508C240.74 101.508 240.742 101.507 240.746 101.507C240.742 101.508 240.739 101.508 240.74 101.508Z" stroke="black" stroke-width="2.19435"/>
</g>
<g filter="url(#filter1_d_186_2426)">
<path d="M43.2571 253.086C43.2571 234.531 65.0529 219.49 91.9393 219.49C98.6913 219.49 108.496 221.456 113.686 222.741C136.668 207.87 133.208 205.714 126.042 229.11C135.04 235.207 140.622 243.697 140.622 253.086C140.622 271.641 118.826 286.683 91.9393 286.683C65.0528 286.683 43.2571 271.641 43.2571 253.086Z" fill="white"/>
<path d="M113.422 223.806L113.883 223.92L114.282 223.662C118.866 220.696 122.408 218.23 125.065 216.379C125.748 215.903 126.373 215.468 126.943 215.076C128.346 214.108 129.377 213.423 130.117 213.011C130.147 212.995 130.175 212.979 130.203 212.964C130.046 213.626 129.753 214.552 129.328 215.8C129.103 216.46 128.844 217.2 128.558 218.021C127.617 220.718 126.371 224.288 124.993 228.789L124.755 229.564L125.426 230.019C134.222 235.978 139.524 244.166 139.524 253.086C139.524 261.9 134.349 269.998 125.74 275.939C117.135 281.878 105.188 285.585 91.9393 285.585C78.6903 285.585 66.7434 281.878 58.139 275.939C49.5299 269.998 44.3542 261.9 44.3542 253.086C44.3542 244.272 49.5299 236.174 58.139 230.233C66.7434 224.295 78.6903 220.587 91.9393 220.587C98.5507 220.587 108.247 222.525 113.422 223.806ZM130.983 212.626C130.983 212.627 130.977 212.628 130.967 212.628C130.978 212.626 130.983 212.626 130.983 212.626Z" stroke="black" stroke-width="2.19435"/>
</g>
<path fill-rule="evenodd" clip-rule="evenodd" d="M199.125 89.0185C199.125 89.0185 192.471 90.7929 190.709 90.7467C188.947 90.7004 187.865 92.2814 185.945 92.5842C184.026 92.889 174.593 88.7431 174.967 83.977C175.341 79.2088 177.265 75.7335 177.578 72.5778C177.891 69.4221 179.239 60.3755 179.415 57.4511C179.592 54.5267 180.214 49.5419 182.182 47.2608C184.148 44.9818 187.63 43.6699 187.63 43.6699C187.63 43.6699 190.249 40.9389 192.362 39.2801C194.475 37.6235 197.621 35.3886 205.645 37.9662C213.668 40.5416 219.047 45.4275 220.944 52.0438C222.84 58.66 224.411 63.3672 225.052 65.4213C225.695 67.4753 227.595 71.884 229.074 74.1168C230.553 76.3516 231.471 79.8962 230.525 82.7744C229.58 85.6526 226.99 86.9414 225.035 87.5742C223.08 88.207 221.349 90.2022 218.814 90.116C216.279 90.0298 214.164 90.4061 212.639 90.3094C211.114 90.2127 205.924 89.5946 204.725 89.6009C203.523 89.6051 199.123 89.0185 199.123 89.0185H199.125Z" fill="#C7A6B6"/>
<path fill-rule="evenodd" clip-rule="evenodd" d="M184.622 61.1429C184.622 61.1429 183.836 66.0141 184.082 68.598C184.33 71.1818 184.863 72.4159 183.807 73.2275C182.75 74.039 180.997 74.0705 181.873 74.9052C182.75 75.7398 184.078 75.8681 184.355 76.8982C184.632 77.9284 185.069 79.6461 185.55 81.5529C186.031 83.4598 185.374 84.347 188.041 85.5454C190.709 86.7437 195.745 88.0157 195.745 88.0157C195.745 88.0157 196.172 89.4558 196.81 91.3227C197.451 93.1897 197.89 93.9781 197.89 93.9781L210.754 89.5567C210.754 89.5567 211.466 89.2624 208.224 89.3717C204.983 89.481 203.452 88.783 203.452 88.783C203.452 88.783 205.907 86.7753 206.932 85.087C207.957 83.4009 209.246 76.8982 209.246 76.8982C209.246 76.8982 212.846 76.3958 213.075 72.9373C213.304 69.4789 213.269 65.9805 212.374 64.143C211.479 62.3055 211.529 61.2312 209.713 62.1016C207.896 62.972 206.776 64.8242 206.547 66.361C206.319 67.8979 205.573 67.1705 204.428 66.1361C203.281 65.1017 198.814 62.3854 197.22 61.5844C195.628 60.7834 194.8 60.2494 192.845 60.6089C190.889 60.9663 187.848 59.9803 187.848 59.9803L184.622 61.1408V61.1429Z" fill="white"/>
<path fill-rule="evenodd" clip-rule="evenodd" d="M186.254 135.528C186.254 135.528 183.215 123.113 183.524 121.484C183.832 119.854 183.857 119.022 185.903 116.03C187.947 113.04 196.317 100.47 196.854 99.3075C197.392 98.147 197.743 93.4608 197.743 93.4608C197.743 93.4608 204.26 92.0354 206.209 91.1566C208.156 90.2778 211.187 89.235 211.187 89.235C211.187 89.235 211.912 90.3156 212.013 90.9043C212.114 91.4909 212.865 91.5518 213.966 93.1328C215.067 94.7138 218.207 97.2073 219.064 99.3138C219.921 101.42 220.196 117.056 217.022 130.688C213.848 144.322 210.986 157.655 210.154 158.448C209.322 159.24 205.781 159.968 199.142 158.179C192.503 156.39 168.869 147.429 168.869 147.429C168.869 147.429 168.136 141.875 168.302 139.406C168.468 136.938 169.659 133.995 169.659 133.995C169.659 133.995 170.865 132.702 175.013 133.57C179.161 134.441 186.254 135.528 186.254 135.528Z" fill="#FFDFF2"/>
<path fill-rule="evenodd" clip-rule="evenodd" d="M197.785 262.577C197.785 262.577 209.012 261.429 212.131 260.37C215.25 259.31 219.139 258.612 219.139 258.612C219.139 258.612 220.286 257.977 226.449 265.495C232.611 273.014 245.114 288.683 247.778 291.342C250.441 294.002 257.998 301.143 257.998 301.143C257.998 301.143 260.5 304.419 260.695 314.582C260.89 324.747 260.216 330.638 258.517 332.438C256.818 334.237 252.447 334.157 252.447 334.157C252.447 334.157 252.741 329.679 252.51 326.21C252.279 322.741 249.063 308.95 249.063 308.95L246.431 306.36C246.431 306.36 218.507 281.955 211.637 276.831C204.769 271.708 197.785 262.575 197.785 262.575V262.577Z" fill="white"/>
<path fill-rule="evenodd" clip-rule="evenodd" d="M172.037 259.51C172.037 259.51 183.045 262.462 185.408 262.508C187.773 262.554 190.831 262.96 190.831 262.96C190.831 262.96 187.968 279.098 185.832 292.082C183.698 305.066 182.549 310.44 181.02 316.642C179.491 322.844 178.094 336.422 178.094 336.422C178.094 336.422 164.182 349.423 160.168 351.624C156.154 353.825 147.541 351.037 147.541 351.037C147.541 351.037 150.615 349.713 153.151 347.959C155.686 346.206 160.857 340.391 163.012 336.014C165.167 331.637 168.471 325.777 168.471 325.777C168.471 325.777 169.798 303.225 170.031 292.875C170.262 282.523 172.035 259.512 172.035 259.512L172.037 259.51Z" fill="white"/>
<path fill-rule="evenodd" clip-rule="evenodd" d="M165.259 331.653C165.259 331.653 169.751 333.636 172.507 334.231C175.263 334.826 177.68 333.76 177.68 333.76L178.764 324.905L168.447 323.763C168.447 323.763 166.994 327.6 166.798 328.477C166.603 329.353 165.261 331.651 165.261 331.651L165.259 331.653Z" fill="#A89EB4"/>
<path fill-rule="evenodd" clip-rule="evenodd" d="M148.622 349.917C148.622 349.917 149.995 353.005 152.795 352.907C155.595 352.808 157.481 352.309 161.012 348.899C164.542 345.489 169.814 340.933 172.751 338.911C175.689 336.888 177.875 336.712 177.875 336.712C177.875 336.712 178.608 340.717 178.64 343.494C178.671 346.269 179.446 346.425 177.604 350.257C175.76 354.088 172.977 362.556 172.977 362.556L170.348 362.727C170.348 362.727 170.018 359.737 170.226 358.087C170.434 356.436 170.112 353.033 170.112 353.033C170.112 353.033 168.144 354.498 166.945 355.503C165.748 356.506 159.991 361.724 156.336 362.954C152.682 364.184 145.408 360.893 142.052 359.624C138.695 358.354 136.853 355.965 138.519 354.069C140.185 352.173 148.62 349.919 148.62 349.919L148.622 349.917Z" fill="#A89EB4"/>
<path fill-rule="evenodd" clip-rule="evenodd" d="M250.283 295.129L254.925 299.895C254.925 299.895 255.635 301.278 254.52 302.735C253.404 304.194 248.408 308.029 248.408 308.029L242.779 303.927C242.779 303.927 247.944 300.24 248.538 298.804C249.134 297.368 250.281 295.129 250.281 295.129H250.283Z" fill="#A89EB4"/>
<path fill-rule="evenodd" clip-rule="evenodd" d="M252.964 333.23C252.964 333.23 256.488 332.665 257.633 328.872C258.777 325.079 259.206 320.258 258.446 315.871C257.685 311.481 258.437 301.547 258.437 301.547C258.437 301.547 260.348 301.328 263.474 302.489C266.599 303.652 267.25 304.974 268.2 307.621C269.147 310.268 269.645 312.29 271.821 314.164C273.999 316.035 278.922 321.211 278.372 322.508C277.819 323.805 276.063 325.125 276.063 325.125L268.874 317.248C268.874 317.248 268.767 321.045 268.473 322.912C268.176 324.776 268.21 331.031 265.494 334.916C262.779 338.802 258.981 340.816 256.27 342.327C253.56 343.839 249.454 344.728 249.051 341.915C248.647 339.102 249.534 338.715 250.363 337.332C251.193 335.946 252.962 333.232 252.962 333.232L252.964 333.23Z" fill="#A89EB4"/>
<path fill-rule="evenodd" clip-rule="evenodd" d="M145.14 122.59C145.14 122.59 140.315 106.037 141.157 104.747C142 103.458 144.234 104.747 147.127 105.106C150.019 105.466 154.543 106.803 154.543 106.803L159.714 128.59L145.14 122.587V122.59Z" fill="#A89EB4"/>
<path fill-rule="evenodd" clip-rule="evenodd" d="M157.156 249.702C157.156 249.702 158.078 250.19 159.861 241.669C161.645 233.148 169.979 206.17 171.789 196.669C173.598 187.169 178.916 172.137 180.124 168.216C181.333 164.295 186.25 154.518 186.25 154.518C186.25 154.518 196.153 156.749 199.067 158.069C201.98 159.39 206.83 159.705 207.907 159.545C208.987 159.388 210.117 158.473 210.117 158.473C210.117 158.473 211.322 162.924 212.845 166.164C214.368 169.403 217.882 177.046 219.146 180.416C220.41 183.786 221.295 185.75 221.295 185.75C221.295 185.75 218.293 220.906 217.369 225.291C216.445 229.677 215.151 234.184 215.015 236.106C214.878 238.028 213.828 242.337 213.828 242.337C213.828 242.337 214.939 244.913 216.785 247.299C218.631 249.685 222.12 255.793 222.12 255.793C222.12 255.793 220.78 257 219.005 258.246C217.231 259.493 202.675 263.248 194.003 262.964C185.33 262.678 176.868 261.642 171.974 259.386C167.078 257.13 160.221 254.052 159.507 253.377C158.792 252.702 157.158 249.704 157.158 249.704L157.156 249.702Z" fill="#A89EB4"/>
<path fill-rule="evenodd" clip-rule="evenodd" d="M193.387 137.088C193.387 137.088 193.58 135.118 195.25 127.04C196.919 118.963 204.031 102.528 207.337 99.4653C210.643 96.4021 217.803 95.3089 219.332 100.149C220.859 104.988 222.911 121.593 222.861 127.692C222.81 133.793 223.814 184.999 223.814 184.999C223.814 184.999 227.242 184.442 228.238 186.237C229.233 188.033 229.351 189.862 229.374 192.416C229.397 194.969 233.579 222.077 225.556 224.133C217.532 226.189 191.093 223.122 187.651 221.56C184.21 219.997 183.313 217.756 183.143 212.849C182.973 207.944 185.588 187.608 186.424 185.186C187.262 182.764 188.613 180.374 189.917 180.29C191.221 180.206 191.979 180.111 191.929 178.383C191.881 176.655 193.385 156.537 193.385 156.537L196.867 157.491C196.867 157.491 195.978 161.328 195.991 164.698C196.004 168.068 195.313 180.695 195.313 180.695C195.313 180.695 203.693 182.646 209.169 183.698C214.642 184.747 220.54 185.022 220.54 185.022C220.54 185.022 220.979 180.584 220.943 179.074C220.91 177.563 220.41 157.821 220.666 148.394C220.924 138.967 220.275 135.08 220.063 130.997C219.851 126.914 219.572 119.646 219.572 119.646C219.572 119.646 219.673 106.29 218.072 102.938C216.472 99.5872 215.642 99.8963 210.696 101.887C205.749 103.88 202.477 109.611 201.349 113.225C200.223 116.842 196.413 137.59 196.413 137.59L193.385 137.085L193.387 137.088Z" fill="#D493A6"/>
<path fill-rule="evenodd" clip-rule="evenodd" d="M168.763 134.23C168.763 134.23 165.083 131.19 164.285 129.483C163.484 127.776 158.664 122.249 158.664 122.249L159.185 125.96C159.185 125.96 159.475 127.862 157.051 127.32C154.627 126.777 145.949 122.034 145.949 122.034C145.949 122.034 145.497 123.901 146.007 126.275C146.518 128.651 146.959 134.878 154.037 139.756C161.115 144.635 168.557 147.379 168.557 147.379C168.557 147.379 168.067 144.017 168.21 142.108C168.353 140.201 168.765 134.228 168.765 134.228L168.763 134.23Z" fill="white"/>
<path fill-rule="evenodd" clip-rule="evenodd" d="M182.239 50.1011C181.836 52.0626 181.517 54.5077 181.863 56.669C182.241 59.03 183.39 61.0567 185.906 61.9439C186.339 62.0953 186.814 61.8682 186.967 61.4372C187.118 61.0041 186.891 60.529 186.461 60.3755C184.585 59.7132 183.785 58.1638 183.501 56.4041C183.186 54.4404 183.497 52.2182 183.865 50.4375C183.955 49.9876 183.667 49.5482 183.218 49.4557C182.771 49.3653 182.332 49.6533 182.239 50.1011Z" fill="#6D4B5C"/>
<path fill-rule="evenodd" clip-rule="evenodd" d="M185.382 55.2142C186.316 58.6054 187.413 60.7961 190.989 61.5088C191.439 61.5992 191.878 61.307 191.966 60.8591C192.054 60.4092 191.762 59.9698 191.315 59.8815C188.475 59.3118 187.723 57.468 186.98 54.7748C186.86 54.3333 186.4 54.0726 185.959 54.1925C185.52 54.3144 185.258 54.7727 185.379 55.2142H185.382Z" fill="#6D4B5C"/>
<path fill-rule="evenodd" clip-rule="evenodd" d="M189.417 54.9451C191.92 59.0069 194.84 61.0294 198.868 63.5229C200.937 64.8053 203.397 65.6946 204.858 67.7424C205.123 68.1166 205.642 68.2007 206.016 67.9358C206.387 67.6709 206.474 67.1516 206.209 66.7774C204.617 64.5488 201.993 63.506 199.742 62.11C195.955 59.7638 193.185 57.8926 190.83 54.0726C190.589 53.6816 190.076 53.5617 189.688 53.8035C189.299 54.0453 189.177 54.5583 189.419 54.9451H189.417Z" fill="#6D4B5C"/>
<path fill-rule="evenodd" clip-rule="evenodd" d="M207.549 69.2771C207.364 68.2111 207.33 66.9581 207.597 65.867C207.843 64.8725 208.381 63.8697 209.059 63.2621C209.391 62.9678 209.75 62.7575 210.128 62.8038C210.573 62.8563 210.968 63.2432 211.369 63.9538C212.844 66.5797 212.814 70.1117 211.962 72.9226C211.743 73.6416 211.277 74.6844 210.615 75.3698C210.298 75.6977 209.943 75.9606 209.521 75.9206C209.065 75.8765 208.66 76.2107 208.616 76.6691C208.572 77.1253 208.906 77.531 209.364 77.5752C210.279 77.6614 211.119 77.2409 211.808 76.5261C212.655 75.6494 213.27 74.3291 213.55 73.4082C214.526 70.1895 214.505 66.1466 212.817 63.1423C212.062 61.803 211.168 61.2564 210.328 61.1555C209.508 61.0588 208.679 61.3826 207.956 62.0259C207.051 62.8311 206.31 64.1535 205.984 65.4759C205.665 66.7857 205.692 68.2889 205.913 69.5651C205.992 70.0171 206.421 70.3198 206.87 70.242C207.322 70.1622 207.627 69.7312 207.547 69.2813L207.549 69.2771Z" fill="#6D4B5C"/>
<path fill-rule="evenodd" clip-rule="evenodd" d="M208.223 73.0319C208.246 72.9289 208.276 72.7838 208.284 72.6977C208.343 72.0039 208.162 71.3269 208.042 70.6436C207.887 69.7564 207.811 68.8608 208.124 67.9273C208.324 67.3281 208.553 66.7941 208.807 66.4746C209.013 66.2139 209.248 66.052 209.485 65.9742C209.941 65.827 210.609 65.8901 211.26 66.8677C211.514 67.2483 211.409 67.7654 211.029 68.0177C210.668 68.2595 210.189 68.1796 209.922 67.8495C209.842 68.0303 209.771 68.2364 209.698 68.4508C209.479 69.1068 209.569 69.7354 209.677 70.3556C209.819 71.1797 210.006 71.9976 209.935 72.8343C209.851 73.8329 209.347 74.9577 208.066 74.6739C207.618 74.5772 207.333 74.1315 207.433 73.6858C207.517 73.3031 207.849 73.0424 208.221 73.0319H208.223Z" fill="#6D4B5C"/>
<path fill-rule="evenodd" clip-rule="evenodd" d="M187.986 77.6172C187.791 77.6151 187.598 77.5457 187.442 77.407C185.672 75.8323 184.252 73.362 183.538 71.0935C183.03 69.4789 182.71 67.6981 182.838 66.0057C183.099 62.5956 184.414 59.1771 188.047 58.6158C188.929 58.4791 189.835 58.3425 190.584 59.0195C193.05 61.248 193.743 64.9356 194.035 68.0492C194.338 71.2764 194.298 74.1861 192.523 76.1413C191.735 77.0096 190.605 77.7076 188.988 78.147C188.564 78.2626 188.129 78.0293 187.988 77.6193L187.986 77.6172ZM188.766 76.4798C189.902 76.1392 190.723 75.6494 191.297 75.0187C191.996 74.2471 192.317 73.2779 192.452 72.1888C192.599 70.9737 192.515 69.6218 192.38 68.2006C192.124 65.4738 191.628 62.2025 189.471 60.2494C189.335 60.1274 189.171 60.1358 189.011 60.1484C188.774 60.1674 188.535 60.2199 188.299 60.2557C185.485 60.6888 184.697 63.4891 184.493 66.1297C184.38 67.6161 184.676 69.1761 185.119 70.5931C185.747 72.5904 186.984 74.7769 188.543 76.1645C188.644 76.2528 188.717 76.3621 188.763 76.4798H188.766Z" fill="#6D4B5C"/>
<path fill-rule="evenodd" clip-rule="evenodd" d="M187.05 64.1536C189.671 63.2916 191.301 63.1592 193.577 64.5257C193.97 64.7612 194.481 64.6329 194.716 64.2419C194.951 63.8487 194.823 63.3379 194.432 63.1024C191.675 61.4478 189.704 61.5319 186.531 62.5789C186.096 62.7198 185.859 63.1907 186.002 63.628C186.144 64.0632 186.613 64.2987 187.05 64.1557V64.1536Z" fill="#6D4B5C"/>
<path fill-rule="evenodd" clip-rule="evenodd" d="M188.46 66.6596C189.084 67.7003 189.12 69.2182 189.269 70.4145C189.326 70.8686 189.74 71.1924 190.195 71.1356C190.649 71.0788 190.972 70.6647 190.918 70.2084C190.741 68.7998 190.62 67.0275 189.884 65.8039C189.647 65.4108 189.137 65.2846 188.746 65.5201C188.351 65.7577 188.225 66.2686 188.463 66.6596H188.46Z" fill="#6D4B5C"/>
<path fill-rule="evenodd" clip-rule="evenodd" d="M193.741 69.1341C196.495 69.5336 199.946 68.8945 202.701 68.6191C203.197 68.5686 203.663 68.4067 204.125 68.2469C204.436 68.1397 204.743 68.0262 205.071 68.0262C205.528 68.0262 205.9 67.652 205.9 67.1957C205.9 66.7395 205.528 66.3653 205.071 66.3653C204.56 66.3653 204.073 66.5062 203.584 66.6764C203.243 66.7921 202.905 66.9287 202.538 66.9645C199.906 67.2273 196.612 67.8706 193.981 67.488C193.529 67.4207 193.107 67.7382 193.04 68.1923C192.973 68.6443 193.29 69.0669 193.743 69.1341H193.741Z" fill="#6D4B5C"/>
<path fill-rule="evenodd" clip-rule="evenodd" d="M182.941 74.7139L183.042 74.7938C183.359 75.0587 183.867 75.1996 184.275 75.4245C184.749 75.6894 185.127 76.0384 185.316 76.5157C185.703 77.4807 185.793 78.5382 185.858 79.6083C185.913 80.5144 185.944 81.4268 186.228 82.2783C186.818 84.0443 188.303 85.4088 190.09 85.9197C190.989 86.1761 191.991 86.1131 192.913 86.2434C193.819 86.3738 194.772 86.6828 195.675 86.6828C196.133 86.6828 196.505 87.0549 196.505 87.5133C196.505 87.9716 196.133 88.3437 195.675 88.3437C194.696 88.3437 193.661 88.0284 192.676 87.8875C191.682 87.7466 190.605 87.795 189.637 87.5154C187.324 86.8552 185.415 85.085 184.657 82.8018C184.327 81.8158 184.266 80.7562 184.203 79.7029C184.151 78.8157 184.1 77.9327 183.779 77.1317C183.735 77.0265 183.632 76.9719 183.531 76.9109C183.384 76.8226 183.218 76.7469 183.054 76.6712C182.657 76.4904 182.269 76.3075 181.981 76.0678C181.8 75.9186 181.521 75.7357 181.342 75.5191C181.074 75.1912 180.954 74.8106 181.061 74.3838C181.116 74.1694 181.25 73.9402 181.464 73.7384C181.67 73.545 181.987 73.3705 182.13 73.2506C182.43 73.0005 182.811 72.7377 183.132 72.4349C183.334 72.2457 183.525 72.0523 183.567 71.8021C183.649 71.3522 184.077 71.0473 184.527 71.1272C184.978 71.2071 185.283 71.6381 185.203 72.088C185.117 72.5779 184.861 73.0194 184.503 73.4062C184.111 73.833 183.59 74.1946 183.191 74.5268C183.142 74.5667 183.046 74.6382 182.941 74.7097V74.7139Z" fill="#6D4B5C"/>
<path fill-rule="evenodd" clip-rule="evenodd" d="M195.077 88.2217C194.815 88.0052 194.701 87.6414 194.819 87.303C194.911 87.036 195.077 86.9035 195.218 86.8257C195.399 86.7269 195.596 86.6912 195.812 86.7395C195.949 86.769 196.239 86.8867 196.445 87.2357C196.621 87.5279 196.883 88.228 196.9 88.2722C197.15 88.9491 197.478 89.5799 197.669 90.2799C198.19 92.1973 198.1 94.1862 198.568 96.0636C198.677 96.5072 198.408 96.9613 197.965 97.0707C197.522 97.1821 197.068 96.9109 196.959 96.4652C196.493 94.6004 196.587 92.6199 196.069 90.713C195.89 90.0613 195.577 89.4726 195.344 88.844C195.336 88.8209 195.167 88.4256 195.081 88.2196L195.077 88.2217ZM196.329 87.9778L196.325 87.9862V87.9778H196.329ZM196.35 87.9379L196.339 87.961L196.344 87.9547L196.35 87.9379ZM196.367 87.8958L196.354 87.9274V87.9232L196.367 87.8958ZM196.371 87.8895C196.375 87.8769 196.381 87.8643 196.386 87.8496L196.371 87.8895Z" fill="#6D4B5C"/>
<path fill-rule="evenodd" clip-rule="evenodd" d="M203.29 88.0431C203.926 87.7193 204.63 87.2105 205.157 86.7438C206.791 85.2994 207.36 82.6504 207.797 80.6216C207.894 80.1759 208.335 79.8879 208.782 79.9846C209.23 80.0813 209.517 80.5249 209.419 80.9706C208.917 83.3127 208.142 86.3233 206.255 87.9905C205.951 88.2575 205.598 88.5392 205.226 88.7978C205.321 88.8104 205.417 88.8188 205.512 88.8251C206.98 88.9219 208.908 88.638 209.99 87.57C210.315 87.2484 210.843 87.2526 211.164 87.5784C211.485 87.9043 211.481 88.432 211.156 88.7537C209.759 90.1307 207.297 90.608 205.401 90.4818C204.634 90.4314 203.888 90.2569 203.151 90.055C203.138 90.055 202.901 89.9857 202.725 89.8995C202.536 89.8112 202.395 89.685 202.315 89.5862C202.177 89.4096 202.126 89.2225 202.124 89.0459C202.124 88.8378 202.183 88.6191 202.382 88.4194C202.492 88.3122 202.641 88.2155 202.819 88.1524C202.943 88.1082 203.216 88.0578 203.283 88.0452L203.29 88.0431Z" fill="#6D4B5C"/>
<path fill-rule="evenodd" clip-rule="evenodd" d="M185.671 43.8949C183.226 44.3196 181.445 46.3126 180.483 48.497C179.973 49.6576 179.381 50.94 179.093 52.1741C178.601 54.2912 178.744 56.6417 178.528 58.7924C178.278 61.2964 177.612 63.7562 177.387 66.2601C177.123 69.1656 176.829 72.1027 176.257 74.9703C175.974 76.3958 175.405 78.0272 174.983 79.6797C174.525 81.4709 174.245 83.2811 174.567 84.8957C175.379 88.9618 179.248 92.4055 183.254 93.0131C184.783 93.2443 186.245 92.8112 187.736 92.5632C188.187 92.4875 188.494 92.0607 188.418 91.6087C188.343 91.1567 187.914 90.8497 187.463 90.9254C186.144 91.1461 184.856 91.575 183.502 91.3711C180.139 90.8602 176.877 87.9862 176.197 84.5699C175.919 83.1823 176.197 81.6307 176.591 80.0918C177.022 78.412 177.595 76.7469 177.885 75.2983C178.469 72.3718 178.769 69.3759 179.038 66.4115C179.267 63.9139 179.931 61.4604 180.179 58.9606C180.389 56.8772 180.231 54.6003 180.708 52.5525C180.973 51.4152 181.531 50.2357 182 49.1677C182.745 47.4753 184.06 45.8606 185.953 45.5327C186.402 45.4528 186.707 45.0239 186.629 44.5719C186.549 44.122 186.121 43.8171 185.669 43.897L185.671 43.8949Z" fill="#6D4B5C"/>
<path fill-rule="evenodd" clip-rule="evenodd" d="M187.913 90.4377C188.864 91.266 190.463 92.2794 191.792 92.1911C192.899 92.1175 194.142 91.2576 195.109 90.8035C195.525 90.608 195.701 90.1118 195.506 89.6955C195.31 89.2813 194.817 89.1026 194.401 89.2982C193.951 89.5105 193.441 89.8259 192.914 90.0971C192.502 90.3094 192.086 90.5049 191.683 90.5302C191.355 90.5533 191.009 90.444 190.666 90.2905C190.036 90.0088 189.436 89.5568 189.003 89.1783C188.656 88.8777 188.131 88.9155 187.833 89.2624C187.533 89.6072 187.568 90.1328 187.915 90.4335L187.913 90.4377Z" fill="#6D4B5C"/>
<path fill-rule="evenodd" clip-rule="evenodd" d="M188.463 43.5985C189.912 41.8451 191.298 40.14 193.367 39.0258C196.057 37.5751 199.336 37.2661 202.619 37.7349C207.63 38.4476 212.661 40.9684 215.713 44.1829C221.136 49.8972 221.978 58.1828 224.036 65.394C225.009 68.7977 227.441 71.2575 228.798 74.43C229.707 76.5534 230.407 79.6671 229.909 82.3245C229.602 83.9602 228.829 85.4234 227.29 86.2854C226.46 86.75 225.372 86.7311 224.456 86.893C224.005 86.9729 223.702 87.4039 223.784 87.8538C223.864 88.3058 224.295 88.6086 224.744 88.5287C225.834 88.3353 227.109 88.2869 228.098 87.734C230.096 86.6176 231.142 84.7507 231.539 82.6315C232.097 79.6503 231.341 76.154 230.323 73.7741C228.993 70.6668 226.584 68.2721 225.633 64.9356C223.501 57.4742 222.526 48.949 216.916 43.0371C213.635 39.5829 208.237 36.8561 202.854 36.0887C199.206 35.5694 195.568 35.9521 192.581 37.5625C190.313 38.784 188.769 40.6194 187.183 42.5389C186.892 42.8921 186.94 43.4156 187.293 43.7078C187.646 44 188.169 43.9517 188.46 43.5985H188.463Z" fill="#6D4B5C"/>
<path fill-rule="evenodd" clip-rule="evenodd" d="M226.022 81.6076C225.639 82.8291 225.219 84.2272 224.568 85.4445C223.988 86.5314 223.228 87.4754 222.079 87.9274C221.653 88.0956 221.445 88.5792 221.613 89.0059C221.779 89.4327 222.262 89.643 222.688 89.4748C224.207 88.8756 225.263 87.6667 226.034 86.2287C226.734 84.921 227.194 83.4199 227.605 82.1059C227.742 81.6686 227.5 81.1998 227.061 81.0631C226.624 80.9286 226.158 81.1703 226.022 81.6097V81.6076Z" fill="#6D4B5C"/>
<path fill-rule="evenodd" clip-rule="evenodd" d="M221.004 83.1024C220.149 86.235 218.229 88.6506 214.894 89.2246C214.442 89.3045 214.138 89.7334 214.215 90.1833C214.295 90.6353 214.724 90.9401 215.173 90.8623C219.201 90.1665 221.575 87.3156 222.604 83.5397C222.726 83.0982 222.465 82.6399 222.022 82.5201C221.581 82.3981 221.123 82.6588 221.004 83.1024Z" fill="#6D4B5C"/>
<path fill-rule="evenodd" clip-rule="evenodd" d="M210.508 89.4559C210.651 89.5757 210.63 89.7923 210.639 90.0004C210.655 90.444 210.592 90.9128 210.592 91.2681C210.592 91.7265 210.964 92.0986 211.422 92.0986C211.88 92.0986 212.252 91.7265 212.252 91.2681C212.252 90.8098 212.338 90.1623 212.271 89.603C212.199 89.0312 211.985 88.5308 211.577 88.1881C211.227 87.8917 210.702 87.9358 210.408 88.2869C210.113 88.6359 210.158 89.1615 210.506 89.4559H210.508Z" fill="#6D4B5C"/>
<path fill-rule="evenodd" clip-rule="evenodd" d="M197.952 94.1694C199.797 94.3102 201.931 93.6101 203.68 93.1097C205.892 92.4769 208.402 91.9198 210.267 90.5196C210.634 90.2463 210.708 89.7249 210.433 89.357C210.16 88.9912 209.639 88.9176 209.271 89.1909C207.564 90.4733 205.249 90.9338 203.226 91.5119C201.649 91.9618 199.74 92.6409 198.081 92.5148C197.625 92.479 197.226 92.8217 197.19 93.28C197.154 93.7363 197.497 94.1357 197.955 94.1715L197.952 94.1694Z" fill="#6D4B5C"/>
<path fill-rule="evenodd" clip-rule="evenodd" d="M197.721 99.911C201.846 96.6397 207.172 95.1196 211.795 92.807C212.205 92.601 212.371 92.1006 212.167 91.6927C211.961 91.2828 211.461 91.1146 211.052 91.3206C206.328 93.6837 200.903 95.2668 196.69 98.6117C196.33 98.8955 196.269 99.4169 196.555 99.7785C196.839 100.138 197.36 100.199 197.721 99.911Z" fill="#6D4B5C"/>
<path fill-rule="evenodd" clip-rule="evenodd" d="M196.572 96.9257C196.398 98.5613 194.987 100.611 194.107 101.988C191.779 105.63 189.589 109.53 186.919 112.908C185.907 114.191 185.31 115.923 184.163 117.071C183.84 117.395 183.84 117.922 184.163 118.246C184.487 118.57 185.012 118.57 185.338 118.246C186.528 117.052 187.169 115.269 188.221 113.938C190.925 110.52 193.145 106.574 195.505 102.884C196.503 101.322 198.024 98.9566 198.221 97.1044C198.272 96.6482 197.94 96.2382 197.484 96.1898C197.028 96.1394 196.619 96.4695 196.57 96.9278L196.572 96.9257Z" fill="#6D4B5C"/>
<path fill-rule="evenodd" clip-rule="evenodd" d="M211.573 92.2121C212.365 93.0425 212.877 94.0664 213.757 94.838C215.328 96.2129 217.212 97.9033 218.16 99.8017C218.365 100.212 218.863 100.378 219.275 100.174C219.684 99.9678 219.852 99.4674 219.647 99.0575C218.607 96.9761 216.574 95.0945 214.852 93.5871C214.011 92.8491 213.533 91.861 212.774 91.0663C212.459 90.7341 211.932 90.7215 211.602 91.039C211.27 91.3543 211.258 91.882 211.573 92.2121Z" fill="#6D4B5C"/>
<path fill-rule="evenodd" clip-rule="evenodd" d="M188.654 80.6258C190.324 82.6924 192.791 81.656 193.98 79.871C194.234 79.4905 194.129 78.9733 193.749 78.721C193.367 78.4645 192.852 78.5696 192.598 78.9523C191.995 79.8563 190.792 80.6279 189.943 79.5809C189.656 79.2235 189.133 79.1667 188.776 79.4569C188.421 79.7449 188.364 80.2684 188.654 80.6258Z" fill="#6D4B5C"/>
<path fill-rule="evenodd" clip-rule="evenodd" d="M200.958 110.463C198.639 119.219 197.608 128.281 195.837 137.155C195.747 137.605 196.039 138.044 196.486 138.132C196.936 138.221 197.375 137.931 197.463 137.481C199.229 128.64 200.254 119.613 202.563 110.888C202.678 110.446 202.416 109.99 201.97 109.872C201.529 109.757 201.073 110.019 200.956 110.465L200.958 110.463Z" fill="#6D4B5C"/>
<path fill-rule="evenodd" clip-rule="evenodd" d="M173.683 134.96C176.64 135.048 179.591 135.902 182.498 136.4C186.965 137.167 191.498 137.718 195.93 138.608C196.379 138.698 196.818 138.404 196.906 137.956C196.995 137.506 196.705 137.067 196.255 136.978C191.807 136.087 187.259 135.532 182.777 134.762C179.795 134.251 176.764 133.392 173.731 133.303C173.273 133.289 172.891 133.65 172.878 134.108C172.864 134.565 173.225 134.949 173.683 134.962V134.96Z" fill="#6D4B5C"/>
<path fill-rule="evenodd" clip-rule="evenodd" d="M169.717 146.691C169.958 146.782 170.761 147.089 170.939 147.15C171.939 147.494 172.92 147.858 173.905 148.247C176.711 149.355 179.61 150.335 182.344 151.603C184.856 152.767 187.589 153.568 190.216 154.464C193.787 155.685 197.286 156.943 200.972 157.777C203.211 158.282 205.824 159.121 208.139 158.656C208.563 158.572 208.983 158.154 209.34 157.927C209.729 157.678 210.241 157.794 210.485 158.179C210.733 158.568 210.617 159.081 210.231 159.327C209.72 159.65 209.067 160.163 208.46 160.283C205.927 160.79 203.054 159.949 200.605 159.394C196.858 158.547 193.304 157.273 189.677 156.034C186.997 155.118 184.209 154.298 181.643 153.108C178.94 151.851 176.068 150.884 173.296 149.788C172.334 149.41 171.374 149.054 170.397 148.716C170.187 148.642 169.423 148.367 169.078 148.224C168.892 148.146 168.772 148.071 168.732 148.041C168.366 147.759 168.39 147.417 168.413 147.261C168.44 147.061 168.528 146.876 168.713 146.727C168.791 146.666 168.971 146.517 169.316 146.546C169.465 146.557 169.601 146.609 169.719 146.687L169.717 146.691ZM169.61 148.125C169.496 148.182 169.364 148.211 169.23 148.209C169.398 148.216 169.522 148.174 169.61 148.125Z" fill="#6D4B5C"/>
<path fill-rule="evenodd" clip-rule="evenodd" d="M170.133 134.647C169.881 134.899 169.774 135.256 169.702 135.631C169.6 136.169 169.593 136.747 169.57 137.239C169.467 139.533 169.274 141.845 169.408 144.147C169.438 144.618 169.604 145.249 169.692 145.842C169.774 146.365 169.791 146.868 169.702 147.272C169.604 147.717 169.158 148.001 168.713 147.9C168.266 147.801 167.982 147.358 168.083 146.91C168.152 146.605 168.077 146.204 168.003 145.8C167.905 145.243 167.776 144.679 167.751 144.244C167.613 141.885 167.804 139.512 167.911 137.161C167.942 136.472 167.963 135.641 168.165 134.912C168.333 134.306 168.619 133.766 169.074 133.362C169.272 133.186 169.49 133.089 169.719 133.032C169.843 133.003 169.978 133.007 170.104 132.961C171.549 132.435 172.538 132.689 174.002 133.055C174.445 133.167 174.718 133.619 174.605 134.062C174.495 134.506 174.042 134.779 173.599 134.668C172.496 134.392 171.757 134.127 170.671 134.523C170.515 134.579 170.228 134.628 170.131 134.645L170.133 134.647Z" fill="#6D4B5C"/>
<path fill-rule="evenodd" clip-rule="evenodd" d="M173.876 148.087C173.809 143.412 174.632 138.782 174.632 134.146C174.632 133.688 174.261 133.316 173.803 133.316C173.345 133.316 172.973 133.688 172.973 134.146C172.973 138.791 172.152 143.428 172.217 148.11C172.223 148.569 172.599 148.935 173.057 148.928C173.515 148.922 173.883 148.544 173.876 148.087Z" fill="#6D4B5C"/>
<path fill-rule="evenodd" clip-rule="evenodd" d="M215.782 101.019C219.592 106.565 219.058 113.545 218.023 120.022C216.767 127.873 215.11 135.58 213.354 143.315C212.318 147.875 211.466 153.053 209.372 157.245C209.166 157.655 209.332 158.156 209.741 158.362C210.153 158.566 210.651 158.4 210.857 157.99C213.007 153.682 213.908 148.369 214.973 143.683C216.738 135.914 218.401 128.173 219.663 120.285C220.764 113.394 221.205 105.981 217.151 100.077C216.893 99.6987 216.376 99.604 215.998 99.8626C215.62 100.121 215.526 100.638 215.784 101.019H215.782Z" fill="#6D4B5C"/>
<path fill-rule="evenodd" clip-rule="evenodd" d="M203.166 109.881C205.144 106.218 208.202 103.575 211.937 101.94C213.062 101.446 214.61 101.057 215.86 101.236C216.312 101.301 216.734 100.983 216.799 100.529C216.864 100.077 216.547 99.6545 216.095 99.5894C214.562 99.3686 212.655 99.8101 211.271 100.416C207.198 102.201 203.867 105.091 201.708 109.088C201.49 109.492 201.639 109.996 202.042 110.213C202.445 110.431 202.949 110.282 203.166 109.878V109.881Z" fill="#6D4B5C"/>
<path fill-rule="evenodd" clip-rule="evenodd" d="M194.455 135.355C196.261 126.677 197.95 117.613 201.537 109.45C202.596 107.042 204.268 105.209 205.681 103.06C207.154 100.821 210.187 98.5824 212.823 97.9958C213.94 97.7456 215.213 97.4429 216.19 98.1766C216.555 98.452 217.076 98.3784 217.351 98.0105C217.624 97.6447 217.551 97.1233 217.185 96.8479C215.809 95.8156 214.032 96.0237 212.459 96.3748C209.447 97.0434 205.976 99.5894 204.291 102.146C202.827 104.37 201.113 106.286 200.015 108.779C196.379 117.048 194.657 126.227 192.827 135.017C192.735 135.465 193.023 135.906 193.47 135.999C193.917 136.091 194.358 135.803 194.451 135.355H194.455Z" fill="#6D4B5C"/>
<path fill-rule="evenodd" clip-rule="evenodd" d="M192.598 156.716C192.065 158.963 192.109 161.608 191.916 163.925C191.483 169.126 191.027 174.401 191.027 179.606C191.027 180.065 191.399 180.437 191.857 180.437C192.315 180.437 192.687 180.065 192.687 179.606C192.687 174.447 193.138 169.218 193.569 164.061C193.756 161.824 193.699 159.27 194.211 157.096C194.317 156.65 194.041 156.203 193.596 156.097C193.153 155.992 192.703 156.268 192.598 156.713V156.716Z" fill="#6D4B5C"/>
<path fill-rule="evenodd" clip-rule="evenodd" d="M195.705 157.859C194.717 160.172 195.14 163.756 195.049 166.214C194.869 171.111 194.325 175.997 194.325 180.893C194.325 181.351 194.696 181.723 195.154 181.723C195.612 181.723 195.984 181.351 195.984 180.893C195.984 176.018 196.526 171.153 196.707 166.277C196.793 163.992 196.314 160.66 197.232 158.513C197.412 158.09 197.215 157.603 196.797 157.422C196.373 157.241 195.885 157.437 195.705 157.857V157.859Z" fill="#6D4B5C"/>
<path fill-rule="evenodd" clip-rule="evenodd" d="M218.693 101.786C221.514 109.471 221.842 122.861 222.064 131.1C222.346 141.534 222.53 151.991 222.948 162.417C223.242 169.771 222.705 177.17 222.705 184.515C222.705 184.974 223.079 185.346 223.534 185.346C223.99 185.346 224.364 184.974 224.364 184.515C224.364 177.151 224.902 169.729 224.606 162.352C224.19 151.933 224.003 141.484 223.721 131.058C223.495 122.667 223.121 109.04 220.249 101.214C220.092 100.781 219.615 100.563 219.185 100.72C218.754 100.878 218.533 101.355 218.691 101.788L218.693 101.786Z" fill="#6D4B5C"/>
<path fill-rule="evenodd" clip-rule="evenodd" d="M218.984 120.527C219.185 124.744 219.083 128.983 219.251 133.202C219.37 136.213 219.977 139.213 220.135 142.226C220.294 145.268 219.946 148.44 219.813 151.483C219.595 156.486 219.698 161.622 219.975 166.614C220.297 172.418 219.652 178.29 219.652 184.112C219.652 184.568 220.023 184.942 220.481 184.942C220.939 184.942 221.311 184.568 221.311 184.112C221.311 178.259 221.956 172.355 221.632 166.521C221.357 161.583 221.256 156.501 221.471 151.552C221.605 148.459 221.956 145.232 221.792 142.138C221.634 139.131 221.027 136.139 220.908 133.135C220.74 128.911 220.84 124.669 220.643 120.447C220.62 119.989 220.231 119.636 219.774 119.657C219.318 119.68 218.963 120.069 218.984 120.527Z" fill="#6D4B5C"/>
<path fill-rule="evenodd" clip-rule="evenodd" d="M191.112 181.145C191.796 181.255 192.372 181.604 193.042 181.761C194.107 182.014 195.203 182.213 196.283 182.386C198.211 182.693 200.158 182.72 202.075 183.113C209.878 184.711 217.568 186.191 225.562 186.191C226.019 186.191 226.391 185.819 226.391 185.361C226.391 184.902 226.019 184.53 225.562 184.53C217.679 184.53 210.101 183.063 202.407 181.486C200.467 181.089 198.494 181.057 196.541 180.746C195.503 180.58 194.445 180.386 193.42 180.145C192.712 179.976 192.101 179.621 191.378 179.503C190.927 179.43 190.498 179.739 190.427 180.189C190.351 180.641 190.66 181.07 191.112 181.143V181.145Z" fill="#6D4B5C"/>
<path fill-rule="evenodd" clip-rule="evenodd" d="M188.079 185.314C188.671 186.166 189.532 186.809 190.45 187.389C191.504 188.054 192.639 188.632 193.622 189.267C195.64 190.575 197.541 192.086 199.494 193.482C201.256 194.744 203.413 195.643 205.276 196.751C207.297 197.952 209.152 199.55 211.458 200.126C211.901 200.237 212.174 200.689 212.063 201.133C211.953 201.579 211.502 201.85 211.057 201.74C208.593 201.124 206.589 199.463 204.43 198.181C202.529 197.05 200.33 196.123 198.53 194.834C196.598 193.455 194.72 191.958 192.721 190.663C190.673 189.336 188.016 188.218 186.64 186.151C186.495 185.935 186.403 185.594 186.419 185.192C186.44 184.688 186.623 184.03 186.68 183.769C186.848 183.038 186.861 182.31 187.033 181.684C187.268 180.836 187.72 180.121 188.833 179.678C189.024 179.6 189.391 179.43 189.69 179.381C189.996 179.329 190.274 179.377 190.479 179.484C190.887 179.697 191.044 180.199 190.83 180.607C190.656 180.944 190.28 181.11 189.925 181.034C189.822 181.074 189.543 181.181 189.45 181.219C188.818 181.473 188.658 181.925 188.566 182.436C188.469 182.968 188.434 183.557 188.299 184.143C188.259 184.309 188.156 184.675 188.102 185.026C188.087 185.117 188.081 185.253 188.079 185.314Z" fill="#6D4B5C"/>
<path fill-rule="evenodd" clip-rule="evenodd" d="M227.786 186.46C227.616 186.376 227.465 186.363 227.307 186.353C227.097 186.338 226.883 186.334 226.646 186.305C226.19 186.248 225.869 185.834 225.923 185.377C225.982 184.923 226.396 184.6 226.852 184.654C227.519 184.738 228.013 184.673 228.67 185.047C228.948 185.207 229.2 185.506 229.368 185.909C229.611 186.498 229.691 187.347 229.691 187.745C229.691 188.748 229.88 189.952 229.742 191.029C229.626 191.918 229.305 192.727 228.618 193.356C227.322 194.546 225.902 195.158 224.411 196.039C222.55 197.14 220.641 198.116 218.748 199.157C216.875 200.189 214.728 201.637 212.605 201.993C212.153 202.068 211.723 201.759 211.649 201.309C211.574 200.857 211.88 200.428 212.332 200.353C214.283 200.029 216.23 198.65 217.948 197.702C219.826 196.669 221.722 195.702 223.567 194.611C224.955 193.789 226.289 193.24 227.496 192.13C227.994 191.674 228.105 191.027 228.131 190.358C228.166 189.475 228.032 188.544 228.032 187.743C228.032 187.547 228.007 187.196 227.931 186.866C227.902 186.731 227.818 186.521 227.788 186.456L227.786 186.46Z" fill="#6D4B5C"/>
<path fill-rule="evenodd" clip-rule="evenodd" d="M211.924 197.43C211.8 197.502 211.653 197.54 211.498 197.538C209.616 197.496 208.811 195.948 208.996 194.359C209.17 192.853 210.271 191.411 211.979 191.411C212.951 191.411 213.669 191.773 214.161 192.292C214.885 193.062 215.114 194.22 214.841 195.246C214.53 196.409 213.606 197.388 212.138 197.449C212.065 197.449 211.993 197.445 211.924 197.43ZM211.693 195.894C211.802 195.83 211.932 195.793 212.069 195.788C212.709 195.761 213.102 195.322 213.237 194.815C213.365 194.34 213.291 193.791 212.955 193.434C212.737 193.202 212.407 193.072 211.979 193.072C211.17 193.072 210.727 193.835 210.645 194.548C210.571 195.177 210.792 195.858 211.535 195.875C211.59 195.877 211.642 195.883 211.695 195.894H211.693Z" fill="#6D4B5C"/>
<path fill-rule="evenodd" clip-rule="evenodd" d="M186.297 186.246C186.528 188.081 185.936 190.242 185.795 192.082C185.457 196.478 185.314 200.893 185.138 205.295C185.062 207.186 184.623 209.34 184.913 211.226C185.073 212.267 185.722 213.518 186.144 214.483C186.785 215.948 187.974 216.999 189.408 217.769C191.374 218.82 193.806 219.325 195.675 219.747C202.113 221.198 208.939 221.812 215.518 222.018C220.407 222.171 224.948 222.697 229.128 219.909C229.508 219.653 229.611 219.138 229.359 218.757C229.103 218.374 228.588 218.274 228.208 218.526C224.335 221.112 220.103 220.5 215.57 220.357C209.097 220.153 202.378 219.552 196.043 218.124C194.581 217.796 192.746 217.422 191.107 216.735C189.624 216.112 188.289 215.24 187.669 213.816C187.299 212.969 186.699 211.886 186.556 210.976C186.283 209.191 186.728 207.152 186.799 205.365C186.976 200.981 187.119 196.589 187.455 192.212C187.604 190.265 188.192 187.98 187.948 186.04C187.889 185.586 187.476 185.262 187.02 185.319C186.566 185.377 186.245 185.792 186.3 186.248L186.297 186.246Z" fill="#6D4B5C"/>
<path fill-rule="evenodd" clip-rule="evenodd" d="M228.035 192.57C228.777 196.074 228.361 199.733 228.634 203.281C228.89 206.605 229.336 209.914 229.336 213.257C229.336 215.091 229.466 216.693 228.626 218.375C228.42 218.787 228.586 219.285 228.997 219.491C229.407 219.697 229.907 219.531 230.111 219.119C231.075 217.189 230.997 215.362 230.997 213.257C230.997 209.875 230.55 206.519 230.291 203.155C230.014 199.535 230.417 195.803 229.661 192.229C229.569 191.781 229.126 191.493 228.678 191.588C228.231 191.683 227.943 192.124 228.04 192.572L228.035 192.57Z" fill="#6D4B5C"/>
<path fill-rule="evenodd" clip-rule="evenodd" d="M187.016 180.771C185.724 183.416 185.272 186.586 184.728 189.458C183.5 195.967 182.834 202.596 182.328 209.206C182.101 212.135 181.863 215.202 183.21 217.899C183.55 218.58 183.844 219.337 184.445 219.848C187.112 222.129 191.25 222.787 194.579 223.41C197.633 223.986 200.739 224.173 203.818 224.543C205.662 224.768 207.534 225.077 209.378 225.338C210.926 225.56 212.451 225.703 214.005 225.859C217.141 226.172 221.062 226.849 224.213 225.924C226.861 225.144 229.107 222.67 229.838 220.101C229.964 219.661 229.709 219.199 229.266 219.075C228.827 218.948 228.367 219.203 228.241 219.644C227.653 221.705 225.868 223.704 223.742 224.331C220.789 225.201 217.111 224.501 214.171 224.209C212.64 224.055 211.136 223.914 209.613 223.696C207.759 223.433 205.877 223.122 204.02 222.897C200.977 222.529 197.908 222.346 194.886 221.78C191.823 221.204 187.982 220.687 185.522 218.589C185.096 218.221 184.938 217.647 184.695 217.159C183.485 214.735 183.781 211.971 183.983 209.336C184.487 202.787 185.142 196.219 186.362 189.771C186.877 187.043 187.282 184.017 188.509 181.505C188.711 181.093 188.538 180.594 188.127 180.393C187.715 180.191 187.217 180.363 187.016 180.775V180.771Z" fill="#6D4B5C"/>
<path fill-rule="evenodd" clip-rule="evenodd" d="M209.324 203.235C208.654 207.991 207.809 212.742 207.215 217.504C207.156 217.958 207.48 218.374 207.935 218.433C208.389 218.49 208.805 218.166 208.862 217.71C209.456 212.957 210.3 208.214 210.968 203.469C211.033 203.014 210.714 202.594 210.26 202.529C209.809 202.464 209.387 202.781 209.324 203.235Z" fill="#6D4B5C"/>
<path fill-rule="evenodd" clip-rule="evenodd" d="M211.985 203.788C212.202 207.049 212.074 210.312 212.074 213.573C212.074 214.948 211.914 216.52 212.181 217.864C212.271 218.311 212.708 218.606 213.157 218.515C213.605 218.425 213.899 217.988 213.808 217.538C213.558 216.295 213.731 214.842 213.731 213.573C213.731 210.274 213.855 206.975 213.64 203.677C213.609 203.22 213.214 202.874 212.756 202.905C212.3 202.935 211.954 203.332 211.983 203.788H211.985Z" fill="#6D4B5C"/>
<path fill-rule="evenodd" clip-rule="evenodd" d="M209.42 160.086C210.277 160.83 210.88 162.531 211.308 163.531C212.01 165.169 212.802 166.765 213.499 168.415C215.341 172.771 218.002 176.968 218.483 181.787C218.529 182.243 218.935 182.575 219.392 182.531C219.848 182.485 220.18 182.079 220.136 181.623C219.638 176.636 216.935 172.273 215.03 167.768C214.333 166.117 213.537 164.52 212.835 162.878C212.325 161.688 211.527 159.711 210.508 158.831C210.161 158.532 209.636 158.57 209.338 158.915C209.038 159.262 209.078 159.787 209.424 160.086H209.42Z" fill="#6D4B5C"/>
<path fill-rule="evenodd" clip-rule="evenodd" d="M158.11 250.413C158.801 251.767 160.177 252.829 161.769 253.728C164.376 255.2 167.572 256.205 169.757 257.054C170.351 257.286 170.88 257.643 171.412 257.998C171.832 258.278 172.246 258.564 172.716 258.722C185.213 262.941 199.061 262.727 211.816 259.779C213.07 259.491 214.442 259.602 215.639 259.102C217.802 258.2 219.875 256.642 221.885 255.438C222.278 255.2 222.788 255.33 223.022 255.721C223.259 256.117 223.129 256.628 222.738 256.861C220.665 258.108 218.516 259.701 216.279 260.635C214.994 261.169 213.534 261.087 212.192 261.398C199.143 264.413 184.974 264.612 172.189 260.294C171.582 260.088 171.034 259.741 170.492 259.377C170.061 259.089 169.637 258.787 169.158 258.602C166.917 257.727 163.636 256.686 160.958 255.175C159.039 254.09 157.432 252.757 156.613 251.121C156.422 250.737 156.413 249.982 156.642 249.08C157.022 247.573 157.944 245.479 158.104 244.802C159.572 238.549 161.175 232.309 162.783 226.069C166.312 212.379 170.101 198.826 174.054 185.253C177.167 174.58 179.807 163.649 185.056 153.758C185.27 153.352 185.774 153.198 186.177 153.413C186.583 153.629 186.736 154.132 186.52 154.535C181.323 164.326 178.725 175.151 175.646 185.72C171.697 199.274 167.913 212.809 164.386 226.483C162.781 232.711 161.185 238.942 159.717 245.18C159.555 245.863 158.629 247.97 158.247 249.488C158.158 249.843 158.119 250.346 158.112 250.413H158.11Z" fill="#6D4B5C"/>
<path fill-rule="evenodd" clip-rule="evenodd" d="M216.049 225.493C215.784 225.968 215.606 226.624 215.484 227.329C215.333 228.22 215.265 229.198 215.118 229.87C214.232 233.928 213.892 238.143 212.884 242.18C212.774 242.623 213.043 243.075 213.486 243.187C213.93 243.296 214.383 243.027 214.493 242.583C215.505 238.532 215.849 234.3 216.74 230.226C216.866 229.639 216.939 228.832 217.051 228.043C217.143 227.387 217.252 226.74 217.492 226.307C217.719 225.907 217.576 225.401 217.177 225.178C216.778 224.953 216.269 225.094 216.047 225.493H216.049Z" fill="#6D4B5C"/>
<path fill-rule="evenodd" clip-rule="evenodd" d="M210.922 240.401C211.067 241.084 211.458 241.763 211.957 242.407C212.588 243.214 213.398 243.969 213.917 244.623C215.852 247.066 217.576 249.694 219.424 252.206C219.941 252.906 220.374 253.72 220.907 254.386C221.073 254.596 221.266 254.805 221.411 255.025C221.489 255.141 221.577 255.261 221.504 255.408C221.298 255.818 221.464 256.318 221.875 256.522C222.285 256.726 222.783 256.56 222.989 256.15C223.318 255.492 223.234 254.908 222.949 254.365C222.762 254.008 222.466 253.674 222.203 253.348C221.682 252.696 221.26 251.899 220.76 251.216C218.897 248.689 217.162 246.044 215.215 243.586C214.778 243.033 214.136 242.413 213.568 241.749C213.102 241.204 212.669 240.641 212.543 240.052C212.451 239.604 212.008 239.316 211.561 239.413C211.113 239.505 210.825 239.949 210.922 240.397V240.401Z" fill="#6D4B5C"/>
<path fill-rule="evenodd" clip-rule="evenodd" d="M187.048 134.882C187.165 135.025 187.237 135.21 187.237 135.412C187.237 135.868 186.865 136.242 186.407 136.242C186.159 136.242 185.855 136.142 185.638 135.805C185.512 135.605 185.38 135.04 185.38 135.04C185.38 135.04 185.39 135.084 185.39 135.088C185.17 134.262 184.977 133.419 184.708 132.605C183.244 128.216 182.765 123.874 183.082 119.257C183.116 118.801 183.513 118.454 183.968 118.484C184.424 118.517 184.771 118.915 184.739 119.371C184.439 123.767 184.89 127.9 186.283 132.08C186.562 132.923 186.766 133.799 186.995 134.659L187.05 134.882H187.048Z" fill="#6D4B5C"/>
<path fill-rule="evenodd" clip-rule="evenodd" d="M159.214 123.277C159.403 123.849 159.6 124.414 159.783 124.99C159.898 125.36 159.944 125.804 159.997 126.243C160.033 126.525 160.058 126.807 160.163 127.021C160.369 127.431 160.203 127.932 159.791 128.136C159.382 128.342 158.884 128.176 158.678 127.766C158.525 127.459 158.434 127.082 158.38 126.685C158.323 126.277 158.308 125.84 158.199 125.491C157.92 124.604 157.6 123.733 157.336 122.842C157.285 122.676 157.019 121.978 157.027 121.585C157.035 121.25 157.161 120.996 157.327 120.83C157.628 120.531 157.972 120.47 158.354 120.607C158.512 120.666 158.863 120.927 158.903 120.956C159.493 121.261 160.493 122.148 160.917 122.661C162.904 125.047 164.101 128.047 166.084 130.469C166.613 131.117 167.233 131.869 167.888 132.389C168.102 132.555 168.421 132.696 168.686 132.872C169.003 133.085 169.26 133.341 169.407 133.638C169.61 134.05 169.442 134.548 169.031 134.752C168.621 134.956 168.121 134.788 167.917 134.378C167.896 134.333 167.844 134.312 167.8 134.281C167.714 134.218 167.613 134.163 167.516 134.106C167.277 133.97 167.042 133.837 166.861 133.694C166.115 133.104 165.399 132.258 164.796 131.525C162.82 129.105 161.625 126.109 159.642 123.727C159.537 123.601 159.386 123.441 159.211 123.277H159.214Z" fill="#6D4B5C"/>
<path fill-rule="evenodd" clip-rule="evenodd" d="M145.987 123.052C146.33 123.946 147.048 124.751 147.67 125.436C148.17 125.987 148.674 126.496 149.226 126.994C150.415 128.07 151.757 128.819 153.126 129.641C153.519 129.879 153.647 130.389 153.41 130.78C153.175 131.174 152.664 131.302 152.274 131.064C150.812 130.185 149.381 129.376 148.111 128.224C147.518 127.688 146.979 127.141 146.441 126.553C145.618 125.644 144.704 124.538 144.328 123.336C144.229 123.021 144.225 122.419 144.412 121.959C144.599 121.498 144.945 121.181 145.387 121.091C145.649 121.036 145.912 121.08 146.164 121.212C146.29 121.28 146.525 121.454 146.586 121.498C147.348 121.728 147.951 122.144 148.531 122.611C149.001 122.987 149.453 123.399 150.02 123.698C151.761 124.612 153.763 125.926 155.68 126.368C156.731 126.611 157.795 126.42 158.841 126.527C159.295 126.576 159.627 126.981 159.583 127.44C159.535 127.894 159.127 128.226 158.671 128.182C157.558 128.066 156.426 128.247 155.311 127.988C153.261 127.515 151.108 126.145 149.251 125.169C148.583 124.82 148.046 124.349 147.493 123.908C147.069 123.567 146.638 123.241 146.075 123.079C146.044 123.071 146.015 123.06 145.985 123.05L145.987 123.052Z" fill="#6D4B5C"/>
<path fill-rule="evenodd" clip-rule="evenodd" d="M144.221 122.974C144.57 126.227 146.75 129.681 148.852 132.084C149.153 132.429 149.678 132.464 150.022 132.162C150.367 131.861 150.402 131.335 150.102 130.991C148.205 128.823 146.187 125.735 145.874 122.798C145.824 122.344 145.416 122.013 144.958 122.06C144.505 122.11 144.175 122.518 144.221 122.976V122.974Z" fill="#6D4B5C"/>
<path fill-rule="evenodd" clip-rule="evenodd" d="M144.57 125.613C145.017 127.456 145.485 129.479 146.342 131.19C149.579 137.672 155.683 143.235 162.316 145.968C163.601 146.498 164.956 146.899 166.233 147.431C166.878 147.7 167.737 148.11 168.442 148.11C168.9 148.11 169.272 147.738 169.272 147.28C169.272 146.822 168.9 146.449 168.442 146.449C167.934 146.449 167.335 146.092 166.871 145.899C165.588 145.363 164.231 144.959 162.946 144.431C156.67 141.843 150.89 136.583 147.825 130.448C147.025 128.842 146.603 126.948 146.183 125.22C146.076 124.774 145.626 124.498 145.181 124.61C144.738 124.717 144.463 125.167 144.572 125.613H144.57Z" fill="#6D4B5C"/>
<path fill-rule="evenodd" clip-rule="evenodd" d="M140.112 105.35C140.041 106.018 140.323 106.782 140.459 107.416C140.665 108.375 140.812 109.349 141.022 110.307C141.673 113.286 142.446 116.318 143.362 119.226C143.662 120.176 143.79 121.303 144.235 122.196C144.439 122.606 144.939 122.772 145.349 122.566C145.76 122.362 145.926 121.862 145.72 121.452C145.313 120.634 145.223 119.598 144.947 118.725C144.044 115.864 143.286 112.883 142.643 109.952C142.433 108.995 142.288 108.026 142.083 107.07C141.982 106.59 141.711 106.027 141.763 105.524C141.814 105.07 141.482 104.66 141.026 104.61C140.57 104.561 140.161 104.892 140.112 105.35Z" fill="#6D4B5C"/>
<path fill-rule="evenodd" clip-rule="evenodd" d="M153.753 107.086C153.679 107.572 153.885 108.321 153.969 108.806C154.162 109.92 154.44 111.02 154.738 112.107C155.622 115.351 156.164 118.717 157.223 121.898C157.368 122.333 157.838 122.568 158.273 122.423C158.706 122.278 158.943 121.807 158.798 121.372C157.748 118.219 157.214 114.884 156.341 111.67C156.057 110.633 155.79 109.584 155.607 108.522C155.549 108.182 155.347 107.667 155.395 107.324C155.463 106.872 155.148 106.449 154.694 106.382C154.242 106.315 153.818 106.632 153.753 107.084V107.086Z" fill="#6D4B5C"/>
<path fill-rule="evenodd" clip-rule="evenodd" d="M154.213 105.85C154.66 105.863 155.019 106.231 155.019 106.681C155.019 107.131 154.647 107.511 154.189 107.511C153.759 107.511 153.314 107.246 152.994 107.084C152.413 106.794 151.642 106.666 151.007 106.456C150.121 106.161 149.126 106.098 148.193 105.966C146.966 105.789 145.702 105.453 144.48 105.207C144.047 105.121 143.345 104.963 142.701 104.963C142.499 104.963 142.306 104.98 142.138 105.03C142.039 105.06 141.938 105.087 141.9 105.184C141.736 105.613 141.256 105.823 140.827 105.657C140.399 105.493 140.186 105.011 140.352 104.583C140.642 103.83 141.321 103.435 142.186 103.33C143.072 103.226 144.171 103.449 144.801 103.578C145.998 103.817 147.231 104.149 148.426 104.32C149.455 104.467 150.552 104.553 151.53 104.879C152.238 105.117 153.091 105.276 153.736 105.6C153.832 105.648 153.944 105.716 154.061 105.781C154.105 105.804 154.194 105.842 154.21 105.85H154.213Z" fill="#6D4B5C"/>
<path fill-rule="evenodd" clip-rule="evenodd" d="M149.359 111.821C149.226 112.155 148.884 112.378 148.508 112.34C148.052 112.296 147.718 111.89 147.76 111.434C147.771 111.325 147.844 111.119 147.876 111.06C147.958 110.921 148.054 110.839 148.126 110.793C148.325 110.654 148.527 110.629 148.708 110.652C148.892 110.677 149.088 110.755 149.252 110.963C149.292 111.014 149.43 111.157 149.43 111.485C149.43 111.604 149.405 111.72 149.359 111.821ZM147.771 111.531C147.779 111.737 147.849 111.861 147.897 111.932C147.821 111.815 147.777 111.678 147.771 111.531Z" fill="#6D4B5C"/>
<path fill-rule="evenodd" clip-rule="evenodd" d="M149.611 115.082C149.627 115.074 149.642 115.063 149.659 115.055C150.062 114.834 150.209 114.329 149.989 113.928C149.768 113.526 149.264 113.377 148.863 113.598C148.848 113.606 148.831 113.617 148.815 113.625C148.413 113.846 148.264 114.35 148.485 114.752C148.705 115.153 149.212 115.303 149.611 115.082Z" fill="#6D4B5C"/>
<path fill-rule="evenodd" clip-rule="evenodd" d="M196.608 263.601C203.185 270.688 210.572 276.907 217.597 283.525C227.408 292.765 237.922 301.465 248.453 309.898C248.813 310.184 249.336 310.127 249.621 309.77C249.905 309.412 249.848 308.889 249.491 308.603C238.996 300.197 228.515 291.527 218.736 282.317C211.737 275.723 204.378 269.53 197.829 262.47C197.516 262.136 196.991 262.115 196.655 262.428C196.321 262.739 196.3 263.265 196.611 263.601H196.608Z" fill="#6D4B5C"/>
<path fill-rule="evenodd" clip-rule="evenodd" d="M218.821 259.272C222.461 262.43 225.133 266.618 228.388 270.11C230.466 272.337 232.526 274.632 234.479 276.974C235.765 278.518 236.804 280.311 238.163 281.791C240.486 284.329 242.845 286.946 245.021 289.637C248.169 293.529 251.417 297.462 255.437 300.479C255.802 300.755 256.323 300.681 256.598 300.313C256.871 299.945 256.798 299.426 256.432 299.15C252.521 296.213 249.373 292.379 246.311 288.59C244.112 285.874 241.732 283.229 239.384 280.666C238.046 279.207 237.021 277.433 235.752 275.911C233.78 273.543 231.701 271.224 229.602 268.975C226.307 265.443 223.591 261.211 219.907 258.015C219.561 257.716 219.038 257.754 218.737 258.101C218.437 258.448 218.477 258.972 218.821 259.272Z" fill="#6D4B5C"/>
<path fill-rule="evenodd" clip-rule="evenodd" d="M276.382 323.635C276.836 323.275 277.098 322.903 277.18 322.502C277.342 321.722 276.886 320.919 276.279 320.111C275.008 318.415 272.96 316.789 272.032 315.625C270.822 314.113 269.514 312.469 268.52 310.817C267.964 309.887 267.672 308.895 267.342 307.909C267.063 307.076 266.754 306.248 266.134 305.5C265.529 304.772 264.404 304.181 263.145 303.673C261.091 302.842 258.672 302.279 257.183 301.982C256.735 301.894 256.441 301.455 256.534 301.005C256.624 300.557 257.061 300.263 257.508 300.353C259.073 300.666 261.612 301.261 263.769 302.134C265.317 302.758 266.664 303.544 267.409 304.44C268.174 305.359 268.573 306.364 268.915 307.386C269.207 308.258 269.453 309.143 269.944 309.965C270.898 311.559 272.164 313.136 273.328 314.59C274.473 316.024 277.245 318.156 278.337 320.261C278.789 321.131 278.978 322.006 278.806 322.84C278.633 323.675 278.108 324.499 277.006 325.235C276.562 325.531 275.989 325.502 275.435 325.043C274.895 324.598 274.307 323.593 274.124 323.351C272.893 321.709 271.349 320.208 269.957 318.701C269.894 318.631 269.644 318.415 269.388 318.194C269.274 319.365 269.094 321.19 269.071 321.396C268.573 325.893 267.999 329.953 266.573 334.237C265.483 337.509 261.908 340.298 259.127 342.069C258.726 342.325 258.287 342.47 257.842 342.609C257.542 342.704 257.235 342.792 256.96 342.975C255.882 343.694 254.15 344.489 252.518 344.602C251.285 344.684 250.111 344.388 249.231 343.507C248.453 342.727 248.078 341.928 247.956 341.141C247.786 340.008 248.166 338.869 248.794 337.786C249.653 336.31 251.012 334.946 251.432 333.827C251.789 332.875 251.797 331.609 251.873 330.606C252.278 325.35 250.768 319.745 249.64 314.66C249.279 313.033 248.241 311.088 248.208 309.49C248.199 309.032 248.563 308.651 249.021 308.643C249.478 308.634 249.859 308.998 249.867 309.456C249.882 310.15 250.132 310.918 250.405 311.687C250.722 312.581 251.077 313.48 251.26 314.298C252.421 319.539 253.942 325.317 253.528 330.735C253.44 331.878 253.393 333.323 252.984 334.412C252.541 335.595 251.136 337.061 250.228 338.623C249.533 339.817 249.168 341.099 250.403 342.334C250.934 342.865 251.659 342.996 252.402 342.943C253.74 342.855 255.154 342.182 256.036 341.596C256.445 341.322 256.891 341.167 257.34 341.026C257.645 340.931 257.953 340.845 258.231 340.671C260.726 339.079 264.015 336.651 264.994 333.714C266.382 329.543 266.932 325.59 267.418 321.215C267.455 320.889 267.682 317.542 267.871 316.804C267.983 316.361 268.256 316.182 268.363 316.127C268.676 315.972 269.18 315.976 269.709 316.295C270.287 316.644 271.001 317.391 271.173 317.576C272.603 319.125 274.183 320.671 275.447 322.357C275.559 322.508 275.838 322.985 276.157 323.399C276.216 323.477 276.3 323.568 276.376 323.643L276.382 323.635Z" fill="#6D4B5C"/>
<path fill-rule="evenodd" clip-rule="evenodd" d="M253.398 334.208C255.082 334.048 256.349 333.115 257.273 331.811C258.531 330.039 259.134 327.558 259.367 325.699C259.833 321.97 259.293 318.114 258.858 314.269C258.441 310.592 258.117 306.929 258.997 303.41C259.106 302.964 258.837 302.512 258.394 302.403C257.951 302.291 257.497 302.561 257.388 303.006C256.46 306.715 256.771 310.579 257.21 314.456C257.632 318.164 258.17 321.888 257.72 325.491C257.55 326.858 257.168 328.609 256.403 330.058C255.723 331.349 254.738 332.408 253.24 332.553C252.786 332.597 252.45 333.003 252.492 333.459C252.536 333.916 252.942 334.252 253.398 334.208Z" fill="#6D4B5C"/>
<path fill-rule="evenodd" clip-rule="evenodd" d="M249.283 308.927C250.323 308.615 251.432 307.703 252.457 306.536C253.841 304.959 255.107 302.933 255.931 301.696C256.185 301.316 256.082 300.799 255.7 300.546C255.317 300.29 254.803 300.395 254.549 300.778C253.757 301.966 252.545 303.923 251.209 305.441C250.422 306.339 249.609 307.095 248.808 307.335C248.37 307.465 248.12 307.93 248.25 308.369C248.38 308.807 248.844 309.059 249.283 308.929V308.927Z" fill="#6D4B5C"/>
<path fill-rule="evenodd" clip-rule="evenodd" d="M243.286 302.701C243.643 302.502 245.349 301.541 245.756 301.179C247.527 299.602 248.386 297.576 249.109 295.412C249.251 294.979 249.722 294.744 250.159 294.887C250.591 295.032 250.827 295.503 250.682 295.938C249.871 298.379 248.859 300.645 246.859 302.422C246.3 302.918 244.032 304.224 243.74 304.318C243.383 304.436 243.146 304.312 243.057 304.263C242.818 304.133 242.684 303.935 242.637 303.685C242.614 303.565 242.555 303.259 242.862 302.941C242.982 302.815 243.131 302.735 243.289 302.699L243.286 302.701ZM244.286 303.603C244.267 303.78 244.196 303.95 244.061 304.087C244.229 303.91 244.28 303.738 244.286 303.603Z" fill="#6D4B5C"/>
<path fill-rule="evenodd" clip-rule="evenodd" d="M170.778 259.659C170.711 259.926 170.711 260.265 170.755 260.62C170.795 260.933 170.877 261.269 170.864 261.522C170.791 263.193 170.515 264.888 170.368 266.561C169.925 271.586 169.644 276.585 169.507 281.623C169.23 291.895 168.253 302.151 167.653 312.408C167.375 317.149 167.657 322.224 166.878 326.904C166.802 327.356 167.109 327.785 167.56 327.859C168.01 327.936 168.44 327.627 168.514 327.177C169.301 322.441 169.026 317.302 169.308 312.505C169.911 302.23 170.889 291.956 171.167 281.667C171.301 276.661 171.58 271.695 172.021 266.704C172.171 265.01 172.448 263.29 172.523 261.593C172.536 261.307 172.475 260.942 172.425 260.578C172.395 260.391 172.351 260.206 172.387 260.065C172.498 259.621 172.229 259.167 171.786 259.056C171.343 258.944 170.891 259.213 170.778 259.657V259.659Z" fill="#6D4B5C"/>
<path fill-rule="evenodd" clip-rule="evenodd" d="M190.001 262.952C189.591 263.694 189.31 264.884 189.123 266.189C188.866 267.987 188.774 270.009 188.652 271.195C188.133 276.226 187.304 281.251 186.447 286.225C184.96 294.862 183.038 303.38 181.099 311.918C179.291 319.882 177.008 327.953 177.008 336.193C177.008 336.651 177.38 337.023 177.837 337.023C178.295 337.023 178.667 336.651 178.667 336.193C178.667 328.077 180.938 320.13 182.717 312.286C184.661 303.723 186.59 295.171 188.081 286.509C188.944 281.499 189.78 276.436 190.303 271.369C190.423 270.198 190.513 268.197 190.765 266.427C190.918 265.352 191.118 264.364 191.454 263.757C191.675 263.355 191.53 262.851 191.128 262.63C190.725 262.407 190.221 262.554 190.001 262.956V262.952Z" fill="#6D4B5C"/>
<path fill-rule="evenodd" clip-rule="evenodd" d="M170.058 353.964C169.9 354.052 169.741 354.17 169.579 354.3C168.749 354.965 167.905 355.925 167.428 356.23C165.563 357.418 163.979 358.963 162.299 360.362C160.501 361.854 158.6 363.183 156.202 363.837C154.855 364.205 152.818 363.673 151.453 363.502C147.573 363.017 144.364 362.096 140.846 360.427C139.836 359.947 138.704 359.228 137.952 358.305C137.088 357.25 136.683 355.951 137.29 354.433C137.788 353.184 138.603 352.631 139.563 352.282C140.3 352.015 141.14 351.901 141.94 351.55C145.177 350.133 148.979 349.583 151.969 347.678C158.798 343.328 163.292 335.356 166.208 328.035C166.376 327.608 166.859 327.402 167.285 327.571C167.712 327.741 167.917 328.224 167.749 328.651C164.712 336.279 159.976 344.549 152.862 349.08C149.8 351.031 145.918 351.622 142.608 353.073C141.919 353.375 141.203 353.518 140.539 353.712C139.832 353.916 139.185 354.17 138.832 355.049C138.487 355.913 138.746 356.651 139.237 357.25C139.838 357.986 140.754 358.539 141.56 358.921C144.91 360.511 147.966 361.39 151.663 361.85C152.303 361.93 153.102 362.107 153.896 362.22C154.566 362.315 155.236 362.376 155.769 362.231C157.924 361.642 159.625 360.425 161.24 359.079C162.973 357.637 164.614 356.052 166.54 354.826C167.077 354.483 168.085 353.268 169.008 352.663C169.631 352.248 170.255 352.093 170.757 352.221C171.118 352.309 171.507 352.644 171.654 353.302C171.9 354.391 171.578 356.92 171.526 357.408C171.448 358.099 171.398 358.795 171.31 359.493C171.236 360.073 171.181 360.654 171.091 361.232C171.034 361.6 171.013 361.886 171.036 362.109C171.043 362.151 171.055 362.203 171.064 362.237C171.162 362.245 171.467 362.268 171.692 362.252C172.202 362.212 172.809 362.134 173.483 362.134C173.941 362.134 174.313 362.506 174.313 362.964C174.313 363.423 173.941 363.795 173.483 363.795C172.561 363.795 171.763 363.948 171.179 363.925C170.474 363.896 169.976 363.654 169.665 363.151C169.417 362.756 169.278 362.09 169.449 360.978C169.537 360.416 169.589 359.851 169.661 359.285C169.745 358.598 169.797 357.908 169.875 357.225C169.911 356.895 170.098 355.528 170.096 354.45C170.096 354.296 170.079 354.117 170.062 353.964H170.058Z" fill="#6D4B5C"/>
<path fill-rule="evenodd" clip-rule="evenodd" d="M177.541 337.284C177.359 339.106 177.63 340.807 177.802 342.548C177.957 344.133 178.029 345.754 177.472 347.564C176.443 350.913 175.307 354.286 174.193 357.626C173.668 359.199 172.723 360.917 172.723 362.607C172.723 363.065 173.095 363.437 173.553 363.437C174.011 363.437 174.382 363.065 174.382 362.607C174.382 361.087 175.298 359.565 175.769 358.152C176.886 354.801 178.027 351.414 179.06 348.054C179.686 346.011 179.631 344.18 179.455 342.386C179.293 340.753 179.024 339.159 179.194 337.452C179.241 336.996 178.907 336.588 178.451 336.542C177.995 336.495 177.588 336.83 177.541 337.286V337.284Z" fill="#6D4B5C"/>
<path fill-rule="evenodd" clip-rule="evenodd" d="M148.611 351.689C149.052 351.929 149.42 352.244 149.804 352.534C150.291 352.906 150.804 353.247 151.434 353.457C153.034 353.991 154.643 353.777 156.179 353.161C158.281 352.316 160.241 350.695 161.784 349.459C164.376 347.383 166.783 344.745 169.367 342.418C171.835 340.193 174.46 338.251 177.606 337.464C178.052 337.353 178.323 336.901 178.209 336.457C178.1 336.014 177.648 335.74 177.203 335.854C173.794 336.708 170.927 338.776 168.256 341.186C165.697 343.492 163.313 346.107 160.747 348.163C159.543 349.126 158.079 350.352 156.483 351.191C155.042 351.948 153.496 352.398 151.957 351.883C151.507 351.733 151.152 351.477 150.806 351.214C150.354 350.871 149.917 350.512 149.399 350.232C148.995 350.014 148.491 350.163 148.275 350.567C148.056 350.97 148.206 351.475 148.609 351.691L148.611 351.689Z" fill="#6D4B5C"/>
<path fill-rule="evenodd" clip-rule="evenodd" d="M166.142 332.776C167.642 333.428 169.37 334.218 171.147 334.708C173.048 335.23 175.001 335.404 176.814 334.799C177.247 334.654 177.484 334.183 177.339 333.747C177.194 333.312 176.724 333.077 176.289 333.222C174.785 333.724 173.164 333.537 171.586 333.104C169.887 332.637 168.236 331.874 166.802 331.254C166.382 331.071 165.892 331.264 165.71 331.685C165.527 332.108 165.72 332.597 166.142 332.778V332.776Z" fill="#6D4B5C"/>
<path fill-rule="evenodd" clip-rule="evenodd" d="M168.205 324.186C171.414 325.319 174.804 325.479 177.98 325.479C178.436 325.479 178.809 325.104 178.809 324.648C178.809 324.192 178.436 323.818 177.98 323.818C174.983 323.818 171.784 323.692 168.759 322.619C168.327 322.468 167.852 322.695 167.699 323.126C167.545 323.557 167.774 324.034 168.205 324.188V324.186Z" fill="#6D4B5C"/>
<path fill-rule="evenodd" clip-rule="evenodd" d="M258.828 233.045C259.055 230.657 259.489 226.534 260.475 222.947C261.103 220.661 261.937 218.59 263.128 217.399C264.247 216.281 265.791 215.551 267.472 215.054C270.118 214.269 273.095 214.06 275.408 213.929C285.3 213.362 295.751 214.654 305.507 216.05C309.012 216.551 313.319 216.98 315.758 219.965C317.476 222.068 317.987 224.683 317.989 227.367C317.989 230.18 317.427 233.069 316.994 235.581C316.342 239.364 316.112 243.267 315.364 247.017C314.259 252.541 312.958 258.025 311.691 263.524C311.603 263.911 311.844 264.301 312.231 264.388C312.618 264.478 313.007 264.237 313.096 263.849C314.367 258.34 315.672 252.839 316.777 247.302C317.529 243.54 317.763 239.622 318.416 235.83C318.862 233.24 319.431 230.266 319.431 227.371C319.431 224.348 318.807 221.419 316.874 219.053C314.204 215.787 309.546 215.171 305.71 214.625C295.863 213.216 285.311 211.92 275.326 212.491C272.916 212.628 269.817 212.858 267.06 213.675C265.139 214.245 263.385 215.102 262.105 216.383C260.772 217.717 259.785 220.01 259.08 222.57C258.071 226.245 257.623 230.467 257.39 232.917C257.351 233.312 257.642 233.666 258.04 233.705C258.436 233.743 258.788 233.451 258.826 233.052L258.828 233.045Z" fill="white"/>
<path fill-rule="evenodd" clip-rule="evenodd" d="M255.758 243.403C255.683 243.063 255.862 242.708 256.196 242.577C256.569 242.43 256.987 242.613 257.133 242.982C257.182 243.105 257.22 243.452 257.158 243.936C256.998 245.15 256.397 247.745 256.302 248.337C255.961 250.476 255.093 254.265 255.104 257.601C255.11 259.637 255.415 261.507 256.51 262.603C257.89 263.984 259.838 264.723 261.887 265.169C264.041 265.636 266.312 265.773 268.229 265.911C277.999 266.609 287.79 266.263 297.554 266.729C299.669 266.828 302.662 267.21 305.404 267.151C307.125 267.113 308.748 266.914 309.948 266.313C310.002 266.287 310.023 266.212 310.063 266.143C310.13 266.027 310.19 265.9 310.249 265.766C310.448 265.313 310.632 264.834 310.837 264.564C311.076 264.244 311.529 264.18 311.846 264.419C312.166 264.657 312.23 265.11 311.991 265.43C311.797 265.688 311.651 266.196 311.45 266.607C311.222 267.073 310.923 267.438 310.594 267.605C309.23 268.286 307.394 268.555 305.435 268.593C302.658 268.653 299.626 268.272 297.484 268.171C287.71 267.705 277.906 268.05 268.125 267.351C265.742 267.181 262.83 267 260.234 266.238C258.416 265.706 256.751 264.885 255.49 263.623C254.164 262.298 253.67 260.072 253.662 257.605C253.651 254.188 254.528 250.301 254.878 248.108C254.982 247.454 255.721 244.327 255.76 243.432V243.403H255.758Z" fill="white"/>
<path fill-rule="evenodd" clip-rule="evenodd" d="M250.127 235.861C250.848 236.938 252.521 238.2 253.914 239.344C255.091 240.311 256.083 241.214 256.398 241.844C256.575 242.2 256.431 242.633 256.075 242.813C255.717 242.992 255.285 242.847 255.106 242.489C254.989 242.257 254.732 241.985 254.403 241.672C253.808 241.108 252.995 240.459 252.172 239.785C250.684 238.568 249.182 237.254 248.65 236.19C248.523 235.932 248.506 235.693 248.554 235.474C248.612 235.207 248.78 234.951 249.07 234.746C249.594 234.377 250.724 234.187 250.969 234.112C252.508 233.65 254.115 233.624 255.646 233.208C255.898 233.138 256.791 232.707 257.289 232.629C257.627 232.572 257.89 232.643 258.051 232.738C258.392 232.945 258.501 233.389 258.295 233.729C258.125 234.008 257.799 234.132 257.499 234.056C257.428 234.076 257.238 234.129 257.103 234.178C256.665 234.339 256.198 234.551 256.024 234.598C254.505 235.013 252.91 235.035 251.383 235.494C251.245 235.536 250.509 235.75 250.127 235.861Z" fill="white"/>
<path fill-rule="evenodd" clip-rule="evenodd" d="M267.771 224.023V224.018C267.789 223.619 268.129 223.312 268.527 223.333C274.938 223.647 281.377 223.738 287.778 224.349C289.322 224.497 290.876 224.546 292.429 224.676C295.458 224.928 300.011 224.617 303.704 225.39C306.382 225.951 308.612 227.092 309.689 229.244C310.107 230.081 310.147 231.247 309.968 232.47C309.731 234.094 309.128 235.834 308.84 236.877C308.08 239.615 307.483 242.442 306.974 245.239C306.377 248.523 305.294 251.705 304.34 254.89C304.097 255.705 303.985 256.609 303.726 257.435C303.414 258.426 302.901 259.305 301.88 259.891C299.177 261.439 295.138 261.894 290.808 261.768C284.501 261.583 277.567 260.2 273.447 259.484C272.349 259.292 268.757 258.817 266.367 258.053C265.155 257.665 264.24 257.152 263.899 256.637C263.035 255.341 262.916 253.806 263.066 252.236C263.198 250.844 263.543 249.428 263.616 248.174C263.97 242.151 265.248 236.314 265.907 230.384C266.109 228.575 266.966 226.485 266.966 224.738C266.966 224.339 267.289 224.016 267.687 224.016C267.716 224.016 267.743 224.018 267.771 224.022V224.023ZM268.408 224.771C268.399 226.56 267.546 228.698 267.34 230.545C266.685 236.451 265.408 242.264 265.054 248.262C264.979 249.532 264.636 250.966 264.501 252.375C264.386 253.607 264.423 254.822 265.1 255.838C265.189 255.975 265.376 256.083 265.606 256.204C265.934 256.375 266.347 256.533 266.807 256.681C269.131 257.424 272.629 257.879 273.695 258.066C277.766 258.773 284.617 260.147 290.85 260.328C294.881 260.445 298.649 260.081 301.165 258.639C301.837 258.256 302.143 257.656 302.35 257.004C302.607 256.185 302.717 255.286 302.958 254.479C303.898 251.343 304.968 248.216 305.555 244.983C306.072 242.142 306.68 239.271 307.449 236.493C307.726 235.494 308.31 233.824 308.54 232.263C308.672 231.366 308.705 230.507 308.398 229.893C307.512 228.119 305.617 227.271 303.409 226.806C299.774 226.044 295.29 226.366 292.309 226.118C290.752 225.988 289.191 225.937 287.643 225.789C281.262 225.182 274.847 225.091 268.454 224.778C268.439 224.778 268.422 224.778 268.406 224.774L268.408 224.771Z" fill="white"/>
<path fill-rule="evenodd" clip-rule="evenodd" d="M267.442 225.24C269.16 228.208 271.104 231.152 272.962 234.048C274.403 236.29 275.511 237.372 277.289 239.302C279.239 241.416 282.399 244.168 285.4 244.6C287.631 244.919 290.324 244.187 292.991 242.929C296.85 241.113 300.673 238.222 302.911 236.152C303.914 235.223 305.166 233.661 306.433 232.343C307.209 231.537 307.983 230.823 308.71 230.459C309.067 230.282 309.212 229.847 309.033 229.491C308.854 229.133 308.421 228.988 308.065 229.167C307.216 229.591 306.298 230.403 305.394 231.34C304.146 232.636 302.921 234.178 301.931 235.09C299.773 237.084 296.096 239.872 292.378 241.623C289.993 242.747 287.598 243.454 285.605 243.169C282.901 242.783 280.106 240.227 278.35 238.321C276.635 236.462 275.564 235.426 274.176 233.266C272.329 230.39 270.396 227.464 268.69 224.517C268.491 224.171 268.05 224.053 267.706 224.254C267.361 224.455 267.243 224.897 267.443 225.24H267.442Z" fill="white"/>
<path d="M253.792 37.8226C255.648 37.8226 256.991 39.5079 256.991 42.1674C256.991 44.8533 255.648 46.5386 253.792 46.5386C251.935 46.5386 250.592 44.8533 250.592 42.1674C250.592 39.5079 251.935 37.8226 253.792 37.8226ZM253.792 39.4157C252.883 39.4157 252.278 40.3768 252.278 42.1674C252.278 43.9843 252.883 44.9586 253.792 44.9586C254.7 44.9586 255.319 43.9843 255.319 42.1674C255.319 40.3768 254.7 39.4157 253.792 39.4157ZM258.321 36.98H260.085V49.1718H258.321V36.98ZM259.69 41.5749H261.85V43.0232H259.69V41.5749ZM271.078 36.98H272.829V49.1718H271.078V36.98ZM263.284 38.1386H265.022V45.7091H263.284V38.1386ZM263.284 44.6821H264.363C266.141 44.6821 268.116 44.5505 270.13 44.1555L270.327 45.6038C268.234 46.0382 266.22 46.1699 264.363 46.1699H263.284V44.6821ZM288.819 36.9668H290.584V49.1981H288.819V36.9668ZM284.014 37.8226C285.857 37.8226 287.213 39.5079 287.213 42.1674C287.213 44.8533 285.857 46.5386 284.014 46.5386C282.171 46.5386 280.814 44.8533 280.814 42.1674C280.814 39.5079 282.171 37.8226 284.014 37.8226ZM284.014 39.4157C283.105 39.4157 282.487 40.3768 282.487 42.1674C282.487 43.9843 283.105 44.9586 284.014 44.9586C284.922 44.9586 285.528 43.9843 285.528 42.1674C285.528 40.3768 284.922 39.4157 284.014 39.4157ZM295.309 37.9147H296.731V39.6922C296.731 42.7072 295.678 45.5379 293.374 46.6702L292.321 45.2614C294.375 44.3003 295.309 41.9567 295.309 39.6922V37.9147ZM295.665 37.9147H297.06V39.6922C297.06 41.8778 297.929 44.1028 299.878 45.0508L298.825 46.4464C296.626 45.3273 295.665 42.6151 295.665 39.6922V37.9147ZM300.365 36.98H302.129V49.1718H300.365V36.98ZM301.734 41.6671H303.894V43.1285H301.734V41.6671ZM312.53 36.9931H314.281V44.2213H312.53V36.9931ZM313.78 39.8502H315.9V41.2984H313.78V39.8502ZM306.342 44.748H314.281V49.0401H306.342V44.748ZM312.569 46.1172H308.066V47.6577H312.569V46.1172ZM305.117 42.3781H306.144C308.54 42.3781 310.015 42.3386 311.7 42.0226L311.858 43.405C310.147 43.7342 308.606 43.8 306.144 43.8H305.117V42.3781ZM305.104 37.5856H310.673V41.2984H306.855V43.1549H305.117V39.995H308.948V38.9812H305.104V37.5856ZM253.265 56.9022H254.648V58.2715C254.648 61.0232 253.489 63.8276 251.251 64.8809L250.263 63.4984C252.278 62.5505 253.265 60.2727 253.265 58.2715V56.9022ZM253.634 56.9022H255.016V58.2715C255.016 60.1147 255.964 62.274 257.966 63.1956L257.004 64.5781C254.766 63.5379 253.634 60.8652 253.634 58.2715V56.9022ZM250.737 56.1517H257.426V57.5868H250.737V56.1517ZM258.321 54.98H260.085V67.1718H258.321V54.98ZM259.69 59.6276H261.85V61.0759H259.69V59.6276ZM262.638 60.6414H273.658V62.0633H262.638V60.6414ZM267.22 61.8527H268.971V67.1586H267.22V61.8527ZM263.507 55.7173H266.351V57.0997H263.507V55.7173ZM265.785 55.7173H267.51V56.4941C267.51 57.5737 267.51 59.0878 266.904 61.2339L265.193 60.9574C265.785 58.9298 265.785 57.5473 265.785 56.4941V55.7173ZM268.339 55.7173H271.526V57.0997H268.339V55.7173ZM270.736 55.7173H272.46V56.5731C272.46 57.679 272.46 59.1668 271.986 61.2207L270.275 60.9705C270.736 59.022 270.736 57.6527 270.736 56.5731V55.7173ZM285.067 56.1517H286.779C286.779 59.9173 285.883 63.0508 281.341 65.3549L280.406 64.0251C284.198 62.116 285.067 59.7856 285.067 56.3624V56.1517ZM281.157 56.1517H286.107V57.5342H281.157V56.1517ZM285.107 59.1404V60.4834L280.735 60.9047L280.525 59.4038L285.107 59.1404ZM288.253 54.9668H290.018V67.1586H288.253V54.9668ZM289.557 59.6276H291.703V61.0627H289.557V59.6276ZM292.558 61.4445H303.591V62.827H292.558V61.4445ZM297.192 60.0094H298.943V61.8132H297.192V60.0094ZM293.795 63.5511H302.248V67.1718H300.497V64.9335H293.795V63.5511ZM293.927 59.2458H302.419V60.5756H293.927V59.2458ZM293.927 55.2564H302.327V56.5862H295.665V59.9173H293.927V55.2564ZM295.178 57.2577H302.05V58.5348H295.178V57.2577ZM312.503 54.98H314.241V67.1718H312.503V54.98ZM313.846 59.7329H316.005V61.1944H313.846V59.7329ZM304.63 56.7837H311.726V58.1793H304.63V56.7837ZM308.198 58.864C309.975 58.864 311.292 60.0752 311.292 61.7737C311.292 63.4721 309.975 64.6834 308.198 64.6834C306.421 64.6834 305.104 63.4721 305.104 61.7737C305.104 60.0752 306.421 58.864 308.198 58.864ZM308.198 60.2859C307.368 60.2859 306.776 60.8389 306.776 61.7737C306.776 62.7085 307.368 63.2614 308.198 63.2614C309.027 63.2614 309.62 62.7085 309.62 61.7737C309.62 60.8389 309.027 60.2859 308.198 60.2859ZM307.316 55.1774H309.067V57.3104H307.316V55.1774ZM317.255 56.1386H318.993V63.2219H317.255V56.1386ZM317.255 62.7743H318.111C319.586 62.7743 320.81 62.7216 322.219 62.432L322.443 63.8934C320.981 64.2094 319.665 64.2621 318.111 64.2621H317.255V62.7743ZM325.629 54.98H327.301V67.1718H325.629V54.98ZM320.652 58.8245H323.43V60.2332H320.652V58.8245ZM323.048 55.1906H324.681V66.632H323.048V55.1906Z" fill="black"/>
<path d="M59.1994 244.14H60.5555V244.772C60.5555 247.339 59.4627 249.933 57.2508 250.92L56.3028 249.577C58.2909 248.669 59.1994 246.602 59.1994 244.772V244.14ZM59.5812 244.14H60.9373V244.772C60.9373 246.51 61.7931 248.458 63.7022 249.38L62.7674 250.71C60.6213 249.722 59.5812 247.221 59.5812 244.772V244.14ZM56.7241 242.968H63.3599V244.35H56.7241V242.968ZM59.1862 241.256H60.9373V243.679H59.1862V241.256ZM64.321 240.98H66.0853V253.172H64.321V240.98ZM65.6903 245.707H67.8495V247.155H65.6903V245.707ZM76.4855 240.98H78.2366V249.788H76.4855V240.98ZM77.7362 244.298H79.856V245.733H77.7362V244.298ZM69.0993 246.391H70.1131C72.7594 246.391 74.0761 246.339 75.5375 246.023L75.7087 247.405C74.2209 247.734 72.8253 247.8 70.1131 247.8H69.0993V246.391ZM69.0993 241.941H74.55V243.35H70.8372V247.142H69.0993V241.941ZM70.3764 251.566H78.671V252.961H70.3764V251.566ZM70.3764 248.866H72.1275V252.276H70.3764V248.866ZM91.3568 244.285H93.2132V245.693H91.3568V244.285ZM89.2897 241.862C90.896 241.862 92.0809 243.126 92.0809 244.943C92.0809 246.747 90.896 248.024 89.2897 248.024C87.6703 248.024 86.4985 246.747 86.4985 244.943C86.4985 243.126 87.6703 241.862 89.2897 241.862ZM89.2897 243.363C88.5787 243.363 88.0653 243.942 88.0653 244.943C88.0653 245.944 88.5787 246.523 89.2897 246.523C89.9875 246.523 90.5142 245.944 90.5142 244.943C90.5142 243.942 89.9875 243.363 89.2897 243.363ZM95.1881 240.98H96.8471V250.051H95.1881V240.98ZM92.7787 241.177H94.4113V249.683H92.7787V241.177ZM88.6446 251.566H97.1631V252.961H88.6446V251.566ZM88.6446 248.893H90.3957V252.303H88.6446V248.893ZM106.944 240.98H108.709V248.248H106.944V240.98ZM99.2554 246.128H100.322C102.995 246.128 104.43 246.075 106.01 245.746L106.181 247.155C104.561 247.471 103.074 247.537 100.322 247.537H99.2554V246.128ZM99.2554 241.888H105.035V243.284H100.993V246.931H99.2554V241.888ZM104.575 248.379C107.142 248.379 108.761 249.275 108.761 250.789C108.761 252.303 107.142 253.185 104.575 253.185C102.007 253.185 100.414 252.303 100.414 250.789C100.414 249.275 102.007 248.379 104.575 248.379ZM104.575 249.749C102.995 249.749 102.165 250.078 102.165 250.789C102.165 251.487 102.995 251.842 104.575 251.842C106.168 251.842 107.01 251.487 107.01 250.789C107.01 250.078 106.168 249.749 104.575 249.749ZM119.043 240.967H120.807V253.198H119.043V240.967ZM114.237 241.823C116.081 241.823 117.437 243.508 117.437 246.167C117.437 248.853 116.081 250.539 114.237 250.539C112.394 250.539 111.038 248.853 111.038 246.167C111.038 243.508 112.394 241.823 114.237 241.823ZM114.237 243.416C113.329 243.416 112.71 244.377 112.71 246.167C112.71 247.984 113.329 248.959 114.237 248.959C115.146 248.959 115.752 247.984 115.752 246.167C115.752 244.377 115.146 243.416 114.237 243.416ZM130.589 240.967H132.353V253.198H130.589V240.967ZM131.958 245.483H134.117V246.918H131.958V245.483ZM123.268 248.814H124.295C126.349 248.814 127.969 248.748 129.759 248.432L129.93 249.88C128.087 250.209 126.415 250.262 124.295 250.262H123.268V248.814ZM123.268 242.099H128.956V243.508H125.006V249.512H123.268V242.099ZM64.8871 258.967H66.6514V271.198H64.8871V258.967ZM60.0815 259.823C61.9248 259.823 63.2809 261.508 63.2809 264.167C63.2809 266.853 61.9248 268.539 60.0815 268.539C58.2382 268.539 56.8821 266.853 56.8821 264.167C56.8821 261.508 58.2382 259.823 60.0815 259.823ZM60.0815 261.416C59.173 261.416 58.5542 262.377 58.5542 264.167C58.5542 265.984 59.173 266.959 60.0815 266.959C60.99 266.959 61.5956 265.984 61.5956 264.167C61.5956 262.377 60.99 261.416 60.0815 261.416ZM71.377 260.902H72.7594V262.271C72.7594 265.023 71.6008 267.828 69.3626 268.881L68.3751 267.498C70.3895 266.55 71.377 264.273 71.377 262.271V260.902ZM71.7457 260.902H73.1281V262.271C73.1281 264.115 74.0761 266.274 76.0773 267.196L75.1162 268.578C72.8779 267.538 71.7457 264.865 71.7457 262.271V260.902ZM68.8491 260.152H75.5375V261.587H68.8491V260.152ZM76.4328 258.98H78.1971V271.172H76.4328V258.98ZM77.8021 263.628H79.9613V265.076H77.8021V263.628ZM83.6073 259.533H85.0556V260.705C85.0556 263.009 83.9365 265.102 81.5534 265.866L80.6976 264.483C82.7515 263.825 83.6073 262.245 83.6073 260.705V259.533ZM83.9628 259.533H85.3979V260.705C85.3979 262.206 86.2405 263.68 88.2286 264.286L87.3728 265.655C85.0424 264.918 83.9628 262.969 83.9628 260.705V259.533ZM82.5672 266.787H90.8882V271.172H89.1239V268.183H82.5672V266.787ZM89.1239 258.98H90.8882V266.248H89.1239V258.98ZM96.1273 259.823C97.9837 259.823 99.3266 261.508 99.3266 264.167C99.3266 266.853 97.9837 268.539 96.1273 268.539C94.2708 268.539 92.9279 266.853 92.9279 264.167C92.9279 261.508 94.2708 259.823 96.1273 259.823ZM96.1273 261.416C95.2188 261.416 94.6132 262.377 94.6132 264.167C94.6132 265.984 95.2188 266.959 96.1273 266.959C97.0357 266.959 97.6545 265.984 97.6545 264.167C97.6545 262.377 97.0357 261.416 96.1273 261.416ZM100.656 258.98H102.421V271.172H100.656V258.98ZM102.026 263.575H104.185V265.023H102.026V263.575Z" fill="black"/>
</g>
<defs>
<filter id="filter0_d_186_2426" x="225.389" y="4.31451" width="130.983" height="104.142" filterUnits="userSpaceOnUse" color-interpolation-filters="sRGB">
<feFlood flood-opacity="0" result="BackgroundImageFix"/>
<feColorMatrix in="SourceAlpha" type="matrix" values="0 0 0 0 0 0 0 0 0 0 0 0 0 0 0 0 0 0 127 0" result="hardAlpha"/>
<feOffset dy="2.92581"/>
<feGaussianBlur stdDeviation="1.4629"/>
<feComposite in2="hardAlpha" operator="out"/>
<feColorMatrix type="matrix" values="0 0 0 0 0 0 0 0 0 0 0 0 0 0 0 0 0 0 0.25 0"/>
<feBlend mode="normal" in2="BackgroundImageFix" result="effect1_dropShadow_186_2426"/>
<feBlend mode="normal" in="SourceGraphic" in2="effect1_dropShadow_186_2426" result="shape"/>
</filter>
<filter id="filter1_d_186_2426" x="40.331" y="211.532" width="103.216" height="81.0026" filterUnits="userSpaceOnUse" color-interpolation-filters="sRGB">
<feFlood flood-opacity="0" result="BackgroundImageFix"/>
<feColorMatrix in="SourceAlpha" type="matrix" values="0 0 0 0 0 0 0 0 0 0 0 0 0 0 0 0 0 0 127 0" result="hardAlpha"/>
<feOffset dy="2.92581"/>
<feGaussianBlur stdDeviation="1.4629"/>
<feComposite in2="hardAlpha" operator="out"/>
<feColorMatrix type="matrix" values="0 0 0 0 0 0 0 0 0 0 0 0 0 0 0 0 0 0 0.25 0"/>
<feBlend mode="normal" in2="BackgroundImageFix" result="effect1_dropShadow_186_2426"/>
<feBlend mode="normal" in="SourceGraphic" in2="effect1_dropShadow_186_2426" result="shape"/>
</filter>
<radialGradient id="paint0_radial_186_2426" cx="0" cy="0" r="1" gradientUnits="userSpaceOnUse" gradientTransform="translate(195.5 196.217) rotate(90) scale(167.484)">
<stop stop-color="#FFDFF2"/>
<stop offset="1" stop-color="#DC825B" stop-opacity="0"/>
</radialGradient>
<clipPath id="clip0_186_2426">
<rect width="393" height="393" fill="white" transform="translate(0 0.717224)"/>
</clipPath>
</defs>
</svg>
