<svg width="393" height="394" viewBox="0 0 393 394" fill="none" xmlns="http://www.w3.org/2000/svg">
<circle cx="195.5" cy="196.217" r="167.484" fill="url(#paint0_radial_186_3498)"/>
<g clip-path="url(#clip0_186_3498)">
<path d="M155.875 341.867C155.442 343.813 155.001 345.759 154.567 347.705C157.362 349.193 160.623 349.798 163.77 349.406C164.187 347.313 164.693 345.236 165.282 343.175L155.883 341.867H155.875Z" fill="white" stroke="#1D1D1B" stroke-width="1.8" stroke-linecap="round" stroke-linejoin="round"/>
<path d="M243.022 339.136C242.752 341.262 242.483 343.388 242.221 345.506C242.213 345.596 242.197 345.694 242.246 345.767C242.303 345.857 242.409 345.882 242.515 345.906C244.73 346.381 247.019 346.503 249.274 346.258C249.462 346.242 249.675 346.201 249.781 346.045C249.855 345.939 249.871 345.808 249.879 345.686C250.051 343.355 250.222 341.025 250.402 338.695L243.03 339.128L243.022 339.136Z" fill="white" stroke="#1D1D1B" stroke-width="1.8" stroke-linecap="round" stroke-linejoin="round"/>
<path d="M188.19 226.734C184.112 229.44 183.139 234.739 182.453 239.236C181.644 244.526 179.503 248.811 176.953 253.471C172.547 261.533 168.796 270.053 167.014 279.064C166.083 283.773 165.674 288.655 163.745 293.045C162.38 296.144 160.305 298.875 158.793 301.901C155.752 307.976 156.267 314.639 154.257 321.001C153.456 323.544 151.748 327.174 152.328 329.897C152.54 330.87 153.186 331.761 153.121 332.759C153.08 333.445 152.696 334.067 152.418 334.696C151.552 336.634 151.56 338.842 151.592 340.968C151.592 341.368 151.609 341.802 151.821 342.145C152.017 342.456 152.352 342.652 152.679 342.824C157.134 345.154 162.356 345.318 167.374 345.44C167.824 345.449 168.347 345.432 168.625 345.081C169.148 344.418 168.437 343.625 168.657 342.938C168.853 342.309 169.548 342.08 169.94 341.516C170.815 340.265 170.21 338.572 169.949 337.059C168.902 330.87 173.471 324.713 176.013 319.292C179.086 312.726 182.159 306.16 185.223 299.595C188.542 292.498 191.901 285.335 196.755 279.186C198.741 276.676 200.948 274.354 203.163 272.04C206.808 268.222 210.453 264.403 214.09 260.585C215.209 259.415 216.566 258.148 218.176 258.312C219.296 258.426 220.211 259.219 221.045 259.98C224.919 263.496 230.133 266.799 231.294 272.253C231.604 273.716 231.563 275.245 231.996 276.668C232.438 278.115 233.337 279.374 234.219 280.601C236.328 283.536 238.445 286.463 240.553 289.399C240.995 290.012 241.452 290.666 241.526 291.418C241.657 292.743 240.57 294.108 241.125 295.31C241.411 295.923 242.057 296.3 242.417 296.872C242.793 297.469 242.809 298.221 242.809 298.924C242.907 312.824 243.381 327.853 240.455 341.491C244.092 343.478 248.522 343.96 252.502 342.808C251.374 341.041 252.951 338.883 253.973 337.068C257.299 331.156 254.766 323.699 256.065 317.035C256.605 314.263 257.814 311.663 258.689 308.973C259.98 304.999 260.054 300.952 260.928 296.921C262.906 287.821 263.838 280.2 260.511 271.051C258.296 264.959 254.733 259.481 251.399 253.929C245.277 243.733 239.85 233.128 235.167 222.196L188.182 226.726L188.19 226.734Z" fill="#1D1D1B"/>
<path d="M182.526 227.993C182.453 228.304 182.387 228.631 182.477 228.934C182.567 229.228 182.812 229.457 183.049 229.653C185.264 231.493 188.206 232.18 191.067 232.548C194.606 233.014 198.177 233.079 201.749 233.087C208.164 233.104 214.621 232.948 220.914 231.705C227.207 230.463 233.377 228.1 238.379 224.085C238.829 223.725 239.278 223.333 239.507 222.801C239.711 222.319 239.703 221.779 239.72 221.248C239.801 219.261 240.39 217.298 241.419 215.606C225.728 222.139 208.41 222.703 191.647 222.474C189.751 222.45 186.376 221.697 184.61 222.343C182.976 222.94 182.91 226.309 182.526 227.993Z" fill="#F9BBBB" stroke="#1D1D1B" stroke-width="1.93" stroke-linecap="round" stroke-linejoin="round"/>
<path d="M127.377 111.241L129.886 111.928L132.82 125.64L130.262 123.522L127.377 111.241Z" fill="#F9BBBB" stroke="#1D1D1B" stroke-width="1.93" stroke-linecap="round" stroke-linejoin="round"/>
<path d="M123.846 126.899L119.784 117.014L127.377 111.241L131.054 126.899L125.415 129.319L123.846 126.899Z" fill="#F9BBBB" stroke="#1D1D1B" stroke-width="1.93" stroke-linecap="round" stroke-linejoin="round"/>
<path d="M124.982 125.803C123.838 126.924 122.399 128.011 122.22 129.606C122.154 130.211 122.285 130.824 122.416 131.421C123.944 138.395 125.48 145.362 127.009 152.336C129.003 151.134 130.997 149.94 132.991 148.739C133.351 148.518 133.735 148.272 133.89 147.88C134.021 147.545 133.956 147.16 133.882 146.801C133.375 144.266 132.869 141.731 132.362 139.205C132.305 138.91 132.248 138.6 132.362 138.322C132.501 137.978 132.852 137.782 133.163 137.578C135.198 136.196 135.696 132.999 134.16 131.069C135.051 130.767 135.664 129.794 135.549 128.861C135.435 127.929 134.618 127.128 133.678 127.038C134.152 126.384 134.176 125.452 133.743 124.773C133.31 124.095 132.444 123.727 131.659 123.882C132.395 123.195 132.239 121.846 131.447 121.216C130.662 120.587 129.461 120.644 128.619 121.2C127.058 122.239 126.322 124.479 124.982 125.795V125.803Z" fill="white" stroke="#1D1D1B" stroke-width="1.93" stroke-linecap="round" stroke-linejoin="round"/>
<path d="M183.891 144.716C182.012 145.402 179.928 145.174 177.991 145.672C172.188 147.185 170.096 154.176 166.058 158.608C163.067 161.886 158.695 163.849 154.265 163.906C152.238 159.948 149.296 156.465 145.741 153.808C144.907 153.187 144.016 152.581 143.461 151.698C142.75 150.57 142.684 149.147 142.128 147.937C140.437 144.241 135.059 144.062 131.414 145.852C125.023 148.992 121.182 156.612 122.44 163.62C123.11 167.348 125.023 170.709 126.943 173.979C130.016 179.212 133.367 184.609 138.565 187.74C143.624 190.782 149.754 191.281 155.622 191.927C157.632 192.147 159.7 192.409 161.465 193.415C162.462 193.979 163.329 194.772 164.383 195.205C168.396 196.841 172.809 192.753 177.043 193.652C181.595 194.625 183.025 200.528 182.388 205.14C181.75 209.751 180.05 214.608 181.865 218.901C184.3 224.633 191.59 226.211 197.801 226.595C208.916 227.282 220.318 226.595 230.681 222.515C236.467 220.242 242.245 216.423 244.117 210.496C246.462 203.03 241.869 195.214 241.73 187.397C241.657 183.554 242.67 179.785 243.675 176.073C243.945 175.075 244.239 174.028 244.975 173.301C245.727 172.548 246.806 172.254 247.762 171.796C250.402 170.529 250.916 168.738 251.807 166.326C252.616 164.143 255.085 163.252 257.071 162.45C263.805 159.72 269.583 154.666 273.179 148.354C276.775 142.034 278.173 134.487 277.078 127.3C276.71 124.871 276.064 122.484 275.672 120.055C274.683 113.89 275.361 107.603 275.443 101.356C275.468 99.3279 275.419 97.2348 274.585 95.3869C273.473 92.9339 271.087 91.2332 268.545 90.3583C265.995 89.4834 263.266 89.3281 260.577 89.2054C258.787 89.1237 256.956 89.0583 255.24 89.557C251.341 90.6936 248.767 94.5856 247.942 98.5675C247.116 102.541 247.696 106.662 248.138 110.701C248.816 116.858 249.184 123.04 249.225 129.229C249.225 129.957 249.208 130.75 248.743 131.306C248.154 132.018 247.1 132.075 246.299 132.533C245.302 133.105 244.787 134.233 243.97 135.035C241.975 136.981 238.78 136.629 236.009 136.343C228.981 135.623 220.612 135.877 213.959 138.542C207.576 141.102 200.883 143.53 193.911 141.527C189.539 140.268 187.61 143.391 183.9 144.748L183.891 144.716Z" fill="#F9BBBB" stroke="#1D1D1B" stroke-width="1.93" stroke-linecap="round" stroke-linejoin="round"/>
<path d="M190.252 101.539C191.798 95.5393 189.523 89.7654 185.17 88.6423C180.816 87.5192 176.034 91.4722 174.487 97.4716C172.941 103.471 175.217 109.245 179.57 110.368C183.923 111.491 188.706 107.538 190.252 101.539Z" fill="white" stroke="#1D1D1B" stroke-width="1.93" stroke-linecap="round" stroke-linejoin="round"/>
<path d="M215.177 124.029C220.531 117.831 224.159 109.827 224.691 101.429C225.083 95.3378 223.546 88.6495 218.986 84.9292C215.602 82.1737 211.14 81.4869 206.89 81.2334C198.456 80.7346 187.758 82.28 182.731 90.5709C178.539 97.4883 174.42 109.001 177.174 116.973C179.201 122.844 184.554 126.785 190.128 128.796C192.048 129.491 194.026 129.998 196.029 130.317C196.715 132.549 197.173 134.667 197.361 137.022C197.63 140.513 194.28 143.685 190.872 143.792C194.353 145.541 198.391 145.697 202.281 145.721C205.803 145.746 209.383 145.689 212.734 144.609C216.085 143.53 219.215 141.257 220.522 137.995C220.285 138.575 214.859 138.338 214.148 138.33C212.636 138.313 210.821 138.534 209.816 137.201C208.517 135.484 208.337 132.336 208.459 129.442C211.067 128.273 213.265 126.245 215.186 124.021L215.177 124.029Z" fill="white" stroke="#1D1D1B" stroke-width="1.93" stroke-linecap="round" stroke-linejoin="round"/>
<path d="M201.137 102.852C201.725 102.909 202.346 102.983 202.837 103.318C202.984 103.416 203.131 103.563 203.147 103.743C203.163 103.923 202.984 104.119 202.82 104.054C203 104.038 203.188 104.16 203.237 104.34C203.213 104.708 203.049 104.962 202.632 104.855C202.248 104.757 201.905 104.675 201.504 104.635C200.524 104.536 199.551 104.43 198.57 104.332C198.292 104.299 197.957 104.242 197.835 103.989C197.696 103.694 197.925 103.343 198.203 103.187C199.118 102.68 200.131 102.754 201.137 102.852Z" fill="#1D1D1B"/>
<path d="M187.374 99.606C186.834 99.3607 186.262 99.1154 185.665 99.1645C185.486 99.1808 185.29 99.2299 185.183 99.377C185.077 99.5242 185.134 99.7859 185.314 99.8104C185.167 99.7041 184.946 99.7205 184.807 99.8513C184.644 100.178 184.66 100.489 185.077 100.604C185.453 100.71 185.796 100.816 186.164 100.98C187.063 101.38 187.962 101.781 188.861 102.182C189.123 102.296 189.433 102.411 189.67 102.247C189.94 102.067 189.915 101.642 189.744 101.372C189.204 100.473 188.281 100.039 187.365 99.6223L187.374 99.606Z" fill="#1D1D1B"/>
<path d="M189.49 110.767C189.531 111.298 189.94 111.781 190.455 111.92C190.504 111.936 190.561 111.944 190.61 111.92C190.643 111.903 190.667 111.863 190.683 111.822C190.814 111.535 190.675 111.184 190.438 110.971C190.201 110.759 189.891 110.652 189.596 110.554C189.556 110.562 189.539 110.579 189.531 110.611C189.523 110.652 189.49 110.726 189.49 110.767Z" fill="#1D1D1B"/>
<path d="M187.406 109.867C187.349 109.892 187.3 109.925 187.251 109.966C187.202 110.015 187.169 110.072 187.153 110.137C187.145 110.178 187.137 110.227 187.153 110.268C187.186 110.366 187.308 110.399 187.415 110.399C187.692 110.407 187.97 110.293 188.158 110.088C188.199 110.039 188.24 109.99 188.256 109.925C188.273 109.859 188.264 109.786 188.224 109.745C188.052 109.557 187.578 109.794 187.406 109.876V109.867Z" fill="#1D1D1B"/>
<path d="M187.643 108.543C188.149 108.159 188.705 107.848 189.293 107.611C189.58 107.496 189.874 107.398 190.127 107.226C190.691 106.834 190.944 106.139 191.165 105.485" stroke="#1D1D1B" stroke-width="0.9" stroke-miterlimit="10" stroke-linecap="round"/>
<path d="M199.772 97.0141C199.527 97.4638 199.845 98.0034 200.352 98.0034C201.57 98.0034 202.853 98.2078 203.924 98.8129C204.275 99.0091 204.61 99.2626 204.896 99.5488C205.043 99.7041 205.182 99.8677 205.305 100.048C205.419 100.219 205.509 100.465 205.73 100.505C206.392 100.612 206.621 99.7859 206.433 99.3035C206.016 98.2487 204.561 95.6241 200.532 96.4008C200.221 96.4581 199.952 96.6707 199.804 96.9487L199.772 97.0141Z" fill="#1D1D1B"/>
<path d="M192.342 94.7491C192.342 95.2561 191.803 95.575 191.353 95.3378C190.282 94.7491 189.065 94.3158 187.831 94.324C187.422 94.324 187.013 94.3812 186.621 94.5038C186.417 94.5692 186.212 94.6428 186.016 94.741C185.828 94.8309 185.64 95.0108 185.42 94.929C184.79 94.7082 184.986 93.8661 185.387 93.539C186.261 92.8195 188.803 91.2251 191.95 93.8497C192.195 94.0541 192.326 94.3648 192.326 94.6755V94.7491H192.342Z" fill="#1D1D1B"/>
<path d="M197.352 114.471C198.104 114.422 198.954 114.495 199.453 115.068C199.837 115.509 199.91 116.147 199.812 116.719C199.608 117.889 198.766 118.862 197.793 119.532C196.38 120.513 194.582 120.979 192.89 120.685C191.19 120.391 189.621 119.295 188.869 117.741C188.607 117.21 188.125 115.853 188.812 115.468C189.335 115.174 190.749 115.591 191.378 115.534C193.397 115.37 195.325 114.61 197.352 114.471Z" stroke="#1D1D1B" stroke-width="0.9" stroke-miterlimit="10" stroke-linecap="round"/>
<path d="M192.023 117.218C192.898 116.907 193.862 116.965 194.769 117.169C196.085 117.472 197.36 118.101 198.202 119.156C198.995 118.608 199.567 117.758 199.763 116.818C199.877 116.27 199.853 115.64 199.485 115.215C199.101 114.773 198.455 114.675 197.867 114.643C196.698 114.577 195.513 114.667 194.361 114.904C193.69 115.043 193.037 115.231 192.358 115.338C191.386 115.501 190.389 115.501 189.4 115.444C189.195 115.436 188.983 115.419 188.795 115.517C188.452 115.697 188.378 116.163 188.452 116.548C188.517 116.916 188.672 117.259 188.869 117.578C188.95 117.709 188.983 117.848 189.048 117.979C189.13 118.142 189.285 118.281 189.416 118.404C189.751 118.739 190.094 119.074 190.43 119.409C190.405 118.911 190.511 118.347 190.863 117.97C191.181 117.635 191.582 117.382 192.015 117.226L192.023 117.218Z" fill="#1D1D1B"/>
<path d="M217.245 69.2548C213.551 68.4617 209.685 68.6416 205.901 68.8378C199.951 69.1485 193.143 71.1354 191.378 77.6848C190.986 79.1484 190.953 80.6937 191.108 82.2064C191.59 86.9242 193.805 91.3559 196.854 94.9862C199.894 98.6166 203.735 101.511 207.781 103.989C207.862 103.604 207.936 103.22 208.018 102.836C209.922 105.542 210.004 109.41 208.214 112.198C209.432 112.124 210.576 111.347 211.107 110.244C210.347 112.672 209.023 114.921 207.266 116.76C211.017 117.063 214.76 116.335 218.454 115.616C220.947 115.125 223.464 114.626 225.777 113.588C229.806 111.764 231.4 108.298 233.615 104.724C233.746 104.52 234.187 104.455 234.097 104.675C234.285 103.784 234.596 102.909 235.029 102.108C235.454 102.337 235.846 102.623 236.206 102.942C236.598 96.1882 235.96 89.2382 233.19 83.0649C230.419 76.8916 225.287 71.5687 218.798 69.6473C218.291 69.5001 217.776 69.3693 217.261 69.2548H217.245Z" fill="#1D1D1B"/>
<path d="M227.842 114.505C229.388 108.505 227.113 102.731 222.759 101.608C218.406 100.485 213.624 104.438 212.077 110.437C210.531 116.437 212.806 122.211 217.16 123.334C221.513 124.457 226.295 120.504 227.842 114.505Z" fill="white" stroke="#1D1D1B" stroke-width="1.93" stroke-linecap="round" stroke-linejoin="round"/>
<path d="M230.06 115.076C228.801 119.965 224.894 123.195 221.347 122.279C217.8 121.364 215.945 116.654 217.204 111.764C218.462 106.875 222.369 103.645 225.916 104.561C229.463 105.477 231.318 110.186 230.06 115.076Z" fill="#F9BBBB" stroke="#1D1D1B" stroke-width="1.57" stroke-linecap="round" stroke-linejoin="round"/>
<path d="M227.068 114.299C226.603 116.122 225.148 117.316 223.832 116.973C222.508 116.629 221.822 114.88 222.287 113.064C222.753 111.249 224.208 110.047 225.524 110.391C226.848 110.734 227.534 112.484 227.068 114.299Z" fill="#F9BBBB" stroke="#1D1D1B" stroke-width="1.35" stroke-linecap="round" stroke-linejoin="round"/>
<path d="M189.76 74.3242C185.346 77.0388 181.857 81.3642 180.557 86.3846C179.732 89.5898 179.797 92.9421 179.871 96.2454C180.745 94.8718 181.628 93.4899 182.502 92.1163C183.826 90.0476 185.167 87.9545 186.932 86.2456C189.645 83.6291 193.331 82.051 197.099 81.8875C197.72 81.863 198.382 81.863 198.897 81.5196C199.747 80.9635 199.861 79.778 199.886 78.7641C199.91 77.4885 199.943 76.1885 199.632 74.9538C199.42 74.0871 199.019 73.2449 198.406 72.5908C197.614 71.7486 196.878 71.8386 195.791 72.0021C193.642 72.3128 191.607 73.1877 189.76 74.3242Z" fill="#1D1D1B"/>
<path d="M222.778 104.577C222.778 104.577 225.385 95.068 223.636 91.1514C223.636 91.1514 221.396 86.8424 216.901 83.7762L222.124 84.7901C222.124 84.7901 226.365 88.0526 227.346 91.6502C227.346 91.6502 228.703 94.1604 226.88 104.626L222.778 104.585V104.577Z" fill="#F9BBBB" stroke="#1D1D1B" stroke-width="1.57" stroke-linecap="round" stroke-linejoin="round"/>
<path d="M269.984 54.1365C270.311 53.9157 270.711 53.7031 271.087 53.8258C273.408 54.5617 267.32 64.8559 266.527 66.2377C266.993 65.6899 267.908 65.6163 268.48 66.0496C269.052 66.483 269.24 67.3415 268.938 67.9956C269.257 67.1698 270.491 66.9818 271.161 67.5623C271.823 68.1428 271.905 69.2221 271.488 69.9989C271.651 69.3611 272.665 69.3693 273.073 69.8844C273.482 70.3995 273.441 71.1272 273.376 71.7814C273.139 74.1444 272.738 76.6382 271.21 78.4616C270.188 79.6717 268.733 80.3585 267.728 81.5768C266.698 82.8278 266.061 84.365 265.693 85.9267C265.195 88.028 265.162 90.2112 265.056 92.3698C265.039 92.6968 265.015 93.0566 264.786 93.2937C264.582 93.5145 264.271 93.5881 263.977 93.6371C261.958 93.9887 259.874 93.9887 257.855 93.6371C257.586 93.5881 257.292 93.5308 257.104 93.3264C256.875 93.0893 256.85 92.7214 256.842 92.3943C256.728 88.1752 256.605 83.9562 256.777 79.7289C256.809 78.8377 256.858 77.9301 256.63 77.0715C256.376 76.1313 255.812 75.2972 255.494 74.3815C254.913 72.7053 255.175 70.8738 255.445 69.124C255.518 68.6334 255.608 68.1183 255.943 67.7585C256.556 67.088 257.692 67.2761 258.46 67.7749C259.229 68.2736 259.841 69.0095 260.675 69.3775C263.969 64.308 264.59 57.7341 269.984 54.1201V54.1365Z" fill="white" stroke="#1D1D1B" stroke-width="1.93" stroke-linecap="round" stroke-linejoin="round"/>
<path d="M259.956 68.9523C261.713 70.1052 262.735 72.2965 262.49 74.3815C262.457 74.6676 262.4 74.962 262.253 75.2155C261.942 75.7715 261.264 76.0495 260.626 75.9922C259.997 75.9268 259.417 75.5671 258.992 75.101C258.567 74.6349 258.264 74.0626 257.986 73.4902" stroke="#1D1D1B" stroke-width="1.93" stroke-linecap="round" stroke-linejoin="round"/>
<path d="M266.642 66.0578C265.653 67.0472 264.893 68.2655 264.443 69.59C264.288 70.0479 264.165 70.5303 264.239 71.0128C264.312 71.487 264.606 71.9612 265.064 72.1084C265.285 72.182 265.571 72.1493 265.677 71.9367" stroke="#1D1D1B" stroke-width="1.93" stroke-linecap="round" stroke-linejoin="round"/>
<path d="M269.191 67.7095C268.488 68.4944 267.794 69.2875 267.27 70.1951C266.747 71.1027 266.396 72.1411 266.437 73.1877C266.445 73.5066 266.51 73.8418 266.723 74.0708C267.074 74.4387 267.663 74.3815 268.169 74.2997C267.998 74.2834 267.834 74.2752 267.663 74.2588" stroke="#1D1D1B" stroke-width="1.93" stroke-linecap="round" stroke-linejoin="round"/>
<path d="M271.978 69.7536C270.875 70.882 270.098 72.321 269.763 73.8582C269.698 74.1444 269.649 74.4469 269.69 74.7413C269.731 75.0356 269.87 75.33 270.123 75.4853" stroke="#1D1D1B" stroke-width="1.93" stroke-linecap="round" stroke-linejoin="round"/>
<path d="M183.834 125.681C183.532 130.628 183.27 135.771 185.166 140.349C185.894 142.099 186.923 143.71 188.076 145.214C193.38 152.124 201.52 156.784 210.159 157.847" stroke="#1D1D1B" stroke-width="0.9" stroke-linecap="round" stroke-linejoin="round"/>
<path d="M188.101 142.778C188.076 143.031 188.092 143.277 188.125 143.514" stroke="#1D1D1B" stroke-width="0.9" stroke-linecap="round" stroke-linejoin="round"/>
<path d="M189.09 145.46C189.866 146.351 190.994 147.054 192.089 147.52" stroke="#1D1D1B" stroke-width="0.9" stroke-linecap="round" stroke-linejoin="round"/>
<path d="M192.089 147.52C195.889 149.139 200.106 149.491 204.234 149.548C206.228 149.573 208.246 149.54 210.183 149.049C214.507 147.962 217.964 144.773 220.898 141.412C221.96 140.194 223.023 138.861 223.456 137.324" stroke="#1D1D1B" stroke-width="0.9" stroke-linecap="round" stroke-linejoin="round"/>
<path d="M223.48 137.259C223.546 137.022 223.595 136.784 223.628 136.539" stroke="#1D1D1B" stroke-width="0.9" stroke-linecap="round" stroke-linejoin="round"/>
<path d="M185.853 223.799C185.158 225.843 184.456 227.944 184.48 230.103" stroke="#1D1D1B" stroke-width="0.9" stroke-linecap="round" stroke-linejoin="round"/>
<path d="M188.534 224.943C187.896 227.159 187.863 229.498 187.839 231.795" stroke="#1D1D1B" stroke-width="0.9" stroke-linecap="round" stroke-linejoin="round"/>
<path d="M191.247 225.933C190.912 227.952 190.756 230.013 190.781 232.065" stroke="#1D1D1B" stroke-width="0.9" stroke-linecap="round" stroke-linejoin="round"/>
<path d="M195.227 226.857C194.794 228.721 194.622 230.651 194.72 232.556" stroke="#1D1D1B" stroke-width="0.9" stroke-linecap="round" stroke-linejoin="round"/>
<path d="M198.619 226.799C198.423 228.811 198.374 230.839 198.489 232.85" stroke="#1D1D1B" stroke-width="0.9" stroke-linecap="round" stroke-linejoin="round"/>
<path d="M202.526 227.225C202.559 229.064 202.534 230.912 202.469 232.752C202.469 232.58 202.469 232.417 202.469 232.245" stroke="#1D1D1B" stroke-width="0.9" stroke-linecap="round" stroke-linejoin="round"/>
<path d="M205.41 226.84C206.08 228.762 206.35 230.83 206.195 232.858C206.195 232.736 206.195 232.613 206.203 232.498" stroke="#1D1D1B" stroke-width="0.9" stroke-linecap="round" stroke-linejoin="round"/>
<path d="M209.742 227.102C209.693 229.024 209.653 230.945 209.604 232.875" stroke="#1D1D1B" stroke-width="0.9" stroke-linecap="round" stroke-linejoin="round"/>
<path d="M214.27 226.611C214.294 228.508 214.294 230.397 214.278 232.294" stroke="#1D1D1B" stroke-width="0.9" stroke-linecap="round" stroke-linejoin="round"/>
<path d="M218.602 225.688C219.084 227.617 218.667 229.637 218.765 231.624C218.765 231.566 218.765 231.509 218.765 231.452" stroke="#1D1D1B" stroke-width="0.9" stroke-linecap="round" stroke-linejoin="round"/>
<path d="M222.124 225.328C222.124 227.217 222.124 229.105 222.124 230.994" stroke="#1D1D1B" stroke-width="0.9" stroke-linecap="round" stroke-linejoin="round"/>
<path d="M225.483 224.526C225.532 226.358 225.581 228.189 225.631 230.029C225.631 230.062 225.631 230.095 225.606 230.111" stroke="#1D1D1B" stroke-width="0.9" stroke-linecap="round" stroke-linejoin="round"/>
<path d="M229.365 223.12C229.496 224.927 229.553 226.734 229.521 228.549" stroke="#1D1D1B" stroke-width="0.9" stroke-linecap="round" stroke-linejoin="round"/>
<path d="M232.291 221.836C232.577 223.537 232.7 225.262 232.634 226.979" stroke="#1D1D1B" stroke-width="0.9" stroke-linecap="round" stroke-linejoin="round"/>
<path d="M234.326 221.035C234.751 222.858 234.939 224.739 234.89 226.62" stroke="#1D1D1B" stroke-width="0.9" stroke-linecap="round" stroke-linejoin="round"/>
<path d="M236.786 219.432C237.399 220.839 237.669 222.392 237.579 223.921" stroke="#1D1D1B" stroke-width="0.9" stroke-linecap="round" stroke-linejoin="round"/>
<path d="M237.913 358.817C237.268 360.632 236.295 362.349 235.911 364.238C235.65 365.489 235.658 366.781 235.666 368.065C235.666 368.719 235.682 369.406 235.993 369.986C236.401 370.738 237.227 371.155 238.028 371.45C240.635 372.398 243.471 372.496 246.25 372.423C247.933 372.374 249.625 372.267 251.292 372.488C252.387 372.635 253.458 372.913 254.545 373.11C257.234 373.592 259.98 373.543 262.71 373.494C264.344 373.461 266.003 373.429 267.564 372.962C268.136 372.791 268.725 372.529 269.019 372.014C269.223 371.646 269.248 371.213 269.264 370.787C269.305 369.185 269.583 367.173 268.537 365.841C267.605 364.655 266.11 364.001 264.679 363.658C262.816 363.216 260.854 363.183 259.04 362.537C257.479 361.981 256.106 360.992 254.807 359.962C254.447 359.667 254.071 359.357 253.875 358.94C253.72 358.613 253.687 358.245 253.671 357.893C253.556 354.148 255.992 350.853 256.997 347.247C257.267 346.266 257.389 345.097 256.695 344.353C256.433 344.075 256.082 343.895 255.722 343.781C254.226 343.306 252.445 343.952 251.611 345.277C251.211 345.906 251.014 346.65 250.532 347.223C249.805 348.09 248.595 348.351 247.467 348.474C245.114 348.727 242.719 348.596 240.414 348.073C239.638 347.901 237.995 347.615 237.824 348.801C237.734 349.471 238.535 350.477 238.657 351.18C239.09 353.699 238.755 356.43 237.905 358.825L237.913 358.817Z" fill="white" stroke="#1D1D1B" stroke-width="1.8" stroke-linecap="round" stroke-linejoin="round"/>
<path d="M248.653 344.688C249.274 344.68 249.92 344.696 250.484 345.007C251.456 345.538 252.02 346.83 252.314 348.098C252.519 348.989 252.519 350.183 251.848 350.583C251.628 350.714 251.366 350.731 251.121 350.739C247.574 350.853 244.011 350.632 240.488 350.076C239.622 349.937 238.715 349.766 237.987 349.161C237.195 348.507 236.688 347.354 236.672 346.176C236.655 345.285 236.933 344.361 237.481 343.781C238.96 342.202 240.962 344.165 242.515 344.516C244.534 344.982 246.61 344.713 248.645 344.68L248.653 344.688Z" fill="#F9BBBB" stroke="#1D1D1B" stroke-width="1.93" stroke-linecap="round" stroke-linejoin="round"/>
<path d="M236.083 366.225C238.829 367.337 241.796 367.893 244.763 367.836C246.201 367.811 247.648 367.64 249.078 367.803C250.565 367.975 251.979 368.49 253.442 368.801C254.733 369.07 256.049 369.185 257.365 369.258C261.247 369.479 265.154 369.422 269.028 369.07" stroke="#1D1D1B" stroke-width="0.9" stroke-linecap="round" stroke-linejoin="round"/>
<path d="M251.742 354.124C253.36 354.304 255.011 354.23 256.605 353.903" stroke="#1D1D1B" stroke-width="1.8" stroke-linecap="round" stroke-linejoin="round"/>
<path d="M251.619 358.122C252.943 358.228 254.283 358.065 255.542 357.648" stroke="#1D1D1B" stroke-width="1.8" stroke-linecap="round" stroke-linejoin="round"/>
<path d="M253.205 361.924C253.965 361.924 254.701 361.679 255.395 361.376C256.09 361.074 256.752 360.698 257.447 360.403" stroke="#1D1D1B" stroke-width="1.8" stroke-linecap="round" stroke-linejoin="round"/>
<path d="M257.283 363.87C258.411 362.922 259.67 362.128 261.01 361.523" stroke="#1D1D1B" stroke-width="1.8" stroke-linecap="round" stroke-linejoin="round"/>
<path d="M237.187 366.634V370.779" stroke="#1D1D1B" stroke-width="0.45" stroke-linecap="round" stroke-linejoin="round"/>
<path d="M239.181 367.214V371.229" stroke="#1D1D1B" stroke-width="0.45" stroke-linecap="round" stroke-linejoin="round"/>
<path d="M241.003 367.803V372.161" stroke="#1D1D1B" stroke-width="0.45" stroke-linecap="round" stroke-linejoin="round"/>
<path d="M243.046 367.803V372.161" stroke="#1D1D1B" stroke-width="0.45" stroke-linecap="round" stroke-linejoin="round"/>
<path d="M244.763 367.836V372.161" stroke="#1D1D1B" stroke-width="0.45" stroke-linecap="round" stroke-linejoin="round"/>
<path d="M246.634 367.836V372.398" stroke="#1D1D1B" stroke-width="0.45" stroke-linecap="round" stroke-linejoin="round"/>
<path d="M248.432 367.836V372.161" stroke="#1D1D1B" stroke-width="0.45" stroke-linecap="round" stroke-linejoin="round"/>
<path d="M249.96 367.942V372.161" stroke="#1D1D1B" stroke-width="0.45" stroke-linecap="round" stroke-linejoin="round"/>
<path d="M251.742 368.375V372.398" stroke="#1D1D1B" stroke-width="0.45" stroke-linecap="round" stroke-linejoin="round"/>
<path d="M253.581 369.226V372.57" stroke="#1D1D1B" stroke-width="0.45" stroke-linecap="round" stroke-linejoin="round"/>
<path d="M255.534 369.389V373.249" stroke="#1D1D1B" stroke-width="0.45" stroke-linecap="round" stroke-linejoin="round"/>
<path d="M257.005 369.389V373.02" stroke="#1D1D1B" stroke-width="0.45" stroke-linecap="round" stroke-linejoin="round"/>
<path d="M259.146 369.389V373.249" stroke="#1D1D1B" stroke-width="0.45" stroke-linecap="round" stroke-linejoin="round"/>
<path d="M261.01 369.553V373.02" stroke="#1D1D1B" stroke-width="0.45" stroke-linecap="round" stroke-linejoin="round"/>
<path d="M262.636 369.389V373.486" stroke="#1D1D1B" stroke-width="0.45" stroke-linecap="round" stroke-linejoin="round"/>
<path d="M264.229 369.389V373.02" stroke="#1D1D1B" stroke-width="0.45" stroke-linecap="round" stroke-linejoin="round"/>
<path d="M266.061 369.389V372.57" stroke="#1D1D1B" stroke-width="0.45" stroke-linecap="round" stroke-linejoin="round"/>
<path d="M267.368 369.389V372.57" stroke="#1D1D1B" stroke-width="0.45" stroke-linecap="round" stroke-linejoin="round"/>
<path d="M249.257 345.187C248.848 346.92 249.233 348.817 250.271 350.264C250.262 350.215 250.246 350.166 250.238 350.117" stroke="#1D1D1B" stroke-width="0.45" stroke-linecap="round" stroke-linejoin="round"/>
<path d="M247.41 345.22C247.222 345.416 247.181 345.702 247.157 345.972C247.116 346.454 247.108 346.937 247.124 347.419C247.14 347.869 247.181 348.327 247.312 348.752C247.492 349.324 247.819 349.839 248.146 350.338C248.088 350.281 248.031 350.224 247.974 350.166" stroke="#1D1D1B" stroke-width="0.45" stroke-linecap="round" stroke-linejoin="round"/>
<path d="M245.22 345.211C244.943 346.863 244.918 348.556 245.155 350.207C245.163 350.166 245.171 350.117 245.18 350.076" stroke="#1D1D1B" stroke-width="0.45" stroke-linecap="round" stroke-linejoin="round"/>
<path d="M243.585 345.146C242.678 346.495 242.278 348.179 242.482 349.79" stroke="#1D1D1B" stroke-width="0.45" stroke-linecap="round" stroke-linejoin="round"/>
<path d="M241.812 344.598C240.553 345.923 239.907 347.803 240.087 349.627C240.079 349.357 240.071 349.087 240.063 348.817" stroke="#1D1D1B" stroke-width="0.45" stroke-linecap="round" stroke-linejoin="round"/>
<path d="M240.243 343.936C239.491 344.279 238.878 344.892 238.469 345.604C238.061 346.323 237.84 347.133 237.75 347.959" stroke="#1D1D1B" stroke-width="0.45" stroke-linecap="round" stroke-linejoin="round"/>
<path d="M252.689 347.861C252.951 347.223 253.49 346.7 254.152 346.487C254.806 346.274 255.574 346.397 256.106 346.83C256.285 346.969 256.441 347.157 256.473 347.378" stroke="#1D1D1B" stroke-width="0.9" stroke-linecap="round" stroke-linejoin="round"/>
<path d="M262.432 363.51C261.901 363.821 261.533 364.353 261.239 364.892C260.512 366.233 260.144 367.77 260.185 369.299" stroke="#1D1D1B" stroke-width="0.9" stroke-linecap="round" stroke-linejoin="round"/>
<path d="M238.845 357.484C240.12 358.735 240.929 360.411 241.37 362.145C241.811 363.878 241.893 365.685 241.877 367.468" stroke="#1D1D1B" stroke-width="0.9" stroke-linecap="round" stroke-linejoin="round"/>
<path d="M247.246 355.833C247.246 354.459 246.135 353.339 244.753 353.339C243.372 353.339 242.261 354.451 242.261 355.833C242.261 357.215 243.372 358.327 244.753 358.327C246.135 358.327 247.246 357.215 247.246 355.833Z" fill="#F9BBBB" stroke="#1D1D1B" stroke-width="0.9" stroke-linecap="round" stroke-linejoin="round"/>
<path d="M164.963 348.703C165.266 348.506 165.699 348.703 165.887 349.005C166.075 349.316 166.075 349.7 166.058 350.068C165.944 353.298 165.159 356.626 166.173 359.684C166.704 361.27 167.709 362.693 169.033 363.715C170.455 364.819 172.188 365.432 173.839 366.151C175.49 366.863 177.157 367.746 178.236 369.193C179.315 370.64 179.625 372.791 178.522 374.222C177.509 375.53 175.702 375.857 174.06 375.988C171.314 376.208 168.412 376.249 165.691 375.734C163.574 375.325 161.49 374.23 159.823 372.864C159.087 372.259 158.727 371.515 157.828 371.074C156.938 370.64 155.932 370.452 154.976 370.215C152.99 369.716 151.07 368.948 149.28 367.934C149.059 367.803 148.822 367.664 148.691 367.451C148.552 367.231 148.528 366.961 148.52 366.699C148.405 364.369 148.789 361.924 149.729 359.782C150.587 357.819 151.944 356.16 152.026 353.903C152.058 352.881 151.838 351.867 151.821 350.845C151.805 349.823 152.034 348.719 152.802 348.04C153.84 347.116 155.409 347.296 156.774 347.525C157.444 347.64 158.123 347.754 158.793 347.869C159.054 347.91 159.332 347.95 159.569 347.836C160.844 347.198 160.313 345.865 162.307 346.217C162.699 346.282 165.772 348.179 164.955 348.719L164.963 348.703Z" fill="white" stroke="#1D1D1B" stroke-width="1.8" stroke-linecap="round" stroke-linejoin="round"/>
<path d="M153.44 345.923C152.059 346.258 150.8 347.28 150.457 348.654C150.326 349.169 150.326 349.708 150.35 350.248C150.375 350.984 150.465 351.777 150.972 352.309C151.405 352.766 152.059 352.938 152.672 353.077C154.02 353.38 155.385 353.633 156.758 353.821C157.289 353.895 157.829 353.96 158.36 353.846C159.929 353.511 159.651 352.031 159.716 350.788C159.757 349.995 160.076 349.038 159.855 348.245C159.242 346.119 155.238 345.424 153.448 345.915L153.44 345.923Z" fill="#F9BBBB" stroke="#1D1D1B" stroke-width="1.93" stroke-linecap="round" stroke-linejoin="round"/>
<path d="M167.129 347.272C167.807 347.476 168.388 347.983 168.674 348.629C168.903 349.144 168.943 349.717 168.952 350.281C168.952 350.927 168.919 351.581 168.829 352.219C168.715 353.053 168.453 353.968 167.726 354.394C167.219 354.688 166.598 354.68 166.018 354.631C165.838 354.614 165.642 354.582 165.544 354.434C165.486 354.344 165.478 354.23 165.478 354.124C165.421 352.505 165.568 350.869 165.331 349.259C165.257 348.768 164.914 348.024 165.233 347.558C165.593 347.043 166.63 347.108 167.137 347.255L167.129 347.272Z" fill="#F9BBBB" stroke="#1D1D1B" stroke-width="1.93" stroke-linecap="round" stroke-linejoin="round"/>
<path d="M148.961 363.036C151.846 365.554 155.409 367.296 159.169 368.032C159.553 368.106 159.945 368.171 160.313 368.31C160.681 368.441 161.016 368.645 161.343 368.85C162.503 369.545 163.664 370.248 164.914 370.755C168.077 372.055 171.6 372.088 175.016 371.989C176.307 371.949 177.639 371.891 178.833 371.393" stroke="#1D1D1B" stroke-width="0.9" stroke-linecap="round" stroke-linejoin="round"/>
<path d="M150.342 364.492L150.121 367.803" stroke="#1D1D1B" stroke-width="0.45" stroke-linecap="round" stroke-linejoin="round"/>
<path d="M152.247 365.391L151.748 368.776" stroke="#1D1D1B" stroke-width="0.45" stroke-linecap="round" stroke-linejoin="round"/>
<path d="M153.881 366.266L153.383 369.308" stroke="#1D1D1B" stroke-width="0.45" stroke-linecap="round" stroke-linejoin="round"/>
<path d="M155.597 367.002L154.984 370.199" stroke="#1D1D1B" stroke-width="0.45" stroke-linecap="round" stroke-linejoin="round"/>
<path d="M157.289 367.574L156.815 370.665" stroke="#1D1D1B" stroke-width="0.45" stroke-linecap="round" stroke-linejoin="round"/>
<path d="M159.169 368.024L158.621 371.621" stroke="#1D1D1B" stroke-width="0.45" stroke-linecap="round" stroke-linejoin="round"/>
<path d="M161.342 368.841L160.443 372.701" stroke="#1D1D1B" stroke-width="0.45" stroke-linecap="round" stroke-linejoin="round"/>
<path d="M163.026 369.823L162.405 374.009" stroke="#1D1D1B" stroke-width="0.45" stroke-linecap="round" stroke-linejoin="round"/>
<path d="M164.914 370.747L164.849 374.9" stroke="#1D1D1B" stroke-width="0.45" stroke-linecap="round" stroke-linejoin="round"/>
<path d="M167.652 371.564L167.587 375.432" stroke="#1D1D1B" stroke-width="0.45" stroke-linecap="round" stroke-linejoin="round"/>
<path d="M169.826 371.883L169.949 375.432" stroke="#1D1D1B" stroke-width="0.45" stroke-linecap="round" stroke-linejoin="round"/>
<path d="M172.073 372.006L172.155 375.595" stroke="#1D1D1B" stroke-width="0.45" stroke-linecap="round" stroke-linejoin="round"/>
<path d="M173.953 372.014L174.035 375.309" stroke="#1D1D1B" stroke-width="0.45" stroke-linecap="round" stroke-linejoin="round"/>
<path d="M175.784 371.948L175.907 375.309" stroke="#1D1D1B" stroke-width="0.45" stroke-linecap="round" stroke-linejoin="round"/>
<path d="M177.46 371.916L177.542 374.696" stroke="#1D1D1B" stroke-width="0.45" stroke-linecap="round" stroke-linejoin="round"/>
<path d="M167.235 371.384C167.628 370.011 168.306 368.702 169.319 367.697C170.333 366.691 171.698 366.012 173.12 365.963" stroke="#1D1D1B" stroke-width="0.9" stroke-linecap="round" stroke-linejoin="round"/>
<path d="M151.83 356.389C151.658 359.267 151.658 362.153 151.83 365.023" stroke="#1D1D1B" stroke-width="0.9" stroke-linecap="round" stroke-linejoin="round"/>
<path d="M159.912 351.957C159.969 351.532 160.035 351.098 160.231 350.722C160.664 349.905 161.637 349.529 162.552 349.455C163.189 349.406 163.868 349.488 164.383 349.88C164.922 350.289 165.192 350.959 165.421 351.597" stroke="#1D1D1B" stroke-width="0.9" stroke-linecap="round" stroke-linejoin="round"/>
<path d="M160.19 356.601C161.85 357.035 163.598 356.806 165.298 356.585C165.527 356.552 165.764 356.52 165.977 356.421" stroke="#1D1D1B" stroke-width="1.8" stroke-linecap="round" stroke-linejoin="round"/>
<path d="M160.746 359.717C162.757 360.06 164.857 359.847 166.761 359.111" stroke="#1D1D1B" stroke-width="1.8" stroke-linecap="round" stroke-linejoin="round"/>
<path d="M162.054 363.461C163.868 362.423 165.952 361.875 168.036 361.883" stroke="#1D1D1B" stroke-width="1.8" stroke-linecap="round" stroke-linejoin="round"/>
<path d="M165.037 365.636C166.377 364.5 168.02 363.715 169.753 363.388" stroke="#1D1D1B" stroke-width="1.8" stroke-linecap="round" stroke-linejoin="round"/>
<path d="M156.652 358.367C156.652 359.201 156.202 359.88 155.638 359.88C155.075 359.88 154.625 359.201 154.625 358.367C154.625 357.533 155.075 356.855 155.638 356.855C156.202 356.855 156.652 357.533 156.652 358.367Z" fill="#F9BBBB" stroke="#1D1D1B" stroke-width="0.9" stroke-linecap="round" stroke-linejoin="round"/>
<path d="M153.129 346.454C152.066 348.155 151.519 350.166 151.56 352.17" stroke="#1D1D1B" stroke-width="0.45" stroke-linecap="round" stroke-linejoin="round"/>
<path d="M154.559 346.193C153.709 347.362 153.162 348.752 152.99 350.183C152.892 350.959 152.908 351.744 152.917 352.529" stroke="#1D1D1B" stroke-width="0.45" stroke-linecap="round" stroke-linejoin="round"/>
<path d="M156.153 346.405C155.213 348.384 154.633 350.526 154.453 352.709" stroke="#1D1D1B" stroke-width="0.45" stroke-linecap="round" stroke-linejoin="round"/>
<path d="M157.6 346.765C156.872 348.858 156.472 351.058 156.398 353.265" stroke="#1D1D1B" stroke-width="0.45" stroke-linecap="round" stroke-linejoin="round"/>
<path d="M158.736 347.141C158.107 349.161 157.764 351.27 157.723 353.388" stroke="#1D1D1B" stroke-width="0.45" stroke-linecap="round" stroke-linejoin="round"/>
<path d="M166.835 347.623C167.423 349.774 167.562 352.039 167.235 354.246" stroke="#1D1D1B" stroke-width="0.45" stroke-linecap="round" stroke-linejoin="round"/>
<path d="M217.997 122.917C216.223 122.059 214.891 120.325 214.531 118.387" stroke="#1D1D1B" stroke-width="0.9" stroke-linecap="round" stroke-linejoin="round"/>
<path d="M214.066 117.03C214.025 116.613 213.992 116.204 213.951 115.787" stroke="#1D1D1B" stroke-width="0.9" stroke-linecap="round" stroke-linejoin="round"/>
<path d="M213.828 114.553C213.877 114.389 213.902 114.217 213.894 114.046" stroke="#1D1D1B" stroke-width="0.9" stroke-linecap="round" stroke-linejoin="round"/>
<path d="M213.959 112.983C214.016 112.885 214.041 112.754 214.008 112.639" stroke="#1D1D1B" stroke-width="0.9" stroke-linecap="round" stroke-linejoin="round"/>
<path d="M196.387 85.4197C196.616 86.0984 196.722 86.6953 196.869 87.3003C196.992 87.9136 197.147 88.5023 197.229 89.2136C196.641 88.7885 196.314 88.1343 196.15 87.4639C196.011 86.7852 196.036 86.0493 196.387 85.4197Z" fill="white"/>
<path d="M198.21 87.562C198.537 88.1344 198.692 88.674 198.847 89.2218C198.978 89.7778 199.101 90.3257 199.084 90.9798C198.57 90.5628 198.292 89.9904 198.128 89.4017C197.989 88.8048 197.957 88.1671 198.202 87.562H198.21Z" fill="white"/>
<path d="M200.401 89.6389C200.711 90.2684 200.866 90.8572 201.022 91.4622C201.161 92.0673 201.291 92.6642 201.3 93.3673C200.76 92.9095 200.474 92.2799 200.311 91.6339C200.164 90.988 200.139 90.293 200.409 89.6389H200.401Z" fill="white"/>
<path d="M202.043 91.9773C202.517 92.3371 202.77 92.7541 202.974 93.2038C203.162 93.6617 203.293 94.1359 203.236 94.7246C202.778 94.3975 202.517 93.956 202.304 93.4981C202.116 93.0321 201.969 92.5415 202.043 91.9773Z" fill="white"/>
<path d="M205.099 94.1196C205.459 94.373 205.606 94.6592 205.729 94.9617C205.827 95.2725 205.884 95.5832 205.753 96.0083C205.345 95.8285 205.157 95.5259 205.034 95.1989C204.936 94.8718 204.895 94.512 205.099 94.1196Z" fill="white"/>
<path d="M207.438 96.5071C207.789 96.6052 207.92 96.7442 208.002 96.9159C208.059 97.0958 208.067 97.2838 207.887 97.6027C207.552 97.5537 207.413 97.382 207.323 97.1939C207.258 96.9977 207.233 96.7769 207.438 96.5071Z" fill="white"/>
<path d="M209.489 99.189C209.808 99.2053 209.914 99.3116 209.971 99.4261C210.012 99.5569 209.996 99.7041 209.767 99.933C209.448 99.9167 209.342 99.8104 209.285 99.6959C209.252 99.5651 209.26 99.4179 209.489 99.189Z" fill="white"/>
<path d="M211.058 101.707C211.377 101.863 211.475 102.083 211.491 102.296C211.491 102.517 211.426 102.746 211.115 102.926C210.838 102.705 210.772 102.525 210.756 102.329C210.756 102.141 210.805 101.953 211.05 101.699L211.058 101.707Z" fill="white"/>
<path d="M194.189 84.9864C193.846 84.6593 193.756 84.2587 193.764 83.8662C193.789 83.4738 193.911 83.0813 194.287 82.7869C194.483 83.2121 194.508 83.5473 194.5 83.8989C194.475 84.2505 194.426 84.5858 194.189 84.9864Z" fill="white"/>
<path d="M131.577 176.98C131.978 177.193 132.443 177.283 132.901 177.242" stroke="#1D1D1B" stroke-width="0.9" stroke-miterlimit="10" stroke-linecap="round"/>
<path d="M132.959 179.114C133.776 179.098 134.602 179.024 135.411 178.893" stroke="#1D1D1B" stroke-width="0.9" stroke-miterlimit="10" stroke-linecap="round"/>
<path d="M134.667 180.594C135.738 180.807 136.882 180.668 137.871 180.193" stroke="#1D1D1B" stroke-width="0.9" stroke-miterlimit="10" stroke-linecap="round"/>
<path d="M136.571 182.352C137.438 182.377 138.304 182.287 139.146 182.074" stroke="#1D1D1B" stroke-width="0.9" stroke-miterlimit="10" stroke-linecap="round"/>
<path d="M139.138 184.257C139.571 184.265 140.004 184.224 140.421 184.135" stroke="#1D1D1B" stroke-width="0.9" stroke-miterlimit="10" stroke-linecap="round"/>
<path d="M142.079 185.484H143.117" stroke="#1D1D1B" stroke-width="0.9" stroke-miterlimit="10" stroke-linecap="round"/>
<path d="M145.259 186.22H146.24" stroke="#1D1D1B" stroke-width="0.9" stroke-miterlimit="10" stroke-linecap="round"/>
<path d="M148.568 187.201H148.814" stroke="#1D1D1B" stroke-width="0.9" stroke-miterlimit="10" stroke-linecap="round"/>
<path d="M130.082 174.388C130.344 174.445 130.613 174.511 130.875 174.568" stroke="#1D1D1B" stroke-width="0.9" stroke-miterlimit="10" stroke-linecap="round"/>
<path d="M225.132 221.607C225.312 221.403 225.451 221.158 225.549 220.904" stroke="#1D1D1B" stroke-width="0.9" stroke-miterlimit="10" stroke-linecap="round"/>
<path d="M226.75 221.182C227.396 220.667 227.821 219.89 227.927 219.073" stroke="#1D1D1B" stroke-width="0.9" stroke-miterlimit="10" stroke-linecap="round"/>
<path d="M229.676 219.956C229.913 219.187 229.978 218.37 229.872 217.568" stroke="#1D1D1B" stroke-width="0.9" stroke-miterlimit="10" stroke-linecap="round"/>
<path d="M232.413 217.732C232.626 216.8 232.707 215.835 232.658 214.878" stroke="#1D1D1B" stroke-width="0.9" stroke-miterlimit="10" stroke-linecap="round"/>
<path d="M234.579 216.71C234.996 215.712 235.094 214.592 234.857 213.537" stroke="#1D1D1B" stroke-width="0.9" stroke-miterlimit="10" stroke-linecap="round"/>
<path d="M238.061 214.404C238.224 213.921 238.273 213.398 238.199 212.891" stroke="#1D1D1B" stroke-width="0.9" stroke-miterlimit="10" stroke-linecap="round"/>
<path d="M240.006 212.409C240.096 212.204 240.186 211.992 240.276 211.787" stroke="#1D1D1B" stroke-width="0.9" stroke-miterlimit="10" stroke-linecap="round"/>
<path d="M222.279 222.49C222.41 222.229 222.541 221.959 222.672 221.697" stroke="#1D1D1B" stroke-width="0.9" stroke-miterlimit="10" stroke-linecap="round"/>
<path d="M251.129 100.285C251.317 100.922 251.668 101.519 252.134 101.993" stroke="#1D1D1B" stroke-width="0.9" stroke-miterlimit="10" stroke-linecap="round"/>
<path d="M250.77 103.285C251.244 103.948 251.742 104.585 252.273 105.199" stroke="#1D1D1B" stroke-width="0.9" stroke-miterlimit="10" stroke-linecap="round"/>
<path d="M250.867 106.294C251.472 107.12 252.248 107.823 253.123 108.363" stroke="#1D1D1B" stroke-width="0.9" stroke-miterlimit="10" stroke-linecap="round"/>
<path d="M251.48 110.17C251.881 110.334 252.249 110.579 252.559 110.881" stroke="#1D1D1B" stroke-width="0.9" stroke-miterlimit="10" stroke-linecap="round"/>
<path d="M251.987 113.661C252.2 113.833 252.412 113.997 252.625 114.168" stroke="#1D1D1B" stroke-width="0.9" stroke-miterlimit="10" stroke-linecap="round"/>
<path d="M252.551 117.267C252.682 117.243 252.812 117.374 252.796 117.504" stroke="#1D1D1B" stroke-width="0.9" stroke-miterlimit="10" stroke-linecap="round"/>
<path d="M252.633 121.02C252.666 121.184 252.69 121.347 252.723 121.511" stroke="#1D1D1B" stroke-width="0.9" stroke-miterlimit="10" stroke-linecap="round"/>
<path d="M173.512 303.307C172.311 305.457 171.453 307.943 171.927 310.355C171.959 310.51 172 310.682 172.131 310.78C172.237 310.862 172.384 310.887 172.523 310.895C174.795 311.034 176.839 309.431 178.146 307.575C179.462 305.719 182.282 299.595 179.985 297.6C177.844 295.744 174.321 301.86 173.52 303.307H173.512Z" fill="#F9BBBB"/>
<path d="M254.815 292.955C254.079 295.049 253.818 297.354 254.382 299.505C254.513 300.012 254.701 300.519 255.052 300.903C255.403 301.287 255.959 301.524 256.458 301.385C257.014 301.23 257.357 300.682 257.643 300.183C258.607 298.466 259.531 296.7 260.029 294.795C260.446 293.225 261.059 288.238 258.779 287.616C256.85 287.085 255.256 291.664 254.799 292.964L254.815 292.955Z" fill="#F9BBBB"/>
<path d="M182.281 246.014C183.352 245.033 184.423 244.052 185.493 243.071C187.299 241.419 189.122 239.743 190.528 237.74C191.01 237.053 191.492 236.284 192.268 235.973C193.045 235.655 194.173 236.121 194.132 236.963" stroke="#F9BBBB" stroke-width="0.9" stroke-miterlimit="10" stroke-linecap="round"/>
<path d="M240.063 235.924C237.873 234.551 235.772 233.038 233.786 231.386C233.329 231.01 232.855 230.61 232.274 230.462C231.694 230.315 230.983 230.52 230.746 231.059" stroke="#F9BBBB" stroke-width="0.9" stroke-miterlimit="10" stroke-linecap="round"/>
<path d="M157.166 101.887L161.146 84.2914" stroke="#1D1D1B" stroke-width="1.8" stroke-miterlimit="10" stroke-linecap="round"/>
<path d="M167.325 85.6895C167.325 85.6895 165.707 85.6814 164.236 84.7492C164.236 84.7492 162.291 83.1548 160.934 84.0297L160.264 86.9978C160.264 86.9978 162.397 86.1392 164.203 87.3003C166.017 88.4614 167.325 85.6895 167.325 85.6895Z" fill="#1D1D1B"/>
<path d="M158.482 101.56C158.343 102.664 156.905 103.4 155.262 103.195C153.619 102.991 152.393 101.936 152.532 100.832C152.671 99.7286 154.11 98.9927 155.752 99.1971C157.395 99.4015 158.621 100.456 158.482 101.56Z" fill="#1D1D1B"/>
<path d="M149.386 122.181L148.495 107.545" stroke="#1D1D1B" stroke-width="1.8" stroke-miterlimit="10" stroke-linecap="round"/>
<path d="M150.734 121.732C150.914 122.827 149.729 123.939 148.095 124.201C146.46 124.471 144.989 123.792 144.809 122.696C144.629 121.601 145.814 120.489 147.449 120.227C149.083 119.957 150.555 120.636 150.734 121.732Z" fill="#1D1D1B"/>
<path d="M132.224 94.0051L129.412 78.1345L140.862 75.7306L142.529 90.7999" stroke="#1D1D1B" stroke-width="1.8" stroke-linecap="round" stroke-linejoin="round"/>
<path d="M133.147 93.1792C133.417 94.1359 132.485 95.2397 131.055 95.6404C129.633 96.041 128.26 95.5913 127.99 94.6346C127.72 93.678 128.652 92.5742 130.082 92.1735C131.504 91.7729 132.877 92.2226 133.147 93.1792Z" fill="#1D1D1B"/>
<path d="M143.6 91.0778C143.87 92.0345 142.938 93.1383 141.508 93.539C140.086 93.9396 138.713 93.4899 138.443 92.5333C138.173 91.5766 139.105 90.4728 140.535 90.0721C141.957 89.6715 143.33 90.1212 143.6 91.0778Z" fill="#1D1D1B"/>
<path d="M129.854 80.6201L140.919 78.0118" stroke="#1D1D1B" stroke-width="1.8" stroke-miterlimit="10" stroke-linecap="round"/>
<path d="M213.289 200.537C222.344 200.537 229.684 193.193 229.684 184.135C229.684 175.076 222.344 167.732 213.289 167.732C204.235 167.732 196.895 175.076 196.895 184.135C196.895 193.193 204.235 200.537 213.289 200.537Z" fill="white"/>
<path d="M213.289 196.972C220.376 196.972 226.121 191.224 226.121 184.135C226.121 177.045 220.376 171.297 213.289 171.297C206.203 171.297 200.458 177.045 200.458 184.135C200.458 191.224 206.203 196.972 213.289 196.972Z" fill="#F9BBBB"/>
<path d="M213.289 192.45C217.88 192.45 221.601 188.727 221.601 184.135C221.601 179.542 217.88 175.819 213.289 175.819C208.699 175.819 204.978 179.542 204.978 184.135C204.978 188.727 208.699 192.45 213.289 192.45Z" fill="white"/>
<path d="M216.902 184.135C216.902 182.139 215.283 180.521 213.289 180.521C211.295 180.521 209.677 182.139 209.677 184.135C209.677 186.13 211.295 187.749 213.289 187.749C215.283 187.749 216.902 186.13 216.902 184.135Z" fill="#1D1D1B"/>
<path d="M133.556 137.561C138.247 142.655 140.895 149.245 143.559 155.639C145.365 159.981 147.065 164.364 148.798 168.738C150.514 173.072 151.34 177.88 152.28 182.458C153.669 189.179 154.715 196.007 154.764 202.883C154.805 207.389 155.042 215.908 150.106 218.304C149.166 218.762 148.087 218.909 147.041 218.868C144.123 218.754 141.287 217.159 139.734 214.69C138.173 212.221 137.961 208.942 139.236 206.317C140.511 203.693 143.249 201.82 146.166 201.649C152.672 201.272 158.18 209.073 163.427 212.016C168.2 214.69 173.799 215.63 179.266 215.426C188.861 215.058 199.159 212.254 207.675 207.895C209.742 206.833 211.827 205.639 213.265 203.815C215.521 200.954 215.831 197.062 215.97 193.423C216.085 190.341 216.142 187.225 215.48 184.216C214.867 181.42 213.649 178.795 212.758 176.073C210.674 169.679 210.47 162.843 210.306 156.122C210.086 146.793 210.249 136.531 216.346 129.467C218.242 127.267 220.808 125.092 220.686 122.189" stroke="#1D1D1B" stroke-width="0.9" stroke-linecap="round" stroke-linejoin="round"/>
<path d="M219.664 123.751C219.664 123.751 218.92 125.313 217.996 126.31C217.743 126.588 217.8 127.03 218.119 127.234L218.585 127.545C218.83 127.709 219.157 127.676 219.369 127.471C220.064 126.768 221.494 125.1 221.421 123.432L219.672 123.751H219.664Z" fill="#1D1D1B"/>
<path d="M183.099 125.632L182.821 127.88C182.781 128.191 182.993 128.477 183.295 128.534L183.72 128.616C184.072 128.682 184.399 128.436 184.431 128.076L184.57 126.327L183.107 125.624L183.099 125.632Z" fill="#1D1D1B"/>
<path d="M180.288 91.4131C179.119 92.4842 178.146 93.7843 177.64 95.3051" stroke="#1D1D1B" stroke-width="0.9" stroke-linecap="round" stroke-linejoin="round"/>
<path d="M176.92 96.3436C176.847 96.6706 176.765 96.9895 176.691 97.3166" stroke="#1D1D1B" stroke-width="0.9" stroke-linecap="round" stroke-linejoin="round"/>
<path d="M176.168 98.9437C176.185 99.0663 176.168 99.189 176.119 99.2953" stroke="#1D1D1B" stroke-width="0.9" stroke-linecap="round" stroke-linejoin="round"/>
<path d="M128.472 113.081L129.698 113.253" stroke="#1D1D1B" stroke-width="0.45" stroke-linecap="round" stroke-linejoin="round"/>
<path d="M128.521 114.185L130.098 114.266" stroke="#1D1D1B" stroke-width="0.45" stroke-linecap="round" stroke-linejoin="round"/>
<path d="M128.889 115.109L130.294 115.362" stroke="#1D1D1B" stroke-width="0.45" stroke-linecap="round" stroke-linejoin="round"/>
<path d="M128.889 116.163L130.572 116.335" stroke="#1D1D1B" stroke-width="0.45" stroke-linecap="round" stroke-linejoin="round"/>
<path d="M129.306 117.39H131.055" stroke="#1D1D1B" stroke-width="0.45" stroke-linecap="round" stroke-linejoin="round"/>
<path d="M129.73 118.199L130.76 118.436" stroke="#1D1D1B" stroke-width="0.45" stroke-linecap="round" stroke-linejoin="round"/>
<path d="M129.73 119.164L131.054 119.254" stroke="#1D1D1B" stroke-width="0.45" stroke-linecap="round" stroke-linejoin="round"/>
</g>
<g filter="url(#filter0_d_186_3498)">
<path d="M383.446 194.255C383.446 218.523 355.434 238.196 320.88 238.196C312.203 238.196 299.601 235.625 292.932 233.944C263.396 253.394 267.842 256.213 277.052 225.613C265.488 217.64 258.314 206.536 258.314 194.255C258.314 169.987 286.326 150.315 320.88 150.315C355.434 150.315 383.446 169.987 383.446 194.255Z" fill="white"/>
<path d="M278.103 225.93L278.333 225.164L277.675 224.71C266.315 216.878 259.412 206.076 259.412 194.255C259.412 182.576 266.151 171.892 277.27 164.082C288.386 156.275 303.801 151.412 320.88 151.412C337.959 151.412 353.374 156.275 364.49 164.082C375.61 171.892 382.349 182.576 382.349 194.255C382.349 205.935 375.61 216.619 364.49 224.428C353.374 232.235 337.959 237.099 320.88 237.099C312.346 237.099 299.855 234.557 293.2 232.88L292.732 232.762L292.329 233.027C286.442 236.904 281.895 240.126 278.48 242.546C277.601 243.169 276.797 243.739 276.065 244.253C274.263 245.518 272.925 246.422 271.959 246.969C271.684 247.124 271.456 247.241 271.268 247.326C271.281 247.24 271.298 247.142 271.319 247.033C271.494 246.129 271.906 244.785 272.535 242.908C272.825 242.041 273.158 241.071 273.526 239.996C274.736 236.469 276.333 231.809 278.103 225.93ZM270.74 247.508C270.74 247.508 270.742 247.507 270.746 247.507C270.742 247.508 270.739 247.508 270.74 247.508Z" stroke="black" stroke-width="2.19435"/>
</g>
<g filter="url(#filter1_d_186_3498)">
<path d="M43.2546 253.086C43.2546 234.531 65.0504 219.49 91.9369 219.49C98.6888 219.49 108.494 221.456 113.683 222.741C136.665 207.87 133.206 205.714 126.039 229.11C135.038 235.207 140.619 243.697 140.619 253.086C140.619 271.641 118.823 286.683 91.9369 286.683C65.0504 286.683 43.2546 271.641 43.2546 253.086Z" fill="white"/>
<path d="M124.99 228.789L124.753 229.564L125.424 230.019C134.22 235.978 139.522 244.166 139.522 253.086C139.522 261.9 134.346 269.998 125.737 275.939C117.133 281.878 105.186 285.585 91.9369 285.585C78.6878 285.585 66.741 281.878 58.1365 275.939C49.5275 269.998 44.3518 261.9 44.3518 253.086C44.3518 244.272 49.5275 236.174 58.1365 230.233C66.741 224.295 78.6878 220.587 91.9369 220.587C98.5482 220.587 108.245 222.525 113.42 223.806L113.881 223.92L114.279 223.662C118.864 220.696 122.405 218.23 125.063 216.379C125.746 215.903 126.371 215.468 126.94 215.076C128.344 214.108 129.375 213.423 130.115 213.011C130.144 212.995 130.173 212.979 130.2 212.964C130.044 213.626 129.75 214.552 129.325 215.8C129.1 216.46 128.842 217.2 128.555 218.021C127.614 220.718 126.369 224.288 124.99 228.789ZM130.981 212.626C130.98 212.627 130.975 212.628 130.965 212.628C130.976 212.626 130.981 212.626 130.981 212.626Z" stroke="black" stroke-width="2.19435"/>
</g>
<path d="M278.887 180.967H280.651V193.198H278.887V180.967ZM274.081 181.823C275.925 181.823 277.281 183.508 277.281 186.167C277.281 188.853 275.925 190.539 274.081 190.539C272.238 190.539 270.882 188.853 270.882 186.167C270.882 183.508 272.238 181.823 274.081 181.823ZM274.081 183.416C273.173 183.416 272.554 184.377 272.554 186.167C272.554 187.984 273.173 188.959 274.081 188.959C274.99 188.959 275.596 187.984 275.596 186.167C275.596 184.377 274.99 183.416 274.081 183.416ZM291.473 180.98H293.145V193.172H291.473V180.98ZM286.641 185.654H289.248V187.036H286.641V185.654ZM288.906 181.243H290.538V192.632H288.906V181.243ZM286.246 182.415H287.931C287.931 185.891 286.891 188.656 283.468 190.644L282.48 189.419C285.259 187.747 286.246 185.72 286.246 182.771V182.415ZM283.165 182.415H286.799V183.811H283.165V182.415ZM302.895 187.168H304.633V190.591H302.895V187.168ZM307.319 187.168H309.07V190.591H307.319V187.168ZM300.472 190.341H311.505V191.763H300.472V190.341ZM305.976 181.572C308.596 181.572 310.531 182.863 310.531 184.851C310.531 186.839 308.596 188.116 305.976 188.116C303.342 188.116 301.42 186.839 301.42 184.851C301.42 182.863 303.342 181.572 305.976 181.572ZM305.976 182.942C304.277 182.942 303.145 183.64 303.145 184.851C303.145 186.049 304.277 186.76 305.976 186.76C307.674 186.76 308.806 186.049 308.806 184.851C308.806 183.64 307.674 182.942 305.976 182.942ZM316.876 182.152H318.43V182.455C318.43 184.285 316.784 185.786 313.637 186.075L313.032 184.706C315.704 184.469 316.876 183.403 316.876 182.455V182.152ZM317.732 182.152H319.286V182.455C319.286 183.403 320.444 184.469 323.13 184.706L322.524 186.075C319.391 185.786 317.732 184.285 317.732 182.455V182.152ZM313.571 181.454H322.603V182.836H313.571V181.454ZM313.848 188.787H322.274V193.04H313.848V188.787ZM320.563 190.17H315.573V191.658H320.563V190.17ZM312.571 186.51H323.591V187.892H312.571V186.51ZM332.88 188.682H334.67V193.172H332.88V188.682ZM337.093 188.682H338.884V193.172H337.093V188.682ZM330.391 187.761H341.438V189.169H330.391V187.761ZM335.882 181.388C338.489 181.388 340.292 182.455 340.292 184.127C340.292 185.772 338.489 186.839 335.882 186.839C333.288 186.839 331.484 185.772 331.484 184.127C331.484 182.455 333.288 181.388 335.882 181.388ZM335.882 182.784C334.289 182.784 333.275 183.258 333.275 184.127C333.275 184.982 334.289 185.456 335.882 185.456C337.488 185.456 338.489 184.982 338.489 184.127C338.489 183.258 337.488 182.784 335.882 182.784ZM351.232 180.98H352.891V188.616H351.232V180.98ZM349.745 183.982H351.693V185.404H349.745V183.982ZM348.704 181.217H350.337V188.221H348.704V181.217ZM342.45 182.231H348.362V183.574H342.45V182.231ZM345.426 183.969C346.953 183.969 348.059 184.838 348.059 186.102C348.059 187.366 346.953 188.221 345.426 188.221C343.899 188.221 342.793 187.366 342.793 186.102C342.793 184.838 343.899 183.969 345.426 183.969ZM345.426 185.219C344.781 185.219 344.346 185.535 344.346 186.102C344.346 186.668 344.781 186.984 345.426 186.984C346.058 186.984 346.492 186.668 346.492 186.102C346.492 185.535 346.058 185.219 345.426 185.219ZM344.544 181.098H346.269V183.152H344.544V181.098ZM348.77 188.748C351.377 188.748 352.957 189.538 352.957 190.96C352.957 192.369 351.377 193.172 348.77 193.172C346.15 193.172 344.57 192.369 344.57 190.96C344.57 189.538 346.15 188.748 348.77 188.748ZM348.77 190.051C347.138 190.051 346.321 190.328 346.321 190.96C346.321 191.579 347.138 191.868 348.77 191.868C350.39 191.868 351.206 191.579 351.206 190.96C351.206 190.328 350.39 190.051 348.77 190.051ZM362.436 180.98H364.174V193.172H362.436V180.98ZM363.779 185.733H365.938V187.194H363.779V185.733ZM354.562 182.784H361.659V184.179H354.562V182.784ZM358.13 184.864C359.908 184.864 361.224 186.075 361.224 187.774C361.224 189.472 359.908 190.683 358.13 190.683C356.353 190.683 355.036 189.472 355.036 187.774C355.036 186.075 356.353 184.864 358.13 184.864ZM358.13 186.286C357.301 186.286 356.708 186.839 356.708 187.774C356.708 188.708 357.301 189.261 358.13 189.261C358.96 189.261 359.552 188.708 359.552 187.774C359.552 186.839 358.96 186.286 358.13 186.286ZM357.248 181.177H358.999V183.31H357.248V181.177ZM368.096 184.271H376.549V185.654H368.096V184.271ZM366.727 186.918H377.773V188.313H366.727V186.918ZM368.096 181.414H369.834V184.956H368.096V181.414ZM367.978 191.513H376.615V192.908H367.978V191.513ZM367.978 189.288H369.729V191.882H367.978V189.288ZM273.7 205.234H275.451V207.907H273.7V205.234ZM279.045 198.98H280.796V208.209H279.045V198.98ZM272.014 209.566H281.06V210.961H272.014V209.566ZM272.014 207.34H273.766V209.934H272.014V207.34ZM270.698 205.761L270.487 204.365C272.712 204.365 275.688 204.339 278.242 204.009L278.347 205.26C275.754 205.695 272.897 205.761 270.698 205.761ZM276.741 206.063H279.427V207.261H276.741V206.063ZM274.411 199.401C276.188 199.401 277.439 200.283 277.439 201.574C277.439 202.877 276.188 203.746 274.411 203.746C272.62 203.746 271.369 202.877 271.369 201.574C271.369 200.283 272.62 199.401 274.411 199.401ZM274.411 200.678C273.594 200.678 273.028 200.981 273.028 201.574C273.028 202.166 273.594 202.469 274.411 202.469C275.214 202.469 275.78 202.166 275.78 201.574C275.78 200.981 275.214 200.678 274.411 200.678ZM283.218 206.827H284.205C286.364 206.827 287.773 206.774 289.353 206.485L289.524 207.893C287.892 208.196 286.43 208.262 284.205 208.262H283.218V206.827ZM283.218 200.06H288.734V201.455H284.969V207.367H283.218V200.06ZM291.131 198.98H292.882V211.211H291.131V198.98ZM288.142 203.18H291.868V204.602H288.142V203.18ZM303.203 198.98H304.954V205.076H303.203V198.98ZM301.07 201.561H303.414V202.956H301.07V201.561ZM299.082 199.428H300.925C300.925 202.614 299.056 204.536 295.488 205.392L294.895 204.009C297.844 203.364 299.082 201.995 299.082 200.31V199.428ZM295.593 199.428H300.543V200.81H295.593V199.428ZM296.896 205.537H304.954V208.907H298.674V210.408H296.923V207.617H303.203V206.906H296.896V205.537ZM296.923 209.684H305.204V211.053H296.923V209.684ZM311.391 199.678H312.918V200.56C312.918 203.206 311.036 205.55 307.876 206.169L307.125 204.72C309.877 204.246 311.391 202.311 311.391 200.56V199.678ZM311.747 199.678H313.261V200.56C313.261 202.35 314.762 204.246 317.527 204.72L316.776 206.169C313.616 205.55 311.747 203.246 311.747 200.56V199.678ZM306.875 208.262H317.908V209.684H306.875V208.262ZM329.831 201.561H331.687V202.93H329.831V201.561ZM325.157 203.851H325.986C327.671 203.851 328.804 203.825 330.173 203.601L330.331 204.931C328.909 205.168 327.724 205.208 325.986 205.208H325.157V203.851ZM325.157 199.651H329.752V200.994H326.816V204.786H325.157V199.651ZM326.342 201.745H329.304V203.035H326.342V201.745ZM333.412 198.993H335.071V205.445H333.412V198.993ZM331.029 199.177H332.661V205.352H331.029V199.177ZM326.789 205.879H335.071V209.078H328.54V210.606H326.802V207.841H333.359V207.209H326.789V205.879ZM326.802 209.763H335.466V211.093H326.802V209.763ZM337.4 200.073H343.259V208.275H337.4V200.073ZM341.547 201.442H339.125V206.893H341.547V201.442ZM345.155 198.967H346.919V211.198H345.155V198.967ZM352.171 199.823C354.028 199.823 355.371 201.508 355.371 204.167C355.371 206.853 354.028 208.539 352.171 208.539C350.315 208.539 348.972 206.853 348.972 204.167C348.972 201.508 350.315 199.823 352.171 199.823ZM352.171 201.416C351.263 201.416 350.657 202.377 350.657 204.167C350.657 205.984 351.263 206.959 352.171 206.959C353.08 206.959 353.699 205.984 353.699 204.167C353.699 202.377 353.08 201.416 352.171 201.416ZM357.991 201.811H360.137V203.259H357.991V201.811ZM357.991 205.392H360.137V206.827H357.991V205.392ZM356.701 198.98H358.465V211.172H356.701V198.98ZM362.047 208.091C361.807 208.091 361.608 208.016 361.449 207.866C361.295 207.716 361.218 207.527 361.218 207.3C361.218 207.133 361.211 206.884 361.199 206.554C361.19 206.22 361.186 205.969 361.186 205.802C361.186 205.211 361.19 204.323 361.199 203.141C361.211 201.958 361.218 201.07 361.218 200.479C361.218 200.252 361.297 200.063 361.456 199.913C361.614 199.759 361.811 199.682 362.047 199.682C362.283 199.682 362.48 199.759 362.639 199.913C362.797 200.063 362.876 200.252 362.876 200.479V207.3C362.876 207.527 362.797 207.716 362.639 207.866C362.484 208.016 362.287 208.091 362.047 208.091ZM362.028 210.424C361.771 210.424 361.531 210.287 361.308 210.013C361.106 209.76 361.006 209.524 361.006 209.306C361.006 209.083 361.094 208.896 361.269 208.746C361.445 208.596 361.644 208.521 361.867 208.521C362.124 208.521 362.362 208.659 362.581 208.933C362.782 209.186 362.883 209.419 362.883 209.634C362.883 209.852 362.795 210.039 362.619 210.193C362.448 210.347 362.251 210.424 362.028 210.424Z" fill="black"/>
<path d="M70.4759 237.853H72.227V242.803H70.4759V237.853ZM76.0978 230.98H77.8621V243.172H76.0978V230.98ZM67.6978 238.603L67.4871 237.194C69.8702 237.181 72.7668 237.181 75.3342 236.905L75.4263 238.182C72.7799 238.577 70.015 238.603 67.6978 238.603ZM73.6621 239.196H76.4533V240.512H73.6621V239.196ZM68.4614 231.559H74.5705V236.194H68.4614V231.559ZM72.8589 232.942H70.1862V234.811H72.8589V232.942ZM84.692 237.841C84.662 237.862 84.3084 238.111 83.6312 238.586C83.1984 238.886 82.8683 239.163 82.6412 239.416C82.4355 239.643 82.2083 239.756 81.9597 239.756C81.7155 239.756 81.5012 239.668 81.3169 239.493C81.1326 239.313 81.0404 239.107 81.0404 238.876C81.0404 238.533 81.3169 238.149 81.8697 237.725C82.3798 237.365 82.8898 237.003 83.3998 236.638C83.9527 236.218 84.2291 235.839 84.2291 235.501C84.2291 235.102 84.0255 234.729 83.6184 234.382C83.2155 234.03 82.7955 233.855 82.3583 233.855C82.1269 233.855 81.8097 233.988 81.4069 234.253C81.004 234.515 80.719 234.645 80.5518 234.645C80.299 234.645 80.0847 234.553 79.909 234.369C79.7375 234.18 79.6518 233.973 79.6518 233.745C79.6518 233.317 80.0268 232.925 80.7769 232.569C81.4112 232.265 81.9383 232.113 82.3583 232.113C83.2884 232.113 84.1284 232.455 84.8784 233.141C85.6327 233.827 86.0099 234.613 86.0099 235.501C86.0099 236.379 85.5706 237.159 84.692 237.841ZM81.6062 242.463C81.3619 242.463 81.139 242.386 80.9376 242.231C80.719 242.06 80.6097 241.848 80.6097 241.595C80.6097 241.304 80.6954 241.034 80.8669 240.785C81.0726 240.481 81.349 240.329 81.6962 240.329C81.9876 240.329 82.2148 240.438 82.3776 240.656C82.5062 240.836 82.5705 241.049 82.5705 241.293C82.5705 241.554 82.4998 241.799 82.3583 242.026C82.1783 242.317 81.9276 242.463 81.6062 242.463ZM95.7406 232.902H97.1362V234.271C97.1362 237.089 95.9908 239.841 93.6999 240.881L92.7124 239.498C94.7532 238.59 95.7406 236.339 95.7406 234.271V232.902ZM96.1356 232.902H97.518V234.271C97.518 236.246 98.4923 238.353 100.533 239.196L99.5851 240.578C97.2679 239.577 96.1356 236.984 96.1356 234.271V232.902ZM93.1996 232.152H100.033V233.587H93.1996V232.152ZM101.165 230.98H102.929V243.172H101.165V230.98ZM106.272 231.52H114.001V232.915H106.272V231.52ZM104.93 235.904H115.963V237.3H104.93V235.904ZM112.948 231.52H114.672V232.494C114.672 233.547 114.672 234.68 114.304 236.26L112.566 236.233C112.948 234.653 112.948 233.534 112.948 232.494V231.52ZM106.22 238.577H114.62V243.04H106.22V238.577ZM112.895 239.933H107.931V241.658H112.895V239.933ZM73.4802 260.013C73.3731 260.013 73.2059 259.996 72.9788 259.961C72.7559 259.923 72.5952 259.904 72.4966 259.904L70.6065 259.897C70.4437 259.897 70.1972 259.919 69.8672 259.961C69.5372 260 69.2886 260.019 69.1215 260.019C69.0744 260.019 69.0058 260.011 68.9158 259.994C68.8258 259.976 68.7572 259.968 68.7101 259.968C68.3243 259.968 68.0629 259.811 67.9257 259.499C67.84 259.301 67.7972 258.997 67.7972 258.586C67.7972 257.784 67.975 257.113 68.3308 256.573C68.605 256.158 69.0486 255.742 69.6615 255.326C70.2401 254.945 70.8165 254.566 71.3909 254.188C72.068 253.696 72.4066 253.136 72.4066 252.51C72.4066 252.348 72.2716 252.187 72.0016 252.028C71.7316 251.865 71.468 251.784 71.2108 251.784C70.7565 251.784 70.2744 251.988 69.7644 252.395C69.2586 252.798 68.9115 252.999 68.7229 252.999C68.4958 252.999 68.2965 252.943 68.125 252.832C67.9107 252.695 67.8036 252.504 67.8036 252.26C67.8036 251.998 67.9107 251.773 68.125 251.585C68.6436 251.126 69.0958 250.792 69.4815 250.582C70.0387 250.278 70.6151 250.125 71.2108 250.125C71.9523 250.125 72.6209 250.32 73.2166 250.71C73.8981 251.156 74.2388 251.739 74.2388 252.459C74.2388 253.188 74.0716 253.807 73.7374 254.317C73.4759 254.724 73.0623 255.121 72.4966 255.506C71.9609 255.845 71.4251 256.181 70.8894 256.516C70.0751 257.047 69.6379 257.653 69.5779 258.335C69.8137 258.305 70.1608 258.271 70.6194 258.232C71.5323 258.185 72.1859 258.161 72.5802 258.161C72.9488 258.161 73.3131 258.241 73.6731 258.399C74.1188 258.596 74.3417 258.849 74.3417 259.158C74.3417 259.381 74.2624 259.576 74.1038 259.743C73.9366 259.923 73.7288 260.013 73.4802 260.013ZM78.9639 260.251C77.5453 260.251 76.5167 259.638 75.8781 258.412C75.4067 257.503 75.171 256.331 75.171 254.896C75.171 253.67 75.4817 252.594 76.1031 251.668C76.8489 250.558 77.8689 250.003 79.1632 250.003C80.389 250.003 81.3404 250.498 82.0176 251.488C82.5876 252.324 82.8726 253.333 82.8726 254.516C82.8726 256.428 82.5469 257.861 81.8955 258.817C81.244 259.773 80.2668 260.251 78.9639 260.251ZM79.1568 251.675C78.4625 251.675 77.9053 252.02 77.4853 252.71C77.1167 253.31 76.9325 254.006 76.9325 254.799C76.9325 255.845 77.031 256.651 77.2282 257.216C77.5453 258.129 78.1239 258.586 78.9639 258.586C79.6668 258.586 80.194 258.266 80.5454 257.628C80.8969 256.985 81.0726 256.023 81.0726 254.741C81.0726 253.717 80.9119 252.95 80.5904 252.44C80.2733 251.93 79.7954 251.675 79.1568 251.675ZM86.9999 260.251C85.5813 260.251 84.5527 259.638 83.9141 258.412C83.4427 257.503 83.2069 256.331 83.2069 254.896C83.2069 253.67 83.5177 252.594 84.1391 251.668C84.8848 250.558 85.9049 250.003 87.1992 250.003C88.4249 250.003 89.3764 250.498 90.0536 251.488C90.6236 252.324 90.9086 253.333 90.9086 254.516C90.9086 256.428 90.5829 257.861 89.9314 258.817C89.28 259.773 88.3028 260.251 86.9999 260.251ZM87.1928 251.675C86.4985 251.675 85.9413 252.02 85.5213 252.71C85.1527 253.31 84.9684 254.006 84.9684 254.799C84.9684 255.845 85.067 256.651 85.2641 257.216C85.5813 258.129 86.1599 258.586 86.9999 258.586C87.7028 258.586 88.2299 258.266 88.5814 257.628C88.9328 256.985 89.1085 256.023 89.1085 254.741C89.1085 253.717 88.9478 252.95 88.6264 252.44C88.3092 251.93 87.8314 251.675 87.1928 251.675ZM95.0552 260.347C94.1037 260.347 93.3237 260.146 92.7151 259.743C92.0079 259.271 91.6479 258.584 91.635 257.679C91.6136 256.415 92.0293 255.508 92.8822 254.96C92.2608 254.467 91.9501 253.848 91.9501 253.102C91.9501 252.258 92.2715 251.557 92.9144 251C93.5272 250.468 94.2666 250.198 95.1323 250.19C96.1566 250.181 96.9238 250.453 97.4338 251.006C97.871 251.486 98.0895 252.142 98.0895 252.973C98.0895 253.441 98.006 253.816 97.8388 254.098C97.6888 254.351 97.4381 254.581 97.0866 254.786C97.6095 255.078 97.9845 255.416 98.2117 255.802C98.4731 256.231 98.6038 256.794 98.6038 257.493C98.6038 258.41 98.246 259.128 97.5302 259.646C96.8831 260.114 96.058 260.347 95.0552 260.347ZM95.113 251.771C94.1744 251.771 93.7094 252.213 93.718 253.096C93.7223 253.537 94.1273 253.861 94.933 254.066C95.383 253.942 95.6937 253.828 95.8652 253.726C96.1695 253.541 96.3216 253.291 96.3216 252.973C96.3216 252.493 96.2188 252.165 96.013 251.99C95.8416 251.844 95.5416 251.771 95.113 251.771ZM95.0166 255.667C94.3994 255.937 93.9923 256.175 93.7951 256.381C93.508 256.668 93.373 257.077 93.3901 257.608C93.403 258.024 93.6044 258.337 93.9944 258.547C94.2987 258.71 94.6523 258.791 95.0552 258.791C95.728 258.791 96.1909 258.65 96.4438 258.367C96.6409 258.144 96.7395 257.789 96.7395 257.3C96.7395 256.858 96.5659 256.501 96.2188 256.226C95.9573 256.021 95.5566 255.834 95.0166 255.667ZM108.123 248.98H109.874V257.946H108.123V248.98ZM105.174 250.336H108.716V251.705H105.174V250.336ZM101.817 259.566H110.151V260.961H101.817V259.566ZM101.817 257.143H103.581V260.276H101.817V257.143ZM100.342 249.757H102.08V255.484H100.342V249.757ZM100.342 254.957H101.316C103.081 254.957 104.647 254.878 106.385 254.576L106.543 255.984C104.753 256.313 103.146 256.379 101.316 256.379H100.342V254.957ZM105.174 252.601H108.716V253.983H105.174V252.601ZM70.7918 267.823C72.6483 267.823 73.9912 269.508 73.9912 272.167C73.9912 274.853 72.6483 276.539 70.7918 276.539C68.9354 276.539 67.5925 274.853 67.5925 272.167C67.5925 269.508 68.9354 267.823 70.7918 267.823ZM70.7918 269.416C69.8834 269.416 69.2777 270.377 69.2777 272.167C69.2777 273.984 69.8834 274.959 70.7918 274.959C71.7003 274.959 72.3191 273.984 72.3191 272.167C72.3191 270.377 71.7003 269.416 70.7918 269.416ZM75.321 266.98H77.0853V279.172H75.321V266.98ZM76.6903 271.575H78.8495V273.023H76.6903V271.575ZM88.0779 266.98H89.829V279.172H88.0779V266.98ZM80.2836 268.139H82.0215V275.709H80.2836V268.139ZM80.2836 274.682H81.3632C83.1406 274.682 85.1156 274.55 87.13 274.155L87.3275 275.604C85.2341 276.038 83.2196 276.17 81.3632 276.17H80.2836V274.682ZM95.0155 267.823C96.8719 267.823 98.2148 269.508 98.2148 272.167C98.2148 274.853 96.8719 276.539 95.0155 276.539C93.159 276.539 91.8161 274.853 91.8161 272.167C91.8161 269.508 93.159 267.823 95.0155 267.823ZM95.0155 269.416C94.107 269.416 93.5013 270.377 93.5013 272.167C93.5013 273.984 94.107 274.959 95.0155 274.959C95.9239 274.959 96.5427 273.984 96.5427 272.167C96.5427 270.377 95.9239 269.416 95.0155 269.416ZM100.835 269.811H102.981V271.259H100.835V269.811ZM100.835 273.392H102.981V274.827H100.835V273.392ZM99.5446 266.98H101.309V279.172H99.5446V266.98ZM108.916 273.841C108.886 273.862 108.532 274.111 107.855 274.586C107.422 274.886 107.092 275.163 106.865 275.416C106.659 275.643 106.432 275.756 106.183 275.756C105.939 275.756 105.725 275.668 105.54 275.493C105.356 275.313 105.264 275.107 105.264 274.876C105.264 274.533 105.54 274.149 106.093 273.725C106.603 273.365 107.113 273.003 107.623 272.638C108.176 272.218 108.453 271.839 108.453 271.501C108.453 271.102 108.249 270.729 107.842 270.382C107.439 270.03 107.019 269.855 106.582 269.855C106.351 269.855 106.033 269.988 105.63 270.253C105.228 270.515 104.943 270.645 104.775 270.645C104.523 270.645 104.308 270.553 104.133 270.369C103.961 270.18 103.875 269.973 103.875 269.745C103.875 269.317 104.25 268.925 105 268.569C105.635 268.265 106.162 268.113 106.582 268.113C107.512 268.113 108.352 268.455 109.102 269.141C109.856 269.827 110.233 270.613 110.233 271.501C110.233 272.379 109.794 273.159 108.916 273.841ZM105.83 278.463C105.585 278.463 105.363 278.386 105.161 278.231C104.943 278.06 104.833 277.848 104.833 277.595C104.833 277.304 104.919 277.034 105.09 276.785C105.296 276.481 105.573 276.329 105.92 276.329C106.211 276.329 106.438 276.438 106.601 276.656C106.73 276.836 106.794 277.049 106.794 277.293C106.794 277.554 106.723 277.799 106.582 278.026C106.402 278.317 106.151 278.463 105.83 278.463Z" fill="black"/>
<defs>
<filter id="filter0_d_186_3498" x="255.389" y="150.315" width="130.983" height="104.142" filterUnits="userSpaceOnUse" color-interpolation-filters="sRGB">
<feFlood flood-opacity="0" result="BackgroundImageFix"/>
<feColorMatrix in="SourceAlpha" type="matrix" values="0 0 0 0 0 0 0 0 0 0 0 0 0 0 0 0 0 0 127 0" result="hardAlpha"/>
<feOffset dy="2.92581"/>
<feGaussianBlur stdDeviation="1.4629"/>
<feComposite in2="hardAlpha" operator="out"/>
<feColorMatrix type="matrix" values="0 0 0 0 0 0 0 0 0 0 0 0 0 0 0 0 0 0 0.25 0"/>
<feBlend mode="normal" in2="BackgroundImageFix" result="effect1_dropShadow_186_3498"/>
<feBlend mode="normal" in="SourceGraphic" in2="effect1_dropShadow_186_3498" result="shape"/>
</filter>
<filter id="filter1_d_186_3498" x="40.3291" y="211.532" width="103.216" height="81.0026" filterUnits="userSpaceOnUse" color-interpolation-filters="sRGB">
<feFlood flood-opacity="0" result="BackgroundImageFix"/>
<feColorMatrix in="SourceAlpha" type="matrix" values="0 0 0 0 0 0 0 0 0 0 0 0 0 0 0 0 0 0 127 0" result="hardAlpha"/>
<feOffset dy="2.92581"/>
<feGaussianBlur stdDeviation="1.4629"/>
<feComposite in2="hardAlpha" operator="out"/>
<feColorMatrix type="matrix" values="0 0 0 0 0 0 0 0 0 0 0 0 0 0 0 0 0 0 0.25 0"/>
<feBlend mode="normal" in2="BackgroundImageFix" result="effect1_dropShadow_186_3498"/>
<feBlend mode="normal" in="SourceGraphic" in2="effect1_dropShadow_186_3498" result="shape"/>
</filter>
<radialGradient id="paint0_radial_186_3498" cx="0" cy="0" r="1" gradientUnits="userSpaceOnUse" gradientTransform="translate(195.5 196.217) rotate(90) scale(167.484)">
<stop stop-color="#00C2FF"/>
<stop offset="1" stop-color="#5B8CDC" stop-opacity="0"/>
</radialGradient>
<clipPath id="clip0_186_3498">
<rect width="168" height="328" fill="white" transform="translate(119 53)"/>
</clipPath>
</defs>
</svg>
