<svg width="119" height="110" viewBox="0 0 119 110" fill="none" xmlns="http://www.w3.org/2000/svg">
<g clip-path="url(#clip0_186_2195)">
<path d="M99.8195 70.5453C99.8195 70.5453 102.62 81.4484 102.563 86.0799C102.505 90.7114 104.193 103.248 104.495 108.103C104.797 112.966 105.924 117.323 102.211 121.99C98.498 126.658 93.8226 123.305 93.8226 123.305L93.6718 114.786L87.5815 71.8748L99.8123 70.5453H99.8195Z" fill="white"/>
<path d="M97.5715 124.938C95.3379 124.938 93.5856 123.717 93.5568 123.695C93.4347 123.609 93.3629 123.471 93.3629 123.32L93.2121 114.801L87.129 71.9469C87.1147 71.8241 87.1434 71.694 87.2224 71.5929C87.3014 71.4917 87.4163 71.4267 87.5384 71.4122L99.7692 70.0827C99.999 70.0538 100.214 70.2056 100.272 70.4296C100.387 70.8775 103.087 81.4411 103.03 86.087C102.994 88.9122 103.619 94.772 104.172 99.9382C104.516 103.161 104.84 106.203 104.962 108.081C105.005 108.811 105.069 109.526 105.134 110.234C105.5 114.324 105.845 118.182 102.577 122.294C100.954 124.338 99.1372 124.945 97.5715 124.945V124.938ZM94.2894 123.052C95.1728 123.594 98.8283 125.494 101.852 121.701C104.89 117.886 104.574 114.375 104.208 110.314C104.143 109.599 104.078 108.876 104.035 108.139C103.92 106.282 103.597 103.247 103.252 100.039C102.699 94.8442 102.067 88.9555 102.103 86.0798C102.154 82.0553 99.9703 73.0524 99.4747 71.0654L88.1273 72.301L94.1529 114.736L94.3037 123.067L94.2894 123.052Z" fill="#333333"/>
<path d="M92.559 29.8371C92.0922 34.6998 89.0543 38.392 85.7722 38.0741C82.49 37.7562 80.199 33.5582 80.6659 28.6883C81.1327 23.8256 84.1706 20.1334 87.4527 20.4513C90.7348 20.7693 93.0259 24.9672 92.559 29.8371Z" fill="white"/>
<path d="M86.1594 38.5655C86.0158 38.5655 85.8722 38.5655 85.7285 38.5438C82.195 38.2042 79.7101 33.7606 80.1985 28.645C80.6868 23.5294 83.9546 19.6421 87.4953 19.9889C91.0288 20.3285 93.5137 24.7721 93.0253 29.8877C92.5585 34.7938 89.5277 38.5655 86.1594 38.5655ZM87.05 20.9066C84.1629 20.9066 81.5415 24.3169 81.1249 28.7389C80.6868 33.3415 82.7911 37.3155 85.8147 37.6117C88.8383 37.9079 91.6536 34.3964 92.0917 29.801C92.5298 25.1984 90.4255 21.2245 87.4019 20.9282C87.287 20.9138 87.1649 20.9138 87.05 20.9138V20.9066Z" fill="#333333"/>
<path d="M90.2749 29.6205C89.808 34.4832 86.7701 38.1754 83.488 37.8574C80.2059 37.5395 77.9148 33.3416 78.3817 28.4716C78.8485 23.6089 81.8864 19.9167 85.1686 20.2347C88.4507 20.5526 90.7417 24.7505 90.2749 29.6205Z" fill="#333333"/>
<path d="M83.8757 38.3415C83.7321 38.3415 83.5885 38.3415 83.4448 38.3199C79.9113 37.9803 77.4264 33.5366 77.9148 28.421C78.1446 25.9716 79.0136 23.7318 80.3566 22.106C81.7427 20.4297 83.4664 19.5988 85.2116 19.765C86.9568 19.9312 88.4937 21.08 89.5351 22.9948C90.5477 24.8517 90.9715 27.2144 90.7416 29.6638C90.2748 34.5699 87.2441 38.3415 83.8757 38.3415ZM84.7735 20.6826C83.4592 20.6826 82.1593 21.3907 81.0748 22.7057C79.8539 24.187 79.0567 26.2534 78.8412 28.515C78.4032 33.1176 80.5074 37.0915 83.531 37.3878C86.5546 37.6768 89.3699 34.1725 89.808 29.5771C90.0234 27.3156 89.6356 25.1407 88.7163 23.45C87.8258 21.817 86.5546 20.8416 85.1182 20.7043C85.0033 20.6899 84.8812 20.6899 84.7663 20.6899L84.7735 20.6826Z" fill="#333333"/>
<path d="M65.3537 51.1811C65.3537 51.1811 67.8602 48.0886 68.0613 41.9254L71.681 40.1985L76.8016 42.3806C76.8735 44.317 77.9292 50.8487 77.9292 50.8487L77.843 55.0901L67.4149 55.632L65.3394 51.1811H65.3537Z" fill="white"/>
<path d="M67.4293 56.1016C67.2498 56.1016 67.0846 56.0005 67.0056 55.8343L64.93 51.3834C64.8582 51.2173 64.8798 51.0294 64.9875 50.8849C65.009 50.856 67.3934 47.8213 67.5945 41.9109C67.5945 41.7375 67.7022 41.5786 67.8602 41.4991L71.4799 39.7722C71.602 39.7144 71.7385 39.7144 71.8606 39.765L76.9812 41.9471C77.1464 42.0193 77.2613 42.1783 77.2685 42.3589C77.3403 44.2447 78.3817 50.7043 78.3889 50.7693C78.3889 50.7982 78.3889 50.8271 78.3889 50.856L78.3027 55.0973C78.3027 55.343 78.1016 55.5453 77.8574 55.5597L67.4293 56.1016C67.4293 56.1016 67.415 56.1016 67.4078 56.1016H67.4293ZM65.8996 51.2317L67.7238 55.1407L77.405 54.6421L77.4768 50.8777C77.3834 50.2924 76.5072 44.8444 76.3636 42.6913L71.7026 40.7043L68.5282 42.2216C68.2983 47.4022 66.4885 50.3936 65.9068 51.2317H65.8996Z" fill="#333333"/>
<path d="M61.0155 30.921C61.0155 30.921 62.1933 40.3719 71.0414 42.7346C78.3166 44.671 81.5198 39.7722 82.2236 36.8314C82.712 34.8011 83.897 27.33 84.0837 26.7014L81.7783 22.0338L70.7541 18.7462L63.8308 21.8459L61.0801 27.5106L61.0083 30.921" fill="white"/>
<path d="M74.2017 43.645C73.1675 43.645 72.0759 43.4933 70.9268 43.1826C61.8776 40.7693 60.5705 31.0728 60.5562 30.9716C60.5562 30.9499 60.5562 30.9283 60.5562 30.9066L60.628 27.4962C60.628 27.4312 60.6423 27.3589 60.6782 27.3011L63.4289 21.6364C63.4792 21.5352 63.5582 21.4558 63.6587 21.4124L70.5821 18.3127C70.6826 18.2693 70.7975 18.2621 70.9052 18.291L81.9294 21.5786C82.0515 21.6147 82.1593 21.7014 82.2167 21.817L84.5221 26.4846C84.5724 26.593 84.5867 26.7159 84.5508 26.8315C84.479 27.0771 84.1774 28.7968 83.8901 30.4586C83.4592 32.9514 82.9708 35.7693 82.6907 36.9326C82.4896 37.7852 81.5919 40.7115 78.6904 42.4456C77.3689 43.2404 75.8679 43.6378 74.2089 43.6378L74.2017 43.645ZM61.4826 30.8921C61.5688 31.4774 62.9764 40.0973 71.1638 42.2794C73.9145 43.0164 76.2845 42.7996 78.202 41.6508C80.2561 40.4152 81.3908 38.2982 81.7714 36.7231C82.0443 35.5887 82.5471 32.6624 82.9564 30.3069C83.2796 28.4355 83.4879 27.2505 83.5956 26.7592L81.4554 22.4312L70.7975 19.252L64.183 22.2144L61.5544 27.6335L61.4898 30.8994L61.4826 30.8921Z" fill="#333333"/>
<path d="M61.9136 32.2C61.9136 32.2 68.5784 31.0078 69.3253 33.6884C70.0722 36.3691 63.4361 36.3763 63.4361 36.3763C63.4361 36.3763 62.0716 33.5728 61.9136 32.2Z" fill="#D8D0CA"/>
<path d="M61.0805 27.5106C61.0805 27.5106 67.3647 27.4095 68.7077 26.7664L69.8353 23.0092L70.2087 27.171C70.2087 27.171 75.9973 28.2476 78.6905 26.8315L79.5954 25.3719L80.0982 26.8387C80.0982 26.8387 82.4826 27.1132 84.3929 26.0945C85.0249 25.7549 85.7072 25.7043 85.6641 23.5078C85.621 21.4485 86.9928 15.278 83.4808 11.4413C80.1197 7.76359 74.9416 7.01214 73.4908 7.38787C72.0473 7.76359 71.918 7.74914 72.945 6.43411C73.9648 5.11186 74.5753 4.14366 73.6345 4.56995C72.6936 4.99625 71.7169 7.22168 71.7169 7.22168C71.7169 7.22168 70.6324 5.18411 70.6827 5.96446C70.733 6.7448 71.0418 7.54682 71.0418 7.54682C71.0418 7.54682 68.2481 6.22457 63.7809 9.16532C61.3894 10.7405 59.3569 13.2477 58.2437 16.8748C57.1305 20.502 57.4609 21.0511 57.4609 21.0511C57.4609 21.0511 60.6353 22.713 61.0734 27.5179L61.0805 27.5106Z" fill="#333333"/>
<path d="M74.5538 28.0309C72.3202 28.0309 70.2662 27.6552 70.1225 27.6335C69.9143 27.5974 69.7634 27.424 69.7419 27.2144L69.5839 25.4731L69.153 26.911C69.1171 27.041 69.0237 27.1422 68.9088 27.2C67.5155 27.8647 61.7413 27.9803 61.0877 27.9875C60.8579 28.002 60.6353 27.8069 60.6137 27.5612C60.2043 23.0887 57.3747 21.528 57.2526 21.463C57.1808 21.4269 57.1161 21.3618 57.073 21.2896C56.7858 20.8199 57.0515 19.2014 57.8056 16.7303C58.8613 13.291 60.8435 10.5309 63.5367 8.76071C66.7399 6.65089 69.1458 6.64367 70.3667 6.86043C70.3021 6.59309 70.2518 6.28962 70.2303 5.99338C70.1943 5.50928 70.4816 5.37199 70.6109 5.33587C70.891 5.25639 71.128 5.28529 71.7025 6.22459C72.1047 5.48037 72.7583 4.46159 73.4549 4.14367C73.6273 4.06419 74.1516 3.82575 74.4532 4.22315C74.7692 4.635 74.5322 5.16968 73.3185 6.73037C73.2682 6.78817 73.1892 6.89655 73.103 7.01216C73.2036 6.98326 73.3041 6.96158 73.3831 6.93991C74.8482 6.55696 80.2921 7.26505 83.8327 11.1306C86.8132 14.3893 86.4398 19.1509 86.2171 21.9904C86.1669 22.6046 86.1238 23.1393 86.1309 23.5006C86.174 25.5887 85.5851 26.0439 84.8023 26.4124C84.7377 26.4413 84.673 26.4774 84.6084 26.5063C82.5903 27.5829 80.1413 27.3156 80.0407 27.3011C79.8612 27.2794 79.7103 27.1566 79.6529 26.9904L79.4733 26.4558L79.0855 27.0771C79.0424 27.1494 78.9778 27.2072 78.906 27.2433C77.7569 27.8503 76.105 28.0309 74.5538 28.0309ZM70.6396 26.7592C71.8893 26.9543 76.1697 27.5179 78.3673 26.463L79.2076 25.119C79.301 24.9673 79.4805 24.8806 79.6529 24.9023C79.8324 24.924 79.9833 25.0468 80.0407 25.213L80.4429 26.3835C81.1036 26.4124 82.7986 26.4052 84.1775 25.6682C84.2565 25.6248 84.3283 25.5887 84.4073 25.5526C84.8885 25.3214 85.2332 25.1552 85.1973 23.5078C85.1901 23.0959 85.2332 22.5396 85.2835 21.9037C85.4918 19.2159 85.8509 14.7145 83.1433 11.752C79.8324 8.13933 74.7764 7.53239 73.6129 7.83586C72.6865 8.0743 72.1765 8.21158 71.9036 7.79251C71.8749 7.74915 71.8534 7.7058 71.839 7.66245C71.8031 7.66967 71.7744 7.6769 71.7385 7.6769C71.6523 7.6769 71.5733 7.66245 71.5086 7.62632C71.4871 7.72025 71.444 7.80696 71.3722 7.87199C71.2357 8.00204 71.0274 8.03817 70.8551 7.95147C70.8335 7.94424 68.205 6.80262 64.0467 9.54106C61.5402 11.1885 59.6944 13.7679 58.6962 16.9977C57.9349 19.4688 57.8774 20.4298 57.8918 20.7404C58.6172 21.1957 60.98 22.9876 61.4971 27.0266C63.8456 26.976 67.2139 26.7737 68.3271 26.4052L69.39 22.8647C69.4546 22.648 69.6629 22.5107 69.8855 22.5324C70.1082 22.554 70.2805 22.7347 70.3021 22.9587L70.6396 26.7592Z" fill="#333333"/>
<path d="M62.2506 30.7114C61.7694 35.7475 58.5448 39.5625 55.0544 39.223C51.5568 38.8834 49.115 34.5264 49.5961 29.4903C50.0773 24.4542 53.302 20.6392 56.7924 20.9788C60.29 21.3184 62.7318 25.6753 62.2506 30.7114Z" fill="white"/>
<path d="M55.4712 39.7144C55.3132 39.7144 55.1624 39.7071 55.0044 39.6927C53.1586 39.5121 51.5283 38.3271 50.4223 36.3545C49.345 34.4326 48.8854 31.9832 49.1224 29.447C49.6251 24.158 53.094 20.1552 56.8286 20.5092C58.6743 20.6898 60.3046 21.8748 61.4106 23.8474C62.4879 25.7693 62.9475 28.2187 62.7105 30.7548C62.2293 35.8199 59.0334 39.7144 55.4712 39.7144ZM56.3545 21.4268C53.2735 21.4268 50.4869 24.9528 50.056 29.5338C49.8334 31.8748 50.2499 34.1363 51.2339 35.8921C52.1891 37.5901 53.5608 38.6089 55.0905 38.7606C58.3367 39.0713 61.3244 35.4441 61.7769 30.6681C61.9995 28.3271 61.583 26.0656 60.599 24.3098C59.6439 22.6118 58.2721 21.593 56.7424 21.4413C56.6131 21.4268 56.4838 21.4196 56.3545 21.4196V21.4268Z" fill="#333333"/>
<path d="M59.6945 30.4008C59.2133 35.4369 55.9886 39.2519 52.4982 38.9123C49.0006 38.5727 46.5588 34.2158 47.04 29.1797C47.5212 24.1435 50.7458 20.3285 54.2362 20.6681C57.7338 21.0077 60.1757 25.3646 59.6945 30.4008Z" fill="#333333"/>
<path d="M52.9219 39.4037C52.7639 39.4037 52.6059 39.3964 52.455 39.382C50.6093 39.2014 48.979 38.0164 47.873 36.0439C46.7957 34.1219 46.3361 31.6725 46.5731 29.1364C47.0758 23.8474 50.5303 19.8372 54.2792 20.1985C56.125 20.3792 57.7553 21.5641 58.8613 23.5367C59.9386 25.4586 60.3982 27.908 60.1612 30.4442C59.68 35.5092 56.4841 39.4037 52.9219 39.4037ZM53.798 21.1161C50.717 21.1161 47.9304 24.6421 47.4995 29.2231C47.2769 31.5641 47.6934 33.8257 48.6774 35.5814C49.6326 37.2794 51.0043 38.2982 52.534 38.4499C55.7731 38.7606 58.7679 35.1334 59.2204 30.3575C59.443 28.0164 59.0265 25.7549 58.0425 23.9991C57.0874 22.2939 55.7156 21.2823 54.1859 21.1306C54.0566 21.1161 53.9273 21.1089 53.798 21.1089V21.1161Z" fill="#333333"/>
<path d="M75.243 22.5468C75.243 22.5468 75.1999 22.5468 75.1784 22.5468C74.9199 22.5106 74.7475 22.2722 74.7834 22.0193C75.0707 19.9456 74.611 18.1465 74.6039 18.1248C74.5392 17.8719 74.69 17.619 74.9342 17.554C75.1856 17.489 75.437 17.6407 75.5016 17.8864C75.5231 17.9659 76.0115 19.8878 75.7027 22.1494C75.6668 22.3806 75.4729 22.554 75.243 22.554V22.5468Z" fill="#333333"/>
<path d="M82.7553 31.5641C82.7553 31.5641 80.2201 31.2534 79.0926 32.5468C77.9578 33.8401 80.0693 35.6031 81.9725 35.7404L82.7553 31.5641Z" fill="#D8D0CA"/>
<path d="M74.7405 38.6378C73.3975 38.6378 72.4136 37.9514 72.3705 37.9225C72.1622 37.7707 72.1119 37.4817 72.2556 37.265C72.4064 37.0554 72.6936 37.0048 72.9019 37.1494C72.9235 37.1638 73.7925 37.7491 74.9057 37.6913C75.1714 37.6768 75.3869 37.8719 75.4012 38.132C75.4156 38.3921 75.2217 38.6161 74.9631 38.6306C74.8841 38.6306 74.8123 38.6306 74.7405 38.6306V38.6378Z" fill="#333333"/>
<path d="M77.434 177.395C77.434 177.395 76.5507 184.656 77.0606 188.377C77.5705 192.098 78.4539 195.949 78.2671 197.864C78.0876 199.779 77.7788 199.945 77.549 201.368C77.3191 202.799 77.5059 204.844 77.513 205.812C77.513 206.78 77.9583 208.175 79.5671 208.428C81.1758 208.681 88.6952 207.373 89.3129 206.954C89.9305 206.527 91.1371 201.91 90.8785 200.631C90.62 199.353 90.067 199.107 91.0509 197.842C92.0348 196.585 93.2486 192.929 93.2486 192.929C93.2486 192.929 98.8073 200.133 99.6548 200.314C100.502 200.494 108.489 197.301 108.474 192.467C108.474 192.467 105.709 187.178 104.28 185.104C102.844 183.03 99.3172 178.731 97.9742 176.665C96.6312 174.606 97.1627 172.048 96.7892 170.942C96.4158 169.844 98.3692 164.425 98.5129 161.925C98.6565 159.425 97.8737 157.517 99.5758 153.811C101.271 150.111 100.337 135.718 101.077 129.989C101.817 124.259 102.226 121.983 102.226 121.983C102.226 121.983 96.8682 119.729 96.6169 114.288C96.6169 114.288 98.4698 110.986 98.2328 109.418L96.4589 107.893L55.9458 111.716C55.9458 111.716 55.8309 120.979 55.4862 124.62C55.1415 128.262 63.6951 155.372 65.9861 161.585C68.2771 167.799 72.0692 174.345 77.4484 177.38L77.434 177.395Z" fill="#333333"/>
<path d="M80.0694 208.926C79.8324 208.926 79.6385 208.919 79.4948 208.89C77.6922 208.608 77.0458 207.055 77.0458 205.812C77.0458 205.567 77.0314 205.241 77.0171 204.88C76.974 203.832 76.9093 202.395 77.0889 201.296C77.1894 200.682 77.3043 200.292 77.4121 199.916C77.5629 199.396 77.6994 198.905 77.8071 197.821C77.922 196.585 77.5557 194.36 77.1607 192.012C76.9668 190.848 76.7657 189.642 76.6005 188.442C76.1409 185.097 76.7729 179.1 76.9381 177.655C70.776 174.013 67.1563 166.166 65.5404 161.766C63.3499 155.82 54.6527 128.363 55.0118 124.599C55.3493 121.022 55.4714 111.824 55.4714 111.73C55.4714 111.492 55.6581 111.289 55.8952 111.268L96.4082 107.445C96.5303 107.431 96.6595 107.474 96.7529 107.554L98.5268 109.078C98.613 109.151 98.6705 109.252 98.6848 109.367C98.9146 110.921 97.4567 113.731 97.0833 114.418C97.3993 119.403 102.348 121.549 102.398 121.564C102.599 121.651 102.714 121.867 102.678 122.077C102.678 122.099 102.261 124.418 101.536 130.061C101.249 132.272 101.22 135.798 101.184 139.533C101.127 145.502 101.069 151.672 99.9919 154.013C98.7997 156.607 98.8715 158.24 98.9505 159.96C98.9793 160.596 99.008 161.253 98.9721 161.954C98.9003 163.161 98.4406 164.96 98.0025 166.694C97.586 168.312 97.0689 170.328 97.2269 170.783C97.3777 171.217 97.3993 171.795 97.428 172.46C97.4783 173.659 97.5429 175.14 98.3616 176.398C99.0942 177.525 100.495 179.338 101.852 181.094C102.965 182.532 104.014 183.89 104.66 184.822C106.097 186.896 108.775 192.019 108.89 192.236C108.926 192.301 108.941 192.373 108.941 192.452C108.948 194.273 107.906 196.087 105.931 197.712C103.662 199.577 100.358 200.942 99.561 200.762C98.7495 200.588 95.5607 196.65 93.4061 193.883C92.9824 195.061 92.1565 197.178 91.4167 198.117C90.835 198.861 90.8997 199.042 91.1007 199.663C91.1726 199.887 91.2659 200.169 91.3377 200.523C91.6035 201.817 90.4472 206.73 89.5782 207.33C88.8744 207.814 82.4538 208.912 80.0766 208.912L80.0694 208.926ZM56.3979 112.156C56.3692 114.013 56.2399 121.506 55.9382 124.678C55.6151 128.088 63.9245 154.685 66.4094 161.434C68.011 165.776 71.5948 173.565 77.6634 176.983C77.8286 177.077 77.922 177.257 77.9004 177.452C77.8933 177.525 77.0314 184.692 77.527 188.312C77.6922 189.497 77.8861 190.697 78.08 191.853C78.5037 194.374 78.8628 196.549 78.7335 197.908C78.6186 199.078 78.4606 199.634 78.3098 200.176C78.2021 200.545 78.1015 200.892 78.0154 201.448C77.8502 202.452 77.9076 203.832 77.9507 204.844C77.9651 205.22 77.9794 205.552 77.9794 205.812C77.9794 206.26 78.1087 207.727 79.6385 207.965C81.1395 208.204 88.3932 206.939 89.0611 206.564C89.492 206.145 90.6627 201.896 90.4257 200.725C90.3682 200.429 90.282 200.184 90.2174 199.974C89.9588 199.179 89.8367 198.637 90.6842 197.554C91.6107 196.376 92.7957 192.821 92.8029 192.785C92.8603 192.619 92.9968 192.503 93.1691 192.474C93.3415 192.445 93.5139 192.51 93.6144 192.647C96.1927 195.993 99.2091 199.606 99.7836 199.866C100.243 199.895 103.612 198.673 105.953 196.455C107.282 195.198 107.971 193.89 108 192.582C107.605 191.831 105.177 187.236 103.884 185.371C103.252 184.454 102.211 183.11 101.105 181.679C99.7406 179.909 98.3257 178.081 97.5716 176.925C96.6164 175.451 96.5446 173.753 96.4872 172.51C96.4584 171.918 96.4369 171.405 96.3363 171.101C96.0993 170.415 96.4728 168.898 97.0904 166.47C97.5214 164.779 97.9738 163.023 98.0384 161.911C98.0744 161.26 98.0456 160.653 98.0169 160.017C97.9379 158.254 97.8517 156.434 99.1373 153.63C100.128 151.47 100.186 145.126 100.243 139.533C100.279 135.769 100.308 132.214 100.602 129.945C101.177 125.516 101.55 123.117 101.694 122.272C100.466 121.658 96.3651 119.244 96.1424 114.324C96.1424 114.237 96.1568 114.151 96.1999 114.071C96.6739 113.233 97.823 110.885 97.7799 109.664L96.3004 108.392L56.3979 112.156Z" fill="#333333"/>
<path d="M64.4341 48.7751C64.4341 48.7751 66.9263 52.8792 72.0972 52.9948C77.2754 53.1104 79.7316 49.476 79.7316 49.476C79.7316 49.476 102.369 47.7925 108.272 72.5251C108.272 72.5251 108.251 72.7129 107.095 72.7996C105.931 72.8791 94.8279 70.4586 89.7718 75.184C89.7718 75.184 92.939 86.3112 94.5837 93.2331C96.2283 100.155 98.0525 109.223 98.2249 109.432C98.3973 109.642 96.846 111.81 93.2335 113.399C89.621 114.982 87.9907 115.986 83.5739 115.95C79.157 115.914 78.0725 115.227 74.496 116.427C70.9266 117.626 56.2037 114.852 55.2844 114.382C54.3651 113.912 54.279 114.866 53.9055 112.706C53.532 110.545 50.0201 93.0019 50.135 87.7924C50.2499 82.5828 49.029 77.2505 49.029 77.2505C49.029 77.2505 37.8396 77.7201 34.6868 74.5121C34.6868 74.5121 34.2415 73.1176 34.5791 71.6002C34.9166 70.0829 39.671 60.4948 42.1128 57.0555C44.5547 53.6162 56.0457 47.9659 64.4198 48.7679L64.4341 48.7751Z" fill="white"/>
<path d="M71.7671 117.178C66.0934 117.178 55.8376 115.184 55.0836 114.794C54.8896 114.693 54.7604 114.685 54.6311 114.678C53.8483 114.642 53.6974 114.158 53.4604 112.778C53.403 112.438 53.2665 111.723 53.0798 110.733C52.0313 105.191 49.5822 92.2143 49.6828 87.7779C49.7761 83.4715 48.9359 79.0279 48.6701 77.7273C46.6089 77.7779 37.3299 77.8429 34.371 74.8372C34.3207 74.7866 34.2776 74.7216 34.2561 74.6493C34.2345 74.5843 33.7749 73.1175 34.1412 71.4918C34.5075 69.8516 39.305 60.2201 41.754 56.7808C44.4256 53.0164 56.1537 47.4962 64.4846 48.3054C64.6283 48.3199 64.7647 48.3994 64.8365 48.5294C64.8581 48.5656 67.2712 52.4167 72.1118 52.5251C76.938 52.6407 79.2578 49.3531 79.3511 49.2158C79.4301 49.1002 79.5594 49.0208 79.703 49.0135C79.9329 48.9991 102.807 47.5901 108.732 72.4166C108.747 72.4672 108.747 72.5178 108.747 72.5684C108.703 73.0525 108.071 73.197 107.138 73.262C106.908 73.2765 106.506 73.2331 105.687 73.132C102.585 72.7562 94.4331 71.7736 90.3107 75.3357C90.8134 77.1204 93.5641 86.8819 95.0436 93.1247C95.8982 96.7229 96.7816 100.82 97.4998 104.107C98.0312 106.557 98.5268 108.869 98.6489 109.208C98.6991 109.302 98.7422 109.44 98.6991 109.635C98.5339 110.343 96.76 112.366 93.4348 113.825C93.0111 114.013 92.6161 114.187 92.2426 114.36C89.4417 115.617 87.5888 116.441 83.5885 116.412C82.2598 116.398 81.2472 116.333 80.3494 116.268C78.3169 116.13 77.0888 116.044 74.6685 116.86C74.015 117.084 73.0024 117.171 71.7814 117.171L71.7671 117.178ZM54.6383 113.739C54.6383 113.739 54.6598 113.739 54.6742 113.739C54.8609 113.746 55.141 113.76 55.5145 113.956C56.4337 114.404 70.9412 117.12 74.3597 115.971C76.9596 115.097 78.3241 115.191 80.3997 115.328C81.2831 115.386 82.2813 115.458 83.5813 115.466C87.3805 115.509 89.061 114.743 91.8476 113.493C92.2283 113.327 92.6233 113.146 93.047 112.958C96.0203 111.658 97.4926 109.974 97.7439 109.483C97.6219 109.1 97.3777 107.995 96.5733 104.302C95.8623 101.015 94.9789 96.9252 94.1243 93.3414C92.5012 86.5062 89.3483 75.4224 89.3196 75.3068C89.2693 75.1334 89.3196 74.9528 89.4489 74.8372C93.8155 70.762 102.197 71.7664 105.78 72.1999C106.362 72.2721 106.908 72.3299 107.059 72.3227C107.375 72.301 107.583 72.2721 107.72 72.2432C105.263 62.3661 99.8554 55.6103 91.6393 52.171C86.0877 49.8445 81.0389 49.895 79.9688 49.9312C79.3583 50.7187 76.8159 53.5655 72.0831 53.4572C67.3215 53.356 64.7575 50.0829 64.1615 49.2158C55.9167 48.5367 44.7704 54.1291 42.5009 57.3228C39.9872 60.8632 35.3406 70.3429 35.0461 71.6941C34.7947 72.8429 35.0245 73.9195 35.1107 74.2519C38.1989 77.1854 48.9071 76.7736 49.0149 76.7663C49.2303 76.7519 49.4386 76.9109 49.4889 77.1276C49.5032 77.1782 50.7241 82.5828 50.6092 87.7851C50.5159 92.1276 53.0439 105.509 53.9919 110.545C54.1786 111.542 54.3151 112.265 54.3725 112.604C54.4946 113.32 54.5808 113.616 54.6311 113.724L54.6383 113.739Z" fill="#333333"/>
<mask id="mask0_186_2195" style="mask-type:luminance" maskUnits="userSpaceOnUse" x="34" y="48" width="75" height="69">
<path d="M64.4341 48.775C64.4341 48.775 66.9263 52.879 72.0972 52.9947C77.2754 53.1103 79.7316 49.4759 79.7316 49.4759C79.7316 49.4759 102.369 47.7924 108.272 72.5249C108.272 72.5249 108.251 72.7128 107.095 72.7995C105.931 72.879 94.8279 70.4585 89.7718 75.1839C89.7718 75.1839 92.939 86.311 94.5837 93.233C96.2283 100.155 98.0525 109.223 98.2249 109.432C98.3973 109.642 96.846 111.81 93.2335 113.399C89.621 114.981 87.9907 115.986 83.5739 115.95C79.157 115.914 78.0725 115.227 74.496 116.427C70.9266 117.626 56.2037 114.851 55.2844 114.382C54.3651 113.912 54.279 114.866 53.9055 112.705C53.532 110.545 50.0201 93.0018 50.135 87.7922C50.2499 82.5827 49.029 77.2504 49.029 77.2504C49.029 77.2504 37.8396 77.72 34.6868 74.5119C34.6868 74.5119 34.2415 73.1174 34.5791 71.6001C34.9166 70.0828 39.671 60.4946 42.1128 57.0553C44.5547 53.616 56.0457 47.9658 64.4198 48.7678L64.4341 48.775Z" fill="white"/>
</mask>
<g mask="url(#mask0_186_2195)">
<path d="M62.7463 105.473C56.3616 104.859 49.9769 101.672 49.6753 101.521C49.2444 101.304 49.0648 100.769 49.2803 100.336C49.4957 99.8949 50.0272 99.7215 50.4581 99.9382C50.5371 99.9816 58.4156 103.905 65.0445 103.804C66.0643 103.789 66.9908 103.775 67.8526 103.768C72.8871 103.703 75.408 103.674 79.0061 103.052C81.3617 102.648 85.7642 102.987 90.0231 103.327C93.6284 103.609 97.363 103.905 98.9286 103.623C99.4098 103.536 99.8623 103.862 99.9485 104.339C100.035 104.823 99.7115 105.278 99.2374 105.365C97.4492 105.682 93.7792 105.393 89.8866 105.09C85.9294 104.779 81.4479 104.425 79.3077 104.794C75.5731 105.444 72.8368 105.473 67.8742 105.538C67.0195 105.545 66.0859 105.56 65.0732 105.574C64.3048 105.589 63.5219 105.552 62.7463 105.473Z" fill="#F59B31"/>
<path d="M67.6158 96.4122C67.192 96.3689 66.7037 96.3038 66.1076 96.2244C64.7143 96.0365 62.8183 95.7836 60.1897 95.6391C55.4138 95.3718 48.9644 94.194 48.6987 94.1434C48.2175 94.0567 47.9015 93.5943 47.9949 93.1102C48.0811 92.6261 48.5479 92.3154 49.0219 92.4021C49.0865 92.4166 55.6364 93.6088 60.2974 93.8761C62.9835 94.0278 64.9298 94.288 66.3446 94.4758C67.386 94.6131 68.1329 94.7142 68.5638 94.6853C68.7936 94.6709 69.0952 94.4397 69.4112 94.194C70.0145 93.7316 70.9266 93.0307 72.1404 93.5076C72.5425 93.6666 72.7939 93.8761 72.9519 94.0856C73.4403 93.9556 74.2231 93.7099 74.6181 93.5871C78.482 92.3732 84.0336 91.7302 89.4702 91.8602C94.318 91.9758 95.4456 91.5929 95.4887 91.5712C95.9268 91.3617 96.4295 91.5567 96.6378 91.9975C96.846 92.4382 96.6378 92.9801 96.1997 93.1897C95.9196 93.327 94.5981 93.7533 89.4272 93.6232C84.17 93.4932 78.8267 94.1073 75.1424 95.2706C72.9878 95.9498 72.5138 96.0799 72.0039 95.7908C71.6879 95.6102 71.573 95.3212 71.5227 95.155C71.5155 95.155 71.5012 95.1478 71.494 95.1405C71.257 95.0466 71.0774 95.1261 70.4742 95.5885C70.0145 95.9426 69.44 96.3833 68.6859 96.4411C68.3842 96.4628 68.0395 96.4411 67.623 96.405L67.6158 96.4122Z" fill="#F59B31"/>
<path d="M59.9742 86.9903C53.4675 86.3617 48.397 84.866 48.1529 84.7938C47.686 84.6565 47.4203 84.1652 47.5568 83.6955C47.6932 83.2259 48.1888 82.9585 48.6484 83.0958C48.7131 83.1175 55.3707 85.0683 63.005 85.4296C70.9553 85.8053 73.6916 85.0828 76.4423 84.1001C79.6813 82.9441 82.7049 82.301 86.9566 82.9079C91.1867 83.5149 93.607 83.71 94.1456 83.5004C94.5981 83.327 95.108 83.551 95.2804 84.0062C95.4528 84.4614 95.2301 84.9744 94.7777 85.1478C93.9876 85.4513 92.4148 85.473 86.7052 84.6565C82.8055 84.1001 80.0189 84.6998 77.024 85.7692C74.1944 86.7808 71.178 87.5828 62.9188 87.1926C61.9134 87.142 60.9223 87.0698 59.9671 86.9758L59.9742 86.9903Z" fill="#F59B31"/>
<path d="M46.7311 77.655C46.4653 77.6189 46.214 77.4527 46.0775 77.1998C45.8477 76.7663 46.0057 76.2316 46.4366 76.0004C46.5731 75.9282 49.8193 74.2013 54.2361 74.223C56.9365 74.2374 58.9546 74.6059 61.7412 75.1261C63.4577 75.444 65.404 75.8053 67.9894 76.1666C72.5284 76.8096 74.8984 75.8198 76.9883 74.9455C77.922 74.5553 78.8125 74.1868 79.7893 73.999C81.7284 73.6449 83.1935 73.8978 84.6155 74.1507C85.5348 74.3097 86.4038 74.4614 87.4093 74.4614C90.3179 74.4614 92.6089 75.7981 92.7023 75.8559C93.1189 76.1016 93.2553 76.6507 93.0111 77.0698C92.7669 77.4888 92.2283 77.6261 91.8046 77.3805C91.8046 77.3805 89.8224 76.2316 87.4093 76.2316C86.253 76.2316 85.2619 76.0582 84.3139 75.892C82.9852 75.6608 81.7284 75.4368 80.1053 75.7403C79.3081 75.8848 78.5468 76.2099 77.6634 76.5784C75.4802 77.4961 72.7582 78.6305 67.7453 77.9151C65.1239 77.5394 63.156 77.1781 61.4252 76.8602C58.7248 76.3617 56.7785 76.0004 54.229 75.986C50.2502 75.9643 47.2984 77.5394 47.2697 77.5539C47.0973 77.6478 46.9106 77.6767 46.7311 77.6478V77.655Z" fill="#F59B31"/>
</g>
<path d="M71.7671 117.178C66.0934 117.178 55.8376 115.184 55.0836 114.794C54.8896 114.693 54.7604 114.685 54.6311 114.678C53.8483 114.642 53.6974 114.158 53.4604 112.778C53.403 112.438 53.2665 111.723 53.0798 110.733C52.0313 105.191 49.5822 92.2143 49.6828 87.7779C49.7761 83.4715 48.9359 79.0279 48.6701 77.7273C46.6089 77.7779 37.3299 77.8429 34.371 74.8372C34.3207 74.7866 34.2776 74.7216 34.2561 74.6493C34.2345 74.5843 33.7749 73.1175 34.1412 71.4918C34.5075 69.8516 39.305 60.2201 41.754 56.7808C44.4256 53.0164 56.1537 47.4962 64.4846 48.3054C64.6283 48.3199 64.7647 48.3994 64.8365 48.5294C64.8581 48.5656 67.2712 52.4167 72.1118 52.5251C76.938 52.6407 79.2578 49.3531 79.3511 49.2158C79.4301 49.1002 79.5594 49.0208 79.703 49.0135C79.9329 48.9991 102.807 47.5901 108.732 72.4166C108.747 72.4672 108.747 72.5178 108.747 72.5684C108.703 73.0525 108.071 73.197 107.138 73.262C106.908 73.2765 106.506 73.2331 105.687 73.132C102.585 72.7562 94.4331 71.7736 90.3107 75.3357C90.8134 77.1204 93.5641 86.8819 95.0436 93.1247C95.8982 96.7229 96.7816 100.82 97.4998 104.107C98.0312 106.557 98.5268 108.869 98.6489 109.208C98.6991 109.302 98.7422 109.44 98.6991 109.635C98.5339 110.343 96.76 112.366 93.4348 113.825C93.0111 114.013 92.6161 114.187 92.2426 114.36C89.4417 115.617 87.5888 116.441 83.5885 116.412C82.2598 116.398 81.2472 116.333 80.3494 116.268C78.3169 116.13 77.0888 116.044 74.6685 116.86C74.015 117.084 73.0024 117.171 71.7814 117.171L71.7671 117.178ZM54.6383 113.739C54.6383 113.739 54.6598 113.739 54.6742 113.739C54.8609 113.746 55.141 113.76 55.5145 113.956C56.4337 114.404 70.9412 117.12 74.3597 115.971C76.9596 115.097 78.3241 115.191 80.3997 115.328C81.2831 115.386 82.2813 115.458 83.5813 115.466C87.3805 115.509 89.061 114.743 91.8476 113.493C92.2283 113.327 92.6233 113.146 93.047 112.958C96.0203 111.658 97.4926 109.974 97.7439 109.483C97.6219 109.1 97.3777 107.995 96.5733 104.302C95.8623 101.015 94.9789 96.9252 94.1243 93.3414C92.5012 86.5062 89.3483 75.4224 89.3196 75.3068C89.2693 75.1334 89.3196 74.9528 89.4489 74.8372C93.8155 70.762 102.197 71.7664 105.78 72.1999C106.362 72.2721 106.908 72.3299 107.059 72.3227C107.375 72.301 107.583 72.2721 107.72 72.2432C105.263 62.3661 99.8554 55.6103 91.6393 52.171C86.0877 49.8445 81.0389 49.895 79.9688 49.9312C79.3583 50.7187 76.8159 53.5655 72.0831 53.4572C67.3215 53.356 64.7575 50.0829 64.1615 49.2158C55.9167 48.5367 44.7704 54.1291 42.5009 57.3228C39.9872 60.8632 35.3406 70.3429 35.0461 71.6941C34.7947 72.8429 35.0245 73.9195 35.1107 74.2519C38.1989 77.1854 48.9071 76.7736 49.0149 76.7663C49.2303 76.7519 49.4386 76.9109 49.4889 77.1276C49.5032 77.1782 50.7241 82.5828 50.6092 87.7851C50.5159 92.1276 53.0439 105.509 53.9919 110.545C54.1786 111.542 54.3151 112.265 54.3725 112.604C54.4946 113.32 54.5808 113.616 54.6311 113.724L54.6383 113.739Z" fill="#333333"/>
<path d="M46.7385 48.999C46.7385 48.999 40.3394 79.8876 39.4991 84.6347C38.6588 89.389 46.3435 97.4743 51.0476 88.4569C55.7517 79.4396 53.5469 52.1709 53.9132 48.3414C54.2794 44.512 52.5701 36.2317 51.6293 34.0135C50.6885 31.7952 51.0979 27.3155 50.1714 26.0077C49.2449 24.6999 48.8715 25.632 48.8715 25.632C48.8715 25.632 48.3759 24.8083 47.7942 24.8516C47.2125 24.895 47.0616 25.4586 47.0616 25.4586C47.0616 25.4586 46.6307 24.9311 46.128 25.1768C45.6253 25.4152 43.9232 33.1753 43.9734 35.697C44.0237 38.2114 47.4782 45.314 46.7385 49.0134V48.999Z" fill="white"/>
<path d="M45.8837 93.0018C45.2445 93.0018 44.67 92.8717 44.2175 92.7127C41.0718 91.6289 38.5079 87.5899 39.0394 84.5553C39.8653 79.8587 46.2069 49.2736 46.2787 48.9051C46.7096 46.7519 45.5749 43.1898 44.6628 40.3213C44.0523 38.3921 43.5209 36.7302 43.4993 35.6898C43.4634 33.7245 45.0075 25.1768 45.9196 24.7361C46.2931 24.5554 46.645 24.6204 46.9251 24.7577C47.1118 24.5626 47.3847 24.3965 47.751 24.3676C48.2322 24.3387 48.6344 24.6349 48.9073 24.9167C48.9934 24.8733 49.0868 24.8444 49.1874 24.83C49.6326 24.7794 50.0851 25.0684 50.5447 25.7187C51.0906 26.4918 51.2126 27.973 51.3563 29.6999C51.4856 31.2245 51.6148 32.7996 52.0457 33.8112C53.0153 36.1016 54.739 44.4542 54.3655 48.3704C54.2793 49.2374 54.3368 51.4918 54.4086 54.3313C54.6528 63.8761 55.1052 81.6506 51.4496 88.6593C49.6398 92.1275 47.5283 92.9873 45.8765 92.9873L45.8837 93.0018ZM46.4008 25.5742C45.9124 26.5063 44.397 33.2259 44.4401 35.6753C44.4545 36.5785 44.9931 38.2548 45.5533 40.0395C46.5444 43.1609 47.672 46.7013 47.1908 49.0929C47.1262 49.4036 40.7774 80.0249 39.9515 84.7142C39.499 87.3009 41.7972 90.8919 44.5119 91.824C46.8317 92.6188 49.0078 91.3471 50.6237 88.233C54.1644 81.4411 53.7191 63.8255 53.4821 54.3675C53.4031 51.3762 53.3528 49.2158 53.439 48.2909C53.7909 44.577 52.1104 36.3473 51.1911 34.1941C50.6956 33.0381 50.5591 31.3834 50.4298 29.7866C50.3077 28.3343 50.1856 26.8314 49.7835 26.2751C49.4531 25.8054 49.2879 25.7765 49.2807 25.7765C49.2161 25.9427 49.0653 26.0655 48.8929 26.08C48.7134 26.0944 48.5554 26.0222 48.462 25.8704C48.3183 25.632 47.9808 25.2996 47.8156 25.3141C47.593 25.3285 47.5212 25.5236 47.4996 25.5814C47.4493 25.7476 47.3129 25.8777 47.1405 25.9066C46.9682 25.9427 46.7958 25.8849 46.6881 25.7476C46.6881 25.7476 46.5301 25.5742 46.3864 25.5742H46.4008Z" fill="#333333"/>
<path d="M49.0366 34.4181C48.8068 34.4181 48.6129 34.2519 48.577 34.0207C48.5554 33.8907 48.103 30.8054 48.261 29.1436C48.4118 27.554 48.4046 25.6465 48.4046 25.632C48.4046 25.3719 48.6129 25.1624 48.8714 25.1624C49.13 25.1624 49.3382 25.3719 49.3382 25.632C49.3382 25.7115 49.3382 27.6045 49.1874 29.2375C49.0366 30.791 49.4962 33.8545 49.4962 33.8907C49.5321 34.1508 49.3598 34.3892 49.1012 34.4253C49.0797 34.4253 49.051 34.4253 49.0294 34.4253L49.0366 34.4181Z" fill="#333333"/>
<path d="M46.5012 33.7896C46.257 33.7896 46.0559 33.6017 46.0344 33.3561C46.0344 33.2838 45.9051 31.6364 46.099 29.6061C46.2929 27.6046 46.5946 25.4009 46.6018 25.3792C46.6377 25.1191 46.8819 24.9457 47.126 24.9818C47.3846 25.0179 47.557 25.2564 47.521 25.5093C47.521 25.5309 47.2122 27.713 47.0255 29.6928C46.8388 31.6364 46.9609 33.2621 46.968 33.2766C46.9896 33.5367 46.7957 33.7607 46.5371 33.7824C46.5228 33.7824 46.5156 33.7824 46.5012 33.7824V33.7896Z" fill="#333333"/>
<path d="M82.3029 8.42843C79.66 6.88219 76.5215 6.09462 73.3543 5.89954C73.2322 6.06572 73.0957 6.24636 72.9521 6.43422C71.9322 7.75647 72.0543 7.76369 73.4979 7.38797C74.9415 7.01225 80.1196 7.77092 83.4879 11.4414C86.533 14.7651 86.1596 17.6842 85.9728 20.3142C85.9728 20.3142 88.6589 20.3287 89.6787 21.2535C89.7146 21.2824 89.8223 12.8287 82.3029 8.42843Z" fill="#9A2D2F"/>
<path d="M89.6787 21.7231C89.5638 21.7231 89.4561 21.6798 89.3627 21.6003C88.6374 20.9428 86.6623 20.7911 85.9657 20.7838C85.8364 20.7838 85.7143 20.726 85.6282 20.6321C85.542 20.5382 85.4989 20.4081 85.5061 20.2781L85.5348 19.9312C85.7215 17.4023 85.9226 14.7868 83.1504 11.7593C79.8396 8.1466 74.7835 7.53966 73.62 7.84313C72.6936 8.08157 72.1837 8.21885 71.9108 7.79978C71.6307 7.37348 71.9898 6.91105 72.5859 6.14516C72.7295 5.96452 72.8588 5.79111 72.9809 5.62493C73.0742 5.49487 73.2179 5.42984 73.383 5.43707C76.8303 5.6466 79.9976 6.54255 82.5399 8.03099C90.2677 12.5541 90.1527 21.1885 90.1456 21.2752C90.1312 21.4558 90.0163 21.6292 89.8511 21.6942C89.7936 21.7159 89.7362 21.7304 89.6787 21.7304V21.7231ZM86.4756 19.859C87.1292 19.8951 88.2783 20.0179 89.1832 20.4009C89.0036 18.2622 87.9695 12.2723 82.0731 8.82578C79.7175 7.44573 76.7873 6.60036 73.577 6.37637C73.498 6.48475 73.4118 6.60036 73.3184 6.70874C73.2681 6.76654 73.1891 6.87492 73.103 6.99053C73.2035 6.96163 73.304 6.93995 73.383 6.91828C74.8481 6.53533 80.292 7.24342 83.8327 11.109C86.8275 14.3821 86.6695 17.2795 86.4756 19.8518V19.859Z" fill="#333333"/>
<path d="M70.6974 5.87061C65.7706 6.09459 61.1024 7.72754 58.4954 10.3142C54.6674 14.1148 53.6189 20.3214 53.3603 22.5613C51.7516 22.6119 50.3583 24.0642 50.1716 25.9934C49.9777 28.0598 51.2345 29.8734 52.9869 30.0468C54.7393 30.213 56.3193 28.674 56.5132 26.6075C56.6209 25.5021 56.2977 24.476 55.716 23.7246C56.2618 22.7203 57.4756 21.0367 57.4756 21.0367C57.4756 21.0367 57.1452 20.4876 58.2584 16.8605C59.3716 13.2333 61.4041 10.7189 63.7956 9.15094C68.2628 6.2102 71.0565 7.53245 71.0565 7.53245C71.0565 7.53245 70.7477 6.73043 70.6974 5.95009C70.6974 5.91396 70.6974 5.89228 70.6974 5.87061Z" fill="#9A2D2F"/>
<path d="M53.2449 30.5309C53.1444 30.5309 53.0438 30.5309 52.9361 30.5165C51.9522 30.4226 51.0688 29.8806 50.4583 29.0064C49.8622 28.1465 49.5965 27.0627 49.6971 25.9572C49.8838 23.9703 51.2412 22.4023 52.9289 22.135C53.2808 19.4472 54.4443 13.6596 58.1573 9.98186C60.8074 7.35181 65.49 5.63939 70.661 5.40095C70.7903 5.39372 70.9267 5.4443 71.0201 5.54546C71.1134 5.63939 71.1637 5.77667 71.1493 5.90673V5.91395C71.1996 6.61482 71.4797 7.35181 71.4797 7.35903C71.5515 7.53967 71.5013 7.74198 71.3648 7.87204C71.2283 8.0021 71.0201 8.03822 70.8477 7.95152C70.8262 7.94429 68.1976 6.80268 64.0393 9.54111C61.5328 11.1885 59.6871 13.768 58.6888 16.9977C57.7767 19.9746 57.8772 20.7622 57.8916 20.8561C57.949 21.0078 57.9347 21.174 57.8341 21.3113C57.8198 21.3258 56.8215 22.713 56.2541 23.6957C56.8143 24.5411 57.0657 25.5815 56.9651 26.6509C56.7569 28.8546 55.1122 30.5309 53.2305 30.5309H53.2449ZM70.2732 6.36915C65.5618 6.66539 61.2096 8.29111 58.8252 10.6538C55.1409 14.3027 54.0996 20.2419 53.8195 22.6263C53.7907 22.8575 53.604 23.031 53.367 23.0382C51.9665 23.0815 50.7887 24.3749 50.6307 26.044C50.5445 26.9327 50.76 27.7925 51.2268 28.4717C51.6793 29.122 52.3185 29.5194 53.0223 29.5844C54.5161 29.7289 55.8663 28.3778 56.0387 26.5642C56.1248 25.6321 55.8735 24.7 55.3348 24.0136C55.2199 23.8691 55.2056 23.6668 55.2918 23.5006C55.7514 22.6552 56.6348 21.3908 56.9651 20.9284C56.8861 20.213 57.1734 18.7607 57.7982 16.7232C58.854 13.2839 60.8362 10.5238 63.5294 8.75354C66.7325 6.64372 69.1384 6.63649 70.3593 6.85326C70.3234 6.70152 70.2875 6.53534 70.266 6.36193L70.2732 6.36915Z" fill="#333333"/>
<path d="M70.8691 5.86337C71.1636 6.16683 71.7238 7.21452 71.7238 7.21452C71.7238 7.21452 72.0254 6.53533 72.4492 5.85614C71.9177 5.84169 71.3934 5.84169 70.8691 5.86337Z" fill="#9A2D2F"/>
<path d="M71.7237 7.68422C71.5513 7.68422 71.3933 7.59029 71.3143 7.43855C71.0989 7.02671 70.7111 6.36919 70.5387 6.19578C70.4094 6.06573 70.3735 5.86341 70.4381 5.69C70.51 5.51659 70.668 5.40099 70.8547 5.39376C71.3646 5.37209 71.8889 5.37209 72.4634 5.38654C72.6286 5.38654 72.7866 5.48769 72.8656 5.6322C72.9446 5.78393 72.9374 5.96457 72.8513 6.10185C72.4491 6.74491 72.1618 7.3952 72.1546 7.40243C72.0828 7.56861 71.9248 7.67699 71.7453 7.68422H71.7309H71.7237Z" fill="#333333"/>
<path d="M74.7118 36.0078C74.4676 36.0078 74.2665 35.8199 74.245 35.5742C74.2234 35.3141 74.4173 35.0901 74.6759 35.0757C74.7262 35.0757 74.9703 35.0468 74.9919 34.9529C75.0278 34.7794 74.8267 34.4543 74.6759 34.3748C74.008 34.0352 73.8428 32.6046 73.8069 31.7737C73.7925 31.5136 73.9936 31.2968 74.2522 31.2823C74.5035 31.2679 74.7262 31.4702 74.7405 31.7303C74.7764 32.5323 74.956 33.3994 75.1212 33.5439C75.5808 33.7751 76.0333 34.4904 75.9112 35.1263C75.8609 35.3647 75.6526 35.9355 74.7477 36.0005C74.7333 36.0005 74.7262 36.0005 74.7118 36.0005V36.0078Z" fill="#333333"/>
<path d="M71.8031 31.0872C71.8031 31.7591 71.3866 32.301 70.8767 32.301C70.3667 32.301 69.9502 31.7591 69.9502 31.0872C69.9502 30.4152 70.3667 29.8733 70.8767 29.8733C71.3866 29.8733 71.8031 30.4152 71.8031 31.0872Z" fill="#333333"/>
<path d="M77.2897 32.0554C77.8014 32.0554 78.2162 31.512 78.2162 30.8416C78.2162 30.1712 77.8014 29.6277 77.2897 29.6277C76.7781 29.6277 76.3633 30.1712 76.3633 30.8416C76.3633 31.512 76.7781 32.0554 77.2897 32.0554Z" fill="#333333"/>
<path d="M68.2769 29.2086C68.2769 29.2086 69.7635 28.4066 71.5015 28.3126Z" fill="#E9E9E9"/>
<path d="M68.2768 29.6783C68.1116 29.6783 67.9464 29.5916 67.8674 29.4326C67.7453 29.2014 67.8315 28.9196 68.0614 28.7968C68.126 28.7607 69.6629 27.9514 71.4799 27.843C71.7457 27.8213 71.9611 28.0237 71.9755 28.2838C71.9898 28.5439 71.7959 28.7679 71.5374 28.7823C69.9286 28.8763 68.521 29.6205 68.5066 29.6277C68.4348 29.6638 68.363 29.6855 68.2912 29.6855L68.2768 29.6783Z" fill="#333333"/>
<path d="M78.4894 28.9124C78.4894 28.9124 77.5485 27.9152 76.105 27.6624Z" fill="#E9E9E9"/>
<path d="M78.4893 29.3748C78.3672 29.3748 78.2451 29.3242 78.1518 29.2302C78.1446 29.223 77.2899 28.3415 76.0259 28.1175C75.7746 28.0742 75.6022 27.8285 75.6453 27.5756C75.6884 27.3227 75.9326 27.1493 76.1839 27.1927C77.7568 27.4672 78.7838 28.5366 78.8269 28.58C79.0064 28.7678 78.9992 29.0641 78.8125 29.2447C78.7191 29.3314 78.6042 29.3748 78.4893 29.3748Z" fill="#333333"/>
<path d="M89.7721 75.6536C89.7074 75.6536 89.65 75.6391 89.5853 75.6175C89.3699 75.5235 89.2622 75.2851 89.3196 75.0611C89.2981 74.9022 89.0898 74.4542 88.939 74.129C88.544 73.2837 88.0628 72.2288 88.1418 71.3328C88.2567 70.0973 88.0341 69.1796 88.0341 69.1724C87.9694 68.9195 88.1274 68.6666 88.3716 68.6016C88.623 68.5366 88.8743 68.6883 88.939 68.9412C88.9533 68.9845 89.1975 70.0106 89.0754 71.4123C89.018 72.0553 89.4633 73.0236 89.7936 73.7244C90.1527 74.5048 90.3753 74.9744 90.2102 75.3646C90.1312 75.5452 89.9588 75.6464 89.7793 75.6464L89.7721 75.6536Z" fill="#333333"/>
</g>
<defs>
<clipPath id="clip0_186_2195">
<rect width="118" height="109" fill="white" transform="translate(0.73584 0.11792)"/>
</clipPath>
</defs>
</svg>
