<svg width="119" height="110" viewBox="0 0 119 110" fill="none" xmlns="http://www.w3.org/2000/svg">
<g clip-path="url(#clip0_186_2731)">
<g clip-path="url(#clip1_186_2731)">
<path d="M52.0927 86.6006L17.5373 109.584C17.5373 109.584 7.33233 115.878 11.8495 133.151C16.3667 150.425 18.7023 161.242 18.7023 161.242C18.7023 161.242 29.0558 171.648 38.2386 157.447L33.3103 133.318C32.7792 130.726 34.0984 128.112 36.4854 127.006L65.2102 113.683L90.817 129.127C92.77 130.308 94.0378 132.36 94.2148 134.648L96.5848 165.061C96.5848 165.061 102.712 172.525 113.922 165.794L115.51 132.131C115.51 132.131 117.115 112.41 92.4731 94.6037L85.0377 89.8282L52.087 86.6063L52.0927 86.6006Z" fill="#353535"/>
<path d="M86.9853 91.5939C75.6324 93.9387 61.6527 95.2458 51.836 87.9994C51.0079 87.4032 50.6824 86.4573 50.7795 85.454C50.8709 75.2553 49.4946 65.0451 46.7021 55.2361C42.0364 44.3724 54.7142 39.1555 62.6977 35.796C65.9642 34.4201 69.7504 35.8075 73.2568 35.2915C76.4491 34.6265 79.6756 34.5864 82.8165 35.5438C98.5209 38.9262 100.063 38.6625 103.284 55.6489C105.322 69.8377 103.603 88.0166 86.9853 91.5939Z" fill="#C28BFD"/>
<path d="M54.0801 78.1389C55.0909 80.5123 57.2152 82.2264 59.4653 83.4762C63.6626 85.798 68.5795 86.7955 73.3422 86.291C71.8346 85.735 70.2014 85.6547 68.6252 85.3509C65.4672 84.7489 62.4862 83.224 60.1391 81.0168" stroke="#353535" stroke-width="0.75" stroke-linecap="round" stroke-linejoin="round"/>
<path d="M53.0811 85.1216C56.4104 88.0511 60.9789 89.1346 65.3933 89.4728C69.8077 89.8111 74.2734 89.5072 78.6592 90.1321" stroke="#353535" stroke-width="0.75" stroke-linecap="round" stroke-linejoin="round"/>
<path d="M69.8703 109.383C69.8475 110.312 69.1793 113.235 69.3164 114.864C69.3621 115.385 70.053 115.5 70.27 115.024C71.1609 113.052 72.1946 111.149 73.371 109.337C73.371 112.353 72.8913 117.432 76.4776 118.361C76.786 118.493 77.003 118.831 77.2257 119.117C77.4884 119.461 78.0309 119.284 78.0366 118.848L78.1394 110.53C78.2479 111.946 78.4535 115.821 79.5271 117.38C79.824 117.81 80.4865 117.678 80.5778 117.162C81.2403 113.379 81.5715 108.311 84.2441 105.473C84.9808 105.083 85.3349 104.906 85.0436 103.943C84.5639 101.317 80.8063 96.0828 77.7453 97.2695C76.5061 98.0549 75.3925 99.6486 74.4503 100.767C72.3373 103.266 70.527 106.127 69.8646 109.383H69.8703Z" fill="white"/>
<path d="M76.4776 118.361C76.4776 118.361 74.5988 115.07 75.9865 109.28" stroke="#353535" stroke-width="0.75" stroke-linecap="round" stroke-linejoin="round"/>
<path d="M97.1787 39.4823C93.2612 39.2128 92.6958 45.8802 92.2104 49.9333C91.8506 52.9488 91.8449 55.9872 92.119 59.0141C92.8957 67.4529 93.1869 75.9318 92.9985 84.3992C87.6647 88.9741 81.7769 93.4457 76.4146 98.009C76.2147 98.181 76.2661 98.5021 76.5117 98.6053C79.4356 99.8722 82.3423 102.056 84.0498 104.745C84.3125 105.158 84.8379 105.313 85.2776 105.101C89.3036 103.192 107.212 94.1967 110.365 83.8202L108.018 50.3231C108.018 50.3231 103.626 39.9237 97.1787 39.4766V39.4823Z" fill="#C28BFD"/>
<path d="M92.1706 59.4498C92.1878 59.6505 92.6903 75.0891 92.9016 81.5787C92.9587 83.3616 92.1935 85.0642 90.8229 86.1994L80.6636 94.598" stroke="#353535" stroke-width="0.75" stroke-linecap="round" stroke-linejoin="round"/>
<path d="M29.9926 103.593C29.5928 105.897 28.9247 108.15 28.011 110.3C27.2457 110.3 26.5091 110.312 25.7438 110.312C25.6524 110.312 25.5382 110.294 25.5097 110.208C25.4811 110.122 25.6639 110.077 25.641 110.163C24.8815 108.718 24.1562 107.136 24.556 105.553C24.9615 103.971 26.1778 102.561 27.754 102.159C28.2737 102.028 28.8619 102.01 29.3187 102.297C29.7756 102.584 30.0839 103.054 29.9926 103.587V103.593Z" fill="white"/>
<path d="M36.7313 116.302C39.4689 116.302 41.6882 114.213 41.6882 111.636C41.6882 109.059 39.4689 106.969 36.7313 106.969C33.9937 106.969 31.7744 109.059 31.7744 111.636C31.7744 114.213 33.9937 116.302 36.7313 116.302Z" fill="#FFAD29"/>
<mask id="mask0_186_2731" style="mask-type:luminance" maskUnits="userSpaceOnUse" x="31" y="106" width="11" height="11">
<path d="M36.7313 116.302C39.4689 116.302 41.6882 114.213 41.6882 111.636C41.6882 109.059 39.4689 106.969 36.7313 106.969C33.9937 106.969 31.7744 109.059 31.7744 111.636C31.7744 114.213 33.9937 116.302 36.7313 116.302Z" fill="white"/>
</mask>
<g mask="url(#mask0_186_2731)">
<path d="M31.186 109.268C32.8821 108.529 34.6867 108.001 36.5312 107.915C38.3758 107.835 40.2717 108.213 41.8479 109.177" stroke="#353535" stroke-width="0.75" stroke-linecap="round" stroke-linejoin="round"/>
<path d="M30.7407 110.375C34.4127 109.371 38.3816 109.463 42.0022 110.644" stroke="#353535" stroke-width="0.75" stroke-linecap="round" stroke-linejoin="round"/>
<path d="M39.0383 105.978C39.9006 108.563 40.0319 111.384 39.4209 114.038C39.301 114.548 39.1696 115.099 38.9241 115.557C38.6956 115.981 38.4672 116.411 38.2388 116.836" stroke="#353535" stroke-width="0.75" stroke-linecap="round" stroke-linejoin="round"/>
<path d="M37.799 105.731C38.4443 109.475 38.233 113.367 37.188 117.019" stroke="#353535" stroke-width="0.75" stroke-linecap="round" stroke-linejoin="round"/>
<path d="M36.7199 105.932C36.0404 109.83 35.6577 113.786 35.5835 117.741" stroke="#353535" stroke-width="0.75" stroke-linecap="round" stroke-linejoin="round"/>
<path d="M35.3378 106.425C34.4013 109.859 34.1043 113.465 34.4641 117.008" stroke="#353535" stroke-width="0.75" stroke-linecap="round" stroke-linejoin="round"/>
<path d="M34.2242 106.723C32.4938 109.807 32.3968 113.522 32.4767 117.059" stroke="#353535" stroke-width="0.75" stroke-linecap="round" stroke-linejoin="round"/>
</g>
<path d="M10.3421 106.969C10.3421 106.969 34.1557 107.359 34.1557 107.652C34.1557 107.944 36.9767 112.238 32.7965 113.797L10.3421 110.323C10.3421 110.323 7.32682 108.523 10.3421 106.964V106.969Z" fill="#FFAD29"/>
<path d="M32.791 113.803C36.9713 112.244 34.1502 107.95 34.1502 107.657C34.1502 107.6 33.2365 107.537 31.7745 107.48C31.8945 107.898 31.9744 108.334 32.0144 108.77C32.1629 110.421 31.746 112.135 30.8037 113.499L32.791 113.809V113.803Z" fill="#F2E1C2"/>
<path d="M25.2526 113.327C26.1092 116.503 18.1142 115.643 16.1897 115.557C6.92126 113.992 19.7132 98.1522 24.6244 99.0523C35.9259 100.572 23.0083 106.855 25.2526 113.333V113.327Z" fill="white"/>
<path d="M46.7878 91.5194C47.8157 90.6881 48.4724 89.4899 48.6552 88.1771C49.1634 84.531 49.7802 80.8964 50.5169 77.2904C51.2136 73.8622 51.1679 70.5658 51.7504 67.1203C53.5721 56.3196 56.4274 45.2781 62.3551 36.0769C58.0378 37.9515 53.869 40.1816 49.9058 42.727C46.9363 44.6361 44.0067 46.7973 42.145 49.8071C40.9514 51.7276 40.2547 53.9176 39.6894 56.1075C37.7249 63.7494 37.2909 71.6952 36.0288 79.4861C35.7147 81.4353 35.3378 83.3959 34.4755 85.1731C31.289 91.7487 20.9811 94.0304 19.4507 101.156C23.0313 99.1154 28.2166 100.56 29.7185 104.407C30.2839 104.55 30.7521 104.407 31.2775 104.149L46.7935 91.5366L46.7878 91.5194Z" fill="#C28BFD"/>
<path d="M48.6436 61.5365C48.6436 61.5365 51.5275 74.6877 50.7679 82.6965" stroke="#353535" stroke-width="0.75" stroke-linecap="round" stroke-linejoin="round"/>
<path d="M66.8838 33.5716C66.9809 34.5978 67.078 35.6182 67.1693 36.6444C73.1084 40.7377 76.7519 33.8067 76.7519 33.8067C76.7519 33.8067 75.2842 29.8739 75.1986 27.0706C72.149 27.0706 69.0539 31.5537 66.8838 33.5659V33.5716Z" fill="white"/>
<path d="M69.0084 33.4168C68.6029 33.6862 67.5921 34.2366 67.0039 34.8041C67.0496 35.3029 67.0953 35.8016 67.1467 36.3004C71.5096 38.4158 72.8916 33.6002 73.6283 30.3038C72.0921 31.3415 70.5502 32.3791 69.0141 33.4168H69.0084Z" fill="#353535"/>
<path d="M66.9981 35.6527C66.9981 35.6527 69.3909 41.2021 77.146 32.276L80.2355 35.1482C80.2355 35.1482 75.1187 44.7392 66.8439 40.1988C65.3934 39.4019 64.4454 37.9057 64.314 36.2546L64.1484 34.2424C64.1484 34.2424 66.6097 33.3652 66.9981 35.6527Z" fill="#C28BFD"/>
<path d="M66.21 35.8188C66.7296 37.3323 68.3572 38.3814 69.9448 38.2324" stroke="#353535" stroke-width="0.75" stroke-linecap="round" stroke-linejoin="round"/>
<path d="M78.2137 34.9475C77.2371 36.9483 75.364 38.4847 73.2168 39.0465" stroke="#353535" stroke-width="0.75" stroke-linecap="round" stroke-linejoin="round"/>
<path d="M78.8708 33.8755C78.8708 33.8755 79.9445 34.6896 80.624 36.3464C81.0638 37.4127 78.2541 38.972 76.1868 39.9523C74.4451 40.7779 72.5434 41.2537 70.6189 41.2365C65.6734 41.1963 64.9082 38.2439 64.9082 38.2439L65.3251 35.0278" stroke="#353535" stroke-width="0.75" stroke-linecap="round" stroke-linejoin="round"/>
<path d="M58.4776 31.2785C57.0156 31.955 58.7174 32.7519 59.5797 32.3563C58.8431 33.5602 59.8824 35.2227 61.1045 33.9386C62.0924 37.1547 68.9624 37.1203 62.6407 29.9198C62.2466 29.3523 61.4129 27.5292 60.6648 27.4146C59.4769 27.34 60.6362 30.3383 58.4776 31.2843V31.2785Z" fill="#353535"/>
<path d="M56.359 19.1019C56.6788 20.8963 57.5753 22.5875 58.8888 23.8487C59.1058 21.5326 59.22 19.2051 59.2257 16.8776C59.2257 15.9316 58.5861 12.9276 57.0385 14.2462C55.9592 15.1634 56.1477 17.8693 56.3647 19.0962L56.359 19.1019Z" fill="#353535"/>
<path d="M74.0623 29.8797C70.5844 36.0368 67.1923 38.5764 61.139 31.2097C59.3058 28.6242 55.9765 17.0954 58.3921 14.7736C62.4067 12.0046 70.4702 11.0014 73.6796 15.5189C74.8275 18.2936 75.5299 21.5154 75.5242 24.5997C75.5242 26.4514 74.976 28.2688 74.068 29.8797H74.0623Z" fill="white"/>
<path d="M62.8179 15.5189C61.5158 15.7597 60.2652 17.7375 61.4073 18.7179C61.4701 18.7695 61.5501 18.7924 61.6301 18.7924C62.8293 18.8096 64.1085 19.9447 62.8179 20.9479C63.349 19.4918 61.2988 19.7727 60.4536 19.8587C58.472 19.6982 58.0494 17.1987 59.2772 15.9776C59.5 15.754 59.3572 15.3813 59.0431 15.3871C57.2557 15.4043 55.7138 17.4853 55.9136 19.2969C55.9536 19.6752 55.4511 19.8243 55.2683 19.4918C54.4688 18.0586 55.1598 15.6622 56.1935 14.5271C55.4397 14.7163 54.8058 15.3699 54.5659 16.1209C54.486 16.3789 54.1547 16.4534 53.9834 16.247C52.236 14.1373 52.5729 10.6689 54.84 9.02359C54.5145 9.02933 54.1605 9.14398 53.8578 9.33317C53.6065 9.49369 53.2753 9.3045 53.321 9.0064C53.6979 6.26609 56.7931 4.28825 59.4086 4.56916C59.1402 4.28825 58.4892 4.36851 57.8781 4.48317C57.5469 4.54623 57.3242 4.12773 57.5755 3.89842C58.769 2.81491 60.6592 2.68305 62.1954 3.09009C61.7271 2.67159 61.1218 2.45947 60.5336 2.29322C60.2195 2.20149 60.1967 1.7658 60.4936 1.63967C61.2417 1.32437 62.2925 1.43329 62.9778 1.72567C62.6351 1.47342 62.2582 1.23837 61.8642 1.05492C61.5958 0.934531 61.6015 0.538964 61.8756 0.43004C65.1136 -0.865587 69.1111 0.83134 70.4188 4.0876C70.5159 4.33412 70.8414 4.38571 71.0013 4.17933C72.3033 2.48814 75.5984 2.65439 76.8319 4.5061C76.0438 4.08187 75.1358 3.88695 74.245 3.95001C76.7691 3.97295 78.311 6.26609 79.0876 8.42164C79.1333 8.54777 79.2418 8.62803 79.3732 8.64523C80.8465 8.88027 80.8123 10.7893 80.6638 12.2971C80.6295 12.6066 80.2241 12.7213 80.047 12.4633C79.5902 11.7983 78.9277 11.2709 78.1739 10.9842C79.4017 11.9646 80.2355 13.4092 80.5267 14.9571C80.5838 15.2724 80.2069 15.5017 79.9671 15.2839C79.7444 15.089 79.4874 14.9399 79.2019 14.8654C83.3878 18.8039 75.5013 25.5629 83.2165 27.3057C83.4963 27.3687 83.5762 27.7356 83.3535 27.9134C82.8167 28.3376 82.0058 28.4293 81.4233 28.0452C81.5604 28.5612 82.0286 28.9625 82.5483 29.0657C82.771 29.1115 82.8853 29.358 82.7768 29.5587C82.3256 30.4014 81.6061 31.2442 80.6809 31.2384C80.4639 31.2384 80.2926 31.4448 80.344 31.6569C81.0293 34.552 75.5242 34.638 75.1987 30.2065C75.0102 27.5809 75.5641 25.3565 75.2501 22.9086C75.2329 22.771 75.1301 22.6506 74.9931 22.6219C74.2735 22.45 73.3884 22.427 73.3084 21.3607C73.7824 9.3733 67.3921 18.7867 63.0749 15.5877C63.0006 15.5361 62.9092 15.5017 62.8179 15.5189Z" fill="#353535"/>
<path d="M69.014 7.82548C69.2881 5.52087 68.2317 3.1016 66.3643 1.73718" stroke="white" stroke-width="0.75" stroke-linecap="round" stroke-linejoin="round"/>
<path d="M68.2263 8.34722C68.2035 7.45289 68.0322 6.57003 67.7295 5.73303" stroke="white" stroke-width="0.75" stroke-linecap="round" stroke-linejoin="round"/>
<path d="M66.9755 9.54534C67.1811 8.41023 66.8385 7.22353 66.2046 6.26614C65.5707 5.30876 64.6627 4.55775 63.6919 3.94434" stroke="white" stroke-width="0.75" stroke-linecap="round" stroke-linejoin="round"/>
<path d="M64.4741 6.51843C64.9367 6.97133 65.2451 7.57901 65.3421 8.22109" stroke="white" stroke-width="0.75" stroke-linecap="round" stroke-linejoin="round"/>
<path d="M56.1021 6.66747C57.6953 6.28337 59.42 6.48976 60.8819 7.23503C62.3438 7.9803 63.5202 9.25873 64.1541 10.7779" stroke="white" stroke-width="0.75" stroke-linecap="round" stroke-linejoin="round"/>
<path d="M62.647 6.19739C63.2809 6.4955 63.772 7.08598 63.9604 7.76246" stroke="white" stroke-width="0.75" stroke-linecap="round" stroke-linejoin="round"/>
<path d="M55.0801 11.1849C55.7425 10.2676 56.759 9.61408 57.8669 9.39049C58.9748 9.16691 60.1626 9.3733 61.1277 9.95805" stroke="white" stroke-width="0.75" stroke-linecap="round" stroke-linejoin="round"/>
<path d="M59.4487 10.7262C60.2996 10.5199 61.2248 10.6345 62.0014 11.0301" stroke="white" stroke-width="0.75" stroke-linecap="round" stroke-linejoin="round"/>
<path d="M61.5387 12.2913C60.802 12.1652 60.0254 12.2971 59.3687 12.664" stroke="white" stroke-width="0.75" stroke-linecap="round" stroke-linejoin="round"/>
<path d="M63.8574 13.0251C64.2286 14.0915 65.3879 14.8195 66.5015 14.6934" stroke="white" stroke-width="0.75" stroke-linecap="round" stroke-linejoin="round"/>
<path d="M65.4507 12.429C65.8333 12.899 66.4272 13.1914 67.0268 13.2029" stroke="white" stroke-width="0.75" stroke-linecap="round" stroke-linejoin="round"/>
<path d="M72.5493 11.9818C73.8856 12.836 74.8108 14.3208 74.9821 15.9031" stroke="white" stroke-width="0.75" stroke-linecap="round" stroke-linejoin="round"/>
<path d="M74.5591 11.2823C75.5927 12.0334 76.278 13.2143 76.5692 14.4641C76.8605 15.7138 76.7805 17.0267 76.4893 18.2764" stroke="white" stroke-width="0.75" stroke-linecap="round" stroke-linejoin="round"/>
<path d="M72.2466 6.89107C72.7149 6.65029 73.2745 6.65602 73.777 6.80507C74.2796 6.95413 74.725 7.24077 75.1533 7.54461" stroke="white" stroke-width="0.75" stroke-linecap="round" stroke-linejoin="round"/>
<path d="M73.3086 8.27836C73.9996 8.26117 74.702 8.53061 75.2045 9.00644" stroke="white" stroke-width="0.75" stroke-linecap="round" stroke-linejoin="round"/>
<path d="M78.8539 26.0044C78.8025 27.0248 79.3621 28.051 80.2415 28.5612" stroke="white" stroke-width="0.75" stroke-linecap="round" stroke-linejoin="round"/>
<path d="M78.1914 27.6497C78.2314 28.1713 78.4769 28.6701 78.8653 29.0198" stroke="white" stroke-width="0.75" stroke-linecap="round" stroke-linejoin="round"/>
<path d="M69.4647 21.0569C68.6195 20.9938 67.7572 21.12 66.9634 21.4353C66.9063 21.4582 66.8435 21.4869 66.775 21.4811C66.6094 21.4754 66.5123 21.2919 66.4666 21.1257C66.3809 20.7875 66.4038 20.4206 66.5294 20.0938C67.7915 19.5606 69.419 19.8645 70.3385 20.8792C70.3956 20.9422 70.4527 21.0397 70.4013 21.1085C70.15 21.0741 69.716 21.0741 69.459 21.0512L69.4647 21.0569Z" fill="#353535"/>
<path d="M59.2142 22.6621C60.008 22.364 60.876 22.2494 61.7212 22.3296C61.784 22.3354 61.8525 22.3411 61.9096 22.3239C62.0695 22.2723 62.1095 22.0659 62.1038 21.8997C62.0924 21.55 61.9667 21.206 61.7554 20.9251C60.3963 20.7646 58.9172 21.5098 58.3119 22.7424C58.2719 22.8227 58.2433 22.9316 58.3119 22.9832C58.546 22.88 58.9629 22.7539 59.2027 22.6679L59.2142 22.6621Z" fill="#353535"/>
<path d="M66.1812 32.4653C67.3233 32.4768 68.4426 31.8289 69.0079 30.8314" stroke="#353535" stroke-width="0.75" stroke-linecap="round" stroke-linejoin="round"/>
<path d="M63.1777 28.0109C63.9486 30.0059 60.8134 31.1812 60.0996 29.1632C59.3286 27.1682 62.4638 25.9929 63.1777 28.0109Z" fill="#EA856A"/>
<path d="M71.8633 27.6382C71.5948 30.3671 67.3347 29.8855 67.6773 27.1681C67.9457 24.4393 72.2059 24.9208 71.8633 27.6382Z" fill="#EA856A"/>
<path d="M56.1934 24.6285C56.1934 24.6285 59.2315 22.2207 62.8464 24.3246C62.8464 24.3246 64.5539 29.553 60.2366 29.3466C55.9193 29.1402 56.1934 24.6342 56.1934 24.6342V24.6285Z" fill="#FF632C"/>
<path d="M62.9948 24.8922C59.3856 23.0061 56.3646 25.11 56.2104 25.2247C56.3018 26.4515 56.89 29.1861 60.2365 29.3466C63.7143 29.5129 63.2974 26.2107 62.9948 24.8922Z" fill="#353535"/>
<path d="M56.2104 25.7521C56.5636 25.7521 56.85 25.4646 56.85 25.11C56.85 24.7554 56.5636 24.4679 56.2104 24.4679C55.8572 24.4679 55.5708 24.7554 55.5708 25.11C55.5708 25.4646 55.8572 25.7521 56.2104 25.7521Z" fill="#FF632C"/>
<path d="M56.5131 25.0469C56.5131 25.2246 56.3704 25.3679 56.1933 25.3679C56.0163 25.3679 55.8735 25.2246 55.8735 25.0469C55.8735 24.8692 56.0163 24.7258 56.1933 24.7258C56.3704 24.7258 56.5131 24.8692 56.5131 25.0469Z" fill="#353535"/>
<path d="M60.0653 24.7202L58.2778 27.5809" stroke="white" stroke-width="0.75" stroke-linecap="round" stroke-linejoin="round"/>
<path d="M61.0873 24.7202L59.2998 27.5809" stroke="white" stroke-width="0.75" stroke-linecap="round" stroke-linejoin="round"/>
<path d="M62.8462 22.5991L63.2745 28.6358C63.3145 29.1919 63.4173 29.8455 63.9141 30.0862C64.1083 30.1837 64.331 30.1894 64.548 30.2009C65.119 30.2238 65.7586 30.2238 66.1584 29.8168" stroke="#353535" stroke-width="0.75" stroke-linecap="round" stroke-linejoin="round"/>
<path d="M72.126 22.2264C72.126 22.2264 68.3113 20.8792 65.2218 24.0265C65.2218 24.0265 64.9933 29.5588 69.362 28.0051C73.725 26.4515 72.1317 22.2264 72.1317 22.2264H72.126Z" fill="#FF632C"/>
<path d="M65.2334 24.4049C68.38 21.4639 72.0919 22.5703 72.2861 22.6334C72.5488 23.8373 73.2284 27.4834 69.5107 28.2975C65.5532 29.1689 65.3133 25.7578 65.2334 24.4049Z" fill="#353535"/>
<path d="M62.709 24.2444C62.709 24.2444 63.3143 23.1953 65.2217 24.0265L65.2331 24.4049C65.2331 24.4049 63.4742 23.694 62.886 24.8463L62.709 24.2501V24.2444Z" fill="#FF632C"/>
<path d="M72.1772 22.3755L76.0548 20.6556C76.0548 20.6556 75.084 21.1544 74.7299 21.9513L72.32 22.9717L72.1772 22.3698V22.3755Z" fill="#FF632C"/>
<path d="M72.7714 22.5991C72.7714 22.9545 72.4858 23.2412 72.1318 23.2412C71.7777 23.2412 71.4922 22.9545 71.4922 22.5991C71.4922 22.2437 71.7777 21.957 72.1318 21.957C72.4858 21.957 72.7714 22.2437 72.7714 22.5991Z" fill="#FF632C"/>
<path d="M72.4516 22.5991C72.4516 22.7768 72.3088 22.9202 72.1318 22.9202C71.9548 22.9202 71.812 22.7768 71.812 22.5991C71.812 22.4214 71.9548 22.2781 72.1318 22.2781C72.3088 22.2781 72.4516 22.4214 72.4516 22.5991Z" fill="#353535"/>
<path d="M69.0536 23.4131L67.2661 26.2738" stroke="white" stroke-width="0.75" stroke-linecap="round" stroke-linejoin="round"/>
<path d="M70.0698 23.4131L68.2881 26.2738" stroke="white" stroke-width="0.75" stroke-linecap="round" stroke-linejoin="round"/>
<path d="M78.2317 24.0367C78.6851 22.4215 78.1766 20.8643 77.0959 20.5586C76.0153 20.2528 74.7716 21.3143 74.3181 22.9294C73.8647 24.5445 74.3731 26.1018 75.4538 26.4075C76.5345 26.7133 77.7782 25.6518 78.2317 24.0367Z" fill="white"/>
<path d="M77.1514 22.5016C76.9286 22.1232 76.3976 22.0029 75.9978 22.1691C75.5981 22.3354 75.3125 22.7309 75.1812 23.1494C75.0498 23.5679 75.0498 24.0151 75.0613 24.4565C75.1069 24.2043 75.3011 23.975 75.5581 23.9291C75.8094 23.8832 76.0892 24.0667 76.1234 24.3189C76.1577 24.6113 75.9007 24.8521 75.6437 24.9897C75.6266 25.0011 75.6038 25.0126 75.6095 25.0355C75.6152 25.0585 75.6552 25.047 75.638 25.0355" fill="white"/>
<path d="M77.1514 22.5016C76.9286 22.1232 76.3976 22.0029 75.9978 22.1691C75.5981 22.3354 75.3125 22.7309 75.1812 23.1494C75.0498 23.5679 75.0498 24.0151 75.0613 24.4565C75.1069 24.2043 75.3011 23.975 75.5581 23.9291C75.8094 23.8832 76.0892 24.0667 76.1234 24.3189C76.1577 24.6113 75.9007 24.8521 75.6437 24.9897C75.6266 25.0011 75.6038 25.0126 75.6095 25.0355C75.6152 25.0585 75.6552 25.047 75.638 25.0355" stroke="#353535" stroke-width="0.75" stroke-linecap="round" stroke-linejoin="round"/>
</g>
</g>
<defs>
<clipPath id="clip0_186_2731">
<rect width="118" height="109" fill="white" transform="translate(0.73584 0.11792)"/>
</clipPath>
<clipPath id="clip1_186_2731">
<rect width="109" height="224" fill="white" transform="translate(9)"/>
</clipPath>
</defs>
</svg>
