<svg width="393" height="394" viewBox="0 0 393 394" fill="none" xmlns="http://www.w3.org/2000/svg">
<circle cx="195.5" cy="196.217" r="167.484" fill="url(#paint0_radial_186_252)"/>
<g filter="url(#filter0_d_186_252)">
<path d="M354.446 68.2553C354.446 92.5231 326.434 112.196 291.88 112.196C283.203 112.196 270.601 109.625 263.932 107.944C234.396 127.394 238.842 130.213 248.052 99.6135C236.488 91.6401 229.314 80.536 229.314 68.2553C229.314 43.9874 257.326 24.3145 291.88 24.3145C326.434 24.3145 354.446 43.9874 354.446 68.2553Z" fill="white"/>
<path d="M264.2 106.88L263.732 106.762L263.329 107.027C257.442 110.904 252.895 114.126 249.48 116.546C248.601 117.169 247.797 117.739 247.065 118.253C245.263 119.518 243.925 120.422 242.959 120.969C242.684 121.124 242.456 121.241 242.268 121.326C242.281 121.24 242.298 121.142 242.319 121.033C242.494 120.129 242.906 118.785 243.535 116.908C243.825 116.041 244.158 115.071 244.526 113.996C245.736 110.469 247.333 105.809 249.103 99.9297L249.333 99.1641L248.675 98.7102C237.315 90.8776 230.412 80.0755 230.412 68.2553C230.412 56.576 237.151 45.8917 248.27 38.0823C259.386 30.2752 274.801 25.4117 291.88 25.4117C308.959 25.4117 324.374 30.2752 335.49 38.0823C346.61 45.8917 353.349 56.576 353.349 68.2553C353.349 79.9346 346.61 90.6189 335.49 98.4282C324.374 106.235 308.959 111.099 291.88 111.099C283.346 111.099 270.855 108.557 264.2 106.88ZM241.74 121.508C241.74 121.508 241.742 121.507 241.746 121.507C241.742 121.508 241.739 121.508 241.74 121.508Z" stroke="black" stroke-width="2.19435"/>
</g>
<g filter="url(#filter1_d_186_252)">
<path d="M43.2571 253.086C43.2571 234.531 65.0529 219.49 91.9393 219.49C98.6913 219.49 108.496 221.456 113.686 222.741C136.668 207.87 133.208 205.714 126.042 229.11C135.04 235.207 140.622 243.697 140.622 253.086C140.622 271.641 118.826 286.683 91.9393 286.683C65.0528 286.683 43.2571 271.641 43.2571 253.086Z" fill="white"/>
<path d="M113.422 223.806L113.883 223.92L114.282 223.662C118.866 220.696 122.408 218.23 125.065 216.379C125.748 215.903 126.373 215.468 126.943 215.076C128.346 214.108 129.377 213.423 130.117 213.011C130.147 212.995 130.175 212.979 130.203 212.964C130.046 213.626 129.753 214.552 129.328 215.8C129.103 216.46 128.844 217.2 128.558 218.021C127.617 220.718 126.371 224.288 124.993 228.789L124.755 229.564L125.426 230.019C134.222 235.978 139.524 244.166 139.524 253.086C139.524 261.9 134.349 269.998 125.74 275.939C117.135 281.877 105.188 285.585 91.9393 285.585C78.6903 285.585 66.7434 281.877 58.139 275.939C49.5299 269.998 44.3542 261.9 44.3542 253.086C44.3542 244.272 49.5299 236.174 58.139 230.233C66.7434 224.295 78.6903 220.587 91.9393 220.587C98.5507 220.587 108.247 222.525 113.422 223.806ZM130.983 212.626C130.983 212.627 130.977 212.628 130.967 212.628C130.978 212.626 130.983 212.626 130.983 212.626Z" stroke="black" stroke-width="2.19435"/>
</g>
<g clip-path="url(#clip0_186_252)">
<path d="M210.472 49.0155C210.472 49.0155 206.352 43.375 203.954 41.8393C201.555 40.3036 191.078 37.2226 183.532 39.0996C175.985 40.9766 170.485 45.9345 169.628 47.3091C168.772 48.6742 166.383 55.8504 167.049 58.7606C167.725 61.6709 170.656 71.2455 171.17 72.2693C171.684 73.2931 175.119 79.9669 175.29 80.82C175.462 81.6732 172.54 89.2001 172.54 89.2001L170.684 91.5132L169.619 93.4755L164.88 99.9312L164.299 101.685C164.299 101.685 151.766 109.212 150.224 111.089C148.683 112.966 143.991 117.459 143.534 119.128C143.078 120.796 140.099 145.974 140.099 151.444C140.099 156.914 139.928 180.68 139.928 180.68C139.928 180.68 141.469 191.619 141.812 192.823C142.155 194.018 144.21 205.649 144.21 205.649L157.428 225.31L159.836 239.331L168.248 270.965L170.999 283.62C170.999 283.62 170.485 291.83 169.628 295.072C168.772 298.324 166.021 315.927 166.878 320.373C167.734 324.819 172.369 345.163 172.369 345.163L174.082 348.415L174.938 359.184C174.938 359.184 186.234 362.35 189.013 362.435C191.792 362.52 201.375 363.8 202.574 363.288C203.773 362.776 205.153 361.753 205.153 361.753C205.153 361.753 211.329 360.558 211.157 359.364C210.986 358.169 208.236 356.795 205.495 353.382C202.745 349.96 195.884 347.23 195.37 346.718C194.856 346.206 192.277 340.053 192.277 337.655C192.277 335.257 204.287 304.656 204.639 303.632C204.991 302.608 210.644 288.076 210.815 284.142C210.986 280.208 216.306 244.99 216.477 243.113C216.648 241.236 216.648 227.387 216.648 227.387L216.477 214.731C216.477 214.731 223.338 211.309 223.681 210.456C224.024 209.603 223.748 208.313 223.748 208.313L220.074 178.149C220.074 178.149 225.394 177.807 228.315 170.281C231.237 162.754 232.265 157.284 232.265 157.284C232.265 157.284 231.751 154.032 231.751 153.35C231.751 152.667 231.922 150.961 231.922 150.961C231.922 150.961 234.672 150.449 235.7 149.425C236.728 148.401 236.557 147.719 236.899 147.036C237.242 146.354 238.231 144.145 238.612 142.59C238.993 141.035 238.783 140.543 238.955 139.339C239.126 138.144 239.126 136.258 239.126 136.258L239.297 134.722C239.297 134.722 241.353 133.357 240.154 130.447C238.955 127.536 237.403 126.683 237.403 126.683L236.547 120.872C236.547 120.872 232.255 118.654 227.621 118.654C222.986 118.654 218.009 120.36 218.009 120.36L218.523 128.058C218.523 128.058 215.43 128.228 215.602 130.447C215.773 132.665 219.38 133.869 219.38 133.869L221.778 147.889L223.148 148.401L216.601 159.142L208.388 112.16C208.388 112.16 205.638 109.42 203.754 108.397C201.87 107.373 197.854 106.283 197.854 106.283C197.854 106.283 196.198 102.064 195.513 100.528C194.827 98.9927 194.999 98.6515 193.8 98.1301C192.601 97.6182 191.658 98.1964 191.049 96.765C190.44 95.3335 189.85 95.2293 190.193 94.3761C190.536 93.5229 190.878 93.3523 191.563 92.4991C192.248 91.6459 194.314 87.8825 194.314 87.8825C194.314 87.8825 196.892 90.1007 200.832 91.8166C204.781 93.5229 206.152 92.4991 207.008 91.9872C207.865 91.4753 209.235 89.4182 208.893 88.3944C208.55 87.3706 208.769 86.7544 208.141 86.0339C207.522 85.3134 208.407 77.6159 208.407 77.6159C208.407 77.6159 214.041 75.3976 214.041 72.8286C214.041 70.2596 210.092 69.2358 210.092 69.2358C210.092 69.2358 209.064 66.4961 209.064 64.2779C209.064 62.0596 211.643 53.6795 211.643 52.4851C211.643 51.2906 210.444 49.0629 210.444 49.0629L210.472 49.0155Z" fill="white"/>
<path d="M187.062 71.7764C187.062 71.7764 181.286 78.1183 177.822 77.8245C174.358 77.5306 168.315 65.9937 168.582 58.3625C168.848 50.7408 180.991 43.1096 184.95 42.0573C188.909 41.0051 195.247 41.2705 200.262 43.631C205.277 46.0009 207.656 48.1054 207.656 48.1054C207.656 48.1054 198.682 43.1096 196.036 45.4795C193.391 47.8495 197.616 51.0062 198.415 54.4189C199.205 57.8411 195.779 60.7325 195.779 60.7325C195.779 60.7325 190.764 77.559 192.877 78.8767C194.99 80.1944 197.892 83.0857 198.159 81.768C198.425 80.4503 199.519 77.2936 203.44 77.0376C207.361 76.7722 211.453 76.2793 208.455 77.559C205.458 78.8483 201.327 80.9812 201.594 83.3417C201.86 85.7116 203.973 87.0198 205.286 86.4984C206.609 85.977 207.513 82.3368 208.189 85.977C208.874 89.6173 209.511 93.3428 204.753 92.556C200.005 91.7692 193.4 87.8256 192.078 86.2425C190.755 84.6688 189.442 83.6166 189.698 81.5121C189.955 79.4076 190.488 73.3595 190.488 73.3595C190.488 73.3595 192.068 70.2027 191.278 66.5246C190.488 62.8464 188.376 58.9029 186.787 62.581C185.207 66.2592 187.053 71.7858 187.053 71.7858L187.062 71.7764Z" fill="#9A5E4E"/>
<path d="M170.694 91.5037L191.811 112.283L194.19 114.122L193.667 104.918C193.667 104.918 190.231 98.6041 192.087 98.6041C193.943 98.6041 197.892 106.226 197.892 106.226L201.584 108.596C201.584 108.596 204.22 109.383 205.277 110.435C206.333 111.487 208.446 115.962 208.446 115.962L213.461 147.785L216.63 159.094L219.799 153.312C219.799 153.312 225.08 161.199 226.136 161.986C227.193 162.773 230.885 160.668 230.885 160.668C230.885 160.668 225.08 173.096 223.234 175.921L221.378 178.746C221.378 178.746 224.252 207.375 223.757 208.266C223.272 209.148 221.378 210.892 221.378 210.892C221.378 210.892 213.194 215.366 212.138 214.049C211.082 212.731 210.025 210.626 211.082 209.053C212.138 207.479 212.138 197.743 211.871 194.852C211.605 191.961 205.534 158.564 205.534 158.564L203.421 151.198C203.421 151.198 202.365 164.081 203.421 165.92C204.477 167.759 206.856 178.547 207.113 186.699C207.38 194.852 205.267 208.266 205.267 210.626C205.267 212.987 206.057 215.357 204.477 216.153C202.898 216.94 201.308 217.727 198.929 217.727C196.55 217.727 187.31 216.409 183.617 215.622C179.925 214.835 170.685 212.731 170.685 212.731L171.475 215.357L160.122 228.24C160.122 228.24 146.656 210.617 143.754 203.517C140.851 196.416 140.318 184.841 141.374 176.167C142.431 167.493 140.851 147.501 141.641 137.509C142.431 127.517 144.543 118.834 147.446 118.834C150.348 118.834 155.363 124.095 155.63 121.204C155.896 118.312 152.994 117.782 154.05 114.369C155.107 110.947 167.782 104.643 167.782 104.643L164.88 99.9123L170.685 91.4943L170.694 91.5037Z" fill="#CD9A69"/>
<path d="M218.704 125.432C218.704 125.432 221.74 126.257 225.603 126.531C229.467 126.806 236.09 124.607 236.09 124.607L235.538 126.806C235.538 126.806 231.399 130.532 231.123 130.655C230.847 130.778 235.263 130.38 235.263 130.38C235.263 130.38 232.779 132.854 231.675 133.404C230.571 133.954 228.477 134.883 229.191 136.703C229.905 138.523 229.191 140.552 229.191 140.552C229.191 140.552 230.019 141.927 231.399 141.927C232.779 141.927 234.987 140.827 234.987 140.827L232.779 144.951C232.779 144.951 232.227 146.05 228.915 146.325C225.603 146.6 223.396 146.325 223.396 146.325L221.464 145.5L218.704 125.432Z" fill="#E2BAA5"/>
<path d="M214.013 215.319C214.013 215.319 218.932 224.808 211.253 276.89C209.292 290.162 199.938 314.543 198.558 318.392C197.178 322.241 192.629 334.783 192.211 336.262C191.792 337.74 191.935 341.21 191.935 341.21C191.935 341.21 190.688 342.186 189.727 341.76C188.766 341.333 187.795 342.035 186.691 342.585C185.587 343.134 186.139 343.959 182.276 345.059C178.412 346.158 179.211 347.95 175.928 346.433C172.645 344.917 172.892 348.083 172.065 342.31C171.237 336.536 165.165 323.89 166.821 316.193C168.477 308.495 170.961 296.949 172.065 289.251C173.168 281.554 172.341 277.705 169.857 268.633C167.373 259.561 160.75 239.767 160.474 237.568C160.198 235.369 160.122 228.23 160.122 228.23L162.405 229.046H165.993L170.409 234.544L177.032 228.771L181.172 229.32C181.172 229.32 186.691 231.795 187.243 230.42C187.795 229.046 188.071 227.946 186.691 226.846C185.311 225.747 182 223.272 179.516 222.448C177.032 221.623 175.928 221.348 174.548 220.248L173.168 219.149L171.475 215.347C171.475 215.347 192.477 218.049 196.893 219.149C201.308 220.248 205.724 218.049 205.724 218.049L207.656 214.75L214.003 215.3L214.013 215.319Z" fill="#9A5E4E"/>
<path d="M192.182 68.0887C192.182 68.0887 190.288 59.4053 187.443 62.9886C184.597 66.572 186.682 72.0513 188.395 72.9993C190.098 73.9472 191.621 72.6201 191.621 72.6201" stroke="#653431" stroke-linecap="round" stroke-linejoin="round"/>
<path d="M208.674 46.5602C208.674 46.5602 212.461 50.3332 211.139 54.3052C209.816 58.2677 208.484 66.0127 210.187 68.6575" stroke="#653431" stroke-linecap="round" stroke-linejoin="round"/>
<path d="M212.271 69.9752C212.271 69.9752 215.116 71.4825 213.594 73.5586C212.081 75.6346 208.854 77.1419 208.854 77.1419" stroke="#653431" stroke-linecap="round" stroke-linejoin="round"/>
<path d="M207.912 79.2274V86.0244C207.912 86.0244 210.187 87.7213 208.864 89.6078C207.541 91.4942 206.019 93.1911 201.851 92.4422C197.682 91.6838 194.456 88.2901 194.456 88.2901C194.456 88.2901 190.479 92.4422 190.479 95.2767C190.479 98.1111 193.134 101.505 193.514 106.415C193.895 111.326 193.895 113.402 193.895 113.402" stroke="#653431" stroke-linecap="round" stroke-linejoin="round"/>
<path d="M174.358 77.5306C174.358 77.5306 177.203 78.6681 175.31 83.3891C173.416 88.11 172.274 90.7548 172.274 90.7548L191.23 110.397" stroke="#653431" stroke-linecap="round" stroke-linejoin="round"/>
<path d="M172.464 73.9472C172.464 73.9472 169.048 69.4159 167.725 61.6709C166.402 53.926 167.725 45.8113 178.906 41.0904C190.088 36.3695 198.815 38.4455 207.151 44.1144" stroke="#653431" stroke-linecap="round" stroke-linejoin="round"/>
<path d="M209.806 50.153C209.806 50.153 205.447 45.6217 199.757 45.0529C194.066 44.4842 195.969 49.3947 197.673 51.4707C199.376 53.5468 202.031 56.95 199.757 59.2157C197.482 61.4814 195.969 61.4814 195.969 61.4814" stroke="#653431" stroke-linecap="round" stroke-linejoin="round"/>
<path d="M195.779 64.1262C195.779 64.1262 191.611 77.7202 193.505 79.0473C195.398 80.3745 198.053 82.6307 198.053 82.6307C198.053 82.6307 201.47 76.9618 207.341 76.7722" stroke="#653431" stroke-linecap="round" stroke-linejoin="round"/>
<path d="M205.448 78.8577C205.448 78.8577 202.031 81.1234 201.279 83.0099C200.518 84.8963 201.85 86.7828 204.877 86.4131" stroke="#653431" stroke-linecap="round" stroke-linejoin="round"/>
<path d="M208.674 60.3438C208.674 60.3438 206.209 58.6469 204.505 60.5334" stroke="#653431" stroke-linecap="round" stroke-linejoin="round"/>
<path d="M208.103 65.8231C208.103 65.8231 206.59 65.0647 205.448 65.8231" stroke="#653431" stroke-linecap="round" stroke-linejoin="round"/>
<path d="M186.491 72.6201C186.491 72.6201 181.942 78.4785 177.203 79.2274" stroke="#653431" stroke-linecap="round" stroke-linejoin="round"/>
<path d="M191.42 74.5065C191.42 74.5065 188.194 81.3035 189.717 83.0004C191.23 84.6973 193.885 87.1525 193.885 87.1525" stroke="#653431" stroke-linecap="round" stroke-linejoin="round"/>
<path d="M170.57 92.0725L163.938 99.6279L180.049 119.26L190.479 112.463" stroke="#653431" stroke-linecap="round" stroke-linejoin="round"/>
<path d="M163.557 101.704C163.557 101.704 145.552 110.198 143.087 120.777C140.622 131.357 138.348 156.468 140.622 181.391" stroke="#653431" stroke-linecap="round" stroke-linejoin="round"/>
<path d="M140.623 185.922C140.623 185.922 141.194 201.782 146.313 209.527C151.433 217.272 159.389 228.6 159.389 228.6L171.712 216.703L163.186 192.909" stroke="#653431" stroke-linecap="round" stroke-linejoin="round"/>
<path d="M161.092 187.06C161.092 187.06 156.353 176.859 160.902 157.416C165.451 137.964 164.88 122.673 159.95 118.331" stroke="#653431" stroke-linecap="round" stroke-linejoin="round"/>
<path d="M195.408 114.359C195.979 115.118 206.399 132.864 204.886 138.343C203.373 143.823 201.47 162.896 205.076 168.934C208.673 174.973 210.577 203.867 206.399 214.447" stroke="#653431" stroke-linecap="round" stroke-linejoin="round"/>
<path d="M170.38 209.716C170.38 209.716 190.288 215.575 202.602 214.248" stroke="#653431" stroke-linecap="round" stroke-linejoin="round"/>
<path d="M171.522 213.489C171.522 213.489 192.943 219.158 199.195 218.779C205.448 218.4 206.209 216.703 206.209 216.703" stroke="#653431" stroke-linecap="round" stroke-linejoin="round"/>
<path d="M170 136.826C170 136.826 183.265 144.192 184.217 144.003C185.169 143.813 191.992 137.395 191.992 137.395" stroke="#653431" stroke-linecap="round" stroke-linejoin="round"/>
<path d="M170 133.423L191.421 131.347" stroke="#653431" stroke-linecap="round" stroke-linejoin="round"/>
<path d="M170.38 140.04C170.38 140.04 169.809 160.81 170.57 161C171.332 161.189 194.076 158.924 194.837 158.355" stroke="#653431" stroke-linecap="round" stroke-linejoin="round"/>
<path d="M192.943 134.182L196.16 156.089" stroke="#653431" stroke-linecap="round" stroke-linejoin="round"/>
<path d="M191.42 97.3622C191.42 97.3622 194.266 97.1726 196.731 103.031C199.195 108.89 201.279 113.98 201.279 113.98L194.456 111.715" stroke="#653431" stroke-linecap="round" stroke-linejoin="round"/>
<path d="M199.005 106.425C199.005 106.425 206.399 109.828 207.722 111.715C209.045 113.601 217.39 161.189 220.045 178.187C222.701 195.184 225.165 208.588 223.272 209.157C221.378 209.726 212.651 211.612 212.651 211.612" stroke="#653431" stroke-linecap="round" stroke-linejoin="round"/>
<path d="M211.709 208.579C211.709 208.579 213.794 197.25 210.948 180.443C208.103 163.635 204.886 151.549 204.886 151.549" stroke="#653431" stroke-linecap="round" stroke-linejoin="round"/>
<path d="M206.97 130.598C206.97 130.598 208.674 153.444 209.625 155.331C210.577 157.217 213.042 156.649 213.042 156.649" stroke="#653431" stroke-linecap="round" stroke-linejoin="round"/>
<path d="M207.351 135.878L211.9 137.955" stroke="#653431" stroke-linecap="round" stroke-linejoin="round"/>
<path d="M172.464 198.198L187.443 184.794" stroke="#653431" stroke-linecap="round" stroke-linejoin="round"/>
<path d="M186.491 188.188L176.451 197.63" stroke="#653431" stroke-linecap="round" stroke-linejoin="round"/>
<path d="M171.712 218.021L173.416 220.665L163.366 230.676L161.282 228.41" stroke="#653431" stroke-linecap="round" stroke-linejoin="round"/>
<path d="M173.416 220.665C173.416 220.665 177.393 221.983 179.477 222.931C181.562 223.879 185.168 228.221 185.92 228.41C186.672 228.6 189.336 229.169 186.872 230.297C184.407 231.434 181.181 228.41 180.048 228.031C178.906 227.652 176.071 229.349 176.071 229.349" stroke="#653431" stroke-linecap="round" stroke-linejoin="round"/>
<path d="M165.07 230.107L169.809 234.828L173.987 231.055" stroke="#653431" stroke-linecap="round" stroke-linejoin="round"/>
<path d="M169.809 234.828L167.535 237.663" stroke="#653431" stroke-linecap="round" stroke-linejoin="round"/>
<path d="M157.685 228.41C157.685 228.41 160.34 244.649 164.128 257.494C167.915 270.339 172.464 284.502 170.951 291.669C169.438 298.845 166.973 306.78 167.163 316.591C167.354 326.412 172.283 343.22 172.664 344.917" stroke="#653431" stroke-linecap="round" stroke-linejoin="round"/>
<path d="M173.796 349.827C173.796 349.827 175.309 357.762 175.119 358.7C174.929 359.648 183.646 361.535 191.801 362.473C199.957 363.421 204.696 363.042 204.877 361.335C205.058 359.629 203.173 357.563 198.244 353.211C193.314 348.87 188.385 343.77 188.385 343.77" stroke="#653431" stroke-linecap="round" stroke-linejoin="round"/>
<path d="M188.765 341.333C188.765 341.333 189.717 340.385 188.956 337.181C188.194 333.967 187.443 330.005 188.194 327.36C188.956 324.715 190.469 303.945 195.208 293.366C199.947 282.786 198.434 261.827 198.434 261.827" stroke="#653431" stroke-linecap="round" stroke-linejoin="round"/>
<path d="M199.195 256.925L201.279 228.79" stroke="#653431" stroke-linecap="round" stroke-linejoin="round"/>
<path d="M201.089 232.942L204.506 229.358" stroke="#653431" stroke-linecap="round" stroke-linejoin="round"/>
<path d="M222.701 210.664C222.701 210.664 213.793 214.437 212.08 214.437C210.367 214.437 210.377 211.413 210.377 211.413" stroke="#653431" stroke-linecap="round" stroke-linejoin="round"/>
<path d="M215.687 214.058C215.687 214.058 216.448 224.069 216.448 234.259C216.448 244.45 210.758 283.734 209.244 290.152C207.731 296.57 191.991 335.285 191.801 337.74C191.611 340.196 194.075 345.865 194.075 345.865" stroke="#653431" stroke-linecap="round" stroke-linejoin="round"/>
<path d="M195.408 347.381L206.399 354.937C206.399 354.937 213.793 359.658 210.567 360.795C207.341 361.933 206.209 361.554 206.209 361.554" stroke="#653431" stroke-linecap="round" stroke-linejoin="round"/>
<path d="M173.606 347.192C173.606 347.192 179.487 347.95 183.655 343.788" stroke="#653431" stroke-linecap="round" stroke-linejoin="round"/>
<path d="M163.937 234.458C163.937 234.458 163.557 241.635 169.057 258.063C174.557 274.491 175.88 285.251 175.88 285.251" stroke="#653431" stroke-linecap="round" stroke-linejoin="round"/>
<path d="M175.5 290.92C175.5 290.92 174.358 298.475 172.274 306.59C170.19 314.714 177.584 327.55 178.526 330.005C179.468 332.46 175.11 334.536 177.384 338.129C179.658 341.712 179.278 343.229 178.526 343.419" stroke="#653431" stroke-linecap="round" stroke-linejoin="round"/>
<path d="M231.418 147.216C220.798 149.292 221.369 146.268 221.369 146.268C221.369 146.268 218.333 120.588 217.771 120.588C217.771 120.588 223.833 117.943 236.347 120.398" stroke="#653431" stroke-linecap="round" stroke-linejoin="round"/>
<path d="M217.771 120.588C217.771 120.588 222.701 123.991 235.025 121.725" stroke="#653431" stroke-linecap="round" stroke-linejoin="round"/>
<path d="M239.383 129.081C239.383 129.081 236.728 126.247 235.215 126.626C233.702 127.005 230.856 129.461 230.856 130.778C230.856 132.096 233.131 131.347 234.082 130.968L235.034 130.589L236.928 131.158" stroke="#653431" stroke-linecap="round" stroke-linejoin="round"/>
<path d="M234.073 132.864C234.073 132.864 227.821 135.319 228.192 136.826C228.572 138.334 229.334 138.713 229.895 138.523C230.457 138.334 237.48 135.878 238.422 134.75C239.373 133.613 239.744 131.347 239.744 131.347" stroke="#653431" stroke-linecap="round" stroke-linejoin="round"/>
<path d="M228.953 139.85C228.953 139.85 228.382 142.306 229.143 142.495C229.905 142.685 237.67 140.04 238.622 138.912C239.573 137.784 238.431 134.76 238.431 134.76" stroke="#653431" stroke-linecap="round" stroke-linejoin="round"/>
<path d="M236.537 141.358L235.215 144.192C235.215 144.192 229.524 148.913 231.427 149.292C233.321 149.672 237.118 147.785 238.06 145.14C239.012 142.495 239.012 140.988 239.012 140.988" stroke="#653431" stroke-linecap="round" stroke-linejoin="round"/>
<path d="M218.723 127.764C218.723 127.764 214.935 127.764 215.306 130.598C215.677 133.433 219.284 134.182 219.284 134.182" stroke="#653431" stroke-linecap="round" stroke-linejoin="round"/>
<path d="M236.728 148.344C236.728 148.344 236.157 150.61 231.418 151.748C226.679 152.885 223.453 148.534 223.453 148.534L217.952 157.786" stroke="#653431" stroke-linecap="round" stroke-linejoin="round"/>
<path d="M222.32 153.065C222.32 153.065 227.059 161.189 228.382 162.128C229.705 163.076 231.979 154.193 231.979 154.193" stroke="#653431" stroke-linecap="round" stroke-linejoin="round"/>
<path d="M231.418 151.748L228.582 158.734" stroke="#653431" stroke-linecap="round" stroke-linejoin="round"/>
<path d="M232.179 158.545C232.179 158.545 228.011 171.39 225.546 174.594C223.081 177.807 221.378 178.746 221.378 178.746" stroke="#653431" stroke-linecap="round" stroke-linejoin="round"/>
</g>
<path d="M258.133 52.5232C259.949 52.5232 261.279 54.2084 261.279 56.868C261.279 59.5539 259.949 61.2392 258.133 61.2392C256.302 61.2392 254.986 59.5539 254.986 56.868C254.986 54.2084 256.302 52.5232 258.133 52.5232ZM258.133 54.1163C257.25 54.1163 256.658 55.0774 256.658 56.868C256.658 58.6849 257.25 59.6592 258.133 59.6592C259.028 59.6592 259.607 58.6849 259.607 56.868C259.607 55.0774 259.028 54.1163 258.133 54.1163ZM263.281 51.6674H265.018V63.8987H263.281V51.6674ZM260.766 56.0649H264.018V57.4736H260.766V56.0649ZM275.261 51.6674H277.025V63.8987H275.261V51.6674ZM270.455 52.5232C272.298 52.5232 273.654 54.2084 273.654 56.868C273.654 59.5539 272.298 61.2392 270.455 61.2392C268.612 61.2392 267.256 59.5539 267.256 56.868C267.256 54.2084 268.612 52.5232 270.455 52.5232ZM270.455 54.1163C269.547 54.1163 268.928 55.0774 268.928 56.868C268.928 58.6849 269.547 59.6592 270.455 59.6592C271.363 59.6592 271.969 58.6849 271.969 56.868C271.969 55.0774 271.363 54.1163 270.455 54.1163ZM293.173 51.6805H294.924V63.8724H293.173V51.6805ZM290.817 56.3545H294.016V57.7765H290.817V56.3545ZM289.171 52.9445H290.896C290.896 56.6442 289.724 59.6592 285.498 61.779L284.576 60.4097C288.025 58.6981 289.171 56.4862 289.171 53.2605V52.9445ZM285.155 52.9445H290.092V54.3269H285.155V52.9445ZM305.233 51.6805H306.997V63.8724H305.233V51.6805ZM301.638 52.9445H303.376C303.376 56.6705 302.112 59.725 297.78 61.8185L296.872 60.4229C300.374 58.7376 301.638 56.5257 301.638 53.2605V52.9445ZM297.517 52.9445H302.468V54.3269H297.517V52.9445ZM254.802 79.0417H265.835V80.4636H254.802V79.0417ZM259.423 76.3426H261.174V79.3708H259.423V76.3426ZM255.947 70.5758H264.623V76.5664H255.947V70.5758ZM262.912 71.9715H257.672V75.184H262.912V71.9715ZM272.351 72.1689H275.669V73.5777H272.351V72.1689ZM272.351 75.9476H275.669V77.3564H272.351V75.9476ZM270.244 70.5232C272.061 70.5232 273.391 72.2084 273.391 74.868C273.391 77.5539 272.061 79.2392 270.244 79.2392C268.414 79.2392 267.098 77.5539 267.098 74.868C267.098 72.2084 268.414 70.5232 270.244 70.5232ZM270.244 72.1163C269.362 72.1163 268.757 73.0774 268.757 74.868C268.757 76.6849 269.362 77.6592 270.244 77.6592C271.14 77.6592 271.732 76.6849 271.732 74.868C271.732 73.0774 271.14 72.1163 270.244 72.1163ZM275.392 69.6674H277.13V81.8987H275.392V69.6674ZM287.459 77.0799H288.776V77.4881C288.776 79.3313 287.96 81.0166 286.05 81.7012L285.195 80.4241C286.788 79.8843 287.459 78.673 287.459 77.4881V77.0799ZM287.907 77.0799H289.158V77.4881C289.158 78.673 289.75 79.9106 291.238 80.5294L290.54 81.8197C288.605 81.0956 287.907 79.2787 287.907 77.4881V77.0799ZM291.909 77.0799H293.16V77.4881C293.16 79.1733 292.436 81.0692 290.54 81.8197L289.816 80.5294C291.304 79.858 291.909 78.5677 291.909 77.4881V77.0799ZM292.318 77.0799H293.634V77.4881C293.634 78.752 294.292 79.9238 295.899 80.4241L295.043 81.7012C293.108 81.0429 292.318 79.4103 292.318 77.4881V77.0799ZM293.094 69.6937H294.859V76.5796H293.094V69.6937ZM288.223 70.3125C290.119 70.3125 291.528 71.5238 291.528 73.2354C291.528 74.9338 290.119 76.1451 288.223 76.1451C286.327 76.1451 284.905 74.9338 284.905 73.2354C284.905 71.5238 286.327 70.3125 288.223 70.3125ZM288.223 71.7608C287.301 71.7608 286.617 72.3006 286.617 73.2354C286.617 74.157 287.301 74.6968 288.223 74.6968C289.145 74.6968 289.816 74.157 289.816 73.2354C289.816 72.3006 289.145 71.7608 288.223 71.7608ZM299.769 71.6028H301.164V72.9721C301.164 75.7896 300.019 78.5413 297.728 79.5815L296.74 78.199C298.781 77.2906 299.769 75.0392 299.769 72.9721V71.6028ZM300.164 71.6028H301.546V72.9721C301.546 74.947 302.52 77.0536 304.561 77.8962L303.613 79.2787C301.296 78.278 300.164 75.6843 300.164 72.9721V71.6028ZM297.228 70.8523H304.061V72.2874H297.228V70.8523ZM305.193 69.6805H306.957V81.8724H305.193V69.6805ZM309.313 70.826H315.146V78.91H309.313V70.826ZM313.421 72.1953H311.038V77.5276H313.421V72.1953ZM316.739 69.6805H318.503V81.8724H316.739V69.6805ZM318.108 74.2755H320.267V75.7238H318.108V74.2755Z" fill="black"/>
<path d="M68.4765 237.467C70.3329 237.467 71.6758 238.534 71.6758 240.074C71.6758 241.588 70.3329 242.681 68.4765 242.681C66.6332 242.681 65.2903 241.588 65.2903 240.074C65.2903 238.534 66.6332 237.467 68.4765 237.467ZM68.4765 238.889C67.5944 238.889 66.9624 239.31 66.9624 240.074C66.9624 240.824 67.5944 241.246 68.4765 241.246C69.3718 241.246 70.0038 240.824 70.0038 240.074C70.0038 239.31 69.3718 238.889 68.4765 238.889ZM67.6602 243.892H69.4113V248.803H67.6602V243.892ZM72.9925 236.98H74.7304V249.172H72.9925V236.98ZM64.7768 244.814L64.5661 243.392C66.6991 243.392 69.7141 243.366 72.2947 242.971L72.4132 244.248C69.7668 244.774 66.8834 244.801 64.7768 244.814ZM79.456 244.195H81.2071V246.17H79.456V244.195ZM84.5776 236.98H86.3419V249.172H84.5776V236.98ZM85.7231 241.93H87.8692V243.379H85.7231V241.93ZM76.7174 247.144L76.5068 245.735C78.6134 245.735 81.5099 245.722 83.972 245.38L84.1036 246.644C81.5362 247.144 78.7714 247.144 76.7174 247.144ZM76.7306 238.323H83.9061V239.692H76.7306V238.323ZM80.3381 240.179C82.0761 240.179 83.3137 241.101 83.3137 242.457C83.3137 243.826 82.0761 244.748 80.3381 244.748C78.587 244.748 77.3626 243.826 77.3626 242.457C77.3626 241.101 78.587 240.179 80.3381 240.179ZM80.3381 241.496C79.535 241.496 79.0215 241.838 79.0215 242.457C79.0215 243.089 79.535 243.431 80.3381 243.431C81.1281 243.431 81.6547 243.089 81.6547 242.457C81.6547 241.838 81.1281 241.496 80.3381 241.496ZM79.456 237.046H81.2071V239.35H79.456V237.046ZM96.5973 236.98H98.3484V243.774H96.5973V236.98ZM97.8612 239.626H99.9678V241.061H97.8612V239.626ZM93.0951 237.678H94.9647C94.9647 240.917 92.9371 243.115 89.3032 244.063L88.6186 242.681C91.6073 241.93 93.0951 240.377 93.0951 238.547V237.678ZM89.1979 237.678H94.1484V239.06H89.1979V237.678ZM90.4355 244.261H98.3484V249.04H90.4355V244.261ZM96.6236 245.643H92.1603V247.658H96.6236V245.643ZM64.5398 264.341H75.573V265.763H64.5398V264.341ZM69.1743 261.642H70.9254V264.736H69.1743V261.642ZM69.1216 256.573H70.5962V257.008C70.5962 259.575 68.753 261.616 65.6458 262.182L64.9611 260.799C67.6733 260.378 69.1216 258.693 69.1216 257.008V256.573ZM69.4771 256.573H70.9517V257.008C70.9517 258.693 72.4 260.325 75.178 260.734L74.5066 262.116C71.3467 261.563 69.4771 259.575 69.4771 257.008V256.573ZM65.4483 255.902H74.6251V257.297H65.4483V255.902ZM79.4692 255.612H80.9306V256.705C80.9306 259.154 79.8378 261.3 77.4416 262.103L76.5331 260.694C78.6134 260.023 79.4692 258.377 79.4692 256.705V255.612ZM79.8378 255.612H81.2466V256.626C81.2466 258.245 82.0366 259.746 83.972 260.365L83.0635 261.734C80.8121 260.957 79.8378 258.996 79.8378 256.626V255.612ZM85.0911 254.98H86.8422V262.116H85.0911V254.98ZM82.708 262.432C85.2886 262.432 86.8817 263.314 86.8817 264.802C86.8817 266.303 85.2886 267.172 82.708 267.172C80.1275 267.172 78.5344 266.303 78.5344 264.802C78.5344 263.314 80.1275 262.432 82.708 262.432ZM82.708 263.788C81.1281 263.788 80.2855 264.117 80.2855 264.802C80.2855 265.487 81.1281 265.829 82.708 265.829C84.3011 265.829 85.1438 265.487 85.1438 264.802C85.1438 264.117 84.3011 263.788 82.708 263.788ZM82.866 257.192H85.3413V258.614H82.866V257.192ZM96.5709 254.98H98.3089V267.172H96.5709V254.98ZM97.9139 259.733H100.073V261.194H97.9139V259.733ZM88.6976 256.784H95.7941V258.179H88.6976V256.784ZM92.2656 258.864C94.043 258.864 95.3596 260.075 95.3596 261.774C95.3596 263.472 94.043 264.683 92.2656 264.683C90.4882 264.683 89.1716 263.472 89.1716 261.774C89.1716 260.075 90.4882 258.864 92.2656 258.864ZM92.2656 260.286C91.4361 260.286 90.8437 260.839 90.8437 261.774C90.8437 262.708 91.4361 263.261 92.2656 263.261C93.0951 263.261 93.6875 262.708 93.6875 261.774C93.6875 260.839 93.0951 260.286 92.2656 260.286ZM91.3835 255.177H93.1346V257.31H91.3835V255.177ZM103.798 256.902H105.194V258.271C105.194 261.089 104.048 263.841 101.757 264.881L100.77 263.498C102.811 262.59 103.798 260.339 103.798 258.271V256.902ZM104.193 256.902H105.576V258.271C105.576 260.246 106.55 262.353 108.591 263.196L107.643 264.578C105.325 263.577 104.193 260.984 104.193 258.271V256.902ZM101.257 256.152H108.09V257.587H101.257V256.152ZM109.223 254.98H110.987V267.172H109.223V254.98ZM113.343 256.125H119.175V264.209H113.343V256.125ZM117.45 257.495H115.067V262.827H117.45V257.495ZM120.768 254.98H122.532V267.172H120.768V254.98ZM122.137 259.575H124.297V261.023H122.137V259.575Z" fill="black"/>
<defs>
<filter id="filter0_d_186_252" x="226.389" y="24.3145" width="130.983" height="104.142" filterUnits="userSpaceOnUse" color-interpolation-filters="sRGB">
<feFlood flood-opacity="0" result="BackgroundImageFix"/>
<feColorMatrix in="SourceAlpha" type="matrix" values="0 0 0 0 0 0 0 0 0 0 0 0 0 0 0 0 0 0 127 0" result="hardAlpha"/>
<feOffset dy="2.92581"/>
<feGaussianBlur stdDeviation="1.4629"/>
<feComposite in2="hardAlpha" operator="out"/>
<feColorMatrix type="matrix" values="0 0 0 0 0 0 0 0 0 0 0 0 0 0 0 0 0 0 0.25 0"/>
<feBlend mode="normal" in2="BackgroundImageFix" result="effect1_dropShadow_186_252"/>
<feBlend mode="normal" in="SourceGraphic" in2="effect1_dropShadow_186_252" result="shape"/>
</filter>
<filter id="filter1_d_186_252" x="40.331" y="211.532" width="103.216" height="81.0025" filterUnits="userSpaceOnUse" color-interpolation-filters="sRGB">
<feFlood flood-opacity="0" result="BackgroundImageFix"/>
<feColorMatrix in="SourceAlpha" type="matrix" values="0 0 0 0 0 0 0 0 0 0 0 0 0 0 0 0 0 0 127 0" result="hardAlpha"/>
<feOffset dy="2.92581"/>
<feGaussianBlur stdDeviation="1.4629"/>
<feComposite in2="hardAlpha" operator="out"/>
<feColorMatrix type="matrix" values="0 0 0 0 0 0 0 0 0 0 0 0 0 0 0 0 0 0 0.25 0"/>
<feBlend mode="normal" in2="BackgroundImageFix" result="effect1_dropShadow_186_252"/>
<feBlend mode="normal" in="SourceGraphic" in2="effect1_dropShadow_186_252" result="shape"/>
</filter>
<radialGradient id="paint0_radial_186_252" cx="0" cy="0" r="1" gradientUnits="userSpaceOnUse" gradientTransform="translate(195.5 196.217) rotate(90) scale(167.484)">
<stop stop-color="#F9BBBB"/>
<stop offset="1" stop-color="#B7864C" stop-opacity="0"/>
</radialGradient>
<clipPath id="clip0_186_252">
<rect width="109" height="332" fill="white" transform="translate(133 38)"/>
</clipPath>
</defs>
</svg>
