<svg width="118" height="109" viewBox="0 0 118 109" fill="none" xmlns="http://www.w3.org/2000/svg">
<g clip-path="url(#clip0_186_1997)">
<path d="M34.33 85.4674C34.33 85.4674 31.0185 124.035 29.9147 129.958C28.8108 135.872 28.1503 142.664 29.028 142.889C29.9147 143.104 35.8772 143.768 37.6416 144.863C39.4059 145.958 41.8398 140.044 41.8398 140.044L48.9062 117.036L46.2552 87.0108L34.321 85.4764L34.33 85.4674Z" fill="#A1958E"/>
<path d="M38.1029 145.581C37.8315 145.581 37.5691 145.509 37.3339 145.356C36.0943 144.585 32.3485 144.01 30.3308 143.696C29.6341 143.589 29.1274 143.508 28.8831 143.454C27.0283 142.996 28.7565 132.928 29.3355 129.85C30.4213 124.026 33.7147 85.8083 33.7419 85.4225C33.7509 85.2609 33.8323 85.1174 33.959 85.0187C34.0857 84.92 34.2395 84.8751 34.4024 84.893L46.3365 86.4275C46.608 86.4634 46.8251 86.6788 46.8432 86.9569L49.4942 116.982C49.4942 117.054 49.4942 117.135 49.4671 117.207L42.4007 140.215C42.0659 141.04 40.383 144.926 38.5915 145.509C38.4287 145.563 38.2658 145.59 38.1029 145.59V145.581ZM29.3265 142.35C29.5798 142.395 30.0232 142.467 30.5118 142.539C33.4161 142.987 36.6281 143.535 37.9582 144.36C38.0306 144.405 38.1029 144.423 38.2387 144.387C39.1796 144.082 40.6002 141.534 41.3059 139.82L48.327 116.964L45.7303 87.5223L34.8728 86.1224C34.4295 91.2373 31.5342 124.52 30.5027 130.057C29.3808 136.06 28.9827 141.345 29.3355 142.35H29.3265Z" fill="#333333"/>
<mask id="mask0_186_1997" style="mask-type:luminance" maskUnits="userSpaceOnUse" x="28" y="85" width="21" height="60">
<path d="M34.33 85.4674C34.33 85.4674 31.0185 124.035 29.9147 129.958C28.8108 135.872 28.1503 142.664 29.028 142.889C29.9147 143.104 35.8772 143.768 37.6416 144.863C39.4059 145.958 41.8398 140.044 41.8398 140.044L48.9062 117.036L46.2552 87.0108L34.321 85.4764L34.33 85.4674Z" fill="white"/>
</mask>
<g mask="url(#mask0_186_1997)">
<path d="M45.595 98.8558C45.4322 98.8558 45.2602 98.8109 45.1064 98.7122C40.4649 95.7868 30.7655 94.4767 30.666 94.4588C30.1684 94.3959 29.8245 93.9383 29.8879 93.4537C29.9512 92.9602 30.4127 92.6192 30.9012 92.682C31.3174 92.7359 41.0982 94.055 46.0746 97.1957C46.4998 97.4649 46.6174 98.0123 46.355 98.434C46.1831 98.7032 45.8936 98.8468 45.595 98.8468V98.8558Z" fill="white"/>
<path d="M49.5762 109.812C49.3862 109.812 49.1962 109.749 49.0243 109.633C44.6451 106.322 29.9785 105.002 29.8247 104.994C29.327 104.949 28.9561 104.518 29.0013 104.024C29.0465 103.531 29.4808 103.172 29.9785 103.208C30.6028 103.262 45.3146 104.59 50.11 108.206C50.5081 108.502 50.5805 109.067 50.2819 109.462C50.101 109.696 49.8295 109.812 49.5581 109.812H49.5762Z" fill="white"/>
</g>
<path d="M38.1029 145.581C37.8315 145.581 37.5691 145.509 37.3339 145.356C36.0943 144.585 32.3485 144.01 30.3308 143.696C29.6341 143.589 29.1274 143.508 28.8831 143.454C27.0283 142.996 28.7565 132.928 29.3355 129.85C30.4213 124.026 33.7147 85.8083 33.7419 85.4225C33.7509 85.2609 33.8323 85.1174 33.959 85.0187C34.0857 84.92 34.2395 84.8751 34.4024 84.893L46.3365 86.4275C46.608 86.4634 46.8251 86.6788 46.8432 86.9569L49.4942 116.982C49.4942 117.054 49.4942 117.135 49.4671 117.207L42.4007 140.215C42.0659 141.04 40.383 144.926 38.5915 145.509C38.4287 145.563 38.2658 145.59 38.1029 145.59V145.581ZM29.3265 142.35C29.5798 142.395 30.0232 142.467 30.5118 142.539C33.4161 142.987 36.6281 143.535 37.9582 144.36C38.0306 144.405 38.1029 144.423 38.2387 144.387C39.1796 144.082 40.6002 141.534 41.3059 139.82L48.327 116.964L45.7303 87.5223L34.8728 86.1224C34.4295 91.2373 31.5342 124.52 30.5027 130.057C29.3808 136.06 28.9827 141.345 29.3355 142.35H29.3265Z" fill="#333333"/>
<path d="M60.551 47.4827C60.551 47.4827 61.2839 41.4884 61.1392 40.4744C60.9944 39.4604 74.3943 29.3741 74.3943 29.3741C74.3943 29.3741 72.7747 43.8394 73.5076 46.6122L72.3314 48.6582L67.3189 50.8477L63.4916 50.5516L60.542 47.4827H60.551Z" fill="white"/>
<path d="M67.3275 51.4308C67.3275 51.4308 67.3004 51.4308 67.2823 51.4308L63.455 51.1347C63.3102 51.1257 63.1745 51.0629 63.075 50.9552L60.1254 47.8863C60.0078 47.7606 59.9444 47.5901 59.9716 47.4107C60.2521 45.1224 60.6592 41.2369 60.5597 40.5549C60.5054 40.178 60.3606 39.191 74.041 28.9073C74.231 28.7638 74.4844 28.7458 74.6834 28.8625C74.8915 28.9791 75.0001 29.2035 74.982 29.4368C74.5296 33.43 73.4982 44.27 74.0772 46.4595C74.1134 46.6031 74.0953 46.7646 74.0229 46.8992L72.8467 48.9451C72.7834 49.0528 72.6929 49.1426 72.5753 49.1874L67.5627 51.377C67.4904 51.4129 67.4089 51.4308 67.3275 51.4308ZM63.7626 49.9861L67.2189 50.2463L71.9148 48.1914L72.8829 46.5044C72.3672 43.7674 73.2901 34.2196 73.661 30.6392C68.0151 34.9196 62.315 39.5409 61.7269 40.5101C61.8083 41.7125 61.3107 46.0377 61.1568 47.2671L63.7536 49.9771L63.7626 49.9861Z" fill="#333333"/>
<path d="M43.6132 88.249C36.8363 88.6887 31.5342 84.5968 31.9776 82.9906C32.4209 81.3843 33.5971 67.6459 36.2482 61.0773C38.8992 54.5087 43.9117 52.7499 48.4719 51.0001C53.0411 49.2502 59.076 48.3708 59.076 48.3708L60.5508 46.0377C60.5508 46.0377 62.0256 49.3938 65.8529 49.2502C69.6801 49.1067 72.485 47.9311 73.3626 46.1813L75.1269 47.2043C75.1269 47.2043 92.8065 53.6293 97.2219 66.4883C101.637 79.3473 79.8409 77.3014 79.8409 77.3014L88.3821 85.3326C88.3821 85.3326 88.3821 106.367 88.6807 110.755C88.9793 115.134 91.775 118.203 90.3002 119.522C88.8254 120.841 81.759 126.683 70.1144 126.386C58.4788 126.09 46.3999 122.591 46.1013 121.128C45.8027 119.665 45.5132 116.309 44.7713 110.315C44.0384 104.321 43.0069 105.2 43.4412 101.108C43.8846 97.0161 43.586 88.249 43.586 88.249H43.6132Z" fill="#80A99B"/>
<path d="M70.9651 126.97C70.6846 126.97 70.3951 126.97 70.1056 126.961C59.7638 126.701 45.9839 123.488 45.5315 121.236C45.3506 120.338 45.1696 118.75 44.8982 116.354C44.7172 114.757 44.491 112.774 44.2015 110.378C43.8848 107.784 43.5048 106.492 43.2243 105.541C42.8533 104.276 42.609 103.441 42.8714 101.045C43.2424 97.6533 43.0886 90.8963 43.0343 88.8593C37.5965 88.9849 33.4616 86.4634 32.0592 84.7584C31.4801 84.0495 31.2539 83.3855 31.4078 82.8291C31.5163 82.4433 31.6882 81.1242 31.9054 79.4551C32.584 74.3312 33.715 65.7615 35.6965 60.853C38.3656 54.2306 43.4143 52.3013 47.8659 50.5963L48.264 50.4438C52.3446 48.8734 57.4838 48.012 58.7233 47.8235L60.0534 45.7148C60.171 45.5353 60.3791 45.4276 60.5962 45.4455C60.8134 45.4635 61.0034 45.5981 61.0939 45.7955C61.1482 45.9122 62.4149 48.667 65.6178 48.667C65.6902 48.667 65.7626 48.667 65.835 48.667C69.3727 48.5324 72.0599 47.4825 72.8471 45.9211C72.9195 45.7776 73.0461 45.6699 73.209 45.625C73.3628 45.5801 73.5347 45.5981 73.6704 45.6789L75.3986 46.6749C75.9234 46.8723 80.1125 48.4696 84.8627 51.5385C89.4771 54.5177 95.4668 59.507 97.8012 66.2999C98.8326 69.3061 98.5793 71.8097 97.0502 73.73C93.6844 77.9565 85.0708 78.118 81.4426 77.9745L88.8166 84.911C88.9342 85.0187 88.9976 85.1712 88.9976 85.3327C88.9976 85.5391 88.9976 106.402 89.2871 110.719C89.4138 112.621 90.0562 114.308 90.5719 115.672C91.2414 117.449 91.8205 118.974 90.7167 119.961C88.8437 121.639 81.9764 126.988 70.9832 126.988L70.9651 126.97ZM43.6134 87.6658C43.7581 87.6658 43.9029 87.7197 44.0115 87.8184C44.1291 87.9261 44.2015 88.0696 44.2015 88.2312C44.2105 88.5901 44.491 97.088 44.0477 101.171C43.8124 103.343 44.0115 104.016 44.3643 105.218C44.6539 106.205 45.0429 107.551 45.3777 110.234C45.6763 112.639 45.8934 114.622 46.0834 116.219C46.3549 118.588 46.5268 120.15 46.6987 121.002C47.4044 122.133 58.7776 125.507 70.1508 125.794C81.1802 126.072 88.0837 120.724 89.9204 119.082C90.4 118.651 90.0743 117.709 89.459 116.067C88.9161 114.64 88.2466 112.863 88.1109 110.782C87.8304 106.636 87.8123 88.0696 87.8123 85.575L79.452 77.7142C79.2711 77.5437 79.2168 77.2745 79.3254 77.0502C79.4339 76.8259 79.6601 76.6823 79.9135 76.7092C80.0311 76.7182 92.291 77.804 96.1273 72.9942C97.394 71.3969 97.584 69.2702 96.6883 66.6679C92.4086 54.2216 75.1181 47.8056 74.9462 47.7428C74.91 47.7338 74.8829 47.7158 74.8557 47.6979L73.58 46.9621C72.3495 48.6311 69.5446 49.681 65.8893 49.8246C62.9758 49.9323 61.3201 48.2453 60.551 47.1505L59.5919 48.667C59.5015 48.8106 59.3476 48.9093 59.1757 48.9362C59.1124 48.9362 53.1498 49.8246 48.6983 51.5296L48.3002 51.6821C43.8667 53.3781 39.2794 55.1369 36.8003 61.2838C34.8731 66.0577 33.7059 74.8696 33.0816 79.6076C32.8373 81.4562 32.6745 82.6766 32.5478 83.1342C32.5206 83.224 32.584 83.5291 32.9821 84.0136C34.3845 85.7186 38.6008 87.9709 43.5862 87.6569C43.5953 87.6569 43.6134 87.6569 43.6224 87.6569L43.6134 87.6658Z" fill="#333333"/>
<path d="M66.296 3.21636C66.296 3.21636 64.6765 0.874279 60.252 1.61011C55.8367 2.33696 53.62 3.35994 51.4123 6.42887C49.2046 9.49781 48.7612 13.7333 48.3179 17.2419C47.8745 20.7506 48.1731 23.5234 47.585 24.1067C46.9969 24.6899 48.0284 25.7129 49.5032 25.8565C50.978 26.0001 53.3304 26.2962 53.3304 26.2962L62.4597 13.2936L66.287 3.21636H66.296Z" fill="#333333"/>
<path d="M53.3303 26.8794C53.3303 26.8794 53.2851 26.8794 53.2579 26.8794C53.2579 26.8794 50.9055 26.5922 49.4397 26.4397C48.2273 26.323 47.1868 25.6859 46.8972 24.8962C46.7344 24.4565 46.8339 24.0168 47.1596 23.6938C47.3406 23.4605 47.3949 22.2311 47.4401 21.1453C47.4854 20.0416 47.5396 18.6686 47.7296 17.17L47.793 16.6855C48.2363 13.1499 48.734 9.13876 50.9326 6.09674C53.3755 2.70476 55.9542 1.73563 60.1524 1.03569C64.8844 0.255 66.694 2.77655 66.7755 2.88423C66.884 3.04576 66.9112 3.24317 66.8388 3.42264L63.0115 13.4999C62.9934 13.5447 62.9753 13.5896 62.9391 13.6255L53.8098 26.6281C53.7013 26.7896 53.5203 26.8794 53.3303 26.8794ZM61.9077 2.0497C61.4372 2.0497 60.9215 2.08559 60.3515 2.1843C55.8637 2.9291 53.8913 3.99695 51.8917 6.76976C49.874 9.57846 49.3854 13.4281 48.9602 16.829L48.8968 17.3136C48.7159 18.7673 48.6616 20.1044 48.6163 21.1902C48.544 22.9579 48.4987 24.0168 47.992 24.5193C48.0101 24.6539 48.5711 25.1834 49.5483 25.2821C50.6793 25.3987 52.326 25.5961 53.0408 25.6769L61.9258 13.0243L65.6083 3.33291C65.1921 2.91115 64.0611 2.0497 61.8896 2.0497H61.9077Z" fill="#333333"/>
<path d="M51.8561 16.8021C51.8561 16.8021 49.6484 23.8104 49.6484 27.4716C49.6484 31.1328 50.6799 33.0262 51.268 36.5259C51.8561 40.0345 53.1862 40.7613 55.0953 41.3446C57.0134 41.9279 60.6959 42.0715 62.9036 40.7613C65.1113 39.4422 72.9196 38.4193 74.3944 29.365C75.8692 20.3108 75.4259 19.1352 75.4259 19.1352L64.9665 7.29919C64.9665 7.29919 63.935 9.6323 60.8407 10.2246C57.7463 10.8078 53.0323 13.5806 51.8561 16.8021Z" fill="white"/>
<path d="M58.3977 42.3587C57.0586 42.3587 55.81 42.1702 54.9324 41.901C53.0052 41.3088 51.3494 40.5101 50.698 36.6156C50.4899 35.3594 50.2184 34.3095 49.956 33.2954C49.5036 31.5277 49.0693 29.8496 49.0693 27.4627C49.0693 23.7656 51.2137 16.9099 51.3042 16.6227C51.3042 16.6227 51.3042 16.6048 51.3042 16.5958C52.6161 13.0243 57.7101 10.2156 60.7321 9.6503C63.4917 9.12983 64.4145 7.08388 64.4236 7.06593C64.505 6.88646 64.6769 6.75186 64.876 6.72494C65.075 6.69802 65.2741 6.7698 65.4098 6.91338L75.8692 18.7494C75.9144 18.8033 75.9506 18.8661 75.9778 18.9289C76.222 19.566 76.0773 22.6619 74.9734 29.4548C73.7248 37.1271 67.9794 39.3436 64.8941 40.5281C64.1884 40.7973 63.5821 41.0306 63.2021 41.2549C61.854 42.0626 60.0535 42.3497 58.3887 42.3497L58.3977 42.3587ZM52.4171 16.9906C52.3085 17.3316 50.2365 24.0169 50.2365 27.4717C50.2365 29.715 50.6256 31.2495 51.087 33.0173C51.3494 34.0582 51.6299 35.126 51.847 36.4362C52.3899 39.6846 53.5571 40.2768 55.2671 40.7973C56.9862 41.3178 60.5059 41.5152 62.5959 40.2679C63.0574 39.9897 63.7088 39.7384 64.4598 39.4513C67.527 38.2668 72.6662 36.2926 73.8063 29.2753C75.0006 21.9081 74.9191 19.8442 74.8649 19.4045L65.0389 8.28632C64.4326 9.11189 63.184 10.3771 60.9402 10.7989C58.1353 11.3283 53.5299 13.9396 52.399 16.9906H52.4171Z" fill="#333333"/>
<path d="M62.9037 7.7479C62.9037 7.7479 62.3156 9.79386 64.0799 11.9834C65.8442 14.1729 68.6491 16.3625 69.2372 20.3108C69.8253 24.2591 70.1239 27.3191 70.5672 28.6382C71.0106 29.9573 72.9197 30.388 73.8064 30.1009C74.6931 29.8137 75.7245 29.0779 75.7245 29.0779C75.7245 29.0779 74.9916 30.8277 76.0231 31.1239C77.0546 31.42 78.2308 31.8507 79.1175 31.5636C80.0042 31.2764 80.8818 29.9573 80.8818 29.9573C80.8818 29.9573 80.4385 31.2764 81.0266 31.42C81.6147 31.5636 83.379 31.5636 83.6776 30.8367C83.9762 30.1098 87.5049 18.8571 82.2028 9.36313C76.9007 -0.130829 68.9477 1.1793 66.2966 3.22526L64.0889 5.41479L62.9127 7.75687L62.9037 7.7479Z" fill="#333333"/>
<path d="M78.4568 32.2365C77.742 32.2365 76.9729 32.0122 76.2853 31.8058L75.86 31.6802C75.4891 31.5725 75.2086 31.3392 75.0457 31.0071C74.9371 30.7738 74.8919 30.5226 74.8828 30.2713C74.6024 30.4149 74.2947 30.5585 73.9962 30.6572C73.408 30.8546 72.5756 30.8008 71.8156 30.5226C70.9018 30.1906 70.2594 29.5804 70.006 28.8266C69.6803 27.8664 69.4541 26.1704 69.1374 23.8104C69.0017 22.7784 68.8389 21.6298 68.6579 20.4005C68.2236 17.4751 66.4502 15.5189 64.8849 13.796C64.4325 13.3024 64.0073 12.8268 63.6182 12.3512C61.682 9.95533 62.3063 7.68503 62.3334 7.58632C62.3425 7.55043 62.3606 7.51454 62.3696 7.48762L63.5458 5.14553C63.573 5.09169 63.6092 5.03785 63.6544 4.99298L65.8621 2.80345C67.2826 1.69971 70.0513 0.712628 73.3628 1.38564C75.9595 1.91508 79.6873 3.67388 82.7002 9.06695C88.3642 19.207 84.2474 30.9264 84.2022 31.043C83.7136 32.2634 81.4607 32.1199 80.8635 31.9763C80.6102 31.9135 80.393 31.7519 80.2663 31.5186C79.9678 31.7789 79.633 32.0032 79.2801 32.1199C79.0087 32.2096 78.7282 32.2455 78.4387 32.2455L78.4568 32.2365ZM75.7243 28.4946C75.851 28.4946 75.9867 28.5394 76.0862 28.6202C76.2943 28.7817 76.3667 29.0599 76.2672 29.3022C76.1224 29.6521 75.9867 30.2623 76.0953 30.5046C76.1043 30.5315 76.1134 30.5495 76.1767 30.5674L76.62 30.6931C77.4253 30.9354 78.3391 31.2046 78.9272 31.0071C79.4249 30.8456 80.0944 30.0739 80.393 29.6342C80.5559 29.3919 80.8725 29.3112 81.144 29.4368C81.4064 29.5624 81.533 29.8675 81.4426 30.1457C81.3611 30.3969 81.3068 30.711 81.3159 30.8815C81.9583 30.9892 83.0259 30.8366 83.1436 30.6213C83.1888 30.5136 87.0251 19.1711 81.7049 9.64125C78.9092 4.63405 75.5162 3.00984 73.1637 2.53425C70.4313 1.97789 67.9341 2.71372 66.6764 3.68285L64.5863 5.75573L63.4825 7.95424C63.4192 8.25036 63.1477 9.86559 64.5683 11.6244C64.9392 12.082 65.3554 12.5397 65.7897 13.0153C67.4636 14.8638 69.3636 16.9547 69.8522 20.23C70.0332 21.4683 70.196 22.6169 70.3318 23.6578C70.6303 25.8653 70.8656 27.6062 71.1551 28.4587C71.3451 29.024 71.9242 29.3112 72.259 29.4278C72.829 29.6342 73.3809 29.6432 73.6523 29.5445C74.4395 29.2842 75.3986 28.6112 75.4076 28.6022C75.5071 28.5305 75.6338 28.4946 75.7514 28.4946H75.7243Z" fill="#333333"/>
<path d="M53.4394 18.22C53.2856 18.22 53.1408 18.1661 53.0232 18.0495C52.797 17.8252 52.797 17.4572 53.0232 17.2329C53.0865 17.1701 54.5523 15.7343 57.33 15.86C57.6557 15.8779 57.909 16.1471 57.8909 16.4702C57.8728 16.7932 57.6195 17.0445 57.2757 17.0265C55.068 16.9457 53.8918 18.0136 53.8465 18.0674C53.7289 18.1751 53.5841 18.229 53.4303 18.229L53.4394 18.22Z" fill="#333333"/>
<path d="M66.477 21.4055C66.2327 21.4055 65.9974 21.2529 65.916 21.0106C65.4455 19.6108 64.0974 18.8211 64.0793 18.8121C63.7988 18.6506 63.6993 18.2917 63.8621 18.0135C64.025 17.7353 64.3779 17.6366 64.6584 17.7981C64.7307 17.843 66.4046 18.8032 67.0199 20.6427C67.1194 20.9478 66.9565 21.2799 66.6489 21.3786C66.5855 21.3965 66.5222 21.4055 66.4589 21.4055H66.477Z" fill="#333333"/>
<path d="M54.2447 23.2541C54.0185 23.954 53.3942 24.3847 52.8513 24.2142C52.3084 24.0437 52.0461 23.3348 52.2723 22.6349C52.4984 21.935 53.1228 21.5042 53.6656 21.6747C54.2085 21.8452 54.4709 22.5541 54.2447 23.2541Z" fill="#333333"/>
<path d="M62.8853 25.9999C62.6591 26.6998 62.0348 27.1306 61.4919 26.9601C60.9491 26.7896 60.6867 26.0807 60.9129 25.3807C61.1391 24.6808 61.7634 24.2501 62.3063 24.4206C62.8491 24.5911 63.1115 25.3 62.8853 25.9999Z" fill="#333333"/>
<path d="M55.6015 30.6932C55.1582 30.6932 54.6063 30.5496 54.1629 30.1997C53.7558 29.8766 53.5205 29.4279 53.4843 28.8985C53.4029 27.7768 54.0724 27.5076 54.561 27.3102C54.7691 27.2294 54.9863 27.1397 55.2125 26.9872C55.6377 26.709 56.5335 24.6002 57.0944 22.8055C57.194 22.5004 57.5197 22.3299 57.8273 22.4196C58.1349 22.5184 58.3068 22.8414 58.2164 23.1465C57.9087 24.1067 56.8411 27.3012 55.8639 27.9473C55.5382 28.1627 55.2396 28.2883 55.0044 28.378C54.8777 28.4319 54.7058 28.5037 54.6696 28.5396C54.6696 28.5396 54.6424 28.6024 54.6515 28.8088C54.6696 29.0152 54.742 29.1587 54.8958 29.2844C55.1401 29.4818 55.502 29.5446 55.6739 29.5177C55.9906 29.4728 56.2892 29.6971 56.3434 30.0112C56.3887 30.3253 56.1625 30.6214 55.8458 30.6753C55.7734 30.6842 55.692 30.6932 55.6015 30.6932Z" fill="#333333"/>
<path d="M52.9961 27.2742C51.5665 27.2742 49.9651 26.341 49.0331 25.1116C47.676 23.3259 48.7888 19.1353 48.7979 19.0994C48.825 18.875 48.8884 18.3905 49.3589 18.1392C49.9198 17.8431 50.6618 18.1392 51.1684 18.3905C52.7971 19.1981 56.751 21.926 56.9772 22.0786L57.4115 22.3657C57.6739 22.5362 57.7553 22.8862 57.5834 23.1554C57.511 23.2631 55.8824 25.9102 54.4619 26.8435C54.0276 27.1306 53.5209 27.2652 52.9871 27.2652L52.9961 27.2742ZM49.9651 19.1981C49.9651 19.1981 49.9651 19.234 49.9651 19.2429C49.956 19.3416 49.9379 19.4224 49.9198 19.4762C49.7298 20.0864 49.1508 23.3348 49.9832 24.4206C50.9241 25.659 52.8061 26.5653 53.8285 25.8923C54.6519 25.3449 55.7105 23.9181 56.2986 23.0387C55.9367 22.7875 52.1456 20.1941 50.6527 19.4493C50.2998 19.2699 50.0917 19.216 49.9832 19.1981H49.9651Z" fill="#333333"/>
<path d="M58.7052 23.963C58.5152 23.963 58.3342 23.8733 58.2166 23.7117C57.7823 23.0926 57.1851 23.3079 57.0675 23.3618C56.7689 23.4874 56.4251 23.3618 56.2894 23.0746C56.1537 22.7875 56.2803 22.4465 56.5699 22.3029C57.1127 22.0427 58.3613 21.8722 59.1847 23.0477C59.3657 23.3079 59.3023 23.6758 59.0399 23.8553C58.9404 23.9271 58.8228 23.963 58.7052 23.963Z" fill="#333333"/>
<path d="M70.4943 32.1289C70.2771 33.2595 68.3138 33.8338 66.1242 33.421C63.9255 32.9993 62.324 31.752 62.5412 30.6213C62.7583 29.4907 64.7217 28.9164 66.9113 29.3291C69.11 29.7509 70.7114 30.9982 70.4943 32.1289Z" fill="#D8D0CA"/>
<path d="M50.2002 26.9243C50.2002 26.9243 50.164 29.2215 50.535 30.8368C50.535 30.8368 52.8874 30.5406 52.2993 28.8626C51.7112 27.1845 50.2002 26.9243 50.2002 26.9243Z" fill="#D8D0CA"/>
<path d="M57.5108 34.8569C57.0041 34.8569 56.6603 34.7582 56.6241 34.7492C56.3165 34.6594 56.1355 34.3364 56.226 34.0223C56.3165 33.7172 56.6422 33.5378 56.9498 33.6275C56.995 33.6365 57.9813 33.8967 58.9765 33.2596C59.248 33.0801 59.6099 33.1609 59.7908 33.4301C59.9718 33.6993 59.8904 34.0582 59.6189 34.2377C58.8499 34.7312 58.0808 34.8479 57.5108 34.8479V34.8569Z" fill="#333333"/>
<path d="M43.3144 89.4156C43.3144 89.4156 43.2692 89.4156 43.2511 89.4156C42.9254 89.3797 42.6901 89.0926 42.7263 88.7785C42.7263 88.7516 43.0159 86.0147 43.0159 84.3097C43.0159 82.6047 42.7263 76.2156 42.7263 76.1528C42.7082 75.8298 42.9616 75.5605 43.2873 75.5426C43.5768 75.5336 43.8845 75.7759 43.9026 76.099C43.9116 76.3592 44.2011 82.5599 44.2011 84.3097C44.2011 86.0595 43.9116 88.7875 43.9026 88.9041C43.8664 89.2003 43.613 89.4246 43.3144 89.4246V89.4156Z" fill="#333333"/>
<path d="M83.3787 90.1425C83.3787 90.1425 87.6493 92.1884 63.6362 115.564C63.6362 115.564 69.825 117.171 72.6208 122.429C72.6208 122.429 72.9194 122.133 75.5704 119.8C78.2214 117.467 94.8695 109.13 97.0772 101.099C99.2849 93.0678 97.8101 85.6108 97.8101 85.6108L83.3697 90.1425H83.3787Z" fill="#A1958E"/>
<path d="M72.6302 123.012C72.6302 123.012 72.5669 123.012 72.5398 123.012C72.3588 122.985 72.1959 122.869 72.1055 122.707C69.4544 117.736 63.5462 116.148 63.4919 116.13C63.2838 116.076 63.13 115.914 63.0757 115.717C63.0214 115.51 63.0757 115.295 63.2295 115.152C84.3834 94.5484 83.1529 90.8603 83.0353 90.618C82.8725 90.5013 82.7729 90.3039 82.791 90.1065C82.8091 89.8642 82.972 89.6668 83.1982 89.595L97.6296 85.0634C97.7924 85.0096 97.9643 85.0365 98.1091 85.1173C98.2539 85.198 98.3534 85.3416 98.3896 85.5031C98.4529 85.8172 99.8644 93.1844 97.6386 101.252C95.9014 107.569 85.8492 113.868 79.8505 117.637C78.0137 118.786 76.5661 119.701 75.9599 120.231C73.4084 122.483 73.0555 122.824 73.0374 122.842C72.9288 122.95 72.775 123.012 72.6212 123.012H72.6302ZM64.7495 115.304C66.5501 115.959 70.4588 117.736 72.775 121.505C73.2003 121.128 73.9241 120.473 75.1817 119.369C75.8603 118.777 77.2718 117.888 79.2262 116.659C85.0892 112.98 94.8971 106.824 96.5076 100.946C98.281 94.4856 97.6296 88.3387 97.34 86.3735L84.2206 90.4924C84.2206 90.4924 84.2206 90.5283 84.2296 90.5552C84.7544 93.7139 77.8418 102.49 64.7405 115.313L64.7495 115.304Z" fill="#333333"/>
<mask id="mask1_186_1997" style="mask-type:luminance" maskUnits="userSpaceOnUse" x="63" y="85" width="36" height="38">
<path d="M83.3787 90.1425C83.3787 90.1425 87.6493 92.1884 63.6362 115.564C63.6362 115.564 69.825 117.171 72.6208 122.429C72.6208 122.429 72.9194 122.133 75.5704 119.8C78.2214 117.467 94.8695 109.13 97.0772 101.099C99.2849 93.0678 97.8101 85.6108 97.8101 85.6108L83.3697 90.1425H83.3787Z" fill="white"/>
</mask>
<g mask="url(#mask1_186_1997)">
<path d="M80.7277 118.14C80.3658 118.14 80.013 117.915 79.8772 117.556C77.19 110.485 69.8069 108.036 69.7255 108.009C69.246 107.856 68.9926 107.354 69.1464 106.878C69.3003 106.411 69.8069 106.151 70.2865 106.304C70.6213 106.411 78.5743 109.05 81.5692 116.919C81.7502 117.386 81.5059 117.897 81.0444 118.077C80.9358 118.113 80.8273 118.131 80.7277 118.131V118.14Z" fill="white"/>
<path d="M85.3688 115.295C84.9798 115.295 84.6179 115.044 84.5003 114.658C82.4464 107.928 73.0999 104.428 73.0094 104.392C72.5389 104.222 72.3037 103.701 72.4756 103.235C72.6475 102.768 73.1723 102.535 73.6428 102.705C74.059 102.858 83.9212 106.564 86.2374 114.138C86.3822 114.613 86.1108 115.116 85.6312 115.259C85.5408 115.286 85.4593 115.295 85.3688 115.295Z" fill="white"/>
<path d="M90.671 111.347C90.2819 111.347 89.9291 111.095 89.8114 110.71C87.6128 103.656 76.9091 99.9324 76.8006 99.8965C76.3301 99.744 76.0677 99.2325 76.2306 98.7569C76.3844 98.2903 76.9001 98.0301 77.3706 98.1916C77.4882 98.2275 89.0333 102.131 91.5396 110.171C91.6843 110.647 91.422 111.149 90.9424 111.293C90.8519 111.32 90.7615 111.329 90.68 111.329L90.671 111.347Z" fill="white"/>
<path d="M93.9921 107.407C93.5397 107.407 93.1506 107.075 93.0963 106.618C92.7706 103.854 90.9972 102.786 89.4319 101.835C89.1514 101.664 88.88 101.503 88.6357 101.341C87.8847 100.839 87.1247 100.22 87.7038 99.107C87.7852 98.9455 87.8395 98.8557 87.6495 98.434C87.5952 98.3173 86.9709 97.2495 81.0898 96.056C80.9179 96.0201 80.8002 95.9932 80.755 95.9842C80.2664 95.8675 79.9769 95.383 80.0945 94.8984C80.2121 94.4138 80.7098 94.1267 81.1893 94.2433C81.2345 94.2523 81.325 94.2703 81.4517 94.2972C86.2742 95.2753 88.6991 96.3252 89.3143 97.7161C89.7396 98.6852 89.5948 99.3134 89.4319 99.6992C89.4862 99.7441 89.5586 99.789 89.6491 99.8518C89.8753 100.004 90.1196 100.148 90.382 100.309C92.1101 101.35 94.4807 102.786 94.9059 106.411C94.9602 106.905 94.6073 107.354 94.1097 107.407C94.0735 107.407 94.0373 107.407 94.0011 107.407H93.9921Z" fill="white"/>
<path d="M99.186 98.2007C99.1227 98.2007 99.0594 98.2007 98.996 98.1828C96.0012 97.5636 94.3454 96.415 92.7982 94.8716C91.9658 94.046 86.7904 92.9064 82.2665 92.2782C81.7688 92.2064 81.425 91.7578 81.4974 91.2642C81.5698 90.7707 82.0222 90.4297 82.5198 90.5015C84.1575 90.7258 92.4092 91.9462 94.083 93.6063C95.4402 94.9523 96.8064 95.9035 99.376 96.433C99.8646 96.5317 100.181 97.0073 100.073 97.4918C99.9822 97.9136 99.6113 98.2097 99.186 98.2097V98.2007Z" fill="white"/>
</g>
<path d="M72.6302 123.012C72.6302 123.012 72.5669 123.012 72.5398 123.012C72.3588 122.985 72.1959 122.869 72.1055 122.707C69.4544 117.736 63.5462 116.148 63.4919 116.13C63.2838 116.076 63.13 115.914 63.0757 115.717C63.0214 115.51 63.0757 115.295 63.2295 115.152C84.3834 94.5484 83.1529 90.8603 83.0353 90.618C82.8725 90.5013 82.7729 90.3039 82.791 90.1065C82.8091 89.8642 82.972 89.6668 83.1982 89.595L97.6296 85.0634C97.7924 85.0096 97.9643 85.0365 98.1091 85.1173C98.2539 85.198 98.3534 85.3416 98.3896 85.5031C98.4529 85.8172 99.8644 93.1844 97.6386 101.252C95.9014 107.569 85.8492 113.868 79.8505 117.637C78.0137 118.786 76.5661 119.701 75.9599 120.231C73.4084 122.483 73.0555 122.824 73.0374 122.842C72.9288 122.95 72.775 123.012 72.6212 123.012H72.6302ZM64.7495 115.304C66.5501 115.959 70.4588 117.736 72.775 121.505C73.2003 121.128 73.9241 120.473 75.1817 119.369C75.8603 118.777 77.2718 117.888 79.2262 116.659C85.0892 112.98 94.8971 106.824 96.5076 100.946C98.281 94.4856 97.6296 88.3387 97.34 86.3735L84.2206 90.4924C84.2206 90.4924 84.2206 90.5283 84.2296 90.5552C84.7544 93.7139 77.8418 102.49 64.7405 115.313L64.7495 115.304Z" fill="#333333"/>
<path d="M79.0718 74.5107L81.5057 91.2732C81.5057 91.2732 90.454 93.6871 95.4304 91.0579C100.398 88.4286 101.945 86.8942 102.28 86.0148C102.614 85.1354 99.52 69.0279 96.7513 65.4116" fill="#80A99B"/>
<path d="M89.2239 92.8703C85.2609 92.8703 81.5874 91.9012 81.3522 91.8384C81.126 91.7756 80.9541 91.5871 80.9269 91.3538L78.4931 74.5913C78.4478 74.2773 78.674 73.9811 78.9907 73.9273C79.3074 73.8824 79.606 74.1068 79.6602 74.4208L82.0308 90.7975C83.7499 91.2013 90.9972 92.7268 95.1502 90.5372C100.353 87.7824 101.502 86.3915 101.728 85.8082C101.909 84.525 98.887 69.1714 96.2812 65.7614C96.0822 65.5012 96.1365 65.1422 96.3988 64.9448C96.6522 64.7564 97.0231 64.8013 97.2222 65.0615C99.9366 68.615 103.302 84.9557 102.832 86.221C102.325 87.5491 99.9999 89.2989 95.7112 91.5692C93.8473 92.5563 91.4949 92.8703 89.2329 92.8703H89.2239Z" fill="#333333"/>
<path d="M57.194 83.9687C56.8864 83.9687 56.633 83.7354 56.6059 83.4303C56.6059 83.3944 56.5878 83.188 56.5968 82.865C56.5697 81.9497 56.4882 79.8858 56.1716 76.9873C55.8911 74.4389 52.7515 70.1316 49.9919 66.3358C48.5623 64.3706 47.2051 62.5221 46.3094 60.9966C44.8617 58.5468 45.1241 56.6983 45.486 54.1498C45.8298 51.7 46.2641 48.649 45.4589 43.588C43.785 33.071 48.4447 26.0448 48.6437 25.7487C48.8247 25.4795 49.1957 25.4077 49.458 25.5872C49.7295 25.7666 49.8019 26.1256 49.6209 26.3948C49.5757 26.4666 45.0246 33.3582 46.617 43.3995C47.4494 48.6311 46.988 51.9064 46.6442 54.3023C46.3003 56.7072 46.0741 58.2955 47.3137 60.3953C48.1823 61.867 49.5214 63.6976 50.9328 65.6359C53.9277 69.7367 57.0221 73.9812 57.3388 76.8438C57.4021 77.4629 57.4654 78.0372 57.5107 78.5756C58.1983 76.8527 59.3836 74.8696 61.4375 72.9672C62.3694 72.1057 63.238 71.352 64.0432 70.652C67.5538 67.6011 69.671 65.7615 69.7615 61.0055C69.7977 59.0762 69.5534 57.3085 69.3091 55.6035C68.7843 51.8705 68.2958 48.3529 70.7115 43.8662C74.0502 37.6655 75.4255 31.052 75.4436 30.9892C75.5069 30.6751 75.8236 30.4687 76.1403 30.5315C76.4569 30.5944 76.665 30.8995 76.6017 31.2225C76.5927 31.2943 75.1812 38.0603 71.752 44.4225C69.5172 48.5683 69.9606 51.7539 70.4763 55.4509C70.7206 57.2008 70.9739 59.0224 70.9377 61.0325C70.8473 66.3089 68.4496 68.3907 64.8214 71.5404C64.0251 72.2314 63.1656 72.9762 62.2427 73.8287C58.2526 77.5257 57.8092 81.5728 57.7821 82.8919C57.7821 83.188 57.7821 83.3495 57.7821 83.3765C57.7821 83.6905 57.5288 83.9418 57.2211 83.9597C57.2211 83.9597 57.203 83.9597 57.194 83.9597V83.9687Z" fill="#333333"/>
<path d="M46.7256 132.453C45.7212 132.453 44.4726 132.255 43.604 131.421C42.6811 130.532 42.4188 129.15 42.8078 127.32C43.3778 124.664 44.735 123.73 46.3003 122.662C48.2727 121.316 50.7338 119.629 52.7605 113.348C55.0496 106.268 54.8234 103.45 54.6063 100.731C54.4796 99.125 54.3529 97.6084 54.7329 95.3561C55.312 91.8654 56.0087 90.8245 56.4701 90.1425C56.7868 89.6759 56.9044 89.5054 56.823 88.5991C56.6058 86.0865 56.5968 83.4213 56.5968 83.3944C56.5968 83.0714 56.8592 82.8112 57.1849 82.8112C57.5106 82.8112 57.773 83.0714 57.773 83.3944C57.773 83.4213 57.773 86.0326 57.9902 88.4914C58.0987 89.7477 57.8545 90.1784 57.4382 90.7886C57.0311 91.3898 56.4158 92.2961 55.882 95.5356C55.5291 97.6533 55.6468 99.098 55.7734 100.633C55.9906 103.334 56.2349 106.402 53.8734 113.698C51.72 120.356 49.078 122.169 46.9608 123.614C45.486 124.619 44.4183 125.354 43.9479 127.553C43.6493 128.962 43.8031 129.985 44.4183 130.577C45.3865 131.519 47.4041 131.304 48.1008 131.142C48.4085 131.071 48.7342 131.259 48.8066 131.573C48.8789 131.887 48.6889 132.201 48.3723 132.273C48.3089 132.291 47.6122 132.444 46.7165 132.444L46.7256 132.453Z" fill="#333333"/>
<path d="M63.3828 29.9751C61.6185 29.9751 59.5284 29.5355 58.9403 28.8804C58.2074 28.0728 58.126 24.7616 58.126 23.3796C58.126 23.1373 58.2707 22.931 58.4969 22.8412C62.0528 21.4144 69.0196 22.1862 69.3182 22.2221C69.6349 22.2579 69.8701 22.5451 69.8339 22.8592C69.5897 25.1923 67.1105 29.024 65.4186 29.697C64.9209 29.8944 64.1881 29.9841 63.3918 29.9841L63.3828 29.9751ZM59.3022 23.7834C59.3293 25.6679 59.5284 27.7497 59.8089 28.0997C60.216 28.5484 63.5728 29.1586 64.9752 28.6022C66.0519 28.1715 68.0425 25.3179 68.5491 23.3078C66.8481 23.1643 62.0709 22.8592 59.3022 23.7745V23.7834Z" fill="#333333"/>
</g>
<defs>
<clipPath id="clip0_186_1997">
<rect width="118" height="109" fill="white"/>
</clipPath>
</defs>
</svg>
