<svg width="118" height="109" viewBox="0 0 118 109" fill="none" xmlns="http://www.w3.org/2000/svg">
<g clip-path="url(#clip0_186_557)">
<g clip-path="url(#clip1_186_557)">
<path d="M65.9446 8.05C65.9446 8.05 61.9005 6.17905 59.8747 6.71361C57.8489 7.24816 50.979 10.5966 49.7606 11.933C48.5496 13.2694 47.6002 14.7468 47.3311 15.5486C47.062 16.3505 39.5792 35.3198 38.7046 38.5792C37.83 41.8385 38.3009 43.9322 38.3009 43.9322V46.3451C38.3009 46.3451 37.5011 47.429 37.4936 48.4907C37.4861 49.5524 36.8208 50.5028 36.8208 50.5028C36.8208 50.5028 31.8348 55.5885 31.02 57.7341C30.2127 59.8798 29.7342 62.56 29.6744 62.6862C29.6146 62.8124 30.2799 63.8667 30.2799 63.8667L29.3904 65.1882C29.3904 65.1882 27.245 65.5001 25.4883 66.5692C23.7391 67.6383 20.2331 69.7839 18.8801 71.6549C17.5346 73.5258 16.1815 75.8051 16.1815 77.4162C16.1815 79.0273 16.5852 88.1296 16.5852 88.1296L21.033 112.905L17.5271 115.451C17.5271 115.451 10.2461 119.067 8.22781 121.48C6.20201 123.893 5.79834 127.509 5.79834 127.509C5.79834 127.509 7.14389 135.676 7.82415 137.287C8.49692 138.89 11.1955 139.432 11.8683 139.432C12.5411 139.432 14.1632 138.898 14.7014 138.63C15.2396 138.363 16.6001 137.546 16.6001 137.546L16.8618 135.557L17.2654 132.877L16.8618 129.662C16.8618 129.662 15.8003 128.89 16.6001 126.996C17.4 125.111 18.0728 123.232 18.0728 123.232L22.4533 119.676L25.7051 137.546C25.7051 137.546 18.8876 143.048 18.2073 145.06C17.5346 147.072 17.8037 148.542 17.8037 148.542C17.8037 148.542 17.9382 151.49 18.4764 152.425C19.0147 153.36 19.4183 155.907 19.4183 155.907L23.597 182.954L28.7176 214.82C28.7176 214.82 30.0706 217.47 30.6911 215.985C31.3115 214.5 31.6629 212.622 31.6629 212.622L30.2127 163.331L32.1488 163.814L34.3241 205.651L36.7461 204.93L36.9404 202.644L37.7104 165.744C37.7104 165.744 51.0912 167.831 52.0405 168.098C52.9824 168.365 58.6188 169.471 58.6188 169.471C58.6188 169.471 62.6928 173.726 64.0384 173.726C65.384 173.726 66.4679 171.714 66.4679 171.714L67.8134 169.434L69.4281 168.499C69.4281 168.499 76.9781 169.167 79.5422 168.499C82.1062 167.831 88.064 166.947 88.064 166.947L90.2393 205.658C90.2393 205.658 92.0857 207.648 92.4146 205.42C92.751 203.186 93.8648 165.269 93.8648 165.269L95.9803 164.356L94.9039 215.503C94.9039 215.503 94.8366 215.391 96.2868 215.518C97.737 215.636 97.9837 214.315 97.9837 214.315L105.96 157.793C105.96 157.793 109.212 154.073 108.793 152.032C108.374 149.99 108.12 148.015 108.12 148.015C108.12 148.015 107.178 146.144 106.775 145.335C106.371 144.533 105.833 143.731 105.833 143.731C105.833 143.731 105.025 142.796 103.672 141.86C102.327 140.925 100.839 139.989 100.839 139.989L97.8716 137.977L101.916 119.631C101.916 119.631 106.229 123.113 107.036 125.393C107.844 127.672 106.767 131.956 106.767 134.495C106.767 137.034 109.384 139.358 110.677 139.581C111.97 139.804 114.317 138.913 114.99 137.71C115.663 136.507 116.47 134.896 117.016 131.147C117.554 127.397 117.42 124.717 116.343 123.247C115.267 121.777 113.644 120.968 113.106 120.433C112.568 119.899 101.916 113.068 101.916 113.068C101.916 113.068 106.498 97.2691 107.171 87.3575C107.844 77.4459 105.287 73.162 104.607 72.0929C103.934 71.0238 99.2172 67.5418 98.5369 67.0072C97.8641 66.4727 93.82 64.327 93.82 64.327L91.7942 58.2984C91.7942 58.2984 86.539 48.2532 85.9933 47.7186C85.4551 47.184 83.1602 44.6375 83.1602 44.6375C83.1602 44.6375 82.7565 41.9573 82.8911 40.8881C83.0257 39.819 84.7749 35.5352 85.7242 34.0577C86.6661 32.5877 88.5574 29.1056 87.4735 25.8908C86.397 22.6761 82.0838 14.5092 81.5381 14.242C80.9924 13.9747 74.743 8.3544 74.1226 7.54514C73.5021 6.73588 72.5079 6.7433 70.3475 6.87694C68.1872 7.01058 65.8997 8.0797 65.8997 8.0797L65.9446 8.05Z" fill="white"/>
<path d="M66.5797 11.1386C66.5797 11.1386 63.6793 8.45834 59.5305 9.28245C55.3817 10.1066 49.1623 13.1951 47.0916 18.756C45.021 24.3169 38.5922 40.9995 39.6238 43.0561C40.6628 45.1126 41.074 44.4964 39.0033 47.585C36.9327 50.6735 26.7663 59.7387 30.2946 63.8593C33.8229 67.9798 40.8722 76.4214 46.0525 75.8051C51.2404 75.1889 52.0627 65.9158 52.0627 65.9158C52.0627 65.9158 53.3036 46.3748 53.1017 46.1446C52.8999 45.9145 52.9821 30.984 54.1408 29.6699C55.2995 28.3558 55.2995 28.3483 57.7065 23.3962C58.8204 21.1095 62.2291 12.9872 63.8886 12.5789C65.5481 12.1705 67.8281 16.4916 69.2783 15.6674C70.7285 14.8433 66.5797 11.1386 66.5797 11.1386Z" fill="#9E958F"/>
<path d="M69.2708 15.6675L74.5783 15.4299C74.5783 15.4299 78.8093 18.756 79.6391 24.109C80.4688 29.462 78.0767 36.9755 77.9796 39.3513C77.8824 41.7271 81.5079 44.5038 82.3377 43.0561C83.1674 41.6158 85.6567 33.3747 86.0678 30.0782C86.479 26.7818 87.3087 24.109 82.9581 17.5161C78.6 10.9233 73.4196 7.21848 71.5508 7.8347C69.682 8.45093 65.9443 8.04259 65.9443 8.04259L69.2708 15.66V15.6675Z" fill="#9E958F"/>
<path d="M71.454 74.0084C71.454 74.0084 69.9365 67.7645 65.8176 66.4727C61.6987 65.1808 58.2302 66.042 54.9784 69.9176C51.7267 73.7931 47.1742 78.3146 46.7406 80.8983C46.3071 83.482 34.6007 107.596 32.4329 113.402C30.2651 119.216 28.0748 134.963 38.6972 141.422C49.3196 147.881 56.2716 145.483 56.2716 145.483L56.8846 140.902C56.8846 140.902 58.4395 143.545 60.8241 143.115C63.2087 142.684 65.1598 140.316 65.1598 140.316L68.7105 145.513L71.0129 139.67C71.0129 139.67 72.7472 141.608 74.2647 141.608C75.7822 141.608 77.5164 140.531 77.5164 140.531C77.5164 140.531 76.2157 144.622 77.7332 145.268C79.2507 145.914 81.2018 144.407 83.3696 140.962C85.5374 137.517 89.6563 125.675 90.0899 121.584C90.5235 117.493 90.957 110.173 90.957 110.173C90.957 110.173 95.2927 100.484 96.1598 96.1777C97.027 91.8716 95.5095 75.2929 93.7752 71.8479C92.0409 68.403 91.428 67.3413 89.2228 66.0346C87.0175 64.7279 82.0689 65.3887 77.7332 67.9724C73.3975 70.5561 71.4465 74.001 71.4465 74.001L71.454 74.0084Z" fill="#D3C6BF"/>
<path d="M94.6424 65.3961C94.6424 65.3961 103.957 72.0558 105.698 75.085C107.44 78.1067 102.88 112.11 102.88 112.11C102.88 112.11 115.454 121.369 116.321 125.46C117.188 129.55 115.872 136.559 113.936 138.163C112 139.766 108.95 139.67 108.517 136.871C108.083 134.072 108.517 130.412 106.566 126.751C104.614 123.091 101.363 117.063 101.363 117.063L97.027 137.517C97.027 137.517 106.184 143.538 106.132 147.852C106.072 152.165 103.269 159.359 89.933 161.253C81.1346 162.5 75.999 162.062 75.999 162.062C75.999 162.062 75.999 157.11 76.2158 155.387C76.4326 153.665 77.7333 145.268 77.7333 145.268C77.7333 145.268 79.9011 146.129 81.6354 143.545C83.3697 140.962 87.055 135.148 87.055 135.148C87.055 135.148 90.9571 119.216 90.9571 118.57V110.173C90.9571 110.173 97.2438 96.8236 97.027 91.2256C96.8103 85.6276 93.1249 69.6949 92.2578 67.5418C91.3907 65.3887 94.6424 65.3887 94.6424 65.3887V65.3961Z" fill="#C36963"/>
<path d="M29.3976 65.1808C29.3976 65.1808 26.5794 69.9176 26.7962 73.1472C27.013 76.3768 28.3137 102.852 30.0479 105.651C31.7822 108.45 38.7193 103.713 38.7193 103.713C38.7193 103.713 30.4815 119.431 30.0479 123.522C29.6144 127.613 32.2158 135.794 32.2158 135.794C32.2158 135.794 33.95 139.885 40.8871 143.545C47.8242 147.206 51.5095 147.421 52.8102 146.775C54.1109 146.129 56.2788 145.483 56.2788 145.483C56.2788 145.483 56.4955 160.985 56.7123 162.062C56.7123 162.062 53.027 163.354 47.3906 162.492C41.7542 161.631 32.6493 159.694 28.0969 156.464C23.5444 153.234 18.992 150.005 18.3416 147.206C17.6913 144.407 19.2087 143.115 20.5094 142.038C21.8101 140.962 25.7123 137.517 25.7123 137.517L22.4605 119.646C22.4605 119.646 16.3831 124.48 16.6073 126.967C16.8316 129.454 17.4745 134.933 16.6073 137.517C15.7402 140.1 11.4045 141.177 9.88704 140.1C8.36956 139.024 5.98494 131.703 6.63529 126.751C7.28564 121.799 13.5724 119 14.2227 118.57C14.8731 118.139 21.3766 111.895 21.3766 111.895C21.3766 111.895 16.6073 91.6562 16.3906 84.1205C16.1738 76.5847 18.7752 71.202 20.943 69.9102C23.1108 68.6183 29.3976 65.1734 29.3976 65.1734V65.1808Z" fill="#C36963"/>
<path d="M77.9497 44.5113C77.9497 44.5113 73.1805 42.3582 70.1455 43.2194C67.1106 44.0806 62.5581 46.6643 62.5581 46.6643L67.3273 61.5206C67.3273 61.5206 70.1455 61.7359 71.0127 61.7359C71.8798 61.7359 72.0966 61.7359 73.1805 61.09C74.2644 60.444 81.052 56.472 79.4672 56.3532C77.8825 56.2344 76.4173 56.4943 75.7819 57.2144C75.1465 57.9346 74.0252 57.2144 73.6141 57.8603C73.2029 58.4988 71.2295 57.4297 72.3134 56.1379C73.3973 54.846 74.2644 53.5542 75.5651 53.5542C76.8658 53.5542 81.4183 52.9083 81.4183 52.9083C81.4183 52.9083 76.8658 49.894 75.7819 49.894C74.698 49.894 71.0127 51.4011 71.0127 51.4011C71.0127 51.4011 70.5791 49.248 71.2295 49.248C71.8798 49.248 74.698 46.6643 76.649 47.3103L78.6001 47.9562L77.9497 44.5113Z" fill="#E2BAA5"/>
<path d="M70.4672 34.1319C70.4672 34.1319 71.6109 38.0966 70.5793 38.0966C69.5477 38.0966 68.2993 38.2079 68.2993 38.2079" stroke="#653431" stroke-linecap="round" stroke-linejoin="round"/>
<path d="M71.611 29.4843C71.611 29.4843 71.0429 27.7841 72.8669 27.101C74.6909 26.418 77.6586 27.2124 78.1146 28.3483" stroke="#653431" stroke-linecap="round" stroke-linejoin="round"/>
<path d="M65.3391 28.0142C65.3391 28.0142 65.683 26.4254 62.9395 27.3312C60.2036 28.237 58.8281 30.1673 58.8281 30.1673" stroke="#653431" stroke-linecap="round" stroke-linejoin="round"/>
<path d="M60.9961 32.7733C60.9961 32.7733 64.0759 33.6791 65.6756 31.9789" stroke="#653431" stroke-linecap="round" stroke-linejoin="round"/>
<path d="M72.0669 32.0902C72.0669 32.0902 74.1226 33.2262 75.8344 32.3204" stroke="#653431" stroke-linecap="round" stroke-linejoin="round"/>
<path d="M70.6989 16.4544C70.6989 16.4544 69.7869 17.7017 68.8749 17.2488C67.9629 16.796 66.2511 12.7125 64.4271 13.8485C62.6032 14.9844 57.8115 25.1855 55.2998 28.3558C52.7881 31.526 50.0521 30.3975 49.1401 37.8738" stroke="#653431" stroke-linecap="round" stroke-linejoin="round"/>
<path d="M55.0682 29.2615C55.0682 29.2615 53.0125 36.9681 52.9004 45.9219" stroke="#653431" stroke-linecap="round" stroke-linejoin="round"/>
<path d="M53.8125 40.1383C53.8125 40.1383 57.6922 45.8031 60.4281 46.7089" stroke="#653431" stroke-linecap="round" stroke-linejoin="round"/>
<path d="M74.5786 15.4299C74.5786 15.4299 79.0264 22.1192 78.9143 27.5539C78.8022 32.996 77.8902 39.4552 76.4026 42.4027" stroke="#653431" stroke-linecap="round" stroke-linejoin="round"/>
<path d="M65.6758 7.83469C65.6758 7.83469 69.5555 5.22873 73.5473 6.69876C77.5391 8.16879 89.4099 22.342 87.8101 29.3655C86.2104 36.389 84.0426 36.1662 83.5866 39.0023C83.1306 41.8385 83.1306 42.2914 83.3549 43.3085" stroke="#653431" stroke-linecap="round" stroke-linejoin="round"/>
<path d="M77.2026 15.8828C77.2026 15.8828 85.9861 26.3066 84.506 30.2787C83.0259 34.2433 78.5706 36.285 80.1703 39.6854" stroke="#653431" stroke-linecap="round" stroke-linejoin="round"/>
<path d="M69.4433 13.1654C69.4433 13.1654 67.2755 7.8347 62.4838 7.04771C57.6922 6.26072 51.069 10.3367 50.0449 11.6954" stroke="#653431" stroke-linecap="round" stroke-linejoin="round"/>
<path d="M47.8771 13.2768C47.8771 13.2768 38.1742 37.0794 37.8378 41.8385C37.4939 46.5975 39.3179 46.256 37.4939 49.545C35.67 52.834 29.1665 57.0288 29.6224 62.805C30.0784 68.5886 42.7491 78.6709 46.9651 76.8594" stroke="#653431" stroke-linecap="round" stroke-linejoin="round"/>
<path d="M53.4683 56.3458C53.4683 56.3458 54.3802 48.862 55.4118 48.6392C56.436 48.4091 61.4594 48.6392 61.4594 48.6392" stroke="#653431" stroke-linecap="round" stroke-linejoin="round"/>
<path d="M62.14 49.6638L55.0684 53.5171" stroke="#653431" stroke-linecap="round" stroke-linejoin="round"/>
<path d="M62.8273 53.0642L55.8604 56.123" stroke="#653431" stroke-linecap="round" stroke-linejoin="round"/>
<path d="M63.8519 55.2173L57.9165 59.1819" stroke="#653431" stroke-linecap="round" stroke-linejoin="round"/>
<path d="M64.9953 55.8929C64.9953 55.8929 65.3392 56.4571 64.9953 57.2515C64.6515 58.0459 63.8516 60.3104 63.0517 60.7633C62.2519 61.2162 61.2278 61.4463 61.2278 61.4463C61.2278 61.4463 60.7718 64.9581 60.54 66.094" stroke="#653431" stroke-linecap="round" stroke-linejoin="round"/>
<path d="M53.5809 58.2761L52.6689 70.2888" stroke="#653431" stroke-linecap="round" stroke-linejoin="round"/>
<path d="M62.4839 47.9636C62.4839 47.9636 66.4757 62.2482 67.6194 62.7011C68.7631 63.1539 72.4111 62.8124 73.3231 62.4709" stroke="#653431" stroke-linecap="round" stroke-linejoin="round"/>
<path d="M62.708 46.3748C62.708 46.3748 63.8517 43.8802 68.6434 42.9744C73.4351 42.0686 77.8903 44.1103 77.8903 44.1103" stroke="#653431" stroke-linecap="round" stroke-linejoin="round"/>
<path d="M90.4412 55.7815C90.4412 55.7815 89.417 52.6113 86.6736 48.6392C83.9377 44.6746 79.0264 41.8385 77.8901 41.7271" stroke="#653431" stroke-linecap="round" stroke-linejoin="round"/>
<path d="M79.4898 45.0161C79.4898 45.0161 81.4334 46.8277 81.8894 47.9636L82.3454 49.0995C82.3454 49.0995 79.3777 47.288 75.954 47.8522C72.5303 48.4165 70.4746 50.9111 70.4746 50.9111" stroke="#653431" stroke-linecap="round" stroke-linejoin="round"/>
<path d="M71.9551 52.0396C72.4111 52.0396 74.4668 50.6809 76.0665 50.2281C77.6662 49.7752 82.0019 52.834 82.0019 52.834C82.0019 52.834 77.2102 53.0642 75.9544 53.3983C74.6985 53.7398 72.1868 56.0043 72.1868 56.4571" stroke="#653431" stroke-linecap="round" stroke-linejoin="round"/>
<path d="M73.2109 58.4988C73.2109 58.4988 74.8107 58.3875 75.1545 57.9346C75.4984 57.4817 77.8905 56.2344 77.8905 56.2344H80.9703" stroke="#653431" stroke-linecap="round" stroke-linejoin="round"/>
<path d="M80.2825 57.5931C80.2825 57.5931 78.0026 59.4046 77.3148 59.7461C76.6271 60.0877 73.779 62.4635 74.5789 62.6936C75.3787 62.9238 77.0906 62.0106 77.8904 61.6765C78.6903 61.335 82.4579 59.9763 82.4579 59.9763C82.4579 59.9763 84.5136 63.6068 87.0253 64.7353C89.537 65.8713 91.5927 66.8884 92.8485 65.2996C94.1044 63.7108 92.0487 58.2761 92.0487 58.2761" stroke="#653431" stroke-linecap="round" stroke-linejoin="round"/>
<path d="M71.8429 78.4482C71.8429 78.4482 71.3869 68.1357 65.2272 66.2054C59.0676 64.275 51.9885 70.9644 48.9086 76.748C45.8288 82.5316 41.3735 97.4918 41.3735 97.4918" stroke="#653431" stroke-linecap="round" stroke-linejoin="round"/>
<path d="M39.9979 100.439C39.9979 100.439 31.5508 115.852 30.4146 124.806C29.2783 133.76 33.2701 140.108 42.2853 143.961C51.3005 147.814 55.2923 146.114 55.2923 146.114" stroke="#653431" stroke-linecap="round" stroke-linejoin="round"/>
<path d="M52.2126 79.0125C52.2126 79.0125 48.901 87.6248 50.6128 104.968C52.3247 122.312 56.4361 142.595 56.4361 144.414C56.4361 146.233 56.4361 164.705 59.9719 170.028C63.5077 175.352 66.7072 173.77 67.7313 168.892C68.7554 164.022 67.1632 143.842 66.7072 142.825" stroke="#653431" stroke-linecap="round" stroke-linejoin="round"/>
<path d="M66.1318 139.655C66.1318 139.655 72.2915 92.3913 71.9551 84.3432" stroke="#653431" stroke-linecap="round" stroke-linejoin="round"/>
<path d="M68.875 168.67C68.875 168.67 71.4988 167.652 74.6983 161.98C77.8902 156.315 74.6983 146.226 78.8097 137.955C82.9211 129.684 94.8965 103.387 96.728 96.0218C98.5519 88.6568 94.6723 71.4247 93.1922 69.0489" stroke="#653431" stroke-linecap="round" stroke-linejoin="round"/>
<path d="M85.6495 65.5298C85.6495 65.5298 78.1144 65.6411 75.3785 69.6132C72.6425 73.5778 72.0669 74.8251 72.0669 74.8251" stroke="#653431" stroke-linecap="round" stroke-linejoin="round"/>
<path d="M29.3906 64.9581C29.3906 64.9581 27.2228 66.3167 26.6546 72.4419C26.0865 78.5596 27.7984 102.815 30.3101 106.104C32.8218 109.393 37.2696 103.157 37.2696 103.157" stroke="#653431" stroke-linecap="round" stroke-linejoin="round"/>
<path d="M32.1266 96.2445C32.1266 96.2445 29.5027 92.8441 35.6624 87.1793C41.822 81.5145 45.4774 78.1141 45.4774 78.1141" stroke="#653431" stroke-linecap="round" stroke-linejoin="round"/>
<path d="M27.6787 65.6411C27.6787 65.6411 17.9758 68.5886 16.4957 78.1067C15.0156 87.6248 21.6312 113.358 21.6312 113.358" stroke="#653431" stroke-linecap="round" stroke-linejoin="round"/>
<path d="M96.2573 65.6411C96.2573 65.6411 105.96 68.5886 107.44 78.1067C108.92 87.6248 102.305 113.358 102.305 113.358" stroke="#653431" stroke-linecap="round" stroke-linejoin="round"/>
<path d="M80.9552 40.8287C80.9552 40.8287 78.9967 37.4209 87.1672 36.285C95.3377 35.1491 100.899 30.9246 101.393 23.619" stroke="#653431" stroke-linecap="round" stroke-linejoin="round"/>
<path d="M85.2086 42.9373C85.2086 42.9373 83.9004 38.5495 93.3866 38.3935C102.873 38.2302 110.557 33.3598 110.228 24.1016" stroke="#653431" stroke-linecap="round" stroke-linejoin="round"/>
<path d="M100.578 21.3397C100.578 21.3397 100.578 19.5504 96.6535 19.3945C92.7289 19.2312 93.2223 23.129 94.6949 24.1016C96.1676 25.0742 97.9616 23.2923 97.8047 21.8297C97.6402 20.3671 96.0031 21.3397 96.0031 21.3397" stroke="#653431" stroke-linecap="round" stroke-linejoin="round"/>
</g>
</g>
<defs>
<clipPath id="clip0_186_557">
<rect width="118" height="109" fill="white"/>
</clipPath>
<clipPath id="clip1_186_557">
<rect width="115" height="220" fill="white" transform="translate(3.26416 5.88208)"/>
</clipPath>
</defs>
</svg>
