<svg width="353" height="584" viewBox="0 0 353 584" fill="none" xmlns="http://www.w3.org/2000/svg">
<path d="M186.34 182.643H113.782V176.292H107.431V50.5446H113.782V44.1937H136.486V50.5446H142.837V152.317H186.34V158.668H192.691V176.292H186.34V182.643ZM208.251 121.198H175.226V114.688H168.875V97.0647H175.226V90.7138H208.251V50.5446H214.602V44.1937H236.989V50.5446H243.339V182.484H236.989V188.835H214.602V182.484H208.251V121.198Z" fill="#5B8CDC"/>
<path d="M266.425 116.175H286.494V118.652H289.034V121.192H291.575V123.796H294.115V145.008H291.575V147.612H289.034V150.216H286.494V152.629H266.425V150.216H263.885V147.612H261.344V145.008H258.741V123.796H261.344V121.192H263.885V118.652H266.425V116.175ZM300.847 116.175H309.675V118.715H312.151V171.491H309.675V174.031H300.847V171.491H298.307V118.715H300.847V116.175ZM281.159 129.512H278.809V127.606H274.046V129.512H271.76V139.292H274.046V141.261H278.809V139.292H281.159V129.512ZM258.741 160.758V158.218H293.797V160.758H296.338V167.617H293.797V170.157H258.741V167.617H256.2V160.758H258.741Z" fill="#96CBFA"/>
<path d="M188.373 333.502V330.898H185.07V333.502H182.085V336.169H178.973V339.027H175.734V342.012H172.305V344.743H163.35V342.266H160.111L160.238 332.93H163.477V330.136H167.097V327.469H170.463V324.801H173.512V322.261H176.37V319.784H178.973V312.227H181.45V309.877H191.993V312.227H194.406V319.784H197.073V322.261H199.931V324.801H202.98V327.469H206.346V330.136H209.966V332.93H213.205V342.266H210.093V344.743H201.138V342.012H197.708V339.027H194.406V336.169H191.358V333.502H188.373ZM193.834 354.015H212.697V356.556H215.3V363.669H212.697V366.209H160.746V363.669H158.143V356.556H160.746V354.015H179.608V343.79H182.149V341.187H191.294V343.79H193.834V354.015ZM234.142 343.282V353.317H253.322V355.857H255.926V362.716H253.322V365.256H223.282V362.716H220.678V333.947H223.282V331.406H241.255V321.816H223.282V319.276H220.678V312.417H223.282V309.877H252.115V312.417H254.783V340.742H252.115V343.282H234.142ZM263.864 309.877H272.946V312.417H275.423V365.193H272.946V367.733H263.864V365.193H261.387V312.417H263.864V309.877ZM284.802 309.877H313.063V312.417H315.604V363.097H313.063V365.637H303.981V363.097H301.441V322.07H284.929V319.53H282.389V312.417H284.802V309.877ZM324.558 309.877H333.704V312.417H336.117V331.089H340.245V333.375H342.15V341.123H340.245V343.409H336.117V365.193H333.704V367.733H324.558V365.193H322.081V312.417H324.558V309.877Z" fill="#96CBFA"/>
<path d="M306.836 511.142V521.176H324.427V523.717H327.095V530.576H324.427V533.116H295.976V530.576H293.372V501.806H295.976V499.266H310.837V489.676H295.976V487.136H293.372V480.277H295.976V477.736H321.76V480.277H324.364V508.602H321.76V511.142H306.836ZM336.685 533.052H334.144V520.541H328.619V518.001H326.079V511.269H328.619V508.729H334.144V500.282H328.619V497.678H326.079V491.01H328.619V488.469H334.144V480.277H336.685V477.736H345.576V480.277H348.116V533.052H345.576V535.593H336.685V533.052Z" fill="#96CBFA"/>
<path d="M12.8027 237.895H19.1536V231.545H135.851V237.895H142.202V279.494H135.851V285.845H95.0466V294.259H143.472V299.658H148.87V315.852H143.472V321.251H11.3738V315.852H5.97556V299.658H11.3738V294.259H59.7992V285.845H19.1536V279.494H12.8027V237.895ZM108.701 254.249H46.3036V263.14H108.701V254.249ZM18.8361 328.872H136.01V335.223H142.361V369.835H136.01V376.186H114.099V369.835H107.748V355.863H18.8361V349.512H12.4852V335.223H18.8361V328.872Z" fill="#5B8CDC"/>
<path d="M270.648 437.472V442.87H152.522V436.519H146.171V403.018H152.522V396.667H269.696V402.066H275.094V411.909H269.696V417.308H180.307V422.071H270.648V427.469H276.047V437.472H270.648ZM139.344 464.939V453.349H144.742V447.951H276.84V453.349H282.239V464.939H276.84V470.338H144.742V464.939H139.344ZM179.672 517.175V521.938H274.141V526.86H279.222V536.545H274.141V541.309H150.934V536.069H145.854V504.315H150.934V499.075H241.276V494.471H150.934V489.549H145.854V480.181H150.934V475.259H270.013V480.499H275.253V511.936H270.013V517.175H179.672Z" fill="#5B8CDC"/>
</svg>
