<svg width="118" height="109" viewBox="0 0 118 109" fill="none" xmlns="http://www.w3.org/2000/svg">
<g clip-path="url(#clip0_148_1616)">
<path d="M69.4582 20.1828C69.4582 20.1828 65.8366 18.4373 61.2005 21.3464C56.5645 24.2646 53.5213 26.8873 52.6493 34.8986C51.7772 42.91 52.9429 51.0735 52.2132 52.3894C51.4925 53.7052 49.8997 54.1349 51.3412 54.5735C52.7916 55.0121 53.5124 55.0121 53.5124 55.0121L54.3844 53.1144C54.3844 53.1144 54.3844 55.7371 55.1052 55.4417C55.826 55.1464 56.262 54.7167 56.262 54.7167C56.262 54.7167 57.2764 56.319 59.1628 56.319C61.0493 56.319 73.9429 56.0236 76.8349 55.2985C79.7358 54.5735 80.5989 55.4417 81.4709 55.0031C82.343 54.5645 83.2061 52.2372 83.2061 52.2372C83.2061 52.2372 82.4853 54.7167 83.7845 55.1553C85.0836 55.5939 87.1125 54.8599 88.8565 54.5735C90.5917 54.2781 90.5917 53.8484 90.5917 53.8484C90.5917 53.8484 86.3917 47.7258 86.2493 43.2054C86.107 38.685 86.9701 28.1941 81.9069 24.2556C76.8349 20.3171 72.9285 18.1329 69.4493 20.1738L69.4582 20.1828Z" fill="#333333"/>
<path d="M59.1715 56.9097C57.7033 56.9097 56.6978 56.0952 56.1817 55.5402C55.9592 55.6924 55.6745 55.8535 55.3275 55.9967C55.0605 56.1041 54.7758 56.0773 54.5444 55.9161C54.3308 55.7729 54.1796 55.5223 54.0728 55.209L54.0461 55.2627C53.9482 55.4686 53.7436 55.6029 53.5211 55.6029C53.441 55.6029 52.6669 55.5939 51.1808 55.1374C50.9228 55.0568 50.3266 54.8778 50.202 54.3497C50.0863 53.8395 50.4601 53.4904 50.8516 53.1144C51.1452 52.8369 51.4834 52.5147 51.7058 52.1119C51.955 51.6554 51.8927 49.3101 51.8215 47.0455C51.7236 43.7604 51.5902 39.2579 52.0707 34.836C52.9783 26.4307 56.2974 23.7364 60.8889 20.8541C65.0444 18.2404 68.4258 19.1713 69.4135 19.5383C73.044 17.6138 77.0394 19.7442 82.2627 23.7991C86.8186 27.3348 86.8186 35.4894 86.8097 40.887C86.8097 41.7553 86.8097 42.5251 86.8275 43.1785C86.961 47.4662 91.0275 53.4456 91.072 53.5083C91.1343 53.6067 91.1788 53.7231 91.1788 53.8395C91.1788 54.4571 90.4313 54.8957 88.9542 55.1463C88.4915 55.2269 88.0199 55.3343 87.5305 55.4417C86.1424 55.755 84.7097 56.0773 83.6063 55.7103C83.0813 55.5312 82.7699 55.1642 82.6008 54.6988C82.3339 55.0658 82.0402 55.3791 81.7288 55.5312C81.2127 55.7908 80.7322 55.7371 80.1716 55.6655C79.4953 55.5849 78.561 55.4686 76.9682 55.8714C73.8271 56.6591 60.3105 56.9097 59.1537 56.9097H59.1715ZM56.2796 54.1438C56.2796 54.1438 56.3241 54.1438 56.3419 54.1438C56.5109 54.1617 56.6711 54.2602 56.769 54.4123C56.8046 54.466 57.6499 55.7461 59.1804 55.7461C61.0402 55.7461 73.9249 55.4417 76.719 54.7435C78.5165 54.287 79.611 54.4213 80.3406 54.5108C80.8123 54.5645 81.0436 54.5914 81.2394 54.4929C81.6487 54.287 82.3161 53.0607 82.6987 52.0403C82.8055 51.7449 83.1258 51.5927 83.4195 51.6912C83.7131 51.7896 83.8822 52.1029 83.7932 52.4073C83.6152 53.0159 83.4284 54.4123 83.9979 54.6093C84.7987 54.8778 86.0712 54.5914 87.308 54.3139C87.8063 54.1975 88.3135 54.0901 88.7941 54.0095C89.3279 53.92 89.6572 53.8216 89.8618 53.741C88.883 52.2282 85.8398 47.2066 85.7063 43.2322C85.6885 42.5698 85.6885 41.7821 85.6885 40.896C85.6885 36.0354 85.6885 27.9167 81.5864 24.7211C76.6211 20.8631 72.9105 18.8401 69.7694 20.684C69.6004 20.7825 69.4046 20.7915 69.2266 20.7109C69.0932 20.6482 65.8097 19.1534 61.5207 21.8477C57.0804 24.6405 54.0995 27.0663 53.2452 34.9702C52.7736 39.3116 52.9071 43.7604 53.005 47.0186C53.1029 50.3485 53.1296 51.9776 52.7469 52.6847C52.4355 53.2487 51.9906 53.6694 51.6702 53.9737C51.6435 54.0006 51.6169 54.0185 51.5902 54.0453C52.3376 54.2691 52.8715 54.3676 53.1919 54.4123L53.8948 52.8906C54.0105 52.64 54.2775 52.5057 54.5444 52.5684C54.8114 52.631 54.9982 52.8638 54.9982 53.1323C54.9982 53.7678 55.0783 54.466 55.1851 54.8062C55.63 54.5824 55.8969 54.3228 55.8969 54.3139C56.0037 54.2065 56.155 54.1438 56.3063 54.1438H56.2796Z" fill="#333333"/>
<path d="M64.9644 62.0119C64.9644 62.0119 65.4004 55.1642 65.4004 54.5824C65.4004 54.0006 73.658 54.1438 73.658 54.1438L74.6724 62.1552L71.1932 64.6346L64.9644 62.0119Z" fill="white"/>
<path d="M71.2023 65.2165C71.1311 65.2165 71.051 65.1986 70.9798 65.1717L64.751 62.549C64.5196 62.4505 64.3773 62.2268 64.3951 61.9761C64.5196 60.0785 64.8311 55.0389 64.8311 54.5824C64.8311 54.4302 64.9201 54.2154 65.0357 54.108C65.2048 53.9379 65.7298 53.4187 73.6849 53.562C73.9696 53.562 74.2099 53.7857 74.2455 54.0722L75.2599 62.0835C75.2866 62.2984 75.1976 62.5042 75.0196 62.6296L71.5404 65.1091C71.4425 65.1807 71.3268 65.2165 71.2023 65.2165ZM65.5696 61.636L71.1222 63.9722L74.0497 61.8866L73.1421 54.7167C70.1256 54.6719 66.9133 54.7435 65.9612 54.9404C65.8989 56.2384 65.6497 60.3112 65.5607 61.636H65.5696Z" fill="#333333"/>
<path d="M57.837 39.3116C57.837 39.3116 58.273 42.7041 58.0506 44.011C57.837 45.3268 58.5133 50.4201 60.987 52.6489C63.0514 54.5108 66.1659 56.2473 67.8298 56.8023C69.4582 57.3483 71.5226 57.3483 72.715 56.5875C74.2366 55.6118 76.8438 53.7499 78.3655 52.2193C79.6023 50.975 81.1862 48.5045 81.3019 45.2194C81.4087 41.9432 81.3375 40.887 81.3375 40.887L80.5366 35.8206L73.3646 30.0291L59.0205 34.2899L57.8281 39.3205L57.837 39.3116Z" fill="white"/>
<path d="M70.2411 57.769C69.3335 57.769 68.417 57.6079 67.6517 57.3483C65.8898 56.7576 62.6864 54.9584 60.6042 53.0786C57.9525 50.6976 57.2496 45.3358 57.4898 43.9125C57.6589 42.91 57.383 40.3052 57.2674 39.3832C57.2585 39.3116 57.2674 39.24 57.2763 39.1773L58.4686 34.1467C58.5131 33.9408 58.6733 33.7797 58.8691 33.726L73.2132 29.4652C73.3911 29.4115 73.5869 29.4473 73.7382 29.5726L80.9102 35.3641C81.0259 35.4536 81.0971 35.5879 81.1149 35.7311L81.9157 40.7975C81.9246 40.8959 81.9958 41.9701 81.889 45.2463C81.7555 49.337 79.4776 51.9328 78.7835 52.631C77.1195 54.3049 74.3877 56.2115 73.0352 57.0798C72.261 57.5811 71.2555 57.778 70.2411 57.778V57.769ZM58.4241 39.3474C58.4953 39.9471 58.8335 42.8473 58.6288 44.1094C58.433 45.291 59.1182 50.1873 61.3784 52.2193C63.3538 54.0006 66.3614 55.7013 68.0165 56.2563C69.5915 56.7844 71.4424 56.7217 72.4123 56.0952C74.1119 55.0031 76.5767 53.195 77.9649 51.7986C78.5788 51.1809 80.6076 48.8626 80.7322 45.1925C80.839 42.0059 80.7678 40.9228 80.7678 40.9138L80.0115 36.1249L73.2487 30.6647L59.5186 34.7464L58.4241 39.3474Z" fill="#333333"/>
<path d="M46.3135 99.8668L41.0991 61.2869H97.1674L95.6458 104.459L86.1958 115.934L71.9585 120.526L60.6576 116.149L49.686 108.066L46.3135 99.8668Z" fill="#A1958E"/>
<path d="M71.9586 121.108C71.8874 121.108 71.8162 121.099 71.754 121.072L60.4531 116.704C60.4086 116.686 60.3641 116.659 60.3196 116.632L49.348 108.541C49.259 108.478 49.1967 108.388 49.1522 108.29L45.7798 100.091C45.762 100.046 45.7442 99.9921 45.7442 99.9473L40.5298 61.3675C40.5031 61.1974 40.5564 61.0363 40.6632 60.902C40.77 60.7677 40.9302 60.7051 41.0992 60.7051H97.1676C97.3277 60.7051 97.4701 60.7677 97.5858 60.8841C97.6926 61.0005 97.7549 61.1526 97.746 61.3048L96.2243 104.477C96.2243 104.602 96.171 104.727 96.0909 104.826L86.6409 116.301C86.5697 116.382 86.4807 116.453 86.3739 116.48L72.1366 121.072C72.0832 121.09 72.0209 121.099 71.9586 121.099V121.108ZM60.9425 115.639L71.9764 119.909L85.8578 115.433L95.0765 104.244L96.5714 61.8687H41.7666L46.8832 99.7146L50.1577 107.69L60.9425 115.639Z" fill="#333333"/>
<path d="M83.151 102.333C90.0871 95.356 90.0871 84.0434 83.151 77.066C76.2149 70.0887 64.9692 70.0887 58.0331 77.0661C51.097 84.0434 51.097 95.356 58.0331 102.333C64.9692 109.311 76.2149 109.311 83.151 102.333Z" fill="#9A2D2F"/>
<path d="M70.5973 108.156C60.4799 108.156 52.2578 99.8757 52.2578 89.6981C52.2578 79.5206 60.4888 71.2407 70.5973 71.2407C80.7057 71.2407 88.9456 79.5206 88.9456 89.6981C88.9456 99.8757 80.7146 108.156 70.5973 108.156ZM70.5973 72.4133C61.1205 72.4133 53.4146 80.165 53.4146 89.6981C53.4146 99.2312 61.1205 106.983 70.5973 106.983C80.074 106.983 87.7799 99.2312 87.7799 89.6981C87.7799 80.165 80.074 72.4133 70.5973 72.4133Z" fill="#333333"/>
<path d="M124.37 109.23C124.37 109.23 124.299 109.23 124.263 109.221L102.097 104.853C101.884 104.808 101.715 104.656 101.652 104.45C101.59 104.244 101.652 104.02 101.804 103.868L115.418 90.6022C115.552 90.4679 115.747 90.4142 115.934 90.45L156.208 98.9C156.466 98.9537 156.662 99.1775 156.671 99.446C156.68 99.7146 156.511 99.9563 156.252 100.028L124.521 109.212C124.468 109.23 124.414 109.239 124.361 109.239L124.37 109.23ZM103.396 103.922L124.343 108.057L153.69 99.5624L115.996 91.6495L103.396 103.922Z" fill="#333333"/>
<path d="M145.299 97.1366L115.819 91.014L102.204 104.271L116.166 107.028L145.299 97.1366Z" fill="#80A99B"/>
<path d="M116.166 107.61C116.166 107.61 116.094 107.61 116.059 107.601L102.088 104.844C101.875 104.799 101.706 104.647 101.644 104.441C101.581 104.235 101.644 104.011 101.795 103.859L115.409 90.5933C115.543 90.459 115.739 90.4053 115.925 90.4411L145.406 96.5637C145.664 96.6174 145.85 96.8323 145.868 97.1008C145.886 97.3604 145.726 97.6021 145.477 97.6916L116.344 107.592C116.281 107.61 116.219 107.619 116.157 107.619L116.166 107.61ZM103.397 103.922L116.13 106.437L143.092 97.2798L115.997 91.6585L103.397 103.931V103.922Z" fill="#333333"/>
<path d="M66.2729 117.68C66.2729 117.68 69.1738 114.332 74.3882 112.873C79.6026 111.414 83.2243 114.189 89.7467 108.066C96.2692 101.943 100.176 89.4117 108.869 85.6253C117.563 81.8389 120.606 89.2685 121.184 91.748C121.763 94.2275 120.748 98.5957 112.784 104.575C104.82 110.555 87.7179 122.066 82.0675 122.934C76.417 123.811 71.345 123.229 71.345 123.229L66.2729 117.689V117.68Z" fill="white"/>
<path d="M75.4648 123.999C73.0355 123.999 71.3982 123.811 71.2737 123.802C71.1313 123.784 71.0067 123.722 70.9177 123.614L65.8457 118.074C65.6499 117.859 65.641 117.519 65.8368 117.295C65.9614 117.152 68.9067 113.795 74.2279 112.309C75.9809 111.817 77.547 111.79 79.0597 111.754C82.1563 111.691 85.0839 111.629 89.3462 107.627C91.8555 105.273 93.9555 101.97 96.1712 98.4793C99.6237 93.0548 103.192 87.4424 108.629 85.0703C111.761 83.7097 114.511 83.6023 116.806 84.766C120.401 86.5831 121.549 90.7723 121.736 91.5958C122.368 94.2991 121.389 98.8194 113.114 105.023C105.915 110.42 88.1182 122.567 82.1385 123.489C79.6737 123.874 77.3245 123.981 75.447 123.981L75.4648 123.999ZM71.6207 122.666C72.6262 122.764 77.111 123.113 81.9783 122.352C87.4241 121.511 104.5 110.044 112.437 104.101C120.615 97.9691 121.078 93.8067 120.624 91.8733C120.517 91.4257 119.503 87.4335 116.299 85.8222C114.324 84.8286 111.903 84.9361 109.1 86.1534C103.984 88.3823 100.514 93.8426 97.1589 99.1148C94.8987 102.668 92.7542 106.034 90.147 108.487C85.5644 112.792 82.2809 112.855 79.0953 112.918C77.5826 112.945 76.1588 112.98 74.5482 113.428C70.5885 114.538 67.9813 116.794 67.0737 117.689L71.6207 122.657V122.666Z" fill="#333333"/>
<path d="M-29.6333 122.057L19.9126 137.65L56.4224 120.159L21.363 105.882L-29.6333 122.057Z" fill="#F59B31"/>
<path d="M19.9123 138.232C19.8501 138.232 19.7967 138.232 19.7433 138.205L-29.8026 122.612C-30.0428 122.54 -30.2119 122.316 -30.2119 122.057C-30.2119 121.806 -30.0517 121.574 -29.8115 121.502L21.1848 105.327C21.3094 105.291 21.4517 105.291 21.5763 105.345L56.6357 119.631C56.8493 119.721 56.9916 119.926 57.0005 120.15C57.0005 120.383 56.876 120.598 56.6713 120.696L20.1615 138.187C20.0814 138.223 20.0013 138.241 19.9123 138.241V138.232ZM-27.7026 122.048L19.8678 137.023L54.9806 120.204L21.3361 106.5L-27.7026 122.057V122.048Z" fill="#333333"/>
<path d="M2.31152 118.996L22.9556 125.557L43.3862 116.588L27.8408 108.827L2.31152 118.996Z" fill="#E9E9E9"/>
<path d="M22.9554 126.139C22.8931 126.139 22.8397 126.13 22.7774 126.112L2.13333 119.551C1.90198 119.479 1.74181 119.264 1.73291 119.013C1.73291 118.763 1.86638 118.539 2.09774 118.45L27.6359 108.281C27.7872 108.218 27.9563 108.227 28.1075 108.299L43.644 116.06C43.8487 116.158 43.9732 116.373 43.9643 116.597C43.9643 116.82 43.822 117.026 43.6173 117.116L23.1868 126.076C23.1156 126.112 23.0355 126.121 22.9554 126.121V126.139ZM4.03758 118.933L22.9198 124.93L42.0067 116.552L27.8139 109.462L4.02868 118.933H4.03758Z" fill="#333333"/>
<path d="M54.6777 109.955C54.6777 109.955 48.8849 98.8821 43.8129 95.0868C38.7408 91.3004 30.7768 86.78 27.876 85.1778C24.9751 83.5755 18.0255 80.2188 14.5463 86.1982C11.067 92.1776 12.9535 100.484 17.7319 103.394C22.5103 106.312 49.312 119.712 53.0849 121.323C56.8489 122.925 61.9921 124.751 67.865 127.589C71.9227 129.549 80.1803 131.814 82.7875 127.15C85.3947 122.487 74.9659 118.7 70.7659 117.241C66.5659 115.782 57.4362 112.721 54.6866 109.955H54.6777Z" fill="white"/>
<path d="M76.986 130.507C73.658 130.507 69.9385 129.245 67.6161 128.117C63.594 126.166 59.9635 124.724 56.769 123.453C55.3453 122.889 54.0372 122.37 52.8627 121.869C49.0008 120.231 22.2079 106.813 17.4384 103.904C12.1795 100.699 10.5333 91.9539 14.0482 85.9118C15.8634 82.7878 19.7876 80.0487 28.152 84.6765C30.5813 86.0192 38.9012 90.7007 44.1512 94.6303C49.0987 98.3271 54.5622 108.514 55.1406 109.615C57.7389 112.139 66.2012 115.066 70.2767 116.471L70.9351 116.704C75.7135 118.36 82.2182 120.965 83.5263 124.429C83.9089 125.449 83.8288 126.461 83.2771 127.454C82.0047 129.728 79.611 130.516 76.9771 130.516L76.986 130.507ZM20.3749 83.3607C18.0435 83.3607 16.2639 84.408 15.0537 86.4936C11.8948 91.927 13.3719 100.055 18.0435 102.901C22.7863 105.792 49.4724 119.157 53.3165 120.786C54.4822 121.278 55.7813 121.797 57.1961 122.361C60.4084 123.641 64.0567 125.091 68.1233 127.061C71.2021 128.555 79.7445 131.42 82.2894 126.864C82.672 126.183 82.7254 125.512 82.4674 124.823C81.2038 121.466 73.2042 118.7 70.5792 117.787L69.9207 117.563C65.4004 115.997 56.9915 113.097 54.2775 110.367C54.233 110.322 54.1974 110.277 54.1707 110.223C54.1173 110.116 48.3779 99.2223 43.4749 95.5523C38.2783 91.6674 30.0118 87.0217 27.6092 85.688C24.8062 84.1305 22.3859 83.3607 20.3838 83.3607H20.3749Z" fill="#333333"/>
<path d="M55.4076 111.127C55.2741 111.127 55.1406 111.083 55.0249 110.984C55.0071 110.966 52.7203 108.979 41.9978 100.064C35.0571 94.2901 33.0105 93.0101 32.4321 92.7237C32.1474 92.8311 31.827 92.7058 31.7024 92.4193C31.5779 92.1329 31.649 91.8106 31.8893 91.6227C32.3431 91.2736 32.8147 90.9066 42.7364 99.1596C53.4855 108.093 55.7635 110.08 55.7902 110.098C56.0304 110.313 56.0571 110.68 55.8525 110.922C55.7368 111.056 55.5766 111.118 55.4165 111.118L55.4076 111.127Z" fill="#333333"/>
<path d="M23.3916 107.189C23.0979 107.189 22.8488 106.965 22.8221 106.67C22.7865 106.347 23.009 106.061 23.3293 106.025C23.6763 105.98 31.9162 104.879 33.9806 93.386C34.034 93.0728 34.3365 92.8579 34.6569 92.9206C34.9683 92.9743 35.1819 93.2786 35.1196 93.5919C32.895 105.971 23.5518 107.171 23.4628 107.18C23.445 107.18 23.4183 107.18 23.4005 107.18L23.3916 107.189Z" fill="#333333"/>
<path d="M108.718 107.627C108.718 107.627 108.647 107.627 108.611 107.619C101.288 106.267 97.4792 97.4499 97.319 97.074C97.1945 96.7786 97.3279 96.4384 97.6216 96.3131C97.9152 96.1878 98.2534 96.3221 98.3779 96.6174C98.4135 96.707 102.115 105.237 108.816 106.473C109.127 106.535 109.341 106.831 109.278 107.153C109.225 107.431 108.985 107.627 108.709 107.627H108.718Z" fill="#333333"/>
<path d="M31.4801 110.089L29.5225 109.104C29.5936 109.069 37.5932 105.282 38.2695 97.0292L39.7911 98.175C39.0348 107.466 31.8271 109.928 31.4801 110.089Z" fill="#9A2D2F"/>
<path d="M35.3418 111.996L33.5532 111.065C33.8202 110.948 40.138 107.619 41.2147 99.3655L43.0032 100.842C41.7931 110.125 35.6443 111.861 35.3418 111.987V111.996Z" fill="#9A2D2F"/>
<path d="M104.74 109.668C98.2174 108.209 96.0907 101.317 95.9395 100.923L97.2831 98.9179C97.3187 99.0074 100.406 108.093 106.555 108.353L104.74 109.668Z" fill="#9A2D2F"/>
<path d="M100.691 112.309C95.8328 110.322 94.1511 104.235 94.0176 103.868L95.2456 101.97C95.2722 102.051 98.2087 110.205 102.596 111.118L100.682 112.309H100.691Z" fill="#9A2D2F"/>
<path d="M43.1636 77.4618C43.1636 77.4618 41.0992 78.885 40.5564 82.1612C40.0136 85.4373 40.9924 88.2838 42.6208 89.5907C44.2492 90.9066 48.9208 92.8669 50.3356 92.8669C51.7504 92.8669 50.5492 91.4436 50.5492 91.4436C50.5492 91.4436 51.964 91.7748 51.964 91.005C51.964 90.2352 51.7504 89.913 51.7504 89.913C51.7504 89.913 52.7293 90.5664 52.9428 89.6981C53.1564 88.8209 52.836 88.2749 52.836 88.2749C52.836 88.2749 53.8149 88.2749 53.8149 87.2903C53.8149 86.3056 51.5369 84.6675 49.5793 83.8977C47.6216 83.1369 43.822 80.3978 43.5996 79.7444C43.386 79.0909 43.1636 77.4528 43.1636 77.4528V77.4618Z" fill="white"/>
<path d="M50.3357 93.4577C48.7874 93.4577 43.9645 91.4168 42.256 90.0472C40.3251 88.4987 39.4353 85.3657 39.987 82.0627C40.5654 78.5807 42.7454 77.0411 42.8344 76.9784C43.0035 76.862 43.2082 76.8441 43.395 76.9247C43.5819 77.0053 43.7065 77.1753 43.7332 77.3812C43.7954 77.8198 43.9823 79.073 44.1425 79.5743C44.4272 80.0755 47.8798 82.6267 49.7751 83.3696C51.6349 84.0947 54.3844 85.8491 54.3844 87.2992C54.3844 88.0422 54.0018 88.4718 53.5569 88.6866C53.6014 88.991 53.6103 89.3848 53.4946 89.8414C53.3611 90.3784 53.0141 90.5843 52.8272 90.6649C52.7294 90.7007 52.6315 90.7275 52.5247 90.7365C52.5247 90.826 52.5247 90.9155 52.5247 91.014C52.5247 91.3362 52.3912 91.6227 52.151 91.8196C51.973 91.9628 51.7594 92.0344 51.537 92.0792C51.6082 92.3298 51.6171 92.6073 51.5014 92.8579C51.3768 93.1354 51.0654 93.4577 50.3268 93.4577H50.3357ZM42.7632 78.6344C42.1849 79.3057 41.4285 80.4784 41.1348 82.2507C40.5921 85.5358 41.6776 88.078 42.9857 89.1342C44.5963 90.4321 49.1255 92.285 50.3357 92.285C50.3624 92.285 50.3802 92.285 50.4069 92.285C50.3446 92.1418 50.22 91.9449 50.1133 91.8196C49.9531 91.6316 49.9353 91.3541 50.0599 91.1393C50.1844 90.9245 50.4336 90.817 50.6828 90.8708C50.923 90.9245 51.2344 90.9424 51.3857 90.9066C51.3679 90.4232 51.2522 90.2084 51.2522 90.2084C51.1188 89.9756 51.1633 89.6713 51.359 89.4833C51.5548 89.3043 51.8484 89.2685 52.062 89.4117C52.1777 89.4833 52.3556 89.546 52.4268 89.546C52.5247 88.9283 52.3378 88.5524 52.3289 88.5434C52.2311 88.3644 52.2311 88.1406 52.3289 87.9616C52.4357 87.7826 52.6226 87.6752 52.8183 87.6752C53.2188 87.6662 53.2188 87.3798 53.2188 87.2723C53.2188 86.7621 51.448 85.2494 49.348 84.4259C47.6128 83.7456 43.3683 80.9259 43.0302 79.9144C42.9234 79.5922 42.8166 79.082 42.7365 78.6165L42.7632 78.6344Z" fill="#333333"/>
<path d="M52.836 88.8657C52.836 88.8657 52.7737 88.8657 52.7381 88.8657C52.044 88.7493 48.4847 86.5562 46.9898 85.6164C46.7228 85.4463 46.6339 85.0882 46.8029 84.8108C46.972 84.5422 47.3279 84.4527 47.5949 84.6228C49.8817 86.055 52.5067 87.6035 52.9428 87.7199C53.2453 87.8005 53.45 88.1048 53.3788 88.4092C53.3254 88.6777 53.094 88.8746 52.8271 88.8746L52.836 88.8657Z" fill="#333333"/>
<path d="M51.7504 90.5037C51.6703 90.5037 51.5991 90.4858 51.519 90.459C50.7449 90.1278 46.4381 87.8005 46.2601 87.702C45.9754 87.5498 45.8686 87.2007 46.0198 86.9143C46.1711 86.6278 46.5182 86.5294 46.8029 86.6726C48.3334 87.4961 51.3855 89.1342 51.9728 89.3848C52.2665 89.5102 52.3999 89.8503 52.2754 90.1457C52.1775 90.3695 51.9639 90.4948 51.7415 90.4948L51.7504 90.5037Z" fill="#333333"/>
<path d="M50.5493 92.0344C49.5883 92.0344 47.3192 90.6291 46.6519 90.1904C46.3849 90.0204 46.3048 89.6534 46.4739 89.3848C46.643 89.1163 46.9989 89.0357 47.2748 89.2058C48.5205 90.0025 50.1311 90.8618 50.5493 90.8618C50.8697 90.8618 51.1277 91.1214 51.1277 91.4436C51.1277 91.7659 50.8697 92.0255 50.5493 92.0255V92.0344Z" fill="#333333"/>
<path d="M70.5974 84.5333C70.1079 84.5333 69.7075 84.1305 69.7075 83.6381V79.6996C69.7075 79.2073 70.1079 78.8045 70.5974 78.8045C71.0868 78.8045 71.4872 79.2073 71.4872 79.6996V83.6381C71.4872 84.1305 71.0868 84.5333 70.5974 84.5333Z" fill="white"/>
<path d="M79.0239 84.6407H62.1794C61.69 84.6407 61.2896 84.2379 61.2896 83.7456C61.2896 83.2532 61.69 82.8504 62.1794 82.8504H79.0239C79.5133 82.8504 79.9137 83.2532 79.9137 83.7456C79.9137 84.2379 79.5133 84.6407 79.0239 84.6407Z" fill="white"/>
<path d="M76.6302 92.0702H64.5729C64.0835 92.0702 63.6831 91.6674 63.6831 91.1751V86.4757C63.6831 85.9834 64.0835 85.5806 64.5729 85.5806H76.6302C77.1196 85.5806 77.52 85.9834 77.52 86.4757V91.1751C77.52 91.6674 77.1196 92.0702 76.6302 92.0702ZM65.4628 90.28H75.7403V87.3708H65.4628V90.28Z" fill="white"/>
<path d="M69.8321 100.064C69.4673 100.064 69.0224 100.028 68.4707 99.9294C67.9901 99.8399 67.6609 99.3834 67.7499 98.8911C67.83 98.4077 68.2927 98.0765 68.7821 98.166C69.1558 98.2287 69.583 98.2734 69.8766 98.2734C69.93 97.1098 69.8855 94.0037 69.8054 91.2109C69.7876 90.7186 70.1791 90.3068 70.6685 90.2889C71.1491 90.28 71.5673 90.6649 71.5851 91.1572C71.8075 98.7031 71.6029 99.1238 71.4872 99.3476C71.3804 99.5714 71.1224 100.073 69.8321 100.073V100.064Z" fill="white"/>
<path d="M63.7455 100.108C63.5319 100.108 63.3094 100.028 63.1404 99.8667C62.7756 99.5266 62.7578 98.9627 63.0959 98.6046C64.3861 97.1993 65.5963 95.597 65.6942 95.1673C65.7476 94.675 66.1836 94.3349 66.673 94.3796C67.1624 94.4333 67.5095 94.8809 67.4561 95.3732C67.3315 96.4832 65.4895 98.6315 64.395 99.822C64.2171 100.01 63.9768 100.108 63.7455 100.108Z" fill="white"/>
<path d="M78.3743 99.9384C78.3743 99.9384 78.3298 99.9384 78.3031 99.9384C76.6213 99.8041 74.3078 96.877 73.6404 95.973C73.3467 95.5791 73.4268 95.0152 73.8184 94.7198C74.2099 94.4244 74.7705 94.505 75.0641 94.8988C76.301 96.5637 77.9116 98.1123 78.4366 98.1481C78.926 98.1839 79.2908 98.6136 79.2552 99.1059C79.2196 99.5714 78.8281 99.9294 78.3654 99.9294L78.3743 99.9384Z" fill="white"/>
<path d="M96.4023 80.3083C96.4023 80.3083 96.8562 82.9131 95.8862 82.8683C94.9163 82.8236 90.5739 83.8351 89.3193 84.0409C88.0646 84.2468 87.068 84.4169 87.2282 85.5985C87.3972 86.7711 93.2523 85.679 93.6705 86.0192C94.0799 86.3593 93.3324 87.1918 91.4549 87.702C89.5773 88.2122 85.404 88.1496 85.7332 89.358C86.0625 90.5664 92.1578 89.4743 92.1578 89.4743C92.1578 89.4743 86.1426 90.9065 86.2316 91.739C86.3116 92.5804 92.9943 91.739 94.2489 91.739C95.5036 91.739 91.8286 93.5919 91.9087 94.4244C91.9888 95.2658 96.8384 93.1623 97.9239 92.661C99.0095 92.1597 100.264 89.3848 99.4278 85.6074C98.5913 81.83 96.5002 78.885 96.5002 78.885L96.4023 80.3172V80.3083Z" fill="white"/>
<path d="M92.2647 95.1763C92.0334 95.1763 91.8465 95.1405 91.7131 95.0689C91.4906 94.9436 91.3571 94.7287 91.3304 94.4781C91.2592 93.8067 91.9266 93.2339 93.0478 92.3835C92.8609 92.4014 92.6563 92.4193 92.4516 92.4283C87.2817 92.849 85.7601 92.8132 85.6622 91.7838C85.6355 91.5242 85.591 91.0945 86.9613 90.45C86.0092 90.3426 85.3329 90.0651 85.1817 89.4922C85.1016 89.1969 85.1461 88.8925 85.3152 88.6419C85.7779 87.9437 87.0681 87.7289 89.1236 87.4782C89.9245 87.3798 90.752 87.2723 91.3126 87.1291C91.9889 86.9501 92.4783 86.7263 92.7809 86.5383C92.4516 86.5562 92.0512 86.5831 91.7041 86.6099C88.6876 86.8337 86.8368 86.8785 86.6677 85.679C86.4186 83.9425 87.9758 83.6739 89.2304 83.4681C89.613 83.4054 90.2893 83.2622 91.0724 83.1011C93.3148 82.6356 95.0944 82.2775 95.8419 82.2775H95.8508C95.9753 82.018 95.9753 81.1497 95.8508 80.3978C95.8508 80.353 95.8419 80.3083 95.8508 80.2546L95.9487 78.8224C95.9664 78.5807 96.1355 78.3659 96.3669 78.3032C96.6071 78.2405 96.8563 78.3211 96.9987 78.527C97.0876 78.6523 99.161 81.6062 100.015 85.4642C100.914 89.5281 99.5347 92.5536 98.191 93.1802C96.794 93.8246 93.733 95.1763 92.2914 95.1763H92.2647ZM94.2402 91.1572C94.8008 91.1572 94.9876 91.4615 95.0499 91.6405C95.2368 92.1955 94.7385 92.5715 93.8308 93.2518C93.5995 93.4308 93.2525 93.6904 92.9677 93.9321C94.08 93.6456 96.091 92.8669 97.6749 92.1329C98.4936 91.748 99.6237 89.2148 98.8584 85.7327C98.4402 83.844 97.6927 82.1522 97.0698 80.9707C97.1232 81.6778 97.1054 82.6177 96.6783 83.1011C96.4648 83.3427 96.1889 83.4681 95.8597 83.4502C95.2813 83.4144 92.8698 83.9156 91.2948 84.2468C90.494 84.4079 89.8088 84.5512 89.4173 84.6228C87.9758 84.8645 87.7622 85.0077 87.7978 85.4284C88.3139 85.7059 90.6186 85.5358 91.6152 85.4642C93.2436 85.3389 93.7241 85.321 94.0355 85.5716C94.2936 85.7864 94.4092 86.1087 94.3381 86.4399C94.1868 87.1649 93.1635 87.8452 91.6063 88.2659C90.9745 88.436 90.147 88.5434 89.266 88.6508C88.3851 88.7582 86.7923 88.9552 86.3563 89.2416C86.8991 89.4833 89.4885 89.358 92.0601 88.9015C92.3715 88.8478 92.6652 89.0447 92.7275 89.358C92.7898 89.6623 92.6029 89.9667 92.2914 90.0383C90.5029 90.4679 88.483 91.0677 87.433 91.5242C88.7321 91.5868 91.1614 91.381 92.3537 91.2825C93.2169 91.2109 93.902 91.1572 94.2491 91.1572H94.2402Z" fill="#333333"/>
<path d="M56.5645 40.7348C56.5645 40.7348 57.2852 41.1734 57.8725 39.8576C58.4509 38.5418 58.5933 36.7963 58.5933 36.7963C58.5933 36.7963 58.4509 40.2962 59.9013 40.2962C61.3518 40.2962 66.5662 40.5916 67.1446 40.153C67.723 39.7144 69.4581 35.194 69.4581 35.194C69.4581 35.194 70.1789 39.7144 70.1789 40.2962C70.1789 40.8781 74.9573 40.8781 75.3933 40.5916C75.8293 40.2962 77.4221 35.203 77.4221 35.203C77.4221 35.203 77.5645 40.3052 78.4365 40.7438C79.3086 41.1824 81.1861 41.4688 81.3374 40.887C81.4887 40.3052 82.0582 38.4075 82.3518 36.662C82.6454 34.9165 81.195 30.3961 81.195 30.3961L76.2653 24.4167L64.5285 23.3963L57.1428 33.8871L56.5645 40.7348Z" fill="#333333"/>
<path d="M80.4922 41.7911C79.7002 41.7911 78.7481 41.5404 78.1875 41.254C77.5913 40.9586 77.2532 39.6875 77.0574 38.1837C76.1498 40.7885 75.8472 40.9855 75.7227 41.075C75.0642 41.5225 70.9265 41.442 70.0544 40.9676C69.654 40.7527 69.6095 40.4215 69.6095 40.2962C69.6095 40.0456 69.4227 38.7297 69.218 37.3692C68.604 38.8282 67.9099 40.3052 67.4917 40.6185C67.0201 40.9765 65.7121 41.0392 61.4142 40.9138C60.7735 40.8959 60.2396 40.878 59.9015 40.878C59.5099 40.878 59.154 40.7169 58.8692 40.4215C58.718 40.2694 58.6023 40.0814 58.4955 39.8666C58.4688 39.9471 58.4332 40.0187 58.3976 40.0903C58.104 40.7527 57.7125 41.1734 57.2409 41.3167C56.7336 41.4778 56.3421 41.2719 56.2709 41.2271C56.0841 41.1108 55.9773 40.8959 55.9951 40.6811L56.5735 33.8334C56.5735 33.726 56.618 33.6275 56.6803 33.547L64.0659 23.0561C64.1815 22.886 64.3773 22.7965 64.5909 22.8144L76.3278 23.8349C76.479 23.8438 76.6214 23.9244 76.7193 24.0408L81.6401 30.0202C81.6845 30.0739 81.7201 30.1455 81.7468 30.2171C81.8981 30.6915 83.2328 34.9255 82.9303 36.7605C82.6989 38.1479 82.2985 39.607 82.0583 40.4752C81.996 40.7169 81.9426 40.9049 81.907 41.0302C81.8358 41.2988 81.6489 41.5136 81.3731 41.6389C81.1417 41.7463 80.8303 41.7911 80.4922 41.7911ZM77.4311 34.6122C77.4311 34.6122 77.4845 34.6122 77.5112 34.6122C77.7871 34.648 78.0006 34.8897 78.0095 35.1672C78.0807 37.575 78.4189 39.8934 78.7481 40.2336C79.371 40.5379 80.4566 40.6811 80.8214 40.5916C80.857 40.4752 80.8926 40.3231 80.946 40.144C81.1773 39.2937 81.5778 37.8794 81.7913 36.5456C82.0049 35.2656 81.0973 31.9626 80.6879 30.6557L75.9896 24.9538L64.8222 23.987L57.7125 34.0751L57.2231 39.8487C57.2587 39.777 57.3031 39.6965 57.3476 39.607C57.8815 38.4075 58.0239 36.7515 58.0239 36.7336C58.0506 36.4203 58.3264 36.1786 58.6379 36.2055C58.9493 36.2234 59.1896 36.4919 59.1807 36.8052C59.1451 37.7004 59.2875 39.1594 59.7057 39.598C59.7858 39.6786 59.8392 39.6965 59.9015 39.6965C60.2485 39.6965 60.7913 39.7144 61.4498 39.7323C62.9091 39.777 66.3171 39.8755 66.8421 39.6428C67.1091 39.3653 68.1502 36.9843 68.9244 34.9702C69.0222 34.7285 69.2625 34.5764 69.5205 34.6032C69.7786 34.6301 69.9922 34.827 70.0277 35.0866C70.1345 35.7669 70.6328 38.8909 70.7396 39.9829C71.5405 40.2067 74.3345 40.2425 75.0464 40.0814C75.3667 39.5354 76.221 37.1006 76.8705 35.006C76.9506 34.7643 77.1731 34.6032 77.4223 34.6032L77.4311 34.6122Z" fill="#333333"/>
<path d="M69.2626 48.2181C68.6664 48.2181 68.1236 47.9585 67.821 47.5109C67.6164 47.2066 67.3494 46.5531 67.8655 45.6043C68.3905 44.6286 68.177 43.6619 68.177 43.6529C68.1058 43.3396 68.2926 43.0263 68.6041 42.9547C68.9155 42.8742 69.227 43.0622 69.2982 43.3754C69.3159 43.4292 69.6363 44.7808 68.8799 46.1682C68.7198 46.4636 68.6753 46.7232 68.7731 46.8664C68.871 47.0097 69.1202 47.0902 69.3871 47.0634C69.7075 47.0186 69.9922 47.2513 70.0367 47.5646C70.0723 47.8869 69.8498 48.1733 69.5384 48.2181C69.4494 48.227 69.3604 48.236 69.2715 48.236L69.2626 48.2181Z" fill="#333333"/>
<path d="M69.0311 51.3958C67.287 51.3958 66.3082 50.5633 66.2548 50.5096C66.0146 50.2948 65.9879 49.9278 66.2014 49.6861C66.4061 49.4444 66.7709 49.4175 67.0112 49.6234C67.0824 49.6771 68.6396 50.9482 71.496 49.6145C71.7807 49.4802 72.1277 49.6145 72.2612 49.9009C72.3947 50.1963 72.2701 50.5364 71.9765 50.6707C70.8375 51.2078 69.8409 51.3868 69.0222 51.3868L69.0311 51.3958Z" fill="#333333"/>
<path d="M64.5017 45.0046C65.062 45.0046 65.5161 44.4074 65.5161 43.6708C65.5161 42.9342 65.062 42.3371 64.5017 42.3371C63.9415 42.3371 63.4873 42.9342 63.4873 43.6708C63.4873 44.4074 63.9415 45.0046 64.5017 45.0046Z" fill="#333333"/>
<path d="M72.9373 45.0225C73.4975 45.0225 73.9517 44.4253 73.9517 43.6887C73.9517 42.9521 73.4975 42.355 72.9373 42.355C72.377 42.355 71.9229 42.9521 71.9229 43.6887C71.9229 44.4253 72.377 45.0225 72.9373 45.0225Z" fill="#333333"/>
<path d="M60.7643 42.8473C60.6486 42.8473 60.524 42.8115 60.4262 42.7399C60.1681 42.5519 60.1058 42.1849 60.2927 41.9253C60.355 41.8358 61.8855 39.7412 64.1813 39.4996C64.4927 39.4727 64.7863 39.6965 64.813 40.0187C64.8486 40.341 64.6173 40.6274 64.2969 40.6543C62.5084 40.8422 61.2448 42.5877 61.227 42.6056C61.1113 42.7668 60.9334 42.8473 60.7554 42.8473H60.7643Z" fill="#333333"/>
<path d="M75.9805 42.6235C75.767 42.6235 75.5623 42.4982 75.4555 42.2923C75.4288 42.2476 75.0551 41.6837 73.5068 41.1734C73.2043 41.075 73.0441 40.7438 73.142 40.4394C73.2399 40.1351 73.5691 39.965 73.8716 40.0724C75.9716 40.7706 76.4343 41.6479 76.5055 41.8179C76.6301 42.1133 76.4966 42.4535 76.203 42.5788C76.1318 42.6146 76.0517 42.6235 75.9716 42.6235H75.9805Z" fill="#333333"/>
<path d="M58.6647 45.9803C58.6647 45.9803 61.3075 44.3422 61.957 46.1951C62.6066 48.0569 59.3854 48.8894 59.3854 48.8894C59.3854 48.8894 59.1274 48.2986 58.9494 47.5378C58.7892 46.8664 58.7092 46.025 58.6558 45.9713L58.6647 45.9803Z" fill="#D8D0CA"/>
<path d="M79.3084 47.6362C79.1661 48.406 77.9559 48.8357 76.5944 48.5851C75.233 48.3344 74.2542 47.5109 74.3877 46.7322C74.53 45.9624 75.7402 45.5327 77.1017 45.7833C78.4631 46.034 79.4419 46.8575 79.3084 47.6362Z" fill="#D8D0CA"/>
<path d="M53.379 33.6633C53.379 33.6633 52.3646 33.0099 50.7718 33.9587C49.179 34.9076 48.9565 38.5507 48.9565 38.5507L52.5782 46.4905C52.5782 46.4905 53.9574 46.9291 55.3277 46.0519C55.3277 46.0519 54.0998 41.6031 53.9485 38.6939C53.9485 38.6939 53.2989 41.245 52.9341 40.0098C52.5693 38.7745 53.0765 35.561 53.3701 33.6723L53.379 33.6633Z" fill="white"/>
<path d="M53.4415 47.1797C52.8453 47.1797 52.4359 47.0544 52.4092 47.0455C52.258 46.9917 52.1245 46.8843 52.0622 46.7322L48.4406 38.7924C48.405 38.7029 48.3872 38.6134 48.3872 38.5149C48.4139 38.1121 48.672 34.5316 50.4783 33.4575C52.3559 32.3386 53.6372 33.1442 53.6906 33.18C53.8864 33.3053 53.9843 33.5291 53.9487 33.7618L53.922 33.9229C53.7351 35.1492 53.4326 37.1364 53.397 38.5507C53.4681 38.2732 53.7351 38.0763 54.0109 38.1211C54.2957 38.1479 54.5182 38.3806 54.5271 38.6671C54.6694 41.4778 55.8707 45.8549 55.8796 45.8997C55.9508 46.1503 55.844 46.4099 55.6304 46.5442C54.8296 47.0544 54.0376 47.1797 53.4326 47.1797H53.4415ZM52.9876 45.9892C53.3169 46.0429 53.9665 46.0787 54.6605 45.7654C54.4292 44.8703 53.9131 42.8026 53.6105 40.8064C53.4414 40.9318 53.2991 40.9318 53.2012 40.9318C52.9431 40.9318 52.5783 40.8064 52.3915 40.1709C52.0444 38.9983 52.3648 36.5277 52.7385 34.0482C52.4003 33.9945 51.8309 34.0035 51.0656 34.46C50.0423 35.0687 49.633 37.4676 49.544 38.4433L52.9876 45.9892Z" fill="#333333"/>
<path d="M50.0421 34.9792C50.0421 34.9792 44.8989 35.7042 45.9845 41.8985C46.9811 47.6004 52.5781 46.4905 52.5781 46.4905C52.5781 46.4905 50.2646 42.1939 50.0421 34.9792Z" fill="#F59B31"/>
<path d="M51.4835 47.1618C50.5047 47.1618 49.0809 46.9828 47.8352 46.1145C46.5538 45.2373 45.7441 43.8499 45.4237 41.997C45.0411 39.8128 45.3436 38.0047 46.3403 36.6352C47.7106 34.7375 49.8818 34.4063 49.9708 34.3973C50.1309 34.3794 50.3 34.4242 50.4246 34.5316C50.5492 34.639 50.6293 34.7912 50.6293 34.9613C50.8428 41.9343 53.0763 46.1682 53.0941 46.213C53.1831 46.3741 53.1831 46.571 53.1119 46.7411C53.0318 46.9112 52.8805 47.0276 52.7026 47.0634C52.6581 47.0634 52.1865 47.1618 51.4924 47.1618H51.4835ZM49.4992 35.7221C48.8763 35.937 47.9331 36.3935 47.2657 37.3334C46.4737 38.4344 46.2424 39.9382 46.5627 41.8C46.8297 43.3307 47.4792 44.4585 48.4937 45.1567C49.597 45.9176 50.9051 46.0071 51.7148 45.9892C51.0653 44.4943 49.7661 40.9139 49.5081 35.7221H49.4992Z" fill="#333333"/>
<path d="M84.959 33.6634C84.959 33.6634 85.9734 33.0099 87.5662 33.9587C89.159 34.9076 89.3814 38.5507 89.3814 38.5507L85.7598 46.4905C85.7598 46.4905 84.3806 46.9291 83.0103 46.0519C83.0103 46.0519 84.2382 41.6031 84.3895 38.694C84.3895 38.694 85.0391 41.2451 85.4039 40.0098C85.7687 38.7745 85.2615 35.561 84.9679 33.6723L84.959 33.6634Z" fill="white"/>
<path d="M84.8967 47.1797C84.2916 47.1797 83.4908 47.0544 82.6988 46.5442C82.4853 46.4099 82.3785 46.1414 82.4497 45.8997C82.4586 45.8549 83.6688 41.4867 83.8022 38.6671C83.82 38.3807 84.0336 38.1479 84.3184 38.1211C84.612 38.0942 84.87 38.2732 84.9323 38.5507C84.8967 37.1364 84.5942 35.1403 84.4073 33.905L84.3806 33.7529C84.345 33.5291 84.4518 33.2964 84.6387 33.171C84.6921 33.1352 85.9734 32.3296 87.851 33.4485C89.6573 34.5227 89.9243 38.1032 89.9421 38.506C89.9421 38.6044 89.9332 38.694 89.8887 38.7835L86.2671 46.7232C86.1959 46.8754 86.0713 46.9828 85.9111 47.0365C85.8756 47.0455 85.4751 47.1708 84.8789 47.1708L84.8967 47.1797ZM83.6777 45.7565C84.3717 46.0698 85.0124 46.034 85.3505 45.9803L88.7942 38.4344C88.7141 37.4587 88.3048 35.0597 87.2726 34.4511C86.5073 33.9945 85.9378 33.9856 85.5997 34.0393C85.9734 36.5188 86.2938 38.9804 85.9467 40.162C85.7599 40.7975 85.4039 40.9228 85.137 40.9228C85.0391 40.9228 84.8967 40.9228 84.7277 40.7975C84.4251 42.7936 83.909 44.8703 83.6777 45.7565Z" fill="#333333"/>
<path d="M88.2963 34.9792C88.2963 34.9792 93.4395 35.7042 92.3539 41.8985C91.3573 47.6004 85.7603 46.4905 85.7603 46.4905C85.7603 46.4905 88.0738 42.1939 88.2963 34.9792Z" fill="#F59B31"/>
<path d="M86.8546 47.1618C86.1694 47.1618 85.6978 47.0723 85.6444 47.0634C85.4664 47.0276 85.3152 46.9112 85.2351 46.7411C85.155 46.571 85.1639 46.3741 85.2529 46.213C85.2796 46.1682 87.513 41.9343 87.7177 34.9613C87.7177 34.8002 87.7978 34.639 87.9224 34.5316C88.0469 34.4242 88.216 34.3794 88.3762 34.3973C88.4652 34.4063 90.6364 34.7375 92.0067 36.6352C92.9944 38.0047 93.3058 39.8128 92.9143 41.997C92.594 43.8499 91.7753 45.2284 90.5029 46.1145C89.2571 46.9738 87.8334 47.1618 86.8546 47.1618ZM86.6321 45.9892C87.4419 46.025 88.7588 45.9086 89.8533 45.1478C90.8588 44.4496 91.5084 43.3217 91.7753 41.7911C92.1046 39.9292 91.8643 38.4165 91.0635 37.3155C90.3872 36.3756 89.4529 35.9191 88.8389 35.7132C88.5808 40.9049 87.2817 44.4854 86.6321 45.9803V45.9892Z" fill="#333333"/>
<path d="M49.3926 34.9792C49.3926 34.9792 50.0422 15.0089 69.8943 15.5908C90.2715 16.1905 88.2249 34.7554 88.2249 34.7554L87.1393 34.6838C87.1393 34.6838 86.3829 17.9987 70.0456 17.8554C53.4591 17.7122 51.1367 31.2644 50.9231 34.9076L49.4015 34.9792H49.3926Z" fill="#F59B31"/>
<path d="M49.3927 35.561C49.2414 35.561 49.0991 35.4984 48.9834 35.3909C48.8677 35.2746 48.8054 35.1224 48.8143 34.9613C48.8143 34.7554 49.713 14.4092 69.9122 15.0179C76.4169 15.2059 81.3733 17.2199 84.6301 20.9973C89.622 26.7709 88.8301 34.5048 88.7945 34.827C88.7589 35.1403 88.483 35.3641 88.1805 35.3462L87.0949 35.2746C86.8013 35.2567 86.5699 35.015 86.5521 34.7196C86.5254 34.0572 85.6178 18.5805 70.0279 18.4462C69.9389 18.4462 69.85 18.4462 69.7699 18.4462C53.308 18.4462 51.6529 32.1864 51.4927 34.9523C51.4749 35.2477 51.2347 35.4805 50.941 35.4984L49.4194 35.57C49.4194 35.57 49.4016 35.57 49.3927 35.57V35.561ZM69.0402 16.1637C52.4804 16.1637 50.2914 31.0317 50.0067 34.3615L50.3715 34.3436C50.6919 31.0675 53.0588 17.2647 69.7699 17.2647C69.8588 17.2647 69.9478 17.2647 70.0368 17.2647C85.0661 17.3989 87.353 31.2465 87.6555 34.1288H87.6733C87.7534 32.2938 87.6644 26.2607 83.7491 21.7403C80.7059 18.2225 76.0343 16.3516 69.8766 16.1726C69.5919 16.1726 69.3161 16.1637 69.0402 16.1637Z" fill="#333333"/>
</g>
<defs>
<clipPath id="clip0_148_1616">
<rect width="118" height="109" rx="15" fill="white"/>
</clipPath>
</defs>
</svg>
