<svg width="118" height="110" viewBox="0 0 118 110" fill="none" xmlns="http://www.w3.org/2000/svg">
<g clip-path="url(#clip0_148_1414)">
<path d="M42.5976 117.807C42.548 118.017 42.504 118.237 42.5646 118.44C42.6251 118.638 42.7903 118.792 42.95 118.924C44.4423 120.162 46.4247 120.624 48.352 120.872C50.7363 121.186 53.1427 121.23 55.549 121.235C59.8717 121.246 64.2219 121.142 68.4619 120.305C72.702 119.469 76.8594 117.879 80.2295 115.178C80.5323 114.936 80.8352 114.671 80.9894 114.314C81.127 113.989 81.1215 113.626 81.1325 113.268C81.1876 111.932 81.5841 110.611 82.2779 109.472C71.7053 113.868 60.0369 114.248 48.7429 114.094C47.4654 114.077 45.1912 113.571 44.0018 114.006C42.9005 114.407 42.8564 116.674 42.5976 117.807Z" fill="#F9BBBB" stroke="#1D1D1B" stroke-width="0.954689" stroke-linecap="round" stroke-linejoin="round"/>
<path d="M5.43896 39.2473L7.12948 39.7094L9.10634 48.9359L7.38278 47.511L5.43896 39.2473Z" fill="#F9BBBB" stroke="#1D1D1B" stroke-width="0.954689" stroke-linecap="round" stroke-linejoin="round"/>
<path d="M3.06 49.7832L0.323242 43.1315L5.43884 39.2473L7.91679 49.7832L4.11726 51.4117L3.06 49.7832Z" fill="#F9BBBB" stroke="#1D1D1B" stroke-width="0.954689" stroke-linecap="round" stroke-linejoin="round"/>
<path d="M3.82557 49.046C3.05465 49.7997 2.0855 50.5314 1.96435 51.6043C1.9203 52.0114 2.00841 52.4241 2.09651 52.8257C3.12624 57.5187 4.16147 62.2063 5.1912 66.8993C6.5348 66.0905 7.8784 65.2873 9.222 64.4785C9.46429 64.33 9.7231 64.1649 9.82773 63.9008C9.91583 63.6752 9.87178 63.4167 9.82222 63.1746C9.48081 61.469 9.13941 59.7635 8.798 58.0634C8.75945 57.8653 8.72091 57.6563 8.798 57.4692C8.89161 57.2381 9.12839 57.1061 9.33764 56.9686C10.7088 56.0387 11.0447 53.8875 10.0094 52.5891C10.6097 52.3856 11.0227 51.7308 10.9456 51.1036C10.8685 50.4764 10.3178 49.9372 9.68456 49.8767C10.0039 49.4366 10.0205 48.8094 9.72861 48.3527C9.43676 47.8961 8.85306 47.6485 8.32443 47.753C8.82003 47.2909 8.7154 46.3831 8.18126 45.9594C7.65263 45.5358 6.84317 45.5743 6.27599 45.9484C5.22424 46.6472 4.72865 48.1547 3.82557 49.0405V49.046Z" fill="white" stroke="#1D1D1B" stroke-width="0.954689" stroke-linecap="round" stroke-linejoin="round"/>
<path d="M43.5168 61.7716C42.2503 62.2338 40.8462 62.0797 39.5411 62.4153C35.6314 63.4332 34.2218 68.1372 31.5015 71.1192C29.4861 73.3254 26.5401 74.6459 23.5555 74.6844C22.1899 72.0215 20.2076 69.6777 17.8122 67.8896C17.2505 67.4715 16.6503 67.0644 16.2759 66.4702C15.7968 65.7109 15.7527 64.7536 15.3783 63.9393C14.2384 61.4525 10.6151 61.3315 8.15919 62.5364C3.85306 64.6491 1.26498 69.7768 2.11299 74.4918C2.56453 77.0006 3.85306 79.2619 5.1471 81.4626C7.21757 84.9837 9.47526 88.6149 12.9774 90.7221C16.386 92.7688 20.5159 93.1044 24.4696 93.539C25.8242 93.6876 27.2174 93.8636 28.4068 94.5404C29.0786 94.92 29.6623 95.4537 30.3727 95.7453C33.0764 96.8456 36.0499 94.0947 38.9023 94.6999C41.9695 95.3546 42.9331 99.3269 42.5036 102.43C42.0741 105.533 40.9288 108.801 42.1512 111.689C43.7922 115.546 48.704 116.608 52.889 116.867C60.3779 117.329 68.0596 116.867 75.0419 114.121C78.9406 112.592 82.8337 110.022 84.0947 106.034C85.6751 101.01 82.5804 95.7508 82.4868 90.491C82.4372 87.9052 83.12 85.3689 83.7974 82.8711C83.9791 82.1998 84.1773 81.4956 84.6729 81.0059C85.1795 80.4998 85.9064 80.3017 86.5506 79.9936C88.3293 79.1408 88.6762 77.9359 89.2764 76.3129C89.8215 74.8439 91.4845 74.2442 92.8226 73.705C97.36 71.8674 101.253 68.4673 103.676 64.2199C106.099 59.967 107.041 54.8889 106.303 50.0528C106.055 48.4188 105.62 46.8122 105.356 45.1782C104.689 41.0298 105.146 36.799 105.201 32.5956C105.218 31.2311 105.185 29.8227 104.623 28.5793C103.874 26.9287 102.266 25.7844 100.554 25.1957C98.8358 24.607 96.9966 24.5024 95.1849 24.4199C93.979 24.3649 92.7455 24.3209 91.5891 24.6565C88.9625 25.4212 87.2279 28.0401 86.6718 30.7195C86.1156 33.3933 86.5066 36.1663 86.8039 38.8841C87.261 43.027 87.5088 47.1864 87.5363 51.3512C87.5363 51.8409 87.5253 52.3746 87.2114 52.7487C86.8149 53.2273 86.1046 53.2659 85.565 53.574C84.8932 53.9591 84.5462 54.7183 83.9956 55.2575C82.652 56.5669 80.4989 56.3304 78.6322 56.1378C73.8965 55.6536 68.2578 55.8242 63.7755 57.6178C59.4749 59.3398 54.965 60.9739 50.2679 59.6259C47.3219 58.7787 46.0223 60.8803 43.5223 61.7936L43.5168 61.7716Z" fill="#F9BBBB" stroke="#1D1D1B" stroke-width="0.954689" stroke-linecap="round" stroke-linejoin="round"/>
<path d="M47.8021 32.7187C48.844 28.6818 47.3108 24.7967 44.3778 24.041C41.4447 23.2853 38.2224 25.9452 37.1805 29.982C36.1386 34.0188 37.6717 37.904 40.6047 38.6597C43.5378 39.4154 46.7602 36.7555 47.8021 32.7187Z" fill="white" stroke="#1D1D1B" stroke-width="0.954689" stroke-linecap="round" stroke-linejoin="round"/>
<path d="M64.5957 47.8521C68.2024 43.6817 70.6474 38.2954 71.0053 32.6451C71.2696 28.5462 70.2344 24.0458 67.1617 21.5424C64.882 19.6883 61.8754 19.2262 59.012 19.0556C53.3292 18.72 46.1211 19.7599 42.7346 25.3387C39.9097 29.9932 37.1344 37.7398 38.9901 43.104C40.3558 47.0543 43.9626 49.7062 47.718 51.0596C49.0121 51.5273 50.3447 51.8684 51.6938 52.083C52.1563 53.5849 52.4647 55.0099 52.5913 56.5944C52.7731 58.9437 50.5154 61.0784 48.2191 61.1499C50.5649 62.3273 53.2852 62.4318 55.9063 62.4484C58.2796 62.4649 60.6915 62.4263 62.9492 61.7001C65.2069 60.9739 67.3159 59.4444 68.1969 57.2491C68.0373 57.6398 64.3809 57.4802 63.9018 57.4747C62.8831 57.4637 61.6607 57.6123 60.9833 56.7155C60.1078 55.5601 59.9867 53.4419 60.0693 51.4943C61.8258 50.7075 63.3071 49.3431 64.6012 47.8466L64.5957 47.8521Z" fill="white" stroke="#1D1D1B" stroke-width="0.954689" stroke-linecap="round" stroke-linejoin="round"/>
<path d="M55.1352 33.6024C55.5316 33.6409 55.9501 33.6904 56.2805 33.916C56.3796 33.982 56.4788 34.0811 56.4898 34.2021C56.5008 34.3231 56.3796 34.4552 56.2695 34.4112C56.3907 34.4002 56.5173 34.4827 56.5503 34.6037C56.5338 34.8513 56.4237 35.0219 56.1429 34.9503C55.8841 34.8843 55.6528 34.8293 55.383 34.8018C54.7222 34.7358 54.0669 34.6642 53.4061 34.5982C53.2189 34.5762 52.9931 34.5377 52.9105 34.3671C52.8169 34.1691 52.9711 33.9325 53.1583 33.828C53.775 33.4869 54.4579 33.5364 55.1352 33.6024Z" fill="#1D1D1B"/>
<path d="M45.8624 31.4182C45.499 31.2531 45.1135 31.0881 44.7115 31.1211C44.5904 31.1321 44.4582 31.1651 44.3866 31.2641C44.315 31.3632 44.3536 31.5392 44.4747 31.5557C44.3756 31.4842 44.2269 31.4952 44.1333 31.5833C44.0232 31.8033 44.0342 32.0124 44.315 32.0894C44.5683 32.1609 44.7996 32.2325 45.0474 32.3425C45.6531 32.6121 46.2589 32.8817 46.8646 33.1513C47.0408 33.2283 47.25 33.3053 47.4097 33.1953C47.5914 33.0742 47.5749 32.7881 47.4593 32.6066C47.0959 32.0014 46.4736 31.7098 45.8569 31.4292L45.8624 31.4182Z" fill="#1D1D1B"/>
<path d="M47.2886 38.9282C47.3161 39.2858 47.5914 39.6104 47.9383 39.7039C47.9714 39.7149 48.0099 39.7204 48.043 39.7039C48.065 39.6929 48.0815 39.6654 48.0925 39.6379C48.1806 39.4453 48.087 39.2088 47.9273 39.0657C47.7676 38.9227 47.5584 38.8511 47.3602 38.7851C47.3326 38.7906 47.3216 38.8016 47.3161 38.8236C47.3106 38.8511 47.2886 38.9006 47.2886 38.9282Z" fill="#1D1D1B"/>
<path d="M45.8846 38.323C45.846 38.3395 45.813 38.3615 45.78 38.389C45.7469 38.422 45.7249 38.4605 45.7139 38.5045C45.7084 38.532 45.7029 38.565 45.7139 38.5925C45.7359 38.6586 45.8185 38.6806 45.8901 38.6806C46.0773 38.6861 46.2645 38.609 46.3912 38.4715C46.4187 38.4385 46.4463 38.4055 46.4573 38.3615C46.4683 38.3175 46.4628 38.2679 46.4352 38.2404C46.3196 38.1139 46.0002 38.2734 45.8846 38.3285V38.323Z" fill="#1D1D1B"/>
<path d="M46.0439 37.4317C46.3854 37.1731 46.7598 36.964 47.1563 36.8045C47.349 36.7274 47.5472 36.6614 47.7179 36.5459C48.0979 36.2818 48.2686 35.8141 48.4173 35.374" stroke="#1D1D1B" stroke-width="0.445192" stroke-miterlimit="10" stroke-linecap="round"/>
<path d="M54.216 29.6741C54.0508 29.9767 54.2655 30.3399 54.6069 30.3399C55.4274 30.3399 56.292 30.4774 57.0133 30.8845C57.2501 31.0166 57.4759 31.1871 57.6686 31.3797C57.7677 31.4842 57.8613 31.5943 57.9439 31.7153C58.021 31.8309 58.0816 31.9959 58.2303 32.0234C58.6763 32.0949 58.8305 31.5393 58.7038 31.2147C58.423 30.5049 57.4428 28.7388 54.7281 29.2615C54.5188 29.3 54.3371 29.4431 54.238 29.6301L54.216 29.6741Z" fill="#1D1D1B"/>
<path d="M49.2103 28.1501C49.2103 28.4912 48.8469 28.7058 48.544 28.5462C47.8227 28.1501 47.0022 27.8585 46.1707 27.864C45.8954 27.864 45.62 27.9025 45.3557 27.9851C45.218 28.0291 45.0804 28.0786 44.9482 28.1446C44.8216 28.2051 44.6949 28.3262 44.5462 28.2711C44.1222 28.1226 44.2544 27.5559 44.5242 27.3358C45.1134 26.8517 46.826 25.7788 48.946 27.5449C49.1112 27.6825 49.1993 27.8915 49.1993 28.1006V28.1501H49.2103Z" fill="#1D1D1B"/>
<path d="M52.5862 41.4205C53.0928 41.3874 53.6654 41.437 54.0013 41.8221C54.2602 42.1192 54.3097 42.5483 54.2436 42.9335C54.106 43.7202 53.5388 44.3749 52.8835 44.8261C51.9309 45.4863 50.7194 45.7999 49.5796 45.6018C48.4342 45.4038 47.3769 44.6665 46.8703 43.6212C46.6941 43.2636 46.3692 42.3503 46.8318 42.0917C47.1842 41.8936 48.1369 42.1742 48.5609 42.1357C49.921 42.0257 51.2205 41.514 52.5862 41.4205Z" stroke="#1D1D1B" stroke-width="0.445192" stroke-miterlimit="10" stroke-linecap="round"/>
<path d="M48.9961 43.2691C49.5853 43.06 50.2351 43.0985 50.8463 43.2361C51.7329 43.4396 52.5919 43.8633 53.1591 44.573C53.6932 44.2044 54.0787 43.6322 54.2108 42.9995C54.2879 42.6309 54.2714 42.2072 54.0236 41.9211C53.7648 41.624 53.3298 41.558 52.9333 41.536C52.1458 41.492 51.3474 41.5525 50.571 41.7121C50.1194 41.8056 49.6789 41.9321 49.2219 42.0037C48.5666 42.1137 47.8948 42.1137 47.2285 42.0752C47.0908 42.0697 46.9477 42.0587 46.821 42.1247C46.5897 42.2457 46.5402 42.5594 46.5897 42.8179C46.6338 43.0655 46.7384 43.2966 46.8706 43.5112C46.9256 43.5992 46.9477 43.6927 46.9917 43.7808C47.0468 43.8908 47.1514 43.9843 47.2395 44.0668C47.4653 44.2924 47.6965 44.518 47.9223 44.7436C47.9058 44.408 47.9774 44.0283 48.2142 43.7752C48.4289 43.5497 48.6987 43.3791 48.9906 43.2746L48.9961 43.2691Z" fill="#1D1D1B"/>
<path d="M65.9892 10.9955C63.5002 10.4618 60.8956 10.5829 58.346 10.7149C54.3373 10.924 49.7503 12.2609 48.5609 16.6679C48.2966 17.6527 48.2745 18.6925 48.3792 19.7104C48.7041 22.8849 50.1963 25.8669 52.2503 28.3097C54.2987 30.7525 56.8868 32.7001 59.6126 34.3672C59.6676 34.1086 59.7172 33.85 59.7722 33.5914C61.0553 35.4125 61.1103 38.0148 59.9044 39.891C60.7249 39.8414 61.4958 39.3188 61.8537 38.576C61.3416 40.2101 60.4496 41.7231 59.2656 42.961C61.7932 43.1645 64.3152 42.6749 66.8041 42.1907C68.4836 41.8606 70.1797 41.525 71.738 40.8263C74.4527 39.5994 75.5265 37.2666 77.0188 34.8623C77.1069 34.7248 77.4043 34.6808 77.3437 34.8293C77.4703 34.2296 77.6796 33.6409 77.9714 33.1017C78.2578 33.2558 78.5221 33.4484 78.7644 33.6629C79.0287 29.1184 78.5992 24.4419 76.7325 20.288C74.8657 16.1342 71.4076 12.5525 67.0354 11.2596C66.694 11.1606 66.3471 11.0725 66.0002 10.9955H65.9892Z" fill="#1D1D1B"/>
<path d="M73.1292 41.4431C74.1711 37.4063 72.638 33.5211 69.7049 32.7654C66.7719 32.0097 63.5495 34.6696 62.5076 38.7065C61.4657 42.7433 62.9988 46.6284 65.9319 47.3842C68.865 48.1399 72.0873 45.48 73.1292 41.4431Z" fill="white" stroke="#1D1D1B" stroke-width="0.954689" stroke-linecap="round" stroke-linejoin="round"/>
<path d="M74.6237 41.8276C73.7757 45.1177 71.1436 47.2909 68.7537 46.6747C66.3639 46.0585 65.1139 42.8895 65.9619 39.5994C66.8099 36.3093 69.442 34.1361 71.8319 34.7523C74.2217 35.3685 75.4717 38.5375 74.6237 41.8276Z" fill="#F9BBBB" stroke="#1D1D1B" stroke-width="0.776612" stroke-linecap="round" stroke-linejoin="round"/>
<path d="M72.6086 41.3049C72.2948 42.5318 71.3146 43.3351 70.428 43.104C69.536 42.8729 69.0734 41.6956 69.3873 40.4742C69.7012 39.2528 70.6813 38.444 71.5679 38.6751C72.46 38.9061 72.9225 40.0835 72.6086 41.3049Z" fill="#F9BBBB" stroke="#1D1D1B" stroke-width="0.667787" stroke-linecap="round" stroke-linejoin="round"/>
<path d="M47.4705 14.4066C44.497 16.2332 42.1456 19.1437 41.2701 22.5218C40.7139 24.6785 40.758 26.9342 40.8076 29.1569C41.3968 28.2326 41.9915 27.3028 42.5807 26.3785C43.4727 24.9866 44.3758 23.5781 45.5652 22.4282C47.3934 20.6677 49.8769 19.6058 52.4154 19.4958C52.8339 19.4793 53.2799 19.4793 53.6268 19.2482C54.1995 18.8741 54.2766 18.0763 54.2931 17.3941C54.3096 16.5358 54.3317 15.661 54.1224 14.8303C53.9793 14.2471 53.7094 13.6804 53.2964 13.2402C52.7623 12.6735 52.2667 12.7341 51.5343 12.8441C50.0861 13.0532 48.715 13.6419 47.4705 14.4066Z" fill="#1D1D1B"/>
<path d="M69.717 34.7633C69.717 34.7633 71.4736 28.3647 70.2952 25.7293C70.2952 25.7293 68.7864 22.8299 65.7578 20.7667L69.2765 21.4489C69.2765 21.4489 72.1344 23.6442 72.7952 26.0649C72.7952 26.0649 73.7093 27.754 72.4813 34.7963L69.717 34.7688V34.7633Z" fill="#F9BBBB" stroke="#1D1D1B" stroke-width="0.776612" stroke-linecap="round" stroke-linejoin="round"/>
<path d="M101.523 0.822667C101.743 0.674119 102.013 0.531072 102.266 0.613599C103.83 1.10876 99.7279 8.03553 99.1938 8.96533C99.5076 8.59671 100.124 8.5472 100.51 8.83879C100.895 9.13039 101.022 9.70808 100.818 10.1482C101.033 9.59254 101.864 9.466 102.316 9.85663C102.762 10.2473 102.817 10.9735 102.536 11.4962C102.646 11.067 103.329 11.0725 103.605 11.4191C103.88 11.7658 103.852 12.2554 103.808 12.6956C103.649 14.2856 103.379 15.9636 102.349 17.1905C101.661 18.0048 100.681 18.4669 100.003 19.2867C99.3094 20.1285 98.8799 21.1628 98.6321 22.2137C98.2962 23.6276 98.2742 25.0966 98.2026 26.5491C98.1916 26.7692 98.175 27.0112 98.0209 27.1708C97.8832 27.3193 97.6739 27.3689 97.4757 27.4019C96.1156 27.6385 94.7114 27.6385 93.3513 27.4019C93.1696 27.3689 92.9713 27.3303 92.8447 27.1928C92.6905 27.0333 92.674 26.7857 92.6685 26.5656C92.5914 23.7267 92.5088 20.8877 92.6244 18.0433C92.6465 17.4436 92.6795 16.8329 92.5253 16.2552C92.3546 15.6225 91.9747 15.0613 91.7599 14.4451C91.3689 13.3173 91.5451 12.0849 91.7269 10.9075C91.7764 10.5774 91.837 10.2307 92.0628 9.98867C92.4758 9.53752 93.2412 9.66406 93.7588 9.99967C94.2764 10.3353 94.6894 10.8304 95.2511 11.078C97.4702 7.66691 97.8887 3.24346 101.523 0.811664V0.822667Z" fill="white" stroke="#1D1D1B" stroke-width="0.954689" stroke-linecap="round" stroke-linejoin="round"/>
<path d="M94.766 10.7919C95.95 11.5677 96.6383 13.0422 96.4731 14.4451C96.4511 14.6377 96.4125 14.8358 96.3134 15.0063C96.1041 15.3804 95.6471 15.5675 95.2176 15.529C94.7936 15.485 94.4026 15.2429 94.1163 14.9293C93.8299 14.6157 93.6262 14.2306 93.439 13.8454" stroke="#1D1D1B" stroke-width="0.954689" stroke-linecap="round" stroke-linejoin="round"/>
<path d="M99.2709 8.8443C98.6046 9.51002 98.0925 10.3298 97.7896 11.2211C97.685 11.5292 97.6024 11.8538 97.652 12.1784C97.7015 12.4975 97.8998 12.8166 98.2081 12.9156C98.3568 12.9651 98.5495 12.9431 98.6211 12.8001" stroke="#1D1D1B" stroke-width="0.954689" stroke-linecap="round" stroke-linejoin="round"/>
<path d="M100.989 9.95566C100.515 10.4838 100.047 11.0175 99.6947 11.6282C99.3423 12.2389 99.1055 12.9376 99.133 13.6419C99.1385 13.8564 99.1826 14.082 99.3258 14.2361C99.5625 14.4836 99.959 14.4451 100.3 14.3901C100.185 14.3791 100.075 14.3736 99.959 14.3626" stroke="#1D1D1B" stroke-width="0.954689" stroke-linecap="round" stroke-linejoin="round"/>
<path d="M102.867 11.3311C102.123 12.0903 101.6 13.0587 101.375 14.093C101.331 14.2856 101.297 14.4891 101.325 14.6872C101.353 14.8853 101.446 15.0833 101.617 15.1879" stroke="#1D1D1B" stroke-width="0.954689" stroke-linecap="round" stroke-linejoin="round"/>
<path d="M43.4782 48.9634C43.2745 52.292 43.0983 55.7527 44.3758 58.8337C44.8659 60.0111 45.5597 61.0949 46.3362 62.1072C49.9099 66.7563 55.3944 69.8923 61.2149 70.6075" stroke="#1D1D1B" stroke-width="0.445192" stroke-linecap="round" stroke-linejoin="round"/>
<path d="M46.3527 60.4677C46.3362 60.6383 46.3472 60.8033 46.3692 60.9629" stroke="#1D1D1B" stroke-width="0.445192" stroke-linecap="round" stroke-linejoin="round"/>
<path d="M47.019 62.2723C47.5422 62.872 48.3021 63.3451 49.04 63.6587" stroke="#1D1D1B" stroke-width="0.445192" stroke-linecap="round" stroke-linejoin="round"/>
<path d="M49.04 63.6588C51.6006 64.7481 54.442 64.9847 57.2228 65.0232C58.5664 65.0397 59.9265 65.0177 61.2316 64.6876C64.1445 63.9559 66.4738 61.8101 68.4507 59.5489C69.1665 58.7291 69.8824 57.8323 70.1742 56.798" stroke="#1D1D1B" stroke-width="0.445192" stroke-linecap="round" stroke-linejoin="round"/>
<path d="M70.1904 56.754C70.2345 56.5944 70.2675 56.4349 70.2896 56.2698" stroke="#1D1D1B" stroke-width="0.445192" stroke-linecap="round" stroke-linejoin="round"/>
<path d="M66.4959 47.1038C65.301 46.5261 64.4034 45.3597 64.1611 44.0558" stroke="#1D1D1B" stroke-width="0.445192" stroke-linecap="round" stroke-linejoin="round"/>
<path d="M63.8471 43.1425C63.8196 42.8619 63.7976 42.5868 63.77 42.3062" stroke="#1D1D1B" stroke-width="0.445192" stroke-linecap="round" stroke-linejoin="round"/>
<path d="M63.687 41.4755C63.7201 41.3654 63.7366 41.2499 63.7311 41.1344" stroke="#1D1D1B" stroke-width="0.445192" stroke-linecap="round" stroke-linejoin="round"/>
<path d="M63.7754 40.4191C63.8139 40.3531 63.8305 40.2651 63.8084 40.1881" stroke="#1D1D1B" stroke-width="0.445192" stroke-linecap="round" stroke-linejoin="round"/>
<path d="M51.9365 21.8726C52.0907 22.3292 52.1622 22.7308 52.2614 23.138C52.344 23.5506 52.4486 23.9467 52.5036 24.4254C52.1072 24.1393 51.8869 23.6992 51.7768 23.248C51.6832 22.7914 51.6997 22.2962 51.9365 21.8726Z" fill="white"/>
<path d="M53.1642 23.314C53.3845 23.6992 53.4891 24.0623 53.5937 24.4309C53.6819 24.805 53.7645 25.1736 53.7534 25.6138C53.4065 25.3332 53.2193 24.9481 53.1092 24.5519C53.0156 24.1503 52.9935 23.7212 53.1587 23.314H53.1642Z" fill="white"/>
<path d="M54.64 24.7115C54.8493 25.1351 54.9539 25.5313 55.0585 25.9384C55.1521 26.3455 55.2402 26.7472 55.2457 27.2203C54.8823 26.9122 54.6896 26.4886 54.5795 26.0539C54.4803 25.6193 54.4638 25.1516 54.6455 24.7115H54.64Z" fill="white"/>
<path d="M55.7464 26.285C56.0658 26.5271 56.2365 26.8077 56.3742 27.1103C56.5008 27.4184 56.5889 27.7375 56.5504 28.1336C56.242 27.9135 56.0658 27.6164 55.9226 27.3083C55.796 26.9947 55.6969 26.6646 55.7464 26.285Z" fill="white"/>
<path d="M57.8061 27.7265C58.0484 27.897 58.1475 28.0896 58.2301 28.2932C58.2962 28.5022 58.3347 28.7113 58.2466 28.9974C57.9713 28.8763 57.8446 28.6728 57.762 28.4527C57.6959 28.2326 57.6684 27.9906 57.8061 27.7265Z" fill="white"/>
<path d="M59.3811 29.333C59.6179 29.399 59.706 29.4925 59.7611 29.6081C59.7996 29.7291 59.8051 29.8557 59.684 30.0702C59.4582 30.0372 59.3646 29.9217 59.304 29.7951C59.26 29.6631 59.2435 29.5146 59.3811 29.333Z" fill="white"/>
<path d="M60.7633 31.1376C60.9781 31.1486 61.0497 31.2201 61.0882 31.2971C61.1158 31.3852 61.1048 31.4842 60.9506 31.6383C60.7358 31.6272 60.6642 31.5557 60.6257 31.4787C60.6037 31.3907 60.6092 31.2916 60.7633 31.1376Z" fill="white"/>
<path d="M61.8204 32.8322C62.0352 32.9367 62.1013 33.0852 62.1123 33.2283C62.1123 33.3768 62.0682 33.5309 61.859 33.6519C61.6718 33.5034 61.6277 33.3823 61.6167 33.2503C61.6167 33.1238 61.6497 32.9972 61.8149 32.8267L61.8204 32.8322Z" fill="white"/>
<path d="M50.4551 21.581C50.2239 21.3609 50.1633 21.0913 50.1688 20.8272C50.1853 20.5631 50.2679 20.299 50.5212 20.101C50.6534 20.3871 50.6699 20.6127 50.6644 20.8492C50.6479 21.0858 50.6148 21.3114 50.4551 21.581Z" fill="white"/>
<path d="M8.26953 83.4818C8.53935 83.6248 8.85323 83.6853 9.16159 83.6578" stroke="#1D1D1B" stroke-width="0.445192" stroke-miterlimit="10" stroke-linecap="round"/>
<path d="M9.2002 84.9177C9.75085 84.9067 10.307 84.8572 10.8522 84.7692" stroke="#1D1D1B" stroke-width="0.445192" stroke-miterlimit="10" stroke-linecap="round"/>
<path d="M10.3506 85.9135C11.0719 86.0566 11.8429 85.9631 12.5092 85.644" stroke="#1D1D1B" stroke-width="0.445192" stroke-miterlimit="10" stroke-linecap="round"/>
<path d="M11.6338 87.0964C12.2175 87.1129 12.8012 87.0524 13.3684 86.9094" stroke="#1D1D1B" stroke-width="0.445192" stroke-miterlimit="10" stroke-linecap="round"/>
<path d="M13.3633 88.3783C13.6551 88.3838 13.947 88.3563 14.2278 88.2958" stroke="#1D1D1B" stroke-width="0.445192" stroke-miterlimit="10" stroke-linecap="round"/>
<path d="M15.3447 89.2036H16.0441" stroke="#1D1D1B" stroke-width="0.445192" stroke-miterlimit="10" stroke-linecap="round"/>
<path d="M17.4873 89.6988H18.1481" stroke="#1D1D1B" stroke-width="0.445192" stroke-miterlimit="10" stroke-linecap="round"/>
<path d="M19.7173 90.359H19.8825" stroke="#1D1D1B" stroke-width="0.445192" stroke-miterlimit="10" stroke-linecap="round"/>
<path d="M7.26123 81.7377C7.43744 81.7762 7.61916 81.8202 7.79537 81.8587" stroke="#1D1D1B" stroke-width="0.445192" stroke-miterlimit="10" stroke-linecap="round"/>
<path d="M76.2095 110.903C76.3526 110.276 76.4077 109.626 76.3747 108.983" stroke="#1D1D1B" stroke-width="0.445192" stroke-miterlimit="10" stroke-linecap="round"/>
<path d="M77.6685 110.215C77.9493 109.544 78.0154 108.79 77.8557 108.08" stroke="#1D1D1B" stroke-width="0.445192" stroke-miterlimit="10" stroke-linecap="round"/>
<path d="M80.0142 108.663C80.1243 108.339 80.1573 107.987 80.1078 107.646" stroke="#1D1D1B" stroke-width="0.445192" stroke-miterlimit="10" stroke-linecap="round"/>
<path d="M81.3247 107.321C81.3853 107.183 81.4459 107.04 81.5064 106.903" stroke="#1D1D1B" stroke-width="0.445192" stroke-miterlimit="10" stroke-linecap="round"/>
<path d="M88.8193 31.8748C88.946 32.304 89.1828 32.7056 89.4966 33.0247" stroke="#1D1D1B" stroke-width="0.445192" stroke-miterlimit="10" stroke-linecap="round"/>
<path d="M88.5771 33.894C88.8965 34.3396 89.2324 34.7688 89.5904 35.1814" stroke="#1D1D1B" stroke-width="0.445192" stroke-miterlimit="10" stroke-linecap="round"/>
<path d="M88.6431 35.9187C89.0506 36.4744 89.5737 36.9475 90.1629 37.3106" stroke="#1D1D1B" stroke-width="0.445192" stroke-miterlimit="10" stroke-linecap="round"/>
<path d="M89.0562 38.5265C89.326 38.6366 89.5738 38.8016 89.783 39.0052" stroke="#1D1D1B" stroke-width="0.445192" stroke-miterlimit="10" stroke-linecap="round"/>
<path d="M89.3975 40.8758C89.5406 40.9913 89.6838 41.1014 89.827 41.2169" stroke="#1D1D1B" stroke-width="0.445192" stroke-miterlimit="10" stroke-linecap="round"/>
<path d="M89.7773 43.3021C89.8654 43.2856 89.9536 43.3736 89.9425 43.4616" stroke="#1D1D1B" stroke-width="0.445192" stroke-miterlimit="10" stroke-linecap="round"/>
<path d="M89.8325 45.8274C89.8545 45.9374 89.8711 46.0475 89.8931 46.1575" stroke="#1D1D1B" stroke-width="0.445192" stroke-miterlimit="10" stroke-linecap="round"/>
<path d="M25.5107 32.9532L28.1924 21.1133" stroke="#1D1D1B" stroke-width="0.890383" stroke-miterlimit="10" stroke-linecap="round"/>
<path d="M32.3548 22.0541C32.3548 22.0541 31.2645 22.0486 30.2734 21.4214C30.2734 21.4214 28.9628 20.3486 28.0487 20.9373L27.5972 22.9344C27.5972 22.9344 29.0344 22.3567 30.2513 23.138C31.4738 23.9192 32.3548 22.0541 32.3548 22.0541Z" fill="#1D1D1B"/>
<path d="M26.3969 32.7331C26.3033 33.4759 25.3341 33.971 24.2273 33.8335C23.1205 33.6959 22.2945 32.9862 22.3881 32.2435C22.4817 31.5007 23.4509 31.0056 24.5577 31.1431C25.6645 31.2807 26.4905 31.9904 26.3969 32.7331Z" fill="#1D1D1B"/>
<path d="M20.2682 46.6087L19.668 36.7604" stroke="#1D1D1B" stroke-width="0.890383" stroke-miterlimit="10" stroke-linecap="round"/>
<path d="M21.1768 46.3061C21.2979 47.0433 20.4995 47.7915 19.3982 47.9676C18.2968 48.1492 17.3057 47.6925 17.1845 46.9553C17.0634 46.218 17.8618 45.4698 18.9631 45.2937C20.0644 45.1122 21.0556 45.5688 21.1768 46.3061Z" fill="#1D1D1B"/>
<path d="M8.70432 27.6494L6.81006 16.9705L14.5248 15.3529L15.6481 25.4927" stroke="#1D1D1B" stroke-width="0.890383" stroke-linecap="round" stroke-linejoin="round"/>
<path d="M9.32674 27.0938C9.50846 27.7375 8.88071 28.4802 7.91706 28.7498C6.95892 29.0194 6.03382 28.7168 5.8521 28.0731C5.67038 27.4294 6.29813 26.6866 7.26178 26.417C8.21992 26.1474 9.14503 26.45 9.32674 27.0938Z" fill="#1D1D1B"/>
<path d="M16.3692 25.6798C16.5509 26.3235 15.9232 27.0663 14.9595 27.3358C14.0014 27.6054 13.0763 27.3028 12.8946 26.6591C12.7129 26.0154 13.3406 25.2727 14.3043 25.0031C15.2624 24.7335 16.1875 25.0361 16.3692 25.6798Z" fill="#1D1D1B"/>
<path d="M7.10742 18.643L14.5633 16.8879" stroke="#1D1D1B" stroke-width="0.890383" stroke-miterlimit="10" stroke-linecap="round"/>
<path d="M63.324 99.3324C69.4246 99.3324 74.3702 94.3912 74.3702 88.2958C74.3702 82.2005 69.4246 77.2592 63.324 77.2592C57.2234 77.2592 52.2778 82.2005 52.2778 88.2958C52.2778 94.3912 57.2234 99.3324 63.324 99.3324Z" fill="white"/>
<path d="M63.324 96.9337C68.0987 96.9337 71.9693 93.0664 71.9693 88.2958C71.9693 83.5253 68.0987 79.658 63.324 79.658C58.5493 79.658 54.6787 83.5253 54.6787 88.2958C54.6787 93.0664 58.5493 96.9337 63.324 96.9337Z" fill="#F9BBBB"/>
<path d="M63.3238 93.8911C66.4167 93.8911 68.924 91.386 68.924 88.2958C68.924 85.2056 66.4167 82.7005 63.3238 82.7005C60.2309 82.7005 57.7236 85.2056 57.7236 88.2958C57.7236 91.386 60.2309 93.8911 63.3238 93.8911Z" fill="white"/>
<path d="M65.7579 88.2958C65.7579 86.9534 64.6676 85.864 63.324 85.864C61.9804 85.864 60.8901 86.9534 60.8901 88.2958C60.8901 89.6382 61.9804 90.7276 63.324 90.7276C64.6676 90.7276 65.7579 89.6382 65.7579 88.2958Z" fill="#1D1D1B"/>
<path d="M9.60156 56.9576C12.7623 60.3852 14.5465 64.8196 16.3416 69.122C17.5585 72.0435 18.7039 74.9925 19.8713 77.9359C21.0277 80.8519 21.5838 84.0869 22.2171 87.1679C23.1532 91.6904 23.8581 96.2844 23.8911 100.911C23.9186 103.943 24.0783 109.676 20.7524 111.288C20.1191 111.596 19.3922 111.695 18.6874 111.667C16.7215 111.59 14.8108 110.518 13.7645 108.856C12.7128 107.195 12.5696 104.988 13.4286 103.222C14.2876 101.456 16.1323 100.196 18.0982 100.081C22.4814 99.8276 26.1928 105.076 29.7281 107.057C32.9439 108.856 36.7159 109.489 40.3998 109.351C46.8645 109.104 53.8027 107.217 59.5406 104.284C60.9337 103.569 62.3379 102.766 63.3071 101.539C64.8269 99.613 65.0361 96.9942 65.1297 94.5459C65.2068 92.4717 65.2454 90.3755 64.7994 88.3508C64.3864 86.4692 63.5659 84.7031 62.9657 82.871C61.5615 78.5686 61.4238 73.9691 61.3137 69.4466C61.165 63.1691 61.2752 56.2643 65.383 51.5108C66.6606 50.0308 68.3896 48.5673 68.307 46.6142" stroke="#1D1D1B" stroke-width="0.445192" stroke-linecap="round" stroke-linejoin="round"/>
<path d="M67.6188 47.665C67.6188 47.665 67.1177 48.7159 66.4955 49.3871C66.3248 49.5741 66.3633 49.8712 66.5781 50.0088L66.8919 50.2178C67.0571 50.3279 67.2774 50.3059 67.4206 50.1683C67.8886 49.6952 68.8523 48.5728 68.8027 47.4504L67.6243 47.665H67.6188Z" fill="#1D1D1B"/>
<path d="M42.9826 48.9304L42.7954 50.4434C42.7679 50.6525 42.911 50.8451 43.1148 50.8836L43.4011 50.9386C43.6379 50.9826 43.8582 50.8175 43.8802 50.5755L43.9738 49.3981L42.9881 48.9249L42.9826 48.9304Z" fill="#1D1D1B"/>
<path d="M41.0883 25.9054C40.3009 26.6261 39.6456 27.5009 39.3042 28.5243" stroke="#1D1D1B" stroke-width="0.445192" stroke-linecap="round" stroke-linejoin="round"/>
<path d="M38.8197 29.223C38.7702 29.443 38.7151 29.6576 38.6655 29.8777" stroke="#1D1D1B" stroke-width="0.445192" stroke-linecap="round" stroke-linejoin="round"/>
<path d="M38.3128 30.9725C38.3238 31.0551 38.3128 31.1376 38.2798 31.2091" stroke="#1D1D1B" stroke-width="0.445192" stroke-linecap="round" stroke-linejoin="round"/>
<path d="M6.17676 40.4852L7.00274 40.6007" stroke="#1D1D1B" stroke-width="0.222596" stroke-linecap="round" stroke-linejoin="round"/>
<path d="M6.20996 41.2279L7.27273 41.2829" stroke="#1D1D1B" stroke-width="0.222596" stroke-linecap="round" stroke-linejoin="round"/>
<path d="M6.45752 41.8496L7.40465 42.0202" stroke="#1D1D1B" stroke-width="0.222596" stroke-linecap="round" stroke-linejoin="round"/>
<path d="M6.45752 42.5593L7.59187 42.6749" stroke="#1D1D1B" stroke-width="0.222596" stroke-linecap="round" stroke-linejoin="round"/>
<path d="M6.73828 43.3846H7.91669" stroke="#1D1D1B" stroke-width="0.222596" stroke-linecap="round" stroke-linejoin="round"/>
<path d="M7.0249 43.9293L7.71873 44.0888" stroke="#1D1D1B" stroke-width="0.222596" stroke-linecap="round" stroke-linejoin="round"/>
<path d="M7.0249 44.5785L7.91697 44.639" stroke="#1D1D1B" stroke-width="0.222596" stroke-linecap="round" stroke-linejoin="round"/>
</g>
<defs>
<clipPath id="clip0_148_1414">
<rect width="118" height="109" fill="white" transform="translate(0 0.11792)"/>
</clipPath>
</defs>
</svg>
