<svg width="393" height="394" viewBox="0 0 393 394" fill="none" xmlns="http://www.w3.org/2000/svg">
<circle cx="195.5" cy="196.217" r="167.484" fill="url(#paint0_radial_186_798)"/>
<g clip-path="url(#clip0_186_798)">
<path d="M197.438 236.53H181.385V296.086H197.438V236.53Z" fill="#FF632C"/>
<path d="M197.438 246.03V236.539H181.385V246.56C185.901 247.187 191.329 247.249 197.438 246.039V246.03Z" fill="#353535"/>
<path d="M157.337 222.296V231.815C157.337 233.713 158.311 235.479 159.941 236.45C163.633 238.658 172.106 241.766 190.558 241.766C219.131 241.766 225.417 234.022 225.417 234.022L212.428 219.144L157.337 222.296Z" fill="#FF632C"/>
<path d="M159.454 219.144C159.454 219.144 176.551 231.541 219.131 221.811L193.489 210.403L159.454 219.144Z" fill="#FF632C"/>
<path d="M161.499 331.731C159.551 331.863 156.355 331.952 156.479 328.764L156.868 314.169C157.036 305.878 157.523 296.448 163.04 290.373C168.963 283.592 179.783 284.81 184.175 293.084C186.539 294.417 187.451 298.708 185.706 300.977C166.13 290.293 164.368 315.493 162.473 331.175C162.756 331.28 161.216 331.634 161.499 331.74V331.731Z" fill="#FF632C"/>
<path d="M215.678 331.731C217.626 331.863 220.822 331.952 220.698 328.764L220.308 314.169C220.14 305.878 219.653 296.448 214.137 290.373C208.214 283.592 197.394 284.81 193.002 293.084C190.638 294.417 189.726 298.708 191.47 300.977C211.047 290.293 212.809 315.493 214.704 331.175C214.42 331.28 215.961 331.634 215.678 331.74V331.731Z" fill="#FF632C"/>
<path d="M193.595 343.28C191.674 344.278 189.478 344.525 187.433 343.986C186.512 343.739 185.573 343.306 184.998 342.415C184.175 341.143 184.316 339.36 184.467 337.761C185.467 327.148 184.918 316.332 182.846 305.94C182.466 304.032 182.032 302.116 181.926 300.156C181.802 297.887 182.138 295.591 182.882 293.507C183.342 292.218 184.006 290.956 185.033 290.249C185.981 289.596 187.132 289.508 188.23 289.622C190.824 289.905 193.321 291.344 195.118 293.587C196.305 295.079 197.226 297.128 196.845 299.132C194.33 312.412 194.251 325.93 194.375 339.536C194.392 340.993 194.72 342.706 193.595 343.289V343.28Z" fill="#FF632C"/>
<path d="M185.582 289.887C184.157 290.655 183.174 292.086 182.687 293.631C182.2 295.176 181.775 298.54 181.925 300.156" stroke="white" stroke-width="0.75" stroke-linecap="round" stroke-linejoin="round"/>
<path d="M193.241 289.887C194.667 290.655 195.65 292.086 196.137 293.631C196.624 295.176 197.049 298.54 196.898 300.156" stroke="white" stroke-width="0.75" stroke-linecap="round" stroke-linejoin="round"/>
<path d="M166.315 222.296C166.315 222.296 185.432 229.307 215.456 222.614" stroke="white" stroke-width="0.75" stroke-linecap="round" stroke-linejoin="round"/>
<path d="M127.818 298.885L129.111 311.237L151.175 309.109L147.572 292.704L127.818 298.885Z" fill="white"/>
<path d="M126.472 300.359C132.927 305.533 142.002 303.405 148.926 298.885C150.927 307.909 153.061 319.122 154.079 328.905C154.345 331.457 152.964 333.876 150.635 334.98C139.851 340.093 134.706 352.666 124.896 358.953C117.299 363.403 104.717 365.142 104.664 353.028C103.416 346.997 105.187 341.24 110.349 337.726C120 328.499 135.238 314.637 126.463 300.359H126.472Z" fill="#353535"/>
<mask id="mask0_186_798" style="mask-type:luminance" maskUnits="userSpaceOnUse" x="104" y="298" width="51" height="65">
<path d="M126.472 300.359C132.927 305.533 142.002 303.405 148.926 298.885C150.927 307.909 153.061 319.122 154.079 328.905C154.345 331.457 152.964 333.876 150.635 334.98C139.851 340.093 134.706 352.666 124.896 358.953C117.299 363.403 104.717 365.142 104.664 353.028C103.416 346.997 105.187 341.24 110.349 337.726C120 328.499 135.238 314.637 126.463 300.359H126.472Z" fill="white"/>
</mask>
<g mask="url(#mask0_186_798)">
<path d="M155.558 325.409C153.309 327.625 146.182 334.397 143.764 336.428C137.336 341.823 132.75 349.399 125.516 353.664C119.017 357.496 111.845 357.946 104.824 355.182" stroke="white" stroke-width="0.75" stroke-linecap="round" stroke-linejoin="round"/>
<path d="M128.695 305.675C128.287 306.593 128.907 307.67 129.704 308.297C130.775 309.136 132.201 309.524 133.547 309.339C134.901 309.154 136.168 308.403 136.973 307.308" stroke="white" stroke-width="0.75" stroke-linecap="round" stroke-linejoin="round"/>
<path d="M128.323 310.663C130.386 312.818 134.175 312.994 136.433 311.043" stroke="white" stroke-width="0.75" stroke-linecap="round" stroke-linejoin="round"/>
<path d="M127.8 313.665C129.518 315.891 133.015 316.491 135.388 314.972" stroke="white" stroke-width="0.75" stroke-linecap="round" stroke-linejoin="round"/>
<path d="M126.809 316.782C127.393 318.195 128.65 319.316 130.12 319.731C131.59 320.155 133.254 319.864 134.494 318.972" stroke="white" stroke-width="0.75" stroke-linecap="round" stroke-linejoin="round"/>
<path d="M125.48 319.74C125.542 320.57 126.375 321.118 127.145 321.444C129.279 322.327 131.705 322.495 133.945 321.912" stroke="white" stroke-width="0.75" stroke-linecap="round" stroke-linejoin="round"/>
<path d="M123.409 322.901C126.339 323.581 129.297 324.129 132.281 324.526" stroke="white" stroke-width="0.75" stroke-linecap="round" stroke-linejoin="round"/>
<path d="M120.726 325.1C123.878 324.782 127.137 325.744 129.598 327.731" stroke="white" stroke-width="0.75" stroke-linecap="round" stroke-linejoin="round"/>
<path d="M119.389 328.102C122.16 327.369 125.312 328.314 127.225 330.442" stroke="white" stroke-width="0.75" stroke-linecap="round" stroke-linejoin="round"/>
<path d="M117.547 330.901C120.478 330.442 123.595 331.245 125.923 333.082" stroke="white" stroke-width="0.75" stroke-linecap="round" stroke-linejoin="round"/>
</g>
<path d="M241.718 303.962V319.281L261.693 321.268V301.966L241.718 303.962Z" fill="white"/>
<path d="M240.31 348.754C240.16 350.609 240.027 352.551 240.744 354.264C241.258 355.5 242.179 356.524 242.825 357.699C245.72 362.917 242.772 369.566 244.312 375.323C245.109 378.281 247.137 380.894 249.811 382.404C251.449 383.331 253.282 383.834 255.114 384.267C257.169 384.744 259.276 385.132 261.383 384.974C263.437 384.823 265.421 384.161 267.298 383.314C269.042 382.528 270.751 381.53 271.937 380.02C273.115 378.51 273.035 376.674 272.938 374.766C272.584 368.091 270.902 361.478 268.015 355.447C266.997 353.328 265.828 351.271 264.969 349.072C262.331 342.344 262.747 334.883 262.667 327.66C262.614 322.866 262.331 318.248 261.808 313.48C259.94 315.378 257.346 316.473 254.707 316.8C252.06 317.135 249.368 316.747 246.809 315.996C245.587 315.634 244.374 315.184 243.347 314.434C242.32 313.683 241.497 312.597 241.275 311.352C241.506 316.562 241.647 321.939 241.877 327.148C242.187 334.185 240.877 341.726 240.319 348.746L240.31 348.754Z" fill="#353535"/>
<mask id="mask1_186_798" style="mask-type:luminance" maskUnits="userSpaceOnUse" x="240" y="311" width="33" height="75">
<path d="M240.31 348.754C240.16 350.609 240.027 352.551 240.744 354.264C241.258 355.5 242.179 356.524 242.825 357.699C245.72 362.917 242.772 369.566 244.312 375.323C245.109 378.281 247.137 380.894 249.811 382.404C251.449 383.331 253.282 383.834 255.114 384.267C257.169 384.744 259.276 385.132 261.383 384.974C263.437 384.823 265.421 384.161 267.298 383.314C269.042 382.528 270.751 381.53 271.937 380.02C273.115 378.51 273.035 376.674 272.938 374.766C272.584 368.091 270.902 361.478 268.015 355.447C266.997 353.328 265.828 351.271 264.969 349.072C262.331 342.344 262.747 334.883 262.667 327.66C262.614 322.866 262.331 318.248 261.808 313.48C259.94 315.378 257.346 316.473 254.707 316.8C252.06 317.135 249.368 316.747 246.809 315.996C245.587 315.634 244.374 315.184 243.347 314.434C242.32 313.683 241.497 312.597 241.275 311.352C241.506 316.562 241.647 321.939 241.877 327.148C242.187 334.185 240.877 341.726 240.319 348.746L240.31 348.754Z" fill="white"/>
</mask>
<g mask="url(#mask1_186_798)">
<path d="M239.452 348.392C241.09 349.673 242.621 351.138 243.604 352.966C246.181 357.805 244.268 363.791 245.428 369.151C246.712 375.084 252.184 379.852 258.249 380.329C264.314 380.806 270.468 376.939 272.664 371.288" stroke="white" stroke-width="0.75" stroke-linecap="round" stroke-linejoin="round"/>
<path d="M247.5 320.711C251.068 322.204 255.283 322.062 258.736 320.332" stroke="white" stroke-width="0.75" stroke-linecap="round" stroke-linejoin="round"/>
<path d="M247.447 324.658C251.024 326.257 255.336 326.106 258.789 324.261" stroke="white" stroke-width="0.75" stroke-linecap="round" stroke-linejoin="round"/>
<path d="M247.199 328.791C250.75 329.682 254.53 329.621 258.046 328.623" stroke="white" stroke-width="0.75" stroke-linecap="round" stroke-linejoin="round"/>
<path d="M247.226 332.967C249.165 333.488 251.157 333.841 253.158 334.035C255.088 334.221 257.355 334.097 258.506 332.543" stroke="white" stroke-width="0.75" stroke-linecap="round" stroke-linejoin="round"/>
<path d="M248.368 337.682C249.908 338.176 251.493 338.53 253.096 338.75C255.256 339.042 257.842 338.892 259.055 337.09" stroke="white" stroke-width="0.75" stroke-linecap="round" stroke-linejoin="round"/>
<path d="M248.74 342.565C250.422 343.042 252.122 343.518 253.866 343.598C255.611 343.677 257.435 343.333 258.834 342.3" stroke="white" stroke-width="0.75" stroke-linecap="round" stroke-linejoin="round"/>
<path d="M249.094 346.362C252.255 347.651 255.929 347.615 259.064 346.273" stroke="white" stroke-width="0.75" stroke-linecap="round" stroke-linejoin="round"/>
<path d="M250.608 350.485C253.246 350.326 255.894 350.176 258.532 350.017" stroke="white" stroke-width="0.75" stroke-linecap="round" stroke-linejoin="round"/>
<path d="M251.529 354.008C254.716 353.24 258.09 353.231 261.286 353.973" stroke="white" stroke-width="0.75" stroke-linecap="round" stroke-linejoin="round"/>
<path d="M253.105 357.805C255.947 356.922 259.037 356.816 261.924 357.522" stroke="white" stroke-width="0.75" stroke-linecap="round" stroke-linejoin="round"/>
<path d="M255.363 360.489C257.169 360.401 258.975 360.312 260.79 360.215" stroke="white" stroke-width="0.75" stroke-linecap="round" stroke-linejoin="round"/>
</g>
<path d="M170.814 173.38L117.237 208.778C117.237 208.778 101.414 218.473 108.418 245.077C115.422 271.681 119.043 288.342 119.043 288.342C119.043 288.342 135.096 304.368 149.333 282.497L141.692 245.333C140.869 241.342 142.914 237.316 146.615 235.612L191.152 215.091L230.854 238.878C233.882 240.697 235.848 243.858 236.122 247.381L239.797 294.223C239.797 294.223 249.297 305.719 266.678 295.353L269.139 243.505C269.139 243.505 271.628 213.131 233.422 185.706L221.893 178.351L170.805 173.389L170.814 173.38Z" fill="#353535"/>
<path d="M224.913 181.071C207.311 184.682 185.636 186.695 170.415 175.535C169.132 174.616 168.627 173.16 168.777 171.614C168.919 155.907 166.785 140.181 162.456 125.073C155.222 108.341 174.878 100.306 187.256 95.1322C192.321 93.0131 198.191 95.1499 203.628 94.3552C208.577 93.3309 213.58 93.2691 218.449 94.7437C242.798 99.9532 245.189 99.547 250.183 125.709C253.344 147.563 250.679 175.561 224.913 181.071Z" fill="#C28BFD"/>
<path d="M173.895 160.348C175.462 164.003 178.756 166.643 182.245 168.568C188.752 172.144 196.376 173.681 203.76 172.904C201.423 172.047 198.89 171.923 196.447 171.455C191.55 170.528 186.928 168.18 183.289 164.78" stroke="#353535" stroke-width="0.75" stroke-linecap="round" stroke-linejoin="round"/>
<path d="M172.346 171.102C177.508 175.614 184.591 177.283 191.435 177.804C198.28 178.325 205.204 177.857 212.004 178.819" stroke="#353535" stroke-width="0.75" stroke-linecap="round" stroke-linejoin="round"/>
<path d="M198.377 208.469C198.341 209.9 197.305 214.403 197.518 216.91C197.589 217.714 198.66 217.89 198.997 217.158C200.378 214.12 201.98 211.189 203.804 208.399C203.804 213.043 203.061 220.866 208.621 222.296C209.099 222.5 209.436 223.02 209.781 223.462C210.188 223.992 211.029 223.718 211.038 223.047L211.198 210.235C211.366 212.416 211.685 218.385 213.349 220.787C213.81 221.449 214.837 221.246 214.978 220.451C216.006 214.624 216.519 206.818 220.663 202.447C221.805 201.847 222.354 201.573 221.902 200.09C221.159 196.046 215.333 187.985 210.587 189.812C208.665 191.022 206.939 193.477 205.478 195.198C202.202 199.048 199.395 203.454 198.368 208.469H198.377Z" fill="white"/>
<path d="M208.621 222.296C208.621 222.296 205.708 217.228 207.86 208.31" stroke="#353535" stroke-width="0.75" stroke-linecap="round" stroke-linejoin="round"/>
<path d="M240.718 100.81C234.644 100.395 233.767 110.663 233.015 116.906C232.457 121.55 232.448 126.23 232.873 130.892C234.077 143.889 234.529 156.948 234.236 169.99C225.967 177.036 216.838 183.923 208.524 190.951C208.214 191.216 208.294 191.711 208.674 191.87C213.208 193.821 217.715 197.185 220.362 201.326C220.769 201.962 221.584 202.2 222.266 201.874C228.508 198.933 256.275 185.08 261.162 169.098L257.523 117.506C257.523 117.506 250.714 101.49 240.718 100.801V100.81Z" fill="#C28BFD"/>
<path d="M232.953 131.563C232.979 131.872 233.758 155.65 234.086 165.646C234.174 168.392 232.988 171.014 230.863 172.762L215.111 185.698" stroke="#353535" stroke-width="0.75" stroke-linecap="round" stroke-linejoin="round"/>
<path d="M136.548 199.551C135.928 203.101 134.892 206.571 133.476 209.882C132.289 209.882 131.147 209.9 129.961 209.9C129.819 209.9 129.642 209.873 129.598 209.741C129.553 209.608 129.837 209.538 129.801 209.67C128.624 207.445 127.499 205.008 128.119 202.571C128.748 200.134 130.634 197.962 133.077 197.344C133.883 197.141 134.795 197.114 135.503 197.556C136.212 197.997 136.69 198.721 136.548 199.542V199.551Z" fill="white"/>
<path d="M146.996 219.127C151.241 219.127 154.681 215.909 154.681 211.939C154.681 207.97 151.241 204.752 146.996 204.752C142.751 204.752 139.311 207.97 139.311 211.939C139.311 215.909 142.751 219.127 146.996 219.127Z" fill="#FFAD29"/>
<mask id="mask2_186_798" style="mask-type:luminance" maskUnits="userSpaceOnUse" x="139" y="204" width="16" height="16">
<path d="M146.996 219.127C151.241 219.127 154.681 215.909 154.681 211.939C154.681 207.97 151.241 204.752 146.996 204.752C142.751 204.752 139.311 207.97 139.311 211.939C139.311 215.909 142.751 219.127 146.996 219.127Z" fill="white"/>
</mask>
<g mask="url(#mask2_186_798)">
<path d="M138.398 208.293C141.028 207.154 143.826 206.341 146.686 206.209C149.546 206.085 152.485 206.668 154.929 208.151" stroke="#353535" stroke-width="0.75" stroke-linecap="round" stroke-linejoin="round"/>
<path d="M137.708 209.997C143.401 208.452 149.555 208.593 155.168 210.412" stroke="#353535" stroke-width="0.75" stroke-linecap="round" stroke-linejoin="round"/>
<path d="M138.257 210.95C144.472 211.321 150.662 212.045 156.798 213.122" stroke="#353535" stroke-width="0.75" stroke-linecap="round" stroke-linejoin="round"/>
<path d="M138.195 212.257C143.251 214.482 148.944 214.65 154.469 214.774" stroke="#353535" stroke-width="0.75" stroke-linecap="round" stroke-linejoin="round"/>
<path d="M138.248 214.27C140.329 216.001 142.941 217.016 145.606 217.493C148.271 217.97 151.007 217.935 153.707 217.732" stroke="#353535" stroke-width="0.75" stroke-linecap="round" stroke-linejoin="round"/>
<path d="M150.573 203.224C151.91 207.207 152.114 211.551 151.166 215.639C150.98 216.425 150.777 217.272 150.396 217.979C150.042 218.632 149.688 219.294 149.333 219.948" stroke="#353535" stroke-width="0.75" stroke-linecap="round" stroke-linejoin="round"/>
<path d="M148.652 202.845C149.653 208.611 149.325 214.606 147.705 220.23" stroke="#353535" stroke-width="0.75" stroke-linecap="round" stroke-linejoin="round"/>
<path d="M146.978 203.154C145.925 209.158 145.331 215.25 145.216 221.343" stroke="#353535" stroke-width="0.75" stroke-linecap="round" stroke-linejoin="round"/>
<path d="M144.835 203.913C143.383 209.202 142.923 214.756 143.481 220.213" stroke="#353535" stroke-width="0.75" stroke-linecap="round" stroke-linejoin="round"/>
<path d="M143.109 204.372C140.426 209.123 140.276 214.844 140.4 220.292" stroke="#353535" stroke-width="0.75" stroke-linecap="round" stroke-linejoin="round"/>
</g>
<path d="M106.081 204.752C106.081 204.752 143.003 205.352 143.003 205.803C143.003 206.253 147.377 212.866 140.895 215.268L106.081 209.917C106.081 209.917 101.406 207.145 106.081 204.743V204.752Z" fill="#FFAD29"/>
<path d="M140.886 215.277C147.368 212.875 142.994 206.262 142.994 205.812C142.994 205.723 141.577 205.626 139.31 205.538C139.496 206.182 139.62 206.853 139.682 207.524C139.912 210.067 139.266 212.707 137.805 214.809L140.886 215.286V215.277Z" fill="#F2E1C2"/>
<path d="M129.199 214.544C130.527 219.436 118.131 218.111 115.148 217.979C100.777 215.568 120.611 191.172 128.225 192.558C145.748 194.898 125.719 204.575 129.199 214.553V214.544Z" fill="white"/>
<path d="M124.967 218.023C123.824 215.356 123.488 212.045 124.09 209.29L124.967 218.023Z" fill="white"/>
<path d="M124.967 218.023C123.824 215.356 123.488 212.045 124.09 209.29" stroke="#353535" stroke-width="0.75" stroke-linecap="round" stroke-linejoin="round"/>
<path d="M119.902 218.606C118.255 216.266 117.387 212.407 117.892 209.723L119.902 218.606Z" fill="white"/>
<path d="M119.902 218.606C118.255 216.266 117.387 212.407 117.892 209.723" stroke="#353535" stroke-width="0.75" stroke-linecap="round" stroke-linejoin="round"/>
<path d="M115.148 217.979C113.828 215.701 113.341 212.407 114.183 210.014L115.148 217.979Z" fill="white"/>
<path d="M115.148 217.979C113.828 215.701 113.341 212.407 114.183 210.014" stroke="#353535" stroke-width="0.75" stroke-linecap="round" stroke-linejoin="round"/>
<path d="M162.588 180.956C164.182 179.676 165.2 177.83 165.483 175.808C166.272 170.193 167.228 164.595 168.37 159.041C169.45 153.761 169.379 148.684 170.282 143.377C173.107 126.742 177.534 109.736 186.725 95.5648C180.031 98.4521 173.567 101.887 167.423 105.807C162.818 108.747 158.276 112.076 155.39 116.712C153.539 119.67 152.459 123.043 151.582 126.416C148.537 138.185 147.864 150.423 145.907 162.423C145.42 165.425 144.835 168.445 143.499 171.182C138.558 181.309 122.576 184.824 120.203 195.799C125.755 192.655 133.794 194.88 136.123 200.805C137 201.026 137.726 200.805 138.54 200.408L162.597 180.983L162.588 180.956Z" fill="#C28BFD"/>
<path d="M165.466 134.777C165.466 134.777 169.937 155.032 168.76 167.367" stroke="#353535" stroke-width="0.75" stroke-linecap="round" stroke-linejoin="round"/>
<path d="M128.703 216.645C128.703 216.645 129.863 215.383 130.377 213.661L128.916 213.44L128.712 216.654L128.703 216.645Z" fill="white"/>
<path d="M119.229 286.682C117.76 286.329 116.299 287.336 116.201 288.837C116.042 291.247 116.21 293.649 117.45 295.662C118.68 297.675 120.814 298.982 123.019 299.847C132.218 303.485 142.693 300.527 151.627 296.289C152.441 295.9 153.318 295.423 153.584 294.567C153.752 294.02 153.619 293.428 153.486 292.872L150.954 282.153C150.635 280.819 148.971 280.378 148.023 281.367C146.615 282.832 144.951 284.06 143.118 284.952C140.116 286.417 136.761 286.982 133.449 287.406C128.358 288.068 123.949 287.812 119.229 286.673V286.682Z" fill="#353535"/>
<path d="M236.06 291.176C235.511 291.653 235.432 292.466 235.405 293.19C235.334 295.326 235.308 297.463 235.343 299.6C235.37 300.898 235.423 302.258 236.069 303.379C236.964 304.933 238.77 305.701 240.505 306.151C245.906 307.547 251.617 306.814 257.16 307.423C260.967 307.838 265.067 308.844 268.458 307.061C269.326 306.602 270.114 305.957 270.583 305.101C270.946 304.43 271.097 303.661 271.238 302.902C271.424 301.922 271.61 300.942 271.796 299.962C272.07 298.496 272.354 296.986 272.035 295.529C271.725 294.073 270.663 292.669 269.184 292.43C267.865 292.218 266.607 292.942 265.35 293.401C262.375 294.514 259.072 294.187 255.929 293.772C252.264 293.287 248.616 292.677 244.985 292.024C243.303 291.724 241.612 291.344 239.921 291.15C238.858 291.026 236.964 290.391 236.052 291.168L236.06 291.176Z" fill="#353535"/>
<path d="M117.98 287.609C118.91 289.366 120.885 290.285 122.788 290.859C128.535 292.598 134.883 292.262 140.417 289.931" stroke="white" stroke-width="0.75" stroke-linecap="round" stroke-linejoin="round"/>
<path d="M148.014 281.375C148.014 281.375 144.375 288.686 127.641 287.777" stroke="white" stroke-width="0.75" stroke-linecap="round" stroke-linejoin="round"/>
<path d="M236.06 291.176C236.06 291.176 243.56 296.421 251.387 295.273" stroke="white" stroke-width="0.75" stroke-linecap="round" stroke-linejoin="round"/>
<path d="M266.784 293.304C266.784 293.304 259.356 302.054 242.479 297.613" stroke="white" stroke-width="0.75" stroke-linecap="round" stroke-linejoin="round"/>
<path d="M193.746 91.7063C193.897 93.2868 194.047 94.8585 194.189 96.439C203.397 102.743 209.046 92.0683 209.046 92.0683C209.046 92.0683 206.771 86.0112 206.638 81.6935C201.91 81.6935 197.111 88.5982 193.746 91.6974V91.7063Z" fill="white"/>
<path d="M197.04 91.4679C196.411 91.8829 194.844 92.7305 193.932 93.6047C194.003 94.3728 194.074 95.141 194.153 95.9092C200.918 99.1673 203.061 91.7504 204.203 86.6734C201.821 88.2716 199.431 89.8697 197.049 91.4679H197.04Z" fill="#353535"/>
<path d="M193.923 94.9114C193.923 94.9114 197.633 103.459 209.657 89.7108L214.447 94.1344C214.447 94.1344 206.514 108.906 193.684 101.913C191.435 100.686 189.965 98.3815 189.762 95.8385L189.505 92.7393C189.505 92.7393 193.321 91.3884 193.923 94.9114Z" fill="#C28BFD"/>
<path d="M192.701 95.1675C193.507 97.4985 196.03 99.1143 198.492 98.8848" stroke="#353535" stroke-width="0.75" stroke-linecap="round" stroke-linejoin="round"/>
<path d="M211.313 93.8254C209.799 96.9069 206.895 99.2733 203.565 100.139" stroke="#353535" stroke-width="0.75" stroke-linecap="round" stroke-linejoin="round"/>
<path d="M212.331 92.1743C212.331 92.1743 213.996 93.4281 215.049 95.9798C215.731 97.6221 211.375 100.024 208.17 101.534C205.469 102.805 202.521 103.538 199.537 103.511C191.869 103.45 190.683 98.9024 190.683 98.9024L191.329 93.949" stroke="#353535" stroke-width="0.75" stroke-linecap="round" stroke-linejoin="round"/>
<path d="M180.713 88.1745C178.446 89.2164 181.085 90.4437 182.422 89.8344C181.279 91.6887 182.891 94.2492 184.786 92.2714C186.317 97.2248 196.969 97.1719 187.167 86.0818C186.556 85.2077 185.264 82.3999 184.104 82.2233C182.262 82.1085 184.06 86.7264 180.713 88.1833V88.1745Z" fill="#353535"/>
<path d="M177.428 69.4203C177.924 72.184 179.314 74.7887 181.35 76.7313C181.687 73.1641 181.864 69.5793 181.873 65.9944C181.873 64.5375 180.881 59.9108 178.482 61.9416C176.808 63.3544 177.1 67.522 177.437 69.4115L177.428 69.4203Z" fill="#353535"/>
<path d="M204.876 86.02C199.484 95.503 194.224 99.4146 184.839 88.0685C181.997 84.0863 176.835 66.3299 180.58 62.7539C186.804 58.4892 199.307 56.944 204.283 63.9018C206.062 68.1753 207.151 73.1376 207.143 77.8879C207.143 80.7399 206.293 83.5389 204.885 86.02H204.876Z" fill="white"/>
<path d="M187.442 63.9018C185.423 64.2726 183.484 67.3189 185.255 68.8287C185.352 68.9082 185.476 68.9435 185.6 68.9435C187.46 68.97 189.443 70.7183 187.442 72.2635C188.265 70.0207 185.087 70.4534 183.776 70.5858C180.704 70.3386 180.049 66.4889 181.952 64.6082C182.298 64.2638 182.076 63.6899 181.589 63.6987C178.818 63.7252 176.427 66.9304 176.737 69.7205C176.799 70.3033 176.02 70.5329 175.737 70.0207C174.497 67.8133 175.569 64.1225 177.171 62.3743C176.002 62.6657 175.02 63.6722 174.648 64.8289C174.524 65.2262 174.01 65.341 173.745 65.0232C171.035 61.7739 171.558 56.4319 175.073 53.8978C174.568 53.9067 174.019 54.0833 173.55 54.3746C173.16 54.6219 172.647 54.3305 172.717 53.8714C173.302 49.6508 178.101 46.6046 182.156 47.0372C181.74 46.6046 180.731 46.7282 179.783 46.9048C179.27 47.0019 178.924 46.3573 179.314 46.0042C181.164 44.3354 184.095 44.1323 186.477 44.7592C185.751 44.1146 184.812 43.7879 183.9 43.5319C183.413 43.3906 183.378 42.7195 183.838 42.5253C184.998 42.0397 186.627 42.2074 187.69 42.6577C187.159 42.2692 186.574 41.9072 185.963 41.6247C185.547 41.4392 185.556 40.83 185.981 40.6622C191.001 38.6667 197.199 41.2803 199.227 46.2955C199.377 46.6752 199.882 46.7547 200.13 46.4368C202.149 43.8321 207.258 44.0881 209.17 46.9401C207.948 46.2867 206.54 45.9865 205.159 46.0836C209.073 46.1189 211.463 49.6508 212.668 52.9707C212.738 53.165 212.907 53.2886 213.11 53.3151C215.395 53.6771 215.342 56.6174 215.111 58.9396C215.058 59.4164 214.43 59.5929 214.155 59.1956C213.447 58.1714 212.42 57.3591 211.251 56.9176C213.155 58.4274 214.447 60.6525 214.899 63.0365C214.987 63.5221 214.403 63.8753 214.031 63.5398C213.686 63.2396 213.287 63.01 212.845 62.8952C219.335 68.9612 207.107 79.3713 219.069 82.0555C219.503 82.1526 219.627 82.7177 219.282 82.9915C218.449 83.6448 217.192 83.7861 216.289 83.1945C216.501 83.9892 217.227 84.6073 218.033 84.7662C218.379 84.8368 218.556 85.2165 218.387 85.5256C217.688 86.8235 216.572 88.1215 215.138 88.1126C214.801 88.1126 214.536 88.4305 214.616 88.7572C215.678 93.2162 207.143 93.3486 206.638 86.5233C206.346 82.4793 207.205 79.0534 206.718 75.2832C206.691 75.0713 206.532 74.8859 206.319 74.8417C205.204 74.5768 203.831 74.5415 203.707 72.8992C204.442 54.4364 194.534 68.9347 187.84 64.0078C187.725 63.9283 187.584 63.8753 187.442 63.9018Z" fill="#353535"/>
<path d="M197.049 52.0524C197.474 48.5029 195.836 44.7768 192.94 42.6754" stroke="white" stroke-width="0.75" stroke-linecap="round" stroke-linejoin="round"/>
<path d="M195.826 52.8559C195.791 51.4785 195.525 50.1187 195.056 48.8296" stroke="white" stroke-width="0.75" stroke-linecap="round" stroke-linejoin="round"/>
<path d="M193.888 54.7013C194.206 52.9531 193.675 51.1253 192.692 49.6508C191.709 48.1763 190.302 47.0196 188.796 46.0748" stroke="white" stroke-width="0.75" stroke-linecap="round" stroke-linejoin="round"/>
<path d="M190.009 50.0393C190.726 50.7368 191.205 51.6728 191.355 52.6617" stroke="white" stroke-width="0.75" stroke-linecap="round" stroke-linejoin="round"/>
<path d="M177.029 50.2689C179.5 49.6773 182.174 49.9951 184.44 51.143C186.707 52.2908 188.531 54.2598 189.514 56.5997" stroke="white" stroke-width="0.75" stroke-linecap="round" stroke-linejoin="round"/>
<path d="M187.176 49.5448C188.159 50.004 188.921 50.9134 189.213 51.9553" stroke="white" stroke-width="0.75" stroke-linecap="round" stroke-linejoin="round"/>
<path d="M175.444 57.2266C176.471 55.8139 178.047 54.8073 179.765 54.4629C181.483 54.1186 183.325 54.4365 184.821 55.3371" stroke="white" stroke-width="0.75" stroke-linecap="round" stroke-linejoin="round"/>
<path d="M182.218 56.5202C183.537 56.2024 184.971 56.379 186.176 56.9882" stroke="white" stroke-width="0.75" stroke-linecap="round" stroke-linejoin="round"/>
<path d="M185.458 58.9307C184.316 58.7365 183.112 58.9396 182.094 59.5047" stroke="white" stroke-width="0.75" stroke-linecap="round" stroke-linejoin="round"/>
<path d="M189.053 60.0609C189.629 61.7032 191.426 62.8246 193.153 62.6303" stroke="white" stroke-width="0.75" stroke-linecap="round" stroke-linejoin="round"/>
<path d="M191.523 59.1426C192.117 59.8667 193.038 60.317 193.967 60.3346" stroke="white" stroke-width="0.75" stroke-linecap="round" stroke-linejoin="round"/>
<path d="M202.529 58.4539C204.601 59.7695 206.036 62.0564 206.301 64.4934" stroke="white" stroke-width="0.75" stroke-linecap="round" stroke-linejoin="round"/>
<path d="M205.646 57.3767C207.249 58.5334 208.311 60.3523 208.763 62.2772C209.214 64.202 209.09 66.224 208.639 68.1489" stroke="white" stroke-width="0.75" stroke-linecap="round" stroke-linejoin="round"/>
<path d="M202.06 50.6132C202.786 50.2424 203.654 50.2512 204.433 50.4808C205.212 50.7103 205.903 51.1518 206.567 51.6198" stroke="white" stroke-width="0.75" stroke-linecap="round" stroke-linejoin="round"/>
<path d="M203.707 52.75C204.778 52.7235 205.867 53.1385 206.647 53.8713" stroke="white" stroke-width="0.75" stroke-linecap="round" stroke-linejoin="round"/>
<path d="M212.304 80.0512C212.225 81.6229 213.092 83.2034 214.456 83.9892" stroke="white" stroke-width="0.75" stroke-linecap="round" stroke-linejoin="round"/>
<path d="M211.277 82.5853C211.339 83.3888 211.72 84.157 212.322 84.6956" stroke="white" stroke-width="0.75" stroke-linecap="round" stroke-linejoin="round"/>
<path d="M197.748 72.4312C196.438 72.3341 195.101 72.5284 193.87 73.014C193.781 73.0493 193.684 73.0935 193.578 73.0846C193.321 73.0758 193.171 72.7932 193.1 72.5372C192.967 72.0162 193.002 71.4511 193.197 70.9479C195.154 70.1267 197.677 70.5947 199.103 72.1575C199.191 72.2546 199.28 72.4047 199.2 72.5107C198.811 72.4577 198.138 72.4577 197.739 72.4224L197.748 72.4312Z" fill="#353535"/>
<path d="M181.855 74.9035C183.086 74.4444 184.432 74.2678 185.742 74.3914C185.84 74.4002 185.946 74.4091 186.034 74.3826C186.282 74.3031 186.344 73.9852 186.335 73.7292C186.318 73.1906 186.123 72.6608 185.795 72.2281C183.688 71.9809 181.395 73.1288 180.456 75.0271C180.394 75.1508 180.35 75.3185 180.456 75.398C180.819 75.239 181.466 75.0448 181.837 74.9124L181.855 74.9035Z" fill="#353535"/>
<path d="M192.657 90.0022C194.428 90.0199 196.163 89.0221 197.04 87.4857" stroke="#353535" stroke-width="0.75" stroke-linecap="round" stroke-linejoin="round"/>
<path d="M188 83.1416C189.195 86.2143 184.334 88.0243 183.227 84.9163C182.032 81.8436 186.893 80.0335 188 83.1416Z" fill="#EA856A"/>
<path d="M201.467 82.5676C201.051 86.7706 194.446 86.0289 194.977 81.8436C195.393 77.6407 201.999 78.3824 201.467 82.5676Z" fill="#EA856A"/>
<path d="M177.171 77.9321C177.171 77.9321 181.881 74.2237 187.486 77.4641C187.486 77.4641 190.133 85.5168 183.44 85.1989C176.746 84.881 177.171 77.9409 177.171 77.9409V77.9321Z" fill="#FF632C"/>
<path d="M187.716 78.3383C182.12 75.4333 177.436 78.6738 177.197 78.8504C177.339 80.7399 178.251 84.9517 183.439 85.1989C188.832 85.4549 188.185 80.3691 187.716 78.3383Z" fill="#353535"/>
<path d="M177.198 79.6627C177.745 79.6627 178.189 79.22 178.189 78.6738C178.189 78.1276 177.745 77.6849 177.198 77.6849C176.65 77.6849 176.206 78.1276 176.206 78.6738C176.206 79.22 176.65 79.6627 177.198 79.6627Z" fill="#FF632C"/>
<path d="M177.667 78.5767C177.667 78.8504 177.446 79.0711 177.171 79.0711C176.897 79.0711 176.675 78.8504 176.675 78.5767C176.675 78.303 176.897 78.0822 177.171 78.0822C177.446 78.0822 177.667 78.303 177.667 78.5767Z" fill="#353535"/>
<path d="M183.174 78.0734L180.403 82.4794" stroke="white" stroke-width="0.75" stroke-linecap="round" stroke-linejoin="round"/>
<path d="M184.759 78.0734L181.988 82.4794" stroke="white" stroke-width="0.75" stroke-linecap="round" stroke-linejoin="round"/>
<path d="M187.486 74.8064L188.15 84.104C188.212 84.9605 188.372 85.9671 189.142 86.3379C189.443 86.488 189.788 86.4969 190.125 86.5145C191.01 86.5498 192.002 86.5498 192.622 85.9229" stroke="#353535" stroke-width="0.75" stroke-linecap="round" stroke-linejoin="round"/>
<path d="M201.874 74.2325C201.874 74.2325 195.96 72.1575 191.17 77.005C191.17 77.005 190.816 85.5256 197.589 83.1328C204.354 80.7399 201.883 74.2325 201.883 74.2325H201.874Z" fill="#FF632C"/>
<path d="M191.188 77.5878C196.066 73.0582 201.821 74.7623 202.122 74.8594C202.53 76.7136 203.583 82.3293 197.819 83.5831C191.683 84.9252 191.311 79.6716 191.188 77.5878Z" fill="#353535"/>
<path d="M187.274 77.3405C187.274 77.3405 188.212 75.7247 191.17 77.005L191.187 77.5877C191.187 77.5877 188.46 76.4929 187.548 78.2676L187.274 77.3493V77.3405Z" fill="#FF632C"/>
<path d="M201.954 74.4621L207.966 71.8132C207.966 71.8132 206.461 72.5814 205.912 73.8087L202.175 75.3803L201.954 74.4532V74.4621Z" fill="#FF632C"/>
<path d="M202.875 74.8064C202.875 75.3539 202.432 75.7953 201.883 75.7953C201.334 75.7953 200.892 75.3539 200.892 74.8064C200.892 74.259 201.334 73.8175 201.883 73.8175C202.432 73.8175 202.875 74.259 202.875 74.8064Z" fill="#FF632C"/>
<path d="M202.379 74.8064C202.379 75.0801 202.158 75.3009 201.883 75.3009C201.609 75.3009 201.387 75.0801 201.387 74.8064C201.387 74.5327 201.609 74.312 201.883 74.312C202.158 74.312 202.379 74.5327 202.379 74.8064Z" fill="#353535"/>
<path d="M197.111 76.0602L194.339 80.4662" stroke="white" stroke-width="0.75" stroke-linecap="round" stroke-linejoin="round"/>
<path d="M198.687 76.0602L195.924 80.4662" stroke="white" stroke-width="0.75" stroke-linecap="round" stroke-linejoin="round"/>
<path d="M211.341 77.0206C212.044 74.533 211.255 72.1346 209.58 71.6637C207.904 71.1927 205.976 72.8276 205.273 75.3152C204.57 77.8028 205.358 80.2012 207.034 80.6721C208.709 81.1431 210.638 79.5082 211.341 77.0206Z" fill="white"/>
<path d="M209.666 74.6563C209.32 74.0735 208.497 73.8881 207.877 74.1442C207.257 74.4002 206.815 75.0095 206.611 75.654C206.407 76.2986 206.407 76.9873 206.425 77.6672C206.496 77.2787 206.797 76.9255 207.195 76.8549C207.585 76.7842 208.019 77.0668 208.072 77.4553C208.125 77.9056 207.727 78.2764 207.328 78.4883C207.302 78.506 207.266 78.5237 207.275 78.559C207.284 78.5943 207.346 78.5766 207.319 78.559" fill="white"/>
<path d="M209.666 74.6563C209.32 74.0735 208.497 73.8881 207.877 74.1442C207.257 74.4002 206.815 75.0095 206.611 75.654C206.407 76.2986 206.407 76.9873 206.425 77.6672C206.496 77.2787 206.797 76.9255 207.195 76.8549C207.585 76.7842 208.019 77.0668 208.072 77.4553C208.125 77.9056 207.727 78.2764 207.328 78.4883C207.302 78.506 207.266 78.5237 207.275 78.559C207.284 78.5943 207.346 78.5766 207.319 78.559" stroke="#353535" stroke-width="0.75" stroke-linecap="round" stroke-linejoin="round"/>
</g>
<g filter="url(#filter0_d_186_798)">
<path d="M43.2571 253.086C43.2571 234.531 65.0529 219.49 91.9393 219.49C98.6913 219.49 108.496 221.456 113.686 222.741C136.668 207.87 133.208 205.714 126.042 229.11C135.04 235.207 140.622 243.697 140.622 253.086C140.622 271.641 118.826 286.683 91.9393 286.683C65.0529 286.683 43.2571 271.641 43.2571 253.086Z" fill="white"/>
<path d="M124.993 228.789L124.755 229.564L125.426 230.019C134.222 235.978 139.524 244.166 139.524 253.086C139.524 261.9 134.349 269.998 125.74 275.939C117.135 281.877 105.188 285.585 91.9393 285.585C78.6903 285.585 66.7434 281.877 58.139 275.939C49.5299 269.998 44.3542 261.9 44.3542 253.086C44.3542 244.272 49.5299 236.174 58.139 230.233C66.7434 224.295 78.6903 220.587 91.9393 220.587C98.5507 220.587 108.247 222.525 113.422 223.806L113.883 223.92L114.282 223.662C118.866 220.696 122.408 218.229 125.065 216.379C125.749 215.903 126.373 215.468 126.942 215.076C128.346 214.108 129.377 213.423 130.117 213.011C130.147 212.995 130.175 212.979 130.203 212.964C130.046 213.626 129.753 214.552 129.328 215.8C129.103 216.46 128.844 217.2 128.558 218.021C127.617 220.718 126.371 224.288 124.993 228.789ZM130.983 212.626C130.983 212.627 130.977 212.628 130.967 212.628C130.978 212.626 130.983 212.626 130.983 212.626Z" stroke="black" stroke-width="2.19435"/>
</g>
<path d="M68.4759 245.853H70.227V250.803H68.4759V245.853ZM74.0978 238.98H75.8621V251.172H74.0978V238.98ZM65.6978 246.603L65.4871 245.194C67.8702 245.181 70.7668 245.181 73.3342 244.905L73.4263 246.182C70.7799 246.577 68.015 246.603 65.6978 246.603ZM71.6621 247.196H74.4533V248.512H71.6621V247.196ZM66.4614 239.559H72.5705V244.194H66.4614V239.559ZM70.8589 240.942H68.1862V242.811H70.8589V240.942ZM82.692 245.841C82.662 245.862 82.3084 246.111 81.6312 246.586C81.1984 246.886 80.8683 247.163 80.6412 247.416C80.4355 247.643 80.2083 247.756 79.9597 247.756C79.7155 247.756 79.5012 247.668 79.3169 247.493C79.1326 247.313 79.0404 247.107 79.0404 246.876C79.0404 246.533 79.3169 246.149 79.8697 245.725C80.3798 245.365 80.8898 245.003 81.3998 244.638C81.9527 244.218 82.2291 243.839 82.2291 243.501C82.2291 243.102 82.0255 242.729 81.6184 242.382C81.2155 242.03 80.7955 241.855 80.3583 241.855C80.1269 241.855 79.8097 241.988 79.4069 242.253C79.004 242.515 78.719 242.645 78.5518 242.645C78.299 242.645 78.0847 242.553 77.909 242.369C77.7375 242.18 77.6518 241.973 77.6518 241.745C77.6518 241.317 78.0268 240.925 78.7769 240.569C79.4112 240.265 79.9383 240.113 80.3583 240.113C81.2884 240.113 82.1284 240.455 82.8784 241.141C83.6327 241.827 84.0099 242.613 84.0099 243.501C84.0099 244.379 83.5706 245.159 82.692 245.841ZM79.6062 250.463C79.3619 250.463 79.139 250.386 78.9376 250.231C78.719 250.06 78.6097 249.848 78.6097 249.595C78.6097 249.304 78.6954 249.034 78.8669 248.785C79.0726 248.481 79.349 248.329 79.6962 248.329C79.9876 248.329 80.2148 248.438 80.3776 248.656C80.5062 248.836 80.5705 249.049 80.5705 249.293C80.5705 249.554 80.4998 249.799 80.3583 250.026C80.1783 250.317 79.9276 250.463 79.6062 250.463ZM90.8177 248.341H101.851V249.763H90.8177V248.341ZM95.439 245.734H97.1901V248.683H95.439V245.734ZM91.9764 239.757H93.7143V241.626H98.9149V239.757H100.653V246.103H91.9764V239.757ZM93.7143 242.996V244.707H98.9149V242.996H93.7143ZM102.916 244.602H113.936V245.984H102.916V244.602ZM108.407 246.656C111.04 246.656 112.633 247.485 112.633 248.92C112.633 250.355 111.04 251.172 108.407 251.172C105.773 251.172 104.167 250.355 104.167 248.92C104.167 247.485 105.773 246.656 108.407 246.656ZM108.407 248.012C106.774 248.012 105.945 248.288 105.945 248.92C105.945 249.539 106.774 249.829 108.407 249.829C110.039 249.829 110.869 249.539 110.869 248.92C110.869 248.288 110.039 248.012 108.407 248.012ZM107.222 240.231H108.775V240.534C108.775 242.35 107.13 243.865 103.983 244.141L103.377 242.785C106.05 242.548 107.222 241.482 107.222 240.534V240.231ZM108.077 240.231H109.631V240.534C109.631 241.482 110.79 242.548 113.476 242.785L112.87 244.141C109.736 243.865 108.077 242.364 108.077 240.534V240.231ZM103.917 239.546H112.949V240.929H103.917V239.546ZM71.6752 260.785H74.8878V262.194H71.6752V260.785ZM68.3574 257.915H69.7793V259.679C69.7793 262.747 68.7392 265.577 66.4483 266.723L65.3555 265.314C67.4357 264.353 68.3574 261.996 68.3574 259.679V257.915ZM68.726 257.915H70.1216V259.679C70.1216 261.996 71.0038 264.221 73.0182 265.117L71.978 266.512C69.6871 265.406 68.726 262.72 68.726 259.679V257.915ZM74.0188 256.967H75.7567V269.198H74.0188V256.967ZM78.0598 261.404H79.0736C81.6146 261.404 82.9971 261.325 84.5375 261.009L84.7218 262.365C83.1551 262.72 81.6804 262.773 79.0736 262.773H78.0598V261.404ZM78.0598 257.612H83.5105V258.981H79.7977V262.167H78.0598V257.612ZM85.4855 256.98H87.2366V263.036H85.4855V256.98ZM86.7494 259.271H88.856V260.693H86.7494V259.271ZM79.1789 263.537H87.2366V266.907H80.9431V268.369H79.2052V265.617H85.5118V264.906H79.1789V263.537ZM79.2052 267.658H87.592V269.04H79.2052V267.658ZM97.5709 256.967H99.3089V269.198H97.5709V256.967ZM98.9139 261.575H101.073V263.023H98.9139V261.575ZM90.2506 264.932H91.2775C93.3446 264.932 94.9509 264.866 96.7415 264.55L96.9126 265.959C95.0694 266.288 93.3973 266.367 91.2775 266.367H90.2506V264.932ZM90.2374 258.007H95.8462V262.734H91.9885V265.472H90.2506V261.338H94.1082V259.403H90.2374V258.007ZM102.994 258.007H110.723V259.416H102.994V258.007ZM101.875 266.288H112.895V267.71H101.875V266.288ZM105.772 262.102H107.523V266.986H105.772V262.102ZM110.091 258.007H111.842V259.179C111.842 260.706 111.842 262.418 111.355 265.024L109.604 264.827C110.091 262.404 110.091 260.64 110.091 259.179V258.007ZM119.027 263.841C118.997 263.862 118.644 264.111 117.967 264.586C117.534 264.886 117.204 265.163 116.977 265.416C116.771 265.643 116.544 265.756 116.295 265.756C116.051 265.756 115.837 265.668 115.652 265.493C115.468 265.313 115.376 265.107 115.376 264.876C115.376 264.533 115.652 264.149 116.205 263.725C116.715 263.365 117.225 263.003 117.735 262.638C118.288 262.218 118.565 261.839 118.565 261.501C118.565 261.102 118.361 260.729 117.954 260.382C117.551 260.03 117.131 259.855 116.694 259.855C116.462 259.855 116.145 259.988 115.742 260.253C115.339 260.515 115.054 260.645 114.887 260.645C114.634 260.645 114.42 260.553 114.244 260.369C114.073 260.18 113.987 259.973 113.987 259.745C113.987 259.317 114.362 258.925 115.112 258.569C115.747 258.265 116.274 258.113 116.694 258.113C117.624 258.113 118.464 258.455 119.214 259.141C119.968 259.827 120.345 260.613 120.345 261.501C120.345 262.379 119.906 263.159 119.027 263.841ZM115.942 268.463C115.697 268.463 115.474 268.386 115.273 268.231C115.054 268.06 114.945 267.848 114.945 267.595C114.945 267.304 115.031 267.034 115.202 266.785C115.408 266.481 115.684 266.329 116.032 266.329C116.323 266.329 116.55 266.438 116.713 266.656C116.842 266.836 116.906 267.049 116.906 267.293C116.906 267.554 116.835 267.799 116.694 268.026C116.514 268.317 116.263 268.463 115.942 268.463Z" fill="black"/>
<g filter="url(#filter1_d_186_798)">
<path d="M351.446 75.2553C351.446 99.5231 323.434 119.196 288.88 119.196C280.203 119.196 267.601 116.625 260.932 114.944C231.396 134.394 235.842 137.213 245.052 106.613C233.488 98.6401 226.314 87.536 226.314 75.2553C226.314 50.9874 254.326 31.3145 288.88 31.3145C323.434 31.3145 351.446 50.9874 351.446 75.2553Z" fill="white"/>
<path d="M246.103 106.93L246.333 106.164L245.675 105.71C234.315 97.8776 227.412 87.0755 227.412 75.2553C227.412 63.576 234.151 52.8917 245.27 45.0823C256.386 37.2752 271.801 32.4117 288.88 32.4117C305.959 32.4117 321.374 37.2752 332.49 45.0823C343.61 52.8917 350.349 63.576 350.349 75.2553C350.349 86.9346 343.61 97.6189 332.49 105.428C321.374 113.235 305.959 118.099 288.88 118.099C280.346 118.099 267.855 115.557 261.2 113.88L260.732 113.762L260.329 114.027C254.442 117.904 249.895 121.126 246.48 123.546C245.601 124.169 244.797 124.739 244.065 125.253C242.263 126.518 240.925 127.422 239.959 127.969C239.684 128.124 239.456 128.241 239.268 128.326C239.281 128.24 239.298 128.142 239.319 128.033C239.494 127.129 239.906 125.785 240.535 123.908C240.825 123.041 241.158 122.071 241.526 120.996C242.736 117.469 244.333 112.809 246.103 106.93ZM238.74 128.508C238.74 128.508 238.742 128.507 238.746 128.507C238.742 128.508 238.739 128.508 238.74 128.508Z" stroke="black" stroke-width="2.19435"/>
</g>
<path d="M263.659 60.0069H271.387V61.4157H263.659V60.0069ZM262.54 68.2884H273.56V69.7103H262.54V68.2884ZM266.437 64.1016H268.188V68.9862H266.437V64.1016ZM270.755 60.0069H272.507V61.1787C272.507 62.706 272.507 64.4176 272.019 67.0245L270.268 66.827C270.755 64.4044 270.755 62.6401 270.755 61.1787V60.0069ZM275.257 59.9411H281.169V65.8395H275.257V59.9411ZM279.457 61.3235H276.969V64.4571H279.457V61.3235ZM283.012 58.9931H284.776V67.6564H283.012V58.9931ZM276.653 69.5129H285.079V70.9216H276.653V69.5129ZM276.653 66.8665H278.404V70.1317H276.653V66.8665ZM289.489 66.3793H290.805V66.7875C290.805 68.6307 289.989 70.316 288.08 71.0006L287.224 69.7235C288.817 69.1837 289.489 67.9724 289.489 66.7875V66.3793ZM289.936 66.3793H291.187V66.7875C291.187 67.9724 291.78 69.21 293.267 69.8288L292.57 71.1191C290.634 70.395 289.936 68.5781 289.936 66.7875V66.3793ZM293.939 66.3793H295.19V66.7875C295.19 68.4727 294.466 70.3687 292.57 71.1191L291.846 69.8288C293.333 69.1574 293.939 67.8671 293.939 66.7875V66.3793ZM294.347 66.3793H295.664V66.7875C295.664 68.0514 296.322 69.2232 297.928 69.7235L297.072 71.0006C295.137 70.3423 294.347 68.7097 294.347 66.7875V66.3793ZM295.124 58.9931H296.888V65.879H295.124V58.9931ZM290.252 59.6119C292.148 59.6119 293.557 60.8232 293.557 62.5348C293.557 64.2332 292.148 65.4445 290.252 65.4445C288.357 65.4445 286.935 64.2332 286.935 62.5348C286.935 60.8232 288.357 59.6119 290.252 59.6119ZM290.252 61.0602C289.331 61.0602 288.646 61.6 288.646 62.5348C288.646 63.4564 289.331 63.9962 290.252 63.9962C291.174 63.9962 291.846 63.4564 291.846 62.5348C291.846 61.6 291.174 61.0602 290.252 61.0602ZM302.206 59.8226C304.023 59.8226 305.353 61.5079 305.353 64.1674C305.353 66.8533 304.023 68.5386 302.206 68.5386C300.376 68.5386 299.06 66.8533 299.06 64.1674C299.06 61.5079 300.376 59.8226 302.206 59.8226ZM302.206 61.4157C301.324 61.4157 300.732 62.3768 300.732 64.1674C300.732 65.9843 301.324 66.9586 302.206 66.9586C303.102 66.9586 303.681 65.9843 303.681 64.1674C303.681 62.3768 303.102 61.4157 302.206 61.4157ZM307.354 58.9668H309.092V71.1981H307.354V58.9668ZM304.839 63.3643H308.092V64.773H304.839V63.3643ZM316.027 65.8406C315.997 65.862 315.644 66.1106 314.967 66.5863C314.534 66.8863 314.204 67.1628 313.977 67.4156C313.771 67.6428 313.544 67.7564 313.295 67.7564C313.051 67.7564 312.837 67.6685 312.652 67.4928C312.468 67.3128 312.376 67.1071 312.376 66.8756C312.376 66.5327 312.652 66.1492 313.205 65.7249C313.715 65.3649 314.225 65.0027 314.735 64.6384C315.288 64.2184 315.565 63.8391 315.565 63.5005C315.565 63.1019 315.361 62.7291 314.954 62.3819C314.551 62.0305 314.131 61.8547 313.694 61.8547C313.462 61.8547 313.145 61.9876 312.742 62.2533C312.339 62.5148 312.054 62.6455 311.887 62.6455C311.634 62.6455 311.42 62.5533 311.244 62.369C311.073 62.1805 310.987 61.9726 310.987 61.7455C310.987 61.3169 311.362 60.9247 312.112 60.569C312.747 60.2647 313.274 60.1126 313.694 60.1126C314.624 60.1126 315.464 60.4554 316.214 61.1412C316.968 61.8269 317.345 62.6133 317.345 63.5005C317.345 64.3791 316.906 65.1591 316.027 65.8406ZM312.942 70.4629C312.697 70.4629 312.474 70.3857 312.273 70.2314C312.054 70.06 311.945 69.8479 311.945 69.595C311.945 69.3035 312.031 69.0335 312.202 68.785C312.408 68.4807 312.684 68.3285 313.032 68.3285C313.323 68.3285 313.55 68.4378 313.713 68.6564C313.842 68.8364 313.906 69.0485 313.906 69.2928C313.906 69.5543 313.835 69.7986 313.694 70.0257C313.514 70.3172 313.263 70.4629 312.942 70.4629ZM270.321 76.9668H272.085V89.1981H270.321V76.9668ZM271.69 81.4828H273.85V82.9179H271.69V81.4828ZM263.001 84.8138H264.028C266.081 84.8138 267.701 84.748 269.492 84.432L269.663 85.8803C267.819 86.2094 266.147 86.2621 264.028 86.2621H263.001V84.8138ZM263.001 78.0991H268.688V79.5079H264.739V85.5116H263.001V78.0991ZM288.194 76.98H289.945V83.0627H288.194V76.98ZM289.234 79.3104H291.552V80.7455H289.234V79.3104ZM280.703 77.5461H286.509V82.6151H280.703V77.5461ZM284.784 78.9154H282.427V81.2458H284.784V78.9154ZM281.888 83.5499H289.945V86.894H283.652V88.3423H281.914V85.6301H288.221V84.8928H281.888V83.5499ZM281.914 87.6708H290.301V89.0401H281.914V87.6708ZM292.446 78.81H298.278V80.2057H292.446V78.81ZM295.382 80.7455C296.935 80.7455 298.055 81.9436 298.055 83.6552C298.055 85.3536 296.935 86.5517 295.382 86.5517C293.841 86.5517 292.709 85.3536 292.709 83.6552C292.709 81.9436 293.841 80.7455 295.382 80.7455ZM295.382 82.2069C294.724 82.2069 294.263 82.7336 294.263 83.6552C294.263 84.5768 294.724 85.0903 295.382 85.0903C296.04 85.0903 296.514 84.5768 296.514 83.6552C296.514 82.7336 296.04 82.2069 295.382 82.2069ZM301.267 76.98H302.939V89.1718H301.267V76.98ZM299.806 81.9304H301.82V83.3392H299.806V81.9304ZM298.713 77.2038H300.346V88.6583H298.713V77.2038ZM294.526 77.3091H296.251V79.6922H294.526V77.3091ZM305.15 77.9542H306.888V79.442H309.561V77.9542H311.299V83.563H305.15V77.9542ZM306.888 80.785V82.1806H309.561V80.785H306.888ZM307.362 83.1812H309.113V85.8144H307.362V83.1812ZM312.444 76.98H314.195V89.1718H312.444V76.98ZM313.655 81.8514H315.802V83.2997H313.655V81.8514ZM304.65 86.894L304.439 85.4721C306.546 85.4721 309.39 85.4853 311.812 85.1561L311.944 86.4201C309.416 86.894 306.704 86.9072 304.65 86.894Z" fill="black"/>
<defs>
<filter id="filter0_d_186_798" x="40.331" y="211.532" width="103.216" height="81.0025" filterUnits="userSpaceOnUse" color-interpolation-filters="sRGB">
<feFlood flood-opacity="0" result="BackgroundImageFix"/>
<feColorMatrix in="SourceAlpha" type="matrix" values="0 0 0 0 0 0 0 0 0 0 0 0 0 0 0 0 0 0 127 0" result="hardAlpha"/>
<feOffset dy="2.92581"/>
<feGaussianBlur stdDeviation="1.4629"/>
<feComposite in2="hardAlpha" operator="out"/>
<feColorMatrix type="matrix" values="0 0 0 0 0 0 0 0 0 0 0 0 0 0 0 0 0 0 0.25 0"/>
<feBlend mode="normal" in2="BackgroundImageFix" result="effect1_dropShadow_186_798"/>
<feBlend mode="normal" in="SourceGraphic" in2="effect1_dropShadow_186_798" result="shape"/>
</filter>
<filter id="filter1_d_186_798" x="223.389" y="31.3145" width="130.983" height="104.142" filterUnits="userSpaceOnUse" color-interpolation-filters="sRGB">
<feFlood flood-opacity="0" result="BackgroundImageFix"/>
<feColorMatrix in="SourceAlpha" type="matrix" values="0 0 0 0 0 0 0 0 0 0 0 0 0 0 0 0 0 0 127 0" result="hardAlpha"/>
<feOffset dy="2.92581"/>
<feGaussianBlur stdDeviation="1.4629"/>
<feComposite in2="hardAlpha" operator="out"/>
<feColorMatrix type="matrix" values="0 0 0 0 0 0 0 0 0 0 0 0 0 0 0 0 0 0 0.25 0"/>
<feBlend mode="normal" in2="BackgroundImageFix" result="effect1_dropShadow_186_798"/>
<feBlend mode="normal" in="SourceGraphic" in2="effect1_dropShadow_186_798" result="shape"/>
</filter>
<radialGradient id="paint0_radial_186_798" cx="0" cy="0" r="1" gradientUnits="userSpaceOnUse" gradientTransform="translate(195.5 196.217) rotate(90) scale(167.484)">
<stop stop-color="#D25BDC"/>
<stop offset="1" stop-color="#AB5BDC" stop-opacity="0"/>
</radialGradient>
<clipPath id="clip0_186_798">
<rect width="169" height="345" fill="white" transform="translate(104 40)"/>
</clipPath>
</defs>
</svg>
