<svg width="393" height="394" viewBox="0 0 393 394" fill="none" xmlns="http://www.w3.org/2000/svg">
<circle cx="195.5" cy="196.217" r="167.484" fill="url(#paint0_radial_186_1344)"/>
<g filter="url(#filter0_d_186_1344)">
<path d="M371.446 52.2553C371.446 76.5231 343.434 96.196 308.88 96.196C300.203 96.196 287.601 93.6248 280.932 91.9438C251.396 111.394 255.842 114.213 265.052 83.6135C253.488 75.6401 246.314 64.536 246.314 52.2553C246.314 27.9874 274.326 8.31451 308.88 8.31451C343.434 8.31451 371.446 27.9874 371.446 52.2553Z" fill="white"/>
<path d="M281.2 90.8799L280.732 90.7618L280.329 91.0274C274.442 94.9041 269.895 98.1259 266.48 100.546C265.601 101.169 264.797 101.739 264.065 102.253C262.263 103.518 260.925 104.422 259.959 104.969C259.684 105.124 259.456 105.241 259.268 105.326C259.281 105.24 259.298 105.142 259.319 105.033C259.494 104.129 259.906 102.785 260.535 100.908C260.825 100.041 261.158 99.0713 261.526 97.9962C262.736 94.4694 264.333 89.809 266.103 83.9297L266.333 83.1641L265.675 82.7102C254.315 74.8776 247.412 64.0755 247.412 52.2553C247.412 40.576 254.151 29.8917 265.27 22.0823C276.386 14.2752 291.801 9.41169 308.88 9.41169C325.959 9.41169 341.374 14.2752 352.49 22.0823C363.61 29.8917 370.349 40.576 370.349 52.2553C370.349 63.9346 363.61 74.6189 352.49 82.4282C341.374 90.2353 325.959 95.0989 308.88 95.0989C300.346 95.0989 287.855 92.5571 281.2 90.8799ZM258.74 105.508C258.74 105.508 258.742 105.507 258.746 105.507C258.742 105.508 258.739 105.508 258.74 105.508Z" stroke="black" stroke-width="2.19435"/>
</g>
<g filter="url(#filter1_d_186_1344)">
<path d="M43.2566 253.086C43.2566 234.531 65.0524 219.49 91.9388 219.49C98.6908 219.49 108.496 221.456 113.685 222.741C136.667 207.87 133.208 205.714 126.041 229.11C135.039 235.207 140.621 243.697 140.621 253.086C140.621 271.641 118.825 286.683 91.9388 286.683C65.0524 286.683 43.2566 271.641 43.2566 253.086Z" fill="white"/>
<path d="M113.421 223.806L113.883 223.92L114.281 223.662C118.866 220.696 122.407 218.23 125.065 216.379C125.748 215.903 126.373 215.468 126.942 215.076C128.346 214.108 129.377 213.423 130.117 213.011C130.146 212.995 130.175 212.979 130.202 212.964C130.046 213.626 129.752 214.552 129.327 215.8C129.102 216.46 128.844 217.2 128.557 218.021C127.616 220.718 126.371 224.288 124.992 228.789L124.755 229.564L125.426 230.019C134.222 235.978 139.524 244.166 139.524 253.086C139.524 261.9 134.348 269.998 125.739 275.939C117.135 281.877 105.188 285.585 91.9388 285.585C78.6898 285.585 66.7429 281.877 58.1385 275.939C49.5295 269.998 44.3538 261.9 44.3538 253.086C44.3538 244.272 49.5295 236.174 58.1385 230.233C66.7429 224.295 78.6898 220.587 91.9388 220.587C98.5502 220.587 108.247 222.525 113.421 223.806ZM130.983 212.626C130.982 212.627 130.977 212.628 130.967 212.628C130.978 212.626 130.983 212.626 130.983 212.626Z" stroke="black" stroke-width="2.19435"/>
</g>
<path d="M158.424 224.061C158.424 224.061 157.621 229.849 155.209 233.05C152.798 236.251 153.194 243.229 154.604 242.64C156.013 242.039 155.012 240.04 156.421 240.04C157.831 240.04 155.42 250.022 157.423 251.016C159.438 252.009 159.636 243.633 160.44 243.229C161.244 242.824 159.438 255.014 161.244 255.21C163.061 255.406 164.063 253.015 164.261 251.42C164.458 249.826 167.884 237.44 167.884 237.44L170.097 227.053L168.489 224.453L158.424 224.049V224.061Z" fill="white"/>
<path d="M161.466 256.019C161.367 256.019 161.256 256.019 161.145 256.007C159.772 255.86 159.5 253.922 159.624 249.937C159.315 250.844 158.919 251.469 158.363 251.752C157.955 251.96 157.485 251.948 157.052 251.739C155.581 251.003 155.655 248.342 155.927 244.345C155.976 243.67 156.026 242.861 156.051 242.174C155.865 242.64 155.544 243.094 154.901 243.376C154.369 243.596 153.8 243.437 153.404 242.946C152.205 241.438 152.316 235.515 154.542 232.572C156.805 229.579 157.596 224.012 157.609 223.963C157.658 223.558 158.029 223.252 158.437 223.276L168.502 223.681C168.774 223.681 169.009 223.828 169.157 224.061L170.765 226.661C170.876 226.833 170.913 227.041 170.864 227.249L168.65 237.636C167.686 241.107 165.201 250.28 165.04 251.543C164.805 253.407 163.655 256.044 161.454 256.044L161.466 256.019ZM160.465 242.431C160.638 242.431 160.811 242.48 160.947 242.566C161.541 242.959 161.528 243.633 161.355 247.202C161.256 249.274 161.034 253.493 161.503 254.425C162.542 254.364 163.309 252.634 163.47 251.322C163.68 249.691 166.969 237.747 167.117 237.232L169.256 227.213L168.032 225.251L159.105 224.895C158.796 226.587 157.868 230.855 155.853 233.528C154.06 235.907 154.072 240.371 154.542 241.671C154.616 241.536 154.653 241.328 154.715 241.009C154.814 240.433 155.024 239.243 156.421 239.243C156.718 239.243 157.003 239.366 157.213 239.586C157.819 240.236 157.757 241.622 157.559 244.443C157.448 246.012 157.188 249.63 157.745 250.255C158.239 249.704 158.684 247.153 158.907 245.902C159.303 243.633 159.476 242.824 160.106 242.517C160.218 242.456 160.354 242.431 160.49 242.431H160.465Z" fill="#333333"/>
<path d="M244.337 365.678C244.337 365.678 242.519 365.678 242.074 367.775C241.616 369.872 241.171 372.263 242.531 373.17C243.892 374.066 261.858 377.512 272.875 368.976C283.892 360.441 286.613 357.596 286.613 355.953C286.613 354.309 283.596 346.522 279.515 347.565L265.629 360.441L244.337 365.678Z" fill="white"/>
<path d="M253.388 375.378C247.477 375.378 242.803 374.299 242.086 373.833C240.219 372.594 240.837 369.712 241.295 367.615C241.74 365.543 243.347 364.942 244.238 364.893L265.246 359.718L278.983 346.976C279.082 346.89 279.206 346.817 279.329 346.792C280.566 346.473 281.839 346.792 283.014 347.687C285.722 349.76 287.428 354.506 287.428 355.953C287.428 357.829 285.326 360.355 273.382 369.614C267.521 374.151 259.743 375.39 253.4 375.39L253.388 375.378ZM244.349 366.475C244.151 366.475 243.149 366.585 242.865 367.946C242.544 369.418 242.012 371.871 242.976 372.508C244.485 373.403 261.882 376.482 272.38 368.351C281.914 360.968 285.809 357.375 285.809 355.953C285.809 354.935 284.275 350.692 282.012 348.95C281.283 348.399 280.591 348.178 279.898 348.3L266.173 361.03C266.074 361.128 265.95 361.189 265.814 361.226L244.522 366.462C244.522 366.462 244.398 366.487 244.336 366.487L244.349 366.475Z" fill="#333333"/>
<path d="M253.239 327.49C253.239 327.49 260.794 340.219 260.943 342.316L266.383 344.119L273.777 340.378L272.726 336.491C272.726 336.491 268.498 322.118 268.04 319.42C267.583 316.722 253.239 327.502 253.239 327.502V327.49Z" fill="white"/>
<path d="M266.383 344.904C266.296 344.904 266.21 344.891 266.123 344.867L260.683 343.064C260.373 342.966 260.163 342.684 260.139 342.365C260.04 340.979 255.427 332.751 252.546 327.882C252.336 327.539 252.435 327.085 252.757 326.84C256.59 323.958 265.74 317.36 268.04 318.268C268.46 318.439 268.757 318.795 268.831 319.261C269.276 321.885 273.443 336.098 273.493 336.246L274.556 340.158C274.655 340.526 274.482 340.906 274.148 341.077L266.754 344.818C266.642 344.879 266.519 344.904 266.395 344.904H266.383ZM261.635 341.703L266.321 343.248L272.837 339.949L271.947 336.675C271.786 336.111 267.904 322.928 267.298 319.752C265.727 319.837 259.582 323.774 254.302 327.686C255.996 330.555 260.819 338.882 261.635 341.691V341.703Z" fill="#333333"/>
<path d="M259.286 341.114C259.286 341.114 261.858 345.002 261.549 347.552C261.252 350.103 260.498 351.894 260.498 351.894L262.464 354.444L267.595 355.34L275.15 350.692L276.659 344.106C276.659 344.106 274.248 336.319 272.739 336.466C271.231 336.614 267.002 343.052 259.299 341.114H259.286Z" fill="#E9E9E9"/>
<path d="M267.583 356.137C267.583 356.137 267.484 356.137 267.447 356.124L262.315 355.229C262.117 355.192 261.944 355.082 261.821 354.923L259.855 352.372C259.681 352.151 259.644 351.845 259.756 351.587C259.756 351.575 260.473 349.846 260.757 347.454C260.98 345.603 259.286 342.561 258.618 341.543C258.433 341.274 258.445 340.906 258.643 340.648C258.841 340.378 259.174 340.256 259.496 340.342C264.763 341.666 268.3 338.772 270.427 337.03C271.379 336.258 272.009 335.743 272.652 335.669C274.05 335.522 275.694 338.281 277.425 343.861C277.462 343.996 277.475 344.131 277.438 344.278L275.929 350.863C275.88 351.072 275.756 351.256 275.57 351.366L268.015 356.014C267.892 356.088 267.743 356.137 267.595 356.137H267.583ZM262.896 353.709L267.422 354.506L274.42 350.201L275.805 344.143C274.754 340.808 273.382 337.779 272.726 337.3C272.467 337.423 271.898 337.889 271.428 338.269C269.45 339.888 265.913 342.757 260.831 342.206C261.598 343.665 262.538 345.885 262.34 347.65C262.117 349.564 261.647 351.06 261.4 351.771L262.896 353.721V353.709Z" fill="#333333"/>
<path d="M259.582 350.103C259.582 350.103 257.925 355.045 252.485 357.596C247.044 360.147 243.124 362.084 243.273 365.53C243.421 368.976 245.239 368.829 246.599 369.124C247.959 369.418 259.582 371.221 269.845 364.782C280.108 358.344 282.531 353.696 282.531 352.347C282.531 350.998 280.12 346.203 279.366 345.014C278.612 343.812 277.857 342.022 276.201 342.77C276.201 342.77 275.743 350.263 269.857 351.452C263.972 352.654 259.743 350.41 259.594 350.103H259.582Z" fill="#F59B31"/>
<path d="M252.15 370.362C248.725 370.362 246.475 369.908 246.425 369.896C246.277 369.859 246.116 369.835 245.956 369.81C244.633 369.577 242.629 369.234 242.469 365.567C242.296 361.483 246.858 359.35 252.138 356.873C257.208 354.506 258.803 349.895 258.815 349.858C258.914 349.551 259.198 349.343 259.52 349.318C259.78 349.294 260.027 349.404 260.188 349.588C260.707 349.956 264.466 351.734 269.684 350.68C274.89 349.625 275.384 342.794 275.384 342.721C275.397 342.426 275.582 342.169 275.854 342.046C277.956 341.102 279.081 342.99 279.761 344.131C279.86 344.29 279.947 344.45 280.046 344.597C280.676 345.59 283.335 350.667 283.335 352.36C283.335 354.187 280.59 358.994 270.277 365.457C263.823 369.504 256.874 370.362 252.15 370.362ZM259.965 351.268C259.186 352.899 257.133 356.296 252.83 358.307C247.303 360.895 243.952 362.673 244.076 365.494C244.175 367.885 245.041 368.032 246.228 368.241C246.413 368.277 246.586 368.302 246.772 368.339C246.895 368.363 258.827 370.742 269.424 364.096C279.477 357.792 281.727 353.39 281.727 352.347C281.727 351.305 279.588 346.878 278.686 345.431C278.587 345.271 278.488 345.1 278.376 344.928C277.709 343.812 277.35 343.395 276.942 343.383C276.695 345.271 275.508 351.109 270.018 352.225C265.591 353.12 261.77 352.176 259.965 351.268Z" fill="#333333"/>
<path d="M252.646 367.186C249.926 367.186 248.12 366.794 247.935 366.757C247.502 366.659 247.23 366.229 247.329 365.8C247.428 365.371 247.861 365.101 248.293 365.199C248.405 365.224 259.954 367.689 269.475 359.386C269.808 359.092 270.315 359.129 270.612 359.46C270.909 359.791 270.872 360.294 270.538 360.588C264.195 366.107 257.159 367.186 252.646 367.186Z" fill="#333333"/>
<path d="M119.475 342.978C119.475 342.978 118.14 341.629 116.223 342.831C114.306 344.033 112.155 345.455 112.476 347.135C112.798 348.803 123.407 364.733 137.985 366.659C152.564 368.584 156.718 368.523 157.967 367.309C159.216 366.094 162.888 358.123 159.092 355.855L139.123 354.984L119.487 342.978H119.475Z" fill="white"/>
<path d="M153.775 368.976C150.783 368.976 145.936 368.523 137.874 367.456C122.913 365.469 112.031 349.122 111.685 347.283C111.252 345.014 113.874 343.358 115.79 342.157C117.67 340.979 119.302 341.727 119.97 342.341L139.358 354.199L159.129 355.07C159.265 355.07 159.389 355.119 159.513 355.18C160.65 355.855 161.343 357.02 161.528 358.553C161.949 362.084 159.624 366.83 158.536 367.885C157.844 368.559 156.656 368.964 153.788 368.964L153.775 368.976ZM117.818 343.138C117.484 343.138 117.101 343.236 116.656 343.518C115.308 344.364 113.033 345.786 113.268 347.001C113.688 348.791 124.1 364.034 138.084 365.886C150.882 367.578 156.298 367.824 157.398 366.757C158.177 365.996 160.267 361.717 159.921 358.749C159.81 357.78 159.451 357.093 158.833 356.664L139.074 355.806C138.937 355.806 138.801 355.757 138.69 355.683L119.055 343.677C119.055 343.677 118.956 343.604 118.906 343.567C118.844 343.506 118.449 343.162 117.818 343.162V343.138Z" fill="#333333"/>
<path d="M154.963 321.517C154.963 321.517 150.87 336.503 149.398 338.159L152.032 343.53L160.317 346.289L162.493 342.635C162.493 342.635 170.27 328.912 171.977 326.582C173.683 324.264 154.963 321.505 154.963 321.505V321.517Z" fill="white"/>
<path d="M160.317 347.099C160.23 347.099 160.143 347.086 160.057 347.062L151.772 344.303C151.575 344.229 151.401 344.094 151.303 343.898L148.669 338.527C148.52 338.232 148.57 337.889 148.792 337.656C149.782 336.552 152.626 327.06 154.184 321.333C154.295 320.941 154.678 320.683 155.074 320.757C160.069 321.493 171.779 323.455 172.78 325.81C172.966 326.239 172.904 326.705 172.62 327.085C170.963 329.341 163.259 342.917 163.185 343.052L161.009 346.718C160.861 346.964 160.601 347.111 160.317 347.111V347.099ZM152.613 342.892L159.958 345.333L161.8 342.242C162.11 341.703 169.294 329.035 171.21 326.3C170.06 325.184 162.493 323.48 155.556 322.425C154.629 325.773 151.847 335.596 150.326 338.232L152.613 342.892Z" fill="#333333"/>
<path d="M149.077 336.049C149.077 336.049 148.013 340.832 145.862 342.475C143.71 344.119 141.794 344.879 141.794 344.879L141.312 348.215L144.403 352.703L153.479 354.91L159.575 351.182C159.575 351.182 163.692 343.653 162.468 342.635C161.244 341.617 153.256 343.211 149.064 336.037L149.077 336.049Z" fill="#E9E9E9"/>
<path d="M153.491 355.707C153.429 355.707 153.367 355.707 153.293 355.683L144.217 353.476C144.019 353.426 143.858 353.316 143.747 353.157L140.656 348.668C140.545 348.509 140.495 348.3 140.52 348.104L141.002 344.769C141.039 344.487 141.237 344.254 141.497 344.143C141.521 344.143 143.351 343.395 145.367 341.85C146.937 340.648 148.001 337.141 148.285 335.89C148.359 335.571 148.619 335.326 148.953 335.277C149.274 335.228 149.608 335.375 149.769 335.669C152.638 340.587 157.46 341.09 160.341 341.396C161.627 341.531 162.468 341.617 162.987 342.046C164.137 343.003 163.222 346.203 160.279 351.587C160.217 351.71 160.118 351.808 159.995 351.881L153.899 355.609C153.775 355.683 153.627 355.732 153.478 355.732L153.491 355.707ZM144.909 352.004L153.355 354.064L158.981 350.63C160.761 347.344 162.06 344.057 161.911 343.236C161.639 343.125 160.836 343.039 160.18 342.978C157.485 342.696 152.699 342.181 149.386 337.938C148.854 339.581 147.852 341.973 146.356 343.113C144.736 344.364 143.24 345.112 142.535 345.443L142.164 348.031L144.909 352.004Z" fill="#333333"/>
<path d="M142.498 342.88C142.498 342.88 137.528 345.284 131.605 343.101C125.682 340.93 121.317 339.434 118.819 342.083C116.322 344.732 117.768 345.97 118.547 347.197C119.326 348.435 126.51 358.418 138.95 361.324C151.389 364.23 156.681 362.624 157.695 361.631C158.721 360.637 160.564 355.315 160.922 353.868C161.268 352.421 162.084 350.545 160.291 349.858C160.291 349.858 154.282 355.033 149.052 351.526C143.809 348.018 142.399 343.223 142.523 342.88H142.498Z" fill="#F59B31"/>
<path d="M151.142 363.789C148.112 363.789 144.044 363.347 138.752 362.097C125.286 358.945 117.929 347.724 117.855 347.614C117.769 347.479 117.67 347.344 117.571 347.197C116.779 346.056 115.58 344.327 118.226 341.531C121.169 338.416 126.127 340.243 131.877 342.353C137.417 344.388 142.09 342.181 142.14 342.157C142.424 342.009 142.783 342.058 143.018 342.279C143.216 342.451 143.302 342.696 143.29 342.941C143.389 343.591 144.798 347.724 149.472 350.851C154.134 353.966 159.686 349.294 159.735 349.245C159.958 349.049 160.267 348.999 160.551 349.098C162.789 349.956 162.184 352.163 161.825 353.488C161.776 353.672 161.726 353.856 161.677 354.04C161.417 355.094 159.5 360.944 158.227 362.182C157.435 362.955 155.222 363.764 151.117 363.764L151.142 363.789ZM122.455 341.47C121.181 341.47 120.167 341.813 119.401 342.623C117.645 344.487 118.164 345.247 118.894 346.301C119.005 346.461 119.116 346.62 119.215 346.78C119.277 346.89 126.276 357.547 139.111 360.551C151.29 363.409 156.31 361.839 157.114 361.067C157.93 360.269 159.735 355.278 160.119 353.684C160.168 353.488 160.218 353.292 160.279 353.095C160.65 351.722 160.7 351.133 160.354 350.814C158.796 351.992 153.466 355.45 148.582 352.188C144.489 349.441 142.548 345.909 141.93 343.971C140.162 344.585 136.044 345.59 131.321 343.861C127.525 342.463 124.606 341.482 122.443 341.482L122.455 341.47Z" fill="#333333"/>
<path d="M142.684 358.712C142.684 358.712 142.647 358.712 142.622 358.712C128.464 357.657 121.638 346.89 121.354 346.424C121.119 346.044 121.243 345.553 121.614 345.333C121.997 345.1 122.492 345.222 122.714 345.59C122.776 345.701 129.416 356.124 142.733 357.118C143.178 357.155 143.512 357.535 143.475 357.976C143.438 358.393 143.092 358.712 142.671 358.712H142.684Z" fill="#333333"/>
<path d="M162.653 146.594C162.653 146.594 158.128 199.301 156.619 207.395C155.111 215.477 154.208 224.76 155.407 225.067C156.619 225.361 164.768 226.268 167.179 227.765C169.59 229.261 172.916 221.179 172.916 221.179L182.573 189.736L178.95 148.703L162.641 146.606L162.653 146.594Z" fill="#A1958E"/>
<path d="M167.809 228.746C167.439 228.746 167.08 228.647 166.758 228.439C165.064 227.384 159.945 226.6 157.188 226.17C156.236 226.023 155.543 225.913 155.21 225.839C152.675 225.214 155.036 211.454 155.828 207.248C157.312 199.289 161.812 147.06 161.85 146.532C161.862 146.312 161.973 146.116 162.146 145.981C162.319 145.846 162.53 145.784 162.752 145.809L179.062 147.906C179.433 147.955 179.729 148.249 179.754 148.629L183.377 189.662C183.377 189.761 183.377 189.871 183.34 189.969L173.683 221.412C173.225 222.54 170.925 227.85 168.477 228.647C168.255 228.721 168.032 228.758 167.809 228.758V228.746ZM155.815 224.331C156.162 224.392 156.768 224.49 157.435 224.588C161.404 225.202 165.794 225.95 167.612 227.078C167.711 227.139 167.809 227.164 167.995 227.115C169.281 226.698 171.222 223.215 172.187 220.873L181.782 189.638L178.233 149.402L163.395 147.489C162.789 154.479 158.833 199.964 157.423 207.53C155.89 215.734 155.346 222.957 155.828 224.331H155.815Z" fill="#333333"/>
<mask id="mask0_186_1344" style="mask-type:luminance" maskUnits="userSpaceOnUse" x="154" y="146" width="29" height="82">
<path d="M162.653 146.594C162.653 146.594 158.128 199.301 156.619 207.395C155.111 215.477 154.208 224.76 155.407 225.067C156.619 225.361 164.768 226.268 167.179 227.765C169.59 229.261 172.916 221.179 172.916 221.179L182.573 189.736L178.95 148.703L162.641 146.606L162.653 146.594Z" fill="white"/>
</mask>
<g mask="url(#mask0_186_1344)">
<path d="M178.047 164.891C177.825 164.891 177.59 164.829 177.379 164.694C171.036 160.697 157.781 158.906 157.645 158.882C156.965 158.796 156.495 158.17 156.582 157.508C156.668 156.834 157.299 156.368 157.966 156.454C158.535 156.527 171.902 158.33 178.702 162.622C179.284 162.99 179.444 163.738 179.086 164.314C178.851 164.682 178.455 164.878 178.047 164.878V164.891Z" fill="white"/>
<path d="M183.488 179.864C183.229 179.864 182.969 179.778 182.734 179.619C176.749 175.094 156.706 173.291 156.496 173.279C155.815 173.217 155.309 172.629 155.37 171.954C155.432 171.28 156.026 170.789 156.706 170.838C157.559 170.912 177.664 172.727 184.218 177.669C184.762 178.074 184.861 178.846 184.453 179.386C184.205 179.705 183.834 179.864 183.464 179.864H183.488Z" fill="white"/>
<path d="M182.882 188.559C182.622 188.559 182.375 188.485 182.153 188.326C178.653 185.775 161.775 183.298 155.556 182.562C154.875 182.476 154.393 181.875 154.48 181.201C154.566 180.526 155.185 180.048 155.852 180.134C158.202 180.416 178.962 182.967 183.612 186.351C184.168 186.756 184.279 187.516 183.871 188.068C183.624 188.399 183.253 188.571 182.87 188.571L182.882 188.559Z" fill="white"/>
<path d="M180.767 197.842C180.644 197.842 180.52 197.818 180.396 197.781C163.778 192.581 155.704 193.918 155.617 193.93C154.949 194.053 154.306 193.611 154.183 192.937C154.059 192.275 154.504 191.637 155.172 191.514C155.518 191.453 163.827 190.018 181.138 195.439C181.794 195.647 182.152 196.334 181.942 196.971C181.781 197.499 181.287 197.83 180.767 197.83V197.842Z" fill="white"/>
<path d="M178.962 209.517C178.727 209.517 178.48 209.443 178.27 209.308C169.293 203.275 153.985 202.343 153.824 202.331C153.144 202.294 152.625 201.717 152.662 201.031C152.699 200.356 153.293 199.853 153.973 199.878C154.628 199.915 170.121 200.871 179.655 207.273C180.224 207.653 180.372 208.413 179.989 208.977C179.754 209.333 179.358 209.517 178.962 209.517Z" fill="white"/>
<path d="M173.522 214.913C173.398 214.913 173.275 214.888 173.151 214.851C165.917 212.558 152.934 213.699 152.798 213.711C152.118 213.772 151.512 213.269 151.45 212.595C151.389 211.92 151.896 211.319 152.576 211.258C153.132 211.209 166.202 210.069 173.905 212.509C174.561 212.717 174.919 213.404 174.709 214.054C174.536 214.569 174.054 214.913 173.534 214.913H173.522Z" fill="white"/>
<path d="M176.242 223.889C175.957 223.889 175.673 223.791 175.438 223.595C172.236 220.873 157.905 219.855 152.649 219.695C151.969 219.671 151.425 219.107 151.45 218.432C151.475 217.758 152.031 217.218 152.724 217.243C154.751 217.304 172.606 217.966 177.045 221.731C177.565 222.173 177.627 222.945 177.182 223.46C176.934 223.742 176.588 223.889 176.242 223.889Z" fill="white"/>
</g>
<path d="M167.809 228.746C167.439 228.746 167.08 228.647 166.758 228.439C165.064 227.384 159.945 226.6 157.188 226.17C156.236 226.023 155.543 225.913 155.21 225.839C152.675 225.214 155.036 211.454 155.828 207.248C157.312 199.289 161.812 147.06 161.85 146.532C161.862 146.312 161.973 146.116 162.146 145.981C162.319 145.846 162.53 145.784 162.752 145.809L179.062 147.906C179.433 147.955 179.729 148.249 179.754 148.629L183.377 189.662C183.377 189.761 183.377 189.871 183.34 189.969L173.683 221.412C173.225 222.54 170.925 227.85 168.477 228.647C168.255 228.721 168.032 228.758 167.809 228.758V228.746ZM155.815 224.331C156.162 224.392 156.768 224.49 157.435 224.588C161.404 225.202 165.794 225.95 167.612 227.078C167.711 227.139 167.809 227.164 167.995 227.115C169.281 226.698 171.222 223.215 172.187 220.873L181.782 189.638L178.233 149.402L163.395 147.489C162.789 154.479 158.833 199.964 157.423 207.53C155.89 215.734 155.346 222.957 155.828 224.331H155.815Z" fill="#333333"/>
<path d="M177.751 192.422C177.751 192.422 173.831 207.702 171.111 212.19C168.391 216.679 167.785 220.272 168.391 222.675C168.997 225.067 164.768 233.16 164.768 240.347C164.768 247.533 162.95 265.204 160.848 273.286C158.734 281.367 157.831 299.039 156.929 303.834C156.026 308.629 155.717 313.718 155.717 313.718L173.226 321.505L179.26 319.114C179.26 319.114 188.014 300.547 191.946 292.76C195.866 284.973 197.98 281.981 198.895 275.689C199.798 269.398 205.844 256.228 205.844 256.228C205.844 256.228 210.073 259.821 214.908 268.81C219.743 277.799 223.366 277.198 229.4 290.675C235.434 304.153 240.268 313.73 243.891 316.735L247.218 320.622L256.875 319.126L262.612 315.533L266.841 306.25C266.841 306.25 263.824 287.977 261.709 281.993C259.595 276.008 255.675 263.12 255.675 255.332C255.675 247.545 250.84 225.079 247.823 219.094C244.806 213.11 237.56 192.14 237.56 192.14L177.776 192.434L177.751 192.422Z" fill="#333333"/>
<path d="M173.226 322.302C173.114 322.302 173.003 322.278 172.892 322.229L155.371 314.441C155.061 314.307 154.876 314 154.901 313.669C154.901 313.62 155.21 308.469 156.125 303.687C156.446 301.97 156.78 298.462 157.163 294.416C157.843 287.229 158.697 278.277 160.057 273.09C162.171 264.996 163.952 247.226 163.952 240.347C163.952 236.189 165.3 231.811 166.388 228.304C167.117 225.937 167.81 223.705 167.599 222.871C166.858 219.941 167.859 216.004 170.406 211.785C173.028 207.444 176.923 192.385 176.96 192.238C177.046 191.882 177.368 191.637 177.739 191.637L237.536 191.343C237.882 191.343 238.179 191.563 238.302 191.882C238.376 192.091 245.561 212.865 248.528 218.739C251.57 224.772 256.466 247.337 256.466 255.332C256.466 264.481 261.845 279.982 262.463 281.723C264.578 287.707 267.508 305.367 267.632 306.115C267.657 306.274 267.632 306.434 267.57 306.568L263.341 315.852C263.28 315.999 263.168 316.109 263.032 316.195L257.295 319.788C257.208 319.85 257.097 319.886 256.986 319.899L247.316 321.395C247.032 321.432 246.76 321.333 246.574 321.125L243.298 317.287C240.021 314.54 235.767 306.9 228.645 290.994C225.195 283.293 222.549 280.264 220.002 277.333C218.073 275.125 216.256 273.041 214.178 269.178C210.704 262.715 207.514 259.06 206.092 257.589C204.67 260.814 200.416 270.711 199.674 275.8C198.92 281.036 197.325 284.09 194.691 289.155C194.073 290.344 193.393 291.644 192.651 293.116C188.781 300.805 180.063 319.261 179.977 319.457C179.89 319.641 179.742 319.788 179.544 319.862L173.51 322.253C173.411 322.29 173.312 322.315 173.213 322.315L173.226 322.302ZM156.545 313.215L173.238 320.634L178.666 318.476C179.791 316.097 187.606 299.566 191.229 292.392C191.971 290.908 192.651 289.608 193.269 288.419C195.915 283.33 197.374 280.533 198.091 275.567C199.006 269.239 204.855 256.424 205.102 255.884C205.201 255.651 205.412 255.492 205.659 255.43C205.906 255.381 206.166 255.43 206.351 255.602C206.524 255.749 210.753 259.392 215.6 268.405C217.591 272.109 219.359 274.12 221.226 276.266C223.86 279.283 226.58 282.397 230.129 290.32C235.298 301.847 240.59 312.945 244.398 316.085C244.435 316.109 244.472 316.146 244.497 316.183L247.527 319.739L256.578 318.341L261.969 314.969L266 306.127C265.641 303.969 262.884 287.732 260.943 282.238C260.324 280.472 254.859 264.726 254.859 255.32C254.859 247.668 250 225.201 247.094 219.438C244.324 213.932 238.154 196.321 236.979 192.924L178.382 193.219C177.615 196.125 174.277 208.523 171.804 212.607C168.663 217.807 168.811 221.032 169.182 222.491C169.504 223.754 168.848 225.864 167.946 228.782C166.895 232.192 165.584 236.435 165.584 240.359C165.584 247.472 163.816 265.155 161.627 273.507C160.304 278.571 159.463 287.45 158.783 294.587C158.388 298.683 158.054 302.215 157.72 304.005C157.003 307.795 156.669 311.805 156.558 313.24L156.545 313.215Z" fill="#333333"/>
<path d="M243.879 229.751C243.508 229.751 243.175 229.494 243.088 229.113C241.604 222.062 236.522 207.493 236.473 207.346C236.324 206.929 236.547 206.475 236.967 206.328C237.388 206.181 237.845 206.402 237.994 206.819C238.204 207.42 243.162 221.621 244.658 228.782C244.745 229.212 244.473 229.641 244.04 229.727C243.991 229.727 243.929 229.739 243.879 229.739V229.751Z" fill="white"/>
<path d="M259.892 290.528C259.546 290.528 259.237 290.307 259.138 289.964C258.89 289.118 258.421 287.671 257.815 285.843C255.502 278.866 251.199 265.879 250.964 258.631C250.668 249.924 245.957 240.175 245.907 240.077C245.722 239.697 245.882 239.218 246.266 239.034C246.649 238.851 247.119 239.01 247.317 239.39C247.515 239.795 252.226 249.532 252.522 258.57C252.757 265.585 257.011 278.449 259.298 285.353C259.904 287.192 260.387 288.652 260.646 289.535C260.77 289.952 260.523 290.381 260.102 290.504C260.028 290.528 259.954 290.528 259.892 290.528Z" fill="#E9E9E9"/>
<path d="M260.485 304.606C260.102 304.606 259.768 304.324 259.706 303.932C259.533 302.718 258.618 300.535 257.938 298.953C257.481 297.874 257.122 297.028 256.998 296.525C256.899 296.108 257.147 295.691 257.567 295.581C257.987 295.482 258.408 295.728 258.519 296.145C258.618 296.537 258.989 297.408 259.385 298.352C260.127 300.106 261.054 302.301 261.252 303.711C261.314 304.14 261.017 304.533 260.584 304.594C260.547 304.594 260.51 304.594 260.473 304.594L260.485 304.606Z" fill="#E9E9E9"/>
<path d="M240.565 228.549C240.565 228.549 240.503 228.549 240.479 228.549C234.84 227.924 225.319 219.131 224.924 218.751C224.602 218.444 224.577 217.942 224.886 217.623C225.196 217.304 225.703 217.292 226.024 217.586C226.123 217.672 235.557 226.391 240.664 226.955C241.109 227.004 241.418 227.397 241.381 227.838C241.332 228.243 240.986 228.549 240.578 228.549H240.565Z" fill="white"/>
<path d="M233.319 216.274C232.874 216.274 232.515 215.918 232.515 215.477C232.515 214.765 231.675 212.619 231.081 211.319C230.896 210.915 231.081 210.449 231.477 210.265C231.885 210.081 232.355 210.265 232.54 210.657C232.8 211.234 234.123 214.177 234.123 215.477C234.123 215.918 233.764 216.274 233.319 216.274Z" fill="white"/>
<path d="M205.832 256.988C205.548 256.988 205.263 256.829 205.127 256.559C205.053 256.412 204.608 255.811 204.187 255.234C203.099 253.763 201.442 251.531 200.02 249.115C197.881 245.473 195.223 236.153 195.112 235.76C195 235.343 195.235 234.914 195.656 234.804C196.076 234.681 196.509 234.926 196.62 235.343C196.645 235.441 199.34 244.872 201.368 248.342C202.753 250.685 204.373 252.88 205.436 254.327C206.092 255.222 206.388 255.627 206.524 255.872C206.722 256.252 206.561 256.73 206.178 256.914C206.067 256.976 205.943 257 205.832 257V256.988Z" fill="#E9E9E9"/>
<path d="M194.963 269.264C194.963 269.264 194.852 269.264 194.803 269.251C194.382 269.165 194.11 268.748 194.197 268.332C194.271 267.976 196.064 259.465 198.228 256.093C200.256 252.941 200.861 251.187 200.861 251.175C200.997 250.77 201.443 250.55 201.851 250.685C202.259 250.82 202.481 251.261 202.345 251.666C202.321 251.739 201.69 253.591 199.551 256.927C197.535 260.066 195.755 268.565 195.73 268.65C195.656 269.018 195.322 269.276 194.963 269.276V269.264Z" fill="#E9E9E9"/>
<path d="M242.37 314.907C242.37 314.907 241.764 315.803 242.976 319.997C244.188 324.191 245.387 327.183 248.108 328.385C250.828 329.587 257.468 328.385 262.303 325.994C267.137 323.602 272.875 319.102 272.875 316.416C272.875 313.73 270.154 305.931 266.84 306.237C266.84 306.237 265.023 312.222 255.366 315.521C245.709 318.819 244.497 318.513 244.497 318.513L242.383 314.92L242.37 314.907Z" fill="#333333"/>
<path d="M251.025 329.648C249.752 329.648 248.627 329.489 247.786 329.108C244.596 327.698 243.322 324.093 242.209 320.218C241.022 316.109 241.467 314.822 241.715 314.466C241.863 314.233 242.147 314.074 242.407 314.11C242.679 314.11 242.939 314.27 243.075 314.503L244.954 317.691C245.684 317.593 248.181 317.115 255.106 314.748C264.206 311.645 266.061 306.041 266.074 305.98C266.172 305.673 266.444 305.453 266.766 305.416C267.706 305.33 268.621 305.698 269.499 306.495C272.046 308.813 273.678 314.294 273.678 316.391C273.678 319.727 267.236 324.424 262.661 326.693C259.26 328.373 254.549 329.636 251.025 329.636V329.648ZM243.322 318.108C243.421 318.587 243.569 319.151 243.755 319.788C244.967 324.007 246.129 326.643 248.441 327.661C250.852 328.716 257.294 327.588 261.944 325.282C267.248 322.658 272.071 318.427 272.071 316.416C272.071 314.564 270.525 309.61 268.411 307.697C268.052 307.366 267.693 307.157 267.36 307.071C266.618 308.751 263.86 313.46 255.613 316.269C249.331 318.415 245.189 319.506 244.286 319.286C244.076 319.236 243.891 319.102 243.792 318.918L243.322 318.121V318.108Z" fill="#333333"/>
<path d="M267.633 305.33C267.633 305.33 265.011 312.222 255.354 315.508C245.697 318.807 244.485 318.501 244.485 318.501L239.552 314.307" fill="#333333"/>
<path d="M244.596 319.31C244.473 319.31 244.361 319.31 244.287 319.286C244.163 319.261 244.052 319.2 243.953 319.114L239.02 314.92C238.686 314.638 238.649 314.135 238.933 313.792C239.217 313.448 239.737 313.424 240.071 313.706L244.794 317.716C245.301 317.654 247.601 317.311 255.094 314.748C264.244 311.621 266.853 305.097 266.89 305.036C267.051 304.631 267.521 304.422 267.929 304.57C268.337 304.729 268.547 305.183 268.399 305.6C268.287 305.894 265.53 312.872 255.626 316.256C249.888 318.219 245.944 319.298 244.609 319.298L244.596 319.31Z" fill="#E9E9E9"/>
<path d="M156.31 307.721C156.31 307.721 151.475 310.113 150.573 314.012C149.67 317.9 150.276 321.799 150.869 322.695C151.475 323.59 153.281 324.792 159.018 327.183C164.755 329.574 170.493 331.671 173.213 331.071C175.933 330.47 178.654 329.268 180.162 325.38C181.671 321.493 181.374 315.496 181.374 315.496C181.374 315.496 179.556 318.488 178.048 318.488C176.539 318.488 169.293 317.287 164.459 313.693C159.624 310.1 156.31 307.709 156.31 307.709V307.721Z" fill="#333333"/>
<path d="M172.175 331.978C168.91 331.978 163.606 329.967 158.721 327.919C152.613 325.368 150.907 324.166 150.214 323.136C149.435 321.971 148.879 317.765 149.794 313.828C150.771 309.622 155.741 307.108 155.952 307.01C156.224 306.875 156.545 306.9 156.78 307.084C156.78 307.084 160.106 309.487 164.941 313.08C169.541 316.502 176.651 317.716 178.048 317.716C178.74 317.716 180.014 316.207 180.682 315.104C180.867 314.797 181.226 314.662 181.572 314.736C181.918 314.822 182.165 315.116 182.178 315.472C182.178 315.729 182.475 321.677 180.917 325.687C179.21 330.077 176.008 331.291 173.399 331.868C173.04 331.953 172.632 331.99 172.175 331.99V331.978ZM156.248 308.665C155.111 309.328 152.007 311.351 151.352 314.196C150.474 317.949 151.092 321.603 151.537 322.265C152.143 323.161 154.616 324.497 159.327 326.46C164.335 328.557 170.431 330.887 173.04 330.31C175.513 329.771 177.998 328.765 179.408 325.111C180.261 322.891 180.509 319.923 180.57 317.887C179.853 318.636 178.963 319.31 178.048 319.31C176.478 319.31 168.972 318.071 163.977 314.356C160.156 311.511 157.275 309.414 156.248 308.678V308.665Z" fill="#333333"/>
<path d="M183.686 314.908C183.686 314.908 179.556 318.501 178.048 318.501C176.539 318.501 169.293 317.299 164.459 313.706C159.624 310.113 154.69 306.213 154.69 306.213" fill="#333333"/>
<path d="M178.048 319.298C176.478 319.298 168.972 318.059 163.977 314.343C159.191 310.787 154.245 306.875 154.196 306.838C153.85 306.568 153.788 306.066 154.072 305.722C154.357 305.379 154.851 305.318 155.198 305.6C155.247 305.636 160.181 309.524 164.941 313.068C169.541 316.489 176.651 317.704 178.048 317.704C178.765 317.704 181.275 315.95 183.155 314.307C183.489 314.012 183.996 314.049 184.292 314.38C184.589 314.711 184.552 315.214 184.218 315.508C183.192 316.404 179.73 319.298 178.048 319.298Z" fill="#E9E9E9"/>
<path d="M198.487 94.6833C198.487 94.6833 199.489 86.4914 199.291 85.1056C199.093 83.7199 217.405 69.9359 217.405 69.9359C217.405 69.9359 215.192 89.7044 216.194 93.4937L214.586 96.2898L207.736 99.282L202.506 98.8773L198.475 94.6833H198.487Z" fill="white"/>
<path d="M207.749 100.079C207.749 100.079 207.712 100.079 207.687 100.079L202.457 99.6744C202.259 99.6622 202.073 99.5763 201.937 99.4292L197.906 95.2351C197.745 95.0634 197.659 94.8304 197.696 94.5852C198.079 91.458 198.636 86.148 198.5 85.216C198.426 84.701 198.228 83.352 216.924 69.2983C217.183 69.102 217.529 69.0775 217.801 69.2369C218.086 69.3964 218.234 69.7029 218.209 70.0218C217.591 75.479 216.182 90.293 216.973 93.2853C217.022 93.4815 216.998 93.7022 216.899 93.8862L215.291 96.6822C215.205 96.8294 215.081 96.952 214.92 97.0133L208.07 100.006C207.971 100.055 207.86 100.079 207.749 100.079ZM202.877 98.1047L207.6 98.4604L214.018 95.6521L215.341 93.3466C214.636 89.6063 215.897 76.5581 216.404 71.6651C208.688 77.5147 200.899 83.8303 200.095 85.1547C200.206 86.798 199.526 92.7089 199.316 94.389L202.865 98.0925L202.877 98.1047Z" fill="#333333"/>
<path d="M175.34 150.395C166.079 150.996 158.833 145.404 159.439 143.209C160.045 141.014 161.652 122.239 165.275 113.262C168.898 104.285 175.748 101.882 181.98 99.4905C188.224 97.0992 196.472 95.8973 196.472 95.8973L198.487 92.7089C198.487 92.7089 200.503 97.2954 205.733 97.0992C210.964 96.9029 214.797 95.2964 215.996 92.9051L218.407 94.3031C218.407 94.3031 242.568 103.084 248.602 120.657C254.637 138.23 224.849 135.434 224.849 135.434L236.522 146.41C236.522 146.41 236.522 175.155 236.93 181.152C237.338 187.136 241.159 191.33 239.143 193.133C237.128 194.936 227.471 202.919 211.557 202.514C195.656 202.11 179.148 197.327 178.74 195.328C178.332 193.329 177.937 188.743 176.923 180.551C175.921 172.359 174.512 173.561 175.105 167.969C175.711 162.377 175.303 150.395 175.303 150.395H175.34Z" fill="#80A99B"/>
<path d="M212.719 203.312C212.336 203.312 211.94 203.312 211.545 203.299C197.412 202.944 178.58 198.553 177.962 195.475C177.714 194.249 177.467 192.078 177.096 188.804C176.849 186.621 176.54 183.911 176.144 180.637C175.711 177.093 175.192 175.327 174.808 174.027C174.302 172.298 173.968 171.157 174.326 167.883C174.833 163.247 174.623 154.013 174.549 151.229C167.117 151.401 161.467 147.955 159.55 145.625C158.759 144.656 158.45 143.749 158.66 142.988C158.808 142.461 159.043 140.658 159.34 138.377C160.267 131.375 161.813 119.664 164.521 112.956C168.168 103.905 175.068 101.269 181.152 98.9386L181.696 98.7302C187.272 96.5841 194.296 95.4068 195.99 95.1493L197.807 92.2674C197.968 92.0221 198.252 91.875 198.549 91.8995C198.846 91.924 199.106 92.108 199.229 92.3778C199.303 92.5372 201.035 96.302 205.412 96.302C205.511 96.302 205.61 96.302 205.708 96.302C210.543 96.1181 214.216 94.6833 215.291 92.5495C215.39 92.3532 215.563 92.2061 215.786 92.1448C215.996 92.0835 216.231 92.108 216.417 92.2183L218.778 93.5796C219.495 93.8494 225.22 96.0322 231.712 100.226C238.018 104.298 246.204 111.116 249.394 120.399C250.804 124.508 250.457 127.929 248.368 130.553C243.768 136.329 231.996 136.55 227.038 136.354L237.116 145.833C237.276 145.981 237.363 146.189 237.363 146.41C237.363 146.692 237.363 175.204 237.758 181.103C237.932 183.703 238.81 186.008 239.514 187.872C240.429 190.3 241.221 192.385 239.712 193.734C237.153 196.027 227.768 203.336 212.744 203.336L212.719 203.312ZM175.34 149.598C175.538 149.598 175.736 149.672 175.884 149.807C176.045 149.954 176.144 150.15 176.144 150.371C176.156 150.861 176.54 162.475 175.934 168.055C175.612 171.022 175.884 171.942 176.366 173.585C176.762 174.934 177.294 176.774 177.751 180.44C178.159 183.727 178.456 186.437 178.716 188.62C179.087 191.858 179.322 193.991 179.557 195.156C180.521 196.702 196.064 201.313 211.607 201.705C226.679 202.085 236.114 194.776 238.624 192.532C239.279 191.943 238.834 190.656 237.993 188.412C237.252 186.462 236.337 184.034 236.151 181.189C235.768 175.523 235.743 150.15 235.743 146.741L224.318 135.998C224.07 135.765 223.996 135.397 224.145 135.091C224.293 134.784 224.602 134.588 224.948 134.625C225.109 134.637 241.864 136.121 247.106 129.548C248.837 127.365 249.097 124.459 247.873 120.902C242.024 103.893 218.395 95.1248 218.16 95.0389C218.111 95.0266 218.073 95.0021 218.036 94.9776L216.293 93.972C214.611 96.253 210.778 97.6878 205.783 97.884C201.801 98.0312 199.538 95.7257 198.487 94.2295L197.177 96.302C197.053 96.4982 196.843 96.6331 196.608 96.6699C196.521 96.6699 188.373 97.884 182.289 100.214L181.745 100.422C175.686 102.74 169.417 105.144 166.029 113.544C163.396 120.068 161.801 132.111 160.947 138.586C160.613 141.112 160.391 142.78 160.218 143.405C160.181 143.528 160.267 143.945 160.811 144.607C162.728 146.937 168.49 150.015 175.303 149.586C175.315 149.586 175.34 149.586 175.353 149.586L175.34 149.598Z" fill="#333333"/>
<path d="M206.339 34.1884C206.339 34.1884 204.126 30.9877 198.08 31.9933C192.046 32.9866 189.016 34.3846 185.999 38.5787C182.982 42.7727 182.376 48.561 181.77 53.356C181.164 58.1509 181.572 61.9403 180.769 62.7374C179.965 63.5345 181.375 64.9325 183.39 65.1287C185.406 65.3249 188.62 65.7296 188.62 65.7296L201.097 47.9601L206.327 34.1884H206.339Z" fill="#333333"/>
<path d="M188.62 66.5268C188.62 66.5268 188.558 66.5268 188.521 66.5268C188.521 66.5268 185.306 66.1343 183.303 65.9259C181.646 65.7664 180.224 64.8957 179.829 63.8166C179.606 63.2157 179.742 62.6148 180.187 62.1733C180.435 61.8544 180.509 60.1744 180.571 58.6905C180.632 57.1821 180.707 55.3058 180.966 53.2579L181.053 52.5957C181.659 47.7639 182.339 42.2822 185.344 38.125C188.682 33.4894 192.206 32.165 197.943 31.2085C204.41 30.1416 206.883 33.5875 206.995 33.7347C207.143 33.9554 207.18 34.2252 207.081 34.4705L201.851 48.2422C201.826 48.3035 201.801 48.3648 201.752 48.4139L189.276 66.1834C189.127 66.4041 188.88 66.5268 188.62 66.5268ZM200.342 32.5942C199.699 32.5942 198.994 32.6433 198.215 32.7782C192.082 33.796 189.387 35.2554 186.654 39.0447C183.897 42.8831 183.229 48.1441 182.648 52.7919L182.561 53.4541C182.314 55.4407 182.24 57.268 182.178 58.7518C182.079 61.1677 182.017 62.6148 181.325 63.3015C181.35 63.4855 182.116 64.209 183.452 64.3439C184.997 64.5033 187.248 64.7731 188.225 64.8835L200.367 47.5922L205.4 34.3479C204.831 33.7715 203.285 32.5942 200.318 32.5942H200.342Z" fill="#333333"/>
<path d="M186.604 52.7551C186.604 52.7551 183.587 62.3327 183.587 67.3361C183.587 72.3396 184.997 74.9271 185.8 79.7098C186.604 84.5047 188.422 85.4981 191.031 86.2952C193.652 87.0923 198.685 87.2885 201.702 85.4981C204.719 83.6954 215.39 82.2974 217.405 69.9237C219.421 57.55 218.815 55.9435 218.815 55.9435L204.521 39.7682C204.521 39.7682 203.111 42.9567 198.882 43.7661C194.654 44.5632 188.211 48.3526 186.604 52.7551Z" fill="white"/>
<path d="M195.544 87.6809C193.714 87.6809 192.008 87.4234 190.808 87.0555C188.175 86.2461 185.912 85.1547 185.022 79.8324C184.737 78.1156 184.366 76.6808 184.008 75.295C183.389 72.8791 182.796 70.5859 182.796 67.3239C182.796 62.2714 185.726 52.9022 185.85 52.5098C185.85 52.5098 185.85 52.4853 185.85 52.473C187.643 47.5922 194.604 43.7538 198.734 42.9812C202.506 42.27 203.767 39.4739 203.779 39.4494C203.891 39.2041 204.125 39.0202 204.397 38.9834C204.67 38.9466 204.942 39.0447 205.127 39.2409L219.421 55.4162C219.483 55.4898 219.532 55.5756 219.569 55.6615C219.903 56.5322 219.705 60.763 218.197 70.0463C216.49 80.5314 208.639 83.5605 204.422 85.1792C203.458 85.5471 202.629 85.866 202.11 86.1725C200.268 87.2762 197.807 87.6687 195.532 87.6687L195.544 87.6809ZM187.371 53.0126C187.223 53.4786 184.391 62.6148 184.391 67.3361C184.391 70.4019 184.923 72.499 185.553 74.9148C185.912 76.3374 186.295 77.7967 186.592 79.5872C187.334 84.0265 188.929 84.8358 191.266 85.5471C193.615 86.2584 198.425 86.5282 201.282 84.8236C201.912 84.4434 202.802 84.1 203.829 83.7076C208.02 82.0889 215.044 79.3909 216.602 69.801C218.234 59.7329 218.123 56.9123 218.048 56.3114L204.62 41.1172C203.792 42.2454 202.085 43.9746 199.019 44.5509C195.186 45.2745 188.892 48.8431 187.346 53.0126H187.371Z" fill="#333333"/>
<path d="M201.702 40.3814C201.702 40.3814 200.898 43.1774 203.309 46.1697C205.72 49.1619 209.554 52.1542 210.357 57.55C211.161 62.9459 211.569 67.1276 212.175 68.9304C212.781 70.7331 215.39 71.3217 216.602 70.9293C217.813 70.5368 219.223 69.5313 219.223 69.5313C219.223 69.5313 218.221 71.9226 219.631 72.3273C221.041 72.732 222.648 73.3206 223.86 72.9282C225.072 72.5358 226.271 70.7331 226.271 70.7331C226.271 70.7331 225.665 72.5358 226.469 72.732C227.273 72.9282 229.684 72.9282 230.092 71.9349C230.5 70.9415 235.322 55.5634 228.076 42.5888C220.83 29.6142 209.962 31.4047 206.339 34.2007L203.322 37.1929L201.714 40.3937L201.702 40.3814Z" fill="#333333"/>
<path d="M222.957 73.8479C221.98 73.8479 220.929 73.5413 219.99 73.2593L219.408 73.0876C218.901 72.9404 218.518 72.6216 218.296 72.1679C218.147 71.849 218.085 71.5056 218.073 71.1623C217.69 71.3585 217.269 71.5547 216.861 71.6896C216.057 71.9594 214.92 71.8858 213.881 71.5056C212.632 71.0519 211.754 70.218 211.408 69.1879C210.963 67.8757 210.654 65.5579 210.221 62.3327C210.036 60.9224 209.813 59.3527 209.566 57.6726C208.972 53.6748 206.549 51.0014 204.41 48.6469C203.791 47.9724 203.21 47.3224 202.679 46.6725C200.032 43.3982 200.886 40.2956 200.923 40.1607C200.935 40.1116 200.96 40.0626 200.972 40.0258L202.58 36.825C202.617 36.7515 202.666 36.6779 202.728 36.6166L205.745 33.6243C207.686 32.1159 211.47 30.767 215.996 31.6867C219.544 32.4103 224.639 34.8139 228.756 42.1841C236.497 56.0416 230.871 72.0575 230.809 72.2169C230.141 73.8847 227.062 73.6885 226.246 73.4923C225.9 73.4064 225.603 73.1857 225.43 72.8669C225.022 73.2225 224.565 73.5291 224.082 73.6885C223.711 73.8111 223.328 73.8602 222.932 73.8602L222.957 73.8479ZM219.223 68.7341C219.396 68.7341 219.581 68.7954 219.717 68.9058C220.002 69.1266 220.101 69.5067 219.965 69.8378C219.767 70.3161 219.581 71.15 219.73 71.4811C219.742 71.5179 219.755 71.5424 219.841 71.567L220.447 71.7386C221.548 72.0697 222.796 72.4376 223.6 72.1679C224.28 71.9471 225.195 70.8925 225.603 70.2916C225.826 69.9605 226.259 69.8501 226.63 70.0218C226.988 70.1935 227.161 70.6104 227.038 70.9906C226.926 71.334 226.852 71.7632 226.864 71.9962C227.742 72.1433 229.201 71.9348 229.362 71.6405C229.424 71.4934 234.667 55.9926 227.396 42.969C223.575 36.126 218.938 33.9064 215.724 33.2564C211.989 32.4961 208.577 33.5017 206.858 34.8261L204.002 37.6589L202.493 40.6635C202.407 41.0681 202.036 43.2755 203.977 45.6791C204.484 46.3046 205.053 46.93 205.646 47.58C207.934 50.1062 210.53 52.9635 211.198 57.4396C211.445 59.132 211.668 60.7017 211.853 62.1242C212.261 65.141 212.583 67.5201 212.979 68.6851C213.238 69.4577 214.03 69.8501 214.487 70.0095C215.266 70.2916 216.02 70.3038 216.391 70.1689C217.467 69.8133 218.778 68.8936 218.79 68.8813C218.926 68.7832 219.099 68.7341 219.26 68.7341H219.223Z" fill="#333333"/>
<path d="M188.768 54.6927C188.558 54.6927 188.36 54.6191 188.2 54.4597C187.89 54.1531 187.89 53.6503 188.2 53.3437C188.286 53.2579 190.289 51.2957 194.085 51.4674C194.53 51.492 194.877 51.8599 194.852 52.3013C194.827 52.7428 194.481 53.0862 194.011 53.0617C190.994 52.9513 189.387 54.4106 189.325 54.4842C189.164 54.6314 188.966 54.7049 188.756 54.7049L188.768 54.6927Z" fill="#333333"/>
<path d="M206.586 59.0461C206.252 59.0461 205.931 58.8377 205.819 58.5066C205.176 56.5935 203.334 55.5143 203.309 55.5021C202.926 55.2813 202.79 54.7908 203.012 54.4106C203.235 54.0305 203.717 53.8956 204.101 54.1163C204.2 54.1776 206.487 55.4898 207.328 58.0038C207.464 58.4207 207.241 58.8745 206.821 59.0094C206.734 59.0339 206.648 59.0461 206.561 59.0461H206.586Z" fill="#333333"/>
<path d="M189.869 61.5724C189.56 62.5289 188.707 63.1175 187.965 62.8845C187.223 62.6515 186.865 61.6827 187.174 60.7262C187.483 59.7697 188.336 59.181 189.078 59.414C189.82 59.647 190.178 60.6158 189.869 61.5724Z" fill="#333333"/>
<path d="M201.678 65.325C201.369 66.2815 200.516 66.8701 199.774 66.6371C199.032 66.4041 198.673 65.4353 198.982 64.4788C199.291 63.5223 200.145 62.9336 200.886 63.1666C201.628 63.3996 201.987 64.3684 201.678 65.325Z" fill="#333333"/>
<path d="M191.724 71.7386C191.118 71.7386 190.364 71.5424 189.758 71.0642C189.202 70.6227 188.88 70.0095 188.831 69.286C188.719 67.7531 189.634 67.3852 190.302 67.1154C190.586 67.005 190.883 66.8824 191.192 66.6739C191.773 66.2937 192.998 63.4119 193.764 60.9592C193.9 60.5423 194.345 60.3093 194.766 60.4319C195.186 60.5668 195.421 61.0083 195.297 61.4252C194.877 62.7374 193.418 67.1031 192.083 67.9861C191.637 68.2804 191.229 68.4521 190.908 68.5747C190.735 68.6483 190.5 68.7464 190.45 68.7955C190.45 68.7955 190.413 68.8813 190.426 69.1634C190.45 69.4454 190.549 69.6416 190.759 69.8133C191.093 70.0831 191.588 70.1689 191.823 70.1322C192.256 70.0708 192.664 70.3774 192.738 70.8066C192.8 71.2358 192.491 71.6405 192.058 71.7141C191.959 71.7264 191.848 71.7386 191.724 71.7386Z" fill="#333333"/>
<path d="M188.162 67.0663C186.208 67.0663 184.02 65.7909 182.746 64.1109C180.892 61.6705 182.412 55.9435 182.425 55.8945C182.462 55.5879 182.548 54.9257 183.191 54.5823C183.958 54.1776 184.972 54.5823 185.664 54.9257C187.89 56.0294 193.294 59.7574 193.603 59.9659L194.196 60.3583C194.555 60.5913 194.666 61.0696 194.431 61.4375C194.332 61.5846 192.107 65.2023 190.165 66.4777C189.572 66.8701 188.879 67.0541 188.15 67.0541L188.162 67.0663ZM184.02 56.0294C184.02 56.0294 184.02 56.0784 184.02 56.0907C184.007 56.2256 183.983 56.3359 183.958 56.4095C183.698 57.2434 182.907 61.6827 184.045 63.1666C185.331 64.8589 187.902 66.0975 189.3 65.1778C190.425 64.4297 191.872 62.4799 192.675 61.2781C192.181 60.9347 187 57.3906 184.96 56.3727C184.477 56.1275 184.193 56.0539 184.045 56.0294H184.02Z" fill="#333333"/>
<path d="M195.965 62.5412C195.705 62.5412 195.458 62.4186 195.297 62.1978C194.704 61.3517 193.887 61.646 193.727 61.7196C193.319 61.8912 192.849 61.7196 192.663 61.3271C192.478 60.9347 192.651 60.4687 193.047 60.2725C193.789 59.9169 195.495 59.6838 196.62 61.2903C196.867 61.646 196.781 62.1488 196.422 62.394C196.286 62.4921 196.126 62.5412 195.965 62.5412Z" fill="#333333"/>
<path d="M212.076 73.7008C211.78 75.246 209.096 76.0308 206.104 75.4667C203.099 74.8903 200.911 73.1857 201.208 71.6406C201.504 70.0954 204.188 69.3105 207.18 69.8746C210.185 70.451 212.373 72.1556 212.076 73.7008Z" fill="#D8D0CA"/>
<path d="M184.341 66.5881C184.341 66.5881 184.292 69.7275 184.799 71.9349C184.799 71.9349 188.014 71.5302 187.21 69.2369C186.406 66.9437 184.341 66.5881 184.341 66.5881Z" fill="#D8D0CA"/>
<path d="M194.333 77.4288C193.64 77.4288 193.17 77.2939 193.121 77.2817C192.7 77.159 192.453 76.7175 192.577 76.2883C192.7 75.8714 193.146 75.6261 193.566 75.7487C193.628 75.761 194.976 76.1166 196.336 75.2459C196.707 75.0007 197.201 75.1111 197.449 75.4789C197.696 75.8468 197.585 76.3374 197.214 76.5826C196.163 77.2571 195.112 77.4165 194.333 77.4165V77.4288Z" fill="#333333"/>
<path d="M174.932 151.99C174.932 151.99 174.87 151.99 174.845 151.99C174.4 151.941 174.079 151.548 174.128 151.119C174.128 151.082 174.524 147.342 174.524 145.012C174.524 142.682 174.128 133.95 174.128 133.865C174.103 133.423 174.45 133.055 174.895 133.031C175.29 133.018 175.711 133.349 175.736 133.791C175.748 134.147 176.144 142.621 176.144 145.012C176.144 147.403 175.748 151.131 175.736 151.291C175.686 151.695 175.34 152.002 174.932 152.002V151.99Z" fill="#333333"/>
<path d="M194.259 195.917L182.475 201.595C181.115 202.245 180.385 203.728 180.682 205.188L182.351 213.257C182.771 215.317 185.022 216.445 186.938 215.575L201.294 209.088L201.9 194.31L194.246 195.904L194.259 195.917Z" fill="#9A2D2F"/>
<path d="M185.579 216.666C184.948 216.666 184.305 216.519 183.724 216.225C182.599 215.661 181.82 214.643 181.572 213.416L179.903 205.347C179.52 203.532 180.435 201.681 182.129 200.871L193.913 195.193C193.913 195.193 194.036 195.144 194.098 195.132L201.752 193.538C201.987 193.489 202.247 193.55 202.432 193.709C202.617 193.869 202.729 194.102 202.716 194.347L202.111 209.124C202.111 209.431 201.913 209.688 201.641 209.811L187.285 216.298C186.741 216.544 186.16 216.666 185.591 216.666H185.579ZM194.518 196.677L182.821 202.318C181.795 202.809 181.238 203.925 181.473 205.041L183.143 213.11C183.291 213.846 183.773 214.471 184.453 214.814C185.133 215.158 185.912 215.17 186.617 214.864L200.528 208.585L201.072 195.328L194.531 196.689L194.518 196.677Z" fill="#333333"/>
<path d="M205.127 186.732C205.127 186.732 202.505 188.326 198.079 189.331C193.652 190.325 192.242 193.121 192.045 194.519C191.847 195.917 191.847 197.119 191.847 197.119C191.847 197.119 193.058 196.321 194.258 195.917C195.47 195.512 198.289 195.316 198.289 195.316C198.289 195.316 198.091 199.51 198.289 203.508C198.487 207.506 198.289 210.694 197.683 211.099C197.077 211.503 196.273 211.896 196.273 211.896C196.273 211.896 196.879 213.699 197.881 213.895C198.882 214.091 200.898 212.901 200.898 212.901C200.898 212.901 201.504 213.895 202.913 213.502C204.323 213.11 204.521 212.509 204.521 212.509C204.521 212.509 205.733 213.11 206.932 211.516C208.144 209.921 209.343 205.531 211.964 201.533C214.586 197.535 216.799 193.145 216.799 193.145L205.127 186.756V186.732Z" fill="white"/>
<path d="M198.116 214.704C197.98 214.704 197.856 214.704 197.733 214.667C196.336 214.385 195.643 212.509 195.519 212.141C195.396 211.761 195.569 211.356 195.927 211.172C195.927 211.172 196.632 210.817 197.176 210.473C197.424 210.007 197.708 207.788 197.498 203.545C197.349 200.663 197.411 197.658 197.461 196.187C196.496 196.285 195.186 196.456 194.53 196.665C193.442 197.02 192.317 197.769 192.305 197.769C192.057 197.928 191.736 197.952 191.476 197.805C191.216 197.67 191.056 197.401 191.056 197.106C191.056 197.057 191.056 195.831 191.266 194.396C191.563 192.324 193.492 189.54 197.918 188.547C202.172 187.59 204.694 186.069 204.719 186.045C204.966 185.898 205.275 185.885 205.535 186.02L217.208 192.409C217.579 192.618 217.727 193.084 217.541 193.464C217.517 193.513 215.279 197.94 212.67 201.926C211.223 204.133 210.197 206.5 209.381 208.401C208.713 209.958 208.181 211.185 207.6 211.945C206.598 213.269 205.523 213.429 204.855 213.355C204.546 213.649 204.014 213.981 203.149 214.226C202.085 214.532 201.281 214.226 200.775 213.846C200.107 214.189 199.019 214.667 198.128 214.667L198.116 214.704ZM197.3 212.239C197.535 212.681 197.819 213.049 198.042 213.098C198.475 213.183 199.649 212.693 200.49 212.202C200.873 211.982 201.368 212.104 201.591 212.472C201.652 212.57 201.974 212.914 202.691 212.717C203.594 212.46 203.792 212.153 203.792 212.153C203.866 211.933 204.014 211.798 204.224 211.712C204.435 211.626 204.669 211.675 204.88 211.773C204.929 211.785 205.535 212.006 206.289 211.013C206.759 210.4 207.278 209.198 207.872 207.8C208.713 205.838 209.764 203.397 211.285 201.08C213.251 198.087 214.994 194.838 215.724 193.452L205.127 187.651C204.2 188.142 201.801 189.307 198.252 190.116C194.357 190.999 193.009 193.378 192.824 194.641C192.774 195.022 192.725 195.377 192.7 195.708C193.096 195.512 193.541 195.316 193.986 195.169C195.272 194.739 198.091 194.543 198.215 194.531C198.425 194.506 198.672 194.592 198.833 194.752C198.994 194.911 199.081 195.132 199.081 195.365C199.081 195.402 198.883 199.571 199.081 203.471C199.451 210.878 198.45 211.54 198.116 211.761C197.856 211.933 197.547 212.117 197.288 212.251L197.3 212.239Z" fill="#333333"/>
<path d="M229.684 152.983C229.684 152.983 235.521 155.779 202.704 187.725C202.704 187.725 211.162 189.92 214.983 197.106C214.983 197.106 215.391 196.702 219.013 193.513C222.636 190.325 245.388 178.932 248.405 167.956C251.422 156.981 249.407 146.79 249.407 146.79L229.672 152.983H229.684Z" fill="#A1958E"/>
<path d="M214.995 197.903C214.995 197.903 214.908 197.903 214.871 197.903C214.624 197.867 214.401 197.707 214.277 197.486C210.654 190.693 202.58 188.522 202.506 188.497C202.222 188.424 202.011 188.203 201.937 187.933C201.863 187.651 201.937 187.357 202.147 187.161C231.057 159.004 229.375 153.964 229.214 153.633C228.992 153.474 228.856 153.204 228.88 152.934C228.905 152.603 229.128 152.333 229.437 152.235L249.159 146.042C249.382 145.968 249.616 146.005 249.814 146.116C250.012 146.226 250.148 146.422 250.198 146.643C250.284 147.072 252.213 157.14 249.171 168.165C246.797 176.798 233.06 185.407 224.862 190.558C222.352 192.127 220.373 193.378 219.545 194.102C216.058 197.18 215.576 197.646 215.551 197.67C215.403 197.818 215.192 197.903 214.982 197.903H214.995ZM204.225 187.369C206.685 188.264 212.027 190.693 215.192 195.843C215.774 195.328 216.763 194.433 218.482 192.925C219.409 192.115 221.338 190.901 224.009 189.221C232.021 184.193 245.425 175.78 247.626 167.748C250.049 158.918 249.159 150.518 248.763 147.832L230.834 153.461C230.834 153.461 230.834 153.51 230.846 153.547C231.564 157.864 222.117 169.857 204.212 187.382L204.225 187.369Z" fill="#333333"/>
<mask id="mask1_186_1344" style="mask-type:luminance" maskUnits="userSpaceOnUse" x="202" y="146" width="49" height="52">
<path d="M229.683 152.983C229.683 152.983 235.52 155.779 202.703 187.725C202.703 187.725 211.161 189.92 214.982 197.106C214.982 197.106 215.39 196.702 219.013 193.513C222.635 190.325 245.387 178.932 248.404 167.956C251.421 156.981 249.406 146.79 249.406 146.79L229.671 152.983H229.683Z" fill="white"/>
</mask>
<g mask="url(#mask1_186_1344)">
<path d="M220.83 195.941C220.273 195.941 219.779 195.573 219.63 195.022C216.49 182.734 206.437 182.746 206.363 182.77H206.338C205.67 182.77 205.114 182.231 205.102 181.569C205.102 180.894 205.633 180.33 206.313 180.318C206.449 180.318 209.442 180.281 212.867 182.022C216.007 183.617 220.15 187.063 222.029 194.421C222.202 195.083 221.794 195.745 221.139 195.917C221.04 195.941 220.929 195.954 220.83 195.954V195.941Z" fill="white"/>
<path d="M226.06 191.244C225.566 191.244 225.084 190.938 224.898 190.447C221.226 180.784 211.136 177.436 211.025 177.399C210.369 177.191 210.023 176.504 210.233 175.854C210.443 175.216 211.136 174.861 211.791 175.069C212.249 175.216 223.118 178.822 227.21 189.577C227.458 190.214 227.124 190.913 226.493 191.159C226.345 191.208 226.196 191.232 226.06 191.232V191.244Z" fill="white"/>
<path d="M232.404 187.357C231.872 187.357 231.378 187.014 231.217 186.486C228.41 177.289 215.637 172.506 215.513 172.457C214.87 172.224 214.549 171.513 214.784 170.875C215.019 170.237 215.736 169.919 216.379 170.152C216.948 170.36 230.425 175.425 233.591 185.775C233.789 186.425 233.418 187.112 232.762 187.308C232.639 187.345 232.528 187.357 232.404 187.357Z" fill="white"/>
<path d="M239.649 181.961C239.118 181.961 238.635 181.618 238.475 181.09C235.47 171.451 220.842 166.362 220.694 166.313C220.051 166.105 219.692 165.406 219.915 164.756C220.125 164.118 220.83 163.762 221.473 163.983C221.634 164.032 237.411 169.367 240.836 180.355C241.034 181.005 240.676 181.691 240.02 181.888C239.897 181.924 239.773 181.937 239.662 181.937L239.649 181.961Z" fill="white"/>
<path d="M244.187 176.578C243.569 176.578 243.038 176.124 242.963 175.498C242.518 171.721 240.095 170.262 237.956 168.962C237.572 168.729 237.201 168.508 236.867 168.288C235.841 167.601 234.802 166.755 235.594 165.234C235.705 165.013 235.779 164.891 235.52 164.314C235.445 164.155 234.592 162.695 226.555 161.064C226.32 161.015 226.159 160.979 226.098 160.966C225.43 160.807 225.034 160.145 225.195 159.483C225.356 158.82 226.036 158.428 226.691 158.587C226.753 158.6 226.877 158.624 227.05 158.661C233.64 159.998 236.954 161.432 237.795 163.333C238.376 164.658 238.178 165.516 237.956 166.043C238.03 166.105 238.129 166.166 238.252 166.252C238.561 166.46 238.895 166.657 239.254 166.877C241.616 168.3 244.855 170.262 245.436 175.216C245.511 175.891 245.028 176.504 244.348 176.578C244.299 176.578 244.249 176.578 244.2 176.578H244.187Z" fill="white"/>
<path d="M251.284 163.995C251.198 163.995 251.111 163.995 251.025 163.971C246.932 163.125 244.669 161.555 242.555 159.446C241.417 158.317 234.344 156.76 228.162 155.902C227.482 155.804 227.012 155.19 227.111 154.516C227.21 153.841 227.828 153.375 228.508 153.473C230.746 153.78 242.023 155.448 244.31 157.717C246.165 159.556 248.032 160.856 251.544 161.58C252.212 161.714 252.644 162.364 252.496 163.027C252.372 163.603 251.865 164.008 251.284 164.008V163.995Z" fill="white"/>
</g>
<path d="M214.995 197.903C214.995 197.903 214.908 197.903 214.871 197.903C214.624 197.867 214.401 197.707 214.277 197.486C210.654 190.693 202.58 188.522 202.506 188.497C202.222 188.424 202.011 188.203 201.937 187.933C201.863 187.651 201.937 187.357 202.147 187.161C231.057 159.004 229.375 153.964 229.214 153.633C228.992 153.474 228.856 153.204 228.88 152.934C228.905 152.603 229.128 152.333 229.437 152.235L249.159 146.042C249.382 145.968 249.616 146.005 249.814 146.116C250.012 146.226 250.148 146.422 250.198 146.643C250.284 147.072 252.213 157.14 249.171 168.165C246.797 176.798 233.06 185.407 224.862 190.558C222.352 192.127 220.373 193.378 219.545 194.102C216.058 197.18 215.576 197.646 215.551 197.67C215.403 197.818 215.192 197.903 214.982 197.903H214.995ZM204.225 187.369C206.685 188.264 212.027 190.693 215.192 195.843C215.774 195.328 216.763 194.433 218.482 192.925C219.409 192.115 221.338 190.901 224.009 189.221C232.021 184.193 245.425 175.78 247.626 167.748C250.049 158.918 249.159 150.518 248.763 147.832L230.834 153.461C230.834 153.461 230.834 153.51 230.846 153.547C231.564 157.864 222.117 169.857 204.212 187.382L204.225 187.369Z" fill="#333333"/>
<path d="M223.798 131.62L227.124 154.528C227.124 154.528 239.353 157.827 246.154 154.234C252.942 150.641 255.056 148.544 255.514 147.342C255.971 146.14 251.743 124.127 247.959 119.185" fill="#80A99B"/>
<path d="M237.672 156.711C232.256 156.711 227.236 155.387 226.914 155.301C226.605 155.215 226.37 154.957 226.333 154.639L223.007 131.731C222.945 131.301 223.254 130.897 223.687 130.823C224.12 130.762 224.528 131.068 224.602 131.498L227.842 153.878C230.191 154.43 240.095 156.515 245.771 153.523C252.881 149.758 254.451 147.857 254.76 147.06C255.007 145.306 250.878 124.324 247.316 119.664C247.044 119.308 247.119 118.817 247.477 118.548C247.823 118.29 248.33 118.351 248.602 118.707C252.312 123.563 256.912 145.895 256.269 147.624C255.576 149.439 252.398 151.83 246.537 154.933C243.99 156.282 240.775 156.711 237.684 156.711H237.672Z" fill="#333333"/>
<path d="M193.9 144.546C193.479 144.546 193.133 144.227 193.096 143.81C193.096 143.761 193.071 143.479 193.083 143.037C193.046 141.787 192.935 138.966 192.502 135.005C192.119 131.522 187.828 125.636 184.057 120.448C182.103 117.763 180.249 115.237 179.024 113.152C177.046 109.804 177.405 107.278 177.899 103.795C178.369 100.447 178.963 96.2775 177.862 89.361C175.575 74.9884 181.943 65.3863 182.215 64.9816C182.462 64.6137 182.969 64.5156 183.327 64.7608C183.698 65.0061 183.797 65.4966 183.55 65.8645C183.488 65.9626 177.269 75.3809 179.445 89.1035C180.582 96.253 179.952 100.729 179.482 104.003C179.012 107.29 178.703 109.461 180.397 112.33C181.584 114.341 183.414 116.843 185.343 119.492C189.436 125.096 193.665 130.897 194.097 134.809C194.184 135.655 194.27 136.44 194.332 137.176C195.272 134.821 196.892 132.111 199.699 129.511C200.972 128.334 202.159 127.304 203.26 126.347C208.057 122.178 210.951 119.664 211.074 113.164C211.124 110.527 210.79 108.112 210.456 105.782C209.739 100.68 209.071 95.8728 212.373 89.7412C216.935 81.2672 218.815 72.2292 218.84 72.1433C218.926 71.7141 219.359 71.4321 219.792 71.5179C220.225 71.6038 220.509 72.0207 220.422 72.4622C220.41 72.5603 218.481 81.8068 213.795 90.5015C210.741 96.1671 211.346 100.521 212.051 105.573C212.385 107.964 212.731 110.454 212.682 113.201C212.558 120.412 209.282 123.257 204.323 127.561C203.235 128.505 202.06 129.523 200.799 130.688C195.346 135.741 194.74 141.272 194.703 143.074C194.703 143.479 194.703 143.7 194.703 143.736C194.703 144.166 194.357 144.509 193.937 144.534C193.937 144.534 193.912 144.534 193.9 144.534V144.546Z" fill="#333333"/>
<path d="M179.594 210.804C178.221 210.804 176.515 210.535 175.328 209.394C174.067 208.18 173.708 206.292 174.24 203.79C175.019 200.16 176.874 198.884 179.013 197.425C181.708 195.586 185.071 193.28 187.841 184.696C190.97 175.02 190.66 171.169 190.364 167.454C190.191 165.259 190.017 163.186 190.537 160.108C191.328 155.338 192.28 153.915 192.911 152.983C193.344 152.345 193.504 152.112 193.393 150.874C193.096 147.44 193.084 143.798 193.084 143.761C193.084 143.319 193.443 142.964 193.888 142.964C194.333 142.964 194.691 143.319 194.691 143.761C194.691 143.798 194.691 147.366 194.988 150.727C195.137 152.443 194.803 153.032 194.234 153.866C193.677 154.688 192.837 155.926 192.107 160.353C191.625 163.247 191.786 165.222 191.959 167.319C192.256 171.01 192.589 175.204 189.362 185.174C186.419 194.273 182.809 196.751 179.915 198.725C177.9 200.099 176.441 201.104 175.798 204.109C175.39 206.034 175.6 207.432 176.441 208.241C177.764 209.529 180.521 209.235 181.473 209.014C181.894 208.916 182.339 209.173 182.438 209.603C182.537 210.032 182.277 210.461 181.844 210.559C181.758 210.584 180.806 210.792 179.581 210.792L179.594 210.804Z" fill="#333333"/>
<path d="M202.358 70.7576C199.947 70.7576 197.09 70.1567 196.287 69.2615C195.285 68.1578 195.174 63.6326 195.174 61.7441C195.174 61.413 195.372 61.1309 195.681 61.0083C200.54 59.0584 210.061 60.113 210.469 60.1621C210.902 60.2112 211.224 60.6036 211.174 61.0328C210.84 64.2213 207.452 69.4577 205.14 70.3774C204.46 70.6472 203.458 70.7699 202.37 70.7699L202.358 70.7576ZM196.781 62.2959C196.818 64.8712 197.09 67.7163 197.474 68.1946C198.03 68.8077 202.618 69.6416 204.534 68.8813C206.006 68.2927 208.726 64.3929 209.418 61.646C207.094 61.4497 200.565 61.0328 196.781 62.2837V62.2959Z" fill="#333333"/>
<path d="M275.055 36.5232C276.911 36.5232 278.254 38.2084 278.254 40.868C278.254 43.5539 276.911 45.2392 275.055 45.2392C273.198 45.2392 271.855 43.5539 271.855 40.868C271.855 38.2084 273.198 36.5232 275.055 36.5232ZM275.055 38.1163C274.146 38.1163 273.54 39.0774 273.54 40.868C273.54 42.6849 274.146 43.6592 275.055 43.6592C275.963 43.6592 276.582 42.6849 276.582 40.868C276.582 39.0774 275.963 38.1163 275.055 38.1163ZM279.584 35.6805H281.348V47.8724H279.584V35.6805ZM280.953 40.2755H283.112V41.7238H280.953V40.2755ZM292.341 35.6805H294.092V47.8724H292.341V35.6805ZM284.546 36.8392H286.284V44.4097H284.546V36.8392ZM284.546 43.3827H285.626C287.403 43.3827 289.378 43.2511 291.393 42.8561L291.59 44.3044C289.497 44.7388 287.482 44.8705 285.626 44.8705H284.546V43.3827ZM310.214 35.6805H311.965V47.9119H310.214V35.6805ZM306.935 39.4461H310.714V40.8548H306.935V39.4461ZM302.354 36.984H304.092V44.5545H302.354V36.984ZM302.354 43.5934H303.381C305.119 43.5934 306.922 43.4749 308.818 43.0931L309.003 44.5413C307.041 44.9363 305.171 45.0417 303.381 45.0417H302.354V43.5934ZM317.178 36.5232C318.995 36.5232 320.324 38.2084 320.324 40.868C320.324 43.5539 318.995 45.2392 317.178 45.2392C315.348 45.2392 314.031 43.5539 314.031 40.868C314.031 38.2084 315.348 36.5232 317.178 36.5232ZM317.178 38.1163C316.296 38.1163 315.703 39.0774 315.703 40.868C315.703 42.6849 316.296 43.6592 317.178 43.6592C318.073 43.6592 318.652 42.6849 318.652 40.868C318.652 39.0774 318.073 38.1163 317.178 38.1163ZM322.326 35.6674H324.064V47.8987H322.326V35.6674ZM319.811 40.0649H323.063V41.4736H319.811V40.0649ZM334.753 35.6805H336.412V47.8724H334.753V35.6805ZM330.738 39.841H332.752V41.263H330.738V39.841ZM332.291 35.878H333.924V47.3194H332.291V35.878ZM328.105 37.6686H329.421V38.9194C329.421 41.658 328.671 44.3834 326.735 45.5946L325.695 44.3044C327.486 43.1852 328.105 40.9997 328.105 38.9194V37.6686ZM328.5 37.6686H329.803V38.9194C329.803 40.947 330.409 43.0009 332.173 44.0279L331.146 45.305C329.211 44.1595 328.5 41.6053 328.5 38.9194V37.6686ZM326.156 36.905H331.594V38.3138H326.156V36.905ZM272.922 54.7997H280.65V56.1821H272.922V54.7997ZM271.803 62.8573H282.823V64.2793H271.803V62.8573ZM279.729 54.7997H281.466V56.2479C281.466 57.9595 281.466 59.6185 281.032 62.12L279.281 61.9752C279.729 59.6316 279.729 57.8937 279.729 56.2479V54.7997ZM292.354 53.6805H294.105V65.8724H292.354V53.6805ZM289.997 58.3545H293.196V59.7765H289.997V58.3545ZM288.351 54.9445H290.076C290.076 58.6442 288.904 61.6592 284.678 63.779L283.756 62.4097C287.206 60.6981 288.351 58.4862 288.351 55.2605V54.9445ZM284.336 54.9445H289.273V56.3269H284.336V54.9445ZM309.648 53.6937H311.399V61.0799H309.648V53.6937ZM310.78 56.7878H312.926V58.2229H310.78V56.7878ZM301.827 60.9087L301.656 59.579C303.776 59.5658 306.633 59.5526 309.016 59.2367L309.134 60.4216C306.672 60.8561 303.907 60.8956 301.827 60.9087ZM304.539 57.9595H306.29V59.8423H304.539V57.9595ZM302.446 54.1809H304.171V55.0762H306.646V54.1809H308.384V58.5783H302.446V54.1809ZM304.171 56.3796V57.2091H306.646V56.3796H304.171ZM304.184 61.5276H305.5V61.725C305.5 63.5156 304.671 65.0956 302.749 65.7144L301.919 64.4373C303.512 63.9633 304.184 62.8573 304.184 61.725V61.5276ZM304.631 61.5276H305.882V61.725C305.882 62.831 306.475 63.9896 307.949 64.5558L307.251 65.8329C305.342 65.1614 304.631 63.4235 304.631 61.725V61.5276ZM308.621 61.5276H309.872V61.725C309.872 63.384 309.161 65.1482 307.251 65.8329L306.554 64.5558C308.015 63.9633 308.621 62.7783 308.621 61.725V61.5276ZM309.042 61.5276H310.359V61.725C310.359 62.8573 311.03 63.9633 312.61 64.4373L311.781 65.7144C309.872 65.0956 309.042 63.5156 309.042 61.725V61.5276ZM317.178 54.5232C318.995 54.5232 320.324 56.2084 320.324 58.868C320.324 61.5539 318.995 63.2392 317.178 63.2392C315.348 63.2392 314.031 61.5539 314.031 58.868C314.031 56.2084 315.348 54.5232 317.178 54.5232ZM317.178 56.1163C316.296 56.1163 315.703 57.0774 315.703 58.868C315.703 60.6849 316.296 61.6592 317.178 61.6592C318.073 61.6592 318.652 60.6849 318.652 58.868C318.652 57.0774 318.073 56.1163 317.178 56.1163ZM322.326 53.6674H324.064V65.8987H322.326V53.6674ZM319.811 58.0649H323.063V59.4736H319.811V58.0649ZM330.999 60.5412C330.969 60.5626 330.615 60.8112 329.938 61.2869C329.505 61.5869 329.175 61.8634 328.948 62.1162C328.742 62.3434 328.515 62.457 328.267 62.457C328.022 62.457 327.808 62.3691 327.624 62.1934C327.439 62.0134 327.347 61.8076 327.347 61.5762C327.347 61.2333 327.624 60.8498 328.177 60.4255C328.687 60.0654 329.197 59.7033 329.707 59.339C330.26 58.919 330.536 58.5397 330.536 58.2011C330.536 57.8025 330.332 57.4297 329.925 57.0825C329.522 56.7311 329.102 56.5553 328.665 56.5553C328.434 56.5553 328.117 56.6882 327.714 56.9539C327.311 57.2154 327.026 57.3461 326.859 57.3461C326.606 57.3461 326.392 57.2539 326.216 57.0696C326.044 56.8811 325.959 56.6732 325.959 56.4461C325.959 56.0175 326.334 55.6253 327.084 55.2696C327.718 54.9653 328.245 54.8131 328.665 54.8131C329.595 54.8131 330.435 55.156 331.185 55.8417C331.94 56.5275 332.317 57.3139 332.317 58.2011C332.317 59.0797 331.877 59.8597 330.999 60.5412ZM327.913 65.1635C327.669 65.1635 327.446 65.0863 327.244 64.932C327.026 64.7606 326.917 64.5484 326.917 64.2956C326.917 64.0041 327.002 63.7341 327.174 63.4856C327.379 63.1813 327.656 63.0291 328.003 63.0291C328.294 63.0291 328.522 63.1384 328.684 63.357C328.813 63.537 328.877 63.7491 328.877 63.9934C328.877 64.2549 328.807 64.4992 328.665 64.7263C328.485 65.0177 328.234 65.1635 327.913 65.1635Z" fill="black"/>
<path d="M66.3962 241.561H74.0326V248.407H72.2683V242.956H66.3962V241.561ZM72.7423 244.497V245.84L66.2777 246.287L66.0671 244.786L72.7423 244.497ZM78.508 241.561H86.1444V248.407H84.3801V242.956H78.508V241.561ZM84.8541 244.497V245.84L78.3895 246.287L78.1789 244.786L84.8541 244.497ZM97.2951 242.285V243.614L89.843 243.983L89.6324 242.508L97.2951 242.285ZM90.0405 239.651H97.6769V241.034H90.0405V239.651ZM88.7634 245.418H99.7835V246.827H88.7634V245.418ZM93.3847 246.537H95.1358V251.159H93.3847V246.537ZM96.8869 239.651H98.5722V240.744C98.5722 242.087 98.5722 243.588 98.0982 245.774L96.3998 245.576C96.8869 243.522 96.8869 242.048 96.8869 240.744V239.651ZM109.407 242.285V243.614L101.955 243.983L101.744 242.508L109.407 242.285ZM102.152 239.651H109.789V241.034H102.152V239.651ZM100.875 245.418H111.895V246.827H100.875V245.418ZM105.497 246.537H107.248V251.159H105.497V246.537ZM108.999 239.651H110.684V240.744C110.684 242.087 110.684 243.588 110.21 245.774L108.512 245.576C108.999 243.522 108.999 242.048 108.999 240.744V239.651ZM65.7906 257.362H74.2959V260.996H67.5944V262.852H65.8169V259.692H72.5185V258.757H65.7906V257.362ZM65.8169 261.996H74.5987V263.379H65.8169V261.996ZM64.5266 264.274H75.573V265.683H64.5266V264.274ZM69.148 264.787H70.899V269.198H69.148V264.787ZM85.3149 256.98H87.0397V264.458H85.3149V256.98ZM82.6817 264.643C85.4334 264.643 87.1055 265.446 87.1055 266.907C87.1055 268.355 85.4334 269.172 82.6817 269.172C79.93 269.172 78.2447 268.355 78.2447 266.907C78.2447 265.446 79.93 264.643 82.6817 264.643ZM82.6817 265.972C80.9569 265.972 80.0748 266.275 80.0748 266.907C80.0748 267.552 80.9569 267.842 82.6817 267.842C84.4065 267.842 85.2754 267.552 85.2754 266.907C85.2754 266.275 84.4065 265.972 82.6817 265.972ZM76.9676 257.744H78.4027V259.363H79.14V257.744H80.5488V263.642H76.9676V257.744ZM78.4027 260.706V262.273H79.14V260.706H78.4027ZM81.1018 257.744H82.5237V259.363H83.2215V257.744H84.6303V263.642H81.1018V257.744ZM82.5237 260.706V262.273H83.2215V260.706H82.5237ZM89.5929 257.335H91.2518V258.323H92.2919V257.335H93.9245V262.009H89.5929V257.335ZM91.2518 259.64V260.601H92.2919V259.64H91.2518ZM94.6092 257.335H96.2549V258.323H97.2687V257.335H98.9277V262.009H94.6092V257.335ZM96.2549 259.64V260.601H97.2687V259.64H96.2549ZM88.7503 262.905H99.7703V264.287H88.7503V262.905ZM93.3716 261.628H95.1227V263.379H93.3716V261.628ZM94.2405 264.88C96.8869 264.88 98.4669 265.656 98.4669 267.026C98.4669 268.408 96.8869 269.172 94.2405 269.172C91.5941 269.172 90.0142 268.408 90.0142 267.026C90.0142 265.656 91.5941 264.88 94.2405 264.88ZM94.2405 266.183C92.5684 266.183 91.7653 266.446 91.7653 267.026C91.7653 267.605 92.5684 267.868 94.2405 267.868C95.8995 267.868 96.7026 267.605 96.7026 267.026C96.7026 266.446 95.8995 266.183 94.2405 266.183ZM102.732 259.561H110.368V266.407H108.604V260.956H102.732V259.561ZM109.078 262.497V263.84L102.613 264.287L102.402 262.786L109.078 262.497ZM114.843 259.561H122.48V266.407H120.716V260.956H114.843V259.561ZM121.19 262.497V263.84L114.725 264.287L114.514 262.786L121.19 262.497Z" fill="black"/>
<defs>
<filter id="filter0_d_186_1344" x="243.389" y="8.31451" width="130.983" height="104.142" filterUnits="userSpaceOnUse" color-interpolation-filters="sRGB">
<feFlood flood-opacity="0" result="BackgroundImageFix"/>
<feColorMatrix in="SourceAlpha" type="matrix" values="0 0 0 0 0 0 0 0 0 0 0 0 0 0 0 0 0 0 127 0" result="hardAlpha"/>
<feOffset dy="2.92581"/>
<feGaussianBlur stdDeviation="1.4629"/>
<feComposite in2="hardAlpha" operator="out"/>
<feColorMatrix type="matrix" values="0 0 0 0 0 0 0 0 0 0 0 0 0 0 0 0 0 0 0.25 0"/>
<feBlend mode="normal" in2="BackgroundImageFix" result="effect1_dropShadow_186_1344"/>
<feBlend mode="normal" in="SourceGraphic" in2="effect1_dropShadow_186_1344" result="shape"/>
</filter>
<filter id="filter1_d_186_1344" x="40.331" y="211.532" width="103.216" height="81.0025" filterUnits="userSpaceOnUse" color-interpolation-filters="sRGB">
<feFlood flood-opacity="0" result="BackgroundImageFix"/>
<feColorMatrix in="SourceAlpha" type="matrix" values="0 0 0 0 0 0 0 0 0 0 0 0 0 0 0 0 0 0 127 0" result="hardAlpha"/>
<feOffset dy="2.92581"/>
<feGaussianBlur stdDeviation="1.4629"/>
<feComposite in2="hardAlpha" operator="out"/>
<feColorMatrix type="matrix" values="0 0 0 0 0 0 0 0 0 0 0 0 0 0 0 0 0 0 0.25 0"/>
<feBlend mode="normal" in2="BackgroundImageFix" result="effect1_dropShadow_186_1344"/>
<feBlend mode="normal" in="SourceGraphic" in2="effect1_dropShadow_186_1344" result="shape"/>
</filter>
<radialGradient id="paint0_radial_186_1344" cx="0" cy="0" r="1" gradientUnits="userSpaceOnUse" gradientTransform="translate(195.5 196.217) rotate(90) scale(167.484)">
<stop stop-color="#26B69C"/>
<stop offset="1" stop-color="#5B8CDC" stop-opacity="0"/>
</radialGradient>
</defs>
</svg>
