<svg width="118" height="109" viewBox="0 0 118 109" fill="none" xmlns="http://www.w3.org/2000/svg">
<g clip-path="url(#clip0_186_359)">
<path fill-rule="evenodd" clip-rule="evenodd" d="M63.4439 44.1799C63.4439 44.1799 58.1482 45.5921 56.7458 45.5553C55.3433 45.5185 54.4824 46.7767 52.9546 47.0177C51.4267 47.2603 43.9196 43.9607 44.2171 40.1675C44.5146 36.3726 46.0458 33.6068 46.2949 31.0953C46.544 28.5837 47.6171 21.3839 47.7576 19.0564C47.898 16.7289 48.3928 12.7617 49.9591 10.9463C51.5237 9.1325 54.2952 8.0884 54.2952 8.0884C54.2952 8.0884 56.3797 5.91488 58.0613 4.59471C59.743 3.2762 62.247 1.49757 68.6325 3.54894C75.0181 5.59864 79.299 9.48722 80.8085 14.7529C82.3179 20.0185 83.5683 23.7649 84.0781 25.3996C84.5896 27.0343 86.1025 30.5431 87.2793 32.3201C88.4561 34.0987 89.1866 36.9198 88.4343 39.2104C87.6821 41.501 85.621 42.5267 84.0648 43.0304C82.5085 43.534 81.1311 45.1219 79.1135 45.0533C77.0959 44.9847 75.4126 45.2842 74.199 45.2072C72.9854 45.1303 68.8549 44.6383 67.9004 44.6434C66.9442 44.6467 63.4422 44.1799 63.4422 44.1799H63.4439Z" fill="#C7A6B6"/>
<path fill-rule="evenodd" clip-rule="evenodd" d="M51.9009 21.9946C51.9009 21.9946 51.2757 25.8714 51.4713 27.9278C51.6685 29.9842 52.0931 30.9664 51.2523 31.6123C50.4115 32.2582 49.0157 32.2832 49.7128 32.9475C50.4115 33.6118 51.4679 33.7139 51.6886 34.5337C51.9092 35.3536 52.2569 36.7206 52.6397 38.2383C53.0225 39.7559 52.4993 40.462 54.6223 41.4157C56.7452 42.3695 60.7537 43.3818 60.7537 43.3818C60.7537 43.3818 61.093 44.5279 61.6012 46.0137C62.111 47.4996 62.4604 48.127 62.4604 48.127L72.699 44.6082C72.699 44.6082 73.2656 44.374 70.6847 44.461C68.1054 44.548 66.8868 43.9925 66.8868 43.9925C66.8868 43.9925 68.8409 42.3945 69.6567 41.0509C70.4724 39.709 71.4988 34.5337 71.4988 34.5337C71.4988 34.5337 74.3639 34.1338 74.5461 31.3814C74.7283 28.6289 74.6999 25.8447 73.9878 24.3823C73.2757 22.9199 73.3158 22.0649 71.8699 22.7576C70.4239 23.4503 69.533 24.9244 69.3507 26.1475C69.1685 27.3707 68.5751 26.7917 67.6641 25.9685C66.7514 25.1453 63.1959 22.9835 61.9272 22.346C60.6601 21.7085 60.0015 21.2835 58.4452 21.5696C56.8889 21.854 54.4685 21.0693 54.4685 21.0693L51.9009 21.9929V21.9946Z" fill="white"/>
<path fill-rule="evenodd" clip-rule="evenodd" d="M53.2002 81.195C53.2002 81.195 50.7814 71.3146 51.0271 70.0178C51.2728 68.7211 51.2929 68.0585 52.9211 65.6775C54.5475 63.2981 61.2088 53.2939 61.6368 52.3686C62.0647 51.445 62.3439 47.7154 62.3439 47.7154C62.3439 47.7154 67.5309 46.5809 69.0821 45.8815C70.6317 45.1821 73.0438 44.3522 73.0438 44.3522C73.0438 44.3522 73.6205 45.2122 73.7007 45.6807C73.781 46.1476 74.3794 46.1961 75.2553 47.4544C76.1313 48.7126 78.6303 50.6971 79.3123 52.3736C79.9943 54.0502 80.2133 66.494 77.6875 77.3432C75.1617 88.1941 72.8833 98.8057 72.2214 99.4365C71.5594 100.067 68.7411 100.646 63.4572 99.2223C58.1732 97.7984 39.3643 90.6671 39.3643 90.6671C39.3643 90.6671 38.781 86.2464 38.913 84.2821C39.0451 82.3177 39.9929 79.9752 39.9929 79.9752C39.9929 79.9752 40.9524 78.9461 44.2538 79.6372C47.5552 80.3299 53.2002 81.195 53.2002 81.195Z" fill="#FFDFF2"/>
<path fill-rule="evenodd" clip-rule="evenodd" d="M20.4784 70.898C20.4784 70.898 16.6387 57.7247 17.309 56.6973C17.9793 55.6716 19.7579 56.6973 22.0597 56.9834C24.3615 57.2695 27.9622 58.3337 27.9622 58.3337L32.0776 75.6734L20.4784 70.8963V70.898Z" fill="#A89EB4"/>
<path fill-rule="evenodd" clip-rule="evenodd" d="M30.0425 172.063C30.0425 172.063 30.7763 172.451 32.1955 165.669C33.6147 158.888 40.2476 137.417 41.6885 129.856C43.1278 122.294 47.3603 110.331 48.3215 107.21C49.2843 104.09 53.1975 96.3093 53.1975 96.3093C53.1975 96.3093 61.0791 98.0846 63.3976 99.1353C65.7161 100.186 69.5759 100.437 70.4334 100.31C71.2926 100.184 72.1919 99.4566 72.1919 99.4566C72.1919 99.4566 73.1514 102.999 74.3633 105.577C75.5753 108.156 78.3718 114.238 79.3782 116.92C80.3845 119.602 81.0882 121.165 81.0882 121.165C81.0882 121.165 78.6995 149.145 77.964 152.635C77.2285 156.125 76.1988 159.713 76.0901 161.242C75.9815 162.771 75.1457 166.202 75.1457 166.202C75.1457 166.202 76.0299 168.251 77.4993 170.15C78.9686 172.049 81.7451 176.91 81.7451 176.91C81.7451 176.91 80.6787 177.871 79.2662 178.863C77.8537 179.855 66.2695 182.843 59.3674 182.618C52.4654 182.39 45.7305 181.565 41.8356 179.77C37.9391 177.974 32.4813 175.525 31.913 174.988C31.3447 174.451 30.0441 172.065 30.0441 172.065L30.0425 172.063Z" fill="#A89EB4"/>
<path fill-rule="evenodd" clip-rule="evenodd" d="M58.877 82.4365C58.877 82.4365 59.0308 80.8687 60.3597 74.4402C61.6886 68.0117 67.3487 54.9321 69.9798 52.4942C72.6109 50.0563 78.3094 49.1862 79.5263 53.038C80.7415 56.8897 82.3747 70.1049 82.3346 74.9589C82.2945 79.8146 83.0935 120.568 83.0935 120.568C83.0935 120.568 85.8215 120.124 86.6139 121.553C87.4062 122.982 87.4998 124.438 87.5182 126.471C87.5366 128.502 90.8648 150.077 84.4792 151.713C78.0937 153.35 57.0516 150.908 54.3118 149.665C51.5738 148.422 50.86 146.638 50.7246 142.733C50.5892 138.829 52.6703 122.644 53.3356 120.717C54.0026 118.789 55.0774 116.887 56.1155 116.82C57.1536 116.753 57.757 116.677 57.7169 115.302C57.6784 113.927 58.8753 97.9156 58.8753 97.9156L61.6468 98.6752C61.6468 98.6752 60.9397 101.729 60.9498 104.411C60.9598 107.093 60.4098 117.143 60.4098 117.143C60.4098 117.143 67.0795 118.695 71.4374 119.532C75.7936 120.367 80.4875 120.586 80.4875 120.586C80.4875 120.586 80.8368 117.054 80.8084 115.853C80.7817 114.649 80.3838 98.9379 80.5877 91.4351C80.7934 83.9324 80.2768 80.8386 80.108 77.5892C79.9392 74.3398 79.7169 68.5555 79.7169 68.5555C79.7169 68.5555 79.7971 57.9255 78.5233 55.2583C77.2496 52.5912 76.5893 52.8372 72.6527 54.4217C68.716 56.0079 66.1117 60.5692 65.214 63.4454C64.318 66.3234 61.2858 82.8364 61.2858 82.8364L58.8753 82.4349L58.877 82.4365Z" fill="#D493A6"/>
<path fill-rule="evenodd" clip-rule="evenodd" d="M39.2792 80.1626C39.2792 80.1626 36.3506 77.7431 35.7154 76.3845C35.0785 75.0258 31.2422 70.6269 31.2422 70.6269L31.6567 73.5802C31.6567 73.5802 31.8874 75.0944 29.9584 74.6627C28.0294 74.231 21.1223 70.4562 21.1223 70.4562C21.1223 70.4562 20.7629 71.9421 21.1691 73.8311C21.5753 75.7219 21.9263 80.678 27.5596 84.5599C33.1929 88.4434 39.1154 90.627 39.1154 90.627C39.1154 90.627 38.7259 87.9515 38.8396 86.4322C38.9533 84.9146 39.2809 80.1609 39.2809 80.1609L39.2792 80.1626Z" fill="white"/>
<path fill-rule="evenodd" clip-rule="evenodd" d="M50.0038 13.2068C49.6829 14.7679 49.4288 16.7139 49.7046 18.434C50.0055 20.313 50.9198 21.926 52.9224 22.6321C53.2668 22.7526 53.6446 22.5719 53.7666 22.2288C53.8869 21.8842 53.7064 21.506 53.3637 21.3839C51.871 20.8568 51.2341 19.6236 51.0084 18.2231C50.7577 16.6604 51.0051 14.8918 51.2976 13.4745C51.3695 13.1165 51.1405 12.7668 50.7828 12.6931C50.4267 12.6212 50.0773 12.8504 50.0038 13.2068Z" fill="#6D4B5C"/>
<path fill-rule="evenodd" clip-rule="evenodd" d="M52.5054 17.2762C53.2493 19.9751 54.1218 21.7186 56.9686 22.2858C57.3263 22.3577 57.6757 22.1252 57.7459 21.7688C57.8161 21.4107 57.5837 21.061 57.2277 20.9907C54.9677 20.5373 54.3692 19.0698 53.7775 16.9264C53.6822 16.5751 53.3161 16.3676 52.9651 16.463C52.6157 16.56 52.4068 16.9248 52.5037 17.2762H52.5054Z" fill="#6D4B5C"/>
<path fill-rule="evenodd" clip-rule="evenodd" d="M55.7163 17.062C57.7089 20.2946 60.0324 21.9043 63.2385 23.8887C64.8851 24.9094 66.8425 25.6172 68.006 27.2469C68.2166 27.5447 68.6295 27.6117 68.927 27.4008C69.2229 27.19 69.2914 26.7767 69.0808 26.4789C67.8137 24.7053 65.7259 23.8753 63.9339 22.7643C60.92 20.897 58.7152 19.4078 56.8413 16.3676C56.6491 16.0564 56.2412 15.961 55.932 16.1534C55.6227 16.3458 55.5258 16.7541 55.718 17.062H55.7163Z" fill="#6D4B5C"/>
<path fill-rule="evenodd" clip-rule="evenodd" d="M70.1471 28.4683C69.9999 27.62 69.9732 26.6228 70.1855 25.7544C70.3811 24.9629 70.809 24.1648 71.3489 23.6812C71.613 23.447 71.8989 23.2797 72.1998 23.3165C72.5542 23.3583 72.8684 23.6662 73.1877 24.2317C74.3612 26.3216 74.3378 29.1326 73.6591 31.3697C73.4852 31.9419 73.1141 32.7719 72.5876 33.3173C72.3352 33.5784 72.0527 33.7875 71.7167 33.7557C71.3539 33.7206 71.0313 33.9866 70.9962 34.3514C70.9611 34.7145 71.2269 35.0374 71.5913 35.0726C72.3201 35.1412 72.9888 34.8065 73.5371 34.2376C74.2107 33.5399 74.7005 32.4891 74.9228 31.7562C75.7001 29.1945 75.6834 25.9769 74.3394 23.5859C73.7393 22.52 73.0272 22.085 72.3586 22.0047C71.7067 21.9277 71.0464 22.1854 70.4713 22.6974C69.7509 23.3382 69.1608 24.3907 68.9017 25.4431C68.6476 26.4856 68.6693 27.6819 68.8449 28.6976C68.9084 29.0573 69.2494 29.2983 69.6071 29.2363C69.9665 29.1728 70.2089 28.8297 70.1454 28.4717L70.1471 28.4683Z" fill="#6D4B5C"/>
<path fill-rule="evenodd" clip-rule="evenodd" d="M70.6837 31.4567C70.7021 31.3747 70.7255 31.2592 70.7322 31.1906C70.779 30.6385 70.6352 30.0997 70.54 29.5559C70.4163 28.8498 70.3561 28.137 70.6051 27.3941C70.7639 26.9172 70.9462 26.4922 71.1484 26.2379C71.3122 26.0304 71.4995 25.9016 71.6883 25.8397C72.0511 25.7225 72.5827 25.7727 73.1008 26.5508C73.3031 26.8536 73.2195 27.2652 72.917 27.466C72.6295 27.6584 72.2483 27.5949 72.036 27.3322C71.9725 27.4761 71.9157 27.64 71.8572 27.8107C71.6833 28.3328 71.7552 28.8331 71.8405 29.3267C71.9541 29.9826 72.1029 30.6334 72.0461 31.2994C71.9792 32.0942 71.578 32.9893 70.5583 32.7635C70.2023 32.6865 69.9749 32.3318 70.0552 31.977C70.122 31.6725 70.3862 31.465 70.682 31.4567H70.6837Z" fill="#6D4B5C"/>
<path fill-rule="evenodd" clip-rule="evenodd" d="M54.5786 35.106C54.4232 35.1043 54.2694 35.0491 54.1457 34.9387C52.7365 33.6854 51.6065 31.7194 51.0382 29.914C50.6336 28.6289 50.3796 27.2117 50.4815 25.8648C50.6888 23.1508 51.7352 20.4301 54.6271 19.9834C55.3292 19.8746 56.0496 19.7659 56.6464 20.3046C58.6089 22.0782 59.1605 25.0131 59.3928 27.4911C59.6336 30.0595 59.6018 32.3753 58.1893 33.9314C57.5624 34.6224 56.6631 35.1779 55.376 35.5276C55.0383 35.6197 54.6923 35.4339 54.5803 35.1077L54.5786 35.106ZM55.1988 34.2008C56.1031 33.9297 56.7567 33.5398 57.2131 33.0379C57.7697 32.4238 58.0255 31.6524 58.1325 30.7857C58.2495 29.8186 58.1826 28.7427 58.0756 27.6116C57.8717 25.4414 57.4772 22.8379 55.7605 21.2835C55.6518 21.1864 55.5214 21.1931 55.3944 21.2032C55.2055 21.2182 55.0149 21.26 54.8277 21.2885C52.5878 21.6332 51.9609 23.8619 51.7988 25.9635C51.7085 27.1465 51.9442 28.388 52.2969 29.5157C52.7967 31.1053 53.7813 32.8455 55.0216 33.9498C55.1018 34.0201 55.1604 34.1071 55.1971 34.2008H55.1988Z" fill="#6D4B5C"/>
<path fill-rule="evenodd" clip-rule="evenodd" d="M53.833 24.3907C55.9192 23.7047 57.2163 23.5993 59.0284 24.6869C59.3409 24.8743 59.7471 24.7722 59.9344 24.461C60.1216 24.1481 60.0196 23.7415 59.7087 23.5541C57.5139 22.2373 55.9459 22.3042 53.4201 23.1374C53.0741 23.2496 52.8852 23.6244 52.9989 23.9724C53.1126 24.3187 53.4853 24.5061 53.833 24.3924V24.3907Z" fill="#6D4B5C"/>
<path fill-rule="evenodd" clip-rule="evenodd" d="M54.956 26.3852C55.4524 27.2134 55.4808 28.4215 55.5995 29.3735C55.6447 29.735 55.974 29.9926 56.3367 29.9475C56.6978 29.9023 56.9552 29.5727 56.9117 29.2096C56.7713 28.0885 56.6744 26.678 56.0893 25.7042C55.9004 25.3913 55.4942 25.2909 55.1833 25.4783C54.869 25.6673 54.7688 26.0739 54.9576 26.3852H54.956Z" fill="#6D4B5C"/>
<path fill-rule="evenodd" clip-rule="evenodd" d="M59.1582 28.3545C61.3497 28.6725 64.0962 28.1638 66.2893 27.9446C66.6838 27.9044 67.0549 27.7756 67.4226 27.6484C67.67 27.5631 67.9141 27.4728 68.1749 27.4728C68.5393 27.4728 68.8351 27.1749 68.8351 26.8118C68.8351 26.4487 68.5393 26.1509 68.1749 26.1509C67.7687 26.1509 67.3809 26.263 66.9914 26.3985C66.7206 26.4906 66.4514 26.5993 66.1589 26.6278C64.0644 26.8369 61.4433 27.3489 59.3488 27.0444C58.9894 26.9909 58.6534 27.2435 58.5999 27.6049C58.5464 27.9647 58.7988 28.301 59.1599 28.3545H59.1582Z" fill="#6D4B5C"/>
<path fill-rule="evenodd" clip-rule="evenodd" d="M50.5623 32.7953L50.6425 32.8589C50.895 33.0697 51.2995 33.1818 51.6238 33.3609C52.0016 33.5717 52.3024 33.8494 52.4529 34.2293C52.7605 34.9973 52.8323 35.8389 52.8842 36.6906C52.9276 37.4117 52.9527 38.1379 53.1784 38.8156C53.6481 40.2211 54.8299 41.307 56.2524 41.7136C56.9679 41.9177 57.7652 41.8675 58.4991 41.9713C59.2195 42.075 59.9784 42.321 60.6972 42.321C61.0616 42.321 61.3575 42.6171 61.3575 42.9819C61.3575 43.3467 61.0616 43.6428 60.6972 43.6428C59.9183 43.6428 59.0942 43.3919 58.3102 43.2797C57.5195 43.1676 56.662 43.2061 55.8914 42.9836C54.0509 42.4582 52.5315 41.0493 51.928 39.2322C51.6656 38.4475 51.6171 37.6042 51.5669 36.7659C51.5251 36.0598 51.485 35.357 51.2293 34.7195C51.1942 34.6359 51.1123 34.5924 51.032 34.5438C50.915 34.4736 50.783 34.4133 50.6526 34.3531C50.3366 34.2092 50.0274 34.0636 49.7984 33.8729C49.6546 33.7541 49.4323 33.6085 49.2902 33.4362C49.0763 33.1751 48.981 32.8723 49.0662 32.5326C49.1097 32.362 49.2167 32.1796 49.3872 32.0189C49.551 31.865 49.8034 31.7261 49.9171 31.6307C50.1561 31.4316 50.4587 31.2225 50.7144 30.9815C50.8749 30.8309 51.027 30.677 51.0604 30.4779C51.1256 30.1198 51.4666 29.8772 51.8244 29.9408C52.1838 30.0044 52.4261 30.3474 52.3626 30.7055C52.2941 31.0953 52.0901 31.4467 51.806 31.7546C51.4934 32.0942 51.0788 32.382 50.7612 32.6464C50.7228 32.6782 50.6459 32.7351 50.5623 32.792V32.7953Z" fill="#6D4B5C"/>
<path fill-rule="evenodd" clip-rule="evenodd" d="M60.222 43.5457C60.0131 43.3734 59.9228 43.0839 60.0164 42.8145C60.0899 42.602 60.222 42.4966 60.334 42.4347C60.4778 42.3561 60.6349 42.3276 60.8071 42.3661C60.9157 42.3895 61.1464 42.4832 61.3102 42.761C61.4506 42.9936 61.6596 43.5508 61.673 43.5859C61.8719 44.1247 62.1326 44.6267 62.2848 45.1838C62.6993 46.7098 62.6274 48.2927 63.0002 49.7869C63.0871 50.1399 62.8732 50.5013 62.5205 50.5884C62.1677 50.677 61.8067 50.4612 61.7198 50.1065C61.3487 48.6223 61.4239 47.0461 61.011 45.5285C60.8689 45.0098 60.6198 44.5413 60.4343 44.041C60.4276 44.0226 60.2939 43.7081 60.2253 43.5441L60.222 43.5457ZM61.2183 43.3517L61.2149 43.3583V43.3517H61.2183ZM61.235 43.3199L61.2266 43.3383L61.23 43.3332L61.235 43.3199ZM61.2484 43.2864L61.2383 43.3115V43.3081L61.2484 43.2864ZM61.2517 43.2814C61.255 43.2713 61.2601 43.2613 61.2634 43.2496L61.2517 43.2814Z" fill="#6D4B5C"/>
<path fill-rule="evenodd" clip-rule="evenodd" d="M66.7573 43.4036C67.2638 43.1459 67.8238 42.741 68.2434 42.3695C69.5439 41.22 69.9969 39.1117 70.3446 37.4971C70.4215 37.1424 70.7725 36.9131 71.1286 36.9901C71.4846 37.0671 71.7136 37.4201 71.6351 37.7748C71.2355 39.6388 70.6187 42.0349 69.1176 43.3617C68.8752 43.5742 68.5944 43.7985 68.2986 44.0043C68.3738 44.0143 68.4507 44.021 68.5259 44.026C69.6943 44.103 71.2289 43.8771 72.0897 43.0271C72.3488 42.7711 72.7684 42.7744 73.0242 43.0338C73.2799 43.2931 73.2766 43.7131 73.0175 43.9691C71.9059 45.0651 69.9467 45.4449 68.4373 45.3445C67.8272 45.3044 67.2337 45.1655 66.647 45.0048C66.637 45.0048 66.4481 44.9496 66.3077 44.881C66.1572 44.8108 66.0452 44.7104 65.9817 44.6317C65.8714 44.4912 65.8313 44.3422 65.8296 44.2017C65.8296 44.036 65.8764 43.862 66.0352 43.7031C66.1221 43.6177 66.2408 43.5408 66.3829 43.4906C66.4815 43.4554 66.6988 43.4153 66.7523 43.4052L66.7573 43.4036Z" fill="#6D4B5C"/>
<path fill-rule="evenodd" clip-rule="evenodd" d="M52.735 8.26744C50.7893 8.60543 49.3718 10.1917 48.6062 11.9301C48.2 12.8538 47.7286 13.8744 47.4996 14.8566C47.1084 16.5415 47.2221 18.4122 47.0499 20.1239C46.851 22.1167 46.3211 24.0744 46.1422 26.0672C45.9316 28.3796 45.6976 30.7171 45.2429 32.9994C45.0173 34.1338 44.5642 35.4323 44.2283 36.7474C43.8638 38.173 43.6415 39.6137 43.8973 40.8987C44.5442 44.1347 47.6233 46.8755 50.811 47.359C52.028 47.5431 53.1914 47.1984 54.3782 47.0009C54.7376 46.9407 54.9817 46.601 54.9215 46.2413C54.8613 45.8816 54.5203 45.6373 54.1609 45.6975C53.1112 45.8732 52.0865 46.2145 51.0083 46.0522C48.3321 45.6456 45.736 43.3583 45.1944 40.6393C44.9738 39.535 45.1944 38.3002 45.5087 37.0754C45.8514 35.7385 46.3077 34.4133 46.5384 33.2604C47.0031 30.9313 47.2422 28.5469 47.4561 26.1877C47.6383 24.1999 48.1666 22.2472 48.3638 20.2578C48.531 18.5996 48.4056 16.7875 48.785 15.1578C48.9957 14.2526 49.4403 13.3139 49.8131 12.4639C50.4065 11.1169 51.4529 9.83191 52.959 9.57088C53.3168 9.5073 53.5591 9.16596 53.4973 8.80622C53.4338 8.44815 53.0928 8.20553 52.7334 8.26911L52.735 8.26744Z" fill="#6D4B5C"/>
<path fill-rule="evenodd" clip-rule="evenodd" d="M54.52 45.3093C55.2773 45.9686 56.5493 46.7751 57.6075 46.7048C58.4884 46.6463 59.478 45.9619 60.2469 45.6005C60.5779 45.4449 60.7183 45.05 60.5629 44.7187C60.4074 44.3891 60.0146 44.2468 59.6836 44.4025C59.3259 44.5715 58.9197 44.8224 58.5001 45.0383C58.1725 45.2073 57.8415 45.3629 57.5205 45.383C57.2598 45.4014 56.984 45.3144 56.7115 45.1922C56.21 44.968 55.7319 44.6083 55.3876 44.3071C55.1118 44.0678 54.6939 44.0979 54.4565 44.374C54.2175 44.6484 54.2459 45.0667 54.5217 45.306L54.52 45.3093Z" fill="#6D4B5C"/>
<path fill-rule="evenodd" clip-rule="evenodd" d="M54.957 8.03156C56.1104 6.63609 57.2136 5.2791 58.8602 4.39229C61.0015 3.23777 63.6108 2.9918 66.2236 3.36493C70.212 3.93215 74.2155 5.93835 76.6443 8.49671C80.9604 13.0445 81.6307 19.6387 83.2689 25.3779C84.0429 28.0868 85.9786 30.0445 87.0584 32.5694C87.7822 34.2594 88.3389 36.7374 87.9427 38.8524C87.6986 40.1541 87.0835 41.3187 85.8582 42.0047C85.1979 42.3745 84.332 42.3595 83.6032 42.4883C83.2438 42.5519 83.0031 42.8949 83.0683 43.253C83.1318 43.6127 83.4745 43.8536 83.8322 43.7901C84.6998 43.6361 85.7144 43.5976 86.5018 43.1576C88.0915 42.2691 88.9239 40.7833 89.2399 39.0967C89.6845 36.724 89.0827 33.9415 88.272 32.0474C87.2139 29.5743 85.2966 27.6685 84.5393 25.0131C82.8426 19.0748 82.067 12.2899 77.6022 7.58481C74.9911 4.8357 70.6951 2.66552 66.4108 2.0548C63.5072 1.64151 60.612 1.94604 58.235 3.22773C56.4296 4.19987 55.201 5.6606 53.939 7.18825C53.7066 7.46935 53.7451 7.88599 54.0259 8.11857C54.3067 8.35114 54.7229 8.31266 54.9553 8.03156H54.957Z" fill="#6D4B5C"/>
<path fill-rule="evenodd" clip-rule="evenodd" d="M84.849 38.2818C84.5447 39.254 84.2104 40.3667 83.6922 41.3355C83.2309 42.2005 82.6257 42.9518 81.7114 43.3115C81.372 43.4454 81.2065 43.8302 81.3403 44.1699C81.4723 44.5096 81.8568 44.6769 82.1961 44.543C83.4047 44.0662 84.2455 43.1041 84.859 41.9596C85.4157 40.9188 85.7817 39.7241 86.1094 38.6784C86.218 38.3303 86.0258 37.9572 85.6764 37.8484C85.3287 37.7414 84.9576 37.9338 84.849 38.2835V38.2818Z" fill="#6D4B5C"/>
<path fill-rule="evenodd" clip-rule="evenodd" d="M80.8551 39.4715C80.1748 41.9646 78.6469 43.8871 75.9924 44.3439C75.633 44.4075 75.3907 44.7489 75.4525 45.1069C75.516 45.4667 75.857 45.7093 76.2148 45.6474C79.4209 45.0935 81.3098 42.8246 82.1289 39.8195C82.2258 39.4682 82.0186 39.1034 81.6659 39.008C81.3148 38.911 80.9504 39.1184 80.8551 39.4715Z" fill="#6D4B5C"/>
<path fill-rule="evenodd" clip-rule="evenodd" d="M72.5027 44.528C72.6164 44.6233 72.5997 44.7957 72.6063 44.9613C72.6197 45.3144 72.5696 45.6875 72.5696 45.9703C72.5696 46.3351 72.8655 46.6312 73.2299 46.6312C73.5943 46.6312 73.8901 46.3351 73.8901 45.9703C73.8901 45.6055 73.9587 45.0902 73.9052 44.6451C73.8484 44.19 73.6779 43.7918 73.3536 43.519C73.0744 43.2831 72.6565 43.3182 72.4225 43.5977C72.1885 43.8754 72.2236 44.2937 72.501 44.528H72.5027Z" fill="#6D4B5C"/>
<path fill-rule="evenodd" clip-rule="evenodd" d="M62.5102 48.2793C63.9779 48.3914 65.6762 47.8342 67.0686 47.436C68.8288 46.9323 70.8264 46.4889 72.3108 45.3746C72.6033 45.157 72.6618 44.7421 72.4429 44.4493C72.2255 44.1581 71.811 44.0996 71.5185 44.3171C70.1594 45.3378 68.3173 45.7042 66.7076 46.1643C65.4522 46.5224 63.9327 47.0629 62.6122 46.9625C62.2494 46.934 61.9318 47.2067 61.9034 47.5715C61.875 47.9346 62.1475 48.2525 62.5119 48.281L62.5102 48.2793Z" fill="#6D4B5C"/>
<path fill-rule="evenodd" clip-rule="evenodd" d="M62.3255 52.8489C65.6085 50.2453 69.8477 49.0356 73.5269 47.195C73.8529 47.0311 73.9849 46.6328 73.8228 46.3082C73.659 45.982 73.2611 45.8481 72.9351 46.0121C69.1757 47.8928 64.858 49.1527 61.5047 51.8148C61.2189 52.0407 61.1704 52.4557 61.3977 52.7435C61.6234 53.0296 62.038 53.0781 62.3255 52.8489Z" fill="#6D4B5C"/>
<path fill-rule="evenodd" clip-rule="evenodd" d="M61.4117 50.473C61.2729 51.7747 60.1496 53.4061 59.4492 54.5021C57.5971 57.4001 55.8536 60.504 53.729 63.1928C52.9233 64.2135 52.4485 65.5922 51.5358 66.5058C51.2784 66.7635 51.2784 67.1835 51.5358 67.4412C51.7933 67.6988 52.2112 67.6988 52.4703 67.4412C53.4181 66.4908 53.9279 65.0719 54.7654 64.0127C56.9167 61.292 58.6836 58.1514 60.5625 55.2149C61.3565 53.9717 62.5667 52.0893 62.7239 50.6152C62.764 50.2521 62.4999 49.9258 62.1371 49.8873C61.7744 49.8472 61.4484 50.1099 61.41 50.4746L61.4117 50.473Z" fill="#6D4B5C"/>
<path fill-rule="evenodd" clip-rule="evenodd" d="M73.3495 46.7216C73.9797 47.3825 74.3876 48.1974 75.088 48.8115C76.3384 49.9058 77.8378 51.251 78.5917 52.762C78.7555 53.0882 79.1517 53.2204 79.4793 53.0581C79.8053 52.8941 79.939 52.4959 79.7752 52.1696C78.9477 50.5131 77.3296 49.0156 75.9589 47.8159C75.2903 47.2286 74.9092 46.4422 74.3057 45.8097C74.055 45.5453 73.6354 45.5353 73.3729 45.7879C73.1088 46.0389 73.0988 46.4589 73.3495 46.7216Z" fill="#6D4B5C"/>
<path fill-rule="evenodd" clip-rule="evenodd" d="M55.1096 37.5004C56.4385 39.1452 58.4026 38.3203 59.3487 36.8997C59.551 36.5969 59.4674 36.1852 59.1649 35.9845C58.8606 35.7803 58.4511 35.864 58.2488 36.1685C57.7691 36.888 56.8112 37.5021 56.1359 36.6688C55.9069 36.3844 55.4907 36.3392 55.2065 36.5701C54.924 36.7993 54.8789 37.216 55.1096 37.5004Z" fill="#6D4B5C"/>
<path fill-rule="evenodd" clip-rule="evenodd" d="M64.9019 61.2468C63.0564 68.2158 62.2357 75.4274 60.8265 82.4901C60.7546 82.8482 60.987 83.1979 61.343 83.2682C61.7008 83.3384 62.0501 83.1075 62.1203 82.7495C63.5262 75.7135 64.3419 68.5287 66.179 61.5848C66.2709 61.2334 66.062 60.8704 65.7076 60.7767C65.3566 60.6846 64.9938 60.8938 64.9002 61.2485L64.9019 61.2468Z" fill="#6D4B5C"/>
<path fill-rule="evenodd" clip-rule="evenodd" d="M43.1943 80.7432C45.5479 80.8135 47.8965 81.4928 50.21 81.8894C53.7655 82.5001 57.3728 82.9385 60.8999 83.6463C61.2576 83.7182 61.607 83.484 61.6772 83.1276C61.7474 82.7695 61.5167 82.4198 61.159 82.3495C57.6185 81.6401 53.9995 81.1983 50.4323 80.5859C48.0586 80.1793 45.6465 79.495 43.2327 79.4247C42.8683 79.413 42.5641 79.7008 42.5541 80.0656C42.5424 80.4287 42.8299 80.7349 43.1943 80.7449V80.7432Z" fill="#6D4B5C"/>
<path fill-rule="evenodd" clip-rule="evenodd" d="M40.0382 90.0799C40.2305 90.1518 40.869 90.3961 41.0111 90.4446C41.8068 90.719 42.5874 91.0085 43.3714 91.3181C45.6047 92.1998 47.9115 92.9796 50.0879 93.9885C52.0872 94.9155 54.2619 95.553 56.3531 96.2658C59.1948 97.2379 61.9797 98.2385 64.9134 98.9028C66.6953 99.3044 68.7748 99.972 70.6169 99.6022C70.9545 99.5353 71.2889 99.2023 71.573 99.0216C71.8823 98.8242 72.2901 98.9162 72.4841 99.2224C72.6813 99.5319 72.5894 99.9402 72.2818 100.136C71.8756 100.394 71.3557 100.802 70.8726 100.897C68.8567 101.301 66.5699 100.631 64.6208 100.189C61.6387 99.5152 58.8103 98.5012 55.9235 97.5157C53.7905 96.7862 51.5723 96.1336 49.5296 95.1866C47.3782 94.186 45.0932 93.4163 42.8867 92.5445C42.1211 92.2434 41.3571 91.9606 40.5798 91.6912C40.4127 91.6326 39.8042 91.4134 39.5301 91.2997C39.3813 91.2377 39.286 91.1775 39.2543 91.1541C38.9634 90.9299 38.9818 90.6571 39.0002 90.5333C39.0219 90.3744 39.0921 90.2271 39.2392 90.1083C39.3011 90.0598 39.4448 89.941 39.719 89.9644C39.8376 89.9728 39.9463 90.0146 40.0399 90.0765L40.0382 90.0799ZM39.953 91.221C39.8627 91.2662 39.7574 91.2896 39.6504 91.2879C39.7842 91.293 39.8828 91.2595 39.953 91.221Z" fill="#6D4B5C"/>
<path fill-rule="evenodd" clip-rule="evenodd" d="M40.3693 80.4939C40.1688 80.6947 40.0835 80.9792 40.0267 81.277C39.9448 81.7054 39.9397 82.1655 39.9214 82.557C39.8394 84.3825 39.6857 86.2231 39.7926 88.0552C39.816 88.43 39.9481 88.932 40.0183 89.4039C40.0835 89.8205 40.0969 90.2204 40.0267 90.5417C39.9481 90.8964 39.5937 91.1223 39.2393 91.042C38.8833 90.9633 38.6576 90.6103 38.7379 90.2539C38.793 90.0112 38.7328 89.6917 38.6743 89.3704C38.5958 88.927 38.4938 88.4786 38.4737 88.1322C38.3634 86.2549 38.5155 84.3658 38.6008 82.4951C38.6259 81.9463 38.6426 81.2854 38.8031 80.7048C38.9368 80.2229 39.1641 79.7929 39.5269 79.4716C39.684 79.331 39.8578 79.2541 40.04 79.2089C40.1387 79.1855 40.2456 79.1888 40.3459 79.152C41.496 78.7337 42.2833 78.9362 43.4484 79.2273C43.8011 79.316 44.0184 79.6757 43.9282 80.0288C43.8413 80.3818 43.4802 80.5994 43.1275 80.5107C42.2499 80.2915 41.6615 80.0807 40.7973 80.3952C40.6736 80.4404 40.4446 80.4789 40.3677 80.4923L40.3693 80.4939Z" fill="#6D4B5C"/>
<path fill-rule="evenodd" clip-rule="evenodd" d="M43.3489 91.1909C43.2954 87.4696 43.9507 83.7852 43.9507 80.0957C43.9507 79.7309 43.6548 79.4348 43.2904 79.4348C42.926 79.4348 42.6301 79.7309 42.6301 80.0957C42.6301 83.7919 41.9765 87.483 42.0283 91.2093C42.0333 91.574 42.3325 91.8652 42.697 91.8602C43.0614 91.8551 43.3539 91.554 43.3489 91.1909Z" fill="#6D4B5C"/>
<path fill-rule="evenodd" clip-rule="evenodd" d="M76.6999 53.7307C79.7322 58.1447 79.3076 63.6998 78.4835 68.855C77.4839 75.1028 76.165 81.2368 74.7675 87.3926C73.9434 91.0219 73.2648 95.143 71.5982 98.4794C71.4344 98.8057 71.5664 99.2039 71.8924 99.3679C72.22 99.5302 72.6162 99.398 72.78 99.0718C74.4917 95.6433 75.2089 91.4151 76.0564 87.6855C77.4605 81.5029 78.7844 75.3421 79.789 69.0641C80.665 63.5793 81.016 57.6795 77.7898 52.9811C77.5842 52.6799 77.173 52.6046 76.8721 52.8104C76.5712 53.0162 76.496 53.4278 76.7016 53.7307H76.6999Z" fill="#6D4B5C"/>
<path fill-rule="evenodd" clip-rule="evenodd" d="M66.6591 60.7834C68.2337 57.8686 70.6676 55.7654 73.6397 54.4636C74.5357 54.0704 75.7676 53.7608 76.7622 53.9031C77.1216 53.9549 77.4576 53.7023 77.5094 53.3409C77.5613 52.9811 77.3089 52.6448 76.9495 52.5929C75.7292 52.4172 74.2114 52.7686 73.1098 53.2505C69.8685 54.6711 67.2174 56.9718 65.499 60.1526C65.3251 60.4738 65.4438 60.8754 65.7648 61.0477C66.0857 61.2217 66.4869 61.1029 66.6591 60.7817V60.7834Z" fill="#6D4B5C"/>
<path fill-rule="evenodd" clip-rule="evenodd" d="M59.7267 81.0578C61.1643 74.1508 62.5083 66.9375 65.3634 60.4403C66.2059 58.5245 67.5364 57.0654 68.6614 55.3554C69.8332 53.5734 72.247 51.7914 74.3449 51.3246C75.2342 51.1255 76.2472 50.8845 77.0245 51.4685C77.3153 51.6877 77.7299 51.6291 77.9489 51.3363C78.1662 51.0452 78.1077 50.6302 77.8168 50.411C76.7219 49.5895 75.3077 49.7551 74.0557 50.0345C71.6586 50.5666 68.8955 52.5929 67.5548 54.6276C66.3897 56.3978 65.0257 57.9221 64.1515 59.9066C61.2579 66.4874 59.8872 73.7927 58.4312 80.7884C58.3577 81.1448 58.5867 81.4962 58.9427 81.5698C59.2988 81.6435 59.6498 81.4142 59.7234 81.0578H59.7267Z" fill="#6D4B5C"/>
<path fill-rule="evenodd" clip-rule="evenodd" d="M58.2489 98.0578C57.8243 99.8465 57.8594 101.951 57.7056 103.795C57.3613 107.935 56.9985 112.133 56.9985 116.276C56.9985 116.641 57.2944 116.937 57.6588 116.937C58.0232 116.937 58.3191 116.641 58.3191 116.276C58.3191 112.17 58.6785 108.008 59.0212 103.904C59.17 102.124 59.1248 100.091 59.5327 98.3607C59.6163 98.0059 59.3973 97.6495 59.0429 97.5659C58.6902 97.4822 58.3325 97.7014 58.2489 98.0561V98.0578Z" fill="#6D4B5C"/>
<path fill-rule="evenodd" clip-rule="evenodd" d="M60.7208 98.968C59.9351 100.809 60.2711 103.661 60.1993 105.617C60.0555 109.514 59.6226 113.403 59.6226 117.3C59.6226 117.665 59.9184 117.961 60.2828 117.961C60.6473 117.961 60.9431 117.665 60.9431 117.3C60.9431 113.42 61.3744 109.548 61.5182 105.668C61.5867 103.849 61.2056 101.197 61.9361 99.4884C62.0798 99.1521 61.9227 98.7639 61.59 98.62C61.2524 98.4761 60.8646 98.6317 60.7208 98.9663V98.968Z" fill="#6D4B5C"/>
<path fill-rule="evenodd" clip-rule="evenodd" d="M79.0168 54.3414C81.2617 60.457 81.5225 71.1138 81.6997 77.6712C81.9237 85.9754 82.0708 94.298 82.4034 102.596C82.6375 108.448 82.2095 114.337 82.2095 120.183C82.2095 120.548 82.5071 120.844 82.8698 120.844C83.2325 120.844 83.5301 120.548 83.5301 120.183C83.5301 114.322 83.958 108.415 83.7223 102.544C83.3913 94.2512 83.2426 85.9352 83.0186 77.6377C82.838 70.9599 82.5405 60.114 80.2554 53.8863C80.13 53.5416 79.7506 53.3676 79.4079 53.4931C79.0652 53.6186 78.8897 53.9984 79.0151 54.3431L79.0168 54.3414Z" fill="#6D4B5C"/>
<path fill-rule="evenodd" clip-rule="evenodd" d="M79.2488 69.2565C79.4092 72.613 79.3273 75.9862 79.461 79.3444C79.5563 81.7404 80.0394 84.1281 80.1648 86.5259C80.2918 88.947 80.0143 91.4719 79.909 93.8931C79.7352 97.8754 79.8171 101.963 80.0377 105.935C80.2935 110.555 79.7803 115.228 79.7803 119.862C79.7803 120.225 80.0762 120.522 80.4406 120.522C80.805 120.522 81.1009 120.225 81.1009 119.862C81.1009 115.203 81.6141 110.505 81.3566 105.862C81.1377 101.931 81.0574 97.8871 81.2279 93.9483C81.3349 91.487 81.6141 88.9186 81.4837 86.4556C81.3583 84.0629 80.8752 81.6819 80.7799 79.2908C80.6462 75.9293 80.7264 72.5528 80.5693 69.1929C80.5509 68.8282 80.2417 68.5471 79.8773 68.5638C79.5145 68.5822 79.232 68.8917 79.2488 69.2565Z" fill="#6D4B5C"/>
<path fill-rule="evenodd" clip-rule="evenodd" d="M71.637 100.74C72.319 101.332 72.7987 102.686 73.1397 103.482C73.698 104.786 74.3282 106.056 74.8832 107.369C76.3492 110.836 78.4671 114.176 78.8499 118.011C78.8867 118.374 79.2093 118.638 79.5737 118.603C79.9365 118.567 80.2006 118.244 80.1655 117.88C79.7693 113.912 77.618 110.44 76.1018 106.854C75.5468 105.54 74.9133 104.269 74.355 102.962C73.9488 102.015 73.3136 100.442 72.5028 99.7411C72.227 99.5035 71.8091 99.5336 71.5718 99.808C71.3327 100.084 71.3645 100.502 71.6403 100.74H71.637Z" fill="#6D4B5C"/>
<path fill-rule="evenodd" clip-rule="evenodd" d="M30.8007 172.629C31.3507 173.706 32.4456 174.551 33.7126 175.267C35.7871 176.438 38.3313 177.238 40.0698 177.914C40.5428 178.098 40.9641 178.383 41.387 178.666C41.7213 178.888 42.0506 179.116 42.425 179.241C52.3711 182.599 63.392 182.429 73.5436 180.083C74.5415 179.853 75.6331 179.942 76.5859 179.544C78.3077 178.826 79.9575 177.586 81.5573 176.628C81.8698 176.438 82.276 176.542 82.4616 176.853C82.6505 177.168 82.5468 177.575 82.2359 177.76C80.5861 178.753 78.876 180.021 77.0958 180.764C76.0727 181.189 74.911 181.123 73.8428 181.371C63.4571 183.771 52.1805 183.929 42.0055 180.493C41.5224 180.329 41.0861 180.053 40.6548 179.763C40.3121 179.534 39.9745 179.293 39.5933 179.146C37.8097 178.45 35.1987 177.621 33.0674 176.418C31.5396 175.555 30.2608 174.494 29.6089 173.192C29.4567 172.886 29.4501 172.285 29.6323 171.568C29.9348 170.368 30.6687 168.701 30.7957 168.163C31.9641 163.186 33.2396 158.22 34.52 153.254C37.3283 142.358 40.3439 131.573 43.4898 120.77C45.9672 112.275 48.0684 103.576 52.2457 95.7036C52.4162 95.3807 52.8174 95.2585 53.1383 95.4292C53.461 95.6015 53.583 96.0014 53.4108 96.3227C49.2753 104.115 47.2075 112.73 44.7569 121.142C41.6143 131.929 38.6021 142.701 35.7955 153.584C34.5184 158.54 33.2479 163.499 32.0795 168.464C31.9508 169.008 31.2136 170.684 30.9094 171.892C30.8392 172.175 30.8074 172.575 30.8024 172.629H30.8007Z" fill="#6D4B5C"/>
<path fill-rule="evenodd" clip-rule="evenodd" d="M53.8313 80.6814C53.9249 80.7951 53.9818 80.9424 53.9818 81.103C53.9818 81.4661 53.6859 81.7639 53.3215 81.7639C53.1242 81.7639 52.8819 81.6836 52.7097 81.4159C52.6094 81.2569 52.5041 80.8069 52.5041 80.8069C52.5041 80.8069 52.5124 80.842 52.5124 80.8453C52.3369 80.1878 52.1831 79.5168 51.9692 78.8693C50.8041 75.3756 50.4229 71.9204 50.6753 68.2459C50.7021 67.8829 51.018 67.6068 51.3808 67.6302C51.7435 67.657 52.0193 67.9732 51.9942 68.3363C51.7552 71.835 52.1146 75.1246 53.2229 78.451C53.4452 79.1219 53.6073 79.8197 53.7895 80.504L53.833 80.6814H53.8313Z" fill="#6D4B5C"/>
<path fill-rule="evenodd" clip-rule="evenodd" d="M31.6793 71.4451C31.8297 71.9003 31.9868 72.3504 32.1323 72.8088C32.2242 73.1033 32.261 73.4564 32.3028 73.8061C32.3312 74.0303 32.3512 74.2545 32.4348 74.4252C32.5986 74.7514 32.4666 75.1497 32.139 75.312C31.813 75.4759 31.4168 75.3438 31.253 75.0175C31.131 74.7732 31.0591 74.4737 31.0156 74.1574C30.9705 73.8328 30.9588 73.4848 30.8719 73.207C30.6496 72.5009 30.3955 71.8082 30.1849 71.0988C30.1447 70.9666 29.9324 70.4111 29.9391 70.0982C29.9458 69.8321 30.0461 69.6297 30.1782 69.4975C30.4172 69.2599 30.6913 69.2114 30.9956 69.3201C31.1209 69.367 31.4001 69.5745 31.4319 69.5979C31.9016 69.8405 32.6973 70.5466 33.0349 70.9549C34.6163 72.854 35.5691 75.2417 37.1471 77.1692C37.5683 77.6846 38.0614 78.2836 38.583 78.6969C38.7535 78.8291 39.0076 78.9412 39.2182 79.0817C39.4706 79.2507 39.6745 79.4549 39.7915 79.6908C39.9537 80.0187 39.82 80.4153 39.4923 80.5776C39.1664 80.7399 38.7685 80.606 38.6064 80.2798C38.5897 80.2446 38.5479 80.2279 38.5128 80.2028C38.4442 80.1526 38.364 80.1091 38.2871 80.0639C38.0965 79.9552 37.9093 79.8497 37.7656 79.736C37.1721 79.2658 36.6021 78.5932 36.1224 78.0092C34.5494 76.0833 33.5983 73.699 32.0203 71.8032C31.9367 71.7028 31.8163 71.5756 31.6776 71.4451H31.6793Z" fill="#6D4B5C"/>
<path fill-rule="evenodd" clip-rule="evenodd" d="M21.1524 71.2661C21.4249 71.9772 21.9966 72.6181 22.4913 73.1636C22.8892 73.6019 23.2904 74.0069 23.73 74.4034C24.6761 75.2601 25.7443 75.8558 26.8342 76.51C27.1468 76.6991 27.2487 77.1057 27.0598 77.4169C26.8726 77.7298 26.4664 77.8319 26.1555 77.6428C24.9921 76.9434 23.8537 76.2992 22.8424 75.3823C22.371 74.9556 21.9414 74.5205 21.5135 74.052C20.8582 73.3292 20.1311 72.4491 19.8318 71.492C19.7533 71.241 19.7499 70.7625 19.8987 70.396C20.0475 70.0296 20.3233 69.7769 20.6743 69.705C20.8833 69.6615 21.0922 69.6966 21.2928 69.802C21.3931 69.8556 21.5803 69.9945 21.6288 70.0296C22.2356 70.212 22.7154 70.5433 23.1767 70.9147C23.5512 71.2142 23.9105 71.5422 24.3619 71.7798C25.7476 72.5077 27.3407 73.5534 28.8668 73.9048C29.7026 74.0989 30.5501 73.9466 31.3826 74.032C31.7437 74.0704 32.0078 74.3934 31.9727 74.7581C31.9342 75.1196 31.6099 75.3839 31.2472 75.3488C30.3613 75.2568 29.4603 75.4007 28.5726 75.1949C26.9412 74.8184 25.2278 73.7274 23.7501 72.9511C23.2185 72.6733 22.7906 72.2985 22.3509 71.9471C22.0133 71.6761 21.6706 71.4167 21.2226 71.2879C21.1975 71.2812 21.1741 71.2728 21.1507 71.2644L21.1524 71.2661Z" fill="#6D4B5C"/>
<path fill-rule="evenodd" clip-rule="evenodd" d="M19.7471 71.2042C20.0246 73.7927 21.7597 76.5418 23.433 78.4543C23.672 78.7287 24.0899 78.7571 24.3641 78.5162C24.6382 78.2769 24.6666 77.8586 24.4276 77.5842C22.9181 75.8591 21.3117 73.4011 21.0626 71.0636C21.0225 70.7022 20.6982 70.4395 20.3338 70.4763C19.9728 70.5165 19.7103 70.8411 19.7471 71.2059V71.2042Z" fill="#6D4B5C"/>
<path fill-rule="evenodd" clip-rule="evenodd" d="M20.0237 73.3041C20.3798 74.7715 20.7525 76.3811 21.4346 77.7431C24.0105 82.9017 28.8682 87.329 34.1471 89.5042C35.1701 89.9259 36.2483 90.2455 37.2646 90.6688C37.7778 90.883 38.4615 91.2093 39.0232 91.2093C39.3876 91.2093 39.6835 90.9131 39.6835 90.5483C39.6835 90.1836 39.3876 89.8874 39.0232 89.8874C38.6186 89.8874 38.1422 89.603 37.7728 89.449C36.7515 89.0224 35.6716 88.7011 34.6486 88.2811C29.6538 86.2214 25.0536 82.035 22.6147 77.1525C21.9778 75.8741 21.6418 74.3666 21.3075 72.9912C21.2223 72.6365 20.8645 72.4173 20.5102 72.5059C20.1575 72.5913 19.9385 72.9493 20.0254 73.3041H20.0237Z" fill="#6D4B5C"/>
<path fill-rule="evenodd" clip-rule="evenodd" d="M16.4769 57.1775C16.42 57.7096 16.644 58.317 16.7527 58.8223C16.9165 59.5853 17.0335 60.36 17.2007 61.123C17.7189 63.494 18.334 65.9067 19.0628 68.2208C19.3019 68.9771 19.4038 69.874 19.7582 70.5851C19.9204 70.9114 20.3182 71.0435 20.6442 70.8796C20.9718 70.7173 21.1039 70.319 20.94 69.9928C20.6158 69.3419 20.5439 68.517 20.3249 67.8226C19.6061 65.5453 19.0027 63.1727 18.4911 60.8402C18.324 60.0789 18.2086 59.3075 18.0448 58.5462C17.9646 58.1647 17.7489 57.7163 17.7907 57.3164C17.8309 56.955 17.5667 56.6287 17.204 56.5886C16.8413 56.5501 16.5153 56.8128 16.4769 57.1775Z" fill="#6D4B5C"/>
<path fill-rule="evenodd" clip-rule="evenodd" d="M27.3332 58.5596C27.2747 58.9461 27.4385 59.5418 27.5054 59.9283C27.6592 60.8151 27.8798 61.6902 28.1172 62.5552C28.8209 65.137 29.2522 67.8159 30.0947 70.3475C30.21 70.6938 30.5845 70.8812 30.9305 70.7658C31.2748 70.6503 31.4637 70.2755 31.3484 69.9291C30.5126 67.4193 30.088 64.7656 29.3926 62.2072C29.167 61.3823 28.9547 60.5474 28.8092 59.7024C28.7624 59.4313 28.602 59.0214 28.6404 58.7487C28.6939 58.3889 28.4431 58.0526 28.0821 57.999C27.7227 57.9455 27.385 58.1982 27.3332 58.5579V58.5596Z" fill="#6D4B5C"/>
<path fill-rule="evenodd" clip-rule="evenodd" d="M27.6989 57.5758C28.0549 57.5858 28.3408 57.8786 28.3408 58.2367C28.3408 58.5948 28.0449 58.8976 27.6805 58.8976C27.3378 58.8976 26.9834 58.6868 26.7294 58.5579C26.2663 58.327 25.6528 58.225 25.148 58.0577C24.4426 57.8234 23.6503 57.7732 22.9081 57.6678C21.9319 57.5272 20.9255 57.2595 19.9527 57.0638C19.6083 56.9952 19.05 56.8697 18.5368 56.8697C18.3764 56.8697 18.2226 56.8831 18.0888 56.9232C18.0103 56.9466 17.93 56.9684 17.9 57.0454C17.7696 57.3867 17.3868 57.554 17.0458 57.4218C16.7047 57.2913 16.5359 56.9082 16.668 56.5668C16.8987 55.9678 17.4386 55.6532 18.1273 55.5696C18.8327 55.4876 19.707 55.6649 20.2084 55.767C21.1613 55.9578 22.1425 56.2221 23.0936 56.3577C23.9127 56.4748 24.7853 56.5434 25.5642 56.8027C26.1276 56.9918 26.8062 57.119 27.3194 57.3767C27.3963 57.4151 27.4849 57.4687 27.5785 57.5206C27.6136 57.539 27.6838 57.5691 27.6972 57.5758H27.6989Z" fill="#6D4B5C"/>
<path fill-rule="evenodd" clip-rule="evenodd" d="M23.836 62.3277C23.7306 62.5938 23.4582 62.7711 23.159 62.741C22.7962 62.7059 22.5304 62.3829 22.5639 62.0199C22.5722 61.9328 22.6307 61.7689 22.6558 61.722C22.721 61.6116 22.7979 61.5463 22.8547 61.5095C23.0135 61.3991 23.174 61.379 23.3178 61.3974C23.4649 61.4175 23.6203 61.4794 23.7507 61.6451C23.7825 61.6852 23.8928 61.799 23.8928 62.06C23.8928 62.1554 23.8727 62.2474 23.836 62.3277ZM22.5722 62.0968C22.5789 62.2608 22.6341 62.3595 22.6725 62.4164C22.6124 62.3227 22.5772 62.2139 22.5722 62.0968Z" fill="#6D4B5C"/>
<path fill-rule="evenodd" clip-rule="evenodd" d="M24.0363 64.9229C24.0496 64.9162 24.0614 64.9078 24.0747 64.9011C24.3957 64.7255 24.5127 64.3239 24.3372 64.0043C24.1616 63.6847 23.7605 63.5659 23.4412 63.7416C23.4295 63.7483 23.4161 63.7567 23.4027 63.7634C23.0835 63.939 22.9648 64.3406 23.1403 64.6602C23.3158 64.9798 23.7187 65.0986 24.0363 64.9229Z" fill="#6D4B5C"/>
</g>
<defs>
<clipPath id="clip0_186_359">
<rect width="118" height="109" fill="white"/>
</clipPath>
</defs>
</svg>
