<svg width="393" height="394" viewBox="0 0 393 394" fill="none" xmlns="http://www.w3.org/2000/svg">
<circle cx="195.5" cy="196.217" r="167.484" fill="url(#paint0_radial_186_2962)"/>
<path d="M206.563 32.38C206.563 32.38 200.269 29.463 197.115 30.2964C193.962 31.1298 183.269 36.3503 181.373 38.4339C179.488 40.5174 178.01 42.8209 177.591 44.0711C177.172 45.3212 165.525 74.8961 164.164 79.9777C162.802 85.0593 163.535 88.3235 163.535 88.3235V92.0855C163.535 92.0855 162.29 93.7755 162.279 95.4308C162.267 97.086 161.232 98.5677 161.232 98.5677C161.232 98.5677 153.471 106.497 152.202 109.842C150.946 113.187 150.201 117.366 150.108 117.563C150.015 117.76 151.05 119.403 151.05 119.403L149.666 121.464C149.666 121.464 146.326 121.95 143.592 123.617C140.869 125.284 135.412 128.629 133.306 131.546C131.212 134.463 129.106 138.016 129.106 140.528C129.106 143.04 129.734 157.231 129.734 157.231L136.657 195.858L131.2 199.829C131.2 199.829 119.867 205.466 116.726 209.228C113.573 212.99 112.944 218.627 112.944 218.627C112.944 218.627 115.039 231.36 116.098 233.872C117.145 236.372 121.345 237.217 122.392 237.217C123.44 237.217 125.964 236.383 126.802 235.967C127.64 235.55 129.758 234.277 129.758 234.277L130.165 231.175L130.793 226.996L130.165 221.984C130.165 221.984 128.513 220.78 129.758 217.828C131.003 214.888 132.05 211.96 132.05 211.96L138.868 206.415L143.93 234.277C143.93 234.277 133.318 242.854 132.259 245.991C131.212 249.128 131.631 251.42 131.631 251.42C131.631 251.42 131.84 256.015 132.678 257.474C133.516 258.932 134.144 262.903 134.144 262.903L140.648 305.071L148.619 354.753C148.619 354.753 150.725 358.885 151.69 356.57C152.656 354.255 153.203 351.326 153.203 351.326L150.946 274.478L153.959 275.23L157.345 340.457L161.115 339.334L161.418 335.769L162.616 278.24C162.616 278.24 183.444 281.493 184.921 281.909C186.387 282.326 195.161 284.051 195.161 284.051C195.161 284.051 201.502 290.683 203.596 290.683C205.691 290.683 207.378 287.546 207.378 287.546L209.472 283.993L211.985 282.534C211.985 282.534 223.737 283.576 227.728 282.534C231.719 281.493 240.993 280.115 240.993 280.115L244.379 340.469C244.379 340.469 247.253 343.571 247.764 340.098C248.288 336.614 250.022 277.499 250.022 277.499L253.315 276.075L251.639 355.818C251.639 355.818 251.534 355.644 253.792 355.841C256.049 356.026 256.433 353.966 256.433 353.966L268.848 265.843C268.848 265.843 273.909 260.043 273.258 256.86C272.606 253.677 272.211 250.598 272.211 250.598C272.211 250.598 270.745 247.681 270.116 246.419C269.488 245.169 268.65 243.919 268.65 243.919C268.65 243.919 267.394 242.461 265.287 241.002C263.193 239.544 260.878 238.085 260.878 238.085L256.258 234.948L262.553 206.346C262.553 206.346 269.267 211.774 270.523 215.328C271.78 218.882 270.105 225.561 270.105 229.519C270.105 233.478 274.177 237.101 276.19 237.448C278.203 237.796 281.856 236.407 282.904 234.531C283.951 232.656 285.207 230.144 286.057 224.299C286.895 218.453 286.685 214.275 285.01 211.983C283.334 209.691 280.809 208.429 279.971 207.596C279.134 206.762 262.553 196.113 262.553 196.113C262.553 196.113 269.686 171.481 270.733 156.028C271.78 140.575 267.801 133.896 266.742 132.229C265.695 130.562 258.353 125.133 257.294 124.3C256.247 123.466 249.952 120.121 249.952 120.121L246.799 110.722C246.799 110.722 238.619 95.0604 237.77 94.2269C236.932 93.3935 233.36 89.4232 233.36 89.4232C233.36 89.4232 232.731 85.2445 232.941 83.5776C233.15 81.9108 235.873 75.2318 237.351 72.9283C238.817 70.6364 241.761 65.2076 240.073 60.1955C238.398 55.1834 231.684 42.4505 230.835 42.0338C229.985 41.6171 220.258 32.8546 219.292 31.5929C218.327 30.3311 216.779 30.3427 213.417 30.5511C210.054 30.7594 206.493 32.4263 206.493 32.4263L206.563 32.38Z" fill="white"/>
<path d="M207.552 37.1953C207.552 37.1953 203.038 33.0166 196.58 34.3015C190.122 35.5864 180.442 40.4017 177.219 49.0716C173.996 57.7415 163.989 83.7513 165.595 86.9577C167.212 90.164 167.852 89.2033 164.629 94.0186C161.406 98.8339 145.582 112.967 151.074 119.392C156.566 125.816 167.538 138.977 175.601 138.016C183.676 137.056 184.956 122.598 184.956 122.598C184.956 122.598 186.888 92.1318 186.573 91.773C186.259 91.4142 186.387 68.1362 188.191 66.0873C189.994 64.0385 189.994 64.0269 193.741 56.3062C195.475 52.741 200.78 40.0776 203.363 39.4409C205.947 38.8043 209.495 45.5411 211.753 44.2563C214.01 42.9714 207.552 37.1953 207.552 37.1953Z" fill="#9E958F"/>
<path d="M211.741 44.2563L220.002 43.8859C220.002 43.8859 226.588 49.0716 227.88 57.4174C229.171 65.7632 225.448 77.4775 225.297 81.1816C225.145 84.8857 230.789 89.2148 232.08 86.9577C233.372 84.712 237.246 71.8634 237.886 66.724C238.526 61.5845 239.818 57.4174 233.046 47.1385C226.262 36.8597 218.199 31.0836 215.29 32.0443C212.381 33.0051 206.563 32.3684 206.563 32.3684L211.741 44.2447V44.2563Z" fill="#9E958F"/>
<path d="M215.139 135.215C215.139 135.215 212.777 125.48 206.366 123.466C199.954 121.452 194.556 122.795 189.494 128.837C184.433 134.879 177.347 141.929 176.672 145.957C175.997 149.985 157.776 187.582 154.402 196.634C151.027 205.697 147.618 230.249 164.152 240.319C180.686 250.39 191.507 246.651 191.507 246.651L192.461 239.509C192.461 239.509 194.881 243.63 198.593 242.958C202.305 242.287 205.342 238.594 205.342 238.594L210.869 246.697L214.452 237.587C214.452 237.587 217.152 240.608 219.514 240.608C221.876 240.608 224.575 238.93 224.575 238.93C224.575 238.93 222.551 245.308 224.913 246.315C227.275 247.322 230.311 244.972 233.686 239.601C237.06 234.23 243.471 215.768 244.146 209.39C244.821 203.012 245.496 191.599 245.496 191.599C245.496 191.599 252.244 176.493 253.594 169.779C254.944 163.065 252.582 137.218 249.882 131.847C247.183 126.476 246.229 124.821 242.796 122.783C239.364 120.746 231.661 121.776 224.913 125.804C218.164 129.833 215.127 135.204 215.127 135.204L215.139 135.215Z" fill="#D3C6BF"/>
<path d="M251.232 121.788C251.232 121.788 265.73 132.171 268.441 136.894C271.152 141.605 264.054 194.62 264.054 194.62C264.054 194.62 283.625 209.054 284.975 215.432C286.324 221.81 284.276 232.737 281.263 235.238C278.249 237.738 273.502 237.587 272.827 233.223C272.152 228.86 272.827 223.153 269.79 217.446C266.753 211.74 261.692 202.34 261.692 202.34L254.943 234.231C254.943 234.231 269.197 243.618 269.115 250.343C269.022 257.069 264.659 268.285 243.901 271.237C230.206 273.181 222.213 272.499 222.213 272.499C222.213 272.499 222.213 264.778 222.55 262.092C222.888 259.407 224.912 246.315 224.912 246.315C224.912 246.315 228.287 247.658 230.986 243.63C233.685 239.601 239.422 230.538 239.422 230.538C239.422 230.538 245.495 205.697 245.495 204.69V191.599C245.495 191.599 255.281 170.786 254.943 162.058C254.606 153.331 248.87 128.49 247.52 125.133C246.17 121.776 251.232 121.776 251.232 121.776V121.788Z" fill="#C36963"/>
<path d="M149.677 121.452C149.677 121.452 145.291 128.837 145.628 133.872C145.966 138.908 147.99 180.185 150.69 184.549C153.389 188.913 164.187 181.528 164.187 181.528C164.187 181.528 151.364 206.033 150.69 212.411C150.015 218.789 154.064 231.545 154.064 231.545C154.064 231.545 156.763 237.923 167.561 243.63C178.359 249.336 184.095 249.672 186.12 248.665C188.144 247.658 191.518 246.651 191.518 246.651C191.518 246.651 191.856 270.82 192.193 272.499C192.193 272.499 186.457 274.513 177.684 273.17C168.911 271.827 154.739 268.806 147.653 263.771C140.567 258.735 133.481 253.7 132.468 249.336C131.456 244.972 133.818 242.958 135.843 241.28C137.867 239.601 143.941 234.231 143.941 234.231L138.88 206.369C138.88 206.369 129.42 213.904 129.769 217.782C130.118 221.66 131.119 230.202 129.769 234.231C128.419 238.259 121.671 239.937 119.309 238.259C116.947 236.58 113.235 225.167 114.247 217.446C115.26 209.726 125.045 205.362 126.057 204.69C127.07 204.019 137.192 194.284 137.192 194.284C137.192 194.284 129.769 162.73 129.432 150.981C129.094 139.232 133.143 130.84 136.518 128.826C139.892 126.811 149.677 121.441 149.677 121.441V121.452Z" fill="#C36963"/>
<path d="M225.25 89.2264C225.25 89.2264 217.827 85.8696 213.103 87.2123C208.379 88.555 201.293 92.5832 201.293 92.5832L208.716 115.745C208.716 115.745 213.103 116.081 214.453 116.081C215.802 116.081 216.14 116.081 217.827 115.074C219.514 114.067 230.079 107.874 227.612 107.689C225.146 107.504 222.865 107.909 221.876 109.032C220.887 110.155 219.142 109.032 218.502 110.039C217.862 111.034 214.79 109.367 216.477 107.353C218.164 105.339 219.514 103.325 221.539 103.325C223.563 103.325 230.649 102.318 230.649 102.318C230.649 102.318 223.563 97.6185 221.876 97.6185C220.189 97.6185 214.453 99.9683 214.453 99.9683C214.453 99.9683 213.778 96.6115 214.79 96.6115C215.802 96.6115 220.189 92.5832 223.226 93.5903L226.263 94.5974L225.25 89.2264Z" fill="#E2BAA5"/>
<path d="M194.474 277.869C193.113 274.895 192.193 272.487 192.193 272.487C192.193 272.487 189.599 274.605 177.684 273.158C154.971 270.392 132.131 252.682 132.131 252.682C129.874 256.432 134.388 264.303 134.388 264.303L148.712 356.512C148.712 356.512 150.271 356.35 151.725 356.512C153.18 356.674 153.238 351.269 153.238 351.269L150.981 274.42L153.994 275.172L155.879 337.772C155.879 337.772 156.996 339.439 157.392 340.399C157.787 341.36 161.162 339.277 161.162 339.277L162.674 278.17C162.674 278.17 164.559 278.923 170.214 279.293C175.869 279.664 194.334 282.291 194.334 282.291C194.625 282.893 194.928 283.449 195.219 283.981C194.951 282.106 194.718 279.976 194.497 277.869H194.474Z" fill="#CD9A69"/>
<path d="M271.163 253.434C269.686 253.249 269.023 257.057 265.893 261.305C262.763 265.553 252.582 267.787 241.772 271.052C230.963 274.316 222.213 272.487 222.213 272.487C222.213 272.487 220.84 273.135 219.316 273.876C217.07 279.108 213.51 282.662 213.51 282.662L241.016 280.034C241.016 280.034 243.541 339.415 244.402 340.388C245.275 341.349 247.788 340.017 247.788 340.017L250.045 277.418H253.059L251.79 354.197L253.815 355.76C255.84 357.322 256.456 353.885 256.456 353.885L268.895 267.29C268.895 267.29 269.267 264.292 270.023 263.169C270.78 262.046 272.63 253.608 271.152 253.422L271.163 253.434Z" fill="#CD9A69"/>
<path d="M213.603 73.0441C213.603 73.0441 215.383 79.2254 213.777 79.2254C212.172 79.2254 210.229 79.399 210.229 79.399" stroke="#653431" stroke-linecap="round" stroke-linejoin="round"/>
<path d="M215.383 65.798C215.383 65.798 214.499 63.1472 217.338 62.0823C220.177 61.0174 224.796 62.2559 225.506 64.027" stroke="#653431" stroke-linecap="round" stroke-linejoin="round"/>
<path d="M205.621 63.506C205.621 63.506 206.156 61.0289 201.886 62.4411C197.627 63.8533 195.486 66.8629 195.486 66.8629" stroke="#653431" stroke-linecap="round" stroke-linejoin="round"/>
<path d="M198.861 70.9259C198.861 70.9259 203.655 72.3381 206.145 69.6873" stroke="#653431" stroke-linecap="round" stroke-linejoin="round"/>
<path d="M216.093 69.8609C216.093 69.8609 219.293 71.6319 221.957 70.2197" stroke="#653431" stroke-linecap="round" stroke-linejoin="round"/>
<path d="M213.964 45.4833C213.964 45.4833 212.544 47.428 211.125 46.7219C209.705 46.0158 207.041 39.6494 204.202 41.4204C201.363 43.1914 193.904 59.0959 189.995 64.0386C186.085 68.9812 181.827 67.2218 180.407 78.8781" stroke="#653431" stroke-linecap="round" stroke-linejoin="round"/>
<path d="M189.634 65.4507C189.634 65.4507 186.434 77.4659 186.26 91.4258" stroke="#653431" stroke-linecap="round" stroke-linejoin="round"/>
<path d="M187.679 82.4086C187.679 82.4086 193.718 91.2405 197.976 92.6527" stroke="#653431" stroke-linecap="round" stroke-linejoin="round"/>
<path d="M220.003 43.8859C220.003 43.8859 226.926 54.3153 226.751 62.7884C226.577 71.2731 225.157 81.3437 222.842 85.9391" stroke="#653431" stroke-linecap="round" stroke-linejoin="round"/>
<path d="M206.145 32.0443C206.145 32.0443 212.183 27.9814 218.397 30.2733C224.61 32.5652 243.087 54.6625 240.597 65.6128C238.107 76.563 234.733 76.2158 234.023 80.6376C233.313 85.0593 233.313 85.7654 233.662 87.3512" stroke="#653431" stroke-linecap="round" stroke-linejoin="round"/>
<path d="M224.087 44.592C224.087 44.592 237.759 60.8437 235.455 67.0365C233.151 73.2178 226.216 76.401 228.706 81.7025" stroke="#653431" stroke-linecap="round" stroke-linejoin="round"/>
<path d="M212.008 40.3554C212.008 40.3554 208.634 32.0443 201.176 30.8174C193.718 29.5904 183.409 35.9452 181.814 38.0635" stroke="#653431" stroke-linecap="round" stroke-linejoin="round"/>
<path d="M178.441 40.5291C178.441 40.5291 163.338 77.6395 162.814 85.0593C162.279 92.4791 165.118 91.9466 162.279 97.0745C159.44 102.202 149.317 108.742 150.027 117.748C150.737 126.765 170.459 142.485 177.021 139.66" stroke="#653431" stroke-linecap="round" stroke-linejoin="round"/>
<path d="M187.144 107.677C187.144 107.677 188.563 96.0095 190.169 95.6623C191.763 95.3035 199.582 95.6623 199.582 95.6623" stroke="#653431" stroke-linecap="round" stroke-linejoin="round"/>
<path d="M200.641 97.2597L189.634 103.267" stroke="#653431" stroke-linecap="round" stroke-linejoin="round"/>
<path d="M201.711 102.561L190.867 107.33" stroke="#653431" stroke-linecap="round" stroke-linejoin="round"/>
<path d="M203.306 105.918L194.067 112.099" stroke="#653431" stroke-linecap="round" stroke-linejoin="round"/>
<path d="M205.086 106.971C205.086 106.971 205.621 107.851 205.086 109.09C204.551 110.328 203.306 113.859 202.061 114.565C200.816 115.271 199.222 115.63 199.222 115.63C199.222 115.63 198.512 121.105 198.151 122.876" stroke="#653431" stroke-linecap="round" stroke-linejoin="round"/>
<path d="M187.319 110.687L185.899 129.416" stroke="#653431" stroke-linecap="round" stroke-linejoin="round"/>
<path d="M201.177 94.6089C201.177 94.6089 207.39 116.88 209.17 117.586C210.951 118.292 216.629 117.76 218.048 117.227" stroke="#653431" stroke-linecap="round" stroke-linejoin="round"/>
<path d="M201.525 92.1319C201.525 92.1319 203.306 88.2425 210.764 86.8304C218.222 85.4182 225.157 88.6014 225.157 88.6014" stroke="#653431" stroke-linecap="round" stroke-linejoin="round"/>
<path d="M244.693 106.798C244.693 106.798 243.099 101.855 238.829 95.6623C234.57 89.4811 226.926 85.0593 225.157 84.8857" stroke="#653431" stroke-linecap="round" stroke-linejoin="round"/>
<path d="M227.647 90.0135C227.647 90.0135 230.672 92.8379 231.382 94.609L232.091 96.38C232.091 96.38 227.472 93.5556 222.143 94.4353C216.814 95.315 213.614 99.2044 213.614 99.2044" stroke="#653431" stroke-linecap="round" stroke-linejoin="round"/>
<path d="M215.918 100.964C216.628 100.964 219.827 98.8455 222.317 98.1394C224.807 97.4333 231.556 102.202 231.556 102.202C231.556 102.202 224.098 102.561 222.143 103.082C220.188 103.615 216.279 107.145 216.279 107.851" stroke="#653431" stroke-linecap="round" stroke-linejoin="round"/>
<path d="M217.873 111.034C217.873 111.034 220.363 110.861 220.898 110.155C221.433 109.449 225.157 107.504 225.157 107.504H229.951" stroke="#653431" stroke-linecap="round" stroke-linejoin="round"/>
<path d="M228.881 109.622C228.881 109.622 225.332 112.447 224.261 112.979C223.191 113.512 218.758 117.216 220.003 117.574C221.248 117.933 223.912 116.51 225.157 115.989C226.402 115.456 232.267 113.338 232.267 113.338C232.267 113.338 235.466 118.998 239.376 120.758C243.285 122.529 246.485 124.114 248.44 121.637C250.395 119.16 247.195 110.687 247.195 110.687" stroke="#653431" stroke-linecap="round" stroke-linejoin="round"/>
<path d="M215.744 142.137C215.744 142.137 215.034 126.059 205.446 123.05C195.859 120.04 184.84 130.469 180.046 139.487C175.252 148.504 168.317 171.828 168.317 171.828" stroke="#653431" stroke-linecap="round" stroke-linejoin="round"/>
<path d="M166.177 176.423C166.177 176.423 153.029 200.454 151.26 214.414C149.491 228.373 155.705 238.27 169.737 244.278C183.769 250.285 189.983 247.635 189.983 247.635" stroke="#653431" stroke-linecap="round" stroke-linejoin="round"/>
<path d="M185.189 143.017C185.189 143.017 180.035 156.444 182.699 183.484C185.364 210.524 191.763 242.148 191.763 244.984C191.763 247.82 191.763 276.619 197.267 284.919C202.77 293.218 207.75 290.753 209.344 283.148C210.939 275.554 208.46 244.093 207.75 242.507" stroke="#653431" stroke-linecap="round" stroke-linejoin="round"/>
<path d="M206.854 237.564C206.854 237.564 216.442 163.876 215.919 151.328" stroke="#653431" stroke-linecap="round" stroke-linejoin="round"/>
<path d="M192.473 239.509C192.473 239.509 196.731 247.102 205.26 240.921" stroke="#653431" stroke-linecap="round" stroke-linejoin="round"/>
<path d="M215.384 209.818C215.384 209.818 215.744 230.144 213.964 239.324C212.184 248.503 210.59 252.219 210.59 252.219" stroke="#653431" stroke-linecap="round" stroke-linejoin="round"/>
<path d="M211.125 282.801C211.125 282.801 215.209 281.215 220.189 272.371C225.157 263.539 220.189 247.808 226.589 234.913C232.988 222.019 251.628 181.019 254.479 169.536C257.318 158.053 251.279 131.187 248.975 127.483" stroke="#653431" stroke-linecap="round" stroke-linejoin="round"/>
<path d="M237.234 121.996C237.234 121.996 225.506 122.17 221.247 128.363C216.989 134.544 216.093 136.489 216.093 136.489" stroke="#653431" stroke-linecap="round" stroke-linejoin="round"/>
<path d="M224.982 246.223C224.982 246.223 231.382 251.165 238.654 231.198C245.938 211.23 246.997 193.208 246.997 193.208" stroke="#653431" stroke-linecap="round" stroke-linejoin="round"/>
<path d="M149.666 121.105C149.666 121.105 146.292 123.223 145.407 132.773C144.523 142.311 147.188 180.127 151.097 185.255C155.007 190.383 161.93 180.66 161.93 180.66" stroke="#653431" stroke-linecap="round" stroke-linejoin="round"/>
<path d="M153.925 169.883C153.925 169.883 149.841 164.582 159.428 155.75C169.016 146.918 174.706 141.616 174.706 141.616" stroke="#653431" stroke-linecap="round" stroke-linejoin="round"/>
<path d="M147.001 122.17C147.001 122.17 131.899 126.765 129.595 141.605C127.291 156.444 137.588 196.564 137.588 196.564" stroke="#653431" stroke-linecap="round" stroke-linejoin="round"/>
<path d="M134.563 198.509C134.563 198.509 116.796 208.047 114.492 212.469C112.188 216.891 112.537 238.444 122.486 237.738C132.434 237.032 131.189 229.438 130.119 221.66C129.048 213.881 134.377 210.351 139.183 205.049C143.976 199.748 144.337 198.335 142.731 197.629" stroke="#653431" stroke-linecap="round" stroke-linejoin="round"/>
<path d="M138.298 206.288L144.511 235.446" stroke="#653431" stroke-linecap="round" stroke-linejoin="round"/>
<path d="M253.745 122.17C253.745 122.17 268.848 126.765 271.152 141.605C273.456 156.444 263.158 196.564 263.158 196.564" stroke="#653431" stroke-linecap="round" stroke-linejoin="round"/>
<path d="M266.172 198.509C266.172 198.509 283.94 208.047 286.243 212.469C288.547 216.891 288.198 238.444 278.25 237.738C268.302 237.032 269.547 229.438 270.617 221.66C271.687 213.881 266.358 210.351 261.553 205.049C256.748 199.748 256.399 198.335 258.004 197.629" stroke="#653431" stroke-linecap="round" stroke-linejoin="round"/>
<path d="M262.449 206.288L256.224 235.446" stroke="#653431" stroke-linecap="round" stroke-linejoin="round"/>
<path d="M150.004 232.969C150.004 232.969 131.888 239.277 131.376 248.156C130.864 257.034 156.741 273.587 185.376 275.635" stroke="#653431" stroke-linecap="round" stroke-linejoin="round"/>
<path d="M221.783 274.154C221.783 274.154 260.867 275.149 269.035 257.057C277.203 238.965 243.635 230.839 240.609 230.839" stroke="#653431" stroke-linecap="round" stroke-linejoin="round"/>
<path d="M131.34 255.321C131.34 255.321 132.329 261.189 135.296 263.643C138.263 266.086 157.054 280.543 191.681 282.963" stroke="#653431" stroke-linecap="round" stroke-linejoin="round"/>
<path d="M212.812 282.164C212.812 282.164 228.345 284.305 250.243 276.932C272.141 269.558 272.897 258.377 272.653 253.619" stroke="#653431" stroke-linecap="round" stroke-linejoin="round"/>
<path d="M135.413 267.764L148.41 354.556C148.55 355.505 149.317 356.246 150.272 356.362C151.563 356.524 152.703 355.505 152.692 354.209L151.458 276.376" stroke="#653431" stroke-linecap="round" stroke-linejoin="round"/>
<path d="M154.507 277.129L156.985 339.439C157.02 340.446 157.823 341.268 158.835 341.325C159.952 341.395 160.906 340.538 160.953 339.427L163.164 281.423" stroke="#653431" stroke-linecap="round" stroke-linejoin="round"/>
<path d="M269.081 267.764L256.084 354.556C255.944 355.505 255.176 356.246 254.222 356.362C252.93 356.524 251.79 355.505 251.802 354.209L253.035 276.376" stroke="#653431" stroke-linecap="round" stroke-linejoin="round"/>
<path d="M249.987 277.129L247.509 339.439C247.474 340.446 246.671 341.268 245.658 341.325C244.541 341.395 243.587 340.538 243.541 339.427L241.33 281.423" stroke="#653431" stroke-linecap="round" stroke-linejoin="round"/>
<path d="M229.928 83.4851C229.928 83.4851 226.879 78.172 239.597 76.401C252.314 74.63 260.971 68.0436 261.739 56.6535" stroke="#653431" stroke-linecap="round" stroke-linejoin="round"/>
<path d="M236.548 86.7725C236.548 86.7725 234.512 79.9315 249.277 79.6884C264.043 79.4337 276.004 71.8403 275.492 57.4059" stroke="#653431" stroke-linecap="round" stroke-linejoin="round"/>
<path d="M260.471 53.0998C260.471 53.0998 260.471 50.3102 254.362 50.0671C248.254 49.8124 249.022 55.8895 251.314 57.4059C253.606 58.9222 256.399 56.1441 256.154 53.8638C255.898 51.5835 253.35 53.0998 253.35 53.0998" stroke="#653431" stroke-linecap="round" stroke-linejoin="round"/>
<g filter="url(#filter0_d_186_2962)">
<path d="M367.446 60.2553C367.446 84.5231 339.434 104.196 304.88 104.196C296.203 104.196 283.601 101.625 276.932 99.9438C247.396 119.394 251.842 122.213 261.052 91.6135C249.488 83.6401 242.314 72.536 242.314 60.2553C242.314 35.9874 270.326 16.3145 304.88 16.3145C339.434 16.3145 367.446 35.9874 367.446 60.2553Z" fill="white"/>
<path d="M262.103 91.9297L262.333 91.1641L261.675 90.7102C250.315 82.8776 243.412 72.0755 243.412 60.2553C243.412 48.576 250.151 37.8917 261.27 30.0823C272.386 22.2752 287.801 17.4117 304.88 17.4117C321.959 17.4117 337.374 22.2752 348.49 30.0823C359.61 37.8917 366.349 48.576 366.349 60.2553C366.349 71.9346 359.61 82.6189 348.49 90.4282C337.374 98.2353 321.959 103.099 304.88 103.099C296.346 103.099 283.855 100.557 277.2 98.8799L276.732 98.7618L276.329 99.0274C270.442 102.904 265.895 106.126 262.48 108.546C261.601 109.169 260.797 109.739 260.065 110.253C258.263 111.518 256.925 112.422 255.959 112.969C255.684 113.124 255.456 113.241 255.268 113.326C255.281 113.24 255.298 113.142 255.319 113.033C255.494 112.129 255.906 110.785 256.535 108.908C256.825 108.041 257.158 107.071 257.526 105.996C258.736 102.469 260.333 97.809 262.103 91.9297ZM254.74 113.508C254.74 113.508 254.742 113.507 254.746 113.507C254.742 113.508 254.739 113.508 254.74 113.508Z" stroke="black" stroke-width="2.19435"/>
</g>
<g filter="url(#filter1_d_186_2962)">
<path d="M43.2566 253.086C43.2566 234.531 65.0524 219.49 91.9388 219.49C98.6908 219.49 108.496 221.456 113.685 222.741C136.667 207.87 133.208 205.714 126.041 229.11C135.039 235.207 140.621 243.697 140.621 253.086C140.621 271.641 118.825 286.683 91.9388 286.683C65.0524 286.683 43.2566 271.641 43.2566 253.086Z" fill="white"/>
<path d="M124.992 228.789L124.755 229.564L125.426 230.019C134.222 235.978 139.524 244.166 139.524 253.086C139.524 261.9 134.348 269.998 125.739 275.939C117.135 281.878 105.188 285.585 91.9388 285.585C78.6898 285.585 66.7429 281.878 58.1385 275.939C49.5295 269.998 44.3538 261.9 44.3538 253.086C44.3538 244.272 49.5295 236.174 58.1385 230.233C66.7429 224.295 78.6898 220.587 91.9388 220.587C98.5502 220.587 108.247 222.525 113.421 223.806L113.883 223.92L114.281 223.662C118.866 220.696 122.407 218.23 125.065 216.379C125.748 215.903 126.373 215.468 126.942 215.076C128.346 214.108 129.377 213.423 130.117 213.011C130.146 212.995 130.175 212.979 130.202 212.964C130.046 213.626 129.752 214.552 129.327 215.8C129.102 216.46 128.844 217.2 128.557 218.021C127.616 220.718 126.371 224.288 124.992 228.789ZM130.983 212.626C130.982 212.627 130.977 212.628 130.967 212.628C130.978 212.626 130.983 212.626 130.983 212.626Z" stroke="black" stroke-width="2.19435"/>
</g>
<path d="M273.624 53.5881H275.771V55.0232H273.624V53.5881ZM272.321 48.9668H274.085V61.1586H272.321V48.9668ZM264.895 50.1386H266.646V57.7091H264.895V50.1386ZM264.895 56.7348H265.949C267.687 56.7348 269.569 56.6163 271.531 56.2213L271.715 57.6564C269.701 58.0777 267.739 58.1831 265.949 58.1831H264.895V56.7348ZM278.008 52.2715H286.46V53.6539H278.008V52.2715ZM276.638 54.9179H287.685V56.3135H276.638V54.9179ZM278.008 49.4144H279.746V52.9561H278.008V49.4144ZM277.889 59.5129H286.526V60.9085H277.889V59.5129ZM277.889 57.2878H279.64V59.8815H277.889V57.2878ZM299.265 53.0746H301.279V54.4966H299.265V53.0746ZM296.658 50.0332H298.001V52.0872C298.001 54.852 297.237 57.5511 295.288 58.7492L294.235 57.4326C296.026 56.3267 296.658 54.1542 296.658 52.0872V50.0332ZM297.04 50.0332H298.356V52.0082C298.356 53.9962 298.87 56.0238 300.529 57.1035L299.581 58.4727C297.645 57.2746 297.04 54.6414 297.04 52.0082V50.0332ZM303.267 48.98H304.939V61.1718H303.267V48.98ZM300.792 49.1643H302.425V60.6188H300.792V49.1643ZM309.244 49.6383H310.679V50.7179C310.679 53.1404 309.625 55.2734 307.308 56.0765L306.373 54.6941C308.414 54.0094 309.244 52.3768 309.244 50.7179V49.6383ZM309.599 49.6383H311.021V50.889C311.021 52.3505 311.837 53.7724 313.746 54.3649L312.838 55.721C310.639 54.9837 309.599 53.0878 309.599 50.889V49.6383ZM314.418 48.98H316.169V56.1818H314.418V48.98ZM315.682 51.7975H317.788V53.2458H315.682V51.7975ZM312.193 56.4583C314.721 56.4583 316.314 57.3404 316.314 58.815C316.314 60.3028 314.721 61.1718 312.193 61.1718C309.652 61.1718 308.059 60.3028 308.059 58.815C308.059 57.3404 309.652 56.4583 312.193 56.4583ZM312.193 57.8144C310.639 57.8144 309.797 58.1436 309.797 58.815C309.797 59.4997 310.639 59.8157 312.193 59.8157C313.746 59.8157 314.576 59.4997 314.576 58.815C314.576 58.1436 313.746 57.8144 312.193 57.8144ZM323.554 53.4696H325.555V54.8784H323.554V53.4696ZM327.491 48.98H329.163V61.1718H327.491V48.98ZM325.002 49.1643H326.648V60.6188H325.002V49.1643ZM321.421 49.8358C323.041 49.8358 324.081 51.5079 324.081 54.2596C324.081 57.0245 323.041 58.6966 321.421 58.6966C319.815 58.6966 318.788 57.0245 318.788 54.2596C318.788 51.5079 319.815 49.8358 321.421 49.8358ZM321.421 51.4815C320.763 51.4815 320.381 52.4031 320.381 54.2596C320.381 56.1292 320.763 57.0376 321.421 57.0376C322.106 57.0376 322.488 56.1292 322.488 54.2596C322.488 52.4031 322.106 51.4815 321.421 51.4815ZM264.527 74.0107H275.547V75.3668H264.527V74.0107ZM269.161 72.852H270.912V74.5636H269.161V72.852ZM265.856 77.605H274.309V78.9611H265.856V77.605ZM265.856 75.9461H267.608V78.4608H265.856V75.9461ZM265.053 67.9674H274.981V69.284H265.053V67.9674ZM270.043 69.6263C272.637 69.6263 274.125 70.2715 274.125 71.4828C274.125 72.6941 272.637 73.3524 270.043 73.3524C267.45 73.3524 265.962 72.6941 265.962 71.4828C265.962 70.2715 267.45 69.6263 270.043 69.6263ZM270.043 70.8508C268.45 70.8508 267.752 71.0351 267.752 71.4828C267.752 71.9304 268.45 72.1147 270.043 72.1147C271.623 72.1147 272.334 71.9304 272.334 71.4828C272.334 71.0351 271.623 70.8508 270.043 70.8508ZM269.161 66.9273H270.912V68.81H269.161V66.9273ZM279.377 68.9022H280.759V70.2715C280.759 73.0232 279.601 75.8276 277.363 76.8809L276.375 75.4984C278.39 74.5505 279.377 72.2727 279.377 70.2715V68.9022ZM279.746 68.9022H281.128V70.2715C281.128 72.1147 282.076 74.274 284.077 75.1956L283.116 76.5781C280.878 75.5379 279.746 72.8652 279.746 70.2715V68.9022ZM276.849 68.1517H283.537V69.5868H276.849V68.1517ZM284.433 66.98H286.197V79.1718H284.433V66.98ZM285.802 71.6276H287.961V73.0759H285.802V71.6276ZM297.124 66.9931H298.888V75.7486H297.124V66.9931ZM290.765 77.5655H299.191V78.9611H290.765V77.5655ZM290.765 74.8665H292.516V78.1317H290.765V74.8665ZM292.252 67.7568C294.122 67.7568 295.557 69.047 295.557 70.8508C295.557 72.6414 294.122 73.9448 292.252 73.9448C290.383 73.9448 288.935 72.6414 288.935 70.8508C288.935 69.047 290.383 67.7568 292.252 67.7568ZM292.252 69.2709C291.344 69.2709 290.646 69.8502 290.646 70.8508C290.646 71.8383 291.344 72.4176 292.252 72.4176C293.148 72.4176 293.846 71.8383 293.846 70.8508C293.846 69.8502 293.148 69.2709 292.252 69.2709ZM309.315 66.98H311.066V73.0759H309.315V66.98ZM307.182 69.5605H309.525V70.9561H307.182V69.5605ZM305.194 67.4276H307.037C307.037 70.6138 305.167 72.5361 301.599 73.3919L301.007 72.0094C303.956 71.3643 305.194 69.995 305.194 68.3097V67.4276ZM301.705 67.4276H306.655V68.81H301.705V67.4276ZM303.008 73.5367H311.066V76.9072H304.786V78.4081H303.034V75.6169H309.315V74.906H303.008V73.5367ZM303.034 77.684H311.316V79.0533H303.034V77.684ZM320.913 66.98H322.664V79.1718H320.913V66.98ZM322.124 71.7461H324.244V73.1944H322.124V71.7461ZM314.936 68.2176H316.568C316.568 71.6013 316.252 74.195 314.093 76.6176L312.724 75.6301C314.606 73.5499 314.936 71.5223 314.936 68.4282V68.2176ZM313.264 68.2176H315.62V69.6395H313.264V68.2176ZM318.293 68.2176H319.926C319.926 71.7593 319.636 74.748 317.516 77.3944L316.147 76.4201C317.99 74.0897 318.293 71.7461 318.293 68.4151V68.2176ZM316.976 68.2176H319.017V69.6395H316.976V68.2176ZM330.139 73.8406C330.109 73.862 329.756 74.1106 329.078 74.5863C328.646 74.8863 328.316 75.1628 328.088 75.4156C327.883 75.6428 327.656 75.7564 327.407 75.7564C327.163 75.7564 326.948 75.6685 326.764 75.4928C326.58 75.3128 326.488 75.1071 326.488 74.8756C326.488 74.5327 326.764 74.1492 327.317 73.7249C327.827 73.3649 328.337 73.0027 328.847 72.6384C329.4 72.2184 329.676 71.8391 329.676 71.5005C329.676 71.1019 329.473 70.7291 329.066 70.3819C328.663 70.0305 328.243 69.8547 327.806 69.8547C327.574 69.8547 327.257 69.9876 326.854 70.2533C326.451 70.5148 326.166 70.6455 325.999 70.6455C325.746 70.6455 325.532 70.5533 325.356 70.369C325.185 70.1805 325.099 69.9726 325.099 69.7455C325.099 69.3169 325.474 68.9247 326.224 68.569C326.858 68.2647 327.386 68.1126 327.806 68.1126C328.736 68.1126 329.576 68.4554 330.326 69.1412C331.08 69.8269 331.457 70.6133 331.457 71.5005C331.457 72.3791 331.018 73.1591 330.139 73.8406ZM327.053 78.4629C326.809 78.4629 326.586 78.3857 326.385 78.2314C326.166 78.06 326.057 77.8479 326.057 77.595C326.057 77.3035 326.143 77.0335 326.314 76.785C326.52 76.4807 326.796 76.3285 327.143 76.3285C327.435 76.3285 327.662 76.4378 327.825 76.6564C327.953 76.8364 328.018 77.0485 328.018 77.2928C328.018 77.5543 327.947 77.7986 327.806 78.0257C327.626 78.3172 327.375 78.4629 327.053 78.4629Z" fill="black"/>
<path d="M53.2751 251.315C53.1251 251.46 52.9323 251.649 52.6965 251.88C52.2508 252.369 51.8972 253.074 51.6358 253.996C51.4044 254.814 51.2886 255.618 51.2886 256.406C51.2886 257.302 51.3958 258.127 51.6101 258.881C51.8929 259.884 52.3344 260.591 52.9344 261.003C53.4744 261.38 53.7444 261.714 53.7444 262.006C53.7444 262.22 53.6587 262.402 53.4873 262.552C53.3201 262.702 53.1294 262.777 52.9151 262.777C52.7394 262.777 52.5423 262.719 52.3237 262.604C50.4122 261.579 49.4564 259.466 49.4564 256.265C49.4564 255.116 49.6965 253.955 50.1765 252.78C50.7208 251.456 51.4386 250.494 52.3301 249.894C52.553 249.748 52.7415 249.675 52.8958 249.675C53.1316 249.675 53.3308 249.761 53.4937 249.933C53.6609 250.1 53.7444 250.293 53.7444 250.511C53.7444 250.725 53.588 250.993 53.2751 251.315ZM58.9564 250.152H60.668C60.668 253.917 59.7727 257.051 55.2304 259.355L54.2956 258.025C58.0874 256.116 58.9564 253.786 58.9564 250.362V250.152ZM55.046 250.152H59.9965V251.534H55.046V250.152ZM58.9959 253.14V254.483L54.6247 254.905L54.4141 253.404L58.9959 253.14ZM62.1426 248.967H63.9068V261.159H62.1426V248.967ZM63.446 253.628H65.5921V255.063H63.446V253.628ZM66.4469 255.445H77.4801V256.827H66.4469V255.445ZM71.0813 254.009H72.8324V255.813H71.0813V254.009ZM67.6845 257.551H76.1371V261.172H74.386V258.934H67.6845V257.551ZM67.8161 253.246H76.3083V254.576H67.8161V253.246ZM67.8161 249.256H76.2161V250.586H69.5541V253.917H67.8161V249.256ZM69.0669 251.258H75.9396V252.535H69.0669V251.258ZM92.1276 248.98H93.8787V257.841H92.1276V248.98ZM93.3784 252.469H95.4981V253.904H93.3784V252.469ZM86.0185 259.566H94.3132V260.961H86.0185V259.566ZM86.0185 256.919H87.7696V260.184H86.0185V256.919ZM87.6774 249.757C89.547 249.757 90.9953 251.06 90.9953 252.864C90.9953 254.655 89.547 255.958 87.6774 255.958C85.8078 255.958 84.3596 254.655 84.3596 252.864C84.3596 251.06 85.8078 249.757 87.6774 249.757ZM87.6774 251.284C86.7821 251.284 86.0712 251.863 86.0712 252.864C86.0712 253.851 86.7821 254.431 87.6774 254.431C88.5859 254.431 89.2837 253.851 89.2837 252.864C89.2837 251.863 88.5859 251.284 87.6774 251.284ZM104.766 248.98H106.53V255.273H104.766V248.98ZM97.8012 259.75H98.6043C100.513 259.75 101.501 259.724 102.673 259.487L102.844 260.777C101.619 261.014 100.592 261.04 98.6043 261.04H97.8012V259.75ZM97.788 255.787H101.988V258.96H99.4864V260.487H97.8012V257.762H100.29V257.077H97.788V255.787ZM102.436 255.787H106.53V261.145H104.792V257.182H102.436V255.787ZM99.8287 249.467C101.685 249.467 103.081 250.639 103.081 252.271C103.081 253.917 101.685 255.076 99.8287 255.076C97.9723 255.076 96.5767 253.917 96.5767 252.271C96.5767 250.639 97.9723 249.467 99.8287 249.467ZM99.8287 250.889C98.9334 250.889 98.262 251.403 98.262 252.271C98.262 253.14 98.9334 253.667 99.8287 253.667C100.724 253.667 101.382 253.14 101.382 252.271C101.382 251.403 100.724 250.889 99.8287 250.889ZM117.141 248.98H118.905V255.616H117.141V248.98ZM110.505 256.129H112.23V257.248H117.167V256.129H118.905V261.04H110.505V256.129ZM112.23 258.604V259.645H117.167V258.604H112.23ZM110.045 249.507H111.295V250.112C111.295 252.192 110.874 254.339 109.241 255.366L108.294 254.115C109.702 253.219 110.045 251.6 110.045 250.112V249.507ZM110.505 249.507H111.704V250.112C111.704 251.534 111.954 253.219 113.336 254.22L112.507 255.484C110.821 254.404 110.505 252.074 110.505 250.112V249.507ZM113.31 249.507H114.521V250.112C114.521 252.1 114.205 254.404 112.507 255.484L111.69 254.22C113.06 253.233 113.31 251.561 113.31 250.112V249.507ZM113.718 249.507H114.956V250.112C114.956 251.653 115.311 253.246 116.72 254.115L115.772 255.366C114.139 254.352 113.718 252.245 113.718 250.112V249.507ZM125.25 255.102H127.002V257.248H125.25V255.102ZM120.616 254.523H131.636V255.905H120.616V254.523ZM126.106 256.774C128.739 256.774 130.333 257.564 130.333 258.973C130.333 260.382 128.739 261.172 126.106 261.172C123.46 261.172 121.867 260.382 121.867 258.973C121.867 257.564 123.46 256.774 126.106 256.774ZM126.106 258.091C124.474 258.091 123.644 258.367 123.644 258.973C123.644 259.566 124.474 259.855 126.106 259.855C127.739 259.855 128.568 259.566 128.568 258.973C128.568 258.367 127.739 258.091 126.106 258.091ZM124.921 250.125H126.475V250.428C126.475 252.258 124.829 253.759 121.682 254.049L121.077 252.68C123.75 252.456 124.921 251.376 124.921 250.428V250.125ZM125.777 250.125H127.331V250.428C127.331 251.389 128.489 252.456 131.175 252.68L130.57 254.049C127.436 253.759 125.777 252.271 125.777 250.428V250.125ZM121.617 249.48H130.649V250.863H121.617V249.48ZM134.085 262.604C133.866 262.719 133.669 262.777 133.493 262.777C133.275 262.777 133.082 262.702 132.915 262.552C132.748 262.402 132.664 262.22 132.664 262.006C132.664 261.749 132.793 261.517 133.05 261.311C133.273 261.149 133.493 260.984 133.712 260.816C134.651 259.895 135.12 258.425 135.12 256.406C135.12 255.618 135.004 254.814 134.773 253.996C134.511 253.074 134.158 252.369 133.712 251.88C133.498 251.67 133.283 251.46 133.069 251.25C132.795 250.955 132.658 250.708 132.658 250.511C132.658 250.293 132.741 250.1 132.908 249.933C133.075 249.761 133.275 249.675 133.506 249.675C133.665 249.675 133.853 249.748 134.072 249.894C134.968 250.494 135.686 251.456 136.226 252.78C136.706 253.955 136.946 255.116 136.946 256.265C136.946 259.466 135.992 261.579 134.085 262.604Z" fill="black"/>
<defs>
<filter id="filter0_d_186_2962" x="239.389" y="16.3145" width="130.983" height="104.142" filterUnits="userSpaceOnUse" color-interpolation-filters="sRGB">
<feFlood flood-opacity="0" result="BackgroundImageFix"/>
<feColorMatrix in="SourceAlpha" type="matrix" values="0 0 0 0 0 0 0 0 0 0 0 0 0 0 0 0 0 0 127 0" result="hardAlpha"/>
<feOffset dy="2.92581"/>
<feGaussianBlur stdDeviation="1.4629"/>
<feComposite in2="hardAlpha" operator="out"/>
<feColorMatrix type="matrix" values="0 0 0 0 0 0 0 0 0 0 0 0 0 0 0 0 0 0 0.25 0"/>
<feBlend mode="normal" in2="BackgroundImageFix" result="effect1_dropShadow_186_2962"/>
<feBlend mode="normal" in="SourceGraphic" in2="effect1_dropShadow_186_2962" result="shape"/>
</filter>
<filter id="filter1_d_186_2962" x="40.3305" y="211.532" width="103.216" height="81.0026" filterUnits="userSpaceOnUse" color-interpolation-filters="sRGB">
<feFlood flood-opacity="0" result="BackgroundImageFix"/>
<feColorMatrix in="SourceAlpha" type="matrix" values="0 0 0 0 0 0 0 0 0 0 0 0 0 0 0 0 0 0 127 0" result="hardAlpha"/>
<feOffset dy="2.92581"/>
<feGaussianBlur stdDeviation="1.4629"/>
<feComposite in2="hardAlpha" operator="out"/>
<feColorMatrix type="matrix" values="0 0 0 0 0 0 0 0 0 0 0 0 0 0 0 0 0 0 0.25 0"/>
<feBlend mode="normal" in2="BackgroundImageFix" result="effect1_dropShadow_186_2962"/>
<feBlend mode="normal" in="SourceGraphic" in2="effect1_dropShadow_186_2962" result="shape"/>
</filter>
<radialGradient id="paint0_radial_186_2962" cx="0" cy="0" r="1" gradientUnits="userSpaceOnUse" gradientTransform="translate(195.5 196.217) rotate(90) scale(167.484)">
<stop stop-color="#FAFF00"/>
<stop offset="1" stop-color="#EEFF85" stop-opacity="0"/>
</radialGradient>
</defs>
</svg>
