<svg width="393" height="393" viewBox="0 0 393 393" fill="none" xmlns="http://www.w3.org/2000/svg">
<circle cx="195.5" cy="195.5" r="167.484" fill="url(#paint0_radial_186_1890)"/>
<path d="M78.1525 306.671C95.3195 306.671 109.236 299.156 109.236 289.885C109.236 280.614 95.3195 273.098 78.1525 273.098C60.9855 273.098 47.0688 280.614 47.0688 289.885C47.0688 299.156 60.9855 306.671 78.1525 306.671Z" fill="#333333"/>
<path d="M78.1527 307.604C60.5025 307.604 46.1431 299.655 46.1431 289.885C46.1431 280.114 60.5025 272.151 78.1527 272.151C95.8028 272.151 110.162 280.1 110.162 289.885C110.162 299.67 95.8028 307.604 78.1527 307.604ZM78.1527 274.017C61.5282 274.017 47.995 281.133 47.995 289.87C47.995 298.608 61.5282 305.724 78.1527 305.724C94.7771 305.724 108.31 298.608 108.31 289.87C108.31 281.133 94.7771 274.017 78.1527 274.017Z" fill="#333333"/>
<path d="M283.672 287.977C301.225 287.977 315.454 280.968 315.454 272.324C315.454 263.679 301.225 256.671 283.672 256.671C266.12 256.671 251.891 263.679 251.891 272.324C251.891 280.968 266.12 287.977 283.672 287.977Z" fill="#333333"/>
<path d="M283.672 288.909C265.339 288.909 250.965 281.621 250.965 272.323C250.965 263.026 265.324 255.738 283.672 255.738C302.021 255.738 316.38 263.026 316.38 272.323C316.38 281.621 302.021 288.909 283.672 288.909ZM283.672 257.603C266.663 257.603 252.831 264.203 252.831 272.323C252.831 280.444 266.663 287.044 283.672 287.044C300.682 287.044 314.528 280.444 314.528 272.323C314.528 264.203 300.696 257.603 283.672 257.603Z" fill="#333333"/>
<path d="M196.233 112.307C196.233 112.307 190.436 109.509 183.014 114.172C175.592 118.85 170.72 123.053 169.324 135.894C167.928 148.735 169.794 161.82 168.626 163.929C167.472 166.038 164.922 166.727 167.23 167.43C169.552 168.133 170.706 168.133 170.706 168.133L172.102 165.091C172.102 165.091 172.102 169.295 173.256 168.821C174.409 168.348 175.107 167.659 175.107 167.659C175.107 167.659 176.731 170.228 179.751 170.228C182.771 170.228 203.413 169.754 208.043 168.592C212.687 167.43 214.069 168.821 215.465 168.118C216.861 167.415 218.243 163.685 218.243 163.685C218.243 163.685 217.089 167.659 219.169 168.362C221.249 169.065 224.496 167.889 227.289 167.43C230.066 166.956 230.066 166.268 230.066 166.268C230.066 166.268 223.343 156.454 223.115 149.209C222.887 141.963 224.269 125.148 216.163 118.835C208.043 112.522 201.789 109.022 196.219 112.293L196.233 112.307Z" fill="#333333"/>
<path d="M179.766 171.174C177.415 171.174 175.805 169.869 174.979 168.979C174.623 169.223 174.167 169.482 173.612 169.711C173.184 169.883 172.728 169.84 172.358 169.582C172.016 169.352 171.774 168.951 171.603 168.448L171.56 168.535C171.404 168.865 171.076 169.08 170.72 169.08C170.592 169.08 169.352 169.065 166.973 168.334C166.56 168.205 165.606 167.918 165.406 167.071C165.221 166.253 165.819 165.694 166.446 165.091C166.916 164.646 167.458 164.13 167.814 163.484C168.213 162.753 168.113 158.994 167.999 155.364C167.842 150.098 167.629 142.881 168.398 135.794C169.851 122.322 175.164 118.003 182.515 113.383C189.168 109.194 194.581 110.686 196.162 111.274C201.974 108.189 208.371 111.604 216.733 118.104C224.026 123.771 224.026 136.841 224.012 145.493C224.012 146.884 224.012 148.118 224.041 149.166C224.254 156.038 230.765 165.622 230.836 165.722C230.935 165.88 231.007 166.067 231.007 166.253C231.007 167.243 229.81 167.946 227.445 168.348C226.705 168.477 225.95 168.649 225.166 168.822C222.944 169.324 220.65 169.84 218.884 169.252C218.043 168.965 217.545 168.377 217.274 167.631C216.847 168.219 216.377 168.721 215.878 168.965C215.052 169.381 214.283 169.295 213.385 169.18C212.302 169.051 210.807 168.865 208.257 169.51C203.228 170.773 181.589 171.174 179.737 171.174H179.766ZM175.136 166.741C175.136 166.741 175.207 166.741 175.236 166.741C175.506 166.77 175.763 166.928 175.919 167.172C175.976 167.258 177.33 169.309 179.78 169.309C182.757 169.309 203.385 168.822 207.858 167.702C210.735 166.971 212.488 167.186 213.656 167.329C214.411 167.415 214.781 167.459 215.094 167.301C215.75 166.971 216.818 165.005 217.431 163.37C217.602 162.896 218.115 162.652 218.585 162.81C219.055 162.968 219.325 163.47 219.183 163.958C218.898 164.933 218.599 167.172 219.511 167.487C220.793 167.918 222.83 167.459 224.81 167.014C225.608 166.827 226.42 166.655 227.189 166.526C228.044 166.382 228.571 166.225 228.898 166.096C227.331 163.671 222.459 155.622 222.246 149.252C222.217 148.19 222.217 146.927 222.217 145.507C222.217 137.716 222.217 124.703 215.65 119.581C207.701 113.398 201.761 110.155 196.732 113.111C196.461 113.268 196.148 113.283 195.863 113.154C195.649 113.053 190.393 110.657 183.527 114.976C176.418 119.452 171.646 123.34 170.278 136.009C169.523 142.968 169.737 150.098 169.894 155.321C170.05 160.658 170.093 163.269 169.48 164.403C168.982 165.306 168.27 165.981 167.757 166.469C167.714 166.512 167.671 166.54 167.629 166.583C168.825 166.942 169.68 167.1 170.193 167.172L171.318 164.733C171.503 164.331 171.931 164.116 172.358 164.216C172.785 164.316 173.085 164.689 173.085 165.12C173.085 166.139 173.213 167.258 173.384 167.803C174.096 167.444 174.523 167.028 174.523 167.014C174.694 166.842 174.936 166.741 175.179 166.741H175.136Z" fill="#333333"/>
<path d="M189.04 179.353C189.04 179.353 189.738 168.377 189.738 167.444C189.738 166.512 202.957 166.741 202.957 166.741L204.581 179.582L199.011 183.556L189.04 179.353Z" fill="white"/>
<path d="M199.026 184.489C198.912 184.489 198.784 184.46 198.67 184.417L188.698 180.213C188.327 180.056 188.099 179.697 188.128 179.295C188.327 176.253 188.826 168.176 188.826 167.444C188.826 167.2 188.968 166.856 189.154 166.684C189.424 166.411 190.265 165.579 203 165.809C203.456 165.809 203.841 166.167 203.898 166.626L205.522 179.467C205.564 179.812 205.422 180.142 205.137 180.342L199.567 184.317C199.41 184.431 199.225 184.489 199.026 184.489ZM190.008 178.75L198.897 182.495L203.584 179.152L202.131 167.659C197.302 167.588 192.159 167.702 190.635 168.018C190.535 170.098 190.136 176.626 189.994 178.75H190.008Z" fill="#333333"/>
<path d="M177.629 142.968C177.629 142.968 178.327 148.405 177.971 150.5C177.629 152.609 178.712 160.773 182.672 164.345C185.977 167.329 190.963 170.113 193.627 171.002C196.234 171.878 199.539 171.878 201.447 170.658C203.883 169.094 208.057 166.11 210.493 163.656C212.473 161.662 215.009 157.702 215.194 152.437C215.365 147.186 215.251 145.493 215.251 145.493L213.969 137.372L202.487 128.089L179.524 134.919L177.615 142.982L177.629 142.968Z" fill="white"/>
<path d="M197.487 172.552C196.034 172.552 194.567 172.294 193.342 171.878C190.521 170.931 185.393 168.047 182.059 165.034C177.814 161.217 176.689 152.623 177.073 150.342C177.344 148.735 176.903 144.56 176.717 143.082C176.703 142.968 176.717 142.853 176.732 142.752L178.64 134.689C178.712 134.359 178.968 134.101 179.282 134.015L202.245 127.185C202.53 127.099 202.844 127.157 203.086 127.358L214.568 136.64C214.753 136.784 214.867 136.999 214.895 137.229L216.177 145.349C216.192 145.507 216.306 147.229 216.135 152.48C215.921 159.037 212.274 163.197 211.163 164.316C208.499 166.999 204.126 170.055 201.96 171.447C200.721 172.251 199.111 172.566 197.487 172.566V172.552ZM178.569 143.025C178.683 143.986 179.225 148.635 178.897 150.658C178.583 152.552 179.68 160.4 183.299 163.656C186.461 166.512 191.276 169.238 193.926 170.127C196.447 170.974 199.41 170.873 200.963 169.869C203.684 168.118 207.63 165.22 209.852 162.982C210.835 161.992 214.083 158.276 214.283 152.394C214.454 147.286 214.34 145.55 214.34 145.536L213.129 137.86L202.302 129.108L180.321 135.65L178.569 143.025Z" fill="#333333"/>
<path d="M159.181 240.028L150.833 178.19H240.594L238.158 247.388L223.029 265.781L200.236 273.141L182.145 266.125L164.58 253.17L159.181 240.028Z" fill="#A1958E"/>
<path d="M200.237 274.074C200.123 274.074 200.009 274.06 199.909 274.017L181.817 267.015C181.746 266.986 181.675 266.943 181.603 266.9L164.039 253.93C163.896 253.83 163.797 253.686 163.725 253.528L158.326 240.386C158.298 240.315 158.269 240.228 158.269 240.157L149.922 178.319C149.879 178.047 149.964 177.789 150.135 177.573C150.306 177.358 150.563 177.258 150.833 177.258H240.594C240.85 177.258 241.078 177.358 241.264 177.545C241.434 177.731 241.534 177.975 241.52 178.219L239.084 247.416C239.084 247.617 238.999 247.818 238.87 247.976L223.742 266.369C223.628 266.498 223.485 266.613 223.314 266.656L200.521 274.017C200.436 274.045 200.336 274.06 200.237 274.06V274.074ZM182.601 265.308L200.265 272.151L222.488 264.978L237.246 247.043L239.64 179.123H151.902L160.093 239.784L165.335 252.567L182.601 265.308Z" fill="#333333"/>
<path d="M218.155 243.981C229.259 232.798 229.259 214.665 218.155 203.482C207.051 192.298 189.047 192.298 177.943 203.482C166.839 214.665 166.839 232.798 177.943 243.981C189.047 255.165 207.051 255.165 218.155 243.981Z" fill="#9A2D2F"/>
<path d="M198.057 253.313C181.86 253.313 168.697 240.042 168.697 223.729C168.697 207.416 181.874 194.145 198.057 194.145C214.24 194.145 227.431 207.416 227.431 223.729C227.431 240.042 214.254 253.313 198.057 253.313ZM198.057 196.024C182.886 196.024 170.549 208.449 170.549 223.729C170.549 239.009 182.886 251.434 198.057 251.434C213.229 251.434 225.565 239.009 225.565 223.729C225.565 208.449 213.229 196.024 198.057 196.024Z" fill="#333333"/>
<path d="M284.142 255.035C284.142 255.035 284.028 255.035 283.971 255.021L248.486 248.019C248.144 247.947 247.873 247.703 247.774 247.373C247.674 247.043 247.774 246.685 248.016 246.441L269.811 225.178C270.025 224.963 270.339 224.877 270.638 224.934L335.113 238.478C335.526 238.564 335.839 238.923 335.853 239.353C335.868 239.784 335.597 240.171 335.184 240.286L284.385 255.006C284.299 255.035 284.214 255.049 284.128 255.049L284.142 255.035ZM250.566 246.527L284.1 253.155L331.081 239.54L270.737 226.857L250.566 246.527Z" fill="#333333"/>
<path d="M317.648 235.652L270.453 225.838L248.657 247.086L271.008 251.505L317.648 235.652Z" fill="#80A99B"/>
<path d="M271.008 252.438C271.008 252.438 270.894 252.438 270.837 252.424L248.472 248.005C248.13 247.933 247.859 247.689 247.76 247.359C247.66 247.029 247.76 246.67 248.002 246.427L269.797 225.164C270.011 224.948 270.324 224.862 270.624 224.92L317.819 234.733C318.232 234.819 318.531 235.164 318.56 235.594C318.588 236.01 318.332 236.398 317.933 236.541L271.293 252.409C271.193 252.438 271.094 252.452 270.994 252.452L271.008 252.438ZM250.566 246.527L270.951 250.559L314.115 235.881L270.737 226.871L250.566 246.541V246.527Z" fill="#333333"/>
<path d="M191.134 268.579C191.134 268.579 195.778 263.213 204.126 260.874C212.474 258.536 218.271 262.983 228.713 253.17C239.155 243.356 245.409 223.27 259.327 217.201C273.245 211.132 278.117 223.04 279.043 227.015C279.969 230.989 278.345 237.99 265.595 247.574C252.845 257.158 225.465 275.609 216.42 277.001C207.374 278.407 199.254 277.474 199.254 277.474L191.134 268.593V268.579Z" fill="white"/>
<path d="M205.849 278.708C201.96 278.708 199.339 278.407 199.14 278.393C198.912 278.364 198.712 278.263 198.57 278.091L190.45 269.21C190.136 268.866 190.122 268.321 190.436 267.962C190.635 267.732 195.35 262.352 203.869 259.97C206.675 259.181 209.183 259.138 211.604 259.081C216.562 258.981 221.249 258.88 228.072 252.467C232.089 248.693 235.451 243.399 238.998 237.804C244.526 229.109 250.238 220.113 258.942 216.311C263.956 214.131 268.358 213.958 272.034 215.824C277.789 218.736 279.627 225.451 279.926 226.771C280.937 231.104 279.37 238.349 266.122 248.292C254.597 256.943 226.106 276.413 216.533 277.89C212.587 278.507 208.826 278.679 205.821 278.679L205.849 278.708ZM199.695 276.57C201.305 276.728 208.485 277.288 216.277 276.068C224.995 274.72 252.332 256.341 265.039 246.814C278.131 236.986 278.871 230.314 278.145 227.215C277.974 226.498 276.35 220.099 271.222 217.517C268.059 215.924 264.184 216.096 259.697 218.047C251.506 221.62 245.95 230.372 240.58 238.822C236.961 244.518 233.528 249.913 229.354 253.844C222.018 260.745 216.761 260.846 211.661 260.946C209.24 260.989 206.96 261.047 204.382 261.764C198.043 263.543 193.869 267.159 192.416 268.593L199.695 276.556V276.57Z" fill="#333333"/>
<path d="M216.42 276.987C207.374 278.393 199.254 277.46 199.254 277.46L191.134 268.579C191.134 268.579 195.778 263.213 204.126 260.874C204.126 260.874 199.895 265.781 204.24 271.735C208.585 277.69 216.42 276.987 216.42 276.987Z" fill="#333333"/>
<path d="M205.849 278.708C201.96 278.708 199.339 278.407 199.14 278.393C198.912 278.364 198.712 278.263 198.57 278.091L190.45 269.21C190.136 268.866 190.122 268.321 190.436 267.962C190.635 267.732 195.35 262.352 203.869 259.97C204.268 259.856 204.681 260.028 204.895 260.372C205.108 260.717 205.08 261.176 204.809 261.477C204.667 261.649 201.134 265.91 204.966 271.176C208.969 276.642 216.248 276.068 216.32 276.054C216.804 275.996 217.26 276.37 217.317 276.872C217.374 277.374 217.032 277.833 216.533 277.905C212.587 278.522 208.826 278.694 205.821 278.694L205.849 278.708ZM199.695 276.57C200.806 276.671 204.539 276.972 209.297 276.757C207.259 275.939 205.151 274.562 203.499 272.295C200.593 268.321 201.205 264.719 202.131 262.51C197.045 264.404 193.698 267.345 192.416 268.608L199.695 276.57Z" fill="#333333"/>
<path d="M78.1525 295.021C84.8321 295.021 90.2469 292.092 90.2469 288.479C90.2469 284.865 84.8321 281.936 78.1525 281.936C71.473 281.936 66.0581 284.865 66.0581 288.479C66.0581 292.092 71.473 295.021 78.1525 295.021Z" fill="white"/>
<path d="M78.1527 295.954C70.8448 295.954 65.1323 292.668 65.1323 288.479C65.1323 284.289 70.859 281.004 78.1527 281.004C85.4464 281.004 91.1731 284.289 91.1731 288.479C91.1731 292.668 85.4464 295.954 78.1527 295.954ZM78.1527 282.883C72.0984 282.883 66.9842 285.451 66.9842 288.493C66.9842 291.535 72.0984 294.103 78.1527 294.103C84.207 294.103 89.3211 291.535 89.3211 288.493C89.3211 285.451 84.207 282.883 78.1527 282.883Z" fill="#333333"/>
<path d="M37.5957 275.595L116.915 300.588L175.364 272.553L119.237 249.669L37.5957 275.595Z" fill="#F59B31"/>
<path d="M116.915 301.52C116.815 301.52 116.73 301.52 116.644 301.477L37.3252 276.484C36.9406 276.37 36.6699 276.011 36.6699 275.595C36.6699 275.193 36.9263 274.82 37.311 274.705L118.952 248.78C119.151 248.722 119.379 248.722 119.579 248.808L175.706 271.707C176.048 271.85 176.276 272.18 176.29 272.539C176.29 272.912 176.09 273.256 175.763 273.414L117.314 301.449C117.185 301.506 117.057 301.535 116.915 301.535V301.52ZM40.6871 275.58L116.843 299.584L173.056 272.625L119.194 250.659L40.6871 275.595V275.58Z" fill="#333333"/>
<path d="M298.018 270.659C298.018 274.318 291.992 277.288 284.57 277.288C277.148 277.288 271.122 274.318 271.122 270.659C271.122 267.001 277.148 264.031 284.57 264.031C291.992 264.031 298.018 267.001 298.018 270.659Z" fill="white"/>
<path d="M284.57 278.22C276.507 278.22 270.196 274.906 270.196 270.659C270.196 266.412 276.507 263.098 284.57 263.098C292.633 263.098 298.944 266.412 298.944 270.659C298.944 274.906 292.633 278.22 284.57 278.22ZM284.57 264.963C277.077 264.963 272.048 267.905 272.048 270.659C272.048 273.414 277.077 276.355 284.57 276.355C292.063 276.355 297.092 273.414 297.092 270.659C297.092 267.905 292.063 264.963 284.57 264.963Z" fill="#333333"/>
<path d="M279.498 270.688C279.071 270.688 278.686 270.387 278.587 269.942C278.487 269.44 278.815 268.938 279.313 268.837L288.587 266.972C289.086 266.886 289.57 267.202 289.684 267.704C289.784 268.206 289.456 268.708 288.957 268.808L279.684 270.674C279.684 270.674 279.555 270.688 279.498 270.688Z" fill="#333333"/>
<path d="M282.276 272.783C281.835 272.783 281.436 272.453 281.365 272.008C281.279 271.506 281.621 271.018 282.134 270.932L287.704 269.999C288.202 269.913 288.687 270.258 288.772 270.774C288.858 271.276 288.516 271.764 288.003 271.85L282.433 272.783C282.433 272.783 282.333 272.783 282.276 272.783Z" fill="#333333"/>
<path d="M88.7368 270.688L121.786 281.205L154.494 266.829L129.607 254.389L88.7368 270.688Z" fill="#E9E9E9"/>
<path d="M121.786 282.137C121.687 282.137 121.601 282.123 121.502 282.094L88.4521 271.578C88.0817 271.463 87.8253 271.118 87.811 270.717C87.811 270.315 88.0247 269.956 88.3951 269.813L129.28 253.514C129.522 253.414 129.792 253.428 130.035 253.543L154.907 265.982C155.235 266.14 155.434 266.484 155.42 266.843C155.42 267.202 155.192 267.532 154.865 267.675L122.157 282.037C122.043 282.094 121.915 282.109 121.786 282.109V282.137ZM91.5006 270.588L121.73 280.2L152.286 266.771L129.565 255.408L91.4864 270.588H91.5006Z" fill="#333333"/>
<path d="M172.572 256.197C172.572 256.197 163.298 238.449 155.178 232.366C147.058 226.297 134.308 219.052 129.664 216.484C125.02 213.915 113.895 208.535 108.325 218.119C102.755 227.703 105.775 241.018 113.424 245.68C121.074 250.358 163.982 271.836 170.022 274.418C176.048 276.986 184.281 279.913 193.683 284.461C200.179 287.604 213.399 291.233 217.573 283.758C221.747 276.283 205.051 270.214 198.327 267.876C191.604 265.537 176.988 260.63 172.586 256.197H172.572Z" fill="white"/>
<path d="M208.285 289.139C202.957 289.139 197.003 287.116 193.285 285.308C186.846 282.18 181.033 279.87 175.919 277.833C173.64 276.929 171.546 276.097 169.666 275.293C163.483 272.668 120.59 251.161 112.954 246.498C104.535 241.362 101.9 227.344 107.527 217.66C110.433 212.653 116.715 208.262 130.106 215.68C133.995 217.832 147.314 225.336 155.719 231.634C163.64 237.56 172.386 253.887 173.312 255.652C177.472 259.698 191.02 264.389 197.544 266.642L198.598 267.015C206.248 269.669 216.661 273.844 218.755 279.397C219.368 281.032 219.24 282.654 218.357 284.246C216.319 287.89 212.487 289.153 208.271 289.153L208.285 289.139ZM117.655 213.571C113.923 213.571 111.074 215.25 109.136 218.593C104.079 227.301 106.444 240.329 113.923 244.891C121.516 249.526 164.238 270.946 170.392 273.557C172.258 274.346 174.338 275.179 176.603 276.083C181.746 278.134 187.586 280.458 194.097 283.615C199.025 286.011 212.701 290.602 216.775 283.299C217.388 282.209 217.473 281.133 217.06 280.028C215.037 274.648 202.231 270.214 198.028 268.751L196.974 268.392C189.737 265.882 176.275 261.233 171.931 256.857C171.859 256.785 171.802 256.714 171.76 256.627C171.674 256.455 162.486 238.995 154.637 233.112C146.317 226.885 133.083 219.439 129.237 217.301C124.75 214.805 120.875 213.571 117.67 213.571H117.655Z" fill="#333333"/>
<path d="M198.328 267.89C205.051 270.229 221.747 276.298 217.573 283.773C213.399 291.248 200.18 287.618 193.684 284.476C193.684 284.476 202.729 286.341 204.809 280.042C206.903 273.73 198.313 267.89 198.313 267.89H198.328Z" fill="#333333"/>
<path d="M208.285 289.139C202.957 289.139 197.003 287.116 193.285 285.308C192.872 285.107 192.658 284.619 192.815 284.174C192.957 283.73 193.413 283.471 193.883 283.558C193.969 283.572 202.145 285.179 203.955 279.741C205.792 274.174 197.9 268.722 197.815 268.665C197.43 268.407 197.302 267.89 197.501 267.474C197.715 267.058 198.185 266.857 198.627 267.015C206.277 269.669 216.69 273.844 218.784 279.397C219.397 281.032 219.269 282.654 218.385 284.246C216.348 287.89 212.516 289.153 208.299 289.153L208.285 289.139ZM198.812 285.509C204.952 287.532 213.656 288.88 216.761 283.314C217.374 282.223 217.459 281.147 217.046 280.042C215.536 276.04 208.029 272.539 202.573 270.43C204.795 272.897 206.96 276.484 205.693 280.329C204.596 283.658 201.69 285.064 198.812 285.509Z" fill="#333333"/>
<path d="M173.74 258.077C173.526 258.077 173.313 258.005 173.127 257.847C173.099 257.818 169.438 254.633 152.272 240.343C141.161 231.089 137.884 229.038 136.958 228.578C136.502 228.751 135.989 228.55 135.79 228.091C135.591 227.631 135.704 227.115 136.089 226.814C136.816 226.254 137.571 225.666 153.454 238.894C170.663 253.213 174.31 256.398 174.352 256.427C174.737 256.771 174.78 257.359 174.452 257.747C174.267 257.962 174.011 258.062 173.754 258.062L173.74 258.077Z" fill="#333333"/>
<path d="M122.485 251.764C122.014 251.764 121.616 251.405 121.573 250.932C121.516 250.415 121.872 249.956 122.385 249.899C122.94 249.827 136.132 248.062 139.437 229.64C139.522 229.138 140.007 228.794 140.519 228.894C141.018 228.98 141.36 229.468 141.26 229.97C137.699 249.813 122.741 251.735 122.599 251.749C122.57 251.749 122.527 251.749 122.499 251.749L122.485 251.764Z" fill="#333333"/>
<path d="M259.085 252.467C259.085 252.467 258.971 252.467 258.914 252.452C247.19 250.286 241.093 236.154 240.836 235.551C240.637 235.078 240.851 234.533 241.321 234.332C241.791 234.131 242.332 234.346 242.531 234.82C242.588 234.963 248.515 248.636 259.241 250.616C259.74 250.716 260.082 251.19 259.982 251.706C259.897 252.151 259.512 252.467 259.07 252.467H259.085Z" fill="#333333"/>
<path d="M135.434 256.412L132.3 254.834C132.414 254.777 145.22 248.708 146.303 235.479L148.739 237.316C147.528 252.209 135.989 256.154 135.434 256.412Z" fill="#9A2D2F"/>
<path d="M141.616 259.468L138.753 257.976C139.18 257.79 149.295 252.452 151.018 239.224L153.882 241.591C151.944 256.47 142.101 259.253 141.616 259.454V259.468Z" fill="#9A2D2F"/>
<path d="M252.717 255.738C242.275 253.399 238.87 242.352 238.628 241.721L240.779 238.507C240.836 238.65 245.779 253.213 255.623 253.629L252.717 255.738Z" fill="#9A2D2F"/>
<path d="M246.235 259.971C238.457 256.785 235.765 247.029 235.551 246.441L237.517 243.399C237.56 243.528 242.261 256.599 249.284 258.062L246.221 259.971H246.235Z" fill="#9A2D2F"/>
<path d="M154.138 204.116C154.138 204.116 150.833 206.397 149.964 211.649C149.095 216.9 150.662 221.462 153.269 223.557C155.876 225.666 163.355 228.808 165.62 228.808C167.885 228.808 165.962 226.527 165.962 226.527C165.962 226.527 168.227 227.058 168.227 225.824C168.227 224.59 167.885 224.073 167.885 224.073C167.885 224.073 169.452 225.121 169.794 223.729C170.136 222.323 169.623 221.448 169.623 221.448C169.623 221.448 171.19 221.448 171.19 219.87C171.19 218.291 167.543 215.666 164.409 214.432C161.275 213.212 155.192 208.822 154.836 207.775C154.494 206.727 154.138 204.102 154.138 204.102V204.116Z" fill="white"/>
<path d="M165.62 229.755C163.141 229.755 155.42 226.484 152.685 224.289C149.594 221.806 148.169 216.785 149.053 211.491C149.979 205.91 153.469 203.442 153.611 203.341C153.882 203.155 154.209 203.126 154.509 203.255C154.808 203.384 155.007 203.657 155.05 203.987C155.15 204.69 155.449 206.699 155.705 207.502C156.161 208.306 161.688 212.395 164.723 213.585C167.7 214.748 172.102 217.56 172.102 219.884C172.102 221.075 171.489 221.763 170.777 222.108C170.848 222.596 170.862 223.227 170.677 223.959C170.464 224.819 169.908 225.149 169.609 225.278C169.452 225.336 169.295 225.379 169.125 225.393C169.125 225.537 169.125 225.68 169.125 225.838C169.125 226.355 168.911 226.814 168.526 227.129C168.241 227.359 167.899 227.474 167.543 227.545C167.657 227.947 167.671 228.392 167.486 228.794C167.287 229.238 166.788 229.755 165.606 229.755H165.62ZM153.497 205.996C152.571 207.072 151.36 208.951 150.89 211.792C150.021 217.057 151.759 221.132 153.853 222.825C156.432 224.905 163.683 227.875 165.62 227.875C165.663 227.875 165.691 227.875 165.734 227.875C165.634 227.646 165.435 227.33 165.264 227.129C165.008 226.828 164.979 226.383 165.179 226.039C165.378 225.695 165.777 225.522 166.176 225.608C166.56 225.695 167.059 225.723 167.301 225.666C167.273 224.891 167.087 224.547 167.087 224.547C166.874 224.174 166.945 223.686 167.258 223.385C167.572 223.098 168.042 223.04 168.384 223.27C168.569 223.385 168.854 223.485 168.968 223.485C169.125 222.495 168.825 221.893 168.811 221.878C168.654 221.591 168.654 221.233 168.811 220.946C168.982 220.659 169.281 220.486 169.595 220.486C170.236 220.472 170.236 220.013 170.236 219.841C170.236 219.023 167.401 216.598 164.039 215.278C161.261 214.188 154.466 209.669 153.925 208.047C153.754 207.531 153.583 206.713 153.454 205.967L153.497 205.996Z" fill="#333333"/>
<path d="M169.623 222.395C169.623 222.395 169.523 222.395 169.466 222.395C168.355 222.208 162.657 218.693 160.264 217.187C159.836 216.914 159.694 216.34 159.965 215.895C160.235 215.465 160.805 215.321 161.232 215.594C164.893 217.89 169.096 220.372 169.794 220.558C170.278 220.687 170.606 221.175 170.492 221.663C170.406 222.093 170.036 222.409 169.609 222.409L169.623 222.395Z" fill="#333333"/>
<path d="M167.885 225.02C167.757 225.02 167.643 224.992 167.515 224.948C166.275 224.418 159.381 220.687 159.096 220.529C158.64 220.286 158.469 219.726 158.711 219.267C158.953 218.808 159.509 218.65 159.965 218.88C162.415 220.199 167.301 222.825 168.241 223.227C168.711 223.428 168.925 223.973 168.726 224.446C168.569 224.805 168.227 225.006 167.871 225.006L167.885 225.02Z" fill="#333333"/>
<path d="M165.962 227.474C164.423 227.474 160.791 225.221 159.722 224.518C159.295 224.245 159.167 223.657 159.437 223.227C159.708 222.796 160.278 222.667 160.719 222.94C162.714 224.217 165.292 225.594 165.962 225.594C166.475 225.594 166.888 226.01 166.888 226.527C166.888 227.043 166.475 227.459 165.962 227.459V227.474Z" fill="#333333"/>
<path d="M198.057 215.451C197.273 215.451 196.632 214.805 196.632 214.016V207.703C196.632 206.914 197.273 206.268 198.057 206.268C198.84 206.268 199.481 206.914 199.481 207.703V214.016C199.481 214.805 198.84 215.451 198.057 215.451Z" fill="white"/>
<path d="M211.547 215.623H184.581C183.797 215.623 183.156 214.977 183.156 214.188C183.156 213.399 183.797 212.753 184.581 212.753H211.547C212.331 212.753 212.972 213.399 212.972 214.188C212.972 214.977 212.331 215.623 211.547 215.623Z" fill="white"/>
<path d="M207.715 227.531H188.413C187.629 227.531 186.988 226.885 186.988 226.096V218.564C186.988 217.775 187.629 217.129 188.413 217.129H207.715C208.499 217.129 209.14 217.775 209.14 218.564V226.096C209.14 226.885 208.499 227.531 207.715 227.531ZM189.837 224.662H206.291V219.999H189.837V224.662Z" fill="white"/>
<path d="M196.832 240.343C196.248 240.343 195.535 240.286 194.652 240.128C193.883 239.985 193.356 239.253 193.498 238.464C193.627 237.689 194.367 237.158 195.151 237.302C195.749 237.402 196.433 237.474 196.903 237.474C196.989 235.609 196.917 230.63 196.789 226.154C196.761 225.365 197.387 224.705 198.171 224.676C198.94 224.662 199.61 225.278 199.638 226.068C199.994 238.162 199.667 238.837 199.481 239.195C199.311 239.554 198.897 240.358 196.832 240.358V240.343Z" fill="white"/>
<path d="M187.088 240.415C186.746 240.415 186.39 240.286 186.119 240.028C185.535 239.482 185.507 238.579 186.048 238.005C188.113 235.752 190.051 233.184 190.208 232.495C190.293 231.706 190.991 231.161 191.775 231.233C192.558 231.319 193.114 232.036 193.028 232.825C192.829 234.604 189.88 238.048 188.128 239.956C187.843 240.257 187.458 240.415 187.088 240.415Z" fill="white"/>
<path d="M210.507 240.142C210.507 240.142 210.436 240.142 210.394 240.142C207.701 239.927 203.997 235.236 202.929 233.786C202.459 233.155 202.587 232.251 203.214 231.778C203.841 231.304 204.738 231.434 205.208 232.065C207.188 234.733 209.767 237.216 210.607 237.273C211.391 237.33 211.975 238.019 211.918 238.808C211.861 239.554 211.234 240.128 210.493 240.128L210.507 240.142Z" fill="white"/>
<path d="M239.369 208.679C239.369 208.679 240.095 212.854 238.542 212.782C236.99 212.71 230.038 214.331 228.029 214.661C226.021 214.991 224.425 215.264 224.681 217.158C224.952 219.037 234.326 217.287 234.995 217.832C235.651 218.377 234.454 219.712 231.448 220.53C228.442 221.347 221.761 221.247 222.288 223.184C222.815 225.121 232.573 223.37 232.573 223.37C232.573 223.37 222.944 225.666 223.086 227C223.214 228.349 233.913 227 235.921 227C237.93 227 232.046 229.97 232.175 231.304C232.303 232.653 240.067 229.281 241.805 228.478C243.543 227.675 245.551 223.227 244.212 217.172C242.873 211.118 239.525 206.397 239.525 206.397L239.369 208.693V208.679Z" fill="white"/>
<path d="M232.744 232.51C232.374 232.51 232.075 232.452 231.861 232.337C231.505 232.137 231.291 231.792 231.249 231.391C231.135 230.314 232.203 229.396 233.998 228.033C233.699 228.062 233.371 228.091 233.044 228.105C224.767 228.779 222.331 228.722 222.174 227.072C222.132 226.656 222.06 225.967 224.254 224.934C222.73 224.762 221.647 224.317 221.405 223.399C221.277 222.926 221.348 222.438 221.619 222.036C222.36 220.917 224.425 220.573 227.716 220.171C228.998 220.013 230.323 219.841 231.22 219.611C232.303 219.324 233.086 218.966 233.571 218.664C233.044 218.693 232.403 218.736 231.847 218.779C227.018 219.138 224.055 219.21 223.784 217.287C223.385 214.504 225.878 214.073 227.887 213.743C228.499 213.643 229.582 213.413 230.836 213.155C234.425 212.409 237.275 211.835 238.471 211.835H238.485C238.685 211.419 238.685 210.027 238.485 208.822C238.485 208.75 238.471 208.679 238.485 208.593L238.642 206.297C238.671 205.91 238.941 205.565 239.312 205.465C239.696 205.364 240.095 205.493 240.323 205.823C240.466 206.024 243.785 210.759 245.152 216.943C246.591 223.456 244.383 228.306 242.232 229.31C239.995 230.343 235.095 232.51 232.787 232.51H232.744ZM235.907 226.068C236.804 226.068 237.104 226.555 237.203 226.842C237.502 227.732 236.705 228.335 235.252 229.425C234.881 229.712 234.326 230.128 233.87 230.515C235.651 230.056 238.87 228.808 241.406 227.631C242.716 227.015 244.525 222.954 243.3 217.373C242.631 214.346 241.434 211.634 240.437 209.74C240.523 210.874 240.494 212.38 239.81 213.155C239.468 213.542 239.027 213.743 238.5 213.715C237.574 213.657 233.713 214.461 231.192 214.991C229.91 215.25 228.813 215.479 228.186 215.594C225.878 215.981 225.536 216.211 225.593 216.885C226.419 217.33 230.109 217.057 231.705 216.943C234.311 216.742 235.081 216.713 235.579 217.115C235.992 217.459 236.178 217.976 236.064 218.507C235.822 219.669 234.183 220.759 231.69 221.433C230.679 221.706 229.354 221.878 227.944 222.05C226.533 222.223 223.984 222.538 223.285 222.997C224.154 223.385 228.3 223.184 232.417 222.452C232.915 222.366 233.386 222.682 233.485 223.184C233.585 223.672 233.286 224.159 232.787 224.274C229.924 224.963 226.69 225.924 225.009 226.656C227.089 226.756 230.978 226.426 232.887 226.268C234.269 226.154 235.366 226.068 235.921 226.068H235.907Z" fill="#333333"/>
<path d="M175.592 145.249C175.592 145.249 176.746 145.952 177.686 143.843C178.612 141.734 178.84 138.936 178.84 138.936C178.84 138.936 178.612 144.546 180.934 144.546C183.256 144.546 191.604 145.019 192.53 144.316C193.456 143.613 196.234 136.368 196.234 136.368C196.234 136.368 197.387 143.613 197.387 144.546C197.387 145.478 205.037 145.478 205.735 145.019C206.433 144.546 208.983 136.382 208.983 136.382C208.983 136.382 209.211 144.56 210.607 145.263C212.003 145.966 215.009 146.425 215.251 145.493C215.493 144.56 216.405 141.518 216.875 138.721C217.345 135.923 215.023 128.678 215.023 128.678L207.131 119.093L188.342 117.458L176.518 134.273L175.592 145.249Z" fill="#333333"/>
<path d="M213.898 146.942C212.63 146.942 211.106 146.54 210.209 146.081C209.254 145.607 208.713 143.57 208.399 141.16C206.946 145.335 206.462 145.65 206.263 145.794C205.208 146.511 198.584 146.382 197.188 145.622C196.547 145.277 196.476 144.747 196.476 144.546C196.476 144.144 196.177 142.035 195.849 139.854C194.866 142.193 193.755 144.56 193.085 145.062C192.33 145.636 190.236 145.737 183.356 145.536C182.33 145.507 181.475 145.478 180.934 145.478C180.307 145.478 179.737 145.22 179.282 144.747C179.039 144.503 178.854 144.201 178.683 143.857C178.641 143.986 178.584 144.101 178.527 144.216C178.057 145.277 177.43 145.952 176.675 146.181C175.863 146.44 175.236 146.11 175.122 146.038C174.823 145.851 174.652 145.507 174.68 145.163L175.606 134.187C175.606 134.015 175.678 133.857 175.777 133.728L187.601 116.913C187.786 116.64 188.1 116.497 188.441 116.525L207.231 118.161C207.473 118.175 207.701 118.304 207.858 118.491L215.736 128.075C215.807 128.161 215.864 128.276 215.907 128.391C216.149 129.151 218.286 135.937 217.801 138.879C217.431 141.102 216.79 143.441 216.405 144.833C216.306 145.22 216.22 145.521 216.163 145.722C216.049 146.153 215.75 146.497 215.308 146.698C214.938 146.87 214.439 146.942 213.898 146.942ZM208.998 135.435C208.998 135.435 209.083 135.435 209.126 135.435C209.568 135.493 209.909 135.88 209.924 136.325C210.038 140.184 210.579 143.9 211.106 144.445C212.103 144.933 213.841 145.163 214.425 145.019C214.482 144.833 214.539 144.589 214.625 144.302C214.995 142.939 215.636 140.672 215.978 138.534C216.32 136.482 214.867 131.188 214.212 129.094L206.69 119.954L188.812 118.405L177.43 134.574L176.646 143.828C176.703 143.714 176.774 143.584 176.846 143.441C177.7 141.518 177.928 138.864 177.928 138.835C177.971 138.333 178.413 137.946 178.911 137.989C179.41 138.018 179.794 138.448 179.78 138.95C179.723 140.385 179.951 142.724 180.621 143.427C180.749 143.556 180.834 143.584 180.934 143.584C181.49 143.584 182.359 143.613 183.413 143.642C185.749 143.714 191.205 143.871 192.046 143.498C192.473 143.054 194.14 139.237 195.379 136.009C195.536 135.622 195.92 135.378 196.333 135.421C196.747 135.464 197.088 135.779 197.145 136.196C197.316 137.286 198.114 142.293 198.285 144.044C199.567 144.402 204.04 144.46 205.18 144.201C205.693 143.326 207.06 139.424 208.1 136.066C208.228 135.679 208.585 135.421 208.983 135.421L208.998 135.435Z" fill="#333333"/>
<path d="M195.92 157.243C194.966 157.243 194.097 156.827 193.612 156.11C193.285 155.622 192.857 154.575 193.684 153.054C194.524 151.49 194.182 149.94 194.182 149.926C194.068 149.424 194.367 148.922 194.866 148.807C195.365 148.678 195.863 148.979 195.977 149.481C196.006 149.567 196.518 151.734 195.308 153.958C195.051 154.431 194.98 154.847 195.137 155.077C195.293 155.306 195.692 155.435 196.12 155.392C196.632 155.321 197.088 155.694 197.16 156.196C197.217 156.712 196.86 157.171 196.362 157.243C196.219 157.258 196.077 157.272 195.934 157.272L195.92 157.243Z" fill="#333333"/>
<path d="M195.55 162.336C192.758 162.336 191.191 161.002 191.105 160.916C190.721 160.572 190.678 159.984 191.02 159.596C191.348 159.209 191.932 159.166 192.316 159.496C192.43 159.582 194.923 161.619 199.496 159.481C199.952 159.266 200.507 159.481 200.721 159.94C200.935 160.414 200.735 160.959 200.265 161.174C198.442 162.035 196.846 162.322 195.536 162.322L195.55 162.336Z" fill="#333333"/>
<path d="M188.299 152.092C189.196 152.092 189.923 151.135 189.923 149.955C189.923 148.774 189.196 147.817 188.299 147.817C187.402 147.817 186.675 148.774 186.675 149.955C186.675 151.135 187.402 152.092 188.299 152.092Z" fill="#333333"/>
<path d="M201.804 152.121C202.701 152.121 203.428 151.164 203.428 149.983C203.428 148.803 202.701 147.846 201.804 147.846C200.907 147.846 200.18 148.803 200.18 149.983C200.18 151.164 200.907 152.121 201.804 152.121Z" fill="#333333"/>
<path d="M182.316 148.635C182.131 148.635 181.931 148.577 181.774 148.463C181.361 148.161 181.262 147.573 181.561 147.157C181.66 147.013 184.111 143.656 187.786 143.269C188.285 143.226 188.755 143.584 188.797 144.101C188.854 144.617 188.484 145.077 187.971 145.12C185.108 145.421 183.085 148.219 183.057 148.247C182.871 148.506 182.586 148.635 182.302 148.635H182.316Z" fill="#333333"/>
<path d="M206.676 148.276C206.334 148.276 206.006 148.075 205.835 147.745C205.792 147.673 205.194 146.77 202.715 145.952C202.231 145.794 201.975 145.263 202.131 144.775C202.288 144.287 202.815 144.015 203.3 144.187C206.661 145.306 207.402 146.712 207.516 146.985C207.716 147.458 207.502 148.003 207.032 148.204C206.918 148.262 206.79 148.276 206.661 148.276H206.676Z" fill="#333333"/>
<path d="M178.954 153.656C178.954 153.656 183.185 151.031 184.225 154.001C185.264 156.985 180.108 158.319 180.108 158.319C180.108 158.319 179.694 157.372 179.41 156.153C179.153 155.077 179.025 153.728 178.939 153.642L178.954 153.656Z" fill="#D8D0CA"/>
<path d="M212.003 156.311C211.775 157.544 209.838 158.233 207.658 157.831C205.479 157.43 203.912 156.11 204.125 154.862C204.353 153.628 206.291 152.939 208.47 153.341C210.65 153.742 212.217 155.062 212.003 156.311Z" fill="#D8D0CA"/>
<path d="M170.492 133.914C170.492 133.914 168.868 132.867 166.318 134.388C163.768 135.909 163.412 141.748 163.412 141.748L169.21 154.474C169.21 154.474 171.418 155.177 173.611 153.771C173.611 153.771 171.646 146.64 171.403 141.978C171.403 141.978 170.363 146.067 169.779 144.087C169.195 142.107 170.007 136.956 170.477 133.929L170.492 133.914Z" fill="white"/>
<path d="M170.591 155.579C169.637 155.579 168.982 155.378 168.939 155.364C168.697 155.278 168.483 155.105 168.383 154.862L162.585 142.135C162.528 141.992 162.5 141.848 162.5 141.691C162.543 141.045 162.956 135.306 165.848 133.584C168.853 131.791 170.905 133.082 170.99 133.14C171.304 133.34 171.46 133.699 171.403 134.072L171.361 134.33C171.062 136.296 170.577 139.481 170.52 141.748C170.634 141.303 171.062 140.988 171.503 141.059C171.959 141.102 172.315 141.475 172.329 141.935C172.557 146.44 174.48 153.455 174.495 153.527C174.609 153.929 174.438 154.345 174.096 154.56C172.814 155.378 171.546 155.579 170.577 155.579H170.591ZM169.865 153.671C170.392 153.757 171.432 153.814 172.543 153.312C172.173 151.877 171.346 148.563 170.862 145.364C170.591 145.564 170.363 145.564 170.207 145.564C169.794 145.564 169.21 145.364 168.91 144.345C168.355 142.465 168.868 138.506 169.466 134.531C168.925 134.445 168.013 134.46 166.788 135.191C165.15 136.167 164.494 140.012 164.352 141.576L169.865 153.671Z" fill="#333333"/>
<path d="M165.149 136.023C165.149 136.023 156.916 137.186 158.654 147.114C160.249 156.253 169.209 154.474 169.209 154.474C169.209 154.474 165.506 147.587 165.149 136.023Z" fill="#F59B31"/>
<path d="M167.457 155.55C165.89 155.55 163.611 155.263 161.617 153.872C159.565 152.465 158.269 150.242 157.756 147.272C157.144 143.771 157.628 140.873 159.224 138.678C161.417 135.636 164.893 135.105 165.036 135.091C165.292 135.062 165.563 135.134 165.762 135.306C165.962 135.478 166.09 135.722 166.09 135.995C166.432 147.171 170.007 153.958 170.036 154.029C170.178 154.288 170.178 154.603 170.064 154.876C169.936 155.148 169.694 155.335 169.409 155.392C169.338 155.392 168.583 155.55 167.472 155.55H167.457ZM164.281 137.214C163.283 137.559 161.773 138.29 160.705 139.797C159.437 141.561 159.067 143.972 159.58 146.956C160.007 149.409 161.047 151.217 162.671 152.336C164.437 153.556 166.531 153.699 167.828 153.671C166.788 151.275 164.708 145.536 164.295 137.214H164.281Z" fill="#333333"/>
<path d="M221.049 133.914C221.049 133.914 222.673 132.867 225.223 134.388C227.773 135.909 228.129 141.748 228.129 141.748L222.331 154.474C222.331 154.474 220.123 155.177 217.929 153.771C217.929 153.771 219.895 146.64 220.137 141.978C220.137 141.978 221.177 146.067 221.761 144.087C222.345 142.107 221.533 136.956 221.063 133.929L221.049 133.914Z" fill="white"/>
<path d="M220.949 155.579C219.981 155.579 218.698 155.378 217.431 154.56C217.089 154.345 216.918 153.915 217.032 153.527C217.046 153.455 218.983 146.454 219.197 141.935C219.226 141.475 219.567 141.102 220.023 141.059C220.493 141.016 220.907 141.303 221.006 141.748C220.949 139.481 220.465 136.282 220.166 134.302L220.123 134.058C220.066 133.699 220.237 133.326 220.536 133.125C220.622 133.068 222.673 131.777 225.679 133.57C228.571 135.292 228.998 141.031 229.026 141.676C229.026 141.834 229.012 141.978 228.941 142.121L223.143 154.847C223.029 155.091 222.83 155.263 222.573 155.349C222.516 155.364 221.875 155.565 220.921 155.565L220.949 155.579ZM218.998 153.298C220.109 153.8 221.134 153.742 221.676 153.656L227.189 141.562C227.061 139.998 226.405 136.153 224.753 135.177C223.528 134.445 222.616 134.431 222.075 134.517C222.673 138.491 223.186 142.437 222.63 144.331C222.331 145.349 221.761 145.55 221.334 145.55C221.177 145.55 220.949 145.55 220.679 145.349C220.194 148.549 219.368 151.877 218.998 153.298Z" fill="#333333"/>
<path d="M226.391 136.023C226.391 136.023 234.625 137.186 232.887 147.114C231.291 156.253 222.331 154.474 222.331 154.474C222.331 154.474 226.035 147.587 226.391 136.023Z" fill="#F59B31"/>
<path d="M224.083 155.55C222.986 155.55 222.231 155.407 222.146 155.392C221.861 155.335 221.619 155.148 221.491 154.876C221.363 154.603 221.377 154.288 221.519 154.029C221.562 153.958 225.138 147.171 225.465 135.995C225.465 135.736 225.593 135.478 225.793 135.306C225.992 135.134 226.263 135.062 226.519 135.091C226.662 135.105 230.138 135.636 232.332 138.678C233.913 140.873 234.411 143.771 233.785 147.272C233.272 150.242 231.961 152.451 229.924 153.872C227.93 155.249 225.65 155.55 224.083 155.55ZM223.727 153.671C225.024 153.728 227.132 153.542 228.884 152.322C230.494 151.203 231.534 149.395 231.961 146.942C232.488 143.957 232.104 141.533 230.821 139.768C229.739 138.262 228.243 137.53 227.26 137.2C226.847 145.521 224.767 151.26 223.727 153.656V153.671Z" fill="#333333"/>
<path d="M164.11 136.023C164.11 136.023 165.15 104.014 196.931 104.947C229.554 105.908 226.277 135.665 226.277 135.665L224.539 135.55C224.539 135.55 223.328 108.806 197.174 108.577C170.62 108.347 166.902 130.069 166.56 135.909L164.124 136.023H164.11Z" fill="#F59B31"/>
<path d="M164.11 136.956C163.868 136.956 163.64 136.856 163.455 136.683C163.269 136.497 163.17 136.253 163.184 135.995C163.184 135.665 164.623 103.053 196.96 104.029C207.373 104.33 215.308 107.558 220.522 113.613C228.514 122.867 227.246 135.263 227.189 135.779C227.132 136.282 226.69 136.64 226.206 136.612L224.468 136.497C223.998 136.468 223.628 136.081 223.599 135.607C223.556 134.546 222.103 109.739 197.145 109.524C197.003 109.524 196.86 109.524 196.732 109.524C170.378 109.524 167.728 131.547 167.472 135.98C167.443 136.454 167.059 136.827 166.589 136.856L164.153 136.97C164.153 136.97 164.124 136.97 164.11 136.97V136.956ZM195.564 105.865C169.053 105.865 165.549 129.696 165.093 135.033L165.677 135.005C166.19 129.754 169.979 107.63 196.732 107.63C196.875 107.63 197.017 107.63 197.159 107.63C221.22 107.845 224.881 130.041 225.365 134.66H225.394C225.522 131.719 225.38 122.049 219.112 114.804C214.24 109.165 206.761 106.166 196.903 105.88C196.447 105.88 196.006 105.865 195.564 105.865Z" fill="#333333"/>
<g filter="url(#filter0_d_186_1890)">
<path d="M342.306 74.3007C342.306 98.5685 314.294 118.241 279.74 118.241C271.063 118.241 258.461 115.67 251.792 113.989C222.256 133.439 226.702 136.259 235.912 105.659C224.348 97.6855 217.174 86.5814 217.174 74.3007C217.174 50.0328 245.186 30.3599 279.74 30.3599C314.294 30.3599 342.306 50.0328 342.306 74.3007Z" fill="white"/>
<path d="M236.963 105.975L237.193 105.209L236.535 104.756C225.175 96.9231 218.271 86.121 218.271 74.3007C218.271 62.6214 225.011 51.9371 236.13 44.1277C247.246 36.3206 262.661 31.4571 279.74 31.4571C296.819 31.4571 312.234 36.3206 323.35 44.1277C334.47 51.9371 341.209 62.6214 341.209 74.3007C341.209 85.98 334.47 96.6643 323.35 104.474C312.234 112.281 296.819 117.144 279.74 117.144C271.206 117.144 258.714 114.603 252.06 112.925L251.592 112.807L251.188 113.073C245.302 116.949 240.755 120.171 237.34 122.591C236.461 123.214 235.657 123.784 234.925 124.298C233.122 125.563 231.785 126.468 230.819 127.014C230.544 127.17 230.316 127.287 230.128 127.372C230.141 127.285 230.157 127.188 230.179 127.079C230.354 126.174 230.766 124.831 231.395 122.953C231.685 122.086 232.018 121.117 232.386 120.042C233.595 116.515 235.193 111.854 236.963 105.975ZM229.599 127.553C229.6 127.553 229.602 127.553 229.606 127.553C229.602 127.553 229.599 127.553 229.599 127.553Z" stroke="black" stroke-width="2.19435"/>
</g>
<g filter="url(#filter1_d_186_1890)">
<path d="M43.2571 252.369C43.2571 233.814 65.0529 218.773 91.9393 218.773C98.6913 218.773 108.496 220.739 113.686 222.024C136.668 207.153 133.208 204.997 126.042 228.393C135.04 234.489 140.622 242.979 140.622 252.369C140.622 270.924 118.826 285.965 91.9393 285.965C65.0529 285.965 43.2571 270.924 43.2571 252.369Z" fill="white"/>
<path d="M124.993 228.072L124.755 228.847L125.426 229.301C134.222 235.261 139.524 243.449 139.524 252.369C139.524 261.183 134.349 269.281 125.74 275.222C117.135 281.16 105.188 284.868 91.9393 284.868C78.6903 284.868 66.7434 281.16 58.139 275.222C49.5299 269.281 44.3542 261.183 44.3542 252.369C44.3542 243.555 49.5299 235.457 58.139 229.516C66.7434 223.578 78.6903 219.87 91.9393 219.87C98.5507 219.87 108.247 221.807 113.422 223.089L113.883 223.203L114.282 222.945C118.866 219.978 122.408 217.512 125.065 215.662C125.749 215.186 126.373 214.751 126.942 214.358C128.346 213.39 129.377 212.705 130.117 212.294C130.147 212.278 130.175 212.262 130.203 212.247C130.046 212.909 129.753 213.835 129.328 215.083C129.103 215.743 128.844 216.483 128.558 217.304C127.617 220.001 126.371 223.571 124.993 228.072ZM130.983 211.909C130.983 211.909 130.977 211.91 130.967 211.911C130.978 211.909 130.983 211.909 130.983 211.909Z" stroke="black" stroke-width="2.19435"/>
</g>
<path d="M244.518 51.3065H252.154V58.1529H250.39V52.7022H244.518V51.3065ZM250.864 54.2426V55.5855L244.399 56.0332L244.189 54.5322L250.864 54.2426ZM256.63 51.3065H264.266V58.1529H262.502V52.7022H256.63V51.3065ZM262.976 54.2426V55.5855L256.511 56.0332L256.3 54.5322L262.976 54.2426ZM245.913 67.5686C247.77 67.5686 249.113 69.2539 249.113 71.9134C249.113 74.5993 247.77 76.2846 245.913 76.2846C244.057 76.2846 242.714 74.5993 242.714 71.9134C242.714 69.2539 244.057 67.5686 245.913 67.5686ZM245.913 69.1617C245.005 69.1617 244.399 70.1228 244.399 71.9134C244.399 73.7304 245.005 74.7047 245.913 74.7047C246.822 74.7047 247.441 73.7304 247.441 71.9134C247.441 70.1228 246.822 69.1617 245.913 69.1617ZM250.443 66.726H252.207V78.9178H250.443V66.726ZM251.812 71.321H253.971V72.7692H251.812V71.321ZM263.2 66.726H264.951V78.9178H263.2V66.726ZM255.405 67.8846H257.143V75.4551H255.405V67.8846ZM255.405 74.4282H256.485C258.262 74.4282 260.237 74.2965 262.252 73.9015L262.449 75.3498C260.356 75.7843 258.341 75.9159 256.485 75.9159H255.405V74.4282ZM280.941 66.7128H282.705V78.9441H280.941V66.7128ZM276.135 67.5686C277.979 67.5686 279.335 69.2539 279.335 71.9134C279.335 74.5993 277.979 76.2846 276.135 76.2846C274.292 76.2846 272.936 74.5993 272.936 71.9134C272.936 69.2539 274.292 67.5686 276.135 67.5686ZM276.135 69.1617C275.227 69.1617 274.608 70.1228 274.608 71.9134C274.608 73.7304 275.227 74.7047 276.135 74.7047C277.044 74.7047 277.65 73.7304 277.65 71.9134C277.65 70.1228 277.044 69.1617 276.135 69.1617ZM293.145 66.726H294.896V78.9178H293.145V66.726ZM290.788 71.4H293.988V72.8219H290.788V71.4ZM289.143 67.9899H290.867C290.867 71.6896 289.696 74.7047 285.469 76.8244L284.548 75.4551C287.997 73.7435 289.143 71.5316 289.143 68.3059V67.9899ZM285.127 67.9899H290.064V69.3724H285.127V67.9899ZM304.62 72.7956H306.252V75.2576H304.62V72.7956ZM302.566 76.3109L302.355 74.9022C303.935 74.9022 306.515 74.8758 308.359 74.6125L308.477 75.8764C306.568 76.2583 304.08 76.3109 302.566 76.3109ZM311.387 66.726H313.046V78.9178H311.387V66.726ZM309.912 71.5711H311.874V72.9931H309.912V71.5711ZM308.859 66.9235H310.492V78.3648H308.859V66.9235ZM305.436 67.7924C307.082 67.7924 308.253 68.8721 308.253 70.4652C308.253 72.0583 307.082 73.1511 305.436 73.1511C303.79 73.1511 302.618 72.0583 302.618 70.4652C302.618 68.8721 303.79 67.7924 305.436 67.7924ZM305.436 69.1881C304.712 69.1881 304.211 69.662 304.211 70.4652C304.211 71.2946 304.712 71.7291 305.436 71.7291C306.147 71.7291 306.647 71.2946 306.647 70.4652C306.647 69.662 306.147 69.1881 305.436 69.1881ZM250.495 84.726H252.246V93.5868H250.495V84.726ZM251.746 88.215H253.866V89.6501H251.746V88.215ZM244.386 95.3116H252.681V96.7072H244.386V95.3116ZM244.386 92.6652H246.137V95.9304H244.386V92.6652ZM246.045 85.5028C247.915 85.5028 249.363 86.8062 249.363 88.61C249.363 90.4006 247.915 91.704 246.045 91.704C244.175 91.704 242.727 90.4006 242.727 88.61C242.727 86.8062 244.175 85.5028 246.045 85.5028ZM246.045 87.0301C245.15 87.0301 244.439 87.6094 244.439 88.61C244.439 89.5975 245.15 90.1768 246.045 90.1768C246.954 90.1768 247.651 89.5975 247.651 88.61C247.651 87.6094 246.954 87.0301 246.045 87.0301ZM255.589 89.6633H261.962V91.0589H255.589V89.6633ZM257.88 90.7956H259.645V93.363H257.88V90.7956ZM255.589 85.8056H261.883V87.1881H257.341V90.0978H255.589V85.8056ZM263.186 84.7128H264.937V96.9441H263.186V84.7128ZM255.023 94.5347L254.813 93.126C257.143 93.126 260.013 93.1128 262.515 92.8363L262.647 94.1134C260.013 94.5216 257.288 94.5479 255.023 94.5347ZM268.241 88.0175H276.694V89.4H268.241V88.0175ZM266.872 90.6639H277.918V92.0595H266.872V90.6639ZM268.241 85.1605H269.979V88.7022H268.241V85.1605ZM268.123 95.2589H276.76V96.6545H268.123V95.2589ZM268.123 93.0338H269.874V95.6275H268.123V93.0338ZM287.792 84.726H289.464V96.9178H287.792V84.726ZM283.157 89.1761H285.988V90.5849H283.157V89.1761ZM285.277 84.9366H286.91V96.378H285.277V84.9366ZM279.339 92.7705H280.182C281.907 92.7705 283.052 92.731 284.395 92.4677L284.527 93.8896C283.17 94.1661 281.959 94.2188 280.182 94.2188H279.339V92.7705ZM279.339 86.0953H283.987V87.4909H281.064V93.3761H279.339V86.0953Z" fill="black"/>
<path d="M72.2558 237.993H73.9147V245.261H72.2558V237.993ZM70.7943 240.929H72.7298V242.351H70.7943V240.929ZM69.6752 238.204H71.3078V245.208H69.6752V238.204ZM65.5411 245.801H73.9147V250.172H72.1768V247.196H65.5411V245.801ZM63.948 239.046H68.7799V244.55H63.948V239.046ZM67.1473 240.376H65.5806V243.22H67.1473V240.376ZM80.2598 244.84H81.9977V246.683H80.2598V244.84ZM75.6384 243.786H86.6585V245.169H75.6384V243.786ZM76.8629 246.196H85.3287V250.172H83.5776V247.578H76.8629V246.196ZM77.0472 238.283H78.772V239.362H83.525V238.283H85.2629V242.996H77.0472V238.283ZM78.772 240.666V241.627H83.525V240.666H78.772ZM101.306 237.993H103.057V246.959H101.306V237.993ZM102.557 241.416H104.677V242.851H102.557V241.416ZM95.1969 248.566H103.492V249.961H95.1969V248.566ZM95.1969 246.051H96.948V248.868H95.1969V246.051ZM93.8145 238.849H95.5524V240.6H97.9355V238.849H99.6734V245.037H93.8145V238.849ZM95.5524 241.93V243.668H97.9355V241.93H95.5524ZM114.379 237.98H116.038V250.172H114.379V237.98ZM112.746 242.667H114.774V244.076H112.746V242.667ZM111.654 238.191H113.273V249.592H111.654V238.191ZM105.913 245.985H106.769C108.27 245.985 109.521 245.932 110.969 245.669L111.101 247.091C109.626 247.381 108.336 247.42 106.769 247.42H105.913V245.985ZM105.913 239.389H110.416V240.798H107.651V246.67H105.913V239.389ZM117.696 247.407H128.729V248.829H117.696V247.407ZM122.317 245.103H124.068V247.986H122.317V245.103ZM118.933 238.77H127.491V242.825H120.698V244.879H118.96V241.456H125.753V240.152H118.933V238.77ZM118.96 244.181H127.768V245.59H118.96V244.181ZM70.1229 258.705H72.4401V260.114H70.1229V258.705ZM71.9793 255.98H73.7304V262.642H71.9793V255.98ZM65.6332 263.142H67.3712V264.248H71.9925V263.142H73.7304V268.04H65.6332V263.142ZM67.3712 265.604V266.645H71.9925V265.604H67.3712ZM66.3442 256.915H67.7661V257.692C67.7661 259.982 66.6865 262.102 64.3429 262.879L63.4608 261.483C65.4752 260.825 66.3442 259.232 66.3442 257.692V256.915ZM66.7128 256.915H68.1216V257.692C68.1216 259.113 68.9511 260.628 70.8733 261.273L70.0175 262.629C67.753 261.878 66.7128 259.864 66.7128 257.692V256.915ZM63.9348 256.533H70.4915V257.929H63.9348V256.533ZM81.1551 256.151C83.9331 256.151 85.5657 256.888 85.5657 258.231C85.5657 259.574 83.9331 260.312 81.1551 260.312C78.3638 260.312 76.7444 259.574 76.7444 258.231C76.7444 256.888 78.3638 256.151 81.1551 256.151ZM81.1551 257.428C79.3908 257.428 78.5613 257.692 78.5613 258.231C78.5613 258.798 79.3908 259.034 81.1551 259.034C82.9193 259.034 83.7488 258.798 83.7488 258.231C83.7488 257.692 82.9193 257.428 81.1551 257.428ZM75.6384 260.878H86.6585V262.26H75.6384V260.878ZM76.9024 262.945H85.3287V266.078H78.6403V267.158H76.9156V264.867H83.604V264.248H76.9024V262.945ZM76.9156 266.776H85.6447V268.093H76.9156V266.776ZM95.6894 255.98H97.4405V268.172H95.6894V255.98ZM96.9007 260.746H99.0205V262.194H96.9007V260.746ZM89.712 257.218H91.3446C91.3446 260.601 91.0286 263.195 88.8694 265.618L87.5001 264.63C89.3829 262.55 89.712 260.522 89.712 257.428V257.218ZM88.0399 257.218H90.3966V258.64H88.0399V257.218ZM93.0694 257.218H94.702C94.702 260.759 94.4123 263.748 92.2926 266.394L90.9233 265.42C92.7665 263.09 93.0694 260.746 93.0694 257.415V257.218ZM91.7528 257.218H93.7935V258.64H91.7528V257.218ZM104.916 262.841C104.886 262.862 104.532 263.111 103.855 263.586C103.422 263.886 103.092 264.163 102.865 264.416C102.659 264.643 102.432 264.756 102.183 264.756C101.939 264.756 101.725 264.668 101.54 264.493C101.356 264.313 101.264 264.107 101.264 263.876C101.264 263.533 101.54 263.149 102.093 262.725C102.603 262.365 103.113 262.003 103.623 261.638C104.176 261.218 104.453 260.839 104.453 260.501C104.453 260.102 104.249 259.729 103.842 259.382C103.439 259.03 103.019 258.855 102.582 258.855C102.351 258.855 102.033 258.988 101.63 259.253C101.228 259.515 100.943 259.645 100.775 259.645C100.523 259.645 100.308 259.553 100.133 259.369C99.9611 259.18 99.8754 258.973 99.8754 258.745C99.8754 258.317 100.25 257.925 101 257.569C101.635 257.265 102.162 257.113 102.582 257.113C103.512 257.113 104.352 257.455 105.102 258.141C105.856 258.827 106.233 259.613 106.233 260.501C106.233 261.379 105.794 262.159 104.916 262.841ZM101.83 267.463C101.585 267.463 101.363 267.386 101.161 267.231C100.943 267.06 100.833 266.848 100.833 266.595C100.833 266.304 100.919 266.034 101.09 265.785C101.296 265.481 101.573 265.329 101.92 265.329C102.211 265.329 102.438 265.438 102.601 265.656C102.73 265.836 102.794 266.049 102.794 266.293C102.794 266.554 102.723 266.799 102.582 267.026C102.402 267.317 102.151 267.463 101.83 267.463Z" fill="black"/>
<defs>
<filter id="filter0_d_186_1890" x="214.249" y="30.3599" width="130.983" height="104.142" filterUnits="userSpaceOnUse" color-interpolation-filters="sRGB">
<feFlood flood-opacity="0" result="BackgroundImageFix"/>
<feColorMatrix in="SourceAlpha" type="matrix" values="0 0 0 0 0 0 0 0 0 0 0 0 0 0 0 0 0 0 127 0" result="hardAlpha"/>
<feOffset dy="2.92581"/>
<feGaussianBlur stdDeviation="1.4629"/>
<feComposite in2="hardAlpha" operator="out"/>
<feColorMatrix type="matrix" values="0 0 0 0 0 0 0 0 0 0 0 0 0 0 0 0 0 0 0.25 0"/>
<feBlend mode="normal" in2="BackgroundImageFix" result="effect1_dropShadow_186_1890"/>
<feBlend mode="normal" in="SourceGraphic" in2="effect1_dropShadow_186_1890" result="shape"/>
</filter>
<filter id="filter1_d_186_1890" x="40.331" y="210.814" width="103.216" height="81.0025" filterUnits="userSpaceOnUse" color-interpolation-filters="sRGB">
<feFlood flood-opacity="0" result="BackgroundImageFix"/>
<feColorMatrix in="SourceAlpha" type="matrix" values="0 0 0 0 0 0 0 0 0 0 0 0 0 0 0 0 0 0 127 0" result="hardAlpha"/>
<feOffset dy="2.92581"/>
<feGaussianBlur stdDeviation="1.4629"/>
<feComposite in2="hardAlpha" operator="out"/>
<feColorMatrix type="matrix" values="0 0 0 0 0 0 0 0 0 0 0 0 0 0 0 0 0 0 0.25 0"/>
<feBlend mode="normal" in2="BackgroundImageFix" result="effect1_dropShadow_186_1890"/>
<feBlend mode="normal" in="SourceGraphic" in2="effect1_dropShadow_186_1890" result="shape"/>
</filter>
<radialGradient id="paint0_radial_186_1890" cx="0" cy="0" r="1" gradientUnits="userSpaceOnUse" gradientTransform="translate(195.5 195.5) rotate(90) scale(167.484)">
<stop stop-color="#DC5BB8"/>
<stop offset="1" stop-color="#DC5B99" stop-opacity="0"/>
</radialGradient>
</defs>
</svg>
